<svg width="59" height="59" viewBox="0 0 59 59" fill="none" xmlns="http://www.w3.org/2000/svg">
<path d="M53.7466 58.1051H4.35803C1.95547 58.1051 0 56.1496 0 53.7471V4.35852C0 1.95596 1.95547 0.000488281 4.35803 0.000488281H53.7466C56.1492 0.000488281 58.1046 1.95596 58.1046 4.35852V53.7471C58.1046 56.1496 56.1492 58.1051 53.7466 58.1051ZM4.35803 1.93657C3.02326 1.93657 1.93682 3.02212 1.93682 4.35778V53.7463C1.93682 55.0816 3.02332 56.1671 4.35803 56.1671H53.7466C55.0819 56.1671 56.1678 55.0815 56.1678 53.7459V4.35729C56.1673 3.02203 55.0808 1.93657 53.7466 1.93657H4.35803Z" fill="#009090"/>
<path d="M8.71614 9.68461H4.84225C4.30787 9.68461 3.87366 9.25183 3.87366 8.71601V4.84262C3.87366 4.30727 4.3074 3.87402 4.84225 3.87402H8.71565C9.25003 3.87402 9.68424 4.3068 9.68424 4.84262V8.71601C9.68424 9.25183 9.2505 9.68461 8.71613 9.68461H8.71614ZM5.81079 7.74791H7.74748V5.81121H5.81079V7.74791Z" fill="#009090"/>
<path d="M16.463 9.68461H12.5896C12.0552 9.68461 11.621 9.25183 11.621 8.71601V4.84262C11.621 4.30727 12.0547 3.87402 12.5896 3.87402H16.463C16.9973 3.87402 17.4316 4.3068 17.4316 4.84262V8.71601C17.4316 9.25183 16.9978 9.68461 16.463 9.68461ZM13.5581 7.74791H15.4948V5.81121H13.5581V7.74791Z" fill="#009090"/>
<path d="M24.2109 9.68461H20.3375C19.8031 9.68461 19.3689 9.25183 19.3689 8.71601V4.84262C19.3689 4.30727 19.8026 3.87402 20.3375 3.87402H24.2109C24.7453 3.87402 25.1795 4.3068 25.1795 4.84262V8.71601C25.1795 9.25183 24.7457 9.68461 24.2109 9.68461ZM21.3055 7.74791H23.2422L23.2427 5.81121H21.306L21.3055 7.74791Z" fill="#009090"/>
<path d="M57.1366 13.5581H0.969327C0.434941 13.5581 0.000732422 13.1253 0.000732422 12.5895V4.35803C0.000732422 1.95547 1.9562 0 4.35876 0H53.7473C56.1499 0 58.1054 1.95547 58.1054 4.35803V12.5895C58.1054 13.1248 57.6711 13.5581 57.1368 13.5581H57.1366ZM1.93737 11.6209H56.1686V4.35809C56.1686 3.02234 55.0821 1.93688 53.7479 1.93688H4.35932C3.02455 1.93688 1.9381 3.02243 1.9381 4.35809L1.93737 11.6209Z" fill="#009090"/>
<path d="M45.5152 47.453H31.9577C30.356 47.453 29.0524 46.1494 29.0524 44.5477C29.0524 42.9459 30.356 41.6423 31.9577 41.6423H45.5152C47.117 41.6423 48.4206 42.9459 48.4206 44.5477C48.4206 46.1494 47.117 47.453 45.5152 47.453ZM31.9577 43.5796C31.4243 43.5796 30.9891 44.0134 30.9891 44.5482C30.9891 45.0826 31.4238 45.5168 31.9577 45.5168H45.5152C46.0487 45.5168 46.4838 45.0831 46.4838 44.5482C46.4838 44.0139 46.0491 43.5796 45.5152 43.5796H31.9577Z" fill="#009090"/>
<path d="M48.4204 30.0209H30.0202C29.4858 30.0209 29.0516 29.5882 29.0516 29.0523C29.0516 28.517 29.4854 28.0837 30.0202 28.0837H48.4204C48.9548 28.0837 49.389 28.5165 49.389 29.0523C49.3885 29.5882 48.9548 30.0209 48.4204 30.0209Z" fill="#009090"/>
<path d="M43.5791 26.1474H30.0216C29.4872 26.1474 29.053 25.7146 29.053 25.1788C29.053 24.6435 29.4867 24.2102 30.0216 24.2102H43.5791C44.1135 24.2102 44.5477 24.643 44.5477 25.1788C44.5472 25.7141 44.1134 26.1474 43.5791 26.1474Z" fill="#009090"/>
<path d="M51.3259 33.8942H30.0216C29.4872 33.8942 29.053 33.4614 29.053 32.9256C29.053 32.3903 29.4867 31.957 30.0216 31.957H51.3259C51.8603 31.957 52.2945 32.3898 52.2945 32.9256C52.2945 33.4614 51.8607 33.8942 51.3259 33.8942Z" fill="#009090"/>
<path d="M51.3259 37.769H30.0216C29.4872 37.769 29.053 37.3362 29.053 36.8004C29.053 36.265 29.4867 35.8318 30.0216 35.8318H51.3259C51.8603 35.8318 52.2945 36.2646 52.2945 36.8004C52.2945 37.3362 51.8607 37.769 51.3259 37.769Z" fill="#009090"/>
<path d="M21.9411 51.3263H9.04987C7.26408 51.3263 5.8114 49.8742 5.8114 48.0884V21.6396C5.8114 19.8538 7.26408 18.4011 9.04987 18.4011H21.9411C23.7269 18.4011 25.1796 19.8538 25.1796 21.6396V48.0884C25.1796 49.8742 23.7269 51.3263 21.9411 51.3263ZM9.04987 20.3379C8.33192 20.3379 7.74822 20.9217 7.74822 21.6396V48.0884C7.74822 48.8058 8.33197 49.3895 9.04987 49.3895H21.9411C22.6586 49.3895 23.2428 48.8058 23.2428 48.0884V21.6396C23.2428 20.9216 22.6586 20.3379 21.9411 20.3379H9.04987Z" fill="#009090"/>
<path d="M17.4322 47.4529H13.5588C13.0244 47.4529 12.5902 47.0201 12.5902 46.4843V42.6109C12.5902 42.0756 13.024 41.6423 13.5588 41.6423H17.4322C17.9666 41.6423 18.4008 42.0751 18.4008 42.6109V46.4843C18.4008 47.0201 17.9666 47.4529 17.4322 47.4529ZM14.5268 45.5162H16.4635V43.5795H14.5268V45.5162Z" fill="#009090"/>
<path d="M16.4628 24.2114H14.5261C13.9917 24.2114 13.5575 23.7786 13.5575 23.2428C13.5575 22.7074 13.9912 22.2742 14.5261 22.2742H16.4628C16.9972 22.2742 17.4314 22.7069 17.4314 23.2428C17.4314 23.7786 16.9976 24.2114 16.4628 24.2114Z" fill="#009090"/>
<path d="M11.6213 29.0529H6.77926C6.24488 29.0529 5.81067 28.6201 5.81067 28.0843C5.81067 27.549 6.24441 27.1157 6.77926 27.1157H11.6213C12.1557 27.1157 12.5899 27.5485 12.5899 28.0843C12.5899 28.6201 12.1562 29.0529 11.6213 29.0529Z" fill="#009090"/>
<path d="M24.2108 38.737H19.3687C18.8344 38.737 18.4001 38.3042 18.4001 37.7684C18.4001 37.2331 18.8339 36.7998 19.3687 36.7998H24.2108C24.7452 36.7998 25.1794 37.2326 25.1794 37.7684C25.1794 38.3042 24.7456 38.737 24.2108 38.737Z" fill="#009090"/>
</svg>
