<svg width="62" height="62" viewBox="0 0 62 62" fill="none" xmlns="http://www.w3.org/2000/svg">
<path d="M60.5529 52.6588L52 48.3823V46.0004C52 44.8977 51.1031 44.0002 49.9998 44.0002L40 44.0008C38.8973 44.0008 37.9998 44.8977 37.9998 46.001V48.0012L5.00016 48.0006C2.24304 48.0006 0 50.2437 0 53.0008V57.0007C0 59.7578 2.24304 62.0008 5.00016 62.0008H51.2354L60.5516 57.3427C61.4443 56.8966 61.9991 55.9987 61.9991 55.0005C61.9991 54.0028 61.4443 53.1043 60.5522 52.6588H60.5529ZM55.9999 52.6186V57.3828L52 59.383V50.619L55.9999 52.6186ZM50.0004 54.0007H14.0006V50.0009H50.0004V54.0007ZM12.0005 60.0006H10.0003L10.0008 50.0009H12.001L12.0005 60.0006ZM14.0007 56.0002H50.0005V60.0001L14.0007 60.0006V56.0002ZM40.0002 46.0005H50V48.0007H40.0002V46.0005ZM2.00033 57.0005V53.0007C2.00033 51.3468 3.34644 50.0007 5.00029 50.0007H8.00025V60.0005H5.00029C3.34646 60.0005 2.00033 58.6544 2.00033 57.0005ZM59.6576 55.5536L57.9994 56.3824V53.6184L59.6576 54.4472C59.8687 54.5533 59.9996 54.7644 59.9996 55.0004C59.9996 55.2364 59.8687 55.4475 59.6576 55.5536V55.5536Z" fill="#009090"/>
<path d="M2.855 32.0002C3.94192 32.0002 4.92006 31.3963 5.40792 30.4223L6.61889 27.9998H24.0005C25.1033 27.9998 26.0007 27.1029 26.0007 25.9996V10.0004C26.0007 8.89768 25.1038 8.00024 24.0005 8.00024H2.00117C0.89841 8.00024 0.000976562 8.89712 0.000976562 10.0004V29.147C0.000976562 30.7207 1.28111 32.0007 2.85526 32.0007L2.855 32.0002ZM5.38305 26.0003L3.61881 29.5271C3.47364 29.8191 3.18066 30.0001 2.85496 30.0001C2.38461 30.0001 2.00084 29.6174 2.00084 29.146V11.2603L10.588 19.0673C11.25 19.6696 12.1067 20.0006 13.0009 20.0006C13.8952 20.0006 14.7519 19.6696 15.4138 19.0678L24.0004 11.2614V26.001L5.38305 26.0003ZM3.58772 10.0011H22.414L14.0681 17.588C13.4821 18.1211 12.5192 18.1211 11.9333 17.588L3.58772 10.0011Z" fill="#009090"/>
<path d="M8.00098 21.9995H10.0012V23.9997H8.00098V21.9995Z" fill="#009090"/>
<path d="M12.0017 21.9995H14.0019V23.9997H12.0017V21.9995Z" fill="#009090"/>
<path d="M16.0012 21.9995H18.0014V23.9997H16.0012V21.9995Z" fill="#009090"/>
<path d="M10.0012 32.0001C8.89841 32.0001 8.00098 32.8969 8.00098 34.0002V40.0002C8.00098 41.1029 8.89786 42.0004 10.0012 42.0004H21.383L22.594 44.4234C23.0807 45.3958 24.06 45.9997 25.1469 45.9997C26.721 45.9997 28.0006 44.7196 28.0006 43.1459V33.9997C28.0006 32.8969 27.1038 31.9995 26.0004 31.9995L10.0012 32.0001ZM26.0003 43.1459C26.0003 43.6168 25.616 44.0001 25.1462 44.0001C24.821 44.0001 24.5281 43.819 24.3824 43.5281L22.6181 39.9998H10.0006V33.9999H25.9997L26.0003 43.1459Z" fill="#009090"/>
<path d="M12.0017 36H16.0016V38.0002H12.0017V36Z" fill="#009090"/>
<path d="M18 36H23.9999V38.0002H18V36Z" fill="#009090"/>
<path d="M34.3588 30.1675C36.6736 32.2505 38.0007 35.2305 38.0007 38.3434V39.9994C38.0007 41.1022 38.8976 41.9996 40.0009 41.9996H50.0007C51.1034 41.9996 52.0008 41.1028 52.0008 39.9994V38.3434C52.0008 35.2305 53.328 32.2505 55.6427 30.1675L56.4029 29.4834C59.9592 26.2807 62.0001 21.6987 62.0001 16.9127C62.0001 7.587 54.4132 0 45.0874 0H44.9132C35.5875 0 28.0005 7.5874 28.0005 16.9127C28.0005 21.6985 30.0414 26.2806 33.5993 29.4838L34.3588 30.1675ZM46.0004 39.9994H44.0002L44.0007 20.3813L41.4478 21.6572C41.0007 21.8815 40.5002 21.9992 40.0003 21.9992C38.3465 21.9992 37.0004 20.6531 37.0004 18.9993C37.0004 17.3454 38.3465 15.9993 40.0003 15.9993C40.5002 15.9993 41.0001 16.1175 41.4473 16.3414L43.3434 17.2884L45.0005 14.8025L46.6576 17.2884L48.5537 16.3414C49.0003 16.1175 49.5002 15.9998 50.0006 15.9998C51.6545 15.9998 53.0006 17.3459 53.0006 18.9998C53.0006 20.6536 51.6545 21.9997 50.0006 21.9997C49.5007 21.9997 49.0008 21.8815 48.5537 21.6577L46.0002 20.3813L46.0004 39.9994ZM44.9135 1.99959H45.0877C53.3106 1.99959 60.0003 8.68953 60.0003 16.9122C60.0003 21.1322 58.2003 25.1732 55.0635 27.9973L54.3034 28.6814C51.5684 31.143 50.0005 34.665 50.0005 38.3428V39.9988H48.0003V23.6024C48.6322 23.8626 49.3164 23.9993 50.0005 23.9993C52.7576 23.9993 55.0007 21.7563 55.0007 18.9992C55.0007 16.2421 52.7576 13.999 50.0005 13.999C49.1913 13.999 48.3825 14.1901 47.6583 14.5523L47.3431 14.7101L45.0004 11.1965L42.6576 14.7106L42.3425 14.5528C41.6182 14.1907 40.8094 13.9996 40.0002 13.9996C37.2431 13.9996 35.0001 16.2426 35.0001 18.9997C35.0001 21.7568 37.2431 23.9999 40.0002 23.9999C40.6844 23.9999 41.368 23.8626 42.0004 23.6029V39.9994H40.0002V38.3434C40.0002 34.6645 38.4323 31.1425 35.6963 28.6804L34.9361 27.9962C31.8005 25.1736 30.0004 21.1326 30.0004 16.9126C30.0004 8.68966 36.6904 2 44.9131 2L44.9135 1.99959Z" fill="#009090"/>
</svg>
