<svg width="60" height="55" viewBox="0 0 60 55" fill="none" xmlns="http://www.w3.org/2000/svg">
<path d="M39.8989 39.1917C40.3715 39.6481 41.1226 39.6415 41.5871 39.177C42.0516 38.7125 42.0583 37.9614 41.6019 37.4888L35.2262 31.113L41.6019 24.7373C42.0583 24.2647 42.0516 23.5132 41.5871 23.0486C41.1226 22.5841 40.3715 22.5774 39.8989 23.0338L33.5232 29.4096L28.3522 24.2386C27.8815 23.7684 27.1189 23.7684 26.6487 24.2386L6.52399 44.3633H5.81818C5.17913 44.3633 4.5663 44.1096 4.11471 43.658C3.66308 43.2059 3.40938 42.5931 3.40938 41.9545V5.81814C3.40938 5.17909 3.66308 4.56627 4.11471 4.11467C4.56633 3.66257 5.17915 3.40886 5.81818 3.40886H49.1821C49.8206 3.40886 50.4334 3.66257 50.8855 4.11467C51.3372 4.56629 51.5909 5.17912 51.5909 5.81814V10.6363C51.5909 11.3016 52.1302 11.8405 52.7955 11.8405C53.4608 11.8405 54.0002 11.3016 54.0002 10.6363V5.81814C54.0002 4.54002 53.4923 3.31439 52.589 2.4112C51.6852 1.50748 50.4597 1 49.182 1H5.81814C4.54051 1 3.31488 1.50742 2.4112 2.4112C1.50748 3.31444 1 4.54014 1 5.81814V41.9545C1 43.2321 1.50742 44.4578 2.4112 45.361C3.31492 46.2647 4.54051 46.7725 5.81814 46.7725H7.02279C7.34232 46.7721 7.64849 46.6452 7.87454 46.4196L27.4999 26.7942L39.8989 39.1917Z" fill="#009090" stroke="white" stroke-width="0.4"/>
<path d="M17.8647 14.2496C17.8647 15.8467 18.499 17.379 19.6288 18.5083C20.7581 19.6376 22.2899 20.2723 23.8875 20.2723C25.4846 20.2723 27.0165 19.6376 28.1458 18.5083C29.2755 17.379 29.9098 15.8467 29.9098 14.2496C29.9098 12.6524 29.2755 11.1201 28.1458 9.99083C27.0165 8.86153 25.4846 8.22681 23.8875 8.22681C22.2904 8.22871 20.76 8.86395 19.6307 9.99279C18.5019 11.1221 17.8667 12.6529 17.8647 14.2496ZM27.501 14.2496C27.501 15.2081 27.1205 16.1271 26.4423 16.8048C25.7646 17.4825 24.8457 17.8631 23.8875 17.8631C22.929 17.8631 22.01 17.4825 21.3323 16.8048C20.6546 16.1272 20.2735 15.2082 20.2735 14.2496C20.2735 13.291 20.6546 12.372 21.3323 11.6943C22.0099 11.0166 22.9289 10.6361 23.8875 10.6361C24.8456 10.6361 25.7646 11.0166 26.4423 11.6943C27.1205 12.372 27.501 13.291 27.501 14.2496Z" fill="#009090" stroke="white" stroke-width="0.4"/>
<path d="M58.6979 26.9613L52.6751 14.9158V14.9162C52.6245 14.8156 52.5578 14.7241 52.4777 14.6449C52.254 14.394 51.9335 14.25 51.5973 14.25C51.2606 14.25 50.9406 14.394 50.7165 14.6449C50.6368 14.724 50.5701 14.8156 50.519 14.9162L44.4963 26.9618V26.9613C44.3432 27.2732 44.3313 27.6356 44.4638 27.9571C44.5959 28.278 44.8597 28.527 45.1878 28.6405C45.9651 28.9075 46.6456 29.3997 47.1426 30.055C47.6391 30.7097 47.93 31.4975 47.9777 32.3178V33.5225H46.773C46.1077 33.5225 45.5684 34.0619 45.5684 34.7271C45.5684 35.3924 46.1077 35.9318 46.773 35.9318H47.9777V44.3633H14.2501C13.5848 44.3633 13.0459 44.9027 13.0459 45.568C13.0459 46.2332 13.5848 46.7726 14.2501 46.7726H47.9777V51.5908C47.9638 52.2336 48.2133 52.8541 48.6682 53.309C49.1232 53.764 49.7436 54.0134 50.3865 53.9995H52.7957C53.4386 54.0134 54.0596 53.764 54.514 53.309C54.9689 52.854 55.2183 52.2336 55.2045 51.5908V35.932H56.4092C57.0744 35.932 57.6138 35.3926 57.6138 34.7273C57.6138 34.062 57.0744 33.5226 56.4092 33.5226H55.2045V32.318C55.2522 31.4977 55.5431 30.7104 56.04 30.0561C56.537 29.4013 57.217 28.9096 57.9944 28.6431C58.3273 28.5334 58.5958 28.284 58.7298 27.9597C58.8633 27.6359 58.85 27.2696 58.6921 26.9568L58.6979 26.9613ZM52.7957 51.591H50.3865V35.9322H52.7957V51.591ZM52.7957 32.3185V33.5231L50.3865 33.5226V32.318C50.3827 31.2192 50.0836 30.1419 49.5214 29.1976C48.9591 28.2538 48.1541 27.4779 47.1898 26.9509L50.3865 20.5571V26.2957C50.3865 26.961 50.9259 27.4999 51.5911 27.4999C52.2564 27.4999 52.7958 26.961 52.7958 26.2957V20.5571L55.9925 26.9509C55.0277 27.477 54.2222 28.2529 53.66 29.1971C53.0973 30.1413 52.7992 31.2191 52.7959 32.3179L52.7957 32.3185Z" fill="#009090" stroke="white" stroke-width="0.4"/>
</svg>
