<svg width="62" height="62" viewBox="0 0 62 62" fill="none" xmlns="http://www.w3.org/2000/svg">
<path d="M22.6956 42.0089H18.374C17.9725 42.011 17.6142 41.7581 17.482 41.3792L16.7775 39.3876L14.767 38.5145L12.888 39.4539V39.4534C12.5276 39.6252 12.0982 39.5498 11.8174 39.2658L8.74567 36.1941C8.46484 35.9112 8.39318 35.4818 8.56706 35.1229L9.5065 33.244L8.66084 31.234L6.5754 30.5011C6.19972 30.3699 5.94788 30.0163 5.94629 29.6185V25.2875C5.95525 24.8966 6.20605 24.5525 6.5754 24.4234L8.5671 23.7095L9.41275 21.6995L8.47331 19.7641C8.30155 19.4038 8.37689 18.9738 8.66088 18.693L11.7326 15.6402C12.0155 15.3593 12.4449 15.2882 12.8038 15.4615L14.6827 16.401L16.7023 15.5464L17.4068 13.5547C17.539 13.1758 17.8978 12.9229 18.2993 12.9256H22.6203C23.0218 12.9229 23.3801 13.1758 23.5129 13.5547L24.2173 15.5464C24.7247 15.7624 25.6358 16.1381 26.2274 16.401L28.1063 15.4615C28.4625 15.2924 28.8866 15.3635 29.168 15.6402L32.2493 18.693C32.5528 18.9427 32.6692 19.3553 32.5401 19.7267L31.6007 21.6621C31.8541 22.2538 32.2303 23.1653 32.4463 23.6721L34.438 24.386C34.8137 24.5172 35.0656 24.8708 35.0672 25.2691V29.5996C35.0656 29.9974 34.8137 30.3514 34.438 30.4826L32.4463 31.1871L31.6007 33.2067L32.5401 35.0856C32.714 35.4445 32.6423 35.8733 32.362 36.1563L29.2898 39.2285C29.0121 39.5426 28.56 39.6342 28.1817 39.4535L26.3028 38.5141L24.2928 39.3597L23.5883 41.3514H23.5878C23.4655 41.7413 23.1046 42.0074 22.6958 42.009L22.6956 42.0089ZM19.0321 40.13H22.038L22.6582 38.3638H22.6576C22.7488 38.1167 22.9401 37.9186 23.184 37.819L25.9549 36.6356C26.2026 36.5223 26.4871 36.5223 26.7347 36.6356L28.4255 37.4528L30.5579 35.3204L29.7501 33.6202C29.6374 33.3726 29.6374 33.088 29.7501 32.8404C30.0415 32.1734 30.9151 30.0784 30.9151 30.022C31.0189 29.7796 31.2202 29.5921 31.4694 29.5057L33.2355 28.876V25.8701L31.4505 25.3627C31.1997 25.2737 30.9984 25.0824 30.8962 24.8369C30.8962 24.8369 30.0226 22.7324 29.7312 22.0749C29.6185 21.8273 29.6185 21.5427 29.7312 21.2951L30.539 19.5759L28.4162 17.462L26.716 18.2792V18.2797C26.4657 18.3956 26.1775 18.3956 25.9272 18.2797C25.2696 17.9883 23.1652 17.1147 23.1652 17.1147C22.9191 17.0131 22.7279 16.8118 22.6393 16.5605L22.0192 14.7943H19.0133L18.3837 16.5605C18.2967 16.8097 18.1097 17.0109 17.8673 17.1147C17.8673 17.1147 15.7629 17.9883 15.0959 18.2797C14.8482 18.3924 14.5637 18.3924 14.3161 18.2797L12.6159 17.4625L10.5114 19.5385L11.3191 21.2577H11.3196C11.4298 21.5027 11.4298 21.783 11.3196 22.028L10.1642 24.7989C10.0641 25.0429 9.86649 25.2342 9.61937 25.3253L7.8532 25.9455V28.9514L9.61937 29.581V29.5805C9.8649 29.6695 10.0619 29.8566 10.1642 30.0973L11.3386 32.9157L11.3381 32.9152C11.4482 33.1602 11.4482 33.441 11.3381 33.6855L10.5304 35.3857L12.6627 37.5181L14.3535 36.7009V36.7014C14.5985 36.5913 14.8793 36.5913 15.1238 36.7014L17.9422 37.8759V37.8753C18.183 37.9776 18.3701 38.1746 18.4591 38.4201L19.0321 40.13Z" fill="#009090"/>
<path d="M20.5345 34.1746C18.7495 34.1794 17.0359 33.4749 15.771 32.2157C14.5059 30.9565 13.793 29.2461 13.7898 27.4611C13.7861 25.676 14.4927 23.963 15.753 22.699C17.0134 21.435 18.7247 20.7241 20.5093 20.7227C22.2944 20.7206 24.0069 21.4287 25.2698 22.6901C26.5322 23.952 27.2419 25.6633 27.2419 27.4484C27.2393 29.2282 26.5327 30.9349 25.2756 32.1951C24.0189 33.4554 22.3145 34.1667 20.5347 34.1746H20.5345ZM20.5345 22.6015V22.6009C19.2479 22.5962 18.0118 23.1031 17.0992 24.0098C16.1866 24.9165 15.6718 26.1489 15.6687 27.4356C15.6651 28.7222 16.1735 29.9572 17.0814 30.8693C17.9897 31.7808 19.2227 32.294 20.5093 32.2956C21.796 32.2972 23.0304 31.7871 23.9409 30.8777C24.8514 29.9688 25.363 28.7348 25.363 27.4481C25.3604 26.1667 24.8514 24.9381 23.9472 24.0302C23.0426 23.1218 21.8159 22.6081 20.5345 22.6007V22.6015Z" fill="#009090"/>
<path d="M52.3701 22.5451H49.0823C48.6866 22.5451 48.3336 22.2975 48.1992 21.9255L47.6918 20.4976L46.3577 19.9338L44.9957 20.5914C44.6353 20.7626 44.2059 20.6873 43.925 20.4033L41.5952 18.0734V18.0739C41.3117 17.7931 41.2364 17.3637 41.4076 17.0028L42.0652 15.6503L41.5014 14.3067L40.0735 13.7993V13.7999C39.7015 13.665 39.4539 13.312 39.4534 12.9168V9.629C39.4549 9.23067 39.7073 8.87713 40.083 8.74593L41.5014 8.23854L42.0652 6.89497L41.4077 5.52347C41.2364 5.16307 41.3118 4.73366 41.5952 4.45283L43.9251 2.14186C44.2059 1.85786 44.6353 1.78252 44.9957 1.95377L46.3482 2.61133L47.6918 2.04755L48.1992 0.629111C48.3304 0.253432 48.6844 0.00159163 49.0822 0H52.37C52.7678 0.0015807 53.1219 0.253432 53.2531 0.629111L53.7605 2.04755L55.1041 2.61133L56.4565 1.95377C56.8169 1.78253 57.2464 1.85787 57.5272 2.14186L59.857 4.45283C60.141 4.73366 60.2164 5.16307 60.0446 5.52347L59.387 6.89497L59.9603 8.23854L61.3692 8.74593C61.7448 8.87712 61.9972 9.23067 61.9988 9.629V12.9168C61.9988 13.312 61.7506 13.665 61.3786 13.7999L59.9602 14.3073L59.3869 15.6508L60.0445 17.0033V17.0028C60.2163 17.3637 60.1409 17.7931 59.8569 18.0739L57.5271 20.4038V20.4033C57.2463 20.6873 56.8168 20.7626 56.4564 20.5914L55.0944 19.9338L53.7603 20.4976L53.2529 21.9255C53.1186 22.2974 52.7655 22.5451 52.3698 22.5451H52.3701ZM49.7868 20.6667H51.6657L52.0883 19.4833V19.4828C52.1773 19.232 52.3686 19.0307 52.6146 18.9285L54.7191 18.0454H54.7186C54.9636 17.9353 55.2439 17.9353 55.4889 18.0454L56.6349 18.5997L58.0254 17.2092L57.4711 16.0632C57.3583 15.8156 57.3583 15.5316 57.4711 15.2839L58.3542 13.1891C58.4564 12.943 58.6577 12.7517 58.9085 12.6627L60.1203 12.2122V10.3333L58.9369 9.91072V9.91019C58.6856 9.82167 58.4843 9.63041 58.3826 9.38436L57.4996 7.28947C57.3863 7.04184 57.3863 6.75732 57.4996 6.50968L58.0538 5.35421L56.6729 3.93577L55.5269 4.49007C55.2793 4.60282 54.9948 4.60282 54.7471 4.49007L52.6522 3.60699C52.4062 3.5053 52.2149 3.30403 52.1264 3.0527L51.6659 1.87879H49.787L49.3644 3.06219C49.2754 3.31299 49.0841 3.51479 48.8381 3.61648L46.7432 4.49955H46.7437C46.4961 4.6123 46.2115 4.6123 45.9639 4.49955L44.8179 3.94526L43.39 5.31676L43.9443 6.47223C44.0544 6.71723 44.0544 6.99753 43.9443 7.24254C43.7283 7.76837 43.0613 9.347 43.0613 9.35644C42.9569 9.59881 42.7562 9.78585 42.507 9.87279L41.3325 10.3333V12.2122L42.5159 12.6348H42.5164C42.7672 12.7238 42.9685 12.9146 43.0707 13.1606C43.0707 13.1606 43.7378 14.7386 43.9538 15.2651H43.9533C44.0634 15.5101 44.0634 15.7904 43.9533 16.0354L43.399 17.1814L44.7895 18.5719L45.9355 18.0176C46.1805 17.9075 46.4608 17.9075 46.7058 18.0176L48.8103 18.9007C49.0563 19.0024 49.2476 19.2036 49.3361 19.455L49.7868 20.6667Z" fill="#009090"/>
<path d="M50.7256 16.5993C49.3099 16.5993 47.9526 16.0366 46.9516 15.035C45.951 14.0339 45.3894 12.6761 45.3899 11.2604C45.3909 9.84463 45.9542 8.48729 46.9563 7.48727C47.9579 6.48722 49.3162 5.92612 50.732 5.92774C52.1477 5.92932 53.5045 6.49362 54.504 7.4963C55.5035 8.49845 56.0641 9.85731 56.0615 11.2731C56.0589 12.6862 55.4956 14.0413 54.4956 15.0398C53.4951 16.0383 52.1393 16.5993 50.7258 16.5993H50.7256ZM50.7256 7.81611C49.8088 7.81611 48.9295 8.18019 48.2814 8.82827C47.6328 9.47687 47.2687 10.3562 47.2687 11.273C47.2687 12.1898 47.6328 13.0692 48.2814 13.7173C48.9295 14.3653 49.8088 14.73 50.7256 14.73C51.6424 14.73 52.5217 14.3653 53.1699 13.7173C53.8185 13.0692 54.1825 12.1898 54.1825 11.273C54.1825 10.3562 53.8185 9.47693 53.1699 8.82827C52.5218 8.18019 51.6424 7.81611 50.7256 7.81611Z" fill="#009090"/>
<path d="M20.5347 47.9843C15.0883 47.9843 9.86514 45.8209 6.01448 41.9698C2.16381 38.1187 0 32.8957 0 27.4495C0 22.003 2.1634 16.7799 6.01448 12.9293C9.86555 9.0782 15.0885 6.91479 20.5347 6.91479C25.9807 6.91479 31.2043 9.0782 35.055 12.9293C38.9061 16.7803 41.0695 22.0033 41.0695 27.4495C41.0647 32.8944 38.8992 38.1143 35.0492 41.9644C31.1992 45.8144 25.9793 47.9799 20.5343 47.9847L20.5347 47.9843ZM20.5347 8.79373C15.5867 8.79373 10.8416 10.759 7.34295 14.2581C3.84392 17.7568 1.87853 22.5019 1.87853 27.4499C1.87853 32.398 3.84379 37.1431 7.34295 40.6417C10.8416 44.1407 15.5867 46.1061 20.5347 46.1061C25.4828 46.1061 30.2279 44.1409 33.7265 40.6417C37.2255 37.1431 39.1909 32.398 39.1909 27.4499C39.1862 22.5035 37.2188 17.7609 33.7213 14.2634C30.2237 10.7659 25.4812 8.79845 20.5347 8.79373Z" fill="#009090"/>
<path d="M34.4469 47.6361C34.1971 47.6377 33.9569 47.5397 33.7798 47.3637L30.7455 44.3294V44.3299C30.4262 43.9569 30.4478 43.4015 30.7945 43.0543C31.1417 42.7076 31.697 42.686 32.0701 43.0053L34.4469 45.3726L38.458 41.333L36.0907 38.9657C35.9126 38.7897 35.8125 38.5494 35.8125 38.2986C35.8125 38.0483 35.9126 37.8081 36.0907 37.6321C36.4569 37.2675 37.0486 37.2675 37.4153 37.6321L40.4496 40.6664L40.4491 40.6659C40.6272 40.8424 40.7273 41.0827 40.7273 41.333C40.7273 41.5838 40.6272 41.8235 40.4491 42L35.1132 47.3359C34.941 47.5219 34.7002 47.6304 34.4467 47.6362L34.4469 47.6361Z" fill="#009090"/>
<path d="M46.0293 62C45.0967 61.9994 44.2025 61.6317 43.5397 60.9757L33.6852 51.0933C33.0287 50.4336 32.6599 49.5399 32.6599 48.609C32.6599 47.6774 33.0287 46.7844 33.6852 46.1241L39.2086 40.6008H39.2091C39.8704 39.9459 40.7634 39.5786 41.694 39.5786C42.6245 39.5786 43.5171 39.9459 44.1783 40.6008L54.0607 50.4921C54.7151 51.1523 55.0818 52.0433 55.0818 52.9722C55.0818 53.9011 54.7151 54.7926 54.0607 55.4523L48.5373 60.9757C47.8697 61.6364 46.9677 62.0047 46.0293 62H46.0293ZM41.6893 41.4558C41.2583 41.4563 40.8457 41.6286 40.5433 41.9347L35.0194 47.4586C34.7138 47.7632 34.542 48.1773 34.542 48.6094C34.542 49.0409 34.7138 49.455 35.0194 49.7601L44.9018 59.6425C45.2068 59.9481 45.621 60.1198 46.0525 60.1198C46.4845 60.1198 46.8987 59.9481 47.2032 59.6425L52.7271 54.1186C53.0327 53.814 53.2045 53.3999 53.2045 52.9679C53.2045 52.5363 53.0327 52.1222 52.7271 51.8171L42.8447 41.9347C42.5386 41.6276 42.1229 41.4547 41.6892 41.4558H41.6893Z" fill="#009090"/>
<path d="M46.6969 56.6925C45.7395 56.7041 44.8322 56.2699 44.24 55.5181C43.6478 54.7662 43.4391 53.782 43.6741 52.8541C43.9096 51.9268 44.5624 51.1612 45.4413 50.7824C46.3202 50.4036 47.325 50.4547 48.1606 50.9205C48.9968 51.3862 49.5685 52.214 49.7087 53.1608C49.8488 54.1076 49.5411 55.0655 48.8762 55.7536C48.305 56.3459 47.5194 56.6841 46.697 56.6926L46.6969 56.6925ZM46.6969 52.4089C46.2938 52.4057 45.916 52.6049 45.6905 52.9389C45.465 53.273 45.4218 53.6976 45.5757 54.0702C45.7295 54.4427 46.0599 54.7135 46.455 54.7915C46.8507 54.8689 47.2585 54.7435 47.542 54.4569C47.8819 54.1134 47.983 53.5996 47.7986 53.1528C47.6142 52.706 47.18 52.4131 46.6969 52.4089H46.6969Z" fill="#009090"/>
</svg>
