<svg width="35" height="35" viewBox="0 0 35 35" fill="none" xmlns="http://www.w3.org/2000/svg">
<g clip-path="url(#clip0_389_1830)">
<path d="M28.7571 28.0217C26.3531 25.4066 24.251 23.0509 22.4243 20.9225C25.4818 16.7756 26.8857 14.0874 26.8415 12.4667C26.7452 8.94421 25.5643 5.60164 23.4266 2.79993C23.4173 2.78708 23.4075 2.77478 23.3971 2.76295C21.9347 1.00693 19.7861 0 17.5002 0C15.2143 0 13.0657 1.007 11.6032 2.76309C11.5929 2.77491 11.5831 2.78722 11.5738 2.80007C9.43604 5.60185 8.2552 8.94441 8.15895 12.4668C8.11075 14.2302 9.84838 17.2135 12.4582 20.7624C12.1683 21.1151 11.8984 21.4441 11.6453 21.7527C9.76778 24.0419 8.73358 25.3029 6.24229 28.0217C6.07296 28.2064 6.05095 28.4828 6.1889 28.6921L10.185 34.7542C10.282 34.9014 10.4441 34.9928 10.6203 34.9997C10.6274 35 10.6345 35.0001 10.6416 35.0001C10.81 35.0001 10.9695 34.9224 11.0734 34.7888C11.6566 34.0384 12.675 32.844 13.9644 31.3318C15.038 30.0726 16.2466 28.6551 17.5036 27.1422C18.6502 28.5237 19.8403 29.9292 21.0359 31.3315C22.3253 32.8438 23.3438 34.0384 23.9271 34.7888C24.0309 34.9224 24.1904 35.0001 24.3588 35.0001C24.3659 35.0001 24.373 35 24.3801 34.9997C24.5563 34.9928 24.7184 34.9014 24.8155 34.7542L28.811 28.6929C28.9492 28.4832 28.9269 28.2064 28.7571 28.0217ZM23.649 5.09482C24.9561 7.33954 25.6762 9.86433 25.7482 12.4966C25.7728 13.3971 25.0823 15.4408 21.6951 20.0676C20.2858 18.4051 19.0523 16.8866 17.9814 15.4962C20.2182 12.4516 21.8186 9.87868 22.7386 7.84827C23.2117 6.80395 23.5147 5.88957 23.649 5.09482ZM17.2911 14.5876C16.2815 13.2396 15.4346 12.018 14.7366 10.9064C14.3645 10.314 14.0363 9.75393 13.749 9.22298C14.8455 8.46337 16.1634 8.0474 17.5003 8.0474C18.7176 8.0474 19.8949 8.38038 20.9276 9.01154C20.1067 10.5027 18.9337 12.3349 17.2911 14.5876ZM12.4891 3.40908C13.742 1.93655 15.5636 1.09375 17.5002 1.09375C19.4359 1.09375 21.2568 1.93573 22.5096 3.4071C22.7875 4.15591 22.686 5.52877 21.4367 8.04139C20.2469 7.32908 18.8961 6.95372 17.5001 6.95372C15.9909 6.95372 14.5024 7.4079 13.2488 8.24045C12.2637 6.15897 12.0226 4.59054 12.4891 3.40908ZM13.132 30.6221C12.1299 31.7974 11.2904 32.7821 10.6843 33.5243L7.33658 28.4457C9.64296 25.9187 10.675 24.6604 12.491 22.4462C12.6934 22.1994 12.9064 21.9397 13.1317 21.6654C14.2429 23.1359 15.4835 24.6895 16.7945 26.2838C15.4946 27.851 14.2412 29.3213 13.132 30.6221ZM24.3162 33.5243C23.71 32.782 22.8704 31.7972 21.8681 30.6217C19.5099 27.8558 16.2801 24.0678 13.69 20.5885C9.97573 15.5995 9.22665 13.4343 9.25229 12.4966C9.32133 9.96857 9.98818 7.5399 11.1989 5.363C11.3837 7.00021 12.239 8.98577 13.8103 11.488C16.3301 15.5009 20.7366 20.8962 27.6629 28.4472L24.3162 33.5243Z" fill="#1B1B1B"/>
</g>
<defs>
<clipPath id="clip0_389_1830">
<rect width="35" height="35" fill="white"/>
</clipPath>
</defs>
</svg>
