<svg width="40" height="40" viewBox="0 0 40 40" fill="none" xmlns="http://www.w3.org/2000/svg">
<path d="M39.3156 19.3917H35.9316C37.3384 16.1978 37.1863 13.6123 36.654 11.8632C35.7414 8.74536 32.6616 5.36133 28.0989 5.36133C26.8821 5.36133 25.6654 5.58946 24.4106 6.04574C22.2433 6.84422 20.7985 7.71874 20.1521 8.17502C19.5057 7.71874 18.0989 6.84422 15.8935 6.04574C14.6388 5.58946 13.384 5.36133 12.2053 5.36133C7.64259 5.36133 4.56274 8.74536 3.65019 11.8632C3.11787 13.7263 2.92776 16.54 4.71483 20.0762H0.608365C0.26616 20.0762 0 20.3423 0 20.6845C0 21.0267 0.26616 21.2929 0.608365 21.2929H5.43726C5.62738 21.6351 5.85551 21.9773 6.12167 22.3195C10.076 28.0229 18.6692 34.2206 20.2281 34.6009V34.6389C20.2281 34.6389 20.2662 34.6389 20.3042 34.6009C20.3422 34.6009 20.3802 34.6009 20.4183 34.6009V34.5628C21.7491 33.9165 30 28.5933 34.3346 22.2815C34.7529 21.7111 35.0951 21.1408 35.3992 20.5705H39.3916C39.7338 20.5705 40 20.3043 40 19.9621C40 19.6199 39.6578 19.3917 39.3156 19.3917ZM33.2319 21.6351C29.2015 27.5286 21.7871 32.2815 20.1901 33.3081C18.5551 32.2815 11.1787 27.4906 7.11027 21.6351C7.03422 21.521 6.95818 21.407 6.88213 21.2929H12.4715C12.6996 21.2929 12.9278 21.1788 13.0418 20.9507L15.5894 15.9317L19.5818 26.1598C19.6578 26.3879 19.924 26.54 20.1521 26.54C20.1521 26.54 20.1521 26.54 20.1901 26.54C20.4563 26.54 20.6844 26.3499 20.7605 26.0838L24.2586 14.1066L26.1217 20.1522C26.1977 20.3803 26.3878 20.5324 26.616 20.5705C26.8441 20.6085 27.0722 20.4944 27.2243 20.3043L28.7072 18.137L29.962 20.2663C30.076 20.4564 30.2662 20.5705 30.4943 20.5705H33.9164C33.6882 20.9507 33.4601 21.2929 33.2319 21.6351ZM34.6008 19.3917H30.8745L29.3156 16.7301C29.2015 16.54 29.0114 16.426 28.7833 16.426C28.5551 16.426 28.365 16.502 28.251 16.6921L26.9582 18.5933L24.8669 11.7872C24.7909 11.521 24.5247 11.3689 24.2586 11.3309C23.9924 11.3309 23.7262 11.521 23.6502 11.7872L20.1141 23.9925L16.2738 14.1826C16.1977 13.9545 15.9696 13.8024 15.7414 13.8024C15.4753 13.8024 15.2852 13.9165 15.1711 14.1446L12.1673 20.0381H6.12167C4.60076 17.2625 4.18251 14.6009 4.86692 12.2054C5.6654 9.50581 8.28897 6.61608 12.2433 6.61608C13.308 6.61608 14.4106 6.84422 15.5133 7.22445C18.289 8.25106 19.7719 9.42977 19.8099 9.42977C20.038 9.61988 20.3422 9.61988 20.5703 9.42977C20.5703 9.42977 22.0532 8.25106 24.8669 7.22445C25.9696 6.80619 27.0722 6.61608 28.1369 6.61608C32.0532 6.61608 34.7148 9.50581 35.5133 12.2054C36.1597 14.4108 35.8175 16.8442 34.6008 19.3917Z" fill="#1B1B1B"/>
</svg>
