<svg width="35" height="35" viewBox="0 0 35 35" fill="none" xmlns="http://www.w3.org/2000/svg">
<g clip-path="url(#clip0_389_1833)">
<path d="M19.8964 16.5982C19.9996 16.8001 20.205 16.9167 20.4173 16.9167C20.5059 16.9167 20.5969 16.8963 20.6816 16.8532C20.7159 16.8357 24.1495 15.0915 25.8429 14.5566C26.1497 14.4592 26.32 14.1313 26.2226 13.8245C26.1257 13.5177 25.8003 13.3468 25.4905 13.4436C23.7067 14.0077 20.2966 15.7402 20.1519 15.8137C19.8649 15.9595 19.7506 16.3107 19.8964 16.5982Z" fill="#1B1B1B"/>
<path d="M20.4173 9.91697C20.5059 9.91697 20.5969 9.89654 20.6815 9.8534C20.7159 9.8359 24.1495 8.09172 25.8428 7.55682C26.1497 7.45941 26.32 7.13156 26.2226 6.82476C26.1257 6.5179 25.8003 6.347 25.4905 6.44387C23.7067 7.00796 20.2965 8.74045 20.1519 8.81394C19.8649 8.95974 19.7506 9.3109 19.8964 9.59849C19.9996 9.80029 20.2049 9.91697 20.4173 9.91697Z" fill="#1B1B1B"/>
<path d="M34.4164 8.75021C34.0938 8.75021 33.8331 9.01155 33.8331 9.33352V32.0833C33.8331 33.0482 33.0479 33.8333 32.0831 33.8333H18.0832V32.4911C18.9338 32.1936 21.1492 31.5 23.3332 31.5C28.4146 31.5 31.865 32.6253 31.8994 32.6369C32.0749 32.6952 32.271 32.6661 32.4244 32.5564C32.5766 32.4467 32.6664 32.2706 32.6664 32.0833V6.41692C32.6664 6.14334 32.4769 5.90648 32.2097 5.84756C32.2097 5.84756 31.7523 5.7455 30.9707 5.60194C30.655 5.54363 30.35 5.75363 30.2916 6.06979C30.2333 6.38711 30.4427 6.69104 30.7595 6.74935C31.0576 6.80417 31.3073 6.85257 31.4998 6.89112V31.3081C30.1779 30.9616 27.2426 30.3333 23.3331 30.3333C20.7915 30.3333 18.2949 31.1681 17.5226 31.451C16.836 31.1477 14.7605 30.3333 12.2498 30.3333C8.23184 30.3333 4.92204 30.996 3.4999 31.3326V6.86836C4.66481 6.58193 8.10531 5.83354 12.2498 5.83354C14.3767 5.83354 16.2007 6.4956 16.9165 6.79487V29.75C16.9165 29.96 17.0296 30.1543 17.2122 30.2575C17.3948 30.3614 17.62 30.3584 17.8002 30.25C17.858 30.2156 23.6376 26.7634 28.7674 25.0537C29.006 24.9737 29.1664 24.7515 29.1664 24.5001V0.583584C29.1664 0.392247 29.0725 0.213147 28.915 0.104115C28.7586 -0.00498582 28.558 -0.0300735 28.3777 0.0370549C23.7105 1.78759 18.988 4.7264 18.9407 4.75559C18.6676 4.92649 18.5842 5.2864 18.7551 5.55942C18.9255 5.83245 19.2854 5.91585 19.559 5.74495C19.6021 5.71754 23.7105 3.1614 27.9997 1.4365V24.0825C24.0179 25.4661 19.8605 27.7254 18.0831 28.7368V6.41692C18.0831 6.19584 17.9583 5.99398 17.7605 5.89486C17.6602 5.8453 15.2697 4.66693 12.2498 4.66693C6.97889 4.66693 2.92651 5.80736 2.75616 5.85631C2.5059 5.92747 2.33322 6.15674 2.33322 6.41692V32.0834C2.33322 32.266 2.41956 32.4387 2.56482 32.5489C2.6675 32.6265 2.79116 32.6668 2.9166 32.6668C2.97026 32.6668 3.02392 32.6592 3.07642 32.644C3.11668 32.6329 7.1504 31.5001 12.2498 31.5001C14.3825 31.5001 16.2048 32.1639 16.9165 32.462V33.8334H2.9166C1.95178 33.8334 1.16661 33.0482 1.16661 32.0834V9.33358C1.16661 9.01161 0.905276 8.75028 0.583306 8.75028C0.261336 8.75028 0 9.01161 0 9.33358V32.0834C0 33.6916 1.30839 35.0001 2.91667 35.0001H32.0831C33.6913 35.0001 34.9998 33.6917 34.9998 32.0834V9.33358C34.9997 9.01154 34.739 8.75021 34.4164 8.75021Z" fill="#1B1B1B"/>
<path d="M19.8964 13.0982C19.9996 13.3001 20.205 13.4167 20.4173 13.4167C20.5059 13.4167 20.5969 13.3963 20.6816 13.3532C20.7159 13.3357 24.1495 11.5915 25.8429 11.0566C26.1497 10.9592 26.32 10.6313 26.2226 10.3245C26.1257 10.0177 25.8003 9.84676 25.4905 9.94362C23.7067 10.5077 20.2966 12.2402 20.1519 12.3137C19.8649 12.4595 19.7506 12.8107 19.8964 13.0982Z" fill="#1B1B1B"/>
<path d="M19.8964 20.0982C19.9996 20.3001 20.205 20.4167 20.4173 20.4167C20.5059 20.4167 20.5969 20.3963 20.6816 20.3532C20.7159 20.3357 24.1495 18.5915 25.8429 18.0566C26.1497 17.9592 26.32 17.6313 26.2226 17.3245C26.1257 17.0177 25.8003 16.8468 25.4905 16.9436C23.7067 17.5077 20.2966 19.2402 20.1519 19.3137C19.8649 19.4595 19.7506 19.8107 19.8964 20.0982Z" fill="#1B1B1B"/>
<path d="M14.1328 10.8257C10.5307 9.98043 6.43749 11.0573 6.26543 11.1034C5.95453 11.1868 5.76962 11.5064 5.85302 11.8179C5.92302 12.0786 6.15865 12.2501 6.41595 12.2501C6.46613 12.2501 6.51685 12.2437 6.56764 12.2303C6.60674 12.2193 10.5477 11.1827 13.8669 11.9614C14.1789 12.0343 14.4945 11.8401 14.568 11.5262C14.6414 11.213 14.4466 10.8992 14.1328 10.8257Z" fill="#1B1B1B"/>
<path d="M14.1328 14.3257C10.5307 13.481 6.43749 14.5573 6.26543 14.6033C5.95453 14.6867 5.76962 15.0064 5.85302 15.3179C5.92302 15.5786 6.15865 15.7501 6.41595 15.7501C6.46613 15.7501 6.51685 15.7437 6.56764 15.7303C6.60674 15.7192 10.5477 14.6826 13.8669 15.4614C14.1789 15.5343 14.4945 15.34 14.568 15.0262C14.6414 14.713 14.4466 14.3991 14.1328 14.3257Z" fill="#1B1B1B"/>
<path d="M19.8964 23.5982C19.9996 23.8001 20.205 23.9167 20.4173 23.9167C20.5059 23.9167 20.5969 23.8963 20.6816 23.8532C20.7159 23.8357 24.1495 22.0915 25.8429 21.5566C26.1497 21.4592 26.32 21.1313 26.2226 20.8245C26.1257 20.5177 25.8003 20.3468 25.4905 20.4436C23.7067 21.0077 20.2966 22.7402 20.1519 22.8137C19.8649 22.9595 19.7506 23.3107 19.8964 23.5982Z" fill="#1B1B1B"/>
<path d="M14.1328 17.8258C10.5307 16.9811 6.43749 18.0568 6.26543 18.1034C5.95453 18.1868 5.76962 18.5066 5.85302 18.818C5.92302 19.0787 6.15865 19.2508 6.41595 19.2508C6.46613 19.2508 6.51685 19.2439 6.56764 19.2304C6.60674 19.2193 10.5477 18.1827 13.8669 18.9615C14.1789 19.0344 14.4945 18.8401 14.568 18.5263C14.6414 18.2131 14.4466 17.8993 14.1328 17.8258Z" fill="#1B1B1B"/>
<path d="M14.1328 24.8257C10.5307 23.9804 6.43749 25.0573 6.26543 25.1034C5.95453 25.1868 5.76962 25.5065 5.85302 25.8179C5.92302 26.0786 6.15865 26.2508 6.41595 26.2508C6.46613 26.2508 6.51685 26.2438 6.56764 26.2303C6.60674 26.2192 10.5477 25.1827 13.8669 25.9614C14.1789 26.0337 14.4945 25.8401 14.568 25.5262C14.6414 25.213 14.4466 24.8992 14.1328 24.8257Z" fill="#1B1B1B"/>
<path d="M14.1328 21.3255C10.5307 20.4803 6.43749 21.5565 6.26543 21.6032C5.95453 21.6866 5.76962 22.0063 5.85302 22.3178C5.92302 22.5785 6.15865 22.7506 6.41595 22.7506C6.46613 22.7506 6.51685 22.7437 6.56764 22.7302C6.60674 22.7191 10.5477 21.6825 13.8669 22.4613C14.1789 22.5342 14.4945 22.3399 14.568 22.0261C14.6414 21.7129 14.4466 21.399 14.1328 21.3255Z" fill="#1B1B1B"/>
</g>
<defs>
<clipPath id="clip0_389_1833">
<rect width="35" height="35" fill="white"/>
</clipPath>
</defs>
</svg>
