<svg width="38" height="38" viewBox="0 0 38 38" fill="none" xmlns="http://www.w3.org/2000/svg">
<g clip-path="url(#clip0_389_1850)">
<path d="M14.25 24.4488V18.7031C14.25 17.5572 13.3178 16.625 12.1719 16.625C11.8518 16.625 11.552 16.704 11.2812 16.8334V13.3594C11.2812 12.2134 10.3491 11.2812 9.20312 11.2812C8.88309 11.2812 8.58325 11.3602 8.3125 11.4897V9.79688C8.3125 8.65094 7.38031 7.71875 6.23438 7.71875C5.26953 7.71875 4.46263 8.38375 4.23047 9.27675C3.86353 9.04519 3.43306 8.90625 2.96875 8.90625C1.65894 8.90625 0.59375 9.97144 0.59375 11.2812V21.375C0.59375 21.4742 0.618687 21.5721 0.666187 21.6594L4.22869 28.1907C4.256 28.2399 4.29044 28.2863 4.33022 28.326L8.97869 32.9745C9.31 33.3058 9.5 33.7648 9.5 34.2338V36.8125C9.5 37.1402 9.766 37.4062 10.0938 37.4062H17.2188C17.5465 37.4062 17.8125 37.1402 17.8125 36.8125V29.4363C17.8125 28.6817 17.5287 27.9621 17.0139 27.4105L14.25 24.4488ZM12.1719 17.8125C12.6629 17.8125 13.0625 18.2121 13.0625 18.7031V23.1764L11.2812 21.2681V18.7031C11.2812 18.2121 11.6808 17.8125 12.1719 17.8125ZM9.20312 12.4688C9.69416 12.4688 10.0938 12.8683 10.0938 13.3594V18.7031V19.9957L9.69237 19.5658C9.35691 19.2066 8.8825 19 8.39028 19H8.3125V13.3594C8.3125 12.8683 8.71209 12.4688 9.20312 12.4688ZM5.34375 9.79688C5.34375 9.30584 5.74334 8.90625 6.23438 8.90625C6.72541 8.90625 7.125 9.30584 7.125 9.79688V13.3594V19.4619C6.86137 19.6994 6.66484 20.0112 6.57994 20.368L5.34375 18.7946V11.2812V9.79688ZM16.625 36.2188H10.6875V34.2338C10.6875 33.4412 10.3787 32.6954 9.81825 32.1349L5.23034 27.547L1.78125 21.2236V11.2812C1.78125 10.6263 2.31384 10.0938 2.96875 10.0938C3.62366 10.0938 4.15625 10.6263 4.15625 11.2812V19C4.15625 19.133 4.20078 19.2618 4.28331 19.3669L10.8146 27.6794L11.7479 26.9462L7.71875 21.8173V20.7812C7.71875 20.4541 7.98534 20.1875 8.3125 20.1875H8.39028C8.55416 20.1875 8.71209 20.2564 8.82431 20.3757L16.1464 28.2203C16.4546 28.5517 16.625 28.9833 16.625 29.4363V36.2188Z" fill="#1B1B1B"/>
<path d="M35.0312 8.90625C34.5669 8.90625 34.1365 9.04519 33.7695 9.27675C33.5374 8.38375 32.7305 7.71875 31.7656 7.71875C30.6197 7.71875 29.6875 8.65094 29.6875 9.79688V11.4897C29.4167 11.3602 29.1169 11.2812 28.7969 11.2812C27.6509 11.2812 26.7188 12.2134 26.7188 13.3594V16.8334C26.448 16.704 26.1482 16.625 25.8281 16.625C24.6822 16.625 23.75 17.5572 23.75 18.7031V24.4488L20.9861 27.4105C20.4713 27.9621 20.1875 28.6817 20.1875 29.4363V36.8125C20.1875 37.1402 20.4535 37.4062 20.7812 37.4062H27.9062C28.234 37.4062 28.5 37.1402 28.5 36.8125V34.2338C28.5 33.7648 28.69 33.3064 29.0213 32.9745L33.6698 28.326C33.7096 28.2863 33.744 28.2399 33.7713 28.1907L37.3338 21.6594C37.3813 21.5721 37.4062 21.4742 37.4062 21.375V11.2812C37.4062 9.97144 36.3411 8.90625 35.0312 8.90625ZM30.875 9.79688C30.875 9.30584 31.2746 8.90625 31.7656 8.90625C32.2567 8.90625 32.6562 9.30584 32.6562 9.79688V11.2812V18.7946L31.4201 20.3674C31.3352 20.0106 31.1386 19.6994 30.875 19.4613V13.3594V9.79688ZM27.9062 13.3594C27.9062 12.8683 28.3058 12.4688 28.7969 12.4688C29.2879 12.4688 29.6875 12.8683 29.6875 13.3594V19H29.6097C29.1175 19 28.6431 19.2066 28.3076 19.5658L27.9062 19.9963V18.7031V13.3594ZM24.9375 18.7031C24.9375 18.2121 25.3371 17.8125 25.8281 17.8125C26.3192 17.8125 26.7188 18.2121 26.7188 18.7031V21.2681L24.9375 23.1764V18.7031ZM36.2188 21.2236L32.7697 27.5464L28.1818 32.1343C27.6213 32.6954 27.3125 33.4406 27.3125 34.2338V36.2188H21.375V29.4363C21.375 28.9833 21.5454 28.5517 21.8542 28.2209L29.1763 20.3763C29.2879 20.2564 29.4458 20.1875 29.6097 20.1875H29.6875C30.0147 20.1875 30.2812 20.4541 30.2812 20.7812V21.8173L26.2521 26.9456L27.1854 27.6788L33.7167 19.3663C33.7992 19.2618 33.8438 19.133 33.8438 19V11.2812C33.8438 10.6263 34.3763 10.0938 35.0312 10.0938C35.6862 10.0938 36.2188 10.6263 36.2188 11.2812V21.2236Z" fill="#1B1B1B"/>
<path d="M27.896 5.48508C27.7963 3.88314 26.9929 2.43973 25.6932 1.52477C23.7962 0.190016 21.2335 0.306391 19.4612 1.80739L19.0004 2.19808L18.5391 1.80739C16.7668 0.306391 14.2047 0.190016 12.3071 1.52477C11.0074 2.43973 10.204 3.88314 10.1043 5.48508C10.0039 7.09177 10.6238 8.62898 11.8054 9.70308L18.6009 15.8834C18.7143 15.9861 18.8574 16.0378 19.0004 16.0378C19.1435 16.0378 19.2866 15.9861 19.4 15.8834L26.1955 9.70308C27.3765 8.62898 27.9963 7.09177 27.896 5.48508ZM19.0004 14.6425L12.6046 8.82552C11.6914 7.99486 11.2122 6.80439 11.29 5.55989C11.3672 4.31955 11.9877 3.2027 12.9911 2.49673C13.6674 2.02055 14.4535 1.78542 15.2384 1.78542C16.1421 1.78542 17.044 2.09714 17.7714 2.71405L18.6163 3.43011C18.8378 3.61714 19.1625 3.61714 19.384 3.43011L20.2295 2.71345C21.5886 1.56217 23.5551 1.47192 25.0098 2.49614C26.0132 3.20211 26.6337 4.31895 26.7109 5.5593C26.7887 6.80439 26.3095 7.99486 25.3963 8.82492L19.0004 14.6425Z" fill="#1B1B1B"/>
</g>
<defs>
<clipPath id="clip0_389_1850">
<rect width="38" height="38" fill="white"/>
</clipPath>
</defs>
</svg>
