<svg width="557" height="495" viewBox="0 0 557 495" fill="none" xmlns="http://www.w3.org/2000/svg">
<g clip-path="url(#clip0_3_25497)">
<path d="M299.026 7.90255C215.801 25.5034 228.192 122.779 84.8977 177.359C-68.6901 235.857 24.3357 456.596 199.067 469.165C372.984 481.67 453.192 403.215 471.061 254.079C484.5 141.943 422.718 -18.2418 299.026 7.90255Z" fill="#EAF1FF"/>
<path d="M103.409 157.36C140.73 144.534 197.312 84.537 176.853 17.3669C156.395 -49.8033 -6.80131 195.26 103.409 157.36Z" fill="#EAF1FF"/>
<path d="M188.26 195.667L208.568 194.639L209.039 181.77C214.903 180.164 220.317 177.53 225.153 174.105L235.404 181.899L249.036 166.803L240.262 157.382C243.194 152.221 245.248 146.568 246.254 140.573L259.008 138.817L257.981 118.497L245.12 118.026C243.515 112.159 240.882 106.72 237.458 101.902L245.248 91.646L230.182 78.0064L220.766 86.7854C215.609 83.852 209.959 81.7964 203.967 80.79L202.213 68.0283L181.904 69.0561L181.433 81.9249C175.591 83.5308 170.155 86.1645 165.319 89.5904L155.068 81.7964L141.437 96.8706L150.211 106.292C147.279 111.452 145.224 117.127 144.219 123.101L131.464 124.856L132.491 145.177L145.353 145.648C146.958 151.515 149.59 156.932 153.014 161.771L145.224 172.028L160.311 185.667L169.727 176.888C174.885 179.822 180.556 181.877 186.526 182.884L188.26 195.667ZM158.557 133.678C157.529 113.422 173.13 96.164 193.374 95.1362C213.619 94.1084 230.867 109.718 231.873 129.974C232.9 150.23 217.3 167.488 197.055 168.516C176.832 169.544 159.584 153.956 158.557 133.678Z" fill="#2276FF"/>
<path d="M181.112 77.7707L181.454 68.6063L196.777 67.8354L196.82 68.7348L182.332 69.4628L182.011 77.7921L181.112 77.7707Z" fill="#101C3A"/>
<path d="M131.485 125.306L131.357 124.407L143.769 122.694C144.604 115.949 147.835 109.825 147.878 109.761L148.67 110.189C148.627 110.253 145.374 116.441 144.625 123.143L144.582 123.486L131.485 125.306Z" fill="#101C3A"/>
<path d="M173.237 161.792L173.75 161.064C197.397 177.659 217.941 160.143 218.155 159.951L218.755 160.636C218.519 160.829 197.44 178.793 173.237 161.792Z" fill="#101C3A"/>
<path d="M216.379 178.772C221.13 176.353 224.854 173.762 224.896 173.741L225.175 173.548L228.941 176.417L228.406 177.124L225.153 174.661C224.212 175.304 220.873 177.488 216.807 179.586L216.379 178.772Z" fill="#101C3A"/>
<path d="M135.188 150.122L134.118 128.967L146.958 127.19C147.236 125.456 148.734 117.405 152.778 110.81L143.962 101.324L158.15 85.6288L168.465 93.4657C169.813 92.5022 175.933 88.284 184.151 86.0143L184.622 73.0599L205.765 71.9893L207.541 84.8366C209.403 85.1578 218.455 86.9136 223.912 90.6607L233.371 81.8389L249.057 96.0352L241.246 106.356C242.273 107.619 246.361 113.036 248.693 122.072L261.64 122.544L262.71 143.699L249.87 145.476C249.592 147.232 248.094 155.454 244.049 161.856L252.866 171.342L238.678 187.037L228.363 179.2C227.036 180.228 221.13 184.511 212.656 186.652L212.185 199.606L191.042 200.677L189.265 187.829C187.596 187.594 180.213 186.373 172.894 181.984L163.414 190.806L147.728 176.609L155.539 166.289C154.469 164.983 150.103 159.266 148.092 150.572L135.188 150.122ZM135.059 129.738L136.044 149.266L148.862 149.737L148.948 150.08C151.131 159.951 156.438 165.946 156.502 166.01L156.759 166.289L148.991 176.524L163.478 189.628L172.852 180.892L173.13 181.063C181.305 186.074 189.672 186.994 189.758 186.994L190.1 187.037L191.855 199.756L211.372 198.771L211.842 185.967L212.163 185.881C221.751 183.547 228.042 178.365 228.106 178.301L228.385 178.065L238.592 185.817L251.689 171.321L242.958 161.921L243.151 161.621C247.73 154.576 249.078 145.069 249.078 144.984L249.121 144.641L261.811 142.885L260.827 123.357L248.03 122.886L247.944 122.565C245.398 112.373 240.433 106.677 240.39 106.613L240.155 106.334L247.923 96.0994L233.456 82.9951L224.062 91.7527L223.762 91.5386C218.006 87.4275 207.241 85.6288 207.134 85.6074L206.813 85.5646L205.059 72.8672L185.542 73.8521L185.071 86.6566L184.75 86.7423C175.462 89.2047 168.85 94.2794 168.786 94.3222L168.507 94.5363L158.3 86.7851L145.203 101.26L153.934 110.638L153.741 110.938C149.162 118.218 147.814 127.49 147.814 127.575L147.771 127.918L135.059 129.738Z" fill="#101C3A"/>
<path d="M163.457 148.988C156.481 129.695 166.496 108.326 185.777 101.346C205.059 94.3652 226.416 104.386 233.392 123.679C240.369 142.971 230.353 164.34 211.072 171.321C191.769 178.301 170.412 168.28 163.457 148.988ZM232.558 123.978C225.753 105.157 204.909 95.3716 186.077 102.181C167.266 108.99 157.487 129.845 164.292 148.688C171.097 167.509 191.94 177.295 210.772 170.486C229.583 163.677 239.363 142.821 232.558 123.978Z" fill="#101C3A"/>
<path d="M464.79 341.163H221.686C215.288 341.163 210.109 335.981 210.109 329.579V149.352C210.109 144.963 213.661 141.408 218.048 141.408H468.407C472.794 141.408 476.346 144.963 476.346 149.352V329.579C476.368 335.981 471.189 341.163 464.79 341.163Z" fill="white"/>
<path d="M464.79 342.64H221.686C214.496 342.64 208.632 336.773 208.632 329.579V149.352C208.632 144.149 212.848 139.931 218.048 139.931H468.407C473.607 139.931 477.823 144.17 477.823 149.352V329.579C477.844 336.773 472.002 342.64 464.79 342.64ZM218.07 142.886C214.496 142.886 211.586 145.798 211.586 149.373V329.6C211.586 335.167 216.122 339.707 221.686 339.707H464.79C470.354 339.707 474.891 335.167 474.891 329.6V149.352C474.891 145.776 471.981 142.864 468.407 142.864H218.07V142.886Z" fill="#CFE0FA"/>
<path d="M466.032 327.352H326.675V271.145H327.039V326.988H466.032V327.352Z" fill="#101C3A"/>
<path d="M461.131 271.616H460.767V327.159H461.131V271.616Z" fill="#101C3A"/>
<path d="M415.827 299.388H415.463V327.159H415.827V299.388Z" fill="#101C3A"/>
<path d="M460.938 299.195H415.635V299.559H460.938V299.195Z" fill="#101C3A"/>
<path d="M372.342 300.629H371.979V327.159H372.342V300.629Z" fill="#101C3A"/>
<path d="M460.939 300.437H372.15V300.801H460.939V300.437Z" fill="#101C3A"/>
<path d="M334.208 318.744H333.844V327.159H334.208V318.744Z" fill="#101C3A"/>
<path d="M460.96 318.573H334.036V318.937H460.96V318.573Z" fill="#101C3A"/>
<path d="M326.867 327.865C326.76 327.865 326.632 327.844 326.525 327.78C326.183 327.587 326.054 327.159 326.247 326.816C326.354 326.624 328.922 322.041 335.235 316.517C341.034 311.442 351.221 304.612 366.843 300.907C378.591 298.102 388.307 298.702 396.867 299.216C410.178 300.03 420.685 300.672 431.984 288.06C441.85 277.054 450.581 273.072 456.166 271.658C462.308 270.117 466.074 271.209 466.246 271.252C466.631 271.359 466.823 271.765 466.716 272.129C466.609 272.515 466.203 272.708 465.839 272.6C465.796 272.6 462.201 271.551 456.402 273.05C451.03 274.421 442.599 278.318 433.033 288.981C421.284 302.107 410.477 301.443 396.781 300.608C388.307 300.094 378.698 299.516 367.164 302.256C337.867 309.237 327.574 327.287 327.488 327.48C327.36 327.737 327.103 327.865 326.867 327.865Z" fill="#425FEC"/>
<path d="M463.549 271.616C463.549 273.05 462.372 274.228 460.938 274.228C459.505 274.228 458.328 273.072 458.328 271.616C458.328 270.16 459.483 269.003 460.938 269.003C462.394 269.003 463.549 270.181 463.549 271.616Z" fill="#101C3A"/>
<path d="M418.245 299.366C418.245 300.801 417.09 301.978 415.634 301.978C414.201 301.978 413.024 300.822 413.024 299.366C413.024 297.91 414.179 296.754 415.634 296.754C417.09 296.754 418.245 297.932 418.245 299.366Z" fill="#101C3A"/>
<path d="M374.696 300.608C374.696 302.043 373.541 303.22 372.086 303.22C370.652 303.22 369.475 302.064 369.475 300.608C369.475 299.173 370.652 297.996 372.086 297.996C373.519 297.996 374.696 299.173 374.696 300.608Z" fill="#101C3A"/>
<path d="M336.626 318.744C336.626 320.179 335.47 321.356 334.015 321.356C332.581 321.356 331.404 320.2 331.404 318.744C331.404 317.31 332.56 316.132 334.015 316.132C335.47 316.132 336.626 317.31 336.626 318.744Z" fill="#101C3A"/>
<path d="M454.904 183.719C454.904 187.23 452.079 190.057 448.569 190.057C445.06 190.057 442.235 187.209 442.235 183.719C442.235 180.207 445.081 177.381 448.569 177.381V171.835C442 171.835 436.671 177.167 436.671 183.74C436.671 190.314 442 195.645 448.569 195.645C455.139 195.645 460.468 190.314 460.468 183.74H454.904V183.719Z" fill="#425FEC"/>
<path d="M419.166 183.719C419.166 187.23 416.341 190.057 412.831 190.057C409.322 190.057 406.497 187.209 406.497 183.719C406.497 180.207 409.343 177.381 412.831 177.381V171.835C406.261 171.835 400.933 177.167 400.933 183.74C400.933 190.314 406.261 195.645 412.831 195.645C419.401 195.645 424.73 190.314 424.73 183.74H419.166V183.719Z" fill="#FC721A"/>
<path d="M382.144 179.136H332.196V180.828H382.144V179.136Z" fill="#101C3A"/>
<path d="M334.978 182.926H332.196V184.618H334.978V182.926Z" fill="#101C3A"/>
<path d="M382.144 182.926H365.965V184.618H382.144V182.926Z" fill="#101C3A"/>
<path d="M361.621 182.926H341.377V184.618H361.621V182.926Z" fill="#101C3A"/>
<path d="M382.144 186.716H374.183V188.408H382.144V186.716Z" fill="#101C3A"/>
<path d="M346.363 186.716H332.196V188.408H346.363V186.716Z" fill="#101C3A"/>
<path d="M368.191 186.716H351.584V188.408H368.191V186.716Z" fill="#101C3A"/>
<path d="M299.24 278.532H234.698V280.373H299.24V278.532Z" fill="#101C3A"/>
<path d="M255.263 272.044H234.698V273.885H255.263V272.044Z" fill="#101C3A"/>
<path d="M278.525 272.044H264.144V273.885H278.525V272.044Z" fill="#101C3A"/>
<path d="M292.392 299.002H234.698V300.843H292.392V299.002Z" fill="#101C3A"/>
<path d="M255.263 292.514H234.698V294.356H255.263V292.514Z" fill="#101C3A"/>
<path d="M302.065 292.514H264.144V294.356H302.065V292.514Z" fill="#101C3A"/>
<path d="M277.797 286.026H234.698V287.868H277.797V286.026Z" fill="#101C3A"/>
<path d="M304.847 286.026H283.575V287.868H304.847V286.026Z" fill="#101C3A"/>
<path d="M291.771 319.451H234.077V321.293H291.771V319.451Z" fill="#101C3A"/>
<path d="M254.642 312.984H234.077V314.826H254.642V312.984Z" fill="#101C3A"/>
<path d="M301.466 312.984H263.545V314.826H301.466V312.984Z" fill="#101C3A"/>
<path d="M277.177 306.497H234.077V308.338H277.177V306.497Z" fill="#101C3A"/>
<path d="M304.226 306.497H282.955V308.338H304.226V306.497Z" fill="#101C3A"/>
<path d="M454.369 250.975H428.582C426.506 250.975 424.815 249.283 424.815 247.206V221.404C424.815 219.327 426.506 217.636 428.582 217.636H454.369C456.444 217.636 458.135 219.327 458.135 221.404V247.206C458.156 249.283 456.466 250.975 454.369 250.975Z" fill="#425FEC"/>
<path d="M447.028 230.44C447.05 233.759 444.525 236.457 441.4 236.479C438.254 236.5 435.686 233.802 435.665 230.505C435.644 227.186 438.147 224.488 441.293 224.466C444.439 224.445 447.007 227.122 447.028 230.44Z" fill="white"/>
<path d="M433.867 244.123C433.825 239.669 437.249 239.37 441.443 239.348C445.659 239.327 449.061 239.626 449.104 244.059L433.867 244.123Z" fill="white"/>
<path d="M411.697 250.975H385.91C383.834 250.975 382.144 249.283 382.144 247.206V221.404C382.144 219.327 383.834 217.636 385.91 217.636H411.697C413.773 217.636 415.463 219.327 415.463 221.404V247.206C415.463 249.283 413.773 250.975 411.697 250.975Z" fill="#FC721A"/>
<path d="M404.335 230.44C404.357 233.759 401.832 236.457 398.707 236.479C395.561 236.5 392.993 233.802 392.972 230.505C392.951 227.186 395.476 224.488 398.6 224.466C401.746 224.445 404.314 227.122 404.335 230.44Z" fill="white"/>
<path d="M391.174 244.123C391.132 239.669 394.556 239.37 398.75 239.348C402.966 239.327 406.368 239.626 406.411 244.059L391.174 244.123Z" fill="white"/>
<path d="M369.988 250.975H344.18C342.104 250.975 340.414 249.283 340.414 247.206V221.404C340.414 219.327 342.104 217.636 344.18 217.636H369.967C372.043 217.636 373.733 219.327 373.733 221.404V247.206C373.755 249.283 372.064 250.975 369.988 250.975Z" fill="#3E36C7"/>
<path d="M362.648 230.44C362.67 233.759 360.144 236.457 357.02 236.479C353.874 236.5 351.306 233.802 351.285 230.505C351.263 227.186 353.788 224.488 356.913 224.466C360.037 224.445 362.605 227.122 362.648 230.44Z" fill="white"/>
<path d="M349.466 244.123C349.423 239.669 352.847 239.37 357.041 239.348C361.257 239.327 364.66 239.626 364.703 244.059L349.466 244.123Z" fill="white"/>
<path d="M372.321 257.227H340.991V258.919H372.321V257.227Z" fill="#101C3A"/>
<path d="M342.725 261.017H340.991V262.709H342.725V261.017Z" fill="#101C3A"/>
<path d="M372.321 261.017H362.177V262.709H372.321V261.017Z" fill="#101C3A"/>
<path d="M359.438 261.017H346.748V262.709H359.438V261.017Z" fill="#101C3A"/>
<path d="M372.321 264.807H367.335V266.499H372.321V264.807Z" fill="#101C3A"/>
<path d="M349.872 264.807H340.991V266.499H349.872V264.807Z" fill="#101C3A"/>
<path d="M363.59 264.807H353.168V266.499H363.59V264.807Z" fill="#101C3A"/>
<path d="M414.458 257.227H383.128V258.919H414.458V257.227Z" fill="#101C3A"/>
<path d="M384.861 261.017H383.128V262.709H384.861V261.017Z" fill="#101C3A"/>
<path d="M414.458 261.017H404.314V262.709H414.458V261.017Z" fill="#101C3A"/>
<path d="M401.575 261.017H388.885V262.709H401.575V261.017Z" fill="#101C3A"/>
<path d="M414.458 264.807H409.471V266.499H414.458V264.807Z" fill="#101C3A"/>
<path d="M392.009 264.807H383.128V266.499H392.009V264.807Z" fill="#101C3A"/>
<path d="M405.727 264.807H395.305V266.499H405.727V264.807Z" fill="#101C3A"/>
<path d="M457.151 257.227H425.821V258.919H457.151V257.227Z" fill="#101C3A"/>
<path d="M427.554 261.017H425.821V262.709H427.554V261.017Z" fill="#101C3A"/>
<path d="M457.151 261.017H447.007V262.709H457.151V261.017Z" fill="#101C3A"/>
<path d="M444.268 261.017H431.578V262.709H444.268V261.017Z" fill="#101C3A"/>
<path d="M457.129 264.807H452.143V266.499H457.129V264.807Z" fill="#101C3A"/>
<path d="M434.702 264.807H425.821V266.499H434.702V264.807Z" fill="#101C3A"/>
<path d="M448.398 264.807H437.976V266.499H448.398V264.807Z" fill="#101C3A"/>
<path d="M310.625 180.421H233.884V257.206H310.625V180.421Z" fill="#425FEC"/>
<path d="M304.098 251.96L281.649 207.379L268.253 235.515L258.858 220.634L240.497 251.767L304.098 251.96Z" fill="#FC721A"/>
<path d="M262.304 202.176C262.325 204.917 264.572 207.122 267.311 207.101C270.05 207.08 272.255 204.831 272.233 202.09C272.212 199.35 269.965 197.144 267.226 197.166C264.486 197.187 262.282 199.435 262.304 202.176Z" fill="white"/>
<path d="M239.478 185.254L238.781 185.95L305.008 252.347L305.705 251.651L239.478 185.254Z" fill="white"/>
<path d="M305.047 185.298L238.754 251.629L239.45 252.326L305.743 185.995L305.047 185.298Z" fill="white"/>
<path d="M240.476 252.966C242.102 252.966 242.337 252.623 242.337 252.238C242.337 251.874 242.123 251.51 240.476 251.51C238.828 251.51 238.614 251.874 238.614 252.238C238.614 252.602 238.849 252.966 240.476 252.966Z" fill="white"/>
<path d="M245.89 252.966C247.516 252.966 247.752 252.623 247.752 252.238C247.752 251.874 247.538 251.51 245.89 251.51C244.242 251.51 244.028 251.874 244.028 252.238C244.049 252.602 244.263 252.966 245.89 252.966Z" fill="white"/>
<path d="M251.325 252.966C252.952 252.966 253.187 252.623 253.187 252.238C253.187 251.874 252.973 251.51 251.325 251.51C249.699 251.51 249.464 251.874 249.464 252.238C249.464 252.602 249.699 252.966 251.325 252.966Z" fill="white"/>
<path d="M256.761 252.966C258.387 252.966 258.623 252.623 258.623 252.238C258.623 251.874 258.409 251.51 256.761 251.51C255.135 251.51 254.899 251.874 254.899 252.238C254.899 252.602 255.113 252.966 256.761 252.966Z" fill="white"/>
<path d="M262.175 252.966C263.802 252.966 264.037 252.623 264.037 252.238C264.037 251.874 263.823 251.51 262.175 251.51C260.549 251.51 260.313 251.874 260.313 252.238C260.335 252.602 260.549 252.966 262.175 252.966Z" fill="white"/>
<path d="M267.611 252.966C269.237 252.966 269.473 252.623 269.473 252.238C269.473 251.874 269.259 251.51 267.611 251.51C265.963 251.51 265.749 251.874 265.749 252.238C265.749 252.602 265.984 252.966 267.611 252.966Z" fill="white"/>
<path d="M273.025 252.966C274.651 252.966 274.887 252.623 274.887 252.238C274.887 251.874 274.673 251.51 273.025 251.51C271.399 251.51 271.163 251.874 271.163 252.238C271.185 252.602 271.399 252.966 273.025 252.966Z" fill="white"/>
<path d="M278.461 252.966C280.087 252.966 280.322 252.623 280.322 252.238C280.322 251.874 280.108 251.51 278.461 251.51C276.834 251.51 276.599 251.874 276.599 252.238C276.599 252.602 276.834 252.966 278.461 252.966Z" fill="white"/>
<path d="M283.896 252.966C285.523 252.966 285.758 252.623 285.758 252.238C285.758 251.874 285.544 251.51 283.896 251.51C282.27 251.51 282.034 251.874 282.034 252.238C282.034 252.602 282.248 252.966 283.896 252.966Z" fill="white"/>
<path d="M289.31 252.966C290.937 252.966 291.172 252.623 291.172 252.238C291.172 251.874 290.958 251.51 289.31 251.51C287.684 251.51 287.449 251.874 287.449 252.238C287.47 252.602 287.684 252.966 289.31 252.966Z" fill="white"/>
<path d="M294.746 252.966C296.372 252.966 296.608 252.623 296.608 252.238C296.608 251.874 296.394 251.51 294.746 251.51C293.098 251.51 292.884 251.874 292.884 252.238C292.884 252.602 293.12 252.966 294.746 252.966Z" fill="white"/>
<path d="M300.16 252.966C301.787 252.966 302.022 252.623 302.022 252.238C302.022 251.874 301.808 251.51 300.16 251.51C298.534 251.51 298.298 251.874 298.298 252.238C298.32 252.602 298.534 252.966 300.16 252.966Z" fill="white"/>
<path d="M304.654 253.223L305.018 252.944C305.125 252.944 305.253 252.966 305.36 252.966L306.088 252.987L306.109 252.045C306.109 252.024 306.109 252.002 306.109 251.981L306.602 251.488L306.088 251.51C306.002 250.375 305.681 250.204 305.36 250.204C305.018 250.204 304.697 250.375 304.633 251.574C304.098 251.66 303.713 251.831 303.713 252.259C303.713 252.687 304.098 252.859 304.633 252.944V253.223H304.654Z" fill="white"/>
<path d="M305.403 248.448C305.767 248.448 306.131 248.234 306.131 246.585C306.131 244.958 305.767 244.722 305.403 244.722C305.018 244.722 304.676 244.936 304.676 246.585C304.654 248.212 305.018 248.448 305.403 248.448Z" fill="white"/>
<path d="M305.403 243.009C305.767 243.009 306.131 242.795 306.131 241.147C306.131 239.498 305.767 239.284 305.403 239.284C305.018 239.284 304.676 239.519 304.676 241.147C304.676 242.774 305.018 243.009 305.403 243.009Z" fill="white"/>
<path d="M305.403 237.592C305.767 237.592 306.131 237.378 306.131 235.729C306.131 234.102 305.767 233.866 305.403 233.866C305.018 233.866 304.676 234.102 304.676 235.729C304.654 237.356 305.018 237.592 305.403 237.592Z" fill="white"/>
<path d="M305.403 232.153C305.767 232.153 306.131 231.939 306.131 230.291C306.131 228.663 305.767 228.428 305.403 228.428C305.018 228.428 304.676 228.663 304.676 230.291C304.654 231.939 305.018 232.153 305.403 232.153Z" fill="white"/>
<path d="M305.403 226.715C305.767 226.715 306.131 226.5 306.131 224.852C306.131 223.224 305.767 222.989 305.403 222.989C305.018 222.989 304.676 223.203 304.676 224.852C304.654 226.5 305.018 226.715 305.403 226.715Z" fill="white"/>
<path d="M305.403 221.297C305.767 221.297 306.131 221.083 306.131 219.434C306.131 217.807 305.767 217.571 305.403 217.571C305.018 217.571 304.676 217.807 304.676 219.434C304.654 221.061 305.018 221.297 305.403 221.297Z" fill="white"/>
<path d="M305.403 215.859C305.767 215.859 306.131 215.644 306.131 213.996C306.131 212.368 305.767 212.133 305.403 212.133C305.018 212.133 304.676 212.368 304.676 213.996C304.654 215.644 305.018 215.859 305.403 215.859Z" fill="white"/>
<path d="M305.403 210.441C305.767 210.441 306.131 210.227 306.131 208.578C306.131 206.951 305.767 206.715 305.403 206.715C305.018 206.715 304.676 206.951 304.676 208.578C304.654 210.206 305.018 210.441 305.403 210.441Z" fill="white"/>
<path d="M305.403 205.003C305.767 205.003 306.131 204.788 306.131 203.14C306.131 201.512 305.767 201.277 305.403 201.277C305.018 201.277 304.676 201.512 304.676 203.14C304.654 204.767 305.018 205.003 305.403 205.003Z" fill="white"/>
<path d="M305.403 199.564C305.767 199.564 306.131 199.349 306.131 197.701C306.131 196.073 305.767 195.838 305.403 195.838C305.018 195.838 304.676 196.073 304.676 197.701C304.654 199.349 305.018 199.564 305.403 199.564Z" fill="white"/>
<path d="M305.403 194.147C305.767 194.147 306.131 193.932 306.131 192.284C306.131 190.635 305.767 190.421 305.403 190.421C305.018 190.421 304.676 190.656 304.676 192.284C304.654 193.911 305.018 194.147 305.403 194.147Z" fill="white"/>
<path d="M300.909 186.631C302.536 186.631 302.771 186.267 302.771 185.903C302.771 185.517 302.557 185.175 300.909 185.175C299.283 185.175 299.047 185.517 299.047 185.903C299.069 186.267 299.283 186.631 300.909 186.631Z" fill="white"/>
<path d="M295.495 186.631C297.121 186.631 297.357 186.267 297.357 185.903C297.357 185.517 297.121 185.175 295.495 185.175C293.869 185.175 293.633 185.517 293.633 185.903C293.633 186.267 293.869 186.631 295.495 186.631Z" fill="white"/>
<path d="M290.059 186.631C291.686 186.631 291.921 186.267 291.921 185.903C291.921 185.517 291.686 185.175 290.059 185.175C288.433 185.175 288.198 185.517 288.198 185.903C288.219 186.267 288.433 186.631 290.059 186.631Z" fill="white"/>
<path d="M284.645 186.631C286.272 186.631 286.507 186.267 286.507 185.903C286.507 185.517 286.293 185.175 284.645 185.175C283.019 185.175 282.783 185.517 282.783 185.903C282.783 186.267 282.997 186.631 284.645 186.631Z" fill="white"/>
<path d="M279.21 186.631C280.836 186.631 281.071 186.267 281.071 185.903C281.071 185.517 280.857 185.175 279.21 185.175C277.583 185.175 277.348 185.517 277.348 185.903C277.348 186.267 277.583 186.631 279.21 186.631Z" fill="white"/>
<path d="M273.774 186.631C275.4 186.631 275.636 186.267 275.636 185.903C275.636 185.517 275.4 185.175 273.774 185.175C272.148 185.175 271.912 185.517 271.912 185.903C271.934 186.267 272.148 186.631 273.774 186.631Z" fill="white"/>
<path d="M268.36 186.631C269.986 186.631 270.222 186.267 270.222 185.903C270.222 185.517 269.986 185.175 268.36 185.175C266.733 185.175 266.498 185.517 266.498 185.903C266.498 186.267 266.712 186.631 268.36 186.631Z" fill="white"/>
<path d="M262.924 186.631C264.551 186.631 264.786 186.267 264.786 185.903C264.786 185.517 264.551 185.175 262.924 185.175C261.298 185.175 261.062 185.517 261.062 185.903C261.062 186.267 261.298 186.631 262.924 186.631Z" fill="white"/>
<path d="M257.489 186.631C259.115 186.631 259.35 186.267 259.35 185.903C259.35 185.517 259.115 185.175 257.489 185.175C255.862 185.175 255.627 185.517 255.627 185.903C255.648 186.267 255.862 186.631 257.489 186.631Z" fill="white"/>
<path d="M252.074 186.631C253.701 186.631 253.936 186.267 253.936 185.903C253.936 185.517 253.701 185.175 252.074 185.175C250.448 185.175 250.213 185.517 250.213 185.903C250.213 186.267 250.427 186.631 252.074 186.631Z" fill="white"/>
<path d="M246.639 186.631C248.265 186.631 248.501 186.267 248.501 185.903C248.501 185.517 248.265 185.175 246.639 185.175C245.012 185.175 244.777 185.517 244.777 185.903C244.798 186.267 245.012 186.631 246.639 186.631Z" fill="white"/>
<path d="M241.203 186.631C242.83 186.631 243.065 186.267 243.065 185.903C243.065 185.517 242.83 185.175 241.203 185.175C239.577 185.175 239.341 185.517 239.341 185.903C239.363 186.267 239.577 186.631 241.203 186.631Z" fill="white"/>
<path d="M239.106 191.085C239.491 191.085 239.834 190.849 239.834 189.222C239.834 187.594 239.491 187.359 239.106 187.359C238.742 187.359 238.378 187.573 238.378 189.222C238.378 190.871 238.742 191.085 239.106 191.085Z" fill="white"/>
<path d="M239.106 196.523C239.491 196.523 239.834 196.288 239.834 194.66C239.834 193.033 239.491 192.797 239.106 192.797C238.742 192.797 238.378 193.012 238.378 194.66C238.378 196.288 238.742 196.523 239.106 196.523Z" fill="white"/>
<path d="M239.106 201.941C239.491 201.941 239.834 201.705 239.834 200.078C239.834 198.45 239.491 198.215 239.106 198.215C238.742 198.215 238.378 198.429 238.378 200.078C238.378 201.726 238.742 201.941 239.106 201.941Z" fill="white"/>
<path d="M239.106 207.38C239.491 207.38 239.834 207.144 239.834 205.517C239.834 203.889 239.491 203.654 239.106 203.654C238.742 203.654 238.378 203.868 238.378 205.517C238.378 207.144 238.742 207.38 239.106 207.38Z" fill="white"/>
<path d="M239.106 212.797C239.491 212.797 239.834 212.582 239.834 210.934C239.834 209.306 239.491 209.071 239.106 209.071C238.742 209.071 238.378 209.285 238.378 210.934C238.378 212.582 238.742 212.797 239.106 212.797Z" fill="white"/>
<path d="M239.106 218.235C239.491 218.235 239.834 218 239.834 216.373C239.834 214.745 239.491 214.51 239.106 214.51C238.742 214.51 238.378 214.724 238.378 216.373C238.378 218.021 238.742 218.235 239.106 218.235Z" fill="white"/>
<path d="M239.106 223.674C239.491 223.674 239.834 223.438 239.834 221.811C239.834 220.184 239.491 219.948 239.106 219.948C238.742 219.948 238.378 220.162 238.378 221.811C238.378 223.438 238.742 223.674 239.106 223.674Z" fill="white"/>
<path d="M239.106 229.091C239.491 229.091 239.834 228.856 239.834 227.229C239.834 225.601 239.491 225.366 239.106 225.366C238.742 225.366 238.378 225.58 238.378 227.229C238.378 228.877 238.742 229.091 239.106 229.091Z" fill="white"/>
<path d="M239.106 234.53C239.491 234.53 239.834 234.316 239.834 232.667C239.834 231.04 239.491 230.804 239.106 230.804C238.742 230.804 238.378 231.018 238.378 232.667C238.378 234.316 238.742 234.53 239.106 234.53Z" fill="white"/>
<path d="M239.106 239.969C239.491 239.969 239.834 239.755 239.834 238.106C239.834 236.479 239.491 236.243 239.106 236.243C238.742 236.243 238.378 236.457 238.378 238.106C238.378 239.733 238.742 239.969 239.106 239.969Z" fill="white"/>
<path d="M239.106 245.386C239.491 245.386 239.834 245.172 239.834 243.523C239.834 241.896 239.491 241.66 239.106 241.66C238.742 241.66 238.378 241.874 238.378 243.523C238.378 245.172 238.742 245.386 239.106 245.386Z" fill="white"/>
<path d="M239.106 250.825C239.491 250.825 239.834 250.589 239.834 248.962C239.834 247.335 239.491 247.099 239.106 247.099C238.742 247.099 238.378 247.313 238.378 248.962C238.378 250.611 238.742 250.825 239.106 250.825Z" fill="white"/>
<path d="M241.546 249.091H236.645V253.994H241.546V249.091Z" fill="white"/>
<path d="M236.153 248.62V254.529H242.059V248.62H236.153ZM241.075 253.523H237.159V249.605H241.075V253.523Z" fill="white"/>
<path d="M307.843 249.776H302.942V254.679H307.843V249.776Z" fill="white"/>
<path d="M302.429 249.283V255.193H308.335V249.283H302.429ZM307.351 254.187H303.434V250.268H307.351V254.187Z" fill="white"/>
<path d="M241.546 182.97H236.645V187.873H241.546V182.97Z" fill="white"/>
<path d="M236.153 182.477V188.387H242.059V182.477H236.153ZM241.075 187.38H237.159V183.462H241.075V187.38Z" fill="white"/>
<path d="M307.843 183.441H302.942V188.344H307.843V183.441Z" fill="white"/>
<path d="M302.429 182.948V188.858H308.335V182.948H302.429ZM307.351 187.852H303.434V183.933H307.351V187.852Z" fill="white"/>
<path d="M452.464 148.41C451.48 148.41 450.688 149.202 450.688 150.187C450.688 151.172 451.48 151.964 452.464 151.964C453.448 151.964 454.24 151.172 454.24 150.187C454.24 149.202 453.448 148.41 452.464 148.41Z" fill="#2B173F"/>
<path d="M459.933 148.41C458.948 148.41 458.156 149.202 458.156 150.187C458.156 151.172 458.948 151.964 459.933 151.964C460.917 151.964 461.709 151.172 461.709 150.187C461.709 149.202 460.917 148.41 459.933 148.41Z" fill="#425FEC"/>
<path d="M467.401 148.41C466.417 148.41 465.625 149.202 465.625 150.187C465.625 151.172 466.417 151.964 467.401 151.964C468.386 151.964 469.177 151.172 469.177 150.187C469.177 149.202 468.386 148.41 467.401 148.41Z" fill="#FC721A"/>
<path d="M461.516 160.401H278.14V163.099H461.516V160.401Z" fill="#CFE0FA"/>
<path d="M313.107 389.576L312.166 382.595L300.032 384.415L300.973 391.396C301.423 394.757 304.504 397.07 307.864 396.556C311.203 396.063 313.557 392.937 313.107 389.576Z" fill="#390D9F"/>
<path d="M302.75 395.464C301.573 394.436 300.802 393.044 300.588 391.46L299.604 384.094L312.487 382.146L313.471 389.511C313.942 393.066 311.459 396.406 307.907 396.941C306.195 397.198 304.483 396.77 303.092 395.742C302.985 395.657 302.857 395.571 302.75 395.464ZM300.46 384.736L301.359 391.353C301.573 392.873 302.364 394.222 303.563 395.121C304.783 396.042 306.281 396.406 307.8 396.192C310.946 395.721 313.15 392.766 312.722 389.618L311.823 383.023L300.46 384.736Z" fill="#101C3A"/>
<path d="M289.161 291.551L290.766 303.477L299.711 302.128L298.127 290.33L289.161 291.551Z" fill="#390D9F"/>
<path d="M290.445 303.906L288.733 291.23L298.448 289.923L300.139 302.449L290.445 303.906ZM289.589 291.872L291.087 303.049L299.304 301.807L297.806 290.758L289.589 291.872Z" fill="#101C3A"/>
<path opacity="0.3" d="M329.157 238.791C332.26 261.873 316.125 283.414 293.098 286.883C270.072 290.351 248.886 274.463 245.783 251.36C242.68 228.277 258.815 206.737 281.842 203.268C304.868 199.799 326.054 215.708 329.157 238.791Z" fill="white"/>
<path d="M285.715 294.163L286.208 297.825C286.357 298.959 287.406 299.73 288.54 299.58L300.824 297.718C301.958 297.546 302.75 296.497 302.6 295.362L302.108 291.701L285.715 294.163Z" fill="#390D9F"/>
<path d="M286.636 299.409C286.186 299.024 285.908 298.488 285.822 297.91L285.266 293.863L302.407 291.272L302.964 295.319C303.135 296.647 302.215 297.91 300.867 298.103L288.583 299.966C287.941 300.051 287.299 299.902 286.764 299.516C286.721 299.473 286.678 299.431 286.636 299.409ZM286.143 294.484L286.593 297.782C286.657 298.231 286.892 298.617 287.235 298.895C287.598 299.174 288.026 299.281 288.476 299.216L300.76 297.354C301.68 297.225 302.343 296.347 302.215 295.426L301.765 292.129L286.143 294.484Z" fill="#101C3A"/>
<path d="M336.754 237.656C333.073 210.355 308.035 191.556 280.815 195.667C253.594 199.778 234.505 225.237 238.186 252.538C241.867 279.838 266.905 298.617 294.125 294.527C321.346 290.394 340.435 264.935 336.754 237.656ZM245.804 251.36C242.701 228.299 258.837 206.78 281.842 203.311C304.847 199.842 326.011 215.73 329.136 238.791C332.239 261.852 316.103 283.371 293.098 286.84C270.093 290.33 248.907 274.442 245.804 251.36Z" fill="#390D9F"/>
<path d="M254.364 283.393C245.269 275.513 239.427 264.7 237.779 252.559C234.077 225.108 253.358 199.414 280.729 195.281C293.997 193.29 307.179 196.587 317.815 204.574C328.472 212.582 335.32 224.295 337.097 237.592C340.799 265.042 321.517 290.737 294.147 294.87C280.879 296.861 267.696 293.563 257.061 285.577C256.14 284.891 255.242 284.163 254.364 283.393ZM320.062 207.336C319.206 206.587 318.307 205.88 317.387 205.174C306.901 197.315 293.933 194.061 280.857 196.031C253.893 200.099 234.912 225.408 238.55 252.473C240.304 265.578 247.067 277.119 257.553 284.977C268.039 292.857 281.007 296.09 294.083 294.12C321.047 290.052 340.05 264.743 336.39 237.699C334.764 225.751 329.007 215.088 320.062 207.336ZM259.457 277.504C251.753 270.845 246.81 261.681 245.44 251.403C242.316 228.17 258.623 206.416 281.799 202.925C293.034 201.234 304.183 204.017 313.193 210.784C322.202 217.55 328.002 227.464 329.521 238.727C332.645 261.959 316.339 283.714 293.162 287.204C281.927 288.896 270.778 286.112 261.769 279.346C260.955 278.768 260.206 278.147 259.457 277.504ZM314.969 213.225C314.241 212.604 313.492 211.983 312.722 211.405C303.862 204.767 292.927 202.026 281.906 203.696C259.136 207.144 243.108 228.492 246.189 251.338C247.666 262.387 253.358 272.13 262.218 278.768C271.078 285.405 282.013 288.146 293.055 286.497C315.825 283.071 331.854 261.702 328.772 238.855C327.381 228.77 322.523 219.755 314.969 213.225Z" fill="#101C3A"/>
<path d="M286.593 307.374L296.693 382.445C297.378 387.477 301.979 390.946 307.008 390.175C312.016 389.426 315.547 384.736 314.862 379.705L304.761 304.633C304.526 302.835 302.878 301.614 301.08 301.871L289.396 303.627C287.598 303.905 286.336 305.575 286.593 307.374Z" fill="#101C3A"/>
<path d="M329.157 238.791C332.26 261.873 316.125 283.414 293.098 286.883C270.072 290.351 248.886 274.463 245.783 251.36C242.68 228.277 258.815 206.737 281.842 203.268C304.868 199.799 326.054 215.708 329.157 238.791Z" fill="#425FEC"/>
<path opacity="0.3" d="M329.157 238.791C332.26 261.873 316.125 283.414 293.098 286.883C270.072 290.351 248.886 274.463 245.783 251.36C242.68 228.277 258.815 206.737 281.842 203.268C304.868 199.799 326.054 215.708 329.157 238.791Z" fill="white"/>
<path d="M523.748 389.597H162.729C153.249 389.597 145.545 381.889 145.545 372.403V104.772C145.545 98.241 150.831 92.9736 157.337 92.9736H529.119C535.646 92.9736 540.91 98.2624 540.91 104.772V372.403C540.932 381.889 533.249 389.597 523.748 389.597Z" fill="white"/>
<path d="M523.747 391.781H162.729C152.051 391.781 143.362 383.088 143.362 372.403V104.772C143.362 97.0633 149.633 90.7681 157.358 90.7681H529.14C536.844 90.7681 543.136 97.0419 543.136 104.772V372.403C543.114 383.088 534.426 391.781 523.747 391.781ZM157.358 95.1576C152.051 95.1576 147.749 99.4614 147.749 104.772V372.403C147.749 380.668 154.469 387.413 162.751 387.413H523.769C532.029 387.413 538.77 380.69 538.77 372.403V104.772C538.77 99.4614 534.447 95.1576 529.162 95.1576H157.358Z" fill="#FF6645"/>
<path d="M525.588 369.084H318.65V285.619H319.185V368.549H525.588V369.084Z" fill="#101C3A"/>
<path d="M518.312 286.326H517.777V368.827H518.312V286.326Z" fill="#101C3A"/>
<path d="M451.03 327.566H450.495V368.806H451.03V327.566Z" fill="#101C3A"/>
<path d="M518.034 327.266H450.752V327.801H518.034V327.266Z" fill="#101C3A"/>
<path d="M386.445 329.429H385.91V368.827H386.445V329.429Z" fill="#101C3A"/>
<path d="M518.034 329.107H386.167V329.643H518.034V329.107Z" fill="#101C3A"/>
<path d="M329.821 356.322H329.286V368.827H329.821V356.322Z" fill="#101C3A"/>
<path d="M518.034 356.044H329.564V356.579H518.034V356.044Z" fill="#101C3A"/>
<path d="M318.907 369.876C318.735 369.876 318.564 369.833 318.393 369.748C317.879 369.469 317.708 368.827 317.986 368.313C318.136 368.035 321.967 361.226 331.34 353.025C339.964 345.488 355.094 335.36 378.27 329.835C395.711 325.681 410.135 326.559 422.868 327.33C442.641 328.529 458.242 329.493 475.02 310.778C489.657 294.441 502.626 288.51 510.929 286.433C520.045 284.142 525.652 285.769 525.887 285.833C526.444 286.004 526.765 286.583 526.594 287.139C526.422 287.696 525.845 288.017 525.288 287.846C525.245 287.824 519.895 286.304 511.293 288.51C503.31 290.565 490.813 296.325 476.603 312.17C459.162 331.655 443.091 330.67 422.761 329.428C410.178 328.658 395.925 327.801 378.784 331.869C335.278 342.254 319.998 369.062 319.848 369.319C319.634 369.683 319.292 369.876 318.907 369.876Z" fill="#FC721A"/>
<path d="M521.907 286.326C521.907 288.467 520.174 290.201 518.034 290.201C515.894 290.201 514.16 288.467 514.16 286.326C514.16 284.185 515.894 282.45 518.034 282.45C520.174 282.45 521.907 284.185 521.907 286.326Z" fill="#FC721A"/>
<path d="M454.626 327.523C454.626 329.664 452.892 331.399 450.752 331.399C448.612 331.399 446.879 329.664 446.879 327.523C446.879 325.382 448.612 323.647 450.752 323.647C452.892 323.647 454.626 325.382 454.626 327.523Z" fill="#101C3A"/>
<path d="M389.933 329.386C389.933 331.527 388.2 333.261 386.06 333.261C383.92 333.261 382.186 331.527 382.186 329.386C382.186 327.245 383.92 325.51 386.06 325.51C388.2 325.51 389.933 327.245 389.933 329.386Z" fill="#FC721A"/>
<path d="M333.437 356.301C333.437 358.442 331.704 360.177 329.564 360.177C327.424 360.177 325.69 358.442 325.69 356.301C325.69 354.16 327.424 352.425 329.564 352.425C331.704 352.425 333.437 354.16 333.437 356.301Z" fill="#101C3A"/>
<path d="M509.046 155.797C509.046 161 504.83 165.218 499.63 165.218C494.429 165.218 490.214 161 490.214 155.797C490.214 150.594 494.429 146.376 499.63 146.376V138.132C489.871 138.132 481.975 146.033 481.975 155.797C481.975 165.561 489.871 173.462 499.63 173.462C509.388 173.462 517.285 165.561 517.285 155.797H509.046Z" fill="#425FEC"/>
<path d="M455.974 155.797C455.974 161 451.758 165.218 446.558 165.218C441.357 165.218 437.142 161 437.142 155.797C437.142 150.594 441.357 146.376 446.558 146.376V138.132C436.799 138.132 428.903 146.033 428.903 155.797C428.903 165.561 436.799 173.462 446.558 173.462C456.316 173.462 464.213 165.561 464.213 155.797H455.974Z" fill="#FC721A"/>
<path d="M401.018 149.009H326.846V151.515H401.018V149.009Z" fill="#101C3A"/>
<path d="M330.976 154.641H326.846V157.146H330.976V154.641Z" fill="#101C3A"/>
<path d="M400.997 154.641H376.986V157.146H400.997V154.641Z" fill="#101C3A"/>
<path d="M370.502 154.641H340.457V157.146H370.502V154.641Z" fill="#101C3A"/>
<path d="M401.019 160.272H389.184V162.777H401.019V160.272Z" fill="#101C3A"/>
<path d="M347.882 160.272H326.846V162.777H347.882V160.272Z" fill="#101C3A"/>
<path d="M380.325 160.272H355.651V162.777H380.325V160.272Z" fill="#101C3A"/>
<path d="M277.904 296.604H182.054V299.345H277.904V296.604Z" fill="#101C3A"/>
<path d="M212.591 286.968H182.054V289.709H212.591V286.968Z" fill="#101C3A"/>
<path d="M247.174 286.968H225.795V289.709H247.174V286.968Z" fill="#101C3A"/>
<path d="M267.739 326.988H182.054V329.729H267.739V326.988Z" fill="#101C3A"/>
<path d="M212.591 317.353H182.054V320.093H212.591V317.353Z" fill="#101C3A"/>
<path d="M282.12 317.353H225.795V320.093H282.12V317.353Z" fill="#101C3A"/>
<path d="M246.061 307.738H182.054V310.479H246.061V307.738Z" fill="#101C3A"/>
<path d="M286.25 307.738H254.642V310.479H286.25V307.738Z" fill="#101C3A"/>
<path d="M266.819 357.372H181.133V360.112H266.819V357.372Z" fill="#101C3A"/>
<path d="M211.671 347.758H181.133V350.499H211.671V347.758Z" fill="#101C3A"/>
<path d="M281.2 347.758H224.875V350.499H281.2V347.758Z" fill="#101C3A"/>
<path d="M245.141 338.122H181.133V340.863H245.141V338.122Z" fill="#101C3A"/>
<path d="M285.33 338.122H253.722V340.863H285.33V338.122Z" fill="#101C3A"/>
<path d="M508.275 255.664H469.969C466.866 255.664 464.363 253.158 464.363 250.054V211.726C464.363 208.621 466.866 206.116 469.969 206.116H508.275C511.378 206.116 513.882 208.621 513.882 211.726V250.054C513.882 253.158 511.378 255.664 508.275 255.664Z" fill="#425FEC"/>
<path d="M497.361 225.173C497.404 230.098 493.659 234.102 488.994 234.123C484.329 234.144 480.519 230.162 480.477 225.237C480.434 220.312 484.179 216.308 488.844 216.287C493.509 216.265 497.319 220.248 497.361 225.173Z" fill="white"/>
<path d="M477.802 245.493C477.737 238.877 482.809 238.427 489.058 238.406C495.307 238.384 500.379 238.791 500.443 245.407L477.802 245.493Z" fill="white"/>
<path d="M444.888 255.664H406.582C403.479 255.664 400.976 253.158 400.976 250.054V211.726C400.976 208.621 403.479 206.116 406.582 206.116H444.888C447.991 206.116 450.495 208.621 450.495 211.726V250.054C450.495 253.158 447.991 255.664 444.888 255.664Z" fill="#FC721A"/>
<path d="M433.974 225.173C434.017 230.098 430.272 234.102 425.607 234.123C420.942 234.144 417.133 230.162 417.09 225.237C417.047 220.312 420.792 216.308 425.457 216.287C430.122 216.265 433.932 220.248 433.974 225.173Z" fill="white"/>
<path d="M414.415 245.493C414.35 238.877 419.422 238.427 425.671 238.406C431.92 238.384 436.992 238.791 437.056 245.407L414.415 245.493Z" fill="white"/>
<path d="M382.957 255.664H344.651C341.548 255.664 339.044 253.158 339.044 250.054V211.726C339.044 208.621 341.548 206.116 344.651 206.116H382.957C386.06 206.116 388.564 208.621 388.564 211.726V250.054C388.564 253.158 386.06 255.664 382.957 255.664Z" fill="#3E36C7"/>
<path d="M372.043 225.173C372.086 230.098 368.341 234.102 363.676 234.123C359.01 234.144 355.201 230.162 355.158 225.237C355.116 220.312 358.86 216.308 363.526 216.287C368.191 216.265 372 220.248 372.043 225.173Z" fill="white"/>
<path d="M352.483 245.493C352.419 238.877 357.491 238.427 363.74 238.406C369.988 238.384 375.06 238.791 375.124 245.407L352.483 245.493Z" fill="white"/>
<path d="M386.445 264.957H339.921V267.462H386.445V264.957Z" fill="#101C3A"/>
<path d="M342.511 270.588H339.921V273.093H342.511V270.588Z" fill="#101C3A"/>
<path d="M386.445 270.588H371.379V273.093H386.445V270.588Z" fill="#101C3A"/>
<path d="M367.313 270.588H348.46V273.093H367.313V270.588Z" fill="#101C3A"/>
<path d="M386.445 276.198H379.019V278.703H386.445V276.198Z" fill="#101C3A"/>
<path d="M353.125 276.198H339.921V278.703H353.125V276.198Z" fill="#101C3A"/>
<path d="M373.455 276.198H357.983V278.703H373.455V276.198Z" fill="#101C3A"/>
<path d="M448.997 264.957H402.474V267.462H448.997V264.957Z" fill="#101C3A"/>
<path d="M405.063 270.588H402.474V273.093H405.063V270.588Z" fill="#101C3A"/>
<path d="M448.997 270.588H433.932V273.093H448.997V270.588Z" fill="#101C3A"/>
<path d="M429.866 270.588H411.012V273.093H429.866V270.588Z" fill="#101C3A"/>
<path d="M448.997 276.198H441.572V278.703H448.997V276.198Z" fill="#101C3A"/>
<path d="M415.677 276.198H402.474V278.703H415.677V276.198Z" fill="#101C3A"/>
<path d="M436.007 276.198H420.535V278.703H436.007V276.198Z" fill="#101C3A"/>
<path d="M512.384 264.957H465.86V267.462H512.384V264.957Z" fill="#101C3A"/>
<path d="M468.45 270.588H465.86V273.093H468.45V270.588Z" fill="#101C3A"/>
<path d="M512.384 270.588H497.318V273.093H512.384V270.588Z" fill="#101C3A"/>
<path d="M493.252 270.588H474.399V273.093H493.252V270.588Z" fill="#101C3A"/>
<path d="M512.384 276.198H504.958V278.703H512.384V276.198Z" fill="#101C3A"/>
<path d="M479.064 276.198H465.86V278.703H479.064V276.198Z" fill="#101C3A"/>
<path d="M499.394 276.198H483.922V278.703H499.394V276.198Z" fill="#101C3A"/>
<path d="M294.789 150.915H180.834V264.935H294.789V150.915Z" fill="#425FEC"/>
<path d="M285.116 257.141L251.775 190.935L231.894 232.731L217.92 210.612L190.656 256.863L285.116 257.141Z" fill="#FC721A"/>
<path d="M223.056 183.205C223.099 187.273 226.437 190.549 230.503 190.527C234.569 190.506 237.843 187.144 237.822 183.076C237.779 179.008 234.441 175.732 230.375 175.753C226.287 175.796 223.013 179.136 223.056 183.205Z" fill="white"/>
<path d="M189.138 158.17L188.094 159.214L286.527 257.704L287.571 256.659L189.138 158.17Z" fill="white"/>
<path d="M286.529 158.176L188.095 256.666L189.139 257.711L287.573 159.221L286.529 158.176Z" fill="white"/>
<path d="M190.614 258.619C193.032 258.619 193.374 258.105 193.374 257.527C193.374 256.991 193.053 256.435 190.635 256.435C188.217 256.435 187.875 256.991 187.875 257.527C187.875 258.105 188.196 258.619 190.614 258.619Z" fill="white"/>
<path d="M198.682 258.619C201.1 258.619 201.421 258.105 201.421 257.527C201.421 256.991 201.1 256.435 198.682 256.435C196.263 256.435 195.921 256.991 195.921 257.527C195.921 258.105 196.263 258.619 198.682 258.619Z" fill="white"/>
<path d="M206.749 258.619C209.168 258.619 209.489 258.105 209.489 257.527C209.489 256.991 209.168 256.435 206.749 256.435C204.331 256.435 203.989 256.991 203.989 257.527C203.989 258.105 204.331 258.619 206.749 258.619Z" fill="white"/>
<path d="M214.796 258.619C217.214 258.619 217.535 258.105 217.535 257.527C217.535 256.991 217.214 256.435 214.796 256.435C212.378 256.435 212.035 256.991 212.035 257.527C212.057 258.105 212.378 258.619 214.796 258.619Z" fill="white"/>
<path d="M222.864 258.619C225.282 258.619 225.624 258.105 225.624 257.527C225.624 256.991 225.303 256.435 222.864 256.435C220.445 256.435 220.124 256.991 220.124 257.527C220.103 258.105 220.445 258.619 222.864 258.619Z" fill="white"/>
<path d="M230.91 258.619C233.328 258.619 233.671 258.105 233.671 257.527C233.671 256.991 233.35 256.435 230.91 256.435C228.492 256.435 228.171 256.991 228.171 257.527C228.171 258.105 228.513 258.619 230.91 258.619Z" fill="white"/>
<path d="M238.978 258.619C241.396 258.619 241.738 258.105 241.738 257.527C241.738 256.991 241.417 256.435 238.978 256.435C236.56 256.435 236.239 256.991 236.239 257.527C236.239 258.105 236.56 258.619 238.978 258.619Z" fill="white"/>
<path d="M247.046 258.619C249.464 258.619 249.806 258.105 249.806 257.527C249.806 256.991 249.485 256.435 247.046 256.435C244.606 256.435 244.306 256.991 244.306 257.527C244.285 258.105 244.627 258.619 247.046 258.619Z" fill="white"/>
<path d="M255.092 258.619C257.51 258.619 257.852 258.105 257.852 257.527C257.852 256.991 257.531 256.435 255.092 256.435C252.674 256.435 252.331 256.991 252.331 257.527C252.353 258.105 252.674 258.619 255.092 258.619Z" fill="white"/>
<path d="M263.16 258.619C265.578 258.619 265.92 258.105 265.92 257.527C265.92 256.991 265.599 256.435 263.16 256.435C260.742 256.435 260.399 256.991 260.399 257.527C260.399 258.105 260.742 258.619 263.16 258.619Z" fill="white"/>
<path d="M271.228 258.619C273.646 258.619 273.988 258.105 273.988 257.527C273.988 256.991 273.667 256.435 271.228 256.435C268.809 256.435 268.467 256.991 268.467 257.527C268.467 258.105 268.809 258.619 271.228 258.619Z" fill="white"/>
<path d="M279.274 258.619C281.692 258.619 282.035 258.105 282.035 257.527C282.035 256.991 281.713 256.435 279.274 256.435C276.834 256.435 276.513 256.991 276.513 257.527C276.535 258.105 276.856 258.619 279.274 258.619Z" fill="white"/>
<path d="M285.951 259.004L286.507 258.575C286.678 258.597 286.85 258.597 287.021 258.597L288.112 258.618L288.134 257.205C288.134 257.184 288.134 257.141 288.134 257.119L288.883 256.37L288.112 256.391C288.005 254.7 287.513 254.443 287.042 254.443C286.529 254.443 286.079 254.7 285.972 256.498C285.18 256.606 284.581 256.862 284.581 257.505C284.581 258.126 285.159 258.404 285.951 258.511V259.004Z" fill="white"/>
<path d="M287.042 251.916C287.577 251.916 288.134 251.595 288.134 249.154C288.134 246.735 287.577 246.392 287.042 246.392C286.486 246.392 285.951 246.735 285.951 249.154C285.951 251.595 286.464 251.916 287.042 251.916Z" fill="white"/>
<path d="M287.042 243.865C287.577 243.865 288.134 243.544 288.134 241.103C288.134 238.683 287.577 238.341 287.042 238.341C286.486 238.341 285.951 238.683 285.951 241.103C285.951 243.523 286.464 243.865 287.042 243.865Z" fill="white"/>
<path d="M287.042 235.793C287.577 235.793 288.134 235.472 288.134 233.031C288.134 230.611 287.577 230.269 287.042 230.269C286.486 230.269 285.951 230.611 285.951 233.031C285.951 235.45 286.464 235.793 287.042 235.793Z" fill="white"/>
<path d="M287.042 227.721C287.577 227.721 288.134 227.399 288.134 224.958C288.134 222.539 287.577 222.196 287.042 222.196C286.486 222.196 285.951 222.539 285.951 224.958C285.951 227.399 286.464 227.721 287.042 227.721Z" fill="white"/>
<path d="M287.042 219.669C287.577 219.669 288.134 219.348 288.134 216.907C288.134 214.488 287.577 214.145 287.042 214.145C286.486 214.145 285.951 214.488 285.951 216.907C285.951 219.327 286.464 219.669 287.042 219.669Z" fill="white"/>
<path d="M287.042 211.597C287.577 211.597 288.134 211.276 288.134 208.835C288.134 206.415 287.577 206.073 287.042 206.073C286.486 206.073 285.951 206.415 285.951 208.835C285.951 211.255 286.464 211.597 287.042 211.597Z" fill="white"/>
<path d="M287.042 203.525C287.577 203.525 288.134 203.204 288.134 200.763C288.134 198.343 287.577 198.022 287.042 198.022C286.486 198.022 285.951 198.365 285.951 200.763C285.951 203.204 286.464 203.525 287.042 203.525Z" fill="white"/>
<path d="M287.042 195.474C287.577 195.474 288.134 195.152 288.134 192.711C288.134 190.292 287.577 189.949 287.042 189.949C286.486 189.949 285.951 190.292 285.951 192.711C285.951 195.131 286.464 195.474 287.042 195.474Z" fill="white"/>
<path d="M287.042 187.401C287.577 187.401 288.134 187.08 288.134 184.639C288.134 182.22 287.577 181.877 287.042 181.877C286.486 181.877 285.951 182.22 285.951 184.639C285.951 187.08 286.464 187.401 287.042 187.401Z" fill="white"/>
<path d="M287.042 179.351C287.577 179.351 288.134 179.029 288.134 176.588C288.134 174.147 287.577 173.826 287.042 173.826C286.486 173.826 285.951 174.169 285.951 176.588C285.951 179.008 286.464 179.351 287.042 179.351Z" fill="white"/>
<path d="M287.042 171.278C287.577 171.278 288.134 170.957 288.134 168.516C288.134 166.096 287.577 165.753 287.042 165.753C286.486 165.753 285.951 166.096 285.951 168.516C285.951 170.935 286.464 171.278 287.042 171.278Z" fill="white"/>
<path d="M280.387 160.144C282.805 160.144 283.147 159.587 283.147 159.051C283.147 158.495 282.805 157.959 280.387 157.959C277.968 157.959 277.626 158.473 277.626 159.051C277.647 159.587 277.968 160.144 280.387 160.144Z" fill="white"/>
<path d="M272.34 160.144C274.759 160.144 275.08 159.587 275.08 159.051C275.08 158.495 274.737 157.959 272.34 157.959C269.922 157.959 269.58 158.473 269.58 159.051C269.58 159.587 269.901 160.144 272.34 160.144Z" fill="white"/>
<path d="M264.273 160.144C266.691 160.144 267.012 159.587 267.012 159.051C267.012 158.495 266.669 157.959 264.273 157.959C261.854 157.959 261.512 158.473 261.512 159.051C261.512 159.587 261.854 160.144 264.273 160.144Z" fill="white"/>
<path d="M256.205 160.144C258.623 160.144 258.965 159.587 258.965 159.051C258.965 158.495 258.623 157.959 256.205 157.959C253.786 157.959 253.444 158.473 253.444 159.051C253.465 159.587 253.786 160.144 256.205 160.144Z" fill="white"/>
<path d="M248.158 160.144C250.577 160.144 250.919 159.587 250.919 159.051C250.919 158.495 250.577 157.959 248.158 157.959C245.74 157.959 245.398 158.473 245.398 159.051C245.398 159.587 245.719 160.144 248.158 160.144Z" fill="white"/>
<path d="M240.091 160.144C242.509 160.144 242.851 159.587 242.851 159.051C242.851 158.495 242.509 157.959 240.091 157.959C237.672 157.959 237.33 158.473 237.33 159.051C237.33 159.587 237.672 160.144 240.091 160.144Z" fill="white"/>
<path d="M232.023 160.144C234.441 160.144 234.783 159.587 234.783 159.051C234.783 158.495 234.441 157.959 232.023 157.959C229.604 157.959 229.262 158.473 229.262 159.051C229.283 159.587 229.604 160.144 232.023 160.144Z" fill="white"/>
<path d="M223.976 160.144C226.395 160.144 226.737 159.587 226.737 159.051C226.737 158.495 226.395 157.959 223.976 157.959C221.558 157.959 221.216 158.473 221.216 159.051C221.216 159.587 221.537 160.144 223.976 160.144Z" fill="white"/>
<path d="M215.909 160.144C218.327 160.144 218.669 159.587 218.669 159.051C218.669 158.495 218.327 157.959 215.909 157.959C213.49 157.959 213.148 158.473 213.148 159.051C213.169 159.587 213.49 160.144 215.909 160.144Z" fill="white"/>
<path d="M207.841 160.144C210.259 160.144 210.601 159.587 210.601 159.051C210.601 158.495 210.259 157.959 207.841 157.959C205.422 157.959 205.08 158.473 205.08 159.051C205.101 159.587 205.422 160.144 207.841 160.144Z" fill="white"/>
<path d="M199.794 160.144C202.212 160.144 202.555 159.587 202.555 159.051C202.555 158.495 202.212 157.959 199.794 157.959C197.376 157.959 197.034 158.473 197.034 159.051C197.034 159.587 197.376 160.144 199.794 160.144Z" fill="white"/>
<path d="M191.727 160.144C194.145 160.144 194.487 159.587 194.487 159.051C194.487 158.495 194.145 157.959 191.727 157.959C189.308 157.959 188.966 158.473 188.966 159.051C188.987 159.587 189.308 160.144 191.727 160.144Z" fill="white"/>
<path d="M188.602 166.739C189.159 166.739 189.694 166.396 189.694 163.977C189.694 161.557 189.18 161.214 188.602 161.214C188.067 161.214 187.511 161.536 187.511 163.977C187.511 166.418 188.067 166.739 188.602 166.739Z" fill="white"/>
<path d="M188.602 174.811C189.159 174.811 189.694 174.468 189.694 172.049C189.694 169.629 189.18 169.287 188.602 169.287C188.067 169.287 187.511 169.608 187.511 172.049C187.511 174.468 188.067 174.811 188.602 174.811Z" fill="white"/>
<path d="M188.602 182.862C189.159 182.862 189.694 182.519 189.694 180.1C189.694 177.68 189.18 177.337 188.602 177.337C188.067 177.337 187.511 177.659 187.511 180.1C187.511 182.541 188.067 182.862 188.602 182.862Z" fill="white"/>
<path d="M188.602 190.935C189.159 190.935 189.694 190.592 189.694 188.172C189.694 185.753 189.18 185.41 188.602 185.41C188.067 185.41 187.511 185.731 187.511 188.172C187.511 190.613 188.067 190.935 188.602 190.935Z" fill="white"/>
<path d="M188.602 199.007C189.159 199.007 189.694 198.664 189.694 196.245C189.694 193.825 189.18 193.482 188.602 193.482C188.067 193.482 187.511 193.804 187.511 196.245C187.511 198.664 188.067 199.007 188.602 199.007Z" fill="white"/>
<path d="M188.602 207.058C189.159 207.058 189.694 206.715 189.694 204.295C189.694 201.876 189.18 201.533 188.602 201.533C188.067 201.533 187.511 201.854 187.511 204.295C187.511 206.736 188.067 207.058 188.602 207.058Z" fill="white"/>
<path d="M188.602 215.13C189.159 215.13 189.694 214.788 189.694 212.368C189.694 209.949 189.18 209.606 188.602 209.606C188.067 209.606 187.511 209.927 187.511 212.368C187.511 214.788 188.067 215.13 188.602 215.13Z" fill="white"/>
<path d="M188.602 223.181C189.159 223.181 189.694 222.839 189.694 220.419C189.694 217.999 189.18 217.657 188.602 217.657C188.067 217.657 187.511 217.978 187.511 220.419C187.511 222.86 188.067 223.181 188.602 223.181Z" fill="white"/>
<path d="M188.602 231.253C189.159 231.253 189.694 230.911 189.694 228.491C189.694 226.072 189.18 225.729 188.602 225.729C188.067 225.729 187.511 226.05 187.511 228.491C187.511 230.932 188.067 231.253 188.602 231.253Z" fill="white"/>
<path d="M188.602 239.326C189.159 239.326 189.694 238.984 189.694 236.564C189.694 234.144 189.18 233.802 188.602 233.802C188.067 233.802 187.511 234.123 187.511 236.564C187.511 238.984 188.067 239.326 188.602 239.326Z" fill="white"/>
<path d="M188.602 247.377C189.159 247.377 189.694 247.034 189.694 244.615C189.694 242.195 189.18 241.853 188.602 241.853C188.067 241.853 187.511 242.174 187.511 244.615C187.511 247.056 188.067 247.377 188.602 247.377Z" fill="white"/>
<path d="M188.602 255.449C189.159 255.449 189.694 255.107 189.694 252.687C189.694 250.267 189.18 249.925 188.602 249.925C188.067 249.925 187.511 250.246 187.511 252.687C187.511 255.128 188.067 255.449 188.602 255.449Z" fill="white"/>
<path d="M192.262 252.88H184.964V260.181H192.262V252.88Z" fill="white"/>
<path d="M184.215 252.173V260.931H192.968V252.173H184.215ZM191.534 259.453H185.713V253.629H191.534V259.453Z" fill="white"/>
<path d="M290.701 253.886H283.404V261.188H290.701V253.886Z" fill="white"/>
<path d="M282.655 253.158V261.916H291.429V253.158H282.655ZM289.952 260.438H284.132V254.636H289.952V260.438Z" fill="white"/>
<path d="M192.262 154.684H184.964V161.985H192.262V154.684Z" fill="white"/>
<path d="M184.215 153.934V162.713H192.968V153.934H184.215ZM191.534 161.257H185.713V155.433H191.534V161.257Z" fill="white"/>
<path d="M290.701 155.39H283.404V162.692H290.701V155.39Z" fill="white"/>
<path d="M282.655 154.662V163.42H291.429V154.662H282.655ZM289.952 161.942H284.132V156.118H289.952V161.942Z" fill="white"/>
<path d="M505.451 103.38C503.995 103.38 502.818 104.558 502.818 106.014C502.818 107.47 503.995 108.647 505.451 108.647C506.906 108.647 508.083 107.47 508.083 106.014C508.083 104.558 506.906 103.38 505.451 103.38Z" fill="#2B173F"/>
<path d="M516.536 103.38C515.081 103.38 513.904 104.558 513.904 106.014C513.904 107.47 515.081 108.647 516.536 108.647C517.991 108.647 519.168 107.47 519.168 106.014C519.168 104.558 517.991 103.38 516.536 103.38Z" fill="#425FEC"/>
<path d="M527.621 103.38C526.166 103.38 524.989 104.558 524.989 106.014C524.989 107.47 526.166 108.647 527.621 108.647C529.076 108.647 530.253 107.47 530.253 106.014C530.253 104.558 529.076 103.38 527.621 103.38Z" fill="#FC721A"/>
<path d="M518.89 121.195H246.575V125.22H518.89V121.195Z" fill="#FF6645"/>
<path opacity="0.3" d="M329.157 238.791C332.26 261.873 316.125 283.414 293.098 286.883C270.072 290.351 248.886 274.463 245.783 251.36C242.68 228.277 258.815 206.737 281.842 203.268C304.868 199.799 326.054 215.708 329.157 238.791Z" fill="white"/>
<path opacity="0.5" d="M329.157 238.791C332.26 261.873 316.125 283.414 293.098 286.883C270.072 290.351 248.886 274.463 245.783 251.36C242.68 228.277 258.815 206.737 281.842 203.268C304.868 199.799 326.054 215.708 329.157 238.791Z" fill="white"/>
<path d="M69.1043 482.676C69.1043 482.676 79.5904 508.649 68.12 513.039C55.7936 517.75 35.485 525.008 35.485 525.008C35.485 525.008 34.0297 512.589 43.2103 507.686C52.0913 502.954 51.8773 490.642 51.8773 490.642L69.1043 482.676Z" fill="#F8A3A2"/>
<path d="M69.19 483.019L52.07 491.434C49.3736 474.625 24.0146 422.208 22.4096 417.605C13.2076 391.16 51.1284 382.981 58.7896 404.008C61.4218 411.267 69.19 483.019 69.19 483.019Z" fill="#F8A3A2"/>
<path d="M41.1346 319.536C17.6802 335.724 -1.08761 383.516 15.8398 388.633C15.8398 388.633 13.3146 396.128 10.7252 399.318C10.7252 399.318 36.662 417.326 63.091 417.347C63.091 417.347 64.7388 410.966 67.0928 409.639C67.0928 409.639 81.174 412.637 88.0862 396.256C94.977 379.876 84.3626 362.189 89.2204 342.64C96.261 314.097 66.8788 301.785 41.1346 319.536Z" fill="#2B6DFF"/>
<path d="M27.6954 409.553L28.3588 408.054C20.0556 404.329 13.9138 400.453 11.9022 399.126C14.3632 395.614 16.5246 389.19 16.6316 388.89L16.9098 388.077L16.0966 387.841C12.9722 386.899 11.0462 384.287 10.4042 380.111C8.093 365.294 23.0944 332.962 41.6054 320.2L40.6638 318.851C21.361 332.148 6.3382 364.78 8.7564 380.368C9.4412 384.801 11.517 387.82 14.7912 389.147C14.085 391.117 12.0948 396.363 10.0832 398.826L9.5268 399.511L10.2544 400.025C10.34 400.046 17.3806 404.907 27.6954 409.553Z" fill="#425FEC"/>
<path d="M57.848 405.72C59.7526 405.72 61.7642 405.485 63.9042 404.993L63.519 403.387C45.7784 407.626 37.0686 390.967 36.983 390.796L36.662 390.175L35.9986 390.389C27.2032 393.109 19.8416 381.996 19.7774 381.889L18.4078 382.788C18.7288 383.28 26.1974 394.543 35.8488 392.145C37.4538 394.822 44.7084 405.72 57.848 405.72Z" fill="white"/>
<path d="M13.55 677.827C31.633 652.989 42.2902 608.173 54.5952 570.766C61.8926 548.604 66.3866 515.48 58.5114 494.71C45.4788 460.3 67.7348 436.319 75.8668 422.85C83.9988 409.382 153.121 391.974 166.71 402.016C186.248 416.47 199.024 430.752 201.549 477.366C204.909 539.376 184.301 710.588 184.301 710.588C130.458 722.557 82.03 714.399 82.03 714.399C79.1838 700.717 79.5904 667.571 79.5904 667.571L51.9417 698.169C40.1717 685.172 23.608 679.926 13.55 677.827Z" fill="#101C3A"/>
<path d="M77.7714 272.772C81.6876 279.538 88.771 284.142 87.9364 269.646C86.9306 251.895 138.612 243.78 118.752 229.348C89.0706 207.807 62.1494 245.814 77.7714 272.772Z" fill="#101C3A"/>
<path d="M116.634 282.664V310.414C115.114 312.663 106.854 322.47 85.989 308.702V271.123C85.9676 271.144 97.5878 276.583 116.634 282.664Z" fill="#F8A3A2"/>
<path d="M116.634 291.101V303.413C100.391 303.734 99.9846 287.461 100.006 287.504C107.838 292.514 114.344 291.358 116.634 291.101Z" fill="#101C3A"/>
<path d="M114.986 294.891C106.169 294.827 90.0764 282.814 86.5026 274.742C85.24 271.873 85.7322 264.228 86.8878 260.546C90.5472 248.983 93.479 238.491 102.446 235.322C106.233 233.994 119.972 238.598 123.46 239.347C130.094 240.782 132.983 247.484 133.048 259.218C133.133 272.344 130.544 294.998 114.986 294.891Z" fill="#F8A3A2"/>
<path d="M120.892 274.228C121.748 273.993 126.028 272.751 126.692 270.717C126.842 270.267 126.884 269.582 126.307 268.854C123.246 264.978 123.781 258.64 123.974 257.056C124.809 256.606 127.377 255.535 130.843 256.713L131.357 255.15C126.349 253.458 122.883 255.771 122.754 255.857L122.455 256.049L122.39 256.392C122.326 256.734 121.042 264.85 125.001 269.86C125.151 270.053 125.13 270.138 125.108 270.181C124.83 271.016 122.219 272.151 120.443 272.622L120.892 274.228Z" fill="#101C3A"/>
<path d="M88.5998 254.143C88.5998 254.143 93.7145 260.225 97.9731 250.825C103.173 239.326 121.427 241.103 128.982 242.517C128.982 242.517 130.03 243.33 132.898 253.373C132.898 253.373 137.477 233.502 114.986 228.534C93.0939 223.695 87.2302 244.979 88.5998 254.143Z" fill="#101C3A"/>
<path d="M94.6989 259.775C96.0899 264.121 93.6931 268.746 89.3703 270.138C85.0261 271.53 80.4037 269.132 79.0127 264.806C77.6217 260.46 80.0185 255.835 84.3413 254.443C88.6855 253.03 93.3079 255.428 94.6989 259.775Z" fill="#F8A3A2"/>
<path d="M86.1816 266.969C87.059 266.969 87.915 266.691 88.45 265.834C89.2632 264.528 88.3644 263.736 87.9364 263.35C87.487 262.944 87.2302 262.73 87.4014 262.001C87.5512 261.338 87.915 260.952 88.3002 260.545C89.1562 259.625 89.7982 258.661 88.2788 256.841C87.7652 256.242 87.1018 255.92 86.3314 255.92C86.31 255.92 86.31 255.92 86.31 255.92C83.956 255.92 81.3024 258.854 81.0028 259.196L82.244 260.289C83.1642 259.239 85.0902 257.569 86.31 257.569H86.3314C86.631 257.569 86.845 257.676 87.0376 257.912C87.7652 258.768 87.7224 258.811 87.1232 259.432C86.6738 259.903 86.0746 260.545 85.8178 261.659C85.4326 263.308 86.3314 264.121 86.845 264.592C86.9306 264.678 87.0804 264.806 87.1232 264.871C87.1018 264.892 87.0804 264.935 87.059 264.978C86.5454 265.813 84.6836 264.999 84.6622 264.978L83.956 266.455C84.5338 266.712 85.3684 266.969 86.1816 266.969Z" fill="#101C3A"/>
<path d="M124.188 278.96C124.188 278.96 116.056 282.75 108.694 277.911C108.694 277.911 111.69 286.112 116.591 285.662C121.492 285.212 124.188 278.96 124.188 278.96Z" fill="#101C3A"/>
<path d="M115.756 256.434L117.083 255.471C116.955 255.278 113.809 251.038 105.292 253.886L105.805 255.449C113.081 253.008 115.649 256.284 115.756 256.434Z" fill="#101C3A"/>
<path d="M107.068 260.653C107.068 262.194 108.309 263.436 109.85 263.436C111.391 263.436 112.632 262.194 112.632 260.653C112.632 259.111 111.391 257.869 109.85 257.869C108.331 257.869 107.068 259.132 107.068 260.653Z" fill="#101C3A"/>
<path d="M123.803 260.653C123.803 262.194 125.044 263.436 126.585 263.436C128.126 263.436 129.367 262.194 129.367 260.653C129.367 259.111 128.126 257.869 126.585 257.869C125.044 257.869 123.803 259.132 123.803 260.653Z" fill="#101C3A"/>
<path d="M76.5517 311.143C76.5517 311.143 79.6333 299.965 85.3471 299.302C91.0609 298.616 116.891 297.182 119.523 299.73C122.155 302.278 123.097 306.346 123.097 306.346C123.097 306.346 148.156 297.781 161.831 317.245C171.996 331.72 175.313 385.208 166.688 403.622C166.688 403.622 132.128 393.494 75.5031 423.578C41.6697 441.565 59.6671 363.132 56.8637 349.706C54.0175 335.895 62.8129 315.19 76.5517 311.143Z" fill="#2B6DFF"/>
<path d="M66.6863 427.047C69.3613 427.047 72.4429 426.126 75.8883 424.306L75.1179 422.85C69.6609 425.741 65.3381 426.19 62.2779 424.156C52.8833 417.947 55.2373 390.496 56.9493 370.454C57.7839 360.776 58.4259 353.132 57.6983 349.556C54.9377 336.28 63.3907 315.917 76.7871 311.978L76.3163 310.393C62.1281 314.568 53.1829 335.959 56.0719 349.899C56.7781 353.26 56.0933 361.161 55.3015 370.326C53.5467 390.775 51.1499 418.782 61.3577 425.548C62.8985 426.533 64.6747 427.047 66.6863 427.047Z" fill="white"/>
<path d="M192.668 430.752C181.091 431.758 161.21 426.769 150.596 408.076C139.981 389.362 173.793 361.761 181.262 367.329C181.262 367.329 204.994 400.453 205.23 411.009C205.465 421.544 198.917 430.195 192.668 430.752Z" fill="#F8A3A2"/>
<path d="M319.848 331.613C306.152 326.474 296.458 322.876 296.458 322.876C296.458 322.876 284.11 323.069 277.369 342.212C270.628 361.354 263.16 366.279 263.16 366.279L284.346 377.435C284.346 377.435 290.38 372.424 293.227 366.151L293.248 366.172C294.361 364.224 296.865 353.924 297.892 352.896C298.405 352.383 302.322 352.254 307.179 353.089C311.01 353.753 312.016 354.395 313.45 350.777C315.44 345.702 317.751 339.492 317.73 338.101C317.73 337.565 316.852 336.816 315.483 335.959C316.531 336.088 317.558 336.131 318.543 336.002C320.512 335.788 321.731 332.319 319.848 331.613Z" fill="#F8A3A2"/>
<path d="M314.199 348.978L296.522 343.239C296.544 343.218 307.886 346.13 314.199 348.978Z" fill="#D17F80"/>
<path d="M314.199 334.696L296.522 328.958C296.544 328.936 307.886 331.827 314.199 334.696Z" fill="#D17F80"/>
<path d="M316.189 343.668L295.88 335.295C295.88 335.295 310.175 340.22 316.189 343.668Z" fill="#D17F80"/>
<path d="M267.012 365.23L285.266 376.386C273.881 389.212 215.245 430.452 190.828 430.966C177.003 431.244 170.926 421.63 169.513 415.891C166.089 401.931 179.721 393.152 194.615 387.006C196.67 386.128 267.012 365.23 267.012 365.23Z" fill="#F8A3A2"/>
<path d="M112.632 338.914C109.593 367.264 133.561 412.658 148.498 403.151C148.498 403.151 152.543 409.939 153.271 414.007C153.271 414.007 183.83 406.063 201.078 386.043C201.078 386.043 197.333 380.625 197.847 377.992C197.847 377.992 209.296 369.256 201.378 353.346C193.46 337.437 173.151 333.947 161.488 317.524C144.454 293.542 115.949 307.802 112.632 338.914Z" fill="#2B6DFF"/>
<path d="M152.607 415.013L153.463 414.799C153.549 414.778 161.831 412.594 172.06 407.797L171.354 406.32C163.115 410.196 156.181 412.315 153.848 412.979C152.778 408.825 149.333 403.001 149.183 402.723L148.755 401.995L148.049 402.444C145.288 404.2 142.078 403.965 138.483 401.716C125.75 393.815 111.048 361.354 113.445 338.978L111.819 338.807C109.315 362.125 124.231 394.8 137.627 403.108C141.436 405.485 145.074 405.87 148.199 404.243C149.226 406.063 151.901 410.988 152.457 414.114L152.607 415.013Z" fill="white"/>
<path d="M145.738 397.37C146.316 397.456 159.733 399.126 164.206 390.24C167.716 390.861 184.215 392.873 192.24 377.35L190.785 376.6C182.417 392.809 164.677 388.698 163.949 388.527L163.286 388.355L163.008 388.998C159.348 397.434 146.102 395.785 145.973 395.764L145.738 397.37Z" fill="white"/>
<path d="M97.7805 257.527C97.8447 257.355 98.0587 256.82 102.767 256.777L104.072 256.349L102.917 257.355C101.996 257.848 101.055 260.889 100.777 262.023L100.691 262.409L100.349 262.216C100.306 262.195 99.0431 261.488 98.6793 260.567C98.6151 260.396 98.5081 260.182 98.4225 259.946C97.9303 258.854 97.6093 258.019 97.7805 257.527Z" fill="#101C3A"/>
<path d="M140.067 257.334C144.304 257.677 144.454 258.233 144.518 258.426C144.668 258.919 144.325 259.711 143.855 260.803C143.748 261.017 143.662 261.231 143.598 261.403C143.234 262.302 142.078 262.923 142.036 262.944L141.65 263.137L141.586 262.709C141.308 261.103 140.602 258.383 139.874 257.891L138.933 257.249L140.067 257.334Z" fill="#101C3A"/>
<path d="M125.408 259.475C125.301 259.475 125.172 259.454 125.065 259.411C122.005 258.169 119.587 259.368 119.566 259.39C119.116 259.625 118.56 259.433 118.324 258.983C118.089 258.533 118.26 257.977 118.71 257.741C118.838 257.677 121.898 256.157 125.729 257.72C126.2 257.912 126.435 258.448 126.264 258.919C126.114 259.261 125.772 259.475 125.408 259.475Z" fill="#101C3A"/>
<path d="M110.321 273.907C107.132 273.821 104.564 272.644 102.702 270.374C100.027 267.098 99.471 262.087 100.113 258.512L100.177 258.362L100.241 258.298C100.284 258.255 103.922 254.572 109.593 254.572C110.085 254.572 110.599 254.593 111.134 254.657C117.575 255.407 120.165 257.141 120.336 260.867C120.486 263.993 119.715 268.618 117.062 271.338C115.414 273.029 113.253 273.864 110.599 273.864L110.321 273.907ZM101.183 258.983C100.648 262.216 101.162 266.734 103.58 269.689C105.206 271.702 107.496 272.751 110.342 272.815H110.62C112.953 272.815 114.858 272.066 116.27 270.61C119.459 267.333 119.266 261.595 119.223 260.953C119.073 257.869 116.848 256.477 111.006 255.792C110.535 255.728 110.064 255.707 109.593 255.707C104.971 255.707 101.804 258.405 101.183 258.983Z" fill="#101C3A"/>
<path d="M132.47 273.907C130.137 273.8 128.233 272.901 126.799 271.274C123.503 267.505 123.953 260.974 124.017 260.246C124.338 256.542 126.735 254.957 132.556 254.658C132.748 254.636 132.941 254.636 133.133 254.636C138.59 254.636 142.036 258.833 142.207 259.069L142.271 259.197V259.283C142.721 263.051 141.907 268.233 139.061 271.295C137.456 273.029 135.402 273.886 132.962 273.886C132.812 273.929 132.641 273.907 132.47 273.907ZM133.133 255.75C132.962 255.75 132.791 255.75 132.62 255.771C127.355 256.049 125.408 257.249 125.13 260.353C125.066 261.038 124.638 267.141 127.634 270.546C128.853 271.937 130.48 272.687 132.513 272.794C132.663 272.794 132.812 272.815 132.962 272.815C135.102 272.815 136.878 272.066 138.269 270.567C140.816 267.826 141.586 263.115 141.201 259.604C140.645 258.961 137.649 255.75 133.133 255.75Z" fill="#101C3A"/>
<path d="M98.4653 258.169C98.5937 258.062 98.6793 257.912 98.7007 257.762C98.7221 257.591 98.6793 257.42 98.5723 257.291C98.4439 257.12 98.2513 257.034 98.0587 257.034C97.9731 257.034 97.9089 257.056 97.8447 257.077L91.5745 255.45C91.5745 255.45 92.0667 256.392 92.1309 256.542L92.1951 256.692L98.3369 258.276L98.4653 258.169Z" fill="#101C3A"/>
<path d="M104.8 220.034C101.632 210.741 90.3332 201.469 72.721 215.43C53.9746 230.29 46.2064 308.638 45.65 360.926C45.65 360.926 50.786 365.102 59.3246 362.96C59.3246 362.96 61.7856 337.201 62.2564 333.283C62.2564 333.283 62.2992 356.28 63.1766 360.819C63.1766 360.819 69.8106 364.138 74.861 359.342C74.861 359.342 69.2542 272.965 85.026 249.775C99.899 227.871 108.095 229.734 104.8 220.034Z" fill="#101C3A"/>
<path d="M105.335 217.978C105.335 217.978 108.159 220.976 106.062 223.759C106.062 223.759 92.0453 223.802 85.7751 231.168C85.7751 231.168 82.4581 228.299 82.7363 224.38C82.7363 224.402 94.8915 214.574 105.335 217.978Z" fill="#425FEC"/>
<path d="M83.3782 648.021C83.6992 645.131 84.0415 642.047 84.4267 638.814C89.2203 596.975 97.224 526.957 80.5106 489.892C63.0696 451.2 93.9497 424.007 94.2707 423.75L93.2007 422.508C92.8797 422.786 61.0794 450.772 79.0126 490.577C95.5334 527.235 87.5512 596.975 82.779 638.643C82.4152 641.898 82.0514 644.981 81.7304 647.85L83.3782 648.021Z" fill="white"/>
<path d="M80.7888 410.924C103.302 394.865 99.5994 372.853 99.5566 372.639L97.9302 372.938C97.973 373.153 101.461 394.158 79.8258 409.596L80.7888 410.924Z" fill="white"/>
<path d="M302.086 426.833L302.172 426.662L287.32 419.317L288.347 435.526H289.203C294.532 435.12 299.518 431.993 302.086 426.833Z" fill="#FC721A"/>
<path d="M72.0576 126.848L62.556 107.298L61.3148 107.834C59.6884 108.626 58.1048 109.654 56.564 111.067C54.5524 112.908 53.0116 115.092 51.9202 117.448L72.0576 126.848Z" fill="#425FEC"/>
<path d="M410.349 109.183L431.171 103.016L430.85 101.71C430.336 99.9756 429.587 98.2412 428.432 96.4854C426.955 94.2157 425.051 92.31 422.889 90.854L410.349 109.183Z" fill="#FC721A"/>
<path d="M243.9 36.895C243.9 40.1068 241.31 42.6977 238.1 42.6977C234.89 42.6977 232.301 40.1068 232.301 36.895C232.301 33.6832 234.89 31.0923 238.1 31.0923C241.31 31.0923 243.9 33.6832 243.9 36.895Z" fill="#390D9F"/>
<path d="M133.989 6.25403C133.989 8.71644 131.999 10.7078 129.538 10.7078C127.077 10.7078 125.087 8.71644 125.087 6.25403C125.087 3.79163 127.077 1.80029 129.538 1.80029C131.999 1.80029 133.989 3.79163 133.989 6.25403Z" fill="#FC721A"/>
<path d="M497.361 346.066C497.361 348.528 495.371 350.52 492.91 350.52C490.449 350.52 488.459 348.528 488.459 346.066C488.459 343.604 490.449 341.612 492.91 341.612C495.371 341.612 497.361 343.604 497.361 346.066Z" fill="#425FEC"/>
<path d="M310.86 114.086L321.624 117.084L324.107 110.467C327.445 110.639 330.719 110.232 333.822 109.268L337.824 115.114L347.54 109.632L344.608 103.209C347.026 101.025 349.081 98.4552 350.643 95.5003L357.598 96.8065L360.594 86.0361L353.981 83.5523C354.152 80.212 353.746 76.9359 352.783 73.8311L358.604 69.827L353.125 60.1059L346.705 63.0394C344.522 60.6198 341.954 58.5642 339.001 57.0011L340.307 50.0421L329.542 47.0444L327.06 53.6608C323.743 53.4895 320.447 53.8963 317.344 54.8599L313.343 49.0358L303.627 54.5173L306.559 60.941C304.141 63.125 302.086 65.7159 300.524 68.6494L293.569 67.3432L290.573 78.1136L297.186 80.5974C297.014 83.9377 297.421 87.2138 298.384 90.3186L292.542 94.3226L298.02 104.044L304.44 101.11C306.623 103.53 309.212 105.585 312.144 107.149L310.86 114.086ZM306.131 76.6576C309.105 65.93 320.212 59.6562 330.955 62.6325C341.676 65.6088 347.946 76.7218 344.972 87.4707C341.997 98.1983 330.891 104.472 320.169 101.496C309.426 98.498 303.156 87.3851 306.131 76.6576Z" fill="#425FEC"/>
<path d="M327.574 51.4338L329.35 46.7231L337.46 48.9928L337.311 49.4639L329.649 47.3227L328.044 51.6265L327.574 51.4338Z" fill="#101C3A"/>
<path d="M293.483 67.6L293.569 67.1075L300.331 68.3708C301.936 65.0091 304.676 62.3754 304.718 62.354L305.061 62.718C305.039 62.7394 302.257 65.3945 300.717 68.7563L300.631 68.9275L293.483 67.6Z" fill="#101C3A"/>
<path d="M308.891 93.8515L309.277 93.5518C318.714 106.292 332.453 100.746 332.581 100.682L332.774 101.132C332.667 101.196 318.564 106.892 308.891 93.8515Z" fill="#101C3A"/>
<path d="M328.43 110.167C331.34 109.718 333.715 109.033 333.737 109.033L333.908 108.99L335.363 111.131L334.957 111.409L333.694 109.568C333.095 109.739 330.976 110.296 328.494 110.681L328.43 110.167Z" fill="#101C3A"/>
<path d="M291.108 81.154L294.211 69.9554L301.209 71.2615C301.658 70.4051 303.841 66.4866 307.094 63.7459L304.141 57.2794L314.241 51.5623L318.265 57.4292C319.142 57.1509 323.058 56.016 327.723 56.273L330.206 49.6138L341.398 52.7185L340.093 59.7203C341.013 60.2128 345.421 62.6966 347.604 65.5873L354.067 62.6324L359.802 72.7604L353.938 76.7645C354.259 77.5996 355.436 81.1326 355.094 86.2501L361.749 88.7339L358.646 99.9325L351.649 98.6264C351.199 99.4829 348.995 103.508 345.785 106.142L348.738 112.609L338.637 118.326L334.614 112.459C333.758 112.758 329.928 113.979 325.155 113.615L322.673 120.274L311.481 117.169L312.786 110.168C311.952 109.761 308.335 107.834 305.275 104.279L298.812 107.234L293.098 97.1275L298.962 93.1234C298.641 92.2669 297.335 88.5198 297.806 83.6378L291.108 81.154ZM294.575 70.5121L291.707 80.8542L298.298 83.3166L298.277 83.5093C297.699 89.0337 299.433 93.0806 299.454 93.1234L299.54 93.3161L293.719 97.2988L298.983 106.635L305.382 103.722L305.51 103.872C308.913 107.898 313.107 109.825 313.15 109.846L313.321 109.932L312.037 116.848L322.373 119.717L324.834 113.122L325.027 113.144C330.42 113.594 334.614 111.988 334.636 111.966L334.807 111.902L338.787 117.726L348.118 112.459L345.186 106.056L345.336 105.928C348.931 103.059 351.285 98.348 351.306 98.2838L351.392 98.1125L358.304 99.3972L361.172 89.0551L354.58 86.5927L354.602 86.4C355.03 80.6401 353.446 76.8287 353.425 76.7859L353.339 76.5932L359.16 72.6105L353.896 63.2748L347.476 66.2083L347.369 66.0369C345.079 62.8894 339.793 60.0844 339.729 60.0629L339.579 59.9773L340.863 53.0611L330.527 50.1919L328.066 56.7869L327.895 56.7655C322.63 56.4443 318.307 57.9217 318.265 57.9431L318.093 58.0074L314.113 52.2047L304.783 57.4721L307.693 63.8743L307.543 64.0028C303.905 67.0005 301.594 71.6041 301.573 71.647L301.487 71.8183L294.575 70.5121Z" fill="#101C3A"/>
<path d="M306.024 85.4578C305.746 74.1949 314.648 64.8164 325.904 64.5166C337.161 64.2382 346.534 73.1457 346.834 84.4086C347.112 95.6714 338.209 105.05 326.953 105.35C315.697 105.65 306.323 96.7206 306.024 85.4578ZM346.341 84.43C346.063 73.4455 336.904 64.7307 325.926 65.0091C314.948 65.2874 306.238 74.4519 306.516 85.4364C306.794 96.4208 315.953 105.136 326.932 104.857C337.931 104.6 346.641 95.4359 346.341 84.43Z" fill="#101C3A"/>
<path d="M499.33 469.979H30.6487V473.533H499.33V469.979Z" fill="#131313"/>
</g>
<defs>
<clipPath id="clip0_3_25497">
<rect width="557" height="495" fill="white"/>
</clipPath>
</defs>
</svg>
