<svg width="63" height="55" viewBox="0 0 63 55" fill="none" xmlns="http://www.w3.org/2000/svg">
<path d="M3.77392 42.6449C3.80636 42.6449 3.83281 42.6449 3.86525 42.6385C25.284 40.3966 39.0355 29.9872 46.7999 21.6537C53.4412 14.5174 56.8955 7.79164 58.1232 5.10696L58.1691 14.3504C58.1691 14.818 58.5609 15.1959 59.0375 15.1959H59.044C59.5206 15.1959 59.9124 14.8116 59.9059 14.3377L59.8405 1.93591C59.8405 1.62845 59.6709 1.35282 59.4028 1.19908C59.1353 1.04535 58.8019 1.05171 58.5344 1.20545L47.6164 7.45803C47.2052 7.69499 47.0614 8.21395 47.303 8.62375C47.5445 9.02717 48.0801 9.16817 48.4913 8.9312L56.582 4.2997C55.4391 6.79813 52.0109 13.5495 45.4678 20.5569C37.9126 28.6542 24.5257 38.7618 3.68184 40.9464C3.2052 40.9978 2.85884 41.4139 2.91125 41.8815C2.95717 42.3236 3.33597 42.6438 3.77367 42.6438L3.77392 42.6449Z" fill="#2667FF" stroke="#2667FF"/>
<path d="M61.0332 52.0961H59.4356V21.6897C59.4356 21.2149 59.0478 20.8247 58.5615 20.8247C58.0752 20.8247 57.6873 21.2149 57.6873 21.6897V52.0961H51.8762V26.6857C51.8762 26.211 51.4884 25.8208 51.0021 25.8208C50.5158 25.8208 50.1279 26.211 50.1279 26.6857V52.0961H44.3174V33.0396C44.3174 32.5649 43.9295 32.1746 43.4432 32.1746C42.9569 32.1746 42.5691 32.5584 42.5691 33.0396V52.0961H36.7585L36.758 37.3396C36.758 36.8648 36.3636 36.4746 35.8839 36.4746C35.4041 36.4746 35.0097 36.8584 35.0097 37.3396V52.0974H29.1992V41.0987C29.1992 40.624 28.8048 40.2338 28.325 40.2338C27.8452 40.2338 27.4509 40.6175 27.4509 41.0987V52.0969H21.6403L21.6398 43.3948C21.6398 42.92 21.2454 42.5298 20.7656 42.5298C20.2859 42.5298 19.8915 42.9136 19.8915 43.3948V52.0969H14.0809L14.0804 45.3135C14.0804 44.8388 13.6861 44.4486 13.2063 44.4486C12.7265 44.4486 12.3321 44.8323 12.3321 45.3135V52.0974L6.50807 52.0969V46.523C6.50807 46.0483 6.1137 45.658 5.63392 45.658C5.15414 45.658 4.75978 46.0418 4.75978 46.523V52.0969H1.86761C1.39437 52.0969 1 52.4807 1 52.9624C1 53.4435 1.39437 53.8273 1.87414 53.8273H61.0319C61.5116 53.8273 61.906 53.4436 61.906 52.9624C61.9065 52.4807 61.5121 52.0969 61.0324 52.0969L61.0332 52.0961Z" fill="#2667FF" stroke="#2667FF"/>
</svg>
