<svg width="26" height="60" viewBox="0 0 26 60" fill="none" xmlns="http://www.w3.org/2000/svg">
<circle cx="2" cy="2" r="2" fill="#FF7C6C"/>
<circle cx="9.2" cy="2" r="2" fill="#FF7C6C"/>
<circle cx="16.4" cy="2" r="2" fill="#FF7C6C"/>
<circle cx="23.6" cy="2" r="2" fill="#FF7C6C"/>
<circle cx="2" cy="10" r="2" fill="#FF7C6C"/>
<circle cx="9.2" cy="10" r="2" fill="#FF7C6C"/>
<circle cx="16.4" cy="10" r="2" fill="#FF7C6C"/>
<circle cx="23.6" cy="10" r="2" fill="#FF7C6C"/>
<circle cx="2" cy="18" r="2" fill="#FF7C6C"/>
<circle cx="9.2" cy="18" r="2" fill="#FF7C6C"/>
<circle cx="16.4" cy="18" r="2" fill="#FF7C6C"/>
<circle cx="23.6" cy="18" r="2" fill="#FF7C6C"/>
<circle cx="2" cy="26" r="2" fill="#FF7C6C"/>
<circle cx="9.2" cy="26" r="2" fill="#FF7C6C"/>
<circle cx="16.4" cy="26" r="2" fill="#FF7C6C"/>
<circle cx="23.6" cy="26" r="2" fill="#FF7C6C"/>
<circle cx="2" cy="34" r="2" fill="#FF7C6C"/>
<circle cx="9.2" cy="34" r="2" fill="#FF7C6C"/>
<circle cx="16.4" cy="34" r="2" fill="#FF7C6C"/>
<circle cx="23.6" cy="34" r="2" fill="#FF7C6C"/>
<circle cx="2" cy="42" r="2" fill="#FF7C6C"/>
<circle cx="9.2" cy="42" r="2" fill="#FF7C6C"/>
<circle cx="16.4" cy="42" r="2" fill="#FF7C6C"/>
<circle cx="23.6" cy="42" r="2" fill="#FF7C6C"/>
<circle cx="2" cy="50" r="2" fill="#FF7C6C"/>
<circle cx="9.2" cy="50" r="2" fill="#FF7C6C"/>
<circle cx="16.4" cy="50" r="2" fill="#FF7C6C"/>
<circle cx="23.6" cy="50" r="2" fill="#FF7C6C"/>
<circle cx="2" cy="58" r="2" fill="#FF7C6C"/>
<circle cx="9.2" cy="58" r="2" fill="#FF7C6C"/>
<circle cx="16.4" cy="58" r="2" fill="#FF7C6C"/>
<circle cx="23.6" cy="58" r="2" fill="#FF7C6C"/>
</svg>
