<svg width="170" height="124" viewBox="0 0 170 124" fill="none" xmlns="http://www.w3.org/2000/svg">
<path fill-rule="evenodd" clip-rule="evenodd" d="M170 38.448C170 85.3891 131.941 123.448 85 123.448C38.0589 123.448 0 85.3891 0 38.448H170Z" fill="#FF6464"/>
<path fill-rule="evenodd" clip-rule="evenodd" d="M85 0C105.809 0 122.684 16.8749 122.684 37.6836C122.684 58.4922 105.809 75.3671 85 75.3671C64.1914 75.3671 47.3165 58.4922 47.3165 37.6836C47.3165 16.8749 64.1914 0 85 0ZM85 18.3761C74.3385 18.3761 65.7065 27.0221 65.7065 37.6697C65.7065 48.3312 74.3524 56.9632 85 56.9632C95.6615 56.9632 104.294 48.3172 104.294 37.6697C104.294 27.0221 95.6615 18.3761 85 18.3761Z" fill="#1A1A1A"/>
<path fill-rule="evenodd" clip-rule="evenodd" d="M47.3304 38.448H65.7205C66.1236 48.7481 74.6027 56.977 85.0001 56.977C95.3975 56.977 103.877 48.7481 104.28 38.448H122.67C122.267 58.9092 105.559 75.3671 85.0001 75.3671C64.4416 75.3531 47.7336 58.8953 47.3304 38.448Z" fill="white"/>
</svg>
