<svg width="570" height="506" viewBox="0 0 570 506" fill="none" xmlns="http://www.w3.org/2000/svg">
<path fill-rule="evenodd" clip-rule="evenodd" d="M0 330.134C17.6587 331.062 36.653 333.622 56.4264 336.924C118.084 347.164 209.976 360.707 277.754 354.362C344.754 348.092 388.01 322.269 354.028 254.111C309.77 165.288 315.26 100.581 347.054 58.6927C379.218 16.3588 438.167 -2.63766 499.824 0.293434C561.407 3.22453 625.698 28.009 668.584 73.1998C719.371 126.702 740.183 208.735 691.065 316.889C656.119 393.839 639.536 455.875 635.269 506H632.895C637.199 455.578 653.856 393.208 688.951 315.961C737.586 208.809 717.071 127.666 666.914 74.7952C624.474 30.0125 560.739 5.48778 499.713 2.59379C438.76 -0.300206 380.553 18.3994 348.909 60.0655C317.598 101.323 312.293 165.177 356.106 253.072C391.238 323.53 346.831 350.207 277.94 356.663C209.864 363.044 117.787 349.465 56.0183 339.187C36.4304 335.922 17.5103 333.362 0 332.435V330.134Z" fill="#3EDBB4"/>
</svg>
