<svg width="256" height="332" viewBox="0 0 256 332" fill="none" xmlns="http://www.w3.org/2000/svg">
<path fill-rule="evenodd" clip-rule="evenodd" d="M258 43H116.455C52.4098 43 0 95.2051 0 159C0 222.795 52.4098 275 116.455 275H258V43Z" fill="#FFD100"/>
<path fill-rule="evenodd" clip-rule="evenodd" d="M258 332C237.873 324.976 219.849 313.48 205.091 298.717C179.718 273.336 164 238.256 164 199.5C164 160.744 179.697 125.685 205.091 100.283C219.849 85.5202 237.873 74.0446 258 67V69.5524C238.547 76.4949 221.114 87.6642 206.805 101.978C181.861 126.93 166.429 161.398 166.429 199.48C166.429 237.561 181.861 272.029 206.805 296.981C221.114 311.295 238.547 322.464 258 329.407V332ZM258 240.747V237.03C249.692 226.8 244.732 213.732 244.732 199.541C244.732 185.329 249.712 172.281 258 162.051V158.335C248.243 169.28 242.323 183.736 242.323 199.561C242.323 215.345 248.243 229.782 258 240.747ZM258 266.679V263.718C254.55 261.227 251.325 258.471 248.324 255.489C233.995 241.155 225.156 221.369 225.156 199.52C225.156 177.672 234.015 157.865 248.324 143.551C251.325 140.55 254.55 137.793 258 135.323V132.362C253.917 135.18 250.121 138.365 246.63 141.857C231.872 156.62 222.747 177.018 222.747 199.541C222.747 222.063 231.872 242.462 246.63 257.225C250.121 260.696 253.917 263.861 258 266.679ZM258 289.467V286.751C249.304 282.136 241.384 276.235 234.485 269.334C216.624 251.467 205.58 226.78 205.58 199.52C205.58 172.261 216.624 147.574 234.485 129.707C241.384 122.806 249.304 116.925 258 112.29V109.574C248.651 114.393 240.159 120.641 232.79 128.012C214.501 146.308 203.172 171.607 203.172 199.541C203.172 227.474 214.48 252.753 232.79 271.069C240.159 278.42 248.651 284.648 258 289.467ZM258 311.05V308.436C243.956 302.453 231.28 293.837 220.645 283.178C199.253 261.778 186.005 232.191 186.005 199.52C186.005 166.85 199.253 137.262 220.645 115.863C231.28 105.225 243.936 96.5874 258 90.6046V87.9909C243.283 94.1167 230.035 103.06 218.951 114.148C197.109 135.996 183.596 166.176 183.596 199.52C183.596 232.865 197.109 263.044 218.951 284.893C230.035 295.981 243.283 304.924 258 311.05Z" fill="#000248"/>
<path fill-rule="evenodd" clip-rule="evenodd" d="M117 0H129V29.5367H117V67.3468H129V84.0158H117V145H105V84.0158H117V67.3468H109.586V29.5367H117V0Z" fill="#1A1A1A"/>
</svg>
