<svg width="262" height="345" viewBox="0 0 262 345" fill="none" xmlns="http://www.w3.org/2000/svg">
<path fill-rule="evenodd" clip-rule="evenodd" d="M113.95 133.73C106.916 204.374 62.9548 215.612 25.7599 264.772C-0.616721 299.674 7.39183 331.803 52.9966 336.352C118.365 342.889 217.545 241.645 238.78 182.068C258.371 127.117 262.289 49.6116 198.871 21.3618C173.679 10.1613 140.364 12.6652 117.371 27.6693C91.5868 44.4701 117.543 97.5674 113.95 133.73ZM110.146 14.9397C137.096 -1.84194 175.399 -3.90619 204.223 9.62616C270.126 40.59 270.336 118.057 249.35 177.309C226.796 241.033 134.554 326.012 70.2179 342.717C50.5501 347.82 12.9156 339.888 4.44835 318.577C-18.6408 260.319 73.1614 216.3 92.4278 166.682C116.396 104.907 63.1841 44.1643 110.146 14.9397Z" fill="#3EDBB4"/>
</svg>
