<svg width="465" height="396" viewBox="0 0 465 396" fill="none" xmlns="http://www.w3.org/2000/svg">
<path fill-rule="evenodd" clip-rule="evenodd" d="M405.485 396L405.893 394.815L406.969 391.629L404.78 390.888L403.704 394.074L403.296 395.259L405.485 396ZM410.791 380.739L411.31 379.258L412.349 376.406L410.16 375.591L409.121 378.48L408.602 379.961L410.791 380.739ZM416.431 365.553L417.358 363.145L418.1 361.219L415.948 360.367L415.206 362.293L414.278 364.701L416.431 365.553ZM422.404 350.514L424.148 346.218L421.996 345.329L420.252 349.625L422.404 350.514ZM428.638 335.587L429.38 333.809L430.456 331.327L428.341 330.401L427.265 332.883L426.523 334.661L428.638 335.587ZM435.168 320.771L433.053 319.808L434.946 315.585L437.06 316.548L435.168 320.771ZM441.698 305.88L442.849 303.102L443.442 301.584L441.29 300.732L440.697 302.213L439.547 304.992L441.698 305.88ZM447.672 290.768L447.895 290.138L449.231 286.397L447.042 285.619L445.706 289.323L445.483 289.953L447.672 290.768ZM452.904 275.359L453.572 273.248L454.277 270.914L452.051 270.285L451.383 272.581L450.715 274.692L452.904 275.359ZM457.319 259.691L458.024 256.839L458.395 255.172L456.132 254.653L455.761 256.283L455.056 259.135L457.319 259.691ZM460.844 243.801L461.401 240.911L461.698 239.245L459.397 238.874L459.1 240.541L458.544 243.43L460.844 243.801ZM463.367 227.725L463.627 225.466L463.887 223.095L461.586 222.873L461.327 225.206L461.067 227.466L463.367 227.725ZM464.777 211.501L464.814 210.501L464.963 206.871L462.662 206.797L462.514 210.39L462.477 211.39L464.777 211.501ZM465 195.203L464.926 192.499L464.852 190.573L462.551 190.685L462.625 192.574L462.7 195.278L465 195.203ZM463.924 178.943L463.887 178.609L463.479 175.239L463.367 174.313L461.067 174.646L461.178 175.535L461.586 178.869L461.624 179.202L463.924 178.943ZM461.475 162.83L461.327 161.978L460.659 158.756L460.547 158.237L458.284 158.793L458.395 159.237L459.063 162.423L459.212 163.275L461.475 162.83ZM457.616 146.977L457.357 146.125L456.429 143.05L456.243 142.495L454.054 143.236L454.203 143.754L455.13 146.792L455.39 147.643L457.616 146.977ZM452.347 131.568L452.162 131.086L450.975 128.16L450.566 127.234L448.452 128.16L448.823 129.049L450.01 131.938L450.195 132.42L452.347 131.568ZM445.632 116.678L444.259 114.048L443.442 112.566L441.402 113.677L442.181 115.122L443.554 117.752L445.632 116.678ZM437.617 102.491L436.504 100.75L435.094 98.6018L433.165 99.8982L434.575 102.01L435.688 103.75L437.617 102.491ZM428.341 89.0824L427.71 88.2305L425.818 85.8228L425.484 85.4154L423.703 86.897L424.037 87.3045L425.892 89.6751L426.523 90.527L428.341 89.0824ZM417.915 76.5257L415.837 74.2662L414.724 73.118L413.054 74.7107L414.13 75.859L416.171 78.0814L417.915 76.5257ZM406.487 64.895L405.04 63.5615L403.036 61.7465L401.477 63.4874L403.444 65.2654L404.891 66.5988L406.487 64.895ZM394.131 54.2273L393.426 53.6347L391.014 51.7456L390.458 51.3381L389.048 53.1902L389.567 53.5976L391.942 55.4496L392.647 56.0423L394.131 54.2273ZM381.033 44.5227L378.584 42.8559L377.174 41.9299L375.913 43.856L377.286 44.782L379.734 46.4488L381.033 44.5227ZM367.267 35.7811L365.524 34.781L363.223 33.4846L362.073 35.5218L364.336 36.8183L366.08 37.8184L367.267 35.7811ZM352.945 28.0026L351.943 27.5211L349.161 26.1876L348.715 25.9654L347.751 28.0767L348.159 28.2619L350.904 29.5954L351.906 30.0769L352.945 28.0026ZM338.141 21.1872L335.061 19.9278L333.799 19.4092L332.946 21.5576L334.17 22.0391L337.213 23.2985L338.141 21.1872ZM322.928 15.2977L320.627 14.4828L318.55 13.7791L317.807 15.9645L319.885 16.6682L322.186 17.4831L322.928 15.2977ZM307.418 10.3713L305.897 9.92686L302.929 9.11197L302.335 11.3344L305.266 12.1493L306.788 12.5938L307.418 10.3713ZM291.612 6.37097L290.944 6.22281L287.939 5.59312L287.048 5.40792L286.603 7.66739L287.456 7.85259L290.425 8.48227L291.092 8.63044L291.612 6.37097ZM275.583 3.33365L272.837 2.88917L270.982 2.62988L270.648 4.92639L272.466 5.18567L275.212 5.63016L275.583 3.33365ZM259.405 1.25937L257.699 1.07417L254.804 0.814896L254.619 3.1114L257.513 3.37069L259.22 3.55589L259.405 1.25937ZM243.154 0.14816L242.597 0.111128L239.592 0.0370428L238.479 0L238.441 2.33356L239.517 2.37059L242.486 2.44468L243.042 2.48172L243.154 0.14816ZM226.865 0.0740855L224.713 0.14816L222.227 0.259288L222.338 2.55579L224.824 2.44468L226.976 2.37059L226.865 0.0740855ZM210.576 1.03714L209.983 1.07417L207.088 1.3705L205.938 1.51866L206.235 3.81518L207.348 3.70405L210.242 3.40773L210.836 3.37069L210.576 1.03714ZM178.407 6.40801L176.032 7.00065L173.88 7.55626L174.511 9.77869L176.626 9.22308L179 8.63044L178.407 6.40801ZM162.749 10.9269L160.04 11.89L158.333 12.5197L159.15 14.7051L160.819 14.1124L163.491 13.1864L162.749 10.9269ZM147.499 16.8534L144.827 18.0387L143.232 18.7795L144.234 20.8538L145.792 20.113L148.427 18.9277L147.499 16.8534ZM132.917 24.2245L130.654 25.5579L128.91 26.5951L130.134 28.5582L131.841 27.5211L134.104 26.1876L132.917 24.2245ZM119.188 33.1142L117.519 34.3365L115.478 35.8922L116.925 37.7072L118.929 36.1515L120.598 34.9292L119.188 33.1142ZM106.61 43.5596L105.645 44.4856L103.79 46.3006L103.271 46.8192L104.94 48.4119L105.423 47.9304L107.241 46.1525L108.206 45.2265L106.61 43.5596ZM95.4788 55.5237L95.1449 55.9312L93.5494 57.9684L92.6218 59.1907L94.477 60.5612L95.3675 59.3759L96.9259 57.3757L97.2598 56.9683L95.4788 55.5237ZM86.0544 68.9324L84.7928 71.0437L83.7168 72.9698L85.7575 74.081L86.8336 72.1919L88.0951 70.0806L86.0544 68.9324ZM78.5593 83.4523L77.743 85.3784L76.8154 87.7489L78.9675 88.5638L79.8951 86.2303L80.7113 84.3042L78.5593 83.4523ZM73.1421 98.8981L72.5113 101.158L71.9547 103.417L74.2181 103.936L74.7747 101.75L75.4054 99.4908L73.1421 98.8981ZM69.6914 114.863L69.6172 115.307L69.209 118.233L69.0606 119.493L71.3611 119.752L71.5095 118.53L71.9176 115.64L71.9919 115.196L69.6914 114.863ZM68.1701 131.123L68.0959 133.494L68.0588 135.753H70.3964L70.4335 133.531L70.5077 131.16L68.1701 131.123ZM68.3185 147.421L68.4669 149.718L68.6525 152.088L70.9529 151.903L70.7674 149.57L70.619 147.273L68.3185 147.421ZM69.9511 163.645L70.4335 166.867L70.6561 168.238L72.9566 167.831L72.7339 166.497L72.2516 163.275L69.9511 163.645ZM72.8823 179.646L73.2163 181.239L73.9213 184.165L76.1846 183.61L75.5168 180.721L75.1828 179.128L72.8823 179.646ZM76.8896 195.426L77.1122 196.278L78.1883 199.908L80.4145 199.241L79.3385 195.648L79.1159 194.796L76.8896 195.426ZM81.8245 210.946L82.1584 211.909L83.3829 215.316L85.572 214.502L84.3476 211.131L84.0136 210.168L81.8245 210.946ZM87.5756 226.132L88.3919 228.132L89.3566 230.429L91.4716 229.503L90.5069 227.243L89.6906 225.243L87.5756 226.132ZM94.0318 241.06L95.9983 245.282L98.0761 244.282L96.1096 240.097L94.0318 241.06ZM101.044 255.691L101.601 256.839L102.343 258.395L103.011 259.839L105.126 258.913L104.458 257.431L103.716 255.839L103.159 254.69L101.044 255.691ZM107.241 270.507L107.686 271.84L108.131 273.248L108.614 274.841L110.84 274.211L110.321 272.544L109.838 271.099L109.393 269.766L107.241 270.507ZM111.211 285.99L111.322 286.582L111.508 287.842L111.656 289.064L111.805 290.509L114.105 290.323L113.957 288.805L113.808 287.545L113.623 286.249L113.511 285.656L111.211 285.99ZM111.693 301.843L111.582 302.806L111.434 303.843L111.248 304.88L111.063 305.918L110.988 306.325L113.252 306.844L113.363 306.399L113.586 305.325L113.771 304.251L113.92 303.139L114.031 302.176L111.693 301.843ZM107.204 316.882L107.018 317.215L106.536 318.067L106.054 318.919L105.534 319.771L104.903 320.771L106.796 322.067L106.944 321.845L107.501 320.956L108.057 320.067L108.577 319.178L109.059 318.252L109.244 317.919L107.204 316.882ZM97.5196 329.29L97.1485 329.623L96.3693 330.29L95.5901 330.957L94.7738 331.624L94.0689 332.179L95.4788 333.994L96.2209 333.402L97.0743 332.698L97.8906 331.994L98.7069 331.29L99.0779 330.957L97.5196 329.29ZM84.496 338.365L83.6797 338.772L82.6408 339.291L81.6018 339.81L80.3774 340.402L81.3421 342.513L82.6037 341.921L83.6797 341.402L84.7557 340.847L85.572 340.439L84.496 338.365ZM69.7656 344.699L69.0977 344.921L67.8733 345.329L66.6488 345.736L65.4244 346.106L66.0923 348.329L67.3538 347.921L68.6154 347.514L69.8769 347.107L70.5448 346.884L69.7656 344.699ZM54.256 349.07L52.104 349.551L50.694 349.848L49.7293 350.033L50.1746 352.292L51.1393 352.107L52.5492 351.811L54.7384 351.329L54.256 349.07ZM38.4125 351.996L36.1863 352.329L33.8487 352.626L34.1455 354.922L36.5202 354.626L38.7836 354.292L38.4125 351.996ZM22.3464 353.848C20.8251 353.996 19.2667 354.107 17.7455 354.218L17.931 356.515C19.4893 356.404 21.0106 356.293 22.569 356.144L22.3464 353.848ZM6.20602 354.922C4.64764 354.996 3.12637 355.033 1.56799 355.107L1.64221 357.404C3.20059 357.367 4.75897 357.293 6.28024 357.219L6.20602 354.922ZM-10.0085 355.329C-11.5669 355.329 -13.0882 355.33 -14.6465 355.367V357.7C-13.0882 357.7 -11.5669 357.7 -10.0085 357.663V355.329ZM-26.186 355.218C-27.7443 355.181 -29.2656 355.144 -30.824 355.107L-30.8982 357.404C-29.3398 357.441 -27.7815 357.478 -26.2602 357.515L-26.186 355.218ZM-42.4005 354.7C-43.9218 354.626 -45.4802 354.552 -47.0386 354.478L-47.1499 356.774C-45.5915 356.848 -44.0702 356.922 -42.5118 356.996L-42.4005 354.7ZM-58.578 353.774L-63.216 353.44L-63.3644 355.737L-58.7264 356.07L-58.578 353.774ZM-74.7554 352.551L-79.3563 352.144L-79.579 354.441L-74.9409 354.848L-74.7554 352.551ZM-90.8958 351.07C-92.417 350.922 -93.9754 350.774 -95.4967 350.588L-95.7564 352.885C-94.2351 353.033 -92.6768 353.218 -91.1184 353.366L-90.8958 351.07ZM-106.999 349.329C-108.52 349.144 -110.079 348.959 -111.6 348.81L-111.86 351.107C-110.338 351.292 -108.78 351.477 -107.259 351.625L-106.999 349.329ZM-123.102 347.403C-124.624 347.218 -126.182 347.032 -127.703 346.81L-128 349.107L-123.399 349.699L-123.102 347.403Z" fill="#FF6464"/>
</svg>
