<svg version="1.2" xmlns="http://www.w3.org/2000/svg" viewBox="0 0 815 454" width="815" height="454">
	<title>7-svg</title>
	<style>
		.s0 { fill: #ff7e70 } 
	</style>
	<path id="Layer" fill-rule="evenodd" class="s0" d="m1.5 386.9l2.2 1.3 3.1 1.8-1.5 2.7-3.1-1.8-2.2-1.3zm18.7 10.4l1.5 0.7 3.1 1.6 0.9 0.4-1.4 2.8-0.9-0.5-3.1-1.6-1.5-0.7zm19.3 9.3l4 1.8 1.5 0.7-1.2 2.8-1.6-0.7-4-1.8zm19.6 8.5l3.7 1.4 2 0.8-1 2.9-2.1-0.8-3.7-1.5zm20 7.5l3.4 1.2 2.4 0.8-1 2.9-2.4-0.8-3.4-1.2zm20.3 6.6l3.3 1 2.6 0.8-0.8 2.9-2.7-0.8-3.2-0.9zm20.6 5.7l3 0.8 2.9 0.8-0.7 3-2.9-0.8-3-0.8zm20.8 4.9l2.8 0.6 3.1 0.6-0.5 3-3.2-0.6-2.9-0.6zm21.1 4l2.5 0.5 3.5 0.5-0.4 3.1-3.6-0.6-2.5-0.5zm21.1 3.2l2.1 0.2 4 0.5-0.4 3.1-4-0.5-2.1-0.3zm21.3 2.2l1.5 0.2 4.7 0.3-0.2 3.1-1.2-0.1-3.5-0.3-1.5-0.1zm21.4 1.3l4 0.1 2.1 0.1v3.1l-2.2-0.1-4-0.1zm21.4 0.3h2.8l3.3-0.1 0.1 3.1h-3.3l-2.8 0.1zm21.4-0.8h1.1l3.3-0.2 1.6-0.1 0.3 3-1.7 0.2-3.3 0.2h-1.2zm21.3-1.8l2.4-0.3 3.7-0.5 0.4 3.1-3.7 0.4-2.4 0.3zm21.2-3l2.9-0.5 3.1-0.6 0.6 3-3.1 0.6-2.9 0.5zm20.9-4.4l2.8-0.7 3.1-0.8 0.8 2.9-3.1 0.8-2.8 0.7zm20.4-5.9l2-0.6 2.7-1 1.1-0.4 1 2.9-1.1 0.4-2.7 1-2 0.6zm19.9-7.6l0.5-0.2 2.6-1.1 2.5-1.2 1.3 2.7-2.6 1.2-2.5 1.1-0.5 0.2zm19-9.5l0.9-0.5 2.3-1.4 2.1-1.3 1.6 2.6-2.1 1.3-2.3 1.4-0.9 0.5zm17.7-11.8l0.5-0.3 2.1-1.6 2.2-1.8 1.9 2.4-2.2 1.8-2.1 1.6-0.5 0.4zm15.9-14l1.5-1.5 1.8-1.9 0.9-1 2.3 2-1 1.1-1.7 1.9-1.5 1.5zm13.5-16.3l0.5-0.6 1.3-2.1 1.4-2.1 0.1-0.3 2.7 1.6-0.2 0.4-1.4 2.1-1.4 2.1-0.5 0.6zm10.5-18.3l0.8-1.8 0.9-2.3 0.6-1.5 2.9 1.1-0.7 1.6-1 2.3-0.8 1.8zm7.1-20l0.3-1 0.6-2.6 0.5-2.3 2.9 0.6-0.4 2.4-0.7 2.6-0.3 1.1zm3.7-20.9l0.1-1.4 0.2-2.8 0.1-1.8 3 0.1-0.1 1.9-0.2 2.9-0.1 1.3zm0.5-21.2l-0.1-3.3v-2.9h3.1v2.8l0.1 3.3zm0.1-21.6l0.2-4.9v-1.3l3.1 0.2-0.1 1.2-0.2 5zm1.5-21.5l0.6-5.3 0.1-0.8 3 0.4-0.1 0.7-0.6 5.3zm3-21.3l0.9-4.7 0.3-1.4 2.9 0.7-0.2 1.3-0.9 4.6zm4.6-21l0.8-3 0.9-3 2.9 0.9-0.8 2.9-0.8 3zm6.5-20.6l0.2-0.6 1.7-4.4 0.4-0.8 2.8 1.2-0.3 0.7-1.7 4.3-0.2 0.7zm8.4-19.9l1-1.9 1.8-3.7 2.7 1.5-1.8 3.5-1 1.9zm10.4-19l1.5-2.4 1.8-2.8 2.6 1.7-1.8 2.7-1.5 2.4zm12.2-17.8l2-2.5 1.8-2.3 2.4 1.9-1.9 2.3-1.9 2.5zm14-16.4l2.2-2.4 2.1-2 2.2 2.1-2.1 2-2.2 2.4zm15.5-15l2.5-2.2 2.2-1.8 1.9 2.3-2.1 1.8-2.5 2.2zm16.8-13.6l2.9-2.1 2-1.5 1.8 2.5-2.1 1.4-2.8 2.1zm17.8-12.1l3.6-2.2 1.7-1 1.6 2.6-1.7 1-3.6 2.2zm18.7-10.8l0.5-0.2 4-2.2 0.9-0.4 1.4 2.7-0.9 0.5-4 2.1-0.5 0.3zm19.3-9.6l1.8-0.8 3.8-1.7 1.2 2.8-3.7 1.7-1.8 0.8zm19.8-8.5l3.5-1.3 2.2-0.9 1.1 2.9-2.2 0.9-3.5 1.3zm20.2-7.4l1.2-0.5 4.6-1.5 0.9 2.9-4.5 1.5-1.3 0.5zm20.5-6.7l3.8-1.1 2.1-0.7 0.8 3-2 0.6-3.8 1.1zm20.7-5.9l2.1-0.5 3.8-1.1 0.8 3-3.8 1-2.1 0.6zm20.9-5.3c2-0.5 4-0.9 6-1.4l0.7 3c-2.1 0.5-4 1-6 1.4zm21-4.7l4.3-0.8 1.7-0.4 0.6 3-1.7 0.3-4.2 0.9zm21-4.1l3.3-0.6 2.8-0.5 0.5 3-2.8 0.5-3.2 0.6zm21.1-3.8l6.1-1.1 0.5 3.1-6.1 1zm21.2-3.4l6.1-0.9 0.4 3-6 0.9zm21.3-3.1l6-0.8 0.5 3-6.1 0.8zm21.3-2.9l6.1-0.8 0.4 3-6.1 0.8zm21.3-2.7l6.1-0.8 0.3 3-6 0.8zm21.3-2.6l6.1-0.7 0.4 3-6.1 0.8zm21.3-2.6l6.1-0.8 0.3 3.1-6.1 0.7zm21.3-2.5l6.1-0.8 0.4 3.1-6.1 0.7zm21.4-2.6c2-0.3 4-0.5 6-0.7l0.4 3-6 0.8zm21.2-2.7l6.1-0.8 0.4 3-6.1 0.8zm21.3-2.9l6.1-0.8 0.4 3-6.1 0.9zm21.2-3.1c2-0.3 4.1-0.7 6.1-0.9l0.5 3q-3.1 0.5-6.1 0.9zm21.1-3.5l2.3-0.3 3.7-0.7 0.6 3-3.8 0.7-2.3 0.4zm21.1-3.9l3.5-0.7 2.5-0.5 0.6 3-2.5 0.5-3.5 0.7zm20.9-4.5l4-0.9 2-0.5 0.7 3-2 0.4-3.9 1zm20.7-5.2l3.7-1 2.2-0.6 0.8 2.9-2.3 0.6-3.6 1zm20.5-6.1l2.4-0.7 3.4-1.2 1 2.9-3.5 1.2-2.4 0.7zm20.2-7.3l3.7-1.5 1.9-0.8 1.2 2.8-1.9 0.8-3.8 1.5zm19.4-8.8l0.8-0.3 1.4-0.8h4.1l0.6 1-1.5 0.8-3.2 1.7-0.8 0.4z"/>
</svg>