<svg width="312" height="324" viewBox="0 0 312 324" fill="none" xmlns="http://www.w3.org/2000/svg">
<path d="M299.509 108.971L308.998 114.348C310.148 114.992 310.793 116.29 310.604 117.602C310.415 118.914 309.454 120 308.156 120.311L297.56 122.876C296.539 123.121 295.563 122.263 295.724 121.215C295.785 120.793 296.021 120.416 296.36 120.187L299.109 118.307C299.828 117.827 300.296 117.043 300.417 116.2C300.539 115.356 300.291 114.488 299.746 113.826L297.599 111.201C297.329 110.885 297.22 110.448 297.268 110.044C297.434 109.025 298.579 108.454 299.509 108.971Z" fill="#009090"/>
<path d="M168.377 145.48C168.273 145.408 168.157 145.353 168.045 145.327C166.107 144.703 164.974 144.406 164.927 144.399C164.255 144.216 163.554 144.631 163.371 145.303C163.188 145.975 163.603 146.676 164.275 146.859C164.275 146.859 165.392 147.145 167.248 147.738C167.925 147.95 168.637 147.594 168.849 146.916C169.036 146.35 168.812 145.782 168.377 145.48Z" fill="#009090"/>
<path d="M287.254 115.333C287.011 115.164 286.707 115.082 286.395 115.123C284.306 115.348 282.222 115.602 280.149 115.915C279.454 116.026 278.977 116.674 279.07 117.357C279.18 118.052 279.829 118.529 280.512 118.436C282.544 118.145 284.61 117.879 286.67 117.66C287.371 117.579 287.869 116.972 287.801 116.254C287.761 115.866 287.55 115.539 287.254 115.333ZM274.91 117.149C274.632 116.956 274.299 116.879 273.945 116.943C271.888 117.345 269.824 117.793 267.782 118.283C267.098 118.452 266.674 119.137 266.843 119.822C267.012 120.506 267.697 120.93 268.381 120.761C270.381 120.294 272.416 119.851 274.444 119.455C275.133 119.315 275.592 118.654 275.453 117.964C275.359 117.616 275.171 117.331 274.91 117.149ZM262.763 120.056C262.467 119.85 262.057 119.772 261.697 119.883C259.672 120.461 257.657 121.099 255.677 121.76C255.003 121.988 254.66 122.704 254.871 123.366C255.099 124.04 255.815 124.382 256.477 124.171C258.427 123.515 260.418 122.913 262.384 122.345C263.064 122.146 263.441 121.455 263.26 120.788C263.172 120.469 262.989 120.213 262.763 120.056ZM250.912 124.019C250.582 123.79 250.143 123.717 249.729 123.867C247.765 124.617 245.811 125.426 243.892 126.259C243.259 126.541 242.951 127.281 243.238 127.944C243.52 128.578 244.26 128.885 244.923 128.598C246.812 127.771 248.724 126.985 250.659 126.24C251.315 126 251.635 125.243 251.383 124.604C251.264 124.366 251.121 124.164 250.912 124.019ZM239.465 129.035C239.099 128.782 238.601 128.719 238.169 128.934C236.295 129.85 234.403 130.831 232.563 131.847C231.94 132.188 231.714 132.959 232.067 133.564C232.407 134.188 233.178 134.414 233.784 134.061C235.583 133.067 237.433 132.11 239.277 131.199C239.905 130.888 240.166 130.141 239.867 129.495C239.788 129.312 239.638 129.156 239.465 129.035ZM228.515 135.042C228.115 134.764 227.576 134.725 227.124 135.004C225.329 136.103 223.54 137.232 221.821 138.41C221.238 138.804 221.076 139.594 221.47 140.177C221.864 140.76 222.654 140.922 223.237 140.527C224.933 139.385 226.692 138.261 228.445 137.184C229.034 136.819 229.242 136.036 228.86 135.436C228.769 135.27 228.654 135.138 228.515 135.042ZM218.152 142.023C217.717 141.721 217.124 141.721 216.666 142.047C214.974 143.296 213.311 144.615 211.694 145.941C211.151 146.389 211.066 147.18 211.513 147.723C211.961 148.266 212.753 148.352 213.295 147.904C214.888 146.612 216.527 145.328 218.177 144.102C218.743 143.696 218.858 142.899 218.434 142.322C218.366 142.197 218.257 142.095 218.152 142.023ZM208.476 149.944C208.007 149.618 207.342 149.647 206.912 150.044C205.341 151.453 203.81 152.916 202.325 154.386C201.822 154.887 201.831 155.692 202.315 156.183C202.816 156.685 203.621 156.677 204.112 156.193C205.555 154.746 207.062 153.318 208.591 151.932C209.117 151.472 209.15 150.644 208.678 150.136C208.621 150.07 208.563 150.005 208.476 149.944ZM199.635 158.781C199.113 158.418 198.395 158.487 197.981 158.972C197.777 159.192 197.561 159.428 197.374 159.66C197.287 159.599 197.183 159.527 197.096 159.467C196.87 159.31 196.644 159.153 196.435 159.008C195.861 158.609 195.066 158.753 194.673 159.356C194.274 159.93 194.43 160.708 195.004 161.107C195.004 161.107 195.004 161.107 195.021 161.119C195.247 161.276 195.473 161.433 195.717 161.602C195.104 162.336 194.503 163.053 193.907 163.799C193.474 164.349 193.541 165.143 194.091 165.577C194.641 166.01 195.435 165.943 195.868 165.393C196.476 164.629 197.113 163.86 197.779 163.086C198.533 163.634 199.274 164.2 199.968 164.76C200.517 165.193 201.324 165.108 201.757 164.559C202.19 164.009 202.106 163.203 201.556 162.769C200.879 162.222 200.173 161.68 199.454 161.156C199.593 160.994 199.748 160.844 199.886 160.682C200.354 160.157 200.317 159.357 199.791 158.889C199.721 158.841 199.687 158.817 199.635 158.781ZM191.148 155.672C191.131 155.66 191.096 155.635 191.061 155.611C189.29 154.562 187.418 153.546 185.522 152.564C184.9 152.235 184.125 152.497 183.808 153.101C183.479 153.724 183.741 154.498 184.346 154.815C186.19 155.76 188.015 156.769 189.751 157.795C190.349 158.159 191.134 157.956 191.48 157.346C191.85 156.777 191.687 156.046 191.148 155.672ZM206.19 166.786C205.686 166.436 204.98 166.487 204.548 166.961C204.063 167.474 204.1 168.274 204.614 168.759C206.132 170.174 207.572 171.663 208.877 173.162C209.337 173.688 210.152 173.739 210.678 173.279C211.203 172.819 211.254 172.003 210.794 171.478C209.432 169.913 207.939 168.387 206.364 166.907C206.282 166.876 206.242 166.822 206.19 166.786ZM180.033 149.964C179.963 149.916 179.911 149.88 179.829 149.849C177.925 148.991 175.955 148.19 173.99 147.418C173.337 147.171 172.603 147.486 172.356 148.139C172.109 148.792 172.424 149.527 173.077 149.774C174.989 150.509 176.912 151.303 178.799 152.149C179.445 152.443 180.197 152.14 180.479 151.511C180.713 150.952 180.52 150.302 180.033 149.964ZM214.399 176.197C213.981 175.908 213.4 175.891 212.954 176.199C212.388 176.606 212.227 177.396 212.65 177.973C213.822 179.663 214.911 181.399 215.835 183.149C216.159 183.76 216.935 184.015 217.558 183.675C218.169 183.352 218.424 182.575 218.084 181.952C217.097 180.107 215.975 178.271 214.728 176.503C214.63 176.384 214.52 176.282 214.399 176.197ZM220.234 187.208C219.903 186.979 219.464 186.906 219.068 187.069C218.411 187.309 218.074 188.054 218.314 188.711C219.007 190.609 219.604 192.57 220.048 194.528C220.2 195.201 220.873 195.642 221.563 195.503C222.235 195.351 222.677 194.678 222.537 193.988C222.071 191.912 221.47 189.845 220.727 187.834C220.585 187.556 220.425 187.341 220.234 187.208ZM191.804 168.499C191.23 168.101 190.447 168.227 190.048 168.801C189.782 169.183 189.505 169.583 189.239 169.966C188.297 171.322 187.39 172.703 186.542 174.073C186.178 174.671 186.351 175.461 186.949 175.825C187.547 176.189 188.338 176.016 188.701 175.418C189.525 174.082 190.408 172.737 191.326 171.415C191.592 171.032 191.845 170.667 192.111 170.284C192.509 169.711 192.383 168.927 191.804 168.499ZM222.929 199.364C222.703 199.207 222.399 199.125 222.099 199.148C221.393 199.199 220.882 199.824 220.945 200.512C221.123 202.595 221.143 204.645 221.019 206.569C220.976 207.261 221.499 207.882 222.203 207.907C222.895 207.949 223.516 207.427 223.541 206.722C223.674 204.675 223.65 202.519 223.463 200.302C223.453 199.908 223.224 199.569 222.929 199.364ZM185.201 179.122C185.167 179.098 185.114 179.062 185.08 179.037C184.457 178.708 183.695 178.952 183.366 179.575C182.355 181.476 181.443 183.42 180.627 185.302C180.362 185.943 180.648 186.682 181.294 186.977C181.935 187.241 182.675 186.956 182.969 186.309C183.749 184.48 184.63 182.617 185.605 180.768C185.91 180.181 185.723 179.484 185.201 179.122ZM222.048 211.768C221.926 211.684 221.792 211.617 221.634 211.584C220.962 211.401 220.262 211.817 220.078 212.489C219.554 214.47 218.825 216.335 217.924 218.004C217.596 218.626 217.81 219.394 218.432 219.723C219.054 220.052 219.822 219.837 220.151 219.215C221.155 217.36 221.957 215.314 222.521 213.128C222.684 212.597 222.465 212.058 222.048 211.768ZM180.321 190.605C180.216 190.533 180.1 190.478 179.972 190.44C179.294 190.228 178.6 190.596 178.37 191.261C177.714 193.357 177.163 195.45 176.779 197.451C176.643 198.13 177.1 198.808 177.779 198.944C178.457 199.08 179.135 198.623 179.272 197.944C179.643 196.037 180.15 194.044 180.793 192.041C180.997 191.487 180.773 190.919 180.321 190.605ZM216.093 222.609C215.589 222.259 214.9 222.322 214.463 222.766C213.091 224.185 211.525 225.365 209.809 226.314C209.186 226.654 208.96 227.425 209.313 228.031C209.653 228.654 210.424 228.88 211.03 228.527C212.97 227.477 214.734 226.125 216.274 224.539C216.777 224.037 216.751 223.221 216.255 222.747C216.215 222.694 216.145 222.645 216.093 222.609ZM178.028 202.854C177.836 202.721 177.609 202.641 177.362 202.624C176.658 202.599 176.072 203.146 176.03 203.838C175.993 204.56 175.99 205.306 175.995 206.005C176.002 207.479 176.127 208.932 176.33 210.31C176.44 211.005 177.089 211.482 177.772 211.389C178.467 211.279 178.944 210.63 178.851 209.947C178.652 208.675 178.56 207.322 178.544 205.971C178.533 205.319 178.546 204.632 178.576 203.957C178.585 203.499 178.375 203.096 178.028 202.854ZM205.298 228.542C205.019 228.349 204.669 228.26 204.303 228.341C202.386 228.763 200.416 228.89 198.434 228.776C197.741 228.734 197.121 229.257 197.096 229.961C197.053 230.653 197.576 231.274 198.28 231.299C200.497 231.447 202.703 231.277 204.855 230.813C205.545 230.673 205.969 229.988 205.83 229.298C205.759 228.991 205.559 228.723 205.298 228.542ZM179.934 215.106C179.586 214.865 179.135 214.809 178.738 214.972C178.087 215.242 177.779 215.982 178.031 216.621C178.861 218.692 179.97 220.622 181.283 222.332C181.719 222.892 182.498 222.995 183.058 222.56C183.618 222.124 183.721 221.345 183.285 220.784C182.111 219.247 181.133 217.537 180.369 215.667C180.28 215.424 180.125 215.239 179.934 215.106ZM192.997 227.734C192.91 227.673 192.794 227.618 192.695 227.575C190.84 226.906 189.078 225.992 187.502 224.846C186.94 224.43 186.144 224.574 185.729 225.136C185.313 225.697 185.456 226.493 186.018 226.909C187.802 228.199 189.768 229.229 191.863 229.962C192.528 230.192 193.257 229.847 193.487 229.182C193.667 228.663 193.467 228.06 192.997 227.734Z" fill="#009090"/>
<path d="M296.717 114.661C296.491 114.504 296.234 114.428 295.946 114.435C294.888 114.473 293.818 114.529 292.748 114.585C292.054 114.619 291.508 115.22 291.56 115.926C291.611 116.631 292.194 117.165 292.9 117.114C293.952 117.046 295.01 117.007 296.051 116.956C296.744 116.922 297.307 116.334 297.274 115.64C297.246 115.234 297.03 114.878 296.717 114.661Z" fill="#009090"/>
<path d="M156.007 144.76C155.662 145.059 155.186 145.17 154.711 145.04C154.711 145.04 153.557 144.683 151.491 144.213C150.743 144.047 150.294 143.32 150.46 142.573C150.627 141.825 151.353 141.376 152.1 141.543C154.261 142.052 155.447 142.411 155.496 142.398C156.224 142.611 156.622 143.382 156.408 144.11C156.341 144.38 156.196 144.596 156.007 144.76Z" fill="#009090"/>
<path d="M146.096 142.618C145.803 142.872 145.406 143.005 144.976 142.926C142.821 142.563 140.597 142.259 138.371 141.988C137.634 141.903 137.084 141.234 137.171 140.465C137.256 139.728 137.925 139.178 138.694 139.265C140.97 139.523 143.24 139.846 145.459 140.214C146.209 140.348 146.71 141.03 146.576 141.78C146.486 142.129 146.32 142.424 146.096 142.618ZM132.686 141.066C132.428 141.29 132.063 141.426 131.71 141.401C129.492 141.243 127.252 141.165 125.027 141.103C124.269 141.098 123.667 140.473 123.69 139.7C123.695 138.941 124.319 138.339 125.093 138.362C127.352 138.393 129.654 138.509 131.889 138.651C132.646 138.689 133.213 139.343 133.158 140.115C133.131 140.5 132.945 140.843 132.686 141.066ZM119.185 140.801C118.962 140.995 118.661 141.135 118.322 141.127C116.088 141.194 113.867 141.311 111.659 141.477C110.895 141.536 110.257 140.973 110.181 140.225C110.122 139.462 110.684 138.823 111.433 138.747C113.674 138.584 115.961 138.439 118.242 138.392C119.003 138.365 119.622 138.974 119.634 139.718C119.683 140.158 119.495 140.532 119.185 140.801ZM105.737 141.847C105.547 142.011 105.296 142.139 105.019 142.168C102.819 142.447 100.596 142.806 98.4212 143.185C97.6682 143.325 96.9609 142.822 96.8355 142.086C96.6952 141.333 97.1978 140.626 97.9336 140.501C100.143 140.093 102.413 139.753 104.663 139.461C105.413 139.353 106.101 139.903 106.194 140.636C106.274 141.11 106.081 141.549 105.737 141.847ZM92.4809 144.264C92.326 144.399 92.124 144.513 91.8944 144.562C89.7422 145.071 87.5682 145.659 85.4561 146.284C84.7307 146.491 83.9844 146.083 83.7604 145.372C83.5535 144.647 83.9619 143.901 84.6725 143.677C86.8338 143.039 89.0572 142.438 91.2588 141.916C91.9819 141.741 92.7409 142.199 92.8984 142.937C93.0248 143.431 92.8424 143.951 92.4809 144.264ZM79.5448 148.093C79.4243 148.198 79.2717 148.3 79.1064 148.353C77.0174 149.109 74.941 149.914 72.9094 150.771C72.2092 151.077 71.409 150.745 71.1207 150.03C70.8151 149.33 71.1466 148.53 71.8617 148.241C73.9427 147.372 76.0856 146.539 78.224 145.77C78.9368 145.514 79.7175 145.892 79.9737 146.605C80.13 147.133 79.958 147.735 79.5448 148.093ZM67.1383 153.333C67.0523 153.407 66.9513 153.465 66.8503 153.522C64.8589 154.495 62.8779 155.549 60.9588 156.641C60.3035 156.998 59.4792 156.778 59.0898 156.12C58.7326 155.465 58.9528 154.64 59.6104 154.251C61.5788 153.147 63.6092 152.08 65.6522 151.062C66.3225 150.722 67.1422 151.007 67.4822 151.677C67.7476 152.261 67.5859 152.944 67.1383 153.333ZM21.4301 192.337C20.9653 192.74 20.2513 192.787 19.73 192.394C19.1318 191.948 18.9984 191.098 19.4298 190.483C20.7884 188.641 22.1769 186.834 23.5929 185.093C24.0714 184.497 24.9335 184.413 25.5294 184.892C26.1254 185.37 26.2094 186.232 25.7309 186.828C24.3493 188.539 22.9631 190.314 21.6562 192.111C21.5529 192.201 21.499 192.278 21.4301 192.337ZM55.3924 159.96C55.3407 160.005 55.2891 160.049 55.2225 160.077C53.3609 161.269 51.5097 162.543 49.7376 163.838C49.1248 164.279 48.2787 164.138 47.8205 163.54C47.3795 162.927 47.5204 162.081 48.1184 161.623C49.957 160.3 51.8426 158.997 53.7387 157.775C54.3814 157.368 55.2252 157.541 55.6317 158.184C56.0257 158.777 55.9088 159.512 55.3924 159.96ZM29.9113 181.876C29.3949 182.324 28.6189 182.333 28.1194 181.862C27.5579 181.353 27.506 180.493 28.0144 179.932C29.5245 178.23 31.0967 176.565 32.6792 174.982C33.2175 174.455 34.075 174.435 34.602 174.973C35.1463 175.496 35.1489 176.369 34.6106 176.896C33.0625 178.45 31.5248 180.085 30.0491 181.756C29.9825 181.784 29.963 181.831 29.9113 181.876ZM44.4916 167.875C44.4744 167.89 44.4744 167.89 44.4572 167.905C42.7426 169.301 41.0384 170.779 39.3984 172.261C38.8453 172.771 37.9751 172.742 37.4676 172.156C36.9577 171.603 36.9873 170.733 37.5726 170.225C39.247 168.713 40.9856 167.205 42.7347 165.779C43.3177 165.304 44.1832 165.398 44.6587 165.981C45.1341 166.564 45.0425 167.397 44.4916 167.875Z" fill="#009090"/>
<path d="M15.665 200.715C15.2174 201.103 14.5505 201.168 14.0246 200.84C13.392 200.424 13.2092 199.587 13.6108 198.937C14.2453 197.965 14.8798 196.992 15.5121 196.052C15.9286 195.419 16.7803 195.253 17.4129 195.67C18.0456 196.087 18.2111 196.938 17.7946 197.571C17.1796 198.496 16.5474 199.437 15.945 200.411C15.8394 200.533 15.7683 200.625 15.665 200.715Z" fill="#009090"/>
</svg>
