<svg width="704" height="607" viewBox="0 0 704 607" fill="none" xmlns="http://www.w3.org/2000/svg">
<path fill-rule="evenodd" clip-rule="evenodd" d="M54.1352 221.651L54.2564 222.899L54.6012 226.243L56.9003 226.008L56.5555 222.663L56.4343 221.415L54.1352 221.651ZM55.6494 237.737L55.7926 239.3L56.0325 242.326L58.3624 242.158L58.107 239.098L57.9639 237.535L55.6494 237.737ZM56.8291 253.894L56.9857 256.469L57.111 258.529L59.4224 258.41L59.2972 256.35L59.1406 253.775L56.8291 253.894ZM57.6435 270.055L57.8424 274.688L60.1693 274.602L59.9704 269.969L57.6435 270.055ZM58.1755 286.223L58.2391 288.148L58.2915 290.853L60.6 290.816L60.5477 288.112L60.484 286.186L58.1755 286.223ZM58.3913 302.413L60.7151 302.41L60.7483 307.037L58.4244 307.04L58.3913 302.413ZM58.6378 318.67L58.7458 321.675L58.8367 323.303L61.1482 323.184L61.0726 321.589L60.9646 318.585L58.6378 318.67ZM59.4829 334.899L59.5421 335.564L59.8814 339.522L62.1959 339.32L61.8719 335.395L61.8128 334.73L59.4829 334.899ZM61.1262 351.088L61.3959 353.286L61.7242 355.702L64.0108 355.349L63.6642 352.983L63.3945 350.785L61.1262 351.088ZM63.6197 367.174L64.1635 370.062L64.5184 371.732L66.7927 371.263L66.453 369.627L65.9093 366.739L63.6197 367.174ZM67.0156 383.093L67.7097 385.952L68.1322 387.592L70.3786 386.973L69.9561 385.333L69.262 382.474L67.0156 383.093ZM71.3996 398.764L72.1021 400.927L72.8508 403.191L75.0356 402.437L74.3023 400.207L73.5998 398.044L71.3996 398.764ZM76.8576 414.107L77.2394 415.032L78.6126 418.395L80.7359 417.507L79.3781 414.177L78.9964 413.252L76.8576 414.107ZM83.4265 429.024L84.6175 431.452L85.4853 433.173L87.5315 432.117L86.6792 430.429L85.4883 428L83.4265 429.024ZM91.1613 443.367L91.3336 443.655L93.1053 446.552L93.5913 447.348L95.5452 446.089L95.0747 445.326L93.3184 442.464L93.1461 442.176L91.1613 443.367ZM100.083 457.006L100.572 457.719L102.519 460.373L102.835 460.798L104.663 459.353L104.377 458.995L102.446 456.375L101.957 455.661L100.083 457.006ZM110.18 469.823L110.77 470.49L112.891 472.901L113.291 473.329L114.974 471.746L114.624 471.336L112.518 468.959L111.928 468.292L110.18 469.823ZM121.375 481.65L121.743 482.011L124.039 484.179L124.795 484.852L126.334 483.131L125.627 482.476L123.347 480.342L122.978 479.981L121.375 481.65ZM133.67 492.404L136.011 494.226L137.369 495.234L138.764 493.375L137.455 492.385L135.114 490.563L133.67 492.404ZM146.854 501.978L148.59 503.099L150.765 504.467L151.981 502.487L149.822 501.152L148.086 500.031L146.854 501.978ZM160.863 510.321L161.79 510.833L164.512 512.237L164.985 512.469L165.989 510.381L165.516 510.15L162.844 508.764L161.916 508.251L160.863 510.321ZM175.563 517.41L178.392 518.602L179.882 519.184L180.739 517.042L179.283 516.444L176.503 515.271L175.563 517.41ZM190.791 523.242L192.661 523.853L195.238 524.672L195.932 522.441L193.404 521.641L191.534 521.029L190.791 523.242ZM206.462 527.811L207.349 528.058L210.328 528.774L211.003 528.913L211.516 526.643L210.875 526.488L207.945 525.79L207.058 525.544L206.462 527.811ZM222.408 531.197L225.328 531.696L226.995 531.952L227.342 529.676L225.709 529.404L222.789 528.905L222.408 531.197ZM238.561 533.429L240.563 533.614L243.194 533.837L243.394 531.507L240.796 531.268L238.794 531.083L238.561 533.429ZM254.82 534.554L255.932 534.575L259.017 534.632L259.514 534.649L259.514 532.328L259.066 532.329L256.015 532.257L254.903 532.235L254.82 534.554ZM271.118 534.602L274.443 534.468L275.806 534.416L275.689 532.107L274.375 532.178L271.085 532.296L271.118 534.602ZM287.403 533.639L289.834 533.424L292.016 533.201L291.783 530.905L289.601 531.128L287.17 531.342L287.403 533.639ZM303.557 531.676L305.125 531.448L308.164 530.956L307.781 528.688L304.776 529.164L303.207 529.392L303.557 531.676ZM319.597 528.747L320.266 528.605L323.261 527.929L324.148 527.727L323.614 525.487L322.761 525.673L319.799 526.334L319.13 526.476L319.597 528.747ZM335.439 524.85L338.121 524.114L339.916 523.579L339.266 521.351L337.504 521.871L334.822 522.607L335.439 524.85ZM351.016 520.016L352.645 519.475L355.385 518.508L354.6 516.342L351.86 517.309L350.23 517.85L351.016 520.016ZM366.26 514.274L366.781 514.077L369.546 512.895L370.574 512.467L369.638 510.329L368.644 510.742L365.913 511.908L365.392 512.105L366.26 514.274ZM381.107 507.574L383.034 506.613L385.249 505.479L384.193 503.436L381.978 504.57L380.052 505.531L381.107 507.574ZM395.523 499.93L396.048 499.65L398.557 498.178L399.542 497.565L398.318 495.6L397.351 496.163L394.842 497.635L394.317 497.916L395.523 499.93ZM422.553 481.679L424.467 480.154L426.193 478.754L424.696 476.995L423.003 478.379L421.09 479.904L422.553 481.679ZM434.918 471.063L436.982 469.062L438.273 467.78L436.622 466.131L435.35 467.364L433.304 469.316L434.918 471.063ZM446.327 459.337L448.265 457.149L449.408 455.812L447.635 454.341L446.525 455.663L444.621 457.835L446.327 459.337ZM456.528 446.573L458.033 444.42L459.188 442.752L457.259 441.475L456.137 443.128L454.633 445.281L456.528 446.573ZM465.322 432.783L466.333 430.978L467.543 428.715L465.473 427.665L464.297 429.913L463.286 431.718L465.322 432.783ZM472.424 418.056L472.917 416.813L473.85 414.391L474.107 413.704L471.927 412.949L471.688 413.587L470.773 415.96L470.28 417.203L472.424 418.056ZM477.578 402.549L477.713 402.039L478.317 399.524L478.653 398.026L476.396 397.55L476.079 398.999L475.492 401.465L475.358 401.975L477.578 402.549ZM480.58 386.437L480.85 383.992L481.028 381.793L478.71 381.63L478.517 383.795L478.246 386.24L480.58 386.437ZM481.364 370.115L481.307 368.024L481.166 365.482L478.869 365.635L478.995 368.143L479.053 370.234L481.364 370.115ZM479.875 353.815L479.51 351.498L479.077 349.211L476.803 349.68L477.205 351.899L477.57 354.216L479.875 353.815ZM476.38 337.86L476.263 337.425L475.419 334.593L475.03 333.386L472.83 334.106L473.203 335.28L474.032 338.077L474.149 338.512L476.38 337.86ZM471.008 322.437L470.091 320.25L469.186 318.179L467.059 319.15L467.949 321.187L468.867 323.374L471.008 322.437ZM464.102 307.674L463.013 305.647L461.859 303.568L459.843 304.692L460.982 306.737L462.071 308.765L464.102 307.674ZM455.876 293.595L454.099 290.864L453.327 289.71L451.403 291.037L452.16 292.157L453.938 294.888L455.876 293.595ZM446.562 280.258L445.596 278.948L443.739 276.579L441.911 278.025L443.719 280.376L444.685 281.686L446.562 280.258ZM436.361 267.57L435.804 266.888L433.317 264.033L431.569 265.564L434.041 268.385L434.597 269.068L436.361 267.57ZM425.424 255.503L424.72 254.766L422.19 252.175L420.538 253.826L423.052 256.383L423.756 257.121L425.424 255.503ZM413.883 244.079L412.309 242.599L410.478 240.911L408.939 242.632L410.755 244.286L412.328 245.766L413.883 244.079ZM401.808 233.184L398.265 230.16L396.791 231.933L400.318 234.923L401.808 233.184ZM389.351 222.789L388.367 221.976L387.046 220.869L385.838 219.832L384.299 221.553L385.522 222.624L386.859 223.764L387.842 224.577L389.351 222.789ZM377.559 211.886L376.6 210.858L375.61 209.763L374.509 208.515L372.746 210.013L373.911 211.313L374.95 212.426L375.909 213.454L377.559 211.886ZM367.514 199.453L367.167 198.96L366.475 197.891L365.832 196.841L365.097 195.589L363.081 196.713L363.847 198.033L364.506 199.117L365.213 200.219L365.56 200.712L367.514 199.453ZM360.489 185.233L360.19 184.311L359.894 183.305L359.632 182.285L359.37 181.265L359.268 180.863L356.994 181.332L357.077 181.782L357.321 182.852L357.599 183.906L357.925 184.978L358.224 185.901L360.489 185.233ZM358.325 169.688L358.355 169.308L358.44 168.333L358.524 167.357L358.643 166.367L358.801 165.195L356.541 164.802L356.499 165.066L356.362 166.106L356.225 167.145L356.122 168.17L356.068 169.213L356.037 169.593L358.325 169.688ZM361.978 154.378L362.177 153.921L362.609 152.99L363.04 152.06L363.506 151.115L363.916 150.316L361.88 149.251L361.451 150.099L360.967 151.093L360.517 152.073L360.067 153.052L359.868 153.509L361.978 154.378ZM370.054 140.712L370.627 140.003L371.357 139.099L372.086 138.196L372.954 137.148L371.199 135.629L370.298 136.692L369.534 137.61L368.786 138.563L368.213 139.273L370.054 140.712ZM380.821 128.831L381.336 128.351L382.281 127.472L383.225 126.593L384.185 125.747L382.654 124.003L381.676 124.898L380.698 125.792L379.719 126.687L379.204 127.167L380.821 128.831ZM393.113 118.411L394.87 117.079L396.029 116.224L396.83 115.655L395.486 113.784L394.686 114.354L393.526 115.209L391.735 116.556L393.113 118.411ZM406.308 109.167L408.195 107.939L410.198 106.698L408.974 104.732L406.937 105.989L405.016 107.232L406.308 109.167ZM420.152 100.807C421.475 100.04 422.846 99.2919 424.184 98.5588L423.061 96.5469C421.689 97.2954 420.352 98.0286 418.996 98.8108L420.152 100.807ZM434.388 93.1242C435.774 92.4094 437.143 91.7436 438.529 91.0288L437.508 88.9707C436.106 89.6518 434.719 90.3667 433.366 91.0661L434.388 93.1242ZM448.967 86.0168C450.385 85.3694 451.768 84.7373 453.17 84.0561L452.201 81.9335C450.783 82.581 449.4 83.2131 447.997 83.8942L448.967 86.0168ZM463.728 79.3965C465.161 78.7827 466.56 78.1844 467.993 77.5706L467.107 75.4508C465.674 76.0646 464.241 76.6784 462.842 77.2768L463.728 79.3965ZM478.693 73.1314C480.107 72.5668 481.555 71.9867 483.004 71.4066L482.151 69.2714C480.702 69.8515 479.288 70.4162 477.84 70.9963L478.693 73.1314ZM493.792 67.2524L498.15 65.6286L497.33 63.478L492.973 65.1018L493.792 67.2524ZM509.015 61.6428L513.37 60.1019L512.618 57.9204L508.23 59.4768L509.015 61.6428ZM524.312 56.2846C525.757 55.7873 527.236 55.2746 528.697 54.811L527.979 52.6141C526.534 53.1114 525.04 53.5904 523.56 54.1031L524.312 56.2846ZM539.683 51.1776C541.144 50.714 542.638 50.235 544.083 49.7377L543.366 47.5408C541.905 48.0044 540.41 48.4835 538.965 48.9807L539.683 51.1776ZM555.131 46.239C556.591 45.7754 558.086 45.2964 559.562 44.8665L558.878 42.6543L554.447 44.0268L555.131 46.239Z" fill="#725EFE"/>
<path d="M568.684 49.3371L577.524 42.9958C578.591 42.2191 579.106 40.8731 578.794 39.5766C578.482 38.28 577.408 37.3136 576.111 37.1394L565.358 35.6773C564.312 35.5416 563.464 36.5034 563.711 37.5192C563.809 37.9298 564.08 38.2884 564.447 38.4837L567.358 40.0652C568.111 40.4782 568.653 41.1956 568.869 42.0393C569.065 42.8815 568.921 43.743 568.448 44.4755L566.587 47.2803C566.352 47.6254 566.28 48.0667 566.38 48.4561C566.625 49.493 567.839 49.9591 568.684 49.3371Z" fill="#725EFE"/>
</svg>
