<svg width="294" height="316" viewBox="0 0 294 316" fill="none" xmlns="http://www.w3.org/2000/svg">
<path d="M279.901 82.7614L290.131 86.5428C291.371 86.9937 292.216 88.1715 292.24 89.4968C292.264 90.8222 291.491 92.0484 290.26 92.5633L280.214 96.7995C279.246 97.2054 278.144 96.5153 278.134 95.4548C278.127 95.0288 278.299 94.6185 278.597 94.3384L281.008 92.0406C281.641 91.4514 281.976 90.6025 281.96 89.7505C281.945 88.8985 281.561 88.0816 280.916 87.5157L278.375 85.2703C278.057 85.0015 277.879 84.588 277.863 84.1811C277.863 83.1489 278.9 82.4008 279.901 82.7614Z" fill="#725EFE"/>
<path d="M156.347 139.881C156.232 139.827 156.108 139.791 155.995 139.784C153.982 139.479 152.815 139.368 152.767 139.369C152.075 139.296 151.45 139.819 151.377 140.512C151.305 141.204 151.827 141.829 152.52 141.902C152.52 141.902 153.668 142.004 155.595 142.291C156.298 142.392 156.943 141.926 157.044 141.223C157.137 140.634 156.825 140.109 156.347 139.881Z" fill="#725EFE"/>
<path d="M268.83 91.0119C268.562 90.8842 268.249 90.8521 267.948 90.9428C265.922 91.5006 263.906 92.0866 261.91 92.729C261.242 92.9495 260.876 93.6664 261.077 94.3257C261.298 94.994 262.015 95.3597 262.674 95.1583C264.633 94.545 266.629 93.9498 268.627 93.4021C269.305 93.2098 269.7 92.5302 269.517 91.8328C269.415 91.4558 269.154 91.167 268.83 91.0119ZM256.938 94.7894C256.632 94.6434 256.291 94.6213 255.952 94.7411C253.986 95.4682 252.021 96.2427 250.085 97.0545C249.437 97.3315 249.128 98.0757 249.405 98.7241C249.682 99.3725 250.427 99.6809 251.075 99.4039C252.974 98.6212 254.911 97.8567 256.848 97.1396C257.507 96.8908 257.853 96.1648 257.605 95.5064C257.456 95.1777 257.225 94.9262 256.938 94.7894ZM245.416 99.6112C245.091 99.4562 244.674 99.4448 244.336 99.612C242.43 100.508 240.544 101.461 238.696 102.433C238.068 102.766 237.845 103.528 238.159 104.147C238.493 104.775 239.254 104.998 239.874 104.684C241.693 103.723 243.561 102.808 245.411 101.931C246.049 101.626 246.31 100.883 246.024 100.254C245.886 99.9531 245.664 99.7298 245.416 99.6112ZM234.357 105.428C233.994 105.255 233.549 105.254 233.164 105.469C231.346 106.525 229.549 107.637 227.789 108.768C227.209 109.148 227.024 109.928 227.414 110.536C227.794 111.116 228.574 111.301 229.182 110.911C230.914 109.791 232.674 108.707 234.464 107.661C235.073 107.319 235.267 106.52 234.915 105.93C234.76 105.715 234.586 105.538 234.357 105.428ZM223.865 112.22C223.464 112.029 222.962 112.047 222.57 112.329C220.868 113.534 219.158 114.806 217.506 116.105C216.945 116.542 216.846 117.339 217.292 117.88C217.728 118.44 218.525 118.539 219.067 118.094C220.682 116.824 222.354 115.581 224.027 114.386C224.598 113.978 224.735 113.199 224.336 112.609C224.229 112.441 224.056 112.311 223.865 112.22ZM214.024 119.909C213.584 119.699 213.045 119.747 212.645 120.095C211.05 121.469 209.466 122.871 207.958 124.31C207.446 124.793 207.413 125.598 207.896 126.11C208.379 126.622 209.185 126.655 209.697 126.172C211.186 124.772 212.742 123.38 214.299 122.035C214.821 121.58 214.901 120.774 214.428 120.243C214.311 120.093 214.177 119.982 214.024 119.909ZM204.918 128.466C204.441 128.238 203.855 128.333 203.455 128.729C201.986 130.233 200.557 131.803 199.174 133.371C198.71 133.901 198.753 134.695 199.283 135.159C199.812 135.623 200.606 135.58 201.07 135.051C202.435 133.52 203.846 131.989 205.278 130.514C205.77 130.022 205.756 129.217 205.245 128.715C205.157 128.603 205.033 128.52 204.918 128.466ZM196.642 137.84C196.126 137.594 195.475 137.729 195.114 138.19C193.79 139.833 192.514 141.523 191.285 143.212C190.87 143.788 191.007 144.581 191.564 144.988C192.14 145.403 192.932 145.266 193.339 144.709C194.53 143.049 195.788 141.397 197.075 139.783C197.52 139.245 197.42 138.423 196.872 137.997C196.805 137.941 196.737 137.886 196.642 137.84ZM189.336 147.983C188.763 147.709 188.066 147.892 187.735 148.438C187.569 148.688 187.394 148.956 187.247 149.214C187.151 149.169 187.037 149.114 186.941 149.068C186.693 148.95 186.444 148.831 186.215 148.722C185.585 148.421 184.822 148.69 184.531 149.349C184.23 149.979 184.509 150.722 185.14 151.024C185.14 151.024 185.14 151.024 185.159 151.033C185.407 151.151 185.655 151.27 185.923 151.397C185.436 152.221 184.958 153.025 184.49 153.857C184.151 154.47 184.345 155.243 184.957 155.582C185.57 155.921 186.343 155.727 186.682 155.115C187.159 154.263 187.664 153.402 188.197 152.53C189.029 152.951 189.851 153.39 190.626 153.831C191.239 154.17 192.021 153.957 192.36 153.345C192.699 152.732 192.486 151.95 191.874 151.611C191.118 151.18 190.334 150.758 189.54 150.356C189.651 150.174 189.78 150.001 189.89 149.819C190.268 149.225 190.102 148.442 189.508 148.065C189.432 148.029 189.393 148.01 189.336 147.983ZM180.46 146.279C180.441 146.27 180.403 146.252 180.365 146.234C178.448 145.482 176.437 144.78 174.407 144.117C173.74 143.892 173.018 144.275 172.803 144.922C172.578 145.589 172.961 146.312 173.608 146.527C175.58 147.164 177.544 147.866 179.423 148.599C180.072 148.862 180.814 148.536 181.058 147.878C181.33 147.258 181.052 146.562 180.46 146.279ZM197.094 154.83C196.54 154.566 195.851 154.73 195.501 155.267C195.105 155.851 195.27 156.634 195.855 157.031C197.581 158.183 199.242 159.422 200.771 160.691C201.309 161.136 202.122 161.055 202.567 160.517C203.011 159.978 202.93 159.165 202.392 158.721C200.796 157.395 199.078 156.129 197.285 154.922C197.199 154.904 197.151 154.858 197.094 154.83ZM168.572 142.433C168.495 142.397 168.438 142.369 168.352 142.352C166.335 141.811 164.262 141.338 162.199 140.892C161.514 140.753 160.84 141.182 160.701 141.866C160.562 142.551 160.991 143.225 161.676 143.364C163.681 143.782 165.707 144.256 167.705 144.788C168.391 144.974 169.084 144.555 169.261 143.889C169.402 143.299 169.107 142.689 168.572 142.433ZM206.709 162.799C206.25 162.58 205.674 162.657 205.283 163.033C204.79 163.525 204.758 164.331 205.269 164.833C206.697 166.313 208.051 167.851 209.244 169.429C209.662 169.98 210.469 170.108 211.029 169.671C211.58 169.254 211.708 168.447 211.271 167.887C210 166.224 208.598 164.592 207.083 163.048C206.967 162.946 206.843 162.863 206.709 162.799ZM214.238 172.728C213.875 172.555 213.43 172.554 213.065 172.778C212.456 173.121 212.243 173.911 212.585 174.52C213.574 176.282 214.479 178.122 215.232 179.983C215.49 180.622 216.225 180.95 216.884 180.701C217.523 180.443 217.851 179.708 217.602 179.05C216.808 177.076 215.883 175.132 214.826 173.267C214.641 173.015 214.449 172.829 214.238 172.728ZM183.17 158.834C182.54 158.533 181.787 158.784 181.486 159.414C181.285 159.834 181.075 160.274 180.874 160.694C180.163 162.185 179.49 163.693 178.873 165.182C178.61 165.83 178.908 166.582 179.557 166.845C180.205 167.108 180.958 166.81 181.22 166.162C181.819 164.711 182.474 163.241 183.167 161.789C183.368 161.369 183.559 160.967 183.76 160.547C184.061 159.916 183.811 159.163 183.17 158.834ZM218.853 184.292C218.604 184.174 218.291 184.142 217.999 184.213C217.311 184.377 216.907 185.076 217.08 185.745C217.59 187.772 217.94 189.792 218.126 191.711C218.196 192.401 218.811 192.93 219.51 192.841C220.2 192.772 220.729 192.156 220.641 191.457C220.442 189.415 220.072 187.291 219.531 185.132C219.458 184.745 219.178 184.447 218.853 184.292ZM178.362 170.38C178.323 170.362 178.266 170.335 178.228 170.317C177.561 170.092 176.848 170.455 176.623 171.122C175.931 173.162 175.344 175.227 174.84 177.216C174.682 177.891 175.083 178.575 175.768 178.761C176.443 178.919 177.127 178.519 177.314 177.833C177.79 175.902 178.36 173.922 179.024 171.94C179.231 171.312 178.935 170.654 178.362 170.38ZM219.978 196.677C219.844 196.613 219.702 196.569 219.54 196.562C218.848 196.49 218.223 197.012 218.15 197.705C217.951 199.745 217.532 201.703 216.911 203.495C216.686 204.162 217.022 204.885 217.689 205.109C218.356 205.334 219.079 204.999 219.303 204.332C219.996 202.34 220.459 200.191 220.664 197.943C220.739 197.393 220.437 196.896 219.978 196.677ZM175.391 182.499C175.276 182.444 175.153 182.409 175.02 182.392C174.317 182.291 173.691 182.767 173.571 183.46C173.261 185.635 173.054 187.788 172.996 189.825C172.971 190.517 173.531 191.113 174.223 191.138C174.915 191.163 175.51 190.603 175.536 189.911C175.595 187.969 175.775 185.92 176.088 183.841C176.2 183.261 175.888 182.736 175.391 182.499ZM215.844 208.334C215.29 208.07 214.621 208.243 214.261 208.751C213.135 210.372 211.778 211.789 210.238 213.001C209.677 213.437 209.578 214.235 210.024 214.776C210.46 215.336 211.257 215.435 211.798 214.99C213.545 213.642 215.068 212.023 216.333 210.21C216.748 209.634 216.592 208.832 216.026 208.445C215.978 208.398 215.901 208.362 215.844 208.334ZM175.097 194.957C174.887 194.857 174.65 194.814 174.404 194.838C173.705 194.926 173.214 195.56 173.284 196.25C173.363 196.968 173.481 197.705 173.597 198.394C173.842 199.848 174.199 201.262 174.621 202.589C174.841 203.258 175.558 203.623 176.218 203.422C176.886 203.202 177.252 202.485 177.05 201.825C176.649 200.602 176.341 199.281 176.108 197.95C175.992 197.309 175.895 196.629 175.816 195.958C175.751 195.504 175.479 195.14 175.097 194.957ZM206.143 215.926C205.837 215.78 205.477 215.749 205.129 215.888C203.305 216.612 201.381 217.055 199.406 217.261C198.716 217.33 198.187 217.946 198.276 218.645C198.345 219.335 198.961 219.864 199.66 219.775C201.872 219.565 204.022 219.042 206.072 218.238C206.73 217.989 207.038 217.245 206.79 216.587C206.671 216.295 206.43 216.063 206.143 215.926ZM178.949 206.744C178.566 206.561 178.112 206.579 177.747 206.803C177.148 207.174 176.963 207.954 177.315 208.544C178.467 210.455 179.872 212.181 181.442 213.659C181.962 214.141 182.748 214.118 183.231 213.597C183.714 213.077 183.69 212.292 183.17 211.809C181.763 210.48 180.523 208.95 179.469 207.227C179.342 207.002 179.159 206.844 178.949 206.744ZM193.873 217.106C193.777 217.061 193.653 217.025 193.549 216.999C191.61 216.636 189.724 216.017 187.984 215.14C187.363 214.82 186.601 215.089 186.281 215.711C185.961 216.332 186.23 217.094 186.852 217.414C188.82 218.401 190.926 219.101 193.111 219.488C193.805 219.608 194.469 219.15 194.589 218.457C194.683 217.915 194.389 217.353 193.873 217.106Z" fill="#725EFE"/>
<path d="M278.061 88.8265C277.812 88.7079 277.547 88.6749 277.264 88.7274C276.226 88.9357 275.179 89.1631 274.132 89.3906C273.452 89.5355 273.01 90.2159 273.174 90.9043C273.338 91.5926 274 92.0256 274.688 91.8615C275.716 91.625 276.754 91.4167 277.773 91.1992C278.452 91.0543 278.913 90.383 278.768 89.7038C278.676 89.3077 278.405 88.9907 278.061 88.8265Z" fill="#725EFE"/>
<path d="M144.022 141.16C143.73 141.51 143.277 141.697 142.787 141.644C142.787 141.644 141.591 141.478 139.476 141.346C138.712 141.302 138.152 140.657 138.196 139.893C138.24 139.129 138.884 138.568 139.649 138.612C141.863 138.767 143.091 138.931 143.138 138.911C143.891 139.004 144.407 139.701 144.313 140.454C144.29 140.731 144.182 140.968 144.022 141.16Z" fill="#725EFE"/>
<path d="M133.895 140.639C133.647 140.937 133.277 141.132 132.839 141.123C130.654 141.111 128.411 141.169 126.17 141.259C125.429 141.294 124.778 140.722 124.741 139.949C124.706 139.208 125.278 138.558 126.051 138.52C128.338 138.409 130.631 138.363 132.881 138.369C133.642 138.381 134.246 138.973 134.234 139.735C134.202 140.094 134.085 140.412 133.895 140.639ZM120.411 141.264C120.192 141.527 119.854 141.719 119.501 141.751C117.286 141.952 115.063 142.235 112.858 142.532C112.108 142.649 111.413 142.129 111.311 141.362C111.195 140.612 111.714 139.918 112.482 139.816C114.716 139.484 117.007 139.227 119.236 139.009C119.988 138.924 120.653 139.479 120.723 140.249C120.758 140.634 120.63 141.002 120.411 141.264ZM107.043 143.173C106.853 143.401 106.579 143.587 106.244 143.634C104.05 144.059 101.876 144.532 99.7228 145.051C98.9788 145.231 98.2583 144.779 98.0629 144.053C97.8822 143.309 98.3345 142.588 99.061 142.393C101.246 141.871 103.481 141.361 105.725 140.947C106.472 140.798 107.18 141.3 107.312 142.032C107.431 142.458 107.306 142.858 107.043 143.173ZM93.9373 146.368C93.7768 146.561 93.5492 146.727 93.2808 146.8C91.1539 147.43 89.0182 148.141 86.9321 148.864C86.2115 149.124 85.4326 148.742 85.1905 148.036C84.931 147.315 85.3133 146.536 86.0194 146.294C88.1346 145.536 90.3199 144.836 92.4935 144.186C93.2171 143.958 93.9843 144.39 94.1942 145.099C94.3488 145.554 94.2291 146.018 93.9373 146.368ZM81.2428 150.885C81.1115 151.043 80.9306 151.189 80.7117 151.273C78.6694 152.122 76.6183 153.052 74.6343 154.009C73.9515 154.33 73.1493 154.047 72.8139 153.381C72.4931 152.699 72.7762 151.896 73.4414 151.561C75.4721 150.584 77.5699 149.633 79.659 148.764C80.3446 148.475 81.1673 148.805 81.4414 149.508C81.6455 149.975 81.5492 150.518 81.2428 150.885ZM69.0907 156.744C68.9886 156.867 68.8543 156.992 68.6997 157.071C66.7594 158.153 64.8396 159.282 62.9722 160.454C62.3303 160.869 61.4872 160.67 61.0876 160.011C60.6734 159.369 60.872 158.526 61.5314 158.126C63.4454 156.933 65.4265 155.767 67.4135 154.664C68.0758 154.297 68.9072 154.545 69.2747 155.207C69.5139 155.703 69.4408 156.324 69.0907 156.744ZM57.6882 163.911C57.6152 163.998 57.5248 164.071 57.4343 164.144C55.6253 165.425 53.8396 166.784 52.121 168.169C51.5316 168.627 50.6826 168.542 50.1926 167.956C49.7347 167.367 49.8194 166.518 50.4059 166.028C52.1712 164.622 54.0035 163.242 55.8563 161.909C56.4632 161.466 57.318 161.615 57.7614 162.222C58.1172 162.755 58.0675 163.456 57.6882 163.911ZM18.8466 209.758C18.4526 210.23 17.7554 210.391 17.1777 210.087C16.5155 209.743 16.2473 208.926 16.5741 208.249C17.6189 206.213 18.6987 204.206 19.8164 202.26C20.1929 201.595 21.0302 201.373 21.6953 201.75C22.3604 202.126 22.582 202.964 22.2056 203.629C21.117 205.539 20.0343 207.514 19.0333 209.498C18.9458 209.603 18.9049 209.688 18.8466 209.758ZM47.1606 172.34C47.1169 172.393 47.0731 172.445 47.0118 172.483C45.3662 173.959 43.7438 175.514 42.2031 177.077C41.6692 177.611 40.8114 177.608 40.263 177.092C39.7292 176.558 39.7323 175.7 40.2488 175.152C41.8507 173.55 43.5022 171.961 45.1771 170.45C45.7461 169.945 46.6067 169.98 47.1113 170.549C47.5956 171.071 47.5984 171.815 47.1606 172.34ZM25.5353 198.069C25.0976 198.594 24.3332 198.728 23.7643 198.343C23.1284 197.931 22.9389 197.091 23.3504 196.455C24.5673 194.533 25.8513 192.636 27.1586 190.819C27.605 190.212 28.4482 190.055 29.055 190.501C29.6763 190.93 29.8191 191.791 29.3726 192.398C28.0945 194.18 26.8397 196.041 25.652 197.929C25.5907 197.967 25.579 198.016 25.5353 198.069ZM37.6745 181.905C37.6599 181.923 37.6599 181.923 37.6453 181.94C36.1776 183.594 34.7331 185.327 33.3529 187.054C32.8889 187.646 32.0254 187.757 31.4303 187.26C30.8381 186.797 30.7274 185.933 31.2235 185.338C32.6329 183.576 34.1065 181.808 35.6034 180.119C36.1024 179.556 36.9718 179.51 37.5348 180.009C38.0977 180.508 38.1414 181.345 37.6745 181.905Z" fill="#725EFE"/>
<path d="M14.5036 218.953C14.1243 219.408 13.4766 219.58 12.9048 219.341C12.2134 219.031 11.8985 218.235 12.1903 217.529C12.6602 216.467 13.1301 215.405 13.6029 214.375C13.9122 213.684 14.7263 213.383 15.4176 213.693C16.109 214.002 16.4094 214.816 16.1 215.508C15.6418 216.52 15.169 217.55 14.7312 218.609C14.6466 218.746 14.5912 218.848 14.5036 218.953Z" fill="#725EFE"/>
</svg>
