<svg width="66" height="41" viewBox="0 0 66 41" fill="none" xmlns="http://www.w3.org/2000/svg">
<path d="M2.75003 26.0739C5.77301 22.7091 9.36575 19.839 13.2682 17.5529C17.2032 15.2557 21.4256 13.4775 25.8064 12.3718C30.0135 11.2893 34.3455 10.7818 38.6612 10.8614C42.8794 10.9744 47.0153 11.5882 51.0039 12.7251C54.3932 13.7045 57.688 15.0434 60.7797 16.7429C60.4496 16.3112 60.0982 15.9232 59.7682 15.4915C59.0755 14.6393 58.394 13.8195 57.7014 12.9673C57.3388 12.5468 57.0199 12.1476 56.6574 11.7271C56.2948 11.3065 55.9759 10.9073 55.6458 10.4756C55.3157 10.044 54.9643 9.65593 54.6343 9.22423C54.3042 8.79253 53.9853 8.39334 53.6227 7.97281C53.6115 7.94031 53.5679 7.91898 53.5567 7.88647C53.5455 7.85397 53.5019 7.83264 53.4795 7.76763C53.4683 7.73513 53.4683 7.73513 53.4572 7.70262C53.4348 7.63762 53.4348 7.63762 53.446 7.67012L53.4348 7.63762C53.4237 7.60511 53.4125 7.57261 53.4013 7.54011C53.3566 7.41009 53.3881 7.29024 53.4745 7.22423C53.5608 7.15822 53.6908 7.11354 53.8219 7.17753C53.8655 7.19887 53.8655 7.19887 53.9092 7.2202L53.9965 7.26287C53.9529 7.24153 53.9529 7.24153 54.0402 7.2842C54.0839 7.30553 54.1276 7.32686 54.1712 7.3482C54.2149 7.36953 54.2261 7.40203 54.2698 7.42337C54.3683 7.49854 54.478 7.60621 54.5765 7.68138C54.7847 7.86422 54.9817 8.01456 55.1899 8.1974C55.6063 8.56308 56.0116 8.89626 56.3955 9.27312C57.1958 10.0157 57.9636 10.7694 58.6776 11.5779C59.4464 12.4403 60.2152 13.3027 60.9515 14.1762C61.633 14.996 62.3257 15.8482 62.9533 16.7227C63.2834 17.1544 63.5809 17.5973 63.9222 18.0615C64.2197 18.5044 64.5498 18.9361 64.8261 19.4226C64.9032 19.5415 64.9804 19.6603 65.0464 19.7466C65.212 20.0168 65.2373 20.4079 64.9895 20.6384C64.9143 20.7369 64.7955 20.8141 64.6655 20.8588C64.4704 20.9258 64.2744 20.8842 64.1109 20.8313C64.0235 20.7887 63.9037 20.7572 63.8164 20.7145C62.7479 20.3549 61.6692 20.0714 60.5804 19.8641C60.3082 19.8123 60.0035 19.7717 59.7313 19.7198C59.4266 19.6792 59.1544 19.6274 58.871 19.543C58.2941 19.4506 57.7172 19.3581 57.1403 19.2656C56.4983 19.1955 55.8453 19.0929 55.182 19.0664C55.2257 19.0877 55.2907 19.0654 55.3344 19.0867C55.0733 19.0674 54.7798 19.0593 54.5188 19.0399C54.4863 19.0511 54.4751 19.0186 54.4426 19.0298C54.3664 19.0196 54.3339 19.0308 54.2577 19.0206C54.149 19.0216 54.0292 18.9901 53.888 19.0023C53.7793 19.0033 53.6595 18.9718 53.5935 18.8855C53.4949 18.8103 53.4503 18.6803 53.4493 18.5716C53.4361 18.3218 53.5976 18.1572 53.8363 18.1115C54.531 18.0182 55.2044 17.9684 55.889 17.9512C56.5736 17.934 57.2257 17.928 57.9326 17.9757C58.672 18.0124 59.4115 18.049 60.1194 18.2055C60.7836 18.3406 61.4479 18.4757 62.1233 18.6434C62.2432 18.6749 62.3194 18.685 62.4392 18.7165C62.428 18.684 62.3844 18.6627 62.3844 18.6627C61.8054 18.3529 61.2153 18.0105 60.6364 17.7007C59.7518 17.2415 58.8346 16.7935 57.8962 16.3892C56.0517 15.5694 54.1646 14.837 52.2135 14.2355C48.3437 13.0215 44.3155 12.298 40.2487 12.0966C36.1057 11.885 31.8915 12.2067 27.8459 13.1246C23.5291 14.0993 19.3697 15.6378 15.4764 17.739C11.5505 19.8513 7.99943 22.5254 4.75608 25.5662C4.34672 25.9613 3.9587 26.3127 3.54934 26.7077C3.05365 27.1688 2.29801 26.5563 2.75003 26.0739Z" fill="#FF7D05"/>
</svg>
