<svg width="106" height="28" viewBox="0 0 106 28" fill="none" xmlns="http://www.w3.org/2000/svg">
<path d="M10.2757 16.6212C9.85626 15.9877 10.2242 15.3807 11.1182 15.066L11.0723 15.061L10.7929 15.066L10.4905 15.0685L10.188 15.071L9.9086 15.076L9.62917 15.081L9.32676 15.0835L9.02435 15.086L8.74491 15.091L8.46547 15.096L8.18604 15.101L7.9066 15.106L7.62716 15.111L7.34772 15.1159L7.06828 15.1209L6.78885 15.1259L6.50941 15.1309L6.22997 15.1359L5.95053 15.1409L5.66984 15.1575L5.36617 15.1716C3.80188 15.2373 2.24176 14.6212 1.88973 13.7951C1.51473 12.9665 2.47585 12.2474 4.03888 12.1934L4.31832 12.1884L4.62199 12.1743L4.92565 12.1602L5.22932 12.1461L5.53299 12.1319L5.83666 12.1178L6.14033 12.1037L6.444 12.0896L6.74641 12.0871L7.04882 12.0846L7.35123 12.0821L7.65364 12.0796L7.95605 12.0771L8.25846 12.0746L8.56086 12.0721L8.88624 12.072L9.21163 12.072L9.51403 12.0695L9.81644 12.067L10.1648 12.0695L10.4902 12.0695L10.7926 12.067L11.0708 12.0736L11.3732 12.0711L11.6986 12.0711L11.9997 12.0803L12.3021 12.0778L12.6045 12.0753L12.9286 12.0869L13.2298 12.096L13.5309 12.1051L13.8333 12.1026L14.1345 12.1117L14.4356 12.1209L14.7368 12.13L15.0379 12.1391L15.3391 12.1482L15.6402 12.1574L15.9414 12.1665L16.2425 12.1756L16.5437 12.1847L16.8448 12.1939L17.146 12.203L17.4994 12.159L17.8005 12.1681L18.1017 12.1772L18.4028 12.1863L18.7282 12.1863L19.0294 12.1955L19.3305 12.2046L19.6317 12.2137L19.9328 12.2228L20.234 12.232L20.5351 12.2411L20.8363 12.2502L21.1374 12.2593L21.4385 12.2685L21.741 12.266L22.0421 12.2751L22.3433 12.2842L22.6674 12.2958L22.9685 12.3049L23.2697 12.3141L23.5708 12.3232L23.872 12.3323L24.1731 12.3414L24.4743 12.3506L24.7524 12.3572L25.0536 12.3663L25.3547 12.3754L25.6559 12.3846L25.957 12.3937L26.2582 12.4028L26.5593 12.4119L26.8605 12.4211L27.1616 12.4302L27.4628 12.4393L27.7639 12.4484L28.0651 12.4576L28.3433 12.4642L28.6214 12.4708L28.9226 12.48L29.2237 12.4891L29.5249 12.4982L29.826 12.5073L30.1272 12.5165L30.4283 12.5256L30.7065 12.5322L30.9847 12.5388L31.2871 12.5363L31.5895 12.5338L31.8919 12.5313L32.1943 12.5288L32.4967 12.5263L32.7991 12.5238L33.0773 12.5305L33.3797 12.528L33.7051 12.528L34.0305 12.528L34.3559 12.528L34.6813 12.5279L35.0066 12.5279L35.332 12.5279L35.6574 12.5279L35.9828 12.5279L36.3082 12.5279L36.6335 12.5279L36.9589 12.5279L37.2843 12.5279L37.6097 12.5279L37.9351 12.5278L38.2604 12.5278L38.5858 12.5278L38.9112 12.5278L39.2366 12.5278L39.562 12.5278L39.8873 12.5278L40.214 12.5162L40.5394 12.5161L40.8647 12.5161L41.1901 12.5161L41.5168 12.5045L41.8434 12.4929L42.1701 12.4812L42.4967 12.4696L42.8233 12.458L43.15 12.4463L43.4766 12.4347L43.8033 12.4231L44.1299 12.4114L44.4565 12.3998L44.7832 12.3882L45.1098 12.3765L45.4365 12.3649L45.7631 12.3533L46.0897 12.3416L46.4164 12.33L46.743 12.3184L47.0697 12.3067L47.3963 12.2951L47.7229 12.2835L48.0496 12.2718L48.3762 12.2602L48.7029 12.2485L49.0295 12.2369L49.3561 12.2253L49.6828 12.2136L50.0094 12.202L50.3361 12.1904L50.6627 12.1787L50.9894 12.1671L51.316 12.1555L51.6426 12.1438L51.6886 12.1488L51.3874 12.1397L51.0633 12.1281L50.7392 12.1165L50.4151 12.1049L50.0909 12.0932L49.7668 12.0816L49.4172 12.0908L49.1161 12.0816L48.8149 12.0725L48.4908 12.0609L48.1667 12.0493L47.8426 12.0377L47.5184 12.0261L47.1943 12.0145L46.8702 12.0028L46.5461 11.9912L46.2219 11.9796L45.8978 11.968L45.5737 11.9564L45.2496 11.9448L44.9255 11.9332L44.6013 11.9215L44.2772 11.9099L43.9761 11.9008L43.6749 11.8917L43.3508 11.8801L43.0267 11.8684L42.7026 11.8568L42.3784 11.8452L42.0543 11.8336L41.7302 11.822L41.4061 11.8104L41.082 11.7988L40.7578 11.7871L40.4337 11.7755L40.1096 11.7639L39.7855 11.7523L39.4614 11.7407L39.1372 11.7291L38.8131 11.7175L38.4418 11.7125L38.0705 11.7075L37.6991 11.7025L37.3278 11.6976L36.9565 11.6926L36.5852 11.6876L36.2139 11.6827L35.8425 11.6777L35.4712 11.6727L35.0999 11.6677L34.7286 11.6628L34.3572 11.6578L33.9859 11.6528L33.6146 11.6479L33.2433 11.6429L32.8719 11.6379L32.5006 11.633L32.1293 11.628L31.758 11.623L31.3867 11.618L31.0153 11.6131L30.644 11.6081L30.2727 11.6031L29.9014 11.5982L29.53 11.5932L29.1587 11.5882L28.7874 11.5832L28.4161 11.5783L28.0447 11.5733L27.6734 11.5683L27.3021 11.5634L26.9537 11.5609L26.6054 11.5584L26.2341 11.5534L25.8627 11.5485L25.5144 11.546L25.166 11.5435L24.7947 11.5385L24.4234 11.5336L24.075 11.5311L23.7267 11.5286L23.3554 11.5236L22.984 11.5187L22.6357 11.5162L22.2873 11.5137L21.916 11.5087L21.5447 11.5038L21.1963 11.5013L20.848 11.4988L20.4767 11.4938L20.1053 11.4888L19.757 11.4864L19.4086 11.4839L19.0603 11.4814L18.689 11.4764L18.3406 11.474L17.9923 11.4715L17.6439 11.469L17.2955 11.4665L16.9472 11.464L16.5988 11.4616L16.2505 11.4591L15.9021 11.4566L15.5538 11.4541L15.2054 11.4516L14.8558 11.4608L14.5062 11.4699L14.1579 11.4674L13.8082 11.4766L13.4586 11.4857L13.109 11.4949L12.7594 11.504L12.4098 11.5132L12.0602 11.5223L11.7106 11.5314L11.361 11.5406L11.0114 11.5497L10.6617 11.5589L10.3121 11.568L9.96251 11.5772L9.6129 11.5863L9.26329 11.5954L8.91368 11.6046L8.56407 11.6137L8.21445 11.6229L7.86484 11.632L7.51523 11.6412L7.16562 11.6503L6.83772 11.6736L6.48684 11.6943L6.15894 11.7176L5.83104 11.7409L5.50314 11.7641L5.17524 11.7874L4.84734 11.8106L4.49647 11.8314C2.95137 11.9344 1.3645 11.3507 0.918064 10.5379C0.472888 9.71344 1.36636 8.97528 2.88848 8.86979L3.23935 8.84902L3.59023 8.82825L4.45151 8.81577L4.80238 8.795L5.17623 8.77673L5.5271 8.75596L5.87797 8.73519L6.25182 8.71691L6.62566 8.69864L6.9995 8.68036L7.37335 8.66208L7.72296 8.65294L8.0968 8.63466L8.47065 8.61638L8.84323 8.60973L9.21581 8.60308L9.54245 8.59144L9.91504 8.58479L10.2876 8.57814L10.6602 8.57148L11.0328 8.56483L11.4054 8.55817L11.778 8.55152L12.1505 8.54487L12.5231 8.53821L12.8727 8.52907L13.1994 8.51744L13.572 8.51078L13.9445 8.50413L14.2942 8.49499L14.6438 8.48584L15.0163 8.47919L15.4094 8.49828L15.7577 8.50076L16.1061 8.50324L16.4774 8.50821L16.8487 8.51318L17.1971 8.51566L17.5454 8.51814L17.9652 8.50484L18.3365 8.50981L18.7079 8.51478L19.0792 8.51975L19.4505 8.52472L19.8218 8.5297L20.1932 8.53467L20.5185 8.53466L20.8911 8.528L21.2625 8.53297L21.6338 8.53795L22.0051 8.54292L22.3764 8.54789L22.7477 8.55286L23.0719 8.56447L23.4432 8.56944L23.8145 8.57441L24.1858 8.57938L24.5572 8.58435L24.9285 8.58933L25.2998 8.5943L25.6711 8.59927L26.0425 8.60424L26.4138 8.60921L26.7851 8.61418L27.1564 8.61915L27.5278 8.62412L27.8991 8.62909L28.2704 8.63406L28.6417 8.63903L29.013 8.644L29.3844 8.64897L29.7557 8.65395L30.127 8.65892L30.4983 8.66389L30.8697 8.66886L31.241 8.67383L31.6123 8.6788L31.9836 8.68377L32.355 8.68874L32.7033 8.69122L33.0517 8.6937L33.423 8.69867L33.7943 8.70364L34.1656 8.70861L34.537 8.71358L34.9083 8.71856L35.2796 8.72353L35.628 8.72601L35.9763 8.72849L36.3476 8.73346L36.719 8.73843L37.0903 8.7434L37.4616 8.74837L37.8329 8.75334L38.2042 8.75831L38.5526 8.76079L38.8537 8.76992L39.1779 8.78153L39.502 8.79315L39.8261 8.80476L40.1502 8.81637L40.4744 8.82799L40.7985 8.8396L41.1226 8.85122L41.4467 8.86283L41.7708 8.87445L42.095 8.88606L42.4191 8.89768L42.7432 8.90929L43.0673 8.9209L43.3914 8.93252L43.7156 8.94413L44.0397 8.95575L44.3638 8.96736L44.6879 8.97898L45.012 8.99059L45.3362 9.00221L45.6603 9.01382L45.9844 9.02544L46.3085 9.03705L46.6326 9.04866L46.9568 9.06028L47.2809 9.07189L47.605 9.08351L47.9291 9.09512L48.2532 9.10674L48.5774 9.11835L48.9015 9.12997L49.2256 9.14158L49.5497 9.15319L49.8738 9.16481L50.198 9.17642L50.5221 9.18804L50.8462 9.19965L51.1703 9.21127L51.4944 9.22288L51.8186 9.2345L52.1427 9.24611L52.4668 9.25773L52.7909 9.26934L53.1151 9.28095L53.4392 9.29257L53.7633 9.30418L54.0874 9.3158L54.4115 9.32741L54.7357 9.33903L55.0598 9.35064L55.3839 9.36226L55.708 9.37387L56.0321 9.38548L56.3563 9.3971L56.6804 9.40871L57.0045 9.42033L57.3286 9.43194L57.6527 9.44356L57.9769 9.45517L58.301 9.46679L58.6251 9.4784L58.9492 9.49001L59.2733 9.50163L59.5975 9.51324L59.9216 9.52486L60.2457 9.53647L60.5698 9.54809L60.1702 9.3754L60.4943 9.38701L60.8184 9.39863L61.1426 9.41024L61.4667 9.42186L61.7908 9.43347L62.1149 9.44508L62.439 9.4567L62.7632 9.46831L63.0873 9.47993L63.4114 9.49154L63.7355 9.50316L64.0596 9.51477L64.3838 9.52639L64.7079 9.538L65.032 9.54962L65.3561 9.56123L65.6802 9.57284L66.0044 9.58446L66.3285 9.59607L66.6526 9.60769L66.9767 9.6193L67.3008 9.63092L67.625 9.64253L67.9491 9.65415L68.2732 9.66576L68.5973 9.67737L68.9214 9.68899L69.2456 9.7006L69.5697 9.71222L69.8938 9.72383L70.2179 9.73545L70.542 9.74706L70.8662 9.75868L71.1903 9.77029L71.5144 9.7819L71.8385 9.79352L72.1626 9.80513L72.4868 9.81675L72.8109 9.82836L73.135 9.83998L73.4591 9.85159L73.7832 9.86321L74.1074 9.87482L74.4315 9.88644L74.7556 9.89805L75.0797 9.90966L75.4039 9.92128L75.728 9.93289L76.0521 9.94451L76.3762 9.95612L76.7003 9.96774L77.0245 9.97935L77.3486 9.99097L77.6727 10.0026L77.9968 10.0142L78.3209 10.0258L78.6451 10.0374L78.9692 10.049L79.2933 10.0607L79.6174 10.0723L79.9415 10.0839L80.2657 10.0955L80.5898 10.1071L80.9139 10.1187L81.238 10.1303L81.1232 10.1179L81.4473 10.1295L81.7714 10.1411L82.0955 10.1527L82.4196 10.1643L82.7438 10.176L83.0424 10.2083L83.3665 10.2199L83.6906 10.2316L84.0135 10.2548L84.3376 10.2664L84.6617 10.278L84.9859 10.2896L85.31 10.3013L85.6341 10.3129L85.9582 10.3245L86.2823 10.3361L86.5555 10.3892L86.8796 10.4008L87.2025 10.4241L87.5253 10.4473L87.8482 10.4706L88.1736 10.4706L88.4964 10.4938L88.8193 10.517L89.1434 10.5286L89.4663 10.5519L89.7891 10.5751L90.112 10.5984L90.4348 10.6216L90.7577 10.6448L91.0806 10.6681L91.4034 10.6913L91.6841 10.6747L92.007 10.6979L92.3311 10.7096L92.654 10.7328L92.9768 10.756L93.2997 10.7793L93.6225 10.8025L93.9479 10.8025L94.2708 10.8257L94.5936 10.849L94.9165 10.8722L95.2394 10.8955L95.5635 10.9071L95.8863 10.9303L96.2092 10.9535L96.5321 10.9768L96.8549 11L97.1791 11.0116L97.5019 11.0349L97.8248 11.0581L98.1476 11.0814L98.4705 11.1046L98.7934 11.1278L99.1162 11.1511L99.4174 11.1602C101.01 11.2623 102.346 12.0186 102.374 12.8331C102.424 13.6502 101.153 14.2297 99.5618 14.116L99.5158 14.111C99.5913 14.2721 99.6439 14.4307 99.6262 14.5934C99.6237 14.6167 99.6199 14.6516 99.6174 14.6748L99.7093 14.6848L100.008 14.7171L100.307 14.7495L100.605 14.7819L100.904 14.8143L101.202 14.8466L101.501 14.879L101.8 14.9114L102.098 14.9438L102.397 14.9761L102.696 15.0085C104.281 15.1803 105.519 15.9732 105.455 16.7778C105.368 17.5798 104.01 18.103 102.424 17.9428L102.125 17.9104L101.827 17.878L101.528 17.8456L101.252 17.8158L100.977 17.7859L100.678 17.7535L100.38 17.7211L100.104 17.6913L99.8282 17.6614L99.5296 17.629L99.2309 17.5966L98.9553 17.5667L98.6796 17.5369L98.3797 17.5161L98.0798 17.4954L97.8029 17.4771L97.526 17.4588L97.2261 17.4381L96.9262 17.4173L96.6493 17.3991L96.3724 17.3808L96.0725 17.3601L95.7726 17.3393L95.4957 17.3211L95.2188 17.3028L94.9189 17.2821L94.619 17.2613L94.3421 17.2431L94.0652 17.2248L93.7653 17.2041L93.4654 17.1833L93.1885 17.1651L92.9116 17.1468L92.6117 17.126L92.3118 17.1053L92.0349 17.087L91.7579 17.0688L91.4581 17.048L91.1582 17.0273L90.8813 17.009L90.6043 16.9908L90.3044 16.97L90.0046 16.9493L89.7276 16.931L89.4507 16.9128L89.1496 16.9036L88.8484 16.8945L88.5715 16.8762L88.2933 16.8696L87.9922 16.8605L87.691 16.8514L87.4129 16.8447L87.1347 16.8381L86.8335 16.829L86.5324 16.8198L86.2542 16.8132L85.976 16.8066L85.6749 16.7975L85.3737 16.7883L85.0955 16.7817L84.8174 16.7751L84.5162 16.7659L84.2151 16.7568L83.9369 16.7502L83.6587 16.7435L83.3576 16.7344L83.0564 16.7253L82.7782 16.7187L82.5001 16.712L82.1989 16.7029L81.8978 16.6938L81.6196 16.6871L81.3414 16.6805L81.0403 16.6714L80.7391 16.6623L80.4609 16.6556L80.1828 16.649L79.8816 16.6399L79.5805 16.6307L79.3023 16.6241L79.0241 16.6175L78.723 16.6084L78.4218 16.5992L78.1436 16.5926L77.8654 16.586L77.5643 16.5768L77.2631 16.5677L76.985 16.5611L76.7068 16.5544L76.4044 16.5569L76.102 16.5594L75.8238 16.5528L75.5444 16.5578L75.242 16.5603L74.9395 16.5628L74.6601 16.5678L74.3807 16.5728L74.0783 16.5753L73.7758 16.5778L73.4734 16.5803L73.171 16.5828L72.8686 16.5853L72.5662 16.5878L72.2868 16.5928L72.0073 16.5978L71.7049 16.6003L71.4025 16.6028L71.1001 16.6053L70.7977 16.6078L70.4953 16.6103L70.1929 16.6128L69.9134 16.6177L69.634 16.6227L69.3316 16.6252L69.0292 16.6277L68.7268 16.6302L68.4244 16.6327L68.122 16.6352L67.8195 16.6377L67.5401 16.6427L67.2607 16.6477L66.9583 16.6502L66.6559 16.6527L66.3534 16.6552L66.051 16.6577L65.7486 16.6602L65.4462 16.6627L65.1668 16.6677L64.8873 16.6727L64.5849 16.6752L64.2825 16.6777L63.9801 16.6802L63.6777 16.6827L63.3753 16.6852L63.0729 16.6877L62.7935 16.6927L62.514 16.6977L62.2116 16.7002L61.9092 16.7027L61.6068 16.7052L61.3044 16.7077L61.002 16.7102L60.6996 16.7127L60.4201 16.7177L60.3078 16.682L60.0054 16.6845L59.703 16.687L59.4006 16.6895L59.0982 16.692L58.7957 16.6945L58.4933 16.697L58.2139 16.702L57.9345 16.7069L57.655 16.7119L57.3756 16.7169L57.0961 16.7219L56.8167 16.7269L56.5373 16.7319L56.2578 16.7369L55.9784 16.7419L55.699 16.7469L55.4195 16.7519L55.1401 16.7568L54.8606 16.7618L54.5812 16.7668L54.3018 16.7718L54.0223 16.7768L53.7429 16.7818L53.4635 16.7868L53.184 16.7918L52.9046 16.7968L52.6251 16.8018L52.3457 16.8067L52.0663 16.8117L51.7868 16.8167L51.5074 16.8217L51.228 16.8267L50.9485 16.8317L50.6691 16.8367L50.3896 16.8417L50.1102 16.8467L49.8308 16.8517L49.5513 16.8566L49.2719 16.8616L48.9925 16.8666L48.713 16.8716L48.4336 16.8766L48.1541 16.8816L47.8747 16.8866L47.5953 16.8916L47.3158 16.8966L47.0134 16.8991L46.6638 16.9082L46.3155 16.9057L45.9671 16.9032L45.6187 16.9008L45.2704 16.8983L44.922 16.8958L44.5737 16.8933L44.2241 16.9025L43.8528 16.8975L43.5044 16.895L43.1561 16.8925L42.8077 16.8901L42.4594 16.8876L42.111 16.8851L41.7626 16.8826L41.4143 16.8801L41.0659 16.8777L40.7176 16.8752L40.3692 16.8727L40.0209 16.8702L39.6725 16.8677L39.3242 16.8653L38.9758 16.8628L38.6275 16.8603L38.2791 16.8578L37.9308 16.8553L37.5824 16.8529L37.2341 16.8504L36.8857 16.8479L36.5374 16.8454L36.189 16.8429L35.8407 16.8404L35.4923 16.838L35.144 16.8355L34.7956 16.833L34.4473 16.8305L34.0989 16.828L33.7506 16.8256L33.4022 16.8231L33.0538 16.8206L32.7055 16.8181L32.3559 16.8273L32.0063 16.8364L31.6579 16.8339L31.3083 16.8431L30.9587 16.8522L30.6091 16.8614L30.2595 16.8705L29.9099 16.8796L29.5602 16.8888L29.2106 16.8979L28.884 16.9096L28.5574 16.9212L28.2077 16.9303L27.8581 16.9395L27.5315 16.9511L27.2048 16.9628L26.8552 16.9719L26.5056 16.981L26.179 16.9927L25.8523 17.0043L25.5027 17.0135L25.1531 17.0226L24.8265 17.0342L24.4998 17.0459L24.1502 17.055L23.8006 17.0642L23.474 17.0758L23.1473 17.0874L22.7965 17.1082L22.4468 17.1173L22.1202 17.129L21.7936 17.1406L21.4669 17.1522L21.139 17.1755L20.8111 17.1987L20.4832 17.222L20.1553 17.2453L19.8274 17.2685L19.4995 17.2918L19.1716 17.315L18.8437 17.3383L18.5158 17.3616L18.1879 17.3848L17.86 17.4081L17.5321 17.4313L17.2042 17.4546L16.8763 17.4778L16.5484 17.5011L16.2205 17.5244L15.8913 17.5592L15.5634 17.5825L15.2343 17.6174L14.9051 17.6523L14.576 17.6871L14.2468 17.722C12.4773 17.9654 10.8152 17.4324 10.2757 16.6212Z" fill="#FF7D05"/>
</svg>
