<svg width="59" height="59" viewBox="0 0 59 59" fill="none" xmlns="http://www.w3.org/2000/svg">
<g opacity="0.5">
<path opacity="0.7" d="M-8 71.7973L54.154 11.0356L66.7919 10.9999L-8 85.4347V71.7973Z" fill="url(#paint0_linear_2_1100)"/>
<path d="M60.78 29C61.3452 29 61.9166 29.2298 62.3481 29.6829C63.2173 30.5956 63.2173 32.07 62.3481 32.9763L46.7882 49.3155C45.919 50.2282 44.515 50.2282 43.6519 49.3155C42.7827 48.4028 42.7827 46.9284 43.6519 46.0221L59.2057 29.6893C59.6434 29.2298 60.2086 29 60.78 29Z" fill="url(#paint1_linear_2_1100)"/>
<path d="M74.6927 -0.610962C75.7994 -0.610962 76.918 -0.18256 77.7629 0.662344C79.4647 2.36405 79.4647 5.11297 77.7629 6.80277L47.3107 37.255C45.609 38.9567 42.8601 38.9567 41.1703 37.255C39.4686 35.5533 39.4686 32.8044 41.1703 31.1146L71.6225 0.662344C72.4674 -0.18256 73.5741 -0.610962 74.6927 -0.610962Z" fill="url(#paint2_linear_2_1100)"/>
</g>
<defs>
<linearGradient id="paint0_linear_2_1100" x1="27.4336" y1="45.5384" x2="18.6947" y2="33.5951" gradientUnits="userSpaceOnUse">
<stop offset="0.1905" stop-color="#725EFE" stop-opacity="0"/>
<stop offset="0.669" stop-color="#725EFE" stop-opacity="0.4"/>
<stop offset="0.6946" stop-color="#725EFE" stop-opacity="0.5"/>
<stop offset="0.7703" stop-color="#725EFE" stop-opacity="0.7"/>
<stop offset="0.8603" stop-color="#725EFE" stop-opacity="0.7"/>
<stop offset="1" stop-color="#725EFE"/>
</linearGradient>
<linearGradient id="paint1_linear_2_1100" x1="65.3939" y1="25.635" x2="42.7022" y2="48.6537" gradientUnits="userSpaceOnUse">
<stop stop-color="#725EFE"/>
<stop offset="1" stop-color="white" stop-opacity="0"/>
</linearGradient>
<linearGradient id="paint2_linear_2_1100" x1="83.7283" y1="-6.88896" x2="41.5" y2="38.0933" gradientUnits="userSpaceOnUse">
<stop stop-color="#725EFE"/>
<stop offset="1" stop-color="white" stop-opacity="0"/>
</linearGradient>
</defs>
</svg>
