<svg width="20" height="21" viewBox="0 0 20 21" fill="none" xmlns="http://www.w3.org/2000/svg">
<path d="M9.64473 9.65941C9.1089 9.65941 8.70703 9.20801 8.70703 8.68717V1.81208C8.70703 1.25652 9.14239 0.839844 9.64473 0.839844C10.1806 0.839844 10.5824 1.29124 10.5824 1.81208V8.68717C10.6159 9.20801 10.1806 9.65941 9.64473 9.65941Z" fill="#E79E2C"/>
<path d="M9.64473 20.8401C9.1089 20.8401 8.70703 20.3887 8.70703 19.8678V12.9927C8.70703 12.4372 9.14239 12.0205 9.64473 12.0205C10.1806 12.0205 10.5824 12.4719 10.5824 12.9927V19.8678C10.6159 20.3887 10.1806 20.8401 9.64473 20.8401Z" fill="#E79E2C"/>
<path d="M10.7837 10.8403C10.7837 10.2846 11.2191 9.8678 11.7214 9.8678H18.3523C18.8881 9.8678 19.29 10.3193 19.29 10.8403C19.29 11.396 18.8546 11.8128 18.3523 11.8128H11.7214C11.2191 11.8128 10.7837 11.3613 10.7837 10.8403Z" fill="#E79E2C"/>
<path d="M0 10.8403C0 10.2846 0.435362 9.8678 0.937702 9.8678H7.56859C8.10442 9.8678 8.5063 10.3193 8.5063 10.8403C8.5063 11.396 8.07094 11.8128 7.56859 11.8128H0.937702C0.435362 11.8128 0 11.3613 0 10.8403Z" fill="#E79E2C"/>
</svg>
