<svg width="24" height="18" viewBox="0 0 24 18" fill="none" xmlns="http://www.w3.org/2000/svg">
<path d="M11.41 0.789999C10.99 2.42333 10.4533 4.19666 9.8 6.11C9.14667 8.02333 8.42333 9.93667 7.63 11.85C6.88333 13.7167 6.13667 15.49 5.39 17.17H0.84C1.16667 15.8633 1.49333 14.4633 1.82 12.97C2.19333 11.4767 2.52 9.98333 2.8 8.49C3.12667 6.95 3.40667 5.45666 3.64 4.01C3.92 2.56333 4.15333 1.23333 4.34 0.0199968H10.92L11.41 0.789999ZM23.6463 0.789999C23.2263 2.42333 22.6897 4.19666 22.0363 6.11C21.383 8.02333 20.6597 9.93667 19.8663 11.85C19.1197 13.7167 18.373 15.49 17.6263 17.17H13.0763C13.403 15.8633 13.7297 14.4633 14.0563 12.97C14.4297 11.4767 14.7563 9.98333 15.0363 8.49C15.363 6.95 15.643 5.45666 15.8763 4.01C16.1563 2.56333 16.3897 1.23333 16.5763 0.0199968H23.1563L23.6463 0.789999Z" fill="#C5D8F0"/>
</svg>
