<svg width="275" height="164" viewBox="0 0 275 164" fill="none" xmlns="http://www.w3.org/2000/svg">
<path fill-rule="evenodd" clip-rule="evenodd" d="M155.501 164C241.387 164 311.001 94.5379 311.001 8.83905C311.001 5.86955 310.914 2.93477 310.74 0H0.261662C0.0876277 2.91741 0.000610352 5.86955 0.000610352 8.83905C0.000610352 94.5379 69.6145 164 155.501 164Z" fill="#78DBAF"/>
<path fill-rule="evenodd" clip-rule="evenodd" d="M330.044 0C331.975 8.53608 333.001 17.4199 333.001 26.5297C333.001 59.5266 319.627 89.3768 297.993 111.004C276.377 132.613 246.499 146 213.492 146C180.484 146 150.625 132.631 128.991 111.004C107.374 89.3941 94.0006 59.5266 94.0006 26.5297C94.0006 17.4025 95.0267 8.53608 96.957 0H99.0613C97.0962 8.51869 96.0527 17.4025 96.0527 26.5297C96.0527 58.9529 109.2 88.2989 130.451 109.543C151.703 130.788 181.058 143.931 213.492 143.931C245.926 143.931 275.281 130.788 296.532 109.543C317.784 88.2989 330.931 58.9529 330.931 26.5297C330.931 17.4025 329.888 8.51869 327.923 0L330.044 0ZM213.492 19.7668C211.631 19.7668 209.927 20.5318 208.709 21.7488C207.492 22.9657 206.727 24.6694 206.727 26.5297C206.727 28.3899 207.492 30.0936 208.709 31.3106C209.927 32.5275 211.631 33.2925 213.492 33.2925C215.353 33.2925 217.057 32.5275 218.274 31.3106C219.492 30.0936 220.257 28.3899 220.257 26.5297C220.257 24.6694 219.492 22.9657 218.274 21.7488C217.057 20.5318 215.37 19.7668 213.492 19.7668ZM216.831 23.2091C215.979 22.3572 214.796 21.8357 213.492 21.8357C212.188 21.8357 211.005 22.3572 210.153 23.2091C209.301 24.061 208.779 25.2432 208.779 26.547C208.779 27.8509 209.301 29.0331 210.153 29.885C211.005 30.7368 212.188 31.2584 213.492 31.2584C214.796 31.2584 215.979 30.7368 216.831 29.885C217.683 29.0331 218.205 27.8509 218.205 26.547C218.205 25.2258 217.683 24.061 216.831 23.2091ZM213.492 7.09312C208.118 7.09312 203.266 9.26625 199.736 12.778C196.223 16.2898 194.049 21.1577 194.049 26.5297C194.049 31.9016 196.223 36.7521 199.736 40.2813C203.249 43.793 208.118 45.9662 213.492 45.9662C218.866 45.9662 223.718 43.793 227.248 40.2813C230.761 36.7695 232.935 31.9016 232.935 26.5297C232.935 21.1577 230.761 16.3072 227.248 12.778C223.735 9.26625 218.866 7.09312 213.492 7.09312ZM225.805 14.2384C222.657 11.0917 218.309 9.14456 213.509 9.14456C208.709 9.14456 204.362 11.0917 201.214 14.2384C198.066 17.3851 196.119 21.7314 196.119 26.5297C196.119 31.3279 198.066 35.6742 201.214 38.8209C204.362 41.9676 208.709 43.9147 213.509 43.9147C218.309 43.9147 222.657 41.9676 225.805 38.8209C228.952 35.6742 230.9 31.3279 230.9 26.5297C230.9 21.7314 228.935 17.3851 225.805 14.2384ZM237.995 0H234.848C235.804 0.764944 236.708 1.58204 237.578 2.4513C243.734 8.60562 247.56 17.1243 247.56 26.5297C247.56 35.935 243.752 44.4537 237.578 50.608C231.422 56.7623 222.9 60.587 213.492 60.587C204.084 60.587 195.562 56.7797 189.406 50.608C183.25 44.4537 179.424 35.935 179.424 26.5297C179.424 17.1243 183.232 8.60562 189.406 2.4513C190.275 1.58204 191.18 0.764944 192.136 0H188.988C188.641 0.330317 188.293 0.660634 187.945 1.00834C181.406 7.54513 177.371 16.568 177.371 26.547C177.371 36.5261 181.406 45.5489 187.945 52.0857C194.484 58.6225 203.51 62.6559 213.492 62.6559C223.474 62.6559 232.5 58.6225 239.039 52.0857C245.578 45.5489 249.612 36.5261 249.612 26.547C249.612 16.568 245.578 7.54513 239.039 1.00834C238.691 0.660634 238.343 0.330317 237.995 0ZM259.142 0H256.76C261.508 7.71898 264.255 16.8114 264.255 26.5297C264.255 40.542 258.569 53.2158 249.386 62.3951C240.204 71.5744 227.526 77.2593 213.509 77.2593C199.492 77.2593 186.815 71.5744 177.632 62.3951C168.45 53.2158 162.763 40.542 162.763 26.5297C162.763 16.794 165.511 7.71898 170.259 0H167.859C163.32 7.78852 160.711 16.8635 160.711 26.5297C160.711 41.0984 166.624 54.2936 176.172 63.8554C185.719 73.3999 198.919 79.3108 213.509 79.3108C228.083 79.3108 241.282 73.3999 250.847 63.8554C260.395 54.311 266.307 41.1157 266.307 26.5297C266.29 16.8635 263.699 7.78852 259.142 0ZM277.716 0H275.49C278.985 8.13622 280.916 17.1069 280.916 26.5297C280.916 45.1491 273.368 61.9952 261.177 74.1822C248.969 86.3865 232.117 93.9143 213.509 93.9143C194.884 93.9143 178.032 86.3691 165.841 74.1822C153.633 61.9952 146.086 45.1491 146.086 26.5297C146.086 17.1069 148.016 8.13622 151.512 0H149.286C145.894 8.17099 144.034 17.1417 144.034 26.5297C144.034 45.7054 151.807 63.0731 164.381 75.6425C176.954 88.212 194.327 95.9831 213.509 95.9831C232.691 95.9831 250.065 88.212 262.638 75.6425C275.211 63.0731 282.985 45.7054 282.985 26.5297C282.968 17.1417 281.107 8.17099 277.716 0ZM295.489 0H293.333C296.098 8.34484 297.611 17.2634 297.611 26.5297C297.611 49.7388 288.202 70.7573 272.985 85.9693C257.769 101.181 236.743 110.587 213.527 110.587C190.31 110.587 169.285 101.181 154.068 85.9693C138.851 70.7573 129.443 49.7388 129.443 26.5297C129.443 17.2634 130.938 8.34484 133.721 0H131.564C128.852 8.36223 127.391 17.2808 127.391 26.5297C127.391 50.3125 137.025 71.8352 152.625 87.4296C168.207 103.007 189.754 112.655 213.544 112.655C237.335 112.655 258.864 103.024 274.464 87.4296C290.046 71.8526 299.697 50.3125 299.697 26.5297C299.645 17.2808 298.184 8.36223 295.489 0ZM312.862 0H310.741C313.036 8.44915 314.271 17.3503 314.271 26.5297C314.271 54.3458 302.984 79.5368 284.759 97.7564C266.516 115.993 241.334 127.259 213.509 127.259C185.684 127.259 160.485 115.976 142.26 97.7564C124 79.5368 112.73 54.3458 112.73 26.5297C112.73 17.3503 113.965 8.44915 116.261 0H114.139C111.878 8.46654 110.678 17.3503 110.678 26.5297C110.678 54.9195 122.191 80.6147 140.799 99.2167C159.407 117.819 185.11 129.328 213.509 129.328C241.908 129.328 267.612 117.819 286.22 99.2167C304.828 80.6147 316.34 54.9195 316.34 26.5297C316.323 17.3503 315.123 8.46654 312.862 0Z" fill="#1A1A1A"/>
</svg>
