<svg width="59" height="56" viewBox="0 0 59 56" fill="none" xmlns="http://www.w3.org/2000/svg">
<path fill-rule="evenodd" clip-rule="evenodd" d="M54.7959 29.1981C57.5802 25.0969 50.0424 12.1202 46.2132 9.25677C38.4629 3.45007 25.012 0.683612 16.28 6.17089C7.90402 11.4357 3.05868 19.872 2.67404 29.6316C2.40421 36.4479 3.86241 46.236 9.93056 50.4855C14.552 53.7254 26.9581 54.6095 32.6244 53.6456C55.9498 49.687 55.8005 16.8774 41.3162 13.3694C37.4124 12.4225 28.9732 10.312 25.5574 10.8767C19.9255 11.8008 14.397 16.3982 12.3762 21.6516C9.16702 29.9738 10.3669 43.6749 21.045 45.9793C24.4149 46.7094 32.877 47.2742 35.6384 44.713C40.8512 39.8817 43.4461 23.2545 36.3445 20.1515C33.3995 18.8681 27.05 18.5087 24.5642 20.7618C19.9198 24.9714 20.5168 34.3659 29.8171 34.4287C32.1422 34.4458 31.7805 31.879 30.397 30.3047L28.9388 28.9813C28.1121 28.3539 27.9571 27.1845 28.5886 26.3632C29.2201 25.5418 30.397 25.3878 31.2236 26.0152L33.2272 27.8804C36.9875 32.3011 35.0069 38.142 29.754 38.0393C17.1871 37.7883 15.3041 24.4751 22.308 18.292C25.9076 15.1091 33.3995 15.343 37.642 17.2595C47.5508 21.7429 44.0718 42.8706 36.2584 47.6848C32.7909 49.8239 24.3173 49.339 20.4939 48.4435C5.5445 44.964 5.83729 22.2563 15.0744 14.436C22.4458 8.19582 27.0557 8.4525 35.9599 10.9052C41.3793 12.3997 45.5243 12.3255 48.6359 17.7957C54.882 28.776 52.4076 46.9775 39.9269 53.1151C31.9585 57.0395 18.9725 56.76 10.895 53.4858C0.509709 49.2706 -1.27572 32.6946 0.716382 23.1404C2.46162 14.7783 9.13257 6.19371 16.745 2.39482C26.1889 -2.32241 39.9326 0.415523 48.1307 6.37624C53.596 10.3519 62.2304 24.7432 57.7582 31.5082C57.1152 32.3182 55.9383 32.4608 55.1174 31.8276C54.2964 31.1945 54.1586 30.0137 54.7959 29.1981Z" fill="#FF6464"/>
</svg>
