<svg width="239" height="146" viewBox="0 0 239 146" fill="none" xmlns="http://www.w3.org/2000/svg">
<path fill-rule="evenodd" clip-rule="evenodd" d="M236.044 0C237.974 8.53608 239 17.4199 239 26.5297C239 59.5266 225.627 89.3768 203.993 111.004C182.376 132.613 152.499 146 119.491 146C86.4838 146 56.624 132.631 34.99 111.004C13.3734 89.3941 0 59.5266 0 26.5297C0 17.4025 1.02605 8.53608 2.95641 0H5.06069C3.09555 8.51869 2.05211 17.4025 2.05211 26.5297C2.05211 58.9529 15.1995 88.2989 36.4509 109.543C57.7023 130.788 87.0577 143.931 119.491 143.931C151.925 143.931 181.28 130.788 202.532 109.543C223.783 88.2989 236.931 58.9529 236.931 26.5297C236.931 17.4025 235.887 8.51869 233.922 0L236.044 0ZM119.491 19.7668C117.631 19.7668 115.926 20.5318 114.709 21.7488C113.492 22.9657 112.726 24.6694 112.726 26.5297C112.726 28.3899 113.492 30.0936 114.709 31.3106C115.926 32.5275 117.631 33.2925 119.491 33.2925C121.352 33.2925 123.056 32.5275 124.274 31.3106C125.491 30.0936 126.256 28.3899 126.256 26.5297C126.256 24.6694 125.491 22.9657 124.274 21.7488C123.056 20.5318 121.369 19.7668 119.491 19.7668ZM122.83 23.2091C121.978 22.3572 120.796 21.8357 119.491 21.8357C118.187 21.8357 117.004 22.3572 116.152 23.2091C115.3 24.061 114.778 25.2432 114.778 26.547C114.778 27.8509 115.3 29.0331 116.152 29.885C117.004 30.7368 118.187 31.2584 119.491 31.2584C120.796 31.2584 121.978 30.7368 122.83 29.885C123.682 29.0331 124.204 27.8509 124.204 26.547C124.204 25.2258 123.682 24.061 122.83 23.2091ZM119.491 7.09312C114.118 7.09312 109.266 9.26625 105.735 12.778C102.222 16.2898 100.049 21.1577 100.049 26.5297C100.049 31.9016 102.222 36.7521 105.735 40.2813C109.248 43.793 114.118 45.9662 119.491 45.9662C124.865 45.9662 129.717 43.793 133.247 40.2813C136.76 36.7695 138.934 31.9016 138.934 26.5297C138.934 21.1577 136.76 16.3072 133.247 12.778C129.734 9.26625 124.865 7.09312 119.491 7.09312ZM131.804 14.2384C128.656 11.0917 124.309 9.14456 119.509 9.14456C114.709 9.14456 110.361 11.0917 107.213 14.2384C104.066 17.3851 102.118 21.7314 102.118 26.5297C102.118 31.3279 104.066 35.6742 107.213 38.8209C110.361 41.9676 114.709 43.9147 119.509 43.9147C124.309 43.9147 128.656 41.9676 131.804 38.8209C134.952 35.6742 136.899 31.3279 136.899 26.5297C136.899 21.7314 134.934 17.3851 131.804 14.2384ZM143.995 0H140.847C141.804 0.764944 142.708 1.58204 143.577 2.4513C149.734 8.60562 153.56 17.1243 153.56 26.5297C153.56 35.935 149.751 44.4537 143.577 50.608C137.421 56.7623 128.9 60.587 119.491 60.587C110.083 60.587 101.562 56.7797 95.4052 50.608C89.2489 44.4537 85.423 35.935 85.423 26.5297C85.423 17.1243 89.2315 8.60562 95.4052 2.4513C96.2748 1.58204 97.1791 0.764944 98.1356 0H94.9879C94.64 0.330317 94.2922 0.660634 93.9444 1.00834C87.4055 7.54513 83.3709 16.568 83.3709 26.547C83.3709 36.5261 87.4055 45.5489 93.9444 52.0857C100.483 58.6225 109.509 62.6559 119.491 62.6559C129.474 62.6559 138.499 58.6225 145.038 52.0857C151.577 45.5489 155.612 36.5261 155.612 26.547C155.612 16.568 151.577 7.54513 145.038 1.00834C144.69 0.660634 144.343 0.330317 143.995 0ZM165.142 0H162.759C167.507 7.71898 170.255 16.8114 170.255 26.5297C170.255 40.542 164.568 53.2158 155.386 62.3951C146.203 71.5744 133.526 77.2593 119.509 77.2593C105.492 77.2593 92.814 71.5744 83.6317 62.3951C74.4495 53.2158 68.7627 40.542 68.7627 26.5297C68.7627 16.794 71.5104 7.71898 76.2581 0H73.8582C69.3192 7.78852 66.7106 16.8635 66.7106 26.5297C66.7106 41.0984 72.6234 54.2936 82.1709 63.8554C91.7184 73.3999 104.918 79.3108 119.509 79.3108C134.082 79.3108 147.282 73.3999 156.846 63.8554C166.394 54.311 172.307 41.1157 172.307 26.5297C172.289 16.8635 169.698 7.78852 165.142 0ZM183.715 0H181.489C184.985 8.13622 186.915 17.1069 186.915 26.5297C186.915 45.1491 179.367 61.9952 167.177 74.1822C154.968 86.3865 138.117 93.9143 119.509 93.9143C100.883 93.9143 84.0317 86.3691 71.8409 74.1822C59.6326 61.9952 52.0851 45.1491 52.0851 26.5297C52.0851 17.1069 54.0154 8.13622 57.511 0H55.285C51.8938 8.17099 50.033 17.1417 50.033 26.5297C50.033 45.7054 57.8066 63.0731 70.3801 75.6425C82.9535 88.212 100.327 95.9831 119.509 95.9831C138.691 95.9831 156.064 88.212 168.637 75.6425C181.211 63.0731 188.984 45.7054 188.984 26.5297C188.967 17.1417 187.106 8.17099 183.715 0ZM201.488 0H199.332C202.097 8.34484 203.61 17.2634 203.61 26.5297C203.61 49.7388 194.202 70.7573 178.985 85.9693C163.768 101.181 142.743 110.587 119.526 110.587C96.3095 110.587 75.2842 101.181 60.0674 85.9693C44.8505 70.7573 35.4422 49.7388 35.4422 26.5297C35.4422 17.2634 36.9378 8.34484 39.7203 0H37.5639C34.8509 8.36223 33.3901 17.2808 33.3901 26.5297C33.3901 50.3125 43.0245 71.8352 58.624 87.4296C74.206 103.007 95.753 112.655 119.543 112.655C143.334 112.655 164.864 103.024 180.463 87.4296C196.045 71.8526 205.697 50.3125 205.697 26.5297C205.645 17.2808 204.184 8.36223 201.488 0ZM218.862 0H216.74C219.036 8.44915 220.27 17.3503 220.27 26.5297C220.27 54.3458 208.984 79.5368 190.758 97.7564C172.515 115.993 147.334 127.259 119.509 127.259C91.6836 127.259 66.4845 115.976 48.2591 97.7564C29.9989 79.5368 18.7298 54.3458 18.7298 26.5297C18.7298 17.3503 19.9645 8.44915 22.2601 0H20.1384C17.8776 8.46654 16.6777 17.3503 16.6777 26.5297C16.6777 54.9195 28.1903 80.6147 46.7983 99.2167C65.4063 117.819 91.1097 129.328 119.509 129.328C147.908 129.328 173.611 117.819 192.219 99.2167C210.827 80.6147 222.34 54.9195 222.34 26.5297C222.322 17.3503 221.122 8.46654 218.862 0Z" fill="#1A1A1A"/>
</svg>
