<svg width="72" height="73" viewBox="0 0 72 73" fill="none" xmlns="http://www.w3.org/2000/svg">
<g clip-path="url(#clip0_2_793)">
<path d="M1.27133 0C0.593289 0 0 0.595377 0 1.27581C0 1.99877 0.593289 2.55162 1.27133 2.55162C1.99176 2.55162 2.54267 1.95624 2.54267 1.27581C2.58504 0.595377 1.99176 0 1.27133 0Z" fill="#725EFE"/>
<path d="M15.2136 0C14.4932 0 13.9423 0.595377 13.9423 1.27581C13.9423 1.99877 14.5356 2.55162 15.2136 2.55162C15.934 2.55162 16.485 1.95624 16.485 1.27581C16.485 0.595377 15.934 0 15.2136 0Z" fill="#725EFE"/>
<path d="M29.1559 2.5941C29.8763 2.5941 30.4272 1.99872 30.4272 1.31829C30.4272 0.595331 29.8339 0.0424805 29.1559 0.0424805C28.4355 0.0424805 27.8846 0.637858 27.8846 1.31829C27.8846 1.99872 28.4355 2.5941 29.1559 2.5941Z" fill="#725EFE"/>
<path d="M1.27133 9.69617C0.550911 9.69617 0 10.2915 0 10.972C0 11.6949 0.593289 12.2478 1.27133 12.2478C1.99176 12.2478 2.54267 11.6524 2.54267 10.972C2.58504 10.249 1.99176 9.69617 1.27133 9.69617Z" fill="#725EFE"/>
<path d="M15.2136 9.69617C14.4932 9.69617 13.9423 10.2915 13.9423 10.972C13.9423 11.6949 14.5356 12.2478 15.2136 12.2478C15.934 12.2478 16.485 11.6524 16.485 10.972C16.485 10.249 15.934 9.69617 15.2136 9.69617Z" fill="#725EFE"/>
<path d="M29.1559 9.69617C28.4355 9.69617 27.8846 10.2915 27.8846 10.972C27.8846 11.6949 28.4779 12.2478 29.1559 12.2478C29.8763 12.2478 30.4272 11.6524 30.4272 10.972C30.4272 10.249 29.8763 9.69617 29.1559 9.69617Z" fill="#725EFE"/>
<path d="M1.27133 19.3497C0.550911 19.3497 0 19.9451 0 20.6255C0 21.3485 0.593289 21.9013 1.27133 21.9013C1.99176 21.9013 2.54267 21.306 2.54267 20.6255C2.58504 19.9451 1.99176 19.3497 1.27133 19.3497Z" fill="#725EFE"/>
<path d="M15.2136 19.3497C14.4932 19.3497 13.9423 19.9451 13.9423 20.6255C13.9423 21.3485 14.5356 21.9013 15.2136 21.9013C15.934 21.9013 16.485 21.306 16.485 20.6255C16.485 19.9451 15.934 19.3497 15.2136 19.3497Z" fill="#725EFE"/>
<path d="M29.1559 19.3497C28.4355 19.3497 27.8846 19.9451 27.8846 20.6255C27.8846 21.3485 28.4779 21.9013 29.1559 21.9013C29.8763 21.9013 30.4272 21.306 30.4272 20.6255C30.4272 19.9451 29.8763 19.3497 29.1559 19.3497Z" fill="#725EFE"/>
<path d="M1.27133 29.0459C0.550911 29.0459 0 29.6413 0 30.3217C0 31.0447 0.593289 31.5975 1.27133 31.5975C1.99176 31.5975 2.54267 31.0021 2.54267 30.3217C2.58504 29.5987 1.99176 29.0459 1.27133 29.0459Z" fill="#725EFE"/>
<path d="M15.2136 29.0459C14.4932 29.0459 13.9423 29.6413 13.9423 30.3217C13.9423 31.0447 14.5356 31.5975 15.2136 31.5975C15.934 31.5975 16.485 31.0021 16.485 30.3217C16.485 29.5987 15.934 29.0459 15.2136 29.0459Z" fill="#725EFE"/>
<path d="M29.1559 29.0459C28.4355 29.0459 27.8846 29.6413 27.8846 30.3217C27.8846 31.0447 28.4779 31.5975 29.1559 31.5975C29.8763 31.5975 30.4272 31.0021 30.4272 30.3217C30.4272 29.5987 29.8763 29.0459 29.1559 29.0459Z" fill="#725EFE"/>
</g>
<g clip-path="url(#clip1_2_793)">
<path d="M42.2312 0C41.5531 0 40.9598 0.595377 40.9598 1.27581C40.9598 1.99877 41.5531 2.55162 42.2312 2.55162C42.9516 2.55162 43.5025 1.95624 43.5025 1.27581C43.5449 0.595377 42.9516 0 42.2312 0Z" fill="#725EFE"/>
<path d="M56.1734 0C55.453 0 54.9021 0.595377 54.9021 1.27581C54.9021 1.99877 55.4954 2.55162 56.1734 2.55162C56.8939 2.55162 57.4448 1.95624 57.4448 1.27581C57.4448 0.595377 56.8939 0 56.1734 0Z" fill="#725EFE"/>
<path d="M70.1157 2.5941C70.8361 2.5941 71.3871 1.99872 71.3871 1.31829C71.3871 0.595331 70.7938 0.0424805 70.1157 0.0424805C69.3953 0.0424805 68.8444 0.637858 68.8444 1.31829C68.8444 1.99872 69.3953 2.5941 70.1157 2.5941Z" fill="#725EFE"/>
<path d="M42.2312 9.69617C41.5107 9.69617 40.9598 10.2915 40.9598 10.972C40.9598 11.6949 41.5531 12.2478 42.2312 12.2478C42.9516 12.2478 43.5025 11.6524 43.5025 10.972C43.5449 10.249 42.9516 9.69617 42.2312 9.69617Z" fill="#725EFE"/>
<path d="M56.1734 9.69617C55.453 9.69617 54.9021 10.2915 54.9021 10.972C54.9021 11.6949 55.4954 12.2478 56.1734 12.2478C56.8939 12.2478 57.4448 11.6524 57.4448 10.972C57.4448 10.249 56.8939 9.69617 56.1734 9.69617Z" fill="#725EFE"/>
<path d="M70.1157 9.69617C69.3953 9.69617 68.8444 10.2915 68.8444 10.972C68.8444 11.6949 69.4377 12.2478 70.1157 12.2478C70.8361 12.2478 71.3871 11.6524 71.3871 10.972C71.3871 10.249 70.8361 9.69617 70.1157 9.69617Z" fill="#725EFE"/>
<path d="M42.2312 19.3497C41.5107 19.3497 40.9598 19.9451 40.9598 20.6255C40.9598 21.3485 41.5531 21.9013 42.2312 21.9013C42.9516 21.9013 43.5025 21.306 43.5025 20.6255C43.5449 19.9451 42.9516 19.3497 42.2312 19.3497Z" fill="#725EFE"/>
<path d="M56.1734 19.3497C55.453 19.3497 54.9021 19.9451 54.9021 20.6255C54.9021 21.3485 55.4954 21.9013 56.1734 21.9013C56.8939 21.9013 57.4448 21.306 57.4448 20.6255C57.4448 19.9451 56.8939 19.3497 56.1734 19.3497Z" fill="#725EFE"/>
<path d="M70.1157 19.3497C69.3953 19.3497 68.8444 19.9451 68.8444 20.6255C68.8444 21.3485 69.4377 21.9013 70.1157 21.9013C70.8361 21.9013 71.3871 21.306 71.3871 20.6255C71.3871 19.9451 70.8361 19.3497 70.1157 19.3497Z" fill="#725EFE"/>
<path d="M42.2312 29.0459C41.5107 29.0459 40.9598 29.6413 40.9598 30.3217C40.9598 31.0447 41.5531 31.5975 42.2312 31.5975C42.9516 31.5975 43.5025 31.0021 43.5025 30.3217C43.5449 29.5987 42.9516 29.0459 42.2312 29.0459Z" fill="#725EFE"/>
<path d="M56.1734 29.0459C55.453 29.0459 54.9021 29.6413 54.9021 30.3217C54.9021 31.0447 55.4954 31.5975 56.1734 31.5975C56.8939 31.5975 57.4448 31.0021 57.4448 30.3217C57.4448 29.5987 56.8939 29.0459 56.1734 29.0459Z" fill="#725EFE"/>
<path d="M70.1157 29.0459C69.3953 29.0459 68.8444 29.6413 68.8444 30.3217C68.8444 31.0447 69.4377 31.5975 70.1157 31.5975C70.8361 31.5975 71.3871 31.0021 71.3871 30.3217C71.3871 29.5987 70.8361 29.0459 70.1157 29.0459Z" fill="#725EFE"/>
</g>
<g clip-path="url(#clip2_2_793)">
<path d="M1.27133 40.9597C0.593289 40.9597 0 41.5551 0 42.2355C0 42.9585 0.593289 43.5113 1.27133 43.5113C1.99176 43.5113 2.54267 42.916 2.54267 42.2355C2.58504 41.5551 1.99176 40.9597 1.27133 40.9597Z" fill="#725EFE"/>
<path d="M15.2136 40.9597C14.4932 40.9597 13.9423 41.5551 13.9423 42.2355C13.9423 42.9585 14.5356 43.5113 15.2136 43.5113C15.934 43.5113 16.485 42.916 16.485 42.2355C16.485 41.5551 15.934 40.9597 15.2136 40.9597Z" fill="#725EFE"/>
<path d="M29.1559 43.5538C29.8763 43.5538 30.4272 42.9584 30.4272 42.278C30.4272 41.555 29.8339 41.0022 29.1559 41.0022C28.4355 41.0022 27.8846 41.5976 27.8846 42.278C27.8846 42.9584 28.4355 43.5538 29.1559 43.5538Z" fill="#725EFE"/>
<path d="M1.27133 50.6559C0.550911 50.6559 0 51.2513 0 51.9317C0 52.6546 0.593289 53.2075 1.27133 53.2075C1.99176 53.2075 2.54267 52.6121 2.54267 51.9317C2.58504 51.2087 1.99176 50.6559 1.27133 50.6559Z" fill="#725EFE"/>
<path d="M15.2136 50.6559C14.4932 50.6559 13.9423 51.2513 13.9423 51.9317C13.9423 52.6546 14.5356 53.2075 15.2136 53.2075C15.934 53.2075 16.485 52.6121 16.485 51.9317C16.485 51.2087 15.934 50.6559 15.2136 50.6559Z" fill="#725EFE"/>
<path d="M29.1559 50.6559C28.4355 50.6559 27.8846 51.2513 27.8846 51.9317C27.8846 52.6546 28.4779 53.2075 29.1559 53.2075C29.8763 53.2075 30.4272 52.6121 30.4272 51.9317C30.4272 51.2087 29.8763 50.6559 29.1559 50.6559Z" fill="#725EFE"/>
<path d="M1.27133 60.3094C0.550911 60.3094 0 60.9048 0 61.5853C0 62.3082 0.593289 62.8611 1.27133 62.8611C1.99176 62.8611 2.54267 62.2657 2.54267 61.5853C2.58504 60.9048 1.99176 60.3094 1.27133 60.3094Z" fill="#725EFE"/>
<path d="M15.2136 60.3094C14.4932 60.3094 13.9423 60.9048 13.9423 61.5853C13.9423 62.3082 14.5356 62.8611 15.2136 62.8611C15.934 62.8611 16.485 62.2657 16.485 61.5853C16.485 60.9048 15.934 60.3094 15.2136 60.3094Z" fill="#725EFE"/>
<path d="M29.1559 60.3094C28.4355 60.3094 27.8846 60.9048 27.8846 61.5853C27.8846 62.3082 28.4779 62.8611 29.1559 62.8611C29.8763 62.8611 30.4272 62.2657 30.4272 61.5853C30.4272 60.9048 29.8763 60.3094 29.1559 60.3094Z" fill="#725EFE"/>
<path d="M1.27133 70.0056C0.550911 70.0056 0 70.601 0 71.2814C0 72.0044 0.593289 72.5572 1.27133 72.5572C1.99176 72.5572 2.54267 71.9619 2.54267 71.2814C2.58504 70.5585 1.99176 70.0056 1.27133 70.0056Z" fill="#725EFE"/>
<path d="M15.2136 70.0056C14.4932 70.0056 13.9423 70.601 13.9423 71.2814C13.9423 72.0044 14.5356 72.5572 15.2136 72.5572C15.934 72.5572 16.485 71.9619 16.485 71.2814C16.485 70.5585 15.934 70.0056 15.2136 70.0056Z" fill="#725EFE"/>
<path d="M29.1559 70.0056C28.4355 70.0056 27.8846 70.601 27.8846 71.2814C27.8846 72.0044 28.4779 72.5572 29.1559 72.5572C29.8763 72.5572 30.4272 71.9619 30.4272 71.2814C30.4272 70.5585 29.8763 70.0056 29.1559 70.0056Z" fill="#725EFE"/>
</g>
<g clip-path="url(#clip3_2_793)">
<path d="M42.2312 40.9597C41.5531 40.9597 40.9598 41.5551 40.9598 42.2355C40.9598 42.9585 41.5531 43.5113 42.2312 43.5113C42.9516 43.5113 43.5025 42.916 43.5025 42.2355C43.5449 41.5551 42.9516 40.9597 42.2312 40.9597Z" fill="#725EFE"/>
<path d="M56.1734 40.9597C55.453 40.9597 54.9021 41.5551 54.9021 42.2355C54.9021 42.9585 55.4954 43.5113 56.1734 43.5113C56.8939 43.5113 57.4448 42.916 57.4448 42.2355C57.4448 41.5551 56.8939 40.9597 56.1734 40.9597Z" fill="#725EFE"/>
<path d="M70.1157 43.5538C70.8361 43.5538 71.3871 42.9584 71.3871 42.278C71.3871 41.555 70.7938 41.0022 70.1157 41.0022C69.3953 41.0022 68.8444 41.5976 68.8444 42.278C68.8444 42.9584 69.3953 43.5538 70.1157 43.5538Z" fill="#725EFE"/>
<path d="M42.2312 50.6559C41.5107 50.6559 40.9598 51.2513 40.9598 51.9317C40.9598 52.6546 41.5531 53.2075 42.2312 53.2075C42.9516 53.2075 43.5025 52.6121 43.5025 51.9317C43.5449 51.2087 42.9516 50.6559 42.2312 50.6559Z" fill="#725EFE"/>
<path d="M56.1734 50.6559C55.453 50.6559 54.9021 51.2513 54.9021 51.9317C54.9021 52.6546 55.4954 53.2075 56.1734 53.2075C56.8939 53.2075 57.4448 52.6121 57.4448 51.9317C57.4448 51.2087 56.8939 50.6559 56.1734 50.6559Z" fill="#725EFE"/>
<path d="M70.1157 50.6559C69.3953 50.6559 68.8444 51.2513 68.8444 51.9317C68.8444 52.6546 69.4377 53.2075 70.1157 53.2075C70.8361 53.2075 71.3871 52.6121 71.3871 51.9317C71.3871 51.2087 70.8361 50.6559 70.1157 50.6559Z" fill="#725EFE"/>
<path d="M42.2312 60.3094C41.5107 60.3094 40.9598 60.9048 40.9598 61.5853C40.9598 62.3082 41.5531 62.8611 42.2312 62.8611C42.9516 62.8611 43.5025 62.2657 43.5025 61.5853C43.5449 60.9048 42.9516 60.3094 42.2312 60.3094Z" fill="#725EFE"/>
<path d="M56.1734 60.3094C55.453 60.3094 54.9021 60.9048 54.9021 61.5853C54.9021 62.3082 55.4954 62.8611 56.1734 62.8611C56.8939 62.8611 57.4448 62.2657 57.4448 61.5853C57.4448 60.9048 56.8939 60.3094 56.1734 60.3094Z" fill="#725EFE"/>
<path d="M70.1157 60.3094C69.3953 60.3094 68.8444 60.9048 68.8444 61.5853C68.8444 62.3082 69.4377 62.8611 70.1157 62.8611C70.8361 62.8611 71.3871 62.2657 71.3871 61.5853C71.3871 60.9048 70.8361 60.3094 70.1157 60.3094Z" fill="#725EFE"/>
<path d="M42.2312 70.0056C41.5107 70.0056 40.9598 70.601 40.9598 71.2814C40.9598 72.0044 41.5531 72.5572 42.2312 72.5572C42.9516 72.5572 43.5025 71.9619 43.5025 71.2814C43.5449 70.5585 42.9516 70.0056 42.2312 70.0056Z" fill="#725EFE"/>
<path d="M56.1734 70.0056C55.453 70.0056 54.9021 70.601 54.9021 71.2814C54.9021 72.0044 55.4954 72.5572 56.1734 72.5572C56.8939 72.5572 57.4448 71.9619 57.4448 71.2814C57.4448 70.5585 56.8939 70.0056 56.1734 70.0056Z" fill="#725EFE"/>
<path d="M70.1157 70.0056C69.3953 70.0056 68.8444 70.601 68.8444 71.2814C68.8444 72.0044 69.4377 72.5572 70.1157 72.5572C70.8361 72.5572 71.3871 71.9619 71.3871 71.2814C71.3871 70.5585 70.8361 70.0056 70.1157 70.0056Z" fill="#725EFE"/>
</g>
<defs>
<clipPath id="clip0_2_793">
<rect width="30.4272" height="31.5975" fill="white"/>
</clipPath>
<clipPath id="clip1_2_793">
<rect width="30.4272" height="31.5975" fill="white" transform="translate(40.9598)"/>
</clipPath>
<clipPath id="clip2_2_793">
<rect width="30.4272" height="31.5975" fill="white" transform="translate(0 40.9597)"/>
</clipPath>
<clipPath id="clip3_2_793">
<rect width="30.4272" height="31.5975" fill="white" transform="translate(40.9598 40.9597)"/>
</clipPath>
</defs>
</svg>
