<svg width="58" height="30" viewBox="0 0 58 30" fill="none" xmlns="http://www.w3.org/2000/svg">
<path d="M42.0475 0C40.089 0 38.227 0.37092 36.5134 1.05341C31.3724 3.09347 25.6751 3.09347 20.5341 1.05341C18.8205 0.37092 16.951 0 15 0C6.71365 0 0 6.71365 0 15C0 23.2864 6.71365 30 15 30C16.9585 30 18.8205 29.6291 20.5341 28.9466C25.6751 26.9065 31.3724 26.9065 36.5134 28.9466C38.227 29.6291 40.0964 30 42.0475 30C50.3338 30 57.0475 23.2864 57.0475 15C57.0475 6.71365 50.3338 0 42.0475 0Z" fill="#F4F4F6"/>
</svg>
