<svg width="20" height="21" viewBox="0 0 20 21" fill="none" xmlns="http://www.w3.org/2000/svg">
<path d="M2.49216 0.28302C5.08901 0.28302 7.68607 0.28302 10.2829 0.28302C10.2864 0.324382 10.2927 0.365535 10.2927 0.406896C10.2933 1.20071 10.2941 1.99452 10.2927 2.78812C10.2921 3.20007 10.3584 3.59948 10.5107 3.98051C10.8211 4.75615 11.4407 5.44196 12.5494 5.4054C13.4253 5.37636 14.3031 5.39955 15.1799 5.39955C15.2191 5.39955 15.2582 5.39955 15.2974 5.39955C15.2974 7.10311 15.2974 8.79058 15.2974 10.485C15.2319 10.4753 15.1726 10.4607 15.1126 10.4584C14.5854 10.4392 14.0582 10.4413 13.5385 10.5472C12.0148 10.8578 10.8222 11.6849 9.94193 12.9898C9.89053 13.0659 9.83995 13.0903 9.75287 13.0903C7.88002 13.0878 6.00718 13.0882 4.13454 13.0893C4.0397 13.0893 3.94365 13.0924 3.85044 13.1085C2.90658 13.2725 2.51316 14.3416 3.02996 15.0905C3.29367 15.4728 3.66138 15.6481 4.12251 15.646C5.70289 15.6389 7.28348 15.641 8.86386 15.6395C8.90323 15.6395 8.94279 15.6395 8.99296 15.6395C8.87508 17.0435 9.19609 18.3226 9.94539 19.4997C9.90338 19.5018 9.88013 19.5041 9.85709 19.5041C7.53556 19.5043 5.21423 19.5056 2.89271 19.501C2.73567 19.5006 2.5719 19.4751 2.42281 19.4254C1.72756 19.1935 1.18261 18.7477 0.7531 18.1486C0.471042 17.7546 0.306661 17.3211 0.307069 16.8221C0.310128 12.2023 0.3087 7.58232 0.310128 2.96255C0.310128 2.8345 0.312983 2.70247 0.341536 2.5788C0.551601 1.66926 1.04923 0.973218 1.8381 0.499647C2.04001 0.378277 2.26537 0.327306 2.49216 0.28302ZM7.79865 10.5098C9.02559 10.5098 10.2525 10.4975 11.4793 10.514C12.3454 10.5255 12.9428 9.76697 12.7495 8.92094C12.6489 8.48142 12.2286 7.94685 11.5168 7.94852C9.04273 7.95479 6.56865 7.95103 4.09436 7.95103C4.0603 7.95103 4.02645 7.95144 3.99239 7.95311C3.4917 7.97756 3.03425 8.3285 2.86946 8.8144C2.69957 9.31554 2.84192 9.85178 3.2335 10.1979C3.49741 10.4311 3.8072 10.5117 4.14861 10.5109C5.36516 10.5081 6.5819 10.5098 7.79865 10.5098Z" fill="#725EFE"/>
<path d="M14.3823 20.7546C14.2086 20.7283 14.0334 20.7087 13.861 20.6744C12.8207 20.4678 11.9596 19.945 11.2905 19.1056C10.5359 18.1591 10.1918 17.067 10.3128 15.8514C10.4727 14.2429 11.2713 13.0476 12.6543 12.2711C13.424 11.8389 14.2559 11.6954 15.1267 11.7752C17.0809 11.954 18.716 13.5195 19.0133 15.4965C19.036 15.6471 19.0535 15.7988 19.0733 15.9498C19.0733 16.1518 19.0733 16.3536 19.0733 16.5556C19.0533 16.7066 19.036 16.8579 19.0133 17.0085C18.7386 18.834 17.3034 20.3429 15.5261 20.6728C15.3431 20.7066 15.1581 20.7277 14.974 20.7546C14.7767 20.7546 14.5795 20.7546 14.3823 20.7546ZM15.2809 15.5765C15.2809 14.9951 15.2809 14.4313 15.2809 13.8677C15.2809 13.6306 15.193 13.5011 14.9742 13.4223C14.7965 13.3584 14.6126 13.3551 14.4307 13.391C14.1578 13.4449 14.046 13.5926 14.0458 13.8777C14.0458 14.56 14.0464 15.2425 14.0448 15.9247C14.0446 15.9937 14.0344 16.0632 14.0228 16.1313C13.9809 16.3768 14.023 16.6015 14.1735 16.8013C14.2599 16.9159 14.3711 16.9726 14.5159 16.9721C15.3859 16.9698 16.256 16.9696 17.126 16.9723C17.2753 16.9728 17.3893 16.9139 17.4758 16.7948C17.6489 16.5562 17.6763 16.2899 17.603 16.0108C17.5221 15.7031 17.3536 15.5767 17.0436 15.5767C16.4964 15.5767 15.9492 15.5767 15.4021 15.5767C15.3657 15.5765 15.329 15.5765 15.2809 15.5765Z" fill="#725EFE"/>
<path d="M11.7516 0.283142C12.1677 0.36315 12.4964 0.610067 12.8119 0.875785C13.5127 1.46634 14.211 2.06044 14.8031 2.7709C14.8691 2.85029 14.9301 2.93426 14.9978 3.01239C15.2607 3.31613 15.3509 3.67104 15.2948 4.08508C15.2628 4.08508 15.2236 4.08508 15.1846 4.08508C14.2534 4.08508 13.3222 4.08383 12.3912 4.08633C12.2309 4.08675 12.0987 4.03202 11.9914 3.91378C11.701 3.59417 11.5785 3.20395 11.5734 2.77884C11.564 1.98879 11.5707 1.19853 11.5705 0.408272C11.5705 0.366492 11.5689 0.324713 11.5681 0.283142C11.6292 0.283142 11.6904 0.283142 11.7516 0.283142Z" fill="#725EFE"/>
</svg>
