<svg width="25" height="20" viewBox="0 0 25 20" fill="none" xmlns="http://www.w3.org/2000/svg">
<path d="M24.4401 2.96867C24.4401 8.64468 24.4401 14.2947 24.4401 19.9642C24.381 19.9642 24.3283 19.9642 24.276 19.9642C17.3625 19.9642 10.4494 19.9645 3.53592 19.9639C2.02686 19.9639 0.780056 18.797 0.689066 17.3029C0.683714 17.2145 0.681037 17.1256 0.681037 17.0373C0.680443 12.537 0.68074 8.03702 0.680145 3.53704C0.679848 2.439 1.1351 1.57877 2.07919 1.0101C3.72623 0.0181146 5.83119 0.931818 6.25106 2.80915C6.28258 2.94947 6.34115 2.97133 6.46842 2.97133C12.3857 2.96838 18.3028 2.96867 24.2201 2.96867C24.2888 2.96867 24.3575 2.96867 24.4401 2.96867ZM5.43066 15.001C5.43066 14.9248 5.43066 14.8666 5.43066 14.8084C5.43066 11.0626 5.43066 7.31711 5.43066 3.57131C5.43066 3.5072 5.43066 3.4434 5.42887 3.37929C5.3923 2.16841 4.246 1.31556 3.06194 1.6089C2.36733 1.78112 1.62394 2.4328 1.62692 3.54147C1.63733 7.30677 1.63078 11.0724 1.63078 14.8377C1.63078 14.8888 1.63078 14.9396 1.63078 15.0034C2.90554 14.0616 4.15531 14.0596 5.43066 15.001ZM20.637 6.75849C19.5359 6.75849 18.4497 6.75849 17.3242 6.75849C17.7791 7.20899 18.2082 7.63408 18.6171 8.03909C17.7744 8.87806 16.943 9.7055 16.1041 10.5406C15.2576 9.70048 14.3997 8.84911 13.5338 7.99005C12.1526 9.1909 10.7786 10.3855 9.39913 11.5852C9.61204 11.8265 9.81602 12.0573 10.0242 12.2927C11.1871 11.2824 12.3346 10.2854 13.5094 9.26475C14.3884 10.1427 15.2597 11.013 16.1589 11.9116C17.2201 10.8538 18.2745 9.80269 19.3646 8.71617C19.7913 9.14009 20.2189 9.56518 20.637 9.98082C20.637 8.92532 20.637 7.84914 20.637 6.75849ZM8.76785 15.7038C12.7265 15.7038 16.6769 15.7038 20.6296 15.7038C20.6296 15.3892 20.6296 15.0834 20.6296 14.7792C16.6691 14.7792 12.7226 14.7792 8.76785 14.7792C8.76785 15.0911 8.76785 15.3936 8.76785 15.7038Z" fill="#F99313"/>
</svg>
