<svg width="25" height="19" viewBox="0 0 25 19" fill="none" xmlns="http://www.w3.org/2000/svg">
<path d="M3.73382 13.205C5.01226 12.3559 6.43177 11.8905 7.8046 11.4374C8.00185 11.3726 8.19886 11.3089 8.39491 11.2426L8.43509 11.2293C8.72517 11.1277 9.00014 11.0318 9.22519 10.9078C9.23535 10.8841 9.24991 10.8447 9.2673 10.7793C8.13708 9.12937 7.36913 6.57923 7.36913 4.39459C7.36913 2.54136 7.95156 1.16848 9.04995 0.332484C8.57508 0.0924 8.00227 0 7.38585 0C5.74316 0 4.4116 0.656305 4.4116 3.01275C4.4116 4.57723 4.99843 6.49615 5.87316 7.61049C5.86504 7.69856 5.85463 7.78681 5.83881 7.87445C5.78666 8.11381 5.7028 8.38199 5.47902 8.51488C5.22792 8.66394 4.94904 8.75857 4.67461 8.8547C3.53693 9.23759 2.36028 9.57507 1.35049 10.2456C0.82551 10.5912 0.469866 11.1908 0.273697 11.7799C0.0716321 12.3913 -0.0110227 13.246 0.00142968 13.7272H3.10399C3.30082 13.4866 3.51052 13.3517 3.73382 13.205Z" fill="#04C8EC"/>
<path d="M24.5113 11.7798C24.315 11.1907 23.9592 10.614 23.4345 10.2684C22.4245 9.59793 21.2477 9.24896 20.1102 8.86631C19.8357 8.77018 19.5569 8.66978 19.3061 8.52065C19.082 8.38752 18.9981 8.1167 18.9463 7.8771C18.9233 7.75029 18.909 7.62143 18.902 7.49342C19.7268 6.36483 20.2741 4.52357 20.2741 3.01353C20.2741 0.656604 18.9424 -0.00012207 17.2998 -0.00012207C16.6751 -0.00012207 16.0961 0.0957671 15.6174 0.34313C16.7065 1.18008 17.2835 2.5499 17.2835 4.39562C17.2835 6.52262 16.57 8.97182 15.4852 10.6322C15.4881 10.651 15.491 10.6694 15.4944 10.6878C15.5229 10.8166 15.5463 10.8839 15.5609 10.9173C15.7988 11.0499 16.0835 11.154 16.4015 11.2658L16.8778 11.4246C18.2862 11.8922 19.7425 12.3703 21.0544 13.2407C21.2664 13.3806 21.4666 13.4864 21.6542 13.7271H24.7835C24.796 13.2459 24.7132 12.3912 24.5113 11.7798Z" fill="#04C8EC"/>
<path d="M21.942 16.1037C21.6801 15.3181 21.2058 14.5397 20.5063 14.0783C19.1596 13.1848 17.5905 12.7143 16.0736 12.2042C15.7077 12.0759 15.3359 11.9398 15.0017 11.7409C14.7027 11.5633 14.591 11.2013 14.5217 10.8819C14.4912 10.7125 14.4721 10.5403 14.4627 10.3694C15.5624 8.86471 16.2922 6.40937 16.2922 4.39588C16.2922 1.25332 14.5166 0.377686 12.3263 0.377686C10.1362 0.377686 8.36072 1.25242 8.36072 4.39468C8.36072 6.4803 9.14311 9.03898 10.3095 10.5253C10.2986 10.6424 10.2848 10.7601 10.2638 10.8768C10.194 11.1958 10.0822 11.5535 9.78401 11.7306C9.44906 11.9296 9.07724 12.0554 8.71131 12.1837C7.19447 12.6944 5.62547 13.1441 4.27917 14.0381C3.5792 14.499 3.10492 15.3181 2.84343 16.1037C2.57393 16.9188 2.46378 17.9381 2.48038 18.7201H12.3924H22.3046C22.3215 17.9381 22.2112 16.9188 21.942 16.1037Z" fill="#04C8EC"/>
</svg>
