<svg width="23" height="27" viewBox="0 0 23 27" fill="none" xmlns="http://www.w3.org/2000/svg">
<path d="M7.82582 26.8011C7.21207 26.5347 7.0269 26.0552 7.14263 25.4092C8.38656 25.4092 9.64019 25.4092 10.8931 25.4092C11.0237 26.1137 10.8647 26.437 10.2129 26.8011C9.41769 26.8011 8.62175 26.8011 7.82582 26.8011Z" fill="#3EDBB4"/>
<path d="M15.6166 15.6887C15.0701 16.348 14.4646 16.8801 13.7851 17.3308C13.3744 17.6031 13.0116 17.9183 12.7577 18.346C12.48 18.8144 12.3605 19.3199 12.3642 19.86C12.3687 20.4069 12.3732 20.9538 12.3627 21.4999C12.3456 22.4419 11.7594 23.0176 10.8067 23.0228C9.62177 23.0294 8.43758 23.0287 7.25264 23.0235C6.26856 23.0191 5.69587 22.4434 5.68542 21.4614C5.6787 20.8161 5.69513 20.1701 5.66078 19.5263C5.61598 18.6672 5.20906 17.9849 4.49675 17.501C3.47981 16.8105 2.57561 16.0128 1.89392 14.9842C0.705246 13.1905 0.232615 11.2273 0.523809 9.10055C0.806791 7.03227 1.75056 5.29698 3.31853 3.90506C4.58261 2.78249 6.06323 2.09429 7.74469 1.85528C8.24121 1.78498 8.7452 1.77092 9.24546 1.73096C9.25143 1.80274 9.25965 1.82642 9.25293 1.83234C8.8012 2.23563 8.78851 2.35773 9.15288 2.84095C9.44482 3.2287 9.73601 3.6172 10.0317 4.002C10.184 4.19957 10.2863 4.40085 10.1362 4.64061C9.98838 4.87741 9.75692 4.88481 9.51202 4.84929C8.98488 4.77233 8.457 4.69833 7.92986 4.62137C7.53637 4.56365 7.32358 4.70055 7.26235 5.09571C7.12347 5.98962 6.99654 6.88501 6.87409 7.78114C6.83079 8.09934 7.00326 8.30506 7.34 8.35612C7.85818 8.43382 8.3786 8.49597 8.89528 8.58033C9.05954 8.60697 9.24098 8.64989 9.37015 8.74535C9.61953 8.92887 9.57399 9.28111 9.28802 9.50014C8.85123 9.83388 8.40622 10.1565 7.96644 10.4858C7.60432 10.7574 7.56848 10.9898 7.83802 11.3479C8.35694 12.0368 8.87736 12.725 9.40151 13.411C9.65239 13.7396 9.89654 13.7714 10.2348 13.5235C10.6708 13.2038 11.1046 12.8812 11.5369 12.5563C11.7296 12.4113 11.9319 12.3277 12.1611 12.4616C12.3911 12.5963 12.4135 12.8168 12.3799 13.0506C12.3015 13.6004 12.2186 14.1495 12.1417 14.6993C12.0954 15.0309 12.2395 15.2477 12.5696 15.2987C13.5074 15.4423 14.4466 15.5718 15.3859 15.7042C15.4442 15.7109 15.5076 15.6954 15.6166 15.6887ZM5.46964 4.66725C5.38527 4.71979 5.31508 4.75827 5.25012 4.80341C3.58434 5.96964 2.60473 7.55322 2.39641 9.56526C2.16645 11.7912 2.92878 13.6619 4.57365 15.1863C5.23146 15.796 6.02664 16.1764 6.83601 16.5397C7.37659 16.7824 7.78874 17.1783 8.09935 17.6808C8.38905 18.1492 8.51971 18.662 8.54659 19.2089C8.87363 19.2089 9.18125 19.2089 9.49111 19.2089C9.47618 18.5369 9.32237 17.9272 9.01101 17.3574C8.51971 16.4576 7.76111 15.873 6.81809 15.4896C5.89672 15.1152 5.13514 14.5254 4.51168 13.7536C2.51812 11.288 3.05272 7.49624 5.65555 5.67586C5.75635 5.60556 5.85566 5.53378 5.96616 5.45386C5.79294 5.17859 5.63614 4.92995 5.46964 4.66725ZM9.48962 20.2012C9.16856 20.2012 8.86765 20.2012 8.55705 20.2012C8.55705 20.6681 8.55705 21.1188 8.55705 21.5791C8.87512 21.5791 9.17602 21.5791 9.48962 21.5791C9.48962 21.1173 9.48962 20.6733 9.48962 20.2012Z" fill="#3EDBB4"/>
<path d="M20.2339 2.54698C20.2713 2.5825 20.2929 2.59804 20.3086 2.61876C20.6625 3.08348 21.0149 3.54893 21.3913 4.04473C21.0373 4.30891 20.6879 4.5716 20.3377 4.83134C19.9719 5.10292 19.7419 5.45515 19.7128 5.91321C19.662 6.71462 20.2101 7.32364 21.0672 7.43834C21.4771 7.4931 21.8855 7.55452 22.3126 7.61519C22.2208 8.24715 22.1319 8.85468 22.0408 9.47998C21.5876 9.41782 21.1605 9.3601 20.7335 9.29942C20.0973 9.20914 19.5806 9.41634 19.2454 9.95727C18.9228 10.4782 18.9549 11.0199 19.3066 11.5238C19.5687 11.899 19.8554 12.2579 20.1511 12.6508C19.6516 13.0238 19.1565 13.3931 18.6294 13.7867C18.3628 13.4352 18.0993 13.0889 17.8364 12.7411C17.5624 12.3785 17.2085 12.1491 16.7448 12.1225C15.931 12.0759 15.3195 12.6153 15.206 13.4641C15.1515 13.8704 15.0895 14.2751 15.0283 14.6984C14.3906 14.6074 13.7769 14.5208 13.1422 14.4305C13.205 13.9769 13.2654 13.5448 13.3252 13.1133C13.4103 12.494 13.2012 11.9908 12.6666 11.6615C12.1417 11.3381 11.5952 11.3677 11.086 11.7133C10.7059 11.9715 10.3445 12.2557 9.94209 12.5524C9.56428 12.0544 9.18946 11.5586 8.80195 11.0473C9.21112 10.7365 9.62028 10.456 9.99361 10.1349C10.8157 9.4267 10.5678 8.11839 9.54487 7.75431C9.30221 7.66773 9.03416 7.64627 8.77656 7.60409C8.48462 7.556 8.19044 7.51826 7.88879 7.47534C7.89402 7.40282 7.89402 7.35028 7.90149 7.29848C7.98213 6.742 8.06426 6.18627 8.14863 5.60833C8.61678 5.67197 9.06104 5.73561 9.50679 5.79185C10.122 5.86955 10.6186 5.65421 10.9426 5.134C11.2607 4.62414 11.2413 4.08913 10.9008 3.59037C10.6372 3.20484 10.3445 2.84002 10.0436 2.43672C10.5409 2.06599 11.0367 1.69673 11.5638 1.30379C11.8304 1.65529 12.0954 2.00161 12.3568 2.35014C12.63 2.71422 12.9862 2.93992 13.4476 2.97026C14.2413 3.0228 14.8685 2.47964 14.9827 1.65455C15.0402 1.23941 15.1015 0.825757 15.1627 0.401001C15.2471 0.408401 15.309 0.412101 15.3695 0.420241C15.922 0.49868 16.4746 0.577859 17.048 0.659999C16.9838 1.11583 16.9203 1.54799 16.8621 1.98015C16.7784 2.59952 16.9905 3.10272 17.5266 3.42905C18.0522 3.74947 18.598 3.71913 19.1065 3.37059C19.488 3.11308 19.8502 2.82966 20.2339 2.54698ZM15.1 4.70628C13.5439 4.70406 12.2298 6.00571 12.2313 7.54786C12.2328 9.08926 13.5551 10.3939 15.1059 10.3842C16.6545 10.3746 17.9529 9.08704 17.9611 7.55452C17.9694 6.01533 16.6567 4.7085 15.1 4.70628Z" fill="#3EDBB4"/>
<path d="M10.9149 23.5139C10.9149 23.8351 10.9149 24.12 10.9149 24.4204C9.65232 24.4204 8.40019 24.4204 7.13312 24.4204C7.13312 24.1222 7.13312 23.8306 7.13312 23.5139C8.38973 23.5139 9.6471 23.5139 10.9149 23.5139Z" fill="#3EDBB4"/>
<path d="M15.9136 15.2335C16.004 14.6289 16.0854 14.0229 16.1906 13.4213C16.2332 13.1793 16.4565 13.0431 16.6924 13.0653C16.9619 13.0905 17.0568 13.2459 16.9552 13.4908C16.6931 14.1176 16.3721 14.7096 15.9136 15.2335Z" fill="#3EDBB4"/>
</svg>
