<svg id="doller" viewBox="0 0 10 19" xmlns="http://www.w3.org/2000/svg">
    <path
        d="M4.98045 0C4.29242 0.014838 3.74511 0.549004 3.75293 1.20187V2.20344C1.72791 2.55955 0 3.7911 0 5.93518C0 7.41898 0.703675 8.62085 1.64973 9.31823C2.59578 10.0156 3.66693 10.3272 4.60516 10.624C5.54339 10.9207 6.35653 11.2027 6.81783 11.5439C7.27912 11.8852 7.49804 12.1671 7.49804 13.0574C7.49804 15.0383 2.50195 15.0383 2.50195 13.0574C2.51759 12.4045 1.97029 11.8555 1.28225 11.8407C0.594214 11.8258 0.0156372 12.3452 0 12.998C0 13.0129 0 13.0351 0 13.05C0 15.1866 1.72791 16.4256 3.74511 16.7817V17.7759C3.72948 18.4287 4.27678 18.9777 4.96482 18.9926C5.65285 19.0074 6.23143 18.4881 6.24707 17.8352C6.24707 17.8204 6.24707 17.7981 6.24707 17.7833V16.7891C8.26427 16.4256 10 15.1941 10 13.0574C10 11.5736 9.29632 10.3717 8.34245 9.67435C7.3964 8.97696 6.33307 8.66537 5.39484 8.36861C4.45661 8.07185 3.64347 7.78993 3.18217 7.44865C2.72088 7.10738 2.50195 6.82546 2.50195 5.93518C2.50195 3.95431 7.49804 3.95431 7.49804 5.93518C7.49804 6.58805 8.06098 7.12222 8.74902 7.12222C9.43706 7.12222 10 6.58805 10 5.93518C10 3.79852 8.26427 2.56697 6.24707 2.20344V1.20187C6.25489 0.549004 5.70758 0.00741898 5.01173 0C5.00391 0 4.98827 0 4.98045 0Z" />
</svg>