<svg width="29" height="26" viewBox="0 0 29 26" fill="none" xmlns="http://www.w3.org/2000/svg">
<path d="M14.5099 4.31975H14.4886C6.32749 -5.52038 -6.09696 2.77764 3.45602 15.8983L10.5255 15.9367L11.1845 15.0294C11.259 14.9268 11.377 14.8651 11.503 14.8629C11.6453 14.8608 11.749 14.919 11.8266 15.0189L12.1876 15.4851L13.6377 8.25363C13.6773 8.05681 13.8546 7.91772 14.0519 7.92819C14.2507 7.93785 14.4129 8.09251 14.4331 8.29283L15.5429 19.0898L16.4904 13.9239C16.5257 13.7308 16.6924 13.5912 16.8865 13.5912C17.0676 13.5912 17.2422 13.7136 17.2904 13.8903L17.8601 15.9818L25.4502 16.0264C35.1781 2.83104 22.698 -5.55248 14.5102 4.31995L14.5099 4.31975ZM17.1645 16.4943L16.9699 15.7795L15.827 22.0099C15.7916 22.2035 15.6241 22.3426 15.4309 22.3426C15.425 22.3426 15.4199 22.3426 15.4144 22.3423C15.2142 22.3345 15.0504 22.1788 15.0299 21.9777L13.904 11.0253L12.8036 16.5122C12.7722 16.6682 12.6545 16.7909 12.5013 16.8277C12.3484 16.8642 12.1884 16.8075 12.0914 16.6824L11.5195 15.9437L11.0534 16.5857C10.9774 16.691 10.8633 16.7565 10.7262 16.7522L4.07481 16.716C6.37321 19.6388 9.75174 22.7796 14.499 26C19.1811 22.8237 22.5335 19.7245 24.8299 16.8363L17.5501 16.7933C17.3699 16.7922 17.2122 16.6698 17.1644 16.4944L17.1645 16.4943Z" fill="white"/>
</svg>
