<svg width="47" height="57" viewBox="0 0 47 57" fill="none" xmlns="http://www.w3.org/2000/svg">
<path d="M23.5303 0.513916C22.884 0.513916 22.4348 0.76416 21.9345 1.03737C21.4342 1.31111 20.9212 1.64765 20.4199 1.98982C19.9186 2.33147 19.4264 2.6813 19.0145 2.94379C18.6025 3.20628 18.2268 3.38197 18.1778 3.39524C18.1288 3.41056 17.7168 3.43661 17.2278 3.41618C16.7387 3.39575 16.147 3.34417 15.5411 3.29718C14.9352 3.25071 14.3139 3.20424 13.7432 3.21599C13.1724 3.2262 12.6558 3.23744 12.0963 3.55815C11.5368 3.87937 11.2718 4.32725 10.9762 4.81292C10.6807 5.29858 10.4091 5.8435 10.1472 6.38896C9.88532 6.93387 9.63517 7.47367 9.41056 7.90616C9.18595 8.33865 8.95164 8.67322 8.91589 8.70896C8.87914 8.74471 8.53302 8.98729 8.09809 9.20943C7.66315 9.4326 7.1205 9.68183 6.57221 9.94279C6.02394 10.2032 5.47619 10.4724 4.98764 10.7665C4.4991 11.0607 4.05855 11.3252 3.73542 11.8814C3.41227 12.4375 3.40359 12.9502 3.39135 13.5177C3.38063 14.085 3.4133 14.7025 3.46128 15.3051C3.50825 15.9077 3.55879 16.495 3.58227 16.9811C3.60422 17.4668 3.57512 17.8769 3.56389 17.9259C3.54909 17.9775 3.37297 18.3498 3.10853 18.7594C2.8441 19.1684 2.50258 19.6556 2.15851 20.1536C1.81444 20.6515 1.46476 21.1525 1.1896 21.6498C0.914439 22.1473 0.664307 22.6043 0.664307 23.2463C0.664307 23.8882 0.914452 24.334 1.1896 24.8315C1.46476 25.3289 1.81443 25.839 2.15851 26.3375C2.50258 26.8355 2.8441 27.3247 3.10853 27.7338C3.37296 28.1429 3.55061 28.5085 3.56389 28.5576C3.5787 28.6091 3.60575 29.0259 3.58227 29.5115C3.56032 29.9972 3.50825 30.585 3.46128 31.1876C3.41432 31.7902 3.37961 32.3979 3.39135 32.9659C3.40207 33.5332 3.4133 34.0557 3.73542 34.6118C4.05856 35.168 4.49912 35.4325 4.98764 35.7267C5.47619 36.0208 6.02394 36.2879 6.57221 36.5484C7.12047 36.8088 7.66364 37.0585 8.09809 37.2817C8.53302 37.5049 8.87966 37.7388 8.91589 37.7751C8.94857 37.8093 9.16093 38.1131 9.37278 38.5099L2.72063 49.9754H2.72012C2.54094 50.2834 2.54605 50.6649 2.73288 50.9682C2.91972 51.2716 3.25766 51.4472 3.61348 51.4263L9.23805 51.0898L11.7578 56.095H11.7573C11.9176 56.4116 12.2372 56.6149 12.5914 56.6256C12.9452 56.6364 13.277 56.4525 13.4557 56.1461L20.28 44.3972C20.3269 44.4293 20.3718 44.4595 20.4193 44.4916C20.9206 44.8333 21.4337 45.1724 21.934 45.4456C22.4342 45.7188 22.884 45.967 23.5298 45.967C24.1755 45.967 24.6253 45.7193 25.1256 45.4456C25.6259 45.1719 26.1389 44.8333 26.6402 44.4916C26.6887 44.4589 26.7336 44.4283 26.7821 44.3951L33.6002 56.1456L33.6008 56.1461C33.7789 56.4536 34.1112 56.6379 34.466 56.6277C34.8208 56.617 35.1414 56.4127 35.3007 56.0951L37.8204 51.0898L43.445 51.4263C43.8018 51.4503 44.1428 51.2757 44.3312 50.9718C44.5201 50.668 44.5257 50.2844 44.346 49.9755L37.6861 38.514C37.899 38.1152 38.1109 37.8093 38.1451 37.7751C38.1818 37.7393 38.5279 37.5049 38.9629 37.2817C39.3978 37.0586 39.9384 36.8093 40.4872 36.5484C41.0355 36.2879 41.5853 36.0203 42.0738 35.7267C42.5624 35.4325 43.0029 35.168 43.3261 34.6118C43.6492 34.0557 43.6579 33.5338 43.6702 32.9659C43.6809 32.3985 43.6482 31.7903 43.6002 31.1876C43.5532 30.585 43.5007 29.9977 43.4772 29.5115C43.4552 29.0259 43.4843 28.6061 43.4991 28.5576C43.5139 28.506 43.6901 28.1434 43.9545 27.7338C44.2189 27.3248 44.5589 26.836 44.9025 26.3375C45.2465 25.8396 45.5983 25.3289 45.8734 24.8315C46.1486 24.334 46.387 23.8882 46.387 23.2463C46.387 22.6043 46.1481 22.1473 45.8734 21.6499C45.5983 21.1524 45.2465 20.652 44.9025 20.1536C44.5584 19.6556 44.2189 19.1684 43.9545 18.7594C43.6901 18.3503 43.5124 17.975 43.4991 17.9259C43.4843 17.8744 43.4547 17.4668 43.4772 16.9812C43.4991 16.4955 43.5527 15.9077 43.6002 15.3051C43.6472 14.7025 43.6819 14.0851 43.6702 13.5177C43.6594 12.9503 43.6482 12.4376 43.3261 11.8814C43.0029 11.3252 42.5624 11.0607 42.0738 10.7665C41.5853 10.4724 41.0355 10.2033 40.4872 9.9428C39.9389 9.68235 39.3978 9.43263 38.9629 9.20945C38.5279 8.98626 38.1808 8.7442 38.1451 8.70897C38.1083 8.67322 37.8745 8.33821 37.6504 7.90617C37.4258 7.47361 37.1741 6.93432 36.9117 6.38897C36.6499 5.84355 36.3803 5.29865 36.0842 4.81293C35.7887 4.32727 35.5217 3.87939 34.9622 3.55816C34.4027 3.23694 33.8881 3.22775 33.3169 3.216C32.7461 3.20578 32.1249 3.25328 31.5189 3.2972C30.9129 3.34367 30.3213 3.39372 29.8323 3.41619C29.3432 3.43662 28.9312 3.41057 28.8822 3.39525C28.8332 3.37993 28.4555 3.20681 28.0435 2.9438C27.6315 2.68131 27.1415 2.33148 26.6402 1.98983C26.1389 1.64817 25.6259 1.31112 25.1255 1.03738C24.6252 0.763647 24.1755 0.513928 23.5297 0.513928L23.5303 0.513916ZM23.5283 2.44686C23.5676 2.46473 23.8636 2.54032 24.197 2.72264C24.586 2.93559 25.0633 3.25477 25.5493 3.58622C26.0353 3.91766 26.5264 4.26289 26.9941 4.56112C27.4617 4.85988 27.8629 5.11523 28.3785 5.2526C28.8941 5.38998 29.3684 5.36955 29.9232 5.34351C30.4781 5.31797 31.0826 5.25873 31.6701 5.21328C32.2577 5.16681 32.832 5.13412 33.2756 5.14332C33.6569 5.152 33.9494 5.23575 33.9913 5.23984C34.0204 5.27814 34.2333 5.48701 34.4278 5.8067C34.6575 6.18409 34.9102 6.69325 35.1644 7.22179C35.4186 7.75034 35.6672 8.29731 35.922 8.78802C36.1767 9.27873 36.3947 9.69755 36.7719 10.0729C37.1492 10.4483 37.5698 10.6623 38.064 10.9156C38.5576 11.1689 39.1187 11.4262 39.6506 11.679C40.1826 11.9318 40.6951 12.1836 41.0748 12.4124C41.3985 12.607 41.6088 12.8204 41.6451 12.847C41.6486 12.8929 41.7221 13.182 41.7303 13.5574C41.741 13.9986 41.7048 14.5695 41.6604 15.1538C41.6149 15.738 41.5659 16.3386 41.5394 16.8901C41.5139 17.4416 41.4807 17.9135 41.6185 18.4263C41.7569 18.939 42.0152 19.3368 42.3153 19.8016C42.6155 20.2663 42.9718 20.754 43.3052 21.2376C43.6385 21.7207 43.9504 22.1962 44.1643 22.5828C44.3466 22.9116 44.4231 23.2012 44.442 23.2441C44.4237 23.2814 44.3476 23.5664 44.1643 23.8978C43.9504 24.2844 43.6385 24.7598 43.3052 25.2429C42.9718 25.726 42.6155 26.2235 42.3153 26.6882C42.0147 27.153 41.7563 27.5513 41.6185 28.0636C41.4802 28.5763 41.5128 29.0482 41.5394 29.5998C41.5649 30.1513 41.6144 30.7519 41.6604 31.3361C41.7058 31.9203 41.7395 32.4821 41.7303 32.9233C41.7232 33.2987 41.6486 33.5877 41.6451 33.6337C41.6083 33.6603 41.3985 33.8732 41.0748 34.0683C40.695 34.2971 40.1825 34.5581 39.6506 34.8109C39.1187 35.0637 38.5577 35.3113 38.064 35.5646C37.5703 35.8179 37.1497 36.0324 36.7719 36.4073C36.3947 36.7826 36.1767 37.2014 35.922 37.6922C35.6672 38.1829 35.4191 38.7391 35.1644 39.2682C34.9102 39.7968 34.6575 40.2967 34.4278 40.6741C34.2328 40.9938 34.0199 41.2099 33.9913 41.2502C33.9494 41.2522 33.6564 41.3294 33.2756 41.337C32.832 41.3472 32.2577 41.312 31.6701 41.267C31.0825 41.2206 30.4781 41.1629 29.9232 41.1368C29.3683 41.1113 28.8936 41.0888 28.3785 41.2257C27.8629 41.3631 27.4617 41.6204 26.9941 41.9192C26.5265 42.218 26.0354 42.5724 25.5493 42.9038C25.0633 43.2353 24.586 43.5452 24.197 43.7577C23.8631 43.94 23.5676 44.0156 23.5283 44.0335C23.4854 44.0146 23.1944 43.9385 22.8636 43.7577C22.4746 43.5447 21.9958 43.2352 21.5093 42.9038C21.0233 42.5724 20.5338 42.218 20.0661 41.9192C19.5985 41.6204 19.1973 41.3631 18.6817 41.2257C18.166 41.0883 17.6918 41.1108 17.137 41.1368C16.5821 41.1624 15.9776 41.2221 15.3901 41.267C14.8025 41.3135 14.2267 41.3462 13.7825 41.337C13.4078 41.3283 13.1199 41.2563 13.0704 41.2522C13.0449 41.216 12.8294 40.9979 12.6324 40.6741C12.4027 40.2967 12.1484 39.7973 11.8937 39.2682C11.6395 38.7396 11.3909 38.1835 11.1361 37.6922C10.8814 37.2014 10.6655 36.7826 10.2882 36.4073C9.91097 36.0319 9.47858 35.8179 8.98493 35.5646C8.49129 35.3113 7.94149 35.0636 7.40952 34.8108C6.87759 34.5581 6.36505 34.2966 5.98531 34.0683C5.6637 33.8747 5.45338 33.6623 5.41509 33.6337C5.41202 33.5883 5.33596 33.2987 5.3283 32.9233C5.31758 32.4821 5.35383 31.9203 5.39977 31.3361C5.44521 30.7518 5.49421 30.1513 5.52076 29.5997C5.54628 29.0482 5.57793 28.5763 5.43959 28.0636C5.30125 27.5508 5.04293 27.153 4.74278 26.6882C4.4421 26.2235 4.08629 25.7261 3.75294 25.2429C3.41959 24.7598 3.10921 24.2844 2.89531 23.8978C2.71205 23.5669 2.63598 23.2814 2.61761 23.2441C2.63598 23.2012 2.71358 22.9111 2.89531 22.5828C3.10921 22.1962 3.41959 21.7207 3.75294 21.2376C4.08629 20.7545 4.4426 20.2663 4.74278 19.8016C5.04295 19.3369 5.30176 18.9385 5.43959 18.4262C5.57794 17.9135 5.54679 17.4416 5.52076 16.8901C5.49524 16.3385 5.44572 15.738 5.39977 15.1538C5.35434 14.5695 5.3186 13.9981 5.3283 13.5573C5.33545 13.1815 5.41202 12.8924 5.41509 12.847C5.45337 12.8189 5.66369 12.6064 5.98531 12.4124C6.3651 12.1836 6.87764 11.9323 7.40952 11.679C7.94145 11.4262 8.49073 11.1688 8.98493 10.9155C9.47857 10.6622 9.91096 10.4478 10.2882 10.0729C10.6655 9.69754 10.8814 9.27878 11.1361 8.78801C11.3909 8.29724 11.639 7.75029 11.8937 7.22178C12.1479 6.69321 12.4022 6.18406 12.6324 5.80669C12.8284 5.48496 13.0423 5.27455 13.0689 5.23777C13.1148 5.23215 13.4053 5.15095 13.7825 5.14329C14.2261 5.13308 14.802 5.16832 15.3901 5.21326C15.9776 5.25973 16.5821 5.31744 17.1369 5.34348C17.6919 5.36902 18.1666 5.38945 18.6817 5.25258C19.1972 5.1152 19.5985 4.85935 20.0661 4.5611C20.5337 4.26234 21.0228 3.91763 21.5093 3.5862C21.9953 3.25475 22.4746 2.93557 22.8636 2.72262C23.1944 2.54183 23.4854 2.46574 23.5282 2.44684L23.5283 2.44686ZM23.5283 8.65581C15.4442 8.65581 8.86534 15.1993 8.86534 23.246C8.86534 31.2935 15.4435 37.8271 23.5283 37.8271C31.6123 37.8271 38.1925 31.2933 38.1925 23.246C38.1925 15.1985 31.6122 8.65581 23.5283 8.65581V8.65581ZM23.5283 10.5908C30.574 10.5908 36.2564 16.2514 36.2564 23.2468C36.2564 30.2423 30.5736 35.893 23.5283 35.893C16.4825 35.893 10.8017 30.2422 10.8017 23.2468C10.8017 16.2514 16.4825 10.5908 23.5283 10.5908ZM23.5283 18.0975C23.2557 18.099 22.9963 18.216 22.8141 18.4187L20.6874 20.7674L17.0476 18.2676H17.0481C16.7239 18.0475 16.2987 18.0444 15.9715 18.2609C15.6448 18.477 15.4804 18.8692 15.5559 19.2542L17.1895 27.6021V27.6015C17.2768 28.0581 17.6755 28.388 18.1395 28.388H28.9185C29.383 28.388 29.7817 28.0581 29.8685 27.6015L31.502 19.2537L31.5026 19.2542C31.5781 18.8692 31.4137 18.477 31.0865 18.2609C30.7598 18.0444 30.3346 18.0475 30.0104 18.2676L26.3767 20.7674L24.2423 18.4187H24.2418C24.0601 18.216 23.8007 18.099 23.5282 18.0975H23.5283ZM23.5283 20.5105L25.5059 22.6968C25.8301 23.0558 26.3702 23.1197 26.7694 22.8459L29.1549 21.204L28.1258 26.4528H18.9314L17.9114 21.204L20.2893 22.8459C20.6879 23.1181 21.2265 23.0548 21.5507 22.6968L23.5283 20.5105ZM10.3944 40.6034C10.5797 40.9778 10.7726 41.346 10.9763 41.6805C11.2719 42.1662 11.5368 42.6043 12.0963 42.9256C12.6558 43.2468 13.1724 43.2539 13.7432 43.2657C14.314 43.2759 14.9352 43.2407 15.5412 43.1957C16.1471 43.1492 16.7388 43.0885 17.2278 43.0655C17.7169 43.0451 18.1288 43.0803 18.1778 43.0956C18.2105 43.1063 18.406 43.1952 18.6557 43.3336L12.6854 53.6332L10.6797 49.6538V49.6543C10.5076 49.3081 10.1457 49.0977 9.75975 49.1196L5.29854 49.3918L10.3944 40.6034ZM36.6648 40.6034L41.7604 49.3894L37.3069 49.1192C36.9205 49.0967 36.5581 49.3071 36.3855 49.6539L34.3797 53.6312L28.4019 43.3356C28.6536 43.1957 28.8496 43.1048 28.8833 43.0956C28.9323 43.0803 29.3443 43.0435 29.8333 43.0655C30.3224 43.0859 30.914 43.1492 31.52 43.1957C32.1259 43.2422 32.7472 43.2774 33.3179 43.2657C33.8887 43.2555 34.4038 43.2463 34.9633 42.9256C35.5228 42.6043 35.7892 42.1662 36.0853 41.6805C36.289 41.346 36.4799 40.9778 36.6652 40.6034H36.6648Z" fill="#009090"/>
</svg>
