<svg width="17" height="15" viewBox="0 0 17 15" fill="none" xmlns="http://www.w3.org/2000/svg">
<path d="M0.401338 6.57802L3.22161 6.54039L3.43233 6.59496C4.0024 6.92235 4.53861 7.29867 5.03907 7.72203C5.4003 8.02873 5.74649 8.36177 6.07386 8.72303C7.08607 7.09546 8.16413 5.5996 9.30239 4.22604C10.5498 2.72077 11.8724 1.35286 13.2628 0.105369L13.5375 0H16.6155L15.9947 0.688661C14.0888 2.80733 12.3578 4.99749 10.7944 7.25539C9.22902 9.51894 7.83111 11.8521 6.58749 14.253L6.19991 15L5.84432 14.2398C5.1877 12.8324 4.40315 11.5398 3.46619 10.3845C2.52924 9.22918 1.43989 8.20371 0.169922 7.33254L0.401338 6.57802Z" fill="#009090"/>
</svg>
