<svg width="20" height="20" viewBox="0 0 20 20" fill="none" xmlns="http://www.w3.org/2000/svg">
<path d="M14.7639 1.76294C14.4046 1.62655 14.0505 1.48229 13.6859 1.35901C13.1272 1.16754 12.5502 1.03901 11.9653 0.970817C10.9397 0.852786 9.91676 0.876392 8.90431 1.09934C7.43023 1.42196 6.11877 2.06982 4.99091 3.07177C3.57454 4.32815 2.66963 5.88617 2.30242 7.74844C2.06111 8.97072 2.10046 10.1904 2.41783 11.3969C2.81914 12.9156 3.5929 14.2139 4.74174 15.2815C5.96664 16.4198 7.41187 17.1175 9.06168 17.3798C9.75413 17.49 10.4545 17.5109 11.1522 17.4349C12.9515 17.2408 14.5357 16.5483 15.8918 15.3444C17.1219 14.2559 17.9665 12.9235 18.4517 11.3576C18.6904 10.5864 18.8189 9.79694 18.8478 8.98908C18.874 8.23893 18.8189 7.49926 18.6694 6.76222C18.6668 6.74386 18.6694 6.72288 18.693 6.69403C18.714 6.73862 18.7403 6.78058 18.7586 6.82517C19.0865 7.59369 19.3042 8.39368 19.3855 9.22514C19.6399 11.7641 18.9553 14.033 17.3501 16.0054C16.0203 17.6395 14.3128 18.707 12.2695 19.229C11.4092 19.4493 10.5331 19.5516 9.64922 19.5253C7.66891 19.4624 5.85385 18.8827 4.22764 17.7365C2.79028 16.7241 1.68866 15.4231 0.938504 13.8284C0.510968 12.9235 0.230316 11.9713 0.0939237 10.9773C-0.00574718 10.2559 -0.0293535 9.53202 0.0388424 8.8081C0.11753 7.94778 0.298511 7.10845 0.592278 6.29534C1.09588 4.90782 1.87751 3.69865 2.92668 2.66522C3.7424 1.86261 4.67879 1.23573 5.72271 0.768852C6.64598 0.357054 7.61121 0.0921391 8.62366 0.0265662C9.17447 -0.0101547 9.73315 -0.00753179 10.284 0.0265662C11.3987 0.094762 12.4584 0.401644 13.4498 0.918359C13.8564 1.12819 14.2341 1.39311 14.6223 1.63442C14.6774 1.66851 14.7246 1.7131 14.777 1.75245C14.7718 1.75507 14.7665 1.75769 14.7639 1.76294Z" fill="#51BB96"/>
<path d="M9.84832 14.9166C9.49685 14.914 9.22931 14.7514 9.03259 14.4681C8.96177 14.3684 8.90145 14.2609 8.84636 14.1533C7.79195 12.0734 6.74016 9.99339 5.68575 7.91341C5.61755 7.77702 5.53362 7.6485 5.45493 7.51735C5.33952 7.32588 5.35264 7.1449 5.48116 6.96654C5.63329 6.75933 5.84575 6.6308 6.07132 6.51802C6.54082 6.28458 6.56967 6.31605 6.88704 6.61769C7.2936 7.00326 7.70539 7.38096 8.10408 7.77177C8.59981 8.25701 9.08767 8.75274 9.57816 9.24323C9.5939 9.25897 9.60701 9.27471 9.62275 9.29044C9.76701 9.45569 9.76701 9.45306 9.92176 9.29044C10.588 8.59275 11.2437 7.88456 11.9257 7.19998C13.0666 6.05376 14.2627 4.96787 15.4955 3.9187C16.1538 3.3574 16.8174 2.80134 17.5361 2.3161C17.9453 2.0407 18.3623 1.77053 18.8397 1.62365C19.0233 1.56595 19.2253 1.54234 19.4167 1.54759C19.7184 1.55546 19.8941 1.81775 19.818 2.10889C19.7341 2.42626 19.5348 2.68069 19.3118 2.90888C18.9735 3.25511 18.6062 3.5751 18.2626 3.91608C17.7905 4.38821 17.3158 4.86033 16.862 5.35082C16.285 5.97245 15.7184 6.60195 15.1676 7.24719C13.6568 9.01504 12.2745 10.8747 11.2463 12.9756C11.0496 13.3796 10.8896 13.8019 10.706 14.211C10.6483 14.3369 10.5854 14.4628 10.5067 14.5782C10.3545 14.8038 10.1211 14.9166 9.84832 14.9166Z" fill="#51BB96"/>
</svg>
