<svg width="213" height="21" viewBox="0 0 213 21" fill="none" xmlns="http://www.w3.org/2000/svg">
<path d="M206.2 19.8317C205.414 19.7636 204.615 19.6545 203.798 19.6592C199.661 19.6357 195.566 19.2298 191.458 18.783C189.469 18.5797 187.452 18.5471 185.441 18.3597C183.257 18.1639 181.089 18.2237 178.905 17.5417C177.129 16.9835 175.135 17.0518 173.229 17.0565C169.591 17.0743 166 16.555 162.422 16.0767C159.34 15.6587 156.255 15.2596 153.127 15.4955C152.142 15.5706 151.131 15.3302 150.146 15.1716C148.349 14.8631 146.574 14.6554 144.744 14.6723C143.148 14.6878 141.549 14.3528 139.948 14.1536C138.158 13.9239 136.363 13.4796 134.574 13.4836C131.734 13.4936 128.972 12.7769 126.164 12.7141C123.431 12.6636 120.763 12.3316 118.057 11.9935C117.371 11.9027 116.649 12.0395 115.952 12.0246C114.945 11.9988 113.92 12.0868 112.96 11.8934C111.475 11.5767 109.923 11.6772 108.489 11.4076C104.92 10.7556 101.24 11.2725 97.7016 10.4308C97.215 10.3136 96.6875 10.2093 96.2083 10.2879C94.0648 10.6823 92.02 10.1004 89.9142 9.89782C87.3126 9.63492 84.7087 9.50782 82.1017 9.39968C77.0803 9.19491 72.0601 9.2238 67.0435 8.74747C63.154 8.3941 59.2371 8.2114 55.3185 8.28132C52.9175 8.3425 50.4957 8.05015 48.1002 7.95658C45.6827 7.87892 43.2909 7.88321 40.8734 7.80556C39.7719 7.76453 38.6563 7.44888 37.5714 7.5467C35.121 7.79446 32.7584 7.37547 30.3677 7.01032C29.6855 6.90057 28.9698 6.99942 28.2564 6.96247C27.1549 6.92145 26.0535 6.88043 24.9709 6.84245C24.5669 6.81636 24.1622 6.67344 23.768 6.70728C18.8384 7.13982 13.9183 6.42611 8.98614 6.39134C6.79299 6.36923 4.59115 5.91774 2.38081 5.63996C2.07457 5.61015 1.77748 5.52345 1.50239 5.42083C0.768812 5.14719 0.412291 4.58404 0.281873 3.82382C0.157556 3.02567 0.456874 2.3735 1.13037 2.05386C1.84482 1.72137 2.63202 1.42003 3.3985 1.36825C5.60321 1.19769 7.80857 1.14395 10.017 1.07125C14.5157 0.900109 19.0279 0.886771 23.5284 0.46302C24.1213 0.402772 24.7276 0.500325 25.3273 0.518977C28.8426 0.539795 32.3389 0.557565 35.8542 0.578383C38.6531 0.581222 41.4611 0.527172 44.26 0.53001C45.7557 0.53719 47.2582 0.623269 48.7698 0.652461C51.6793 0.692553 54.598 0.675757 57.5045 0.734812C60.5057 0.80911 63.5168 0.943343 66.5247 1.09654C68.2228 1.17518 69.9252 1.46851 71.6305 1.13978C71.93 1.0907 72.2765 0.990816 72.5327 1.09038C74.5977 1.90894 76.721 1.27784 78.798 1.41745C80.894 1.5601 83.0144 1.55106 85.1165 1.65579C87.4301 1.7751 89.7346 1.95129 92.0482 2.07059C93.5507 2.15667 95.0592 2.20482 96.5549 2.212C98.2652 2.21479 99.9156 2.2274 101.597 2.77029C102.982 3.22649 104.585 3.17306 106.077 3.08237C109.512 2.87631 112.927 3.03664 116.318 3.46549C118.108 3.69516 119.911 3.84898 121.709 3.78811C123.937 3.71846 126.106 4.0091 128.31 4.3248C129.791 4.54362 131.318 4.478 132.821 4.56408C136.328 4.75861 139.831 4.97211 143.332 5.20457C144.831 5.30961 146.294 5.52538 147.781 5.8231C150.435 6.36672 153.159 6.47419 155.858 6.73336C157.159 6.86481 158.453 6.91735 159.757 7.02984C162.958 7.31138 166.165 7.555 169.376 7.89648C171.384 8.1028 173.359 8.51771 175.341 8.7589C179.235 9.21013 183.161 9.45277 187.027 10.0747C191.199 10.7264 195.428 10.7841 199.614 11.2242C201.909 11.4573 204.233 11.6365 206.501 12.0403C207.859 12.2977 209.262 12.7569 210.453 13.4542C212.922 14.9019 212.556 17.7806 210.954 19.0402C209.464 20.2013 207.974 20.5256 206.2 19.8317Z" fill="#FDC703"/>
</svg>
