<svg width="268" height="193" viewBox="0 0 268 193" fill="none" xmlns="http://www.w3.org/2000/svg">
<path d="M117.749 105.935C117.749 118.873 107.268 122.506 94.3297 122.506C81.3917 122.506 70.9106 118.873 70.9106 105.935C70.9106 92.9968 81.3917 82.5157 94.3297 82.5157C107.268 82.5157 117.749 92.9968 117.749 105.935Z" fill="#3F327A"/>
<path d="M119.317 103.844C119.317 114.821 110.404 116.886 99.4264 116.886C88.4487 116.886 79.5359 114.848 79.5359 103.844C79.5359 92.8661 88.4487 83.9532 99.4264 83.9532C110.404 83.9532 119.317 92.8661 119.317 103.844Z" fill="#3F327A"/>
<path d="M129.32 60.8431C130.862 52.6581 125.477 44.7723 117.292 43.2297C109.107 41.6872 101.222 47.072 99.679 55.257C98.1365 63.442 103.521 71.3278 111.706 72.8704C119.891 74.4129 127.777 69.0281 129.32 60.8431Z" fill="#3F327A"/>
<path d="M112.892 86.1396C115.211 76.6164 109.371 67.0164 99.8475 64.6974C90.3243 62.3783 80.7243 68.2184 78.4053 77.7416C76.0863 87.2648 81.9263 96.8648 91.4495 99.1838C100.973 101.503 110.573 95.6627 112.892 86.1396Z" fill="#3F327A"/>
<path d="M112.291 103.905C114.18 95.6888 109.051 87.4969 100.835 85.6077C92.6188 83.7185 84.4269 88.8474 82.5376 97.0635C80.6484 105.28 85.7774 113.471 93.9934 115.361C102.209 117.25 110.401 112.121 112.291 103.905Z" fill="#3F327A"/>
<path d="M109.607 77.7532C117.324 70.0366 117.324 57.5255 109.607 49.8089C101.891 42.0923 89.3797 42.0923 81.6631 49.8089C73.9465 57.5255 73.9465 70.0366 81.6631 77.7532C89.3797 85.4698 101.891 85.4698 109.607 77.7532Z" fill="#3F327A"/>
<path d="M121.329 78.1246C121.277 78.1246 121.225 78.0985 121.173 78.0723C121.068 77.9939 121.042 77.811 121.12 77.7064C126.374 70.8846 129.223 65.1605 128.334 56.0386C128.308 55.9079 128.413 55.7772 128.569 55.7511C128.726 55.7249 128.831 55.8295 128.857 55.9863C129.772 65.2651 126.844 71.0937 121.538 78.0201C121.486 78.0723 121.408 78.1246 121.329 78.1246Z" fill="#3F327A"/>
<path d="M105.856 47.4918C105.778 47.4918 105.699 47.4395 105.647 47.3611C104.628 45.819 97.3353 41.9507 89.5987 43.3882C89.468 43.4144 89.3112 43.3098 89.285 43.1791C89.2589 43.0484 89.3634 42.8916 89.4941 42.8655C97.5706 41.3495 104.994 45.3747 106.091 47.0475C106.17 47.1781 106.144 47.335 106.013 47.4134C105.961 47.4918 105.908 47.4918 105.856 47.4918Z" fill="#3F327A"/>
<path d="M104.628 47.4915C104.601 47.4915 104.549 47.4915 104.523 47.4654C104.392 47.4131 104.34 47.2563 104.392 47.1256C104.418 47.0472 107.869 39.5719 118.141 40.8788C118.271 40.9049 118.376 41.0356 118.376 41.1663C118.35 41.297 118.219 41.4015 118.088 41.4015C108.182 40.1469 104.915 47.2824 104.889 47.3608C104.837 47.4392 104.732 47.4915 104.628 47.4915Z" fill="#3F327A"/>
<path d="M105.307 48.5897C105.15 48.5897 105.046 48.4851 105.046 48.3283C105.046 45.3225 102.772 40.6701 101.282 39.2325C101.177 39.128 101.177 38.9712 101.282 38.8666C101.387 38.7621 101.543 38.7621 101.648 38.8666C103.19 40.3564 105.569 45.218 105.569 48.3283C105.569 48.459 105.438 48.5897 105.307 48.5897Z" fill="#3F327A"/>
<path d="M128.204 116.311L136.698 168.063C146.029 168.977 155.099 171.67 163.41 176.008L187.614 188.633H170.232C161.058 186.202 140.227 180.765 128.413 176.819C127.21 176.427 126.269 175.433 125.93 174.179L117.2 141.768L128.204 116.311Z" fill="#FFC7B8"/>
<path d="M136.698 168.063C129.327 167.07 125.564 172.297 126.975 175.983C126.478 175.512 126.086 174.885 125.903 174.205C122.61 163.986 119.735 153.112 117.174 141.795L128.204 116.337C132.386 134.477 135.548 148.251 136.698 168.063Z" fill="#7165FC"/>
<path d="M76.9483 105.883C90.801 104.158 104.654 104.34 118.533 106.431C124.727 107.372 129.04 113.096 128.23 119.317L127.367 125.956L130.347 134.346C132.412 140.201 130.295 146.709 125.145 150.211C125.145 150.211 119.709 165.685 123.499 183.092L125.381 191.691H71.8253C77.7846 178.858 79.0131 164.352 75.2755 150.708L65.7354 115.867C69.4991 111.894 70.1526 109.568 76.9483 105.883Z" fill="#7165FC"/>
<path d="M136.698 188.633L128.256 181.027C127.21 180.086 125.747 179.772 124.414 180.19L112.73 183.771C110.848 184.346 108.81 184.294 106.954 183.562C90.9318 177.341 74.0732 170.52 66.4673 170.258C71.0152 159.934 74.1778 147.832 76.4256 134.581L66.1798 116.285C59.4625 136.045 52.1702 154.001 49.8439 174.336C49.6087 176.348 50.8633 178.204 52.7975 178.779C67.748 183.222 88.4226 187.457 109.96 191.639H135.6L136.698 188.633Z" fill="#FFC7B8"/>
<path d="M72.871 106.614L77.0529 105.882L74.5176 128.83L77.1052 134.345C77.4189 135.051 77.5234 135.809 77.3404 136.567C74.4653 149.035 70.0481 162.94 66.4673 170.284C59.9069 169.997 51.7782 171.748 49.844 174.362C51.6213 155.543 57.4238 138.109 64.2718 114.272C65.448 110.299 68.7674 107.319 72.871 106.614Z" fill="#7165FC"/>
<path d="M89.5466 101.674L95.2707 83.9006L107.006 89.494L109.672 102.85C109.986 104.366 111.214 105.516 112.757 105.673C114.691 105.882 116.625 106.143 118.533 106.431C119.16 106.535 119.761 106.666 120.336 106.849C116.259 122.322 93.2058 120.754 77.0791 105.856C79.7974 105.516 82.4895 105.255 85.2078 105.072C87.1942 104.941 88.9193 103.608 89.5466 101.674Z" fill="#FFC7B8"/>
<path d="M119.265 50.9675C128.099 65.3953 124.675 87.429 116.599 94.277C108.522 101.125 87.3772 79.8492 87.3772 79.8492L88.8409 56.2472L119.265 50.9675Z" fill="#FFC7B8"/>
<path d="M109.881 76.1901C109.855 76.1901 109.829 76.1901 109.829 76.1901C109.333 76.164 108.94 75.7197 108.993 75.2231L109.071 74.1776C109.097 73.681 109.542 73.2889 110.038 73.3412C110.535 73.3673 110.927 73.8116 110.875 74.3083L110.796 75.3537C110.77 75.8242 110.352 76.1901 109.881 76.1901Z" fill="#3F327A"/>
<path d="M119.265 76.1901C119.239 76.1901 119.212 76.1901 119.212 76.1901C118.716 76.164 118.324 75.7197 118.376 75.2231L118.454 74.1776C118.481 73.681 118.925 73.2889 119.422 73.3412C119.918 73.3673 120.31 73.8116 120.258 74.3083L120.179 75.3537C120.153 75.8242 119.761 76.1901 119.265 76.1901Z" fill="#3F327A"/>
<path d="M107.764 70.2568C107.66 70.2568 107.555 70.2046 107.477 70.1262C107.346 69.9693 107.346 69.708 107.503 69.5773C108.261 68.9238 110.195 68.3227 111.554 68.8454C111.763 68.9238 111.842 69.1591 111.763 69.342C111.685 69.5511 111.45 69.6295 111.267 69.5511C110.247 69.1591 108.601 69.6295 108.026 70.1262C107.947 70.2046 107.869 70.2568 107.764 70.2568Z" fill="#3F327A"/>
<path d="M121.617 70.074C121.539 70.074 121.46 70.0478 121.382 69.9956C120.572 69.3944 118.977 69.2637 118.062 69.5774C117.853 69.6296 117.644 69.5251 117.566 69.316C117.514 69.1069 117.618 68.8978 117.827 68.8194C118.951 68.4796 120.807 68.5841 121.852 69.3683C122.035 69.4989 122.061 69.7342 121.931 69.9171C121.852 70.0217 121.748 70.074 121.617 70.074Z" fill="#3F327A"/>
<path d="M110.457 84.9722L118.559 85.2335C118.559 85.2335 117.514 88.9973 114.665 88.9973C111.397 88.9973 110.457 84.9722 110.457 84.9722Z" fill="white"/>
<path d="M115.396 82.7767C115.292 82.7767 115.187 82.7244 115.161 82.6198C115.109 82.4891 115.187 82.3323 115.318 82.2801C116.05 81.9925 116.442 81.2084 116.233 80.4243L115.318 77.2094C115.266 77.0787 115.37 76.9219 115.501 76.8958C115.632 76.8435 115.788 76.948 115.815 77.0787L116.729 80.2936C117.017 81.313 116.494 82.3846 115.501 82.7767C115.475 82.7767 115.449 82.7767 115.396 82.7767Z" fill="#FF9F87"/>
<path d="M84.5019 54.3394C84.8679 52.3268 86.4622 50.7847 88.501 50.471L115.762 46.4982C117.879 46.1845 119.918 47.413 120.624 49.4517L123.917 58.8872C120.937 58.8872 118.245 57.9463 116.363 56.4826C113.096 61.0044 106.719 66.3625 95.2705 64.3761C96.6035 70.5706 92.892 77.105 84.6065 83.3518C81.3655 81.4699 84.5019 54.3394 84.5019 54.3394Z" fill="#3F327A"/>
<path d="M116.599 56.4048C116.625 56.2742 116.572 56.1435 116.468 56.0912C116.337 56.0389 116.18 56.0912 116.128 56.2219C114.351 60.2732 111.293 63.3312 107.973 64.4029C107.843 64.4551 107.764 64.5858 107.816 64.7165C107.869 64.8472 107.999 64.9256 108.13 64.8733C111.58 63.7756 114.769 60.613 116.599 56.4048C116.599 56.4048 116.599 56.4048 116.599 56.4048Z" fill="#3F327A"/>
<path d="M104.968 46.3673C102.223 45.2434 99.0606 45.7139 96.7605 47.5957C89.8341 53.163 87.3511 61.0565 87.3511 70.8579V73.7069L93.8331 73.158V65.2384C93.8593 57.3711 98.1196 50.1572 104.968 46.3673Z" fill="white"/>
<path d="M94.1467 71.1195C93.1534 70.44 91.6898 69.9172 90.3567 69.8911C89.076 69.8649 87.8476 70.1002 86.7237 70.5184C86.7237 70.6491 86.7237 70.7797 86.7237 70.8843L86.6714 74.1776L94.1205 73.6548L94.1467 71.1195Z" fill="#3F327A"/>
<path d="M107.32 88.8143C107.215 88.8143 107.085 88.7881 106.954 88.762L95.9762 85.3119C95.3489 85.1289 95.0091 84.4493 95.2182 83.8482C95.4011 83.2209 96.0807 82.8811 96.6819 83.0902L107.66 86.5403C108.287 86.7233 108.627 87.4028 108.418 88.004C108.287 88.4745 107.816 88.8143 107.32 88.8143Z" fill="white"/>
<path d="M99.4002 83.9005L96.708 83.0641C96.0807 82.8812 95.4273 83.2209 95.2444 83.8221C95.0614 84.4494 95.4012 85.1028 96.0023 85.2858L98.3808 86.0438C98.799 85.3903 99.1649 84.6846 99.4002 83.9005Z" fill="#3F327A"/>
<path d="M107.32 89.9123C108.576 89.9123 109.594 88.8942 109.594 87.6383C109.594 86.3825 108.576 85.3644 107.32 85.3644C106.064 85.3644 105.046 86.3825 105.046 87.6383C105.046 88.8942 106.064 89.9123 107.32 89.9123Z" fill="#3F327A"/>
<path d="M95.7642 86.8859C99.648 84.1278 100.561 78.7434 97.8024 74.8597C95.0442 70.9759 89.6599 70.0634 85.7761 72.8215C81.8923 75.5796 80.9798 80.964 83.738 84.8478C86.4961 88.7316 91.8804 89.6441 95.7642 86.8859Z" fill="white"/>
<path d="M88.71 85.1555C91.4671 85.1555 93.7022 82.9204 93.7022 80.1633C93.7022 77.4062 91.4671 75.1711 88.71 75.1711C85.9529 75.1711 83.7178 77.4062 83.7178 80.1633C83.7178 82.9204 85.9529 85.1555 88.71 85.1555Z" fill="#3F327A"/>
<path d="M85.3384 80.6337C85.3384 81.5746 86.0964 82.3326 87.0373 82.3326C87.9782 82.3326 88.7362 81.5746 88.7362 80.6337C88.7362 79.6927 87.9782 78.9348 87.0373 78.9348C86.0964 78.9609 85.3384 79.7189 85.3384 80.6337Z" fill="white"/>
<path d="M126.714 174.283C126.688 174.283 126.688 174.283 126.714 174.283C126.557 174.283 126.452 174.153 126.452 173.996C126.688 170.885 129.798 167.618 135.078 167.671C135.235 167.671 135.339 167.801 135.339 167.932C135.339 168.063 135.208 168.193 135.078 168.193C135.025 168.193 134.973 168.193 134.921 168.193C130.033 168.193 127.184 171.173 126.975 174.022C126.949 174.179 126.844 174.283 126.714 174.283Z" fill="#3F327A"/>
<path d="M122.088 167.017C121.931 166.991 121.826 166.886 121.826 166.73C122.636 157.451 124.388 150.211 124.414 150.132L124.44 150.028L124.544 149.976C134.843 144.042 126.74 126.243 126.662 126.06C126.609 125.929 126.662 125.772 126.792 125.72C126.923 125.668 127.08 125.72 127.132 125.851C127.158 125.903 129.275 130.477 130.033 135.757C131.053 142.736 129.275 147.806 124.91 150.394C124.701 151.335 123.133 158.157 122.375 166.808C122.349 166.913 122.218 167.017 122.088 167.017Z" fill="#3F327A"/>
<path d="M50.8633 173.682C50.7849 173.682 50.7065 173.656 50.6542 173.578C50.5758 173.447 50.602 173.29 50.7065 173.212C53.268 171.382 58.992 170.049 64.6377 169.997C64.7684 169.997 64.8991 170.102 64.8991 170.258C64.8991 170.415 64.7945 170.52 64.6377 170.52C59.0966 170.598 53.5032 171.879 51.0202 173.63C50.9679 173.682 50.9156 173.682 50.8633 173.682Z" fill="#3F327A"/>
<path d="M80.1894 108.784C80.1371 108.784 80.0848 108.757 80.0326 108.731C79.4837 108.287 78.9087 107.843 78.3598 107.372C78.2552 107.268 78.2291 107.111 78.3336 107.006C78.4382 106.902 78.595 106.876 78.6996 106.98C79.2485 107.451 79.7973 107.895 80.3462 108.313C80.4508 108.391 80.4769 108.574 80.3985 108.679C80.3462 108.757 80.2678 108.784 80.1894 108.784Z" fill="#3F327A"/>
<path d="M104.236 118.036C103.321 118.036 102.354 117.984 101.387 117.879C95.1137 117.252 88.318 114.56 82.228 110.352C82.0973 110.273 82.0712 110.116 82.1496 109.986C82.228 109.855 82.3848 109.829 82.5155 109.907C88.5009 114.063 95.2182 116.703 101.413 117.33C107.607 117.958 112.913 116.52 116.285 113.279C116.389 113.174 116.546 113.174 116.651 113.279C116.755 113.384 116.755 113.54 116.651 113.645C113.723 116.546 109.359 118.036 104.236 118.036Z" fill="#3F327A"/>
<path d="M117.618 112.573C117.566 112.573 117.513 112.547 117.461 112.521C117.357 112.443 117.33 112.26 117.435 112.155C118.219 111.188 118.899 110.064 119.395 108.862C119.448 108.731 119.604 108.679 119.735 108.731C119.866 108.783 119.918 108.94 119.866 109.071C119.343 110.325 118.663 111.476 117.827 112.495C117.775 112.547 117.696 112.573 117.618 112.573Z" fill="#3F327A"/>
<path d="M107.058 94.591C107.032 94.591 106.98 94.591 106.954 94.5649C103.922 93.2842 100.367 91.1148 96.4467 88.109C96.3422 88.0306 96.3161 87.8476 96.3945 87.7431C96.4729 87.6385 96.6558 87.6124 96.7604 87.6908C100.655 90.6704 104.157 92.8398 107.137 94.0944C107.268 94.1467 107.346 94.3035 107.268 94.4342C107.268 94.5126 107.163 94.591 107.058 94.591Z" fill="#3F327A"/>
<path d="M74.9881 146.421C74.9619 146.421 74.9358 146.421 74.9097 146.421C74.779 146.395 74.7006 146.238 74.7267 146.107C76.5563 139.416 78.2814 132.83 79.1962 125.851C79.2223 125.72 79.353 125.616 79.4837 125.616C79.6144 125.642 79.7189 125.772 79.7189 125.903C78.8041 132.908 77.079 139.521 75.2233 146.212C75.2233 146.343 75.1187 146.421 74.9881 146.421Z" fill="#3F327A"/>
<path d="M120.336 151.518C117.2 151.518 114.769 150.106 114.743 150.08C114.612 150.002 114.586 149.845 114.664 149.714C114.743 149.584 114.9 149.558 115.03 149.636C115.083 149.662 119.866 152.459 124.571 149.976C124.701 149.897 124.858 149.95 124.936 150.08C125.015 150.211 124.963 150.368 124.832 150.446C123.264 151.23 121.722 151.518 120.336 151.518Z" fill="#3F327A"/>
<path d="M95.8717 152.093C95.0092 152.093 94.0944 152.041 93.1011 151.884C85.3906 150.76 82.9599 141.586 82.9337 141.481C82.9076 141.351 82.986 141.194 83.1167 141.168C83.2474 141.141 83.4042 141.22 83.4303 141.351C83.4565 141.429 85.8088 150.289 93.1534 151.361C99.4525 152.276 103.661 149.636 103.713 149.61C103.844 149.531 104 149.558 104.079 149.688C104.157 149.819 104.131 149.976 104 150.054C103.87 150.159 100.786 152.093 95.8717 152.093Z" fill="#3F327A"/>
<path d="M153.4 186.229H100.89C99.3742 186.229 98.1719 187.457 98.1719 188.947C98.1719 190.463 99.4003 191.665 100.89 191.665H153.4C154.916 191.665 156.118 190.437 156.118 188.947C156.118 187.457 154.89 186.229 153.4 186.229Z" fill="white"/>
<path d="M150.786 186.124L169.422 142.658C170.363 140.462 172.532 139.025 174.911 139.025H239.47C240.202 139.025 240.829 139.312 241.274 139.756L243.26 141.743L153.269 190.959L150.316 189.313C149.636 188.607 150.342 187.143 150.786 186.124Z" fill="white"/>
<path d="M150.342 187.404C150.316 187.404 150.264 187.404 150.237 187.378C150.107 187.326 150.054 187.169 150.107 187.038L169.161 142.553C170.154 140.253 172.402 138.763 174.885 138.763H239.444C239.601 138.763 239.705 138.867 239.705 139.024C239.705 139.181 239.601 139.286 239.444 139.286H174.885C172.585 139.286 170.546 140.645 169.631 142.762L150.577 187.248C150.551 187.352 150.446 187.404 150.342 187.404Z" fill="#3F327A"/>
<path d="M176.819 140.985C174.44 140.985 172.271 142.422 171.33 144.618L152.694 188.084L151.727 190.332C151.44 190.985 151.936 191.717 152.642 191.717H222.219C223.056 191.717 223.814 191.221 224.127 190.463L225.147 188.11L243.783 144.644C244.515 142.919 243.26 141.011 241.404 141.011H176.819V140.985Z" fill="#3F327A"/>
<path d="M145.925 188.973C145.925 189.835 146.63 190.567 147.519 190.567C148.408 190.567 149.113 189.861 149.113 188.973C149.113 188.11 148.408 187.378 147.519 187.378C146.63 187.378 145.925 188.084 145.925 188.973ZM146.604 188.973C146.604 188.476 147.022 188.058 147.519 188.058C148.016 188.058 148.434 188.476 148.434 188.973C148.434 189.469 148.016 189.888 147.519 189.888C147.022 189.888 146.604 189.469 146.604 188.973Z" fill="#3F327A"/>
<path d="M199.768 172.323C205.21 172.323 209.621 170.252 209.621 167.697C209.621 165.142 205.21 163.071 199.768 163.071C194.326 163.071 189.914 165.142 189.914 167.697C189.914 170.252 194.326 172.323 199.768 172.323Z" fill="white"/>
<path d="M108.574 189.234H104.497C104.34 189.234 104.236 189.13 104.236 188.973C104.236 188.816 104.34 188.711 104.497 188.711H108.574C108.731 188.711 108.836 188.816 108.836 188.973C108.836 189.13 108.731 189.234 108.574 189.234Z" fill="#3F327A"/>
<path d="M117.618 189.234H113.54C113.384 189.234 113.279 189.13 113.279 188.973C113.279 188.816 113.384 188.711 113.54 188.711H117.618C117.775 188.711 117.879 188.816 117.879 188.973C117.879 189.13 117.775 189.234 117.618 189.234Z" fill="#3F327A"/>
<path d="M100.89 191.953C99.2434 191.953 97.9104 190.62 97.9104 188.973C97.9104 187.326 99.2434 185.993 100.89 185.993H147.179C147.336 185.993 147.441 186.098 147.441 186.255C147.441 186.411 147.336 186.516 147.179 186.516H100.89C99.5309 186.516 98.4331 187.614 98.4331 188.973C98.4331 190.332 99.5309 191.43 100.89 191.43C101.047 191.43 101.151 191.534 101.151 191.691C101.151 191.822 101.021 191.953 100.89 191.953Z" fill="#3F327A"/>
<path d="M163.254 93.6501C163.123 93.6501 163.019 93.5978 162.94 93.4933L159.202 88.7101H143.729C142.056 88.7101 140.723 87.351 140.723 85.7043V74.3869C140.723 72.7141 142.083 71.3811 143.729 71.3811H170.18C171.853 71.3811 173.186 72.7402 173.186 74.3869V85.7043C173.186 87.3771 171.827 88.7101 170.18 88.7101H167.279L163.541 93.4933C163.489 93.5978 163.384 93.6501 163.254 93.6501ZM143.729 72.1652C142.501 72.1652 141.508 73.1584 141.508 74.3869V85.7043C141.508 86.9328 142.501 87.926 143.729 87.926H159.412C159.542 87.926 159.647 87.9783 159.725 88.0828L163.254 92.6307L166.782 88.0828C166.861 87.9783 166.965 87.926 167.096 87.926H170.18C171.409 87.926 172.402 86.9328 172.402 85.7043V74.3869C172.402 73.1584 171.409 72.1652 170.18 72.1652H143.729Z" fill="#3F327A"/>
<path d="M156.667 77.5499H147.388C147.179 77.5499 146.996 77.3669 146.996 77.1578C146.996 76.9487 147.179 76.7657 147.388 76.7657H156.667C156.876 76.7657 157.059 76.9487 157.059 77.1578C157.059 77.393 156.876 77.5499 156.667 77.5499Z" fill="#3F327A"/>
<path d="M166.547 77.5497H160.274C160.065 77.5497 159.882 77.3668 159.882 77.1577C159.882 76.9486 160.065 76.7656 160.274 76.7656H166.547C166.756 76.7656 166.939 76.9486 166.939 77.1577C166.939 77.3929 166.756 77.5497 166.547 77.5497Z" fill="#3F327A"/>
<path d="M150.786 80.712H147.388C147.179 80.712 146.996 80.5291 146.996 80.32C146.996 80.1109 147.179 79.9279 147.388 79.9279H150.786C150.995 79.9279 151.178 80.1109 151.178 80.32C151.178 80.5552 150.995 80.712 150.786 80.712Z" fill="#3F327A"/>
<path d="M166.547 80.7121H154.393C154.184 80.7121 154.001 80.5291 154.001 80.32C154.001 80.1109 154.184 79.928 154.393 79.928H166.547C166.756 79.928 166.939 80.1109 166.939 80.32C166.939 80.5553 166.756 80.7121 166.547 80.7121Z" fill="#3F327A"/>
<path d="M160.745 83.8748H147.388C147.179 83.8748 146.996 83.6918 146.996 83.4827C146.996 83.2736 147.179 83.0906 147.388 83.0906H160.745C160.954 83.0906 161.137 83.2736 161.137 83.4827C161.11 83.7179 160.954 83.8748 160.745 83.8748Z" fill="#3F327A"/>
<path d="M182.778 127.942C182.647 127.942 182.543 127.89 182.465 127.785L178.361 122.532H175.146C173.343 122.532 171.879 121.068 171.879 119.264V106.823C171.879 105.02 173.343 103.556 175.146 103.556H204.211C206.014 103.556 207.478 105.02 207.478 106.823V119.264C207.478 121.068 206.014 122.532 204.211 122.532H187.195L183.092 127.785C183.013 127.89 182.883 127.942 182.778 127.942ZM175.146 104.34C173.787 104.34 172.663 105.464 172.663 106.823V119.264C172.663 120.624 173.787 121.748 175.146 121.748H178.544C178.675 121.748 178.779 121.8 178.858 121.904L182.778 126.923L186.699 121.904C186.777 121.8 186.882 121.748 187.012 121.748H204.211C205.57 121.748 206.694 120.624 206.694 119.264V106.823C206.694 105.464 205.57 104.34 204.211 104.34H175.146Z" fill="#3F327A"/>
<path d="M189.286 111.554H177.734C177.472 111.554 177.263 111.345 177.263 111.084C177.263 110.822 177.472 110.613 177.734 110.613H189.286C189.548 110.613 189.757 110.822 189.757 111.084C189.757 111.345 189.574 111.554 189.286 111.554Z" fill="#3F327A"/>
<path d="M201.623 111.554H193.808C193.547 111.554 193.338 111.345 193.338 111.083C193.338 110.822 193.547 110.613 193.808 110.613H201.623C201.885 110.613 202.094 110.822 202.094 111.083C202.094 111.345 201.885 111.554 201.623 111.554Z" fill="#3F327A"/>
<path d="M181.994 115.5H177.734C177.472 115.5 177.263 115.291 177.263 115.03C177.263 114.769 177.472 114.559 177.734 114.559H181.968C182.229 114.559 182.438 114.769 182.438 115.03C182.465 115.265 182.255 115.5 181.994 115.5Z" fill="#3F327A"/>
<path d="M194.853 115.501H186.463C186.202 115.501 185.993 115.291 185.993 115.03C185.993 114.769 186.202 114.56 186.463 114.56H194.853C195.115 114.56 195.324 114.769 195.324 115.03C195.35 115.265 195.115 115.501 194.853 115.501Z" fill="#3F327A"/>
<path d="M267.358 85.6259H244.305C244.096 85.6259 243.939 85.7827 243.939 85.9918V99.2957C243.939 99.5048 244.096 99.6617 244.305 99.6617H267.358C267.568 99.6617 267.724 99.5048 267.724 99.2957V85.9918C267.724 85.7827 267.568 85.6259 267.358 85.6259ZM266.235 86.3316L255.858 93.5717L245.482 86.3316H266.235ZM244.697 98.9037V86.6453L255.649 94.3035C255.701 94.3558 255.78 94.3558 255.858 94.3558C255.936 94.3558 255.989 94.3296 256.067 94.3035L267.019 86.6453V98.9037H244.697Z" fill="white"/>
<path d="M250.814 36.5139H179.119C178.91 36.5139 178.727 36.3309 178.727 36.1218V22.1906C178.727 21.9815 178.91 21.7986 179.119 21.7986H250.84C251.049 21.7986 251.232 21.9815 251.232 22.1906V36.148C251.206 36.3571 251.049 36.5139 250.814 36.5139ZM179.511 35.7298H250.448V22.5827H179.511V35.7298Z" fill="#3F327A"/>
<path d="M187.222 31.1298C188.304 31.1298 189.182 30.2522 189.182 29.1695C189.182 28.0869 188.304 27.2092 187.222 27.2092C186.139 27.2092 185.261 28.0869 185.261 29.1695C185.261 30.2522 186.139 31.1298 187.222 31.1298Z" fill="#3F327A"/>
<path d="M194.697 31.1298C195.78 31.1298 196.657 30.2522 196.657 29.1695C196.657 28.0869 195.78 27.2092 194.697 27.2092C193.614 27.2092 192.737 28.0869 192.737 29.1695C192.737 30.2522 193.614 31.1298 194.697 31.1298Z" fill="#3F327A"/>
<path d="M202.172 31.1298C203.255 31.1298 204.133 30.2522 204.133 29.1695C204.133 28.0869 203.255 27.2092 202.172 27.2092C201.09 27.2092 200.212 28.0869 200.212 29.1695C200.212 30.2522 201.09 31.1298 202.172 31.1298Z" fill="#3F327A"/>
<path d="M209.648 31.1298C210.73 31.1298 211.608 30.2522 211.608 29.1695C211.608 28.0869 210.73 27.2092 209.648 27.2092C208.565 27.2092 207.687 28.0869 207.687 29.1695C207.687 30.2522 208.565 31.1298 209.648 31.1298Z" fill="#3F327A"/>
<path d="M217.123 31.1298C218.206 31.1298 219.083 30.2522 219.083 29.1695C219.083 28.0869 218.206 27.2092 217.123 27.2092C216.04 27.2092 215.163 28.0869 215.163 29.1695C215.163 30.2522 216.04 31.1298 217.123 31.1298Z" fill="#3F327A"/>
<path d="M224.598 31.1298C225.681 31.1298 226.559 30.2522 226.559 29.1695C226.559 28.0869 225.681 27.2092 224.598 27.2092C223.516 27.2092 222.638 28.0869 222.638 29.1695C222.638 30.2522 223.516 31.1298 224.598 31.1298Z" fill="#3F327A"/>
<path d="M250.814 57.6588H179.119C178.91 57.6588 178.727 57.4758 178.727 57.2667V43.3094C178.727 43.1003 178.91 42.9174 179.119 42.9174H250.84C251.049 42.9174 251.232 43.1003 251.232 43.3094V57.2667C251.206 57.4758 251.049 57.6588 250.814 57.6588ZM179.511 56.8747H250.448V43.7015H179.511V56.8747Z" fill="#3F327A"/>
<path d="M187.222 52.2483C188.304 52.2483 189.182 51.3706 189.182 50.288C189.182 49.2054 188.304 48.3277 187.222 48.3277C186.139 48.3277 185.261 49.2054 185.261 50.288C185.261 51.3706 186.139 52.2483 187.222 52.2483Z" fill="#3F327A"/>
<path d="M194.697 52.2485C195.78 52.2485 196.657 51.3708 196.657 50.2882C196.657 49.2055 195.78 48.3279 194.697 48.3279C193.614 48.3279 192.737 49.2055 192.737 50.2882C192.737 51.3708 193.614 52.2485 194.697 52.2485Z" fill="#3F327A"/>
<path d="M202.172 52.2485C203.255 52.2485 204.133 51.3708 204.133 50.2882C204.133 49.2055 203.255 48.3279 202.172 48.3279C201.09 48.3279 200.212 49.2055 200.212 50.2882C200.212 51.3708 201.09 52.2485 202.172 52.2485Z" fill="#3F327A"/>
<path d="M209.648 52.2485C210.73 52.2485 211.608 51.3708 211.608 50.2882C211.608 49.2055 210.73 48.3279 209.648 48.3279C208.565 48.3279 207.687 49.2055 207.687 50.2882C207.687 51.3708 208.565 52.2485 209.648 52.2485Z" fill="#3F327A"/>
<path d="M21.903 96.6034C21.6939 96.6034 21.5371 96.4466 21.5371 96.2375V91.193C21.5371 90.9839 21.6939 90.8271 21.903 90.8271C22.1121 90.8271 22.269 90.9839 22.269 91.193V96.2375C22.269 96.4466 22.1121 96.6034 21.903 96.6034Z" fill="#3F327A"/>
<path d="M19.1849 99.3479H16.7541C16.545 99.3479 16.3882 99.1911 16.3882 98.982C16.3882 98.7729 16.545 98.6161 16.7541 98.6161H19.1849C19.394 98.6161 19.5508 98.7729 19.5508 98.982C19.5508 99.1911 19.3678 99.3479 19.1849 99.3479Z" fill="#3F327A"/>
<path d="M21.903 107.111C21.6939 107.111 21.5371 106.954 21.5371 106.745V101.7C21.5371 101.491 21.6939 101.334 21.903 101.334C22.1121 101.334 22.269 101.491 22.269 101.7V106.745C22.269 106.954 22.1121 107.111 21.903 107.111Z" fill="#3F327A"/>
<path d="M27.0784 99.3479H24.6477C24.4386 99.3479 24.2817 99.1911 24.2817 98.982C24.2817 98.7729 24.4386 98.6161 24.6477 98.6161H27.0784C27.2875 98.6161 27.4444 98.7729 27.4444 98.982C27.4444 99.1911 27.2614 99.3479 27.0784 99.3479Z" fill="#3F327A"/>
<path d="M156.667 14.7677C156.458 14.7677 156.301 14.6109 156.301 14.4018V9.35732C156.301 9.14822 156.458 8.99139 156.667 8.99139C156.876 8.99139 157.033 9.14822 157.033 9.35732V14.4018C157.033 14.6109 156.85 14.7677 156.667 14.7677Z" fill="#3F327A"/>
<path d="M153.949 17.4862H151.518C151.309 17.4862 151.152 17.3294 151.152 17.1203C151.152 16.9112 151.309 16.7544 151.518 16.7544H153.949C154.158 16.7544 154.315 16.9112 154.315 17.1203C154.315 17.3294 154.132 17.4862 153.949 17.4862Z" fill="#3F327A"/>
<path d="M156.667 25.2749C156.458 25.2749 156.301 25.1181 156.301 24.909V19.8645C156.301 19.6554 156.458 19.4985 156.667 19.4985C156.876 19.4985 157.033 19.6554 157.033 19.8645V24.909C157.033 25.0919 156.85 25.2749 156.667 25.2749Z" fill="#3F327A"/>
<path d="M161.816 17.4862H159.385C159.176 17.4862 159.02 17.3294 159.02 17.1203C159.02 16.9112 159.176 16.7544 159.385 16.7544H161.816C162.025 16.7544 162.182 16.9112 162.182 17.1203C162.182 17.3294 162.025 17.4862 161.816 17.4862Z" fill="#3F327A"/>
<path d="M44.6164 63.2523C42.6823 63.2523 41.0879 61.684 41.0879 59.7237C41.0879 57.7896 42.6561 56.1952 44.6164 56.1952C46.5506 56.1952 48.145 57.7634 48.145 59.7237C48.145 61.6579 46.5767 63.2523 44.6164 63.2523ZM44.6164 56.927C43.0743 56.927 41.8197 58.1816 41.8197 59.7237C41.8197 61.2658 43.0743 62.5204 44.6164 62.5204C46.1585 62.5204 47.4131 61.2658 47.4131 59.7237C47.4393 58.1816 46.1847 56.927 44.6164 56.927Z" fill="#3F327A"/>
<path d="M2.48302 22.6087C1.38525 22.6087 0.496582 21.7201 0.496582 20.6223C0.496582 19.5245 1.38525 18.6359 2.48302 18.6359C3.58078 18.6359 4.46945 19.5245 4.46945 20.6223C4.46945 21.7201 3.58078 22.6087 2.48302 22.6087ZM2.48302 19.3416C1.77731 19.3416 1.20229 19.9166 1.20229 20.6223C1.20229 21.328 1.77731 21.903 2.48302 21.903C3.18872 21.903 3.76375 21.328 3.76375 20.6223C3.76375 19.9166 3.18872 19.3416 2.48302 19.3416Z" fill="#3F327A"/>
<path d="M142.84 127.942C141.743 127.942 140.854 127.053 140.854 125.955C140.854 124.858 141.743 123.969 142.84 123.969C143.938 123.969 144.827 124.858 144.827 125.955C144.827 127.053 143.938 127.942 142.84 127.942ZM142.84 124.675C142.135 124.675 141.56 125.25 141.56 125.955C141.56 126.661 142.135 127.236 142.84 127.236C143.546 127.236 144.121 126.661 144.121 125.955C144.121 125.25 143.546 124.675 142.84 124.675Z" fill="#3F327A"/>
<path d="M25.8758 155.805C24.7781 155.805 23.8894 154.916 23.8894 153.818C23.8894 152.72 24.7781 151.832 25.8758 151.832C26.9736 151.832 27.8623 152.72 27.8623 153.818C27.8623 154.916 26.9736 155.805 25.8758 155.805ZM25.8758 152.564C25.1701 152.564 24.5951 153.139 24.5951 153.844C24.5951 154.55 25.1701 155.125 25.8758 155.125C26.5815 155.125 27.1566 154.55 27.1566 153.844C27.1566 153.139 26.5815 152.564 25.8758 152.564Z" fill="#3F327A"/>
<path d="M202.277 7.05707C200.342 7.05707 198.748 5.48884 198.748 3.52854C198.748 1.59438 200.316 0 202.277 0C204.211 0 205.805 1.56824 205.805 3.52854C205.779 5.48884 204.211 7.05707 202.277 7.05707ZM202.277 0.731845C200.734 0.731845 199.48 1.98644 199.48 3.52854C199.48 5.07064 200.734 6.32523 202.277 6.32523C203.819 6.32523 205.073 5.07064 205.073 3.52854C205.073 1.98644 203.819 0.731845 202.277 0.731845Z" fill="#3F327A"/>
<path d="M20.8054 192.057H255.78C255.989 192.057 256.146 191.9 256.146 191.691C256.146 191.482 255.989 191.325 255.78 191.325H20.8054C20.5963 191.325 20.4395 191.482 20.4395 191.691C20.4395 191.9 20.5963 192.057 20.8054 192.057Z" fill="#3F327A"/>
<path d="M0.365922 192.057H12.6766C12.8857 192.057 13.0425 191.9 13.0425 191.691C13.0425 191.482 12.8857 191.325 12.6766 191.325H0.365922C0.156824 191.325 0 191.482 0 191.691C0 191.9 0.156824 192.057 0.365922 192.057Z" fill="#00152E"/>
</svg>
