<svg width="337" height="194" viewBox="0 0 337 194" fill="none" xmlns="http://www.w3.org/2000/svg">
<path d="M303.233 183.519H280.923V183.721H303.233V183.519Z" fill="#EBEBEB"/>
<path d="M223.229 185.406H217.365V185.608H223.229V185.406Z" fill="#EBEBEB"/>
<path d="M280.249 177.318H267.308V177.52H280.249V177.318Z" fill="#EBEBEB"/>
<path d="M64.5018 178.397H35.385V178.599H64.5018V178.397Z" fill="#EBEBEB"/>
<path d="M74.7467 178.397H70.5005V178.599H74.7467V178.397Z" fill="#EBEBEB"/>
<path d="M151.785 181.295H88.6311V181.497H151.785V181.295Z" fill="#EBEBEB"/>
<path d="M337 172.668H0V172.87H337V172.668Z" fill="#EBEBEB"/>
<path d="M128.397 1.26959H117.681C111.615 1.26959 107.099 6.18979 107.638 12.3232L119.635 149.213C120.174 155.279 125.566 160.266 131.632 160.266H142.349L128.397 1.26959Z" fill="#7165FC"/>
<path d="M134.463 160.266H228.486C234.552 160.266 239.068 155.346 238.529 149.212L226.599 12.3231C226.06 6.25707 220.668 1.26947 214.602 1.26947H120.579C114.513 1.26947 109.997 6.18967 110.536 12.3231L122.533 149.212C123.005 155.278 128.397 160.266 134.463 160.266Z" fill="#7165FC" stroke="#7165FC" stroke-width="2"/>
<path d="M134.463 160.266H228.486C234.552 160.266 239.068 155.346 238.529 149.212L226.599 12.3231C226.06 6.25707 220.668 1.26947 214.602 1.26947H120.579C114.513 1.26947 109.997 6.18967 110.536 12.3231L122.533 149.212C123.005 155.278 128.397 160.266 134.463 160.266Z" fill="white"/>
<path d="M234.754 149.212L222.757 12.3226H114.378L126.308 149.212H234.754Z" fill="white"/>
<path d="M181.306 157.839C179.419 157.839 177.667 156.289 177.532 154.335C177.397 152.447 178.812 150.83 180.7 150.83C182.587 150.83 184.339 152.38 184.474 154.335C184.609 156.289 183.193 157.839 181.306 157.839ZM180.767 151.773C179.352 151.773 178.273 152.919 178.408 154.402C178.543 155.817 179.823 157.031 181.239 157.031C182.654 157.031 183.733 155.885 183.598 154.402C183.463 152.919 182.182 151.773 180.767 151.773Z" fill="#7165FC"/>
<path d="M218.039 25.6679H210.086L209.412 17.6473H217.365L218.039 25.6679Z" fill="#263238"/>
<path d="M144.506 25.668H121.657L120.983 17.6474H143.764L144.506 25.668Z" fill="#263238"/>
<path d="M223.296 85.5192H126.914L122.533 35.3062H218.915L223.296 85.5192Z" fill="#263238"/>
<path d="M187.642 140.518H131.7L127.521 92.394H183.396L187.642 140.518Z" fill="#263238"/>
<path d="M202.874 103.38H190.068L189.125 92.394H201.931L202.874 103.38Z" fill="#263238"/>
<path d="M220.803 96.101H206.783C205.772 96.101 204.829 95.2922 204.761 94.2138C204.694 93.2028 205.435 92.394 206.446 92.394H220.466C221.477 92.394 222.42 93.2028 222.488 94.2138C222.555 95.2248 221.814 96.101 220.803 96.101Z" fill="#263238"/>
<path d="M223.027 103.38H207.39C206.379 103.38 205.435 102.572 205.368 101.493C205.301 100.482 206.042 99.606 207.053 99.606H222.69C223.701 99.606 224.644 100.415 224.712 101.493C224.779 102.504 224.038 103.38 223.027 103.38Z" fill="#263238"/>
<path d="M222.083 110.592H192.562C191.551 110.592 190.607 109.783 190.54 108.705C190.472 107.694 191.214 106.817 192.225 106.817H221.746C222.757 106.817 223.701 107.626 223.768 108.705C223.835 109.783 223.094 110.592 222.083 110.592Z" fill="#263238"/>
<path d="M224.307 117.871H193.236C192.225 117.871 191.281 117.062 191.214 116.051C191.147 115.04 191.888 114.164 192.899 114.164H223.97C224.981 114.164 225.925 114.973 225.992 116.051C226.06 117.062 225.318 117.871 224.307 117.871Z" fill="#263238"/>
<path d="M220.937 125.15H193.843C192.832 125.15 191.888 124.342 191.821 123.263C191.753 122.252 192.495 121.376 193.506 121.376H220.6C221.611 121.376 222.555 122.185 222.622 123.263C222.69 124.342 221.948 125.15 220.937 125.15Z" fill="#263238"/>
<path d="M225.588 132.43H194.516C193.505 132.43 192.562 131.621 192.494 130.543C192.427 129.532 193.168 128.655 194.179 128.655H225.251C226.262 128.655 227.205 129.464 227.273 130.543C227.34 131.621 226.599 132.43 225.588 132.43Z" fill="#263238"/>
<path d="M216.556 139.709H195.123C194.112 139.709 193.169 138.9 193.101 137.821C193.034 136.81 193.775 135.934 194.786 135.934H216.219C217.23 135.934 218.174 136.743 218.241 137.821C218.309 138.9 217.567 139.709 216.556 139.709Z" fill="#263238"/>
<path opacity="0.9" d="M218.039 25.6679H210.086L209.412 17.6473H217.365L218.039 25.6679Z" fill="white"/>
<path opacity="0.9" d="M144.506 25.668H121.657L120.983 17.6474H143.764L144.506 25.668Z" fill="white"/>
<path opacity="0.9" d="M223.296 85.5192H126.914L122.533 35.3062H218.915L223.296 85.5192Z" fill="white"/>
<path opacity="0.9" d="M187.642 140.518H131.7L127.521 92.394H183.396L187.642 140.518Z" fill="white"/>
<path opacity="0.9" d="M202.874 103.38H190.068L189.125 92.394H201.931L202.874 103.38Z" fill="white"/>
<path opacity="0.9" d="M220.803 96.101H206.783C205.772 96.101 204.829 95.2922 204.761 94.2138C204.694 93.2028 205.435 92.394 206.446 92.394H220.466C221.477 92.394 222.42 93.2028 222.488 94.2138C222.555 95.2248 221.814 96.101 220.803 96.101Z" fill="white"/>
<path opacity="0.9" d="M223.027 103.38H207.39C206.379 103.38 205.435 102.572 205.368 101.493C205.301 100.482 206.042 99.606 207.053 99.606H222.69C223.701 99.606 224.644 100.415 224.712 101.493C224.779 102.504 224.038 103.38 223.027 103.38Z" fill="white"/>
<path opacity="0.9" d="M222.083 110.592H192.562C191.551 110.592 190.607 109.783 190.54 108.705C190.472 107.694 191.214 106.817 192.225 106.817H221.746C222.757 106.817 223.701 107.626 223.768 108.705C223.835 109.783 223.094 110.592 222.083 110.592Z" fill="white"/>
<path opacity="0.9" d="M224.307 117.871H193.236C192.225 117.871 191.281 117.062 191.214 116.051C191.147 115.04 191.888 114.164 192.899 114.164H223.97C224.981 114.164 225.925 114.973 225.992 116.051C226.06 117.062 225.318 117.871 224.307 117.871Z" fill="white"/>
<path opacity="0.9" d="M220.937 125.15H193.843C192.832 125.15 191.888 124.342 191.821 123.263C191.753 122.252 192.495 121.376 193.506 121.376H220.6C221.611 121.376 222.555 122.185 222.622 123.263C222.69 124.342 221.948 125.15 220.937 125.15Z" fill="white"/>
<path opacity="0.9" d="M225.588 132.43H194.516C193.505 132.43 192.562 131.621 192.494 130.543C192.427 129.532 193.168 128.655 194.179 128.655H225.251C226.262 128.655 227.205 129.464 227.273 130.543C227.34 131.621 226.599 132.43 225.588 132.43Z" fill="white"/>
<path opacity="0.9" d="M216.556 139.709H195.123C194.112 139.709 193.169 138.9 193.101 137.821C193.034 136.81 193.775 135.934 194.786 135.934H216.219C217.23 135.934 218.174 136.743 218.241 137.821C218.309 138.9 217.567 139.709 216.556 139.709Z" fill="white"/>
<path opacity="0.2" d="M205.839 83.5648H145.853C138.642 83.5648 132.306 77.701 131.632 70.4892C131.025 63.2774 136.35 57.4136 143.562 57.4136H203.548C210.76 57.4136 217.095 63.2774 217.769 70.4892C218.376 77.701 213.051 83.5648 205.839 83.5648Z" fill="black"/>
<path d="M205.57 80.7342H145.584C138.372 80.7342 132.037 74.8704 131.363 67.6586C130.756 60.4468 136.081 54.583 143.292 54.583H203.278C210.49 54.583 216.826 60.4468 217.5 67.6586C218.106 74.8704 212.782 80.7342 205.57 80.7342Z" fill="#7165FC"/>
<path d="M155.559 70.4222C155.155 70.2874 154.75 70.1526 154.481 69.9504L154.818 68.9394C155.087 69.1416 155.357 69.2764 155.694 69.3438C156.031 69.4786 156.368 69.4786 156.705 69.4786C157.109 69.4786 157.379 69.4112 157.514 69.3438C157.649 69.209 157.783 69.0742 157.716 68.872C157.716 68.7372 157.649 68.6024 157.514 68.535C157.379 68.4676 157.244 68.4002 157.109 68.3328C156.907 68.2654 156.705 68.198 156.435 68.1306C155.964 67.9958 155.627 67.9284 155.357 67.7936C155.087 67.6588 154.818 67.524 154.616 67.3218C154.413 67.1196 154.279 66.7826 154.211 66.4456C154.211 66.1086 154.279 65.839 154.413 65.5694C154.548 65.2998 154.818 65.0976 155.155 64.9628C155.492 64.828 155.964 64.7606 156.435 64.7606C156.772 64.7606 157.177 64.828 157.514 64.8954C157.851 64.9628 158.188 65.0976 158.457 65.2998L158.12 66.3108C157.581 66.0412 157.042 65.839 156.503 65.839C156.166 65.839 155.896 65.9064 155.694 66.0412C155.559 66.176 155.424 66.3108 155.492 66.513C155.492 66.7152 155.627 66.85 155.829 66.9174C156.031 66.9848 156.368 67.1196 156.772 67.187C157.244 67.3218 157.581 67.3892 157.851 67.524C158.12 67.6588 158.39 67.7936 158.592 67.9958C158.794 68.198 158.929 68.535 158.997 68.872C158.997 69.209 158.929 69.4786 158.794 69.7482C158.66 70.0178 158.39 70.22 158.053 70.3548C157.716 70.4896 157.244 70.557 156.772 70.557C156.435 70.6244 156.031 70.557 155.559 70.4222Z" fill="white"/>
<path d="M160.884 65.9063H159.064L158.997 64.8279H163.917L163.984 65.9063H162.164L162.569 70.4895H161.288L160.884 65.9063Z" fill="white"/>
<path d="M168.433 69.2763H165.804L165.4 70.4895H164.052L166.074 64.8279H167.354L170.387 70.4895H169.039L168.433 69.2763ZM167.961 68.3327L166.882 66.1759L166.141 68.3327H167.961Z" fill="white"/>
<path d="M174.633 70.4895L173.42 68.9393H173.353H172.207L172.342 70.4895H171.061L170.589 64.8279H173.016C173.488 64.8279 173.959 64.8953 174.364 65.0975C174.768 65.2323 175.038 65.5019 175.307 65.8389C175.51 66.1759 175.644 66.5129 175.712 66.9173C175.779 67.3217 175.712 67.7261 175.51 67.9957C175.307 68.3327 175.038 68.5349 174.701 68.6697L176.116 70.4895H174.633V70.4895ZM173.892 66.1759C173.69 65.9737 173.353 65.9063 172.948 65.9063H171.87L172.072 67.8609H173.151C173.555 67.8609 173.825 67.7935 174.027 67.5913C174.229 67.3891 174.296 67.1869 174.296 66.8499C174.296 66.5803 174.162 66.3781 173.892 66.1759Z" fill="white"/>
<path d="M177.666 65.9063H175.846L175.779 64.8279H180.699L180.767 65.9063H178.947L179.351 70.4895H178.071L177.666 65.9063Z" fill="white"/>
<path d="M183.665 64.8279H186.226C186.833 64.8279 187.372 64.9627 187.911 65.1649C188.383 65.3671 188.787 65.7041 189.124 66.1759C189.394 66.5803 189.596 67.1195 189.664 67.6587C189.731 68.1979 189.596 68.7371 189.394 69.1415C189.192 69.5459 188.855 69.8829 188.383 70.1525C187.911 70.3547 187.372 70.4895 186.765 70.4895H184.204L183.665 64.8279ZM186.563 69.4111C187.102 69.4111 187.574 69.2763 187.844 68.9393C188.181 68.6023 188.316 68.1979 188.248 67.6587C188.181 67.1195 187.979 66.7151 187.642 66.3781C187.305 66.0411 186.833 65.9063 186.226 65.9063H185.013L185.35 69.4111H186.563Z" fill="white"/>
<path d="M195.123 69.4785L195.19 70.5569H190.809L190.338 64.8953H194.584L194.651 65.9737H191.686L191.82 67.1869H194.449L194.516 68.1979H191.888L192.023 69.4785H195.123Z" fill="white"/>
<path d="M201.458 70.4895L201.121 67.1195L199.706 69.9503H199.099L197.212 67.2543L197.482 70.5569H196.269L195.797 64.8953H196.875L199.302 68.4001L201.054 64.8953H202.132L202.672 70.5569H201.458V70.4895Z" fill="white"/>
<path d="M205.165 70.22C204.694 69.9504 204.289 69.6134 203.952 69.1416C203.615 68.6698 203.48 68.198 203.413 67.6588C203.346 67.1196 203.48 66.5804 203.683 66.176C203.885 65.7042 204.222 65.3672 204.694 65.0976C205.165 64.828 205.637 64.6932 206.244 64.6932C206.85 64.6932 207.39 64.828 207.861 65.0976C208.333 65.3672 208.738 65.7042 209.075 66.176C209.412 66.6478 209.546 67.1196 209.614 67.6588C209.681 68.198 209.546 68.7372 209.344 69.1416C209.142 69.6134 208.805 69.9504 208.333 70.22C207.861 70.4896 207.39 70.6244 206.783 70.6244C206.176 70.6244 205.637 70.4896 205.165 70.22ZM207.524 69.2764C207.794 69.1416 207.996 68.9394 208.131 68.6024C208.266 68.3328 208.333 67.9958 208.266 67.6588C208.266 67.3218 208.131 66.9848 207.929 66.7152C207.727 66.4456 207.524 66.2434 207.255 66.0412C206.985 65.9064 206.648 65.839 206.311 65.839C205.974 65.839 205.705 65.9064 205.435 66.0412C205.165 66.176 204.963 66.3782 204.828 66.7152C204.694 66.9848 204.626 67.3218 204.694 67.6588C204.694 67.9958 204.828 68.3328 205.031 68.6024C205.233 68.872 205.435 69.0742 205.705 69.2764C205.974 69.4112 206.311 69.4786 206.648 69.4786C206.985 69.4786 207.322 69.4112 207.524 69.2764Z" fill="white"/>
<path d="M139.653 72.1744L138.844 63.1428C138.777 62.334 139.653 61.7948 140.394 62.1992L148.415 66.715C149.156 67.1194 149.224 68.1304 148.55 68.5348L141.338 73.0506C140.664 73.5224 139.72 73.0506 139.653 72.1744Z" fill="white"/>
<path d="M262.523 44.136C262.725 43.9338 262.927 43.7316 263.129 43.5294C262.051 42.3162 261.984 40.3616 262.455 37.1938C263.534 29.7124 249.245 19.4002 245.942 29.3754C245.471 30.7908 234.552 32.5432 239.944 41.5074C239.674 39.8224 239.472 37.1264 241.022 35.8458C241.022 35.8458 239.135 39.4854 241.157 43.3946C244.055 48.854 247.29 47.3038 247.762 49.7976C249.515 49.9998 253.424 50.1346 257.67 47.9104C257.131 46.2928 257.872 45.2818 257.872 45.2818C257.805 46.0232 258.209 46.832 258.546 47.3712C259.625 46.6972 260.703 45.8884 261.781 44.9448C259.827 42.9902 260.299 40.2942 260.299 40.2942C260.568 42.7206 261.714 43.7316 262.523 44.136Z" fill="#263238"/>
<path d="M246.145 189.855H241.292L241.562 178.666H246.414L246.145 189.855Z" fill="#B55B52"/>
<path opacity="0.2" d="M241.562 178.666L241.427 184.395H246.28L246.414 178.666H241.562Z" fill="black"/>
<path d="M243.921 81.7453C243.921 81.7453 242.033 120.905 241.562 133.913C241.157 146.247 240.483 183.317 240.483 183.317H247.021C247.021 183.317 252.278 146.517 253.626 134.25C255.109 120.837 258.344 80.7343 258.344 80.7343L243.921 81.7453Z" fill="#7165FC"/>
<path opacity="0.2" d="M258.412 80.6664L255.379 80.8686C254.907 81.6774 254.368 82.6884 253.896 83.969C248.504 97.3816 250.391 116.658 253.828 132.969C255.311 118.613 258.412 80.6664 258.412 80.6664Z" fill="black"/>
<path d="M241.09 187.091L246.482 187.833C246.684 187.833 246.819 188.035 246.819 188.237L246.886 192.618C246.886 193.09 246.482 193.427 246.01 193.36C244.123 193.09 243.247 192.82 240.888 192.551C239.405 192.349 235.226 191.944 233.204 191.675C231.249 191.405 231.317 189.383 232.193 189.316C236.035 188.979 238.866 188.237 240.281 187.361C240.483 187.159 240.82 187.091 241.09 187.091Z" fill="#263238"/>
<path d="M239.203 187.698C238.731 187.631 238.326 187.496 238.057 187.226C237.922 187.091 237.855 186.889 237.922 186.62C237.922 186.485 238.057 186.417 238.124 186.35C238.731 186.08 240.551 187.361 240.753 187.496C240.82 187.496 240.82 187.563 240.82 187.631C240.82 187.698 240.753 187.698 240.685 187.698C240.281 187.765 239.674 187.765 239.203 187.698ZM238.461 186.62C238.394 186.62 238.326 186.62 238.259 186.62C238.192 186.62 238.192 186.687 238.192 186.754C238.124 186.889 238.192 187.024 238.259 187.159C238.529 187.428 239.27 187.631 240.416 187.563C239.742 187.159 238.933 186.687 238.461 186.62Z" fill="#7165FC"/>
<path d="M240.685 187.765C240.079 187.428 239.135 186.215 239.27 185.676C239.337 185.541 239.405 185.406 239.742 185.406C239.944 185.406 240.214 185.541 240.348 185.676C240.888 186.282 240.82 187.563 240.82 187.63C240.82 187.698 240.82 187.698 240.753 187.698C240.753 187.765 240.685 187.765 240.685 187.765ZM239.809 185.676H239.742C239.54 185.676 239.54 185.743 239.472 185.811C239.405 186.148 240.011 187.024 240.551 187.496C240.551 187.091 240.483 186.282 240.146 185.945C240.079 185.743 239.944 185.676 239.809 185.676Z" fill="#7165FC"/>
<path d="M274.048 189.315H269.196L267.106 178.059H271.892L274.048 189.315Z" fill="#B55B52"/>
<path opacity="0.2" d="M267.106 178.059L268.185 183.856H273.037L271.959 178.059H267.106Z" fill="black"/>
<path d="M249.043 81.1386C249.043 81.1386 253.694 120.298 255.985 133.306C258.142 145.64 267.039 182.71 267.039 182.71H273.577C273.577 182.71 269.33 145.91 268.117 133.643C267.443 126.701 267.376 113.491 267.308 106.211C267.308 103.044 267.645 96.9102 266.095 91.99C264.343 86.5306 262.725 80.1276 262.725 80.1276L249.043 81.1386Z" fill="#7165FC"/>
<path opacity="0.2" d="M266.904 182.373H273.509C273.442 181.901 273.374 180.958 273.172 179.677L266.297 179.947C266.634 181.025 266.837 181.901 266.904 182.373Z" fill="black"/>
<path d="M239 53.302C239 53.302 236.776 54.313 243.449 82.284C251.2 81.7448 259.288 81.1382 263.062 80.8686C262.186 72.9154 261.782 67.9952 264.41 51.3474C264.41 51.3474 260.231 50.7408 255.985 50.8756C252.683 50.943 249.987 51.0778 247.088 51.5496C243.314 52.1562 239 53.302 239 53.302Z" fill="#7165FC"/>
<path opacity="0.5" d="M239 53.302C239 53.302 236.776 54.313 243.449 82.284C251.2 81.7448 259.288 81.1382 263.062 80.8686C262.186 72.9154 261.782 67.9952 264.41 51.3474C264.41 51.3474 260.231 50.7408 255.985 50.8756C252.683 50.943 249.987 51.0778 247.088 51.5496C243.314 52.1562 239 53.302 239 53.302Z" fill="white"/>
<path d="M254.435 40.9007C254.098 43.7989 253.896 49.1235 256.053 50.8759C256.053 50.8759 255.513 53.8415 250.189 54.2459C244.325 54.6503 247.156 51.5499 247.156 51.5499C250.324 50.5389 250.054 48.1799 249.313 46.0231L254.435 40.9007Z" fill="#B55B52"/>
<path opacity="0.2" d="M252.278 42.9226L249.245 45.8882C249.447 46.4274 249.582 46.8992 249.65 47.4384C250.863 47.1688 252.413 45.686 252.48 44.4054C252.48 43.8662 252.413 43.2596 252.278 42.9226Z" fill="black"/>
<path d="M257.67 36.0478C256.592 40.6984 256.187 42.7204 253.424 44.7424C249.178 47.7754 243.718 45.4164 243.381 40.4962C243.112 36.0478 244.931 29.173 249.852 28.0946C254.772 27.0162 258.748 31.3972 257.67 36.0478Z" fill="#B55B52"/>
<path d="M246.414 28.9036C244.864 31.0604 260.164 39.2158 258.681 34.0934C257.198 28.971 250.526 23.1746 246.414 28.9036Z" fill="#263238"/>
<path d="M254.233 34.1608C253.828 36.4524 256.861 39.1484 256.861 39.1484C256.861 39.1484 260.703 36.3176 258.277 34.7674C255.85 33.2846 254.233 34.1608 254.233 34.1608Z" fill="#263238"/>
<path d="M249.582 36.0479C249.515 36.4523 249.245 36.7219 248.976 36.6545C248.706 36.5871 248.571 36.2501 248.639 35.9131C248.706 35.5087 248.976 35.2391 249.245 35.3065C249.515 35.3065 249.65 35.6435 249.582 36.0479Z" fill="#263238"/>
<path d="M245.269 35.3064C245.201 35.7108 244.932 35.9804 244.662 35.913C244.392 35.8456 244.258 35.5086 244.325 35.1716C244.392 34.7672 244.662 34.4976 244.932 34.565C245.201 34.565 245.336 34.902 245.269 35.3064Z" fill="#263238"/>
<path d="M244.999 34.5651L244.123 34.1607C244.123 34.0933 244.527 34.9021 244.999 34.5651Z" fill="#263238"/>
<path d="M246.819 36.1827C246.819 36.1827 245.875 37.7329 244.999 38.4069C245.403 38.9461 246.347 38.8787 246.347 38.8787L246.819 36.1827Z" fill="#A02724"/>
<path d="M248.167 40.7657C247.965 40.7657 247.762 40.7657 247.56 40.6983C247.493 40.6983 247.425 40.6308 247.493 40.5634C247.493 40.496 247.56 40.4287 247.628 40.4961C249.313 40.7657 250.324 39.7547 250.324 39.7547C250.391 39.6873 250.458 39.6873 250.458 39.7547C250.526 39.8221 250.526 39.8894 250.458 39.8894C250.458 39.9568 249.65 40.8331 248.167 40.7657Z" fill="#263238"/>
<path d="M258.209 40.6308C257.738 41.507 256.861 42.0462 256.053 42.2484C254.839 42.5854 254.3 41.507 254.637 40.3612C254.974 39.3502 255.985 38.0022 257.131 38.2044C258.344 38.3392 258.816 39.6198 258.209 40.6308Z" fill="#B55B52"/>
<path d="M251.537 35.4415C251.469 35.4415 251.335 35.3741 251.335 35.3067C250.998 34.2957 249.717 33.8913 249.717 33.8239C249.582 33.7565 249.515 33.6217 249.582 33.5543C249.65 33.4195 249.717 33.3521 249.852 33.4195C249.919 33.4195 251.402 33.9587 251.739 35.1719C251.806 35.3067 251.739 35.4415 251.604 35.4415C251.537 35.4415 251.537 35.4415 251.537 35.4415Z" fill="#263238"/>
<path d="M244.325 33.0149C244.258 33.0149 244.19 32.9475 244.123 32.8801C244.055 32.7453 244.123 32.6105 244.19 32.5431C245.269 31.9365 246.212 32.4083 246.28 32.4083C246.414 32.4757 246.414 32.6105 246.347 32.7453C246.28 32.8801 246.145 32.8801 246.01 32.8127C246.01 32.8127 245.269 32.4083 244.325 32.9475C244.392 33.0149 244.325 33.0149 244.325 33.0149Z" fill="#263238"/>
<path d="M268.859 188.102H274.318C274.52 188.102 274.655 188.237 274.722 188.439L275.329 192.753C275.396 193.224 274.992 193.629 274.52 193.629C272.633 193.629 271.689 193.494 269.33 193.494C267.848 193.494 263.601 193.629 261.579 193.629C259.625 193.629 259.423 191.607 260.299 191.405C264.073 190.596 266.769 189.45 268.05 188.372C268.319 188.237 268.589 188.102 268.859 188.102Z" fill="#263238"/>
<path d="M267.039 188.979C266.567 188.979 266.095 188.911 265.893 188.709C265.758 188.574 265.691 188.372 265.691 188.17C265.691 188.035 265.758 187.9 265.893 187.833C266.5 187.496 268.387 188.507 268.657 188.574C268.724 188.574 268.724 188.642 268.724 188.709C268.724 188.776 268.657 188.776 268.657 188.776C268.185 188.844 267.578 188.979 267.039 188.979ZM266.163 187.968C266.095 187.968 266.028 187.968 265.961 188.035C265.893 188.035 265.893 188.102 265.893 188.17C265.893 188.305 265.893 188.439 266.028 188.507C266.298 188.776 267.106 188.844 268.185 188.642C267.511 188.305 266.635 187.968 266.163 187.968Z" fill="#7165FC"/>
<path d="M268.589 188.776C268.522 188.776 268.522 188.776 268.589 188.776C267.982 188.507 266.837 187.428 266.904 186.889C266.904 186.754 267.039 186.62 267.308 186.552C267.511 186.552 267.78 186.62 267.915 186.754C268.522 187.294 268.656 188.574 268.656 188.642C268.656 188.709 268.656 188.709 268.589 188.776ZM267.376 186.822H267.308C267.106 186.822 267.106 186.957 267.106 186.957C267.039 187.294 267.848 188.102 268.387 188.439C268.319 188.035 268.185 187.294 267.78 186.957C267.645 186.889 267.578 186.822 267.376 186.822Z" fill="#7165FC"/>
<path d="M249.38 35.3066L248.504 34.9022C248.504 34.8348 248.841 35.6436 249.38 35.3066Z" fill="#263238"/>
<path d="M241.09 59.7729C240.753 60.9861 240.416 62.2667 240.146 63.5473C239.877 64.8279 239.607 66.1085 239.405 67.3217C239.203 68.5349 239.068 69.8155 239.135 70.7591C239.135 70.9613 239.203 71.1635 239.203 71.2983C239.203 71.4331 239.27 71.4331 239.068 71.2983C238.866 71.0961 238.933 71.2309 239.068 71.2983C239.203 71.3657 239.472 71.4331 239.742 71.5005C240.82 71.7701 242.101 71.8375 243.381 71.9049C244.662 71.9723 246.01 71.9723 247.358 71.9723C248.706 71.9723 250.054 71.9723 251.402 71.9049C252.75 71.9049 254.098 71.8375 255.446 71.7701L255.783 74.2639C253.087 74.8705 250.391 75.3423 247.628 75.6793C246.28 75.8815 244.864 75.9489 243.449 76.0163C242.033 76.0837 240.618 76.0837 239 75.8815C238.596 75.8141 238.192 75.7467 237.652 75.6119C237.181 75.4097 236.574 75.2749 235.9 74.6009C235.293 73.9943 235.024 73.3203 234.822 72.8485C234.619 72.3093 234.552 71.8375 234.485 71.4331C234.35 70.5569 234.35 69.7481 234.35 69.0067C234.35 68.2653 234.417 67.5239 234.485 66.7825C234.822 63.8843 235.428 61.1883 236.237 58.4249L241.09 59.7729Z" fill="#B55B52"/>
<path d="M239.405 53.1001C237.383 53.4371 235.159 61.4577 235.159 61.4577L240.281 65.7039C240.281 65.7039 246.347 58.0203 245.066 55.6613C243.651 53.1675 242.371 52.6283 239.405 53.1001Z" fill="#7165FC"/>
<path opacity="0.5" d="M239.405 53.1001C237.383 53.4371 235.159 61.4577 235.159 61.4577L240.281 65.7039C240.281 65.7039 246.347 58.0203 245.066 55.6613C243.651 53.1675 242.371 52.6283 239.405 53.1001Z" fill="white"/>
<path d="M246.414 51.8868C246.414 51.8868 247.965 50.9432 248.504 49.4604C248.639 48.9886 249.11 48.719 249.582 48.8538C250.526 48.9886 252.143 49.056 254.031 48.1798C254.57 47.9776 255.176 48.1798 255.379 48.719C255.648 49.4604 256.12 50.404 257.131 50.8758C257.131 50.8758 255.446 55.459 249.043 55.1894C242.573 54.8524 246.414 51.8868 246.414 51.8868Z" fill="#7165FC"/>
<path opacity="0.5" d="M246.414 51.8868C246.414 51.8868 247.965 50.9432 248.504 49.4604C248.639 48.9886 249.11 48.719 249.582 48.8538C250.526 48.9886 252.143 49.056 254.031 48.1798C254.57 47.9776 255.176 48.1798 255.379 48.719C255.648 49.4604 256.12 50.404 257.131 50.8758C257.131 50.8758 255.446 55.459 249.043 55.1894C242.573 54.8524 246.414 51.8868 246.414 51.8868Z" fill="white"/>
<path opacity="0.2" d="M239.809 65.2992C239.27 62.2662 239 60.042 238.798 58.357L238.529 64.2882L239.809 65.2992Z" fill="black"/>
<path d="M249.649 83.767C249.649 84.104 249.38 84.3736 249.043 84.3736C248.706 84.3736 248.436 84.104 248.436 83.767C248.436 83.43 248.706 83.1604 249.043 83.1604C249.38 83.1604 249.649 83.3626 249.649 83.767Z" fill="#7165FC"/>
<path d="M250.526 89.8333C250.526 90.1703 250.256 90.4399 249.919 90.4399C249.582 90.4399 249.312 90.1703 249.312 89.8333C249.312 89.4963 249.582 89.2267 249.919 89.2267C250.189 89.2267 250.526 89.4963 250.526 89.8333Z" fill="#7165FC"/>
<g opacity="0.5">
<path d="M249.649 83.767C249.649 84.104 249.38 84.3736 249.043 84.3736C248.706 84.3736 248.436 84.104 248.436 83.767C248.436 83.43 248.706 83.1604 249.043 83.1604C249.38 83.1604 249.649 83.3626 249.649 83.767Z" fill="white"/>
<path d="M250.526 89.8333C250.526 90.1703 250.256 90.4399 249.919 90.4399C249.582 90.4399 249.312 90.1703 249.312 89.8333C249.312 89.4963 249.582 89.2267 249.919 89.2267C250.189 89.2267 250.526 89.4963 250.526 89.8333Z" fill="white"/>
</g>
<path opacity="0.2" d="M240.551 182.171H247.223C247.291 181.699 247.358 181.025 247.493 180.217H240.551C240.551 181.025 240.551 181.699 240.551 182.171Z" fill="black"/>
<path d="M247.56 183.519H239.877L239.607 181.092L248.234 180.823L247.56 183.519Z" fill="#7165FC"/>
<path d="M241.966 46.6969L241.224 46.9665C241.022 47.0339 240.887 46.8317 241.022 46.6969L241.494 46.0229L248.099 40.9005C248.301 40.7657 248.504 40.7657 248.638 40.9679L248.706 41.1027C248.841 41.2375 248.773 41.5071 248.638 41.6419L241.966 46.6969Z" fill="#7165FC"/>
<path opacity="0.7" d="M241.966 46.6969L241.224 46.9665C241.022 47.0339 240.887 46.8317 241.022 46.6969L241.494 46.0229L248.099 40.9005C248.301 40.7657 248.504 40.7657 248.638 40.9679L248.706 41.1027C248.841 41.2375 248.773 41.5071 248.638 41.6419L241.966 46.6969Z" fill="white"/>
<path d="M250.054 51.4154L247.156 46.293L245.201 50.8088C245.201 50.8088 247.088 53.2352 249.11 52.8982L250.054 51.4154Z" fill="#B55B52"/>
<path d="M244.123 44.3383L242.775 47.7757L245.269 50.8087L247.156 46.2929L244.123 44.3383Z" fill="#B55B52"/>
<path d="M263.938 79.4533L258.075 77.5661C257.738 77.4313 257.535 77.0943 257.603 76.6899L259.962 69.1411C260.097 68.8041 260.434 68.6019 260.838 68.6693L266.702 70.5565C267.039 70.6913 267.241 71.0283 267.174 71.4327L264.815 78.9815C264.68 79.3859 264.275 79.5881 263.938 79.4533Z" fill="#7165FC"/>
<path d="M263.804 79.0491L257.94 77.1619C257.603 77.0271 257.401 76.6901 257.468 76.2857L259.827 68.7369C259.962 68.3999 260.299 68.1977 260.703 68.2651L266.567 70.1523C266.904 70.2871 267.106 70.6241 267.039 71.0285L264.68 78.5773C264.545 78.9143 264.208 79.1165 263.804 79.0491Z" fill="#7165FC"/>
<path opacity="0.8" d="M263.804 79.0491L257.94 77.1619C257.603 77.0271 257.401 76.6901 257.468 76.2857L259.827 68.7369C259.962 68.3999 260.299 68.1977 260.703 68.2651L266.567 70.1523C266.904 70.2871 267.106 70.6241 267.039 71.0285L264.68 78.5773C264.545 78.9143 264.208 79.1165 263.804 79.0491Z" fill="white"/>
<path d="M263.669 78.5097L257.805 76.6225C257.468 76.4877 257.266 76.1507 257.333 75.7463L259.692 68.1975C259.827 67.8605 260.164 67.6583 260.568 67.7257L266.432 69.6129C266.769 69.7477 266.971 70.0847 266.904 70.4891L264.545 78.0379C264.41 78.4423 264.073 78.6445 263.669 78.5097Z" fill="#263238"/>
<path d="M265.089 71.0767L260.719 69.6971L260.09 71.6896L264.46 73.0691L265.089 71.0767Z" fill="white"/>
<path d="M259.423 69.2759C259.086 69.1411 258.816 68.8715 258.951 68.6019C259.018 68.3323 259.423 68.1975 259.76 68.3323C260.097 68.4671 260.366 68.7367 260.231 69.0063L260.097 68.9389C260.164 68.7367 259.962 68.5345 259.692 68.4671C259.423 68.3997 259.153 68.4671 259.086 68.6693C259.018 68.8715 259.22 69.0737 259.49 69.1411L259.423 69.2759Z" fill="#263238"/>
<g opacity="0.6">
<path d="M259.423 69.2759C259.086 69.1411 258.816 68.8715 258.951 68.6019C259.018 68.3323 259.423 68.1975 259.76 68.3323C260.097 68.4671 260.366 68.7367 260.231 69.0063L260.097 68.9389C260.164 68.7367 259.962 68.5345 259.692 68.4671C259.423 68.3997 259.153 68.4671 259.086 68.6693C259.018 68.8715 259.22 69.0737 259.49 69.1411L259.423 69.2759Z" fill="white"/>
</g>
<path d="M259.153 70.2195C258.816 70.0847 258.546 69.8151 258.681 69.5455C258.749 69.2759 259.153 69.1411 259.49 69.2759C259.827 69.4107 260.097 69.6803 259.962 69.9499L259.827 69.8825C259.894 69.6803 259.692 69.4781 259.423 69.4107C259.153 69.3433 258.883 69.4107 258.816 69.6129C258.749 69.8151 258.951 70.0173 259.22 70.0847L259.153 70.2195Z" fill="#263238"/>
<g opacity="0.6">
<path d="M259.153 70.2195C258.816 70.0847 258.546 69.8151 258.681 69.5455C258.749 69.2759 259.153 69.1411 259.49 69.2759C259.827 69.4107 260.097 69.6803 259.962 69.9499L259.827 69.8825C259.894 69.6803 259.692 69.4781 259.423 69.4107C259.153 69.3433 258.883 69.4107 258.816 69.6129C258.749 69.8151 258.951 70.0173 259.22 70.0847L259.153 70.2195Z" fill="white"/>
</g>
<path d="M258.816 71.1631C258.479 71.0283 258.209 70.7587 258.344 70.4891C258.412 70.2195 258.816 70.0847 259.153 70.2195C259.49 70.3543 259.76 70.6239 259.625 70.8935L259.49 70.8261C259.557 70.6239 259.355 70.4217 259.086 70.3543C258.816 70.2869 258.546 70.3543 258.479 70.5565C258.412 70.7587 258.614 70.9609 258.883 71.0283L258.816 71.1631Z" fill="#263238"/>
<g opacity="0.6">
<path d="M258.816 71.1631C258.479 71.0283 258.209 70.7587 258.344 70.4891C258.412 70.2195 258.816 70.0847 259.153 70.2195C259.49 70.3543 259.76 70.6239 259.625 70.8935L259.49 70.8261C259.557 70.6239 259.355 70.4217 259.086 70.3543C258.816 70.2869 258.546 70.3543 258.479 70.5565C258.412 70.7587 258.614 70.9609 258.883 71.0283L258.816 71.1631Z" fill="white"/>
</g>
<path d="M258.546 72.1067C258.209 71.9719 257.94 71.7023 258.075 71.4327C258.142 71.1631 258.546 71.0283 258.883 71.1631C259.22 71.2979 259.49 71.5675 259.355 71.8371L259.22 71.7697C259.288 71.5675 259.086 71.3653 258.816 71.2979C258.546 71.2305 258.277 71.2979 258.209 71.5001C258.142 71.7023 258.344 71.9045 258.614 71.9719L258.546 72.1067Z" fill="#263238"/>
<g opacity="0.6">
<path d="M258.546 72.1067C258.209 71.9719 257.94 71.7023 258.075 71.4327C258.142 71.1631 258.546 71.0283 258.883 71.1631C259.22 71.2979 259.49 71.5675 259.355 71.8371L259.22 71.7697C259.288 71.5675 259.086 71.3653 258.816 71.2979C258.546 71.2305 258.277 71.2979 258.209 71.5001C258.142 71.7023 258.344 71.9045 258.614 71.9719L258.546 72.1067Z" fill="white"/>
</g>
<path d="M258.277 73.0508C257.94 72.916 257.67 72.6464 257.805 72.3768C257.872 72.1072 258.277 71.9724 258.614 72.1072C258.951 72.242 259.22 72.5116 259.086 72.7812L258.951 72.7138C259.018 72.5116 258.816 72.3094 258.546 72.242C258.277 72.1746 258.007 72.242 257.94 72.4442C257.872 72.6464 258.075 72.8486 258.344 72.916L258.277 73.0508Z" fill="#263238"/>
<g opacity="0.6">
<path d="M258.277 73.0508C257.94 72.916 257.67 72.6464 257.805 72.3768C257.872 72.1072 258.277 71.9724 258.614 72.1072C258.951 72.242 259.22 72.5116 259.086 72.7812L258.951 72.7138C259.018 72.5116 258.816 72.3094 258.546 72.242C258.277 72.1746 258.007 72.242 257.94 72.4442C257.872 72.6464 258.075 72.8486 258.344 72.916L258.277 73.0508Z" fill="white"/>
</g>
<path d="M257.94 73.9939C257.603 73.8591 257.333 73.5895 257.468 73.3199C257.535 73.0503 257.94 72.9155 258.277 73.0503C258.614 73.1851 258.883 73.4547 258.749 73.7243L258.614 73.6569C258.681 73.4547 258.479 73.2525 258.209 73.1851C257.94 73.1177 257.67 73.1851 257.603 73.3873C257.535 73.5895 257.738 73.7917 258.007 73.8591L257.94 73.9939Z" fill="#263238"/>
<g opacity="0.6">
<path d="M257.94 73.9939C257.603 73.8591 257.333 73.5895 257.468 73.3199C257.535 73.0503 257.94 72.9155 258.277 73.0503C258.614 73.1851 258.883 73.4547 258.749 73.7243L258.614 73.6569C258.681 73.4547 258.479 73.2525 258.209 73.1851C257.94 73.1177 257.67 73.1851 257.603 73.3873C257.535 73.5895 257.738 73.7917 258.007 73.8591L257.94 73.9939Z" fill="white"/>
</g>
<path d="M257.67 74.9375C257.333 74.8027 257.063 74.5331 257.198 74.2635C257.266 73.9939 257.67 73.8591 258.007 73.9939C258.344 74.1287 258.614 74.3983 258.479 74.6679L258.344 74.6005C258.411 74.3983 258.209 74.1961 257.94 74.1287C257.67 74.0613 257.4 74.1287 257.333 74.3309C257.266 74.5331 257.468 74.7353 257.737 74.8027L257.67 74.9375Z" fill="#263238"/>
<g opacity="0.6">
<path d="M257.67 74.9375C257.333 74.8027 257.063 74.5331 257.198 74.2635C257.266 73.9939 257.67 73.8591 258.007 73.9939C258.344 74.1287 258.614 74.3983 258.479 74.6679L258.344 74.6005C258.411 74.3983 258.209 74.1961 257.94 74.1287C257.67 74.0613 257.4 74.1287 257.333 74.3309C257.266 74.5331 257.468 74.7353 257.737 74.8027L257.67 74.9375Z" fill="white"/>
</g>
<path d="M257.333 75.8811C256.996 75.7463 256.727 75.4767 256.861 75.2071C256.929 74.9375 257.333 74.8027 257.67 74.9375C258.007 75.0723 258.277 75.3419 258.142 75.6115L258.007 75.5441C258.075 75.3419 257.872 75.1397 257.603 75.0723C257.333 75.0049 257.064 75.0723 256.996 75.2745C256.929 75.4767 257.131 75.6789 257.401 75.7463L257.333 75.8811Z" fill="#263238"/>
<g opacity="0.6">
<path d="M257.333 75.8811C256.996 75.7463 256.727 75.4767 256.861 75.2071C256.929 74.9375 257.333 74.8027 257.67 74.9375C258.007 75.0723 258.277 75.3419 258.142 75.6115L258.007 75.5441C258.075 75.3419 257.872 75.1397 257.603 75.0723C257.333 75.0049 257.064 75.0723 256.996 75.2745C256.929 75.4767 257.131 75.6789 257.401 75.7463L257.333 75.8811Z" fill="white"/>
</g>
<path d="M250.661 72.646L255.244 70.1522L254.3 75.005C254.3 75.005 251.335 75.9486 249.919 74.5332L250.661 72.646Z" fill="#B55B52"/>
<path d="M259.288 70.7588L258.21 74.7354L254.3 74.9376L255.244 70.1522L259.288 70.7588Z" fill="#B55B52"/>
<path opacity="0.2" d="M258.142 65.2323L252.548 69.0067V71.0287C252.548 71.0287 256.996 72.7137 262.59 65.9737C262.725 64.2887 262.927 62.4015 263.13 60.2447L258.142 65.2323Z" fill="black"/>
<path d="M266.298 58.0878C264.747 60.8512 262.995 63.4124 260.973 65.9736C259.962 67.2542 258.883 68.4674 257.468 69.5458C256.727 70.085 255.985 70.6916 254.772 71.096C254.165 71.2982 253.491 71.433 252.615 71.3656C251.739 71.2308 250.998 70.8938 250.459 70.4894C249.38 69.6132 248.841 68.6696 248.437 67.7934C248.032 66.9172 247.83 66.1084 247.628 65.2322C247.291 63.6146 247.088 61.997 247.021 60.4468C246.886 57.279 246.954 54.246 247.358 51.0782L249.852 51.213C249.919 52.6958 250.054 54.1786 250.189 55.6614C250.324 57.1442 250.526 58.627 250.728 60.0424C250.998 61.4578 251.267 62.8732 251.672 64.1538C251.874 64.7604 252.143 65.367 252.346 65.9062C252.615 66.378 252.952 66.7824 253.087 66.8498C253.154 66.9172 253.154 66.8498 253.02 66.8498C252.952 66.8498 252.952 66.8498 253.087 66.7824C253.357 66.6476 253.828 66.3106 254.3 65.9736C255.244 65.1648 256.12 64.0864 256.996 62.9406C257.872 61.7948 258.681 60.649 259.49 59.3684C260.299 58.1552 261.108 56.8746 261.782 55.6614L266.298 58.0878Z" fill="#B55B52"/>
<path d="M269.33 53.6392C269.87 55.5938 264.815 62.4012 264.815 62.4012L257.872 58.2224C257.872 58.2224 260.029 52.2912 262.658 51.6172C265.286 50.9432 268.724 51.3476 269.33 53.6392Z" fill="#7165FC"/>
<path opacity="0.5" d="M269.33 53.6392C269.87 55.5938 264.815 62.4012 264.815 62.4012L257.872 58.2224C257.872 58.2224 260.029 52.2912 262.658 51.6172C265.286 50.9432 268.724 51.3476 269.33 53.6392Z" fill="white"/>
<path d="M246.819 29.0381C246.819 29.0381 243.988 31.7341 249.178 33.2169C249.178 33.2169 246.28 30.9253 246.819 29.0381Z" fill="#263238"/>
<path d="M256.727 33.2844C256.929 33.0148 256.861 32.6778 256.659 32.4082C256.457 32.206 256.053 32.1386 255.783 32.4082L253.761 34.0258C253.491 34.2954 253.424 34.6998 253.694 34.9694L254.165 35.3738C254.435 35.6434 254.907 35.576 255.109 35.3064L256.727 33.2844ZM254.233 35.239L253.963 34.9694C253.761 34.7672 253.828 34.4976 254.031 34.2954L255.581 32.9474C255.783 32.8126 256.053 32.7452 256.187 32.88C256.322 33.0148 256.322 33.2844 256.187 33.4866L254.907 35.1042C254.772 35.3738 254.435 35.4412 254.233 35.239Z" fill="#7165FC"/>
<path d="M274.183 182.98H266.499L265.623 180.554L274.25 180.217L274.183 182.98Z" fill="#7165FC"/>
<path d="M109.323 172.466C109.66 175.701 110.94 184.8 111.682 187.092C110.266 189.855 107.638 189.922 106.425 188.574C105.211 187.294 102.515 175.971 102.515 175.971L109.323 172.466Z" fill="#FF8B7B"/>
<path d="M93.6859 135.193C89.8441 112.008 79.5993 101.965 81.9583 89.0916L104.268 88.8894C104.268 88.8894 107.772 121.578 108.042 136.878C108.312 152.245 110.266 177.183 110.266 177.183L103.526 180.216C103.526 180.216 93.3489 153.122 93.6859 135.193Z" fill="#263238"/>
<path d="M102.987 183.047C104.537 183.047 109.929 181.565 110.806 180.891C111.682 180.217 110.469 176.375 110.469 176.375C110.469 176.375 102.785 177.049 102.044 177.655C101.437 178.262 102.987 183.047 102.987 183.047Z" fill="#263238"/>
<path opacity="0.6" d="M84.8564 106.683C87.4176 113.423 90.9898 121.309 93.1466 132.228C98.8756 116.321 94.9664 92.7312 94.9664 92.7312L84.8564 106.683Z" fill="black"/>
<path d="M76.0943 174.42C75.6899 177.723 73.6679 187.091 73.8027 189.585C71.8481 191.607 69.8935 191.607 69.0173 189.787C68.1411 187.968 68.8825 174.825 68.8825 174.825L76.0943 174.42Z" fill="#FF8B7B"/>
<path d="M73.4659 138.091C75.4879 113.895 73.1963 100.415 74.0051 89.0241L95.6405 88.8893C95.9101 93.2029 96.9885 110.727 88.2265 137.822C83.1715 153.459 76.2967 180.216 76.2967 180.216L68.4783 178.127C68.4783 178.06 68.6805 156.896 73.4659 138.091Z" fill="#263238"/>
<path d="M68.1412 182.306C69.5566 182.845 74.7464 183.519 75.8248 183.249C76.9032 182.98 77.2402 179.071 77.2402 179.071C77.2402 179.071 68.95 176.442 68.2086 176.914C67.3998 177.386 68.1412 182.306 68.1412 182.306Z" fill="#263238"/>
<path d="M104.403 88.8898C104.74 86.1938 104.403 83.2955 104.403 83.2955C104.403 82.6889 77.3078 81.6105 75.0836 81.6779C72.2528 81.8127 74.6792 94.6861 76.9034 99.0671C96.4494 100.348 103.729 92.2598 104.403 88.8898Z" fill="#263238"/>
<path d="M126.981 51.2127L132.576 50.1343L129.408 44.0683C129.408 44.0683 124.488 45.6859 124.892 48.4493L126.981 51.2127Z" fill="#FF8B7B"/>
<path d="M135.946 45.2145L134.463 43.2599C133.856 42.5185 132.845 42.2489 131.969 42.7207L129.475 44.0687L132.643 50.1347L135.541 48.0453C136.418 47.3039 136.62 46.0907 135.946 45.2145Z" fill="#FF8B7B"/>
<path d="M130.082 49.73C129.071 48.6516 127.723 47.8428 126.173 47.4384L124.959 47.1688C124.285 47.034 124.151 47.1688 124.083 47.3036L123.746 47.7754L123.14 48.719C122.735 49.3256 122.263 49.9996 121.859 50.6062C120.983 51.8868 120.107 53.0326 119.23 54.2458C118.354 55.3916 117.411 56.47 116.467 57.3462L116.4 57.4136C116.063 57.0766 115.793 56.7396 115.523 56.4026C114.58 55.2568 113.636 53.9762 112.76 52.6956C111.884 51.415 111.075 49.9996 110.266 48.6516C109.862 47.9776 109.457 47.2362 109.12 46.5622L108.581 45.4838C108.379 45.1468 108.244 44.7424 108.109 44.4728C108.109 44.4054 108.042 44.338 108.042 44.2706C106.761 41.7768 103.728 40.7658 101.235 42.0464C98.7408 43.327 97.7298 46.36 99.0104 48.8538C99.28 49.393 99.4822 49.73 99.6844 50.1344L100.358 51.3476C100.83 52.1564 101.302 52.9652 101.774 53.7066C102.717 55.2568 103.796 56.807 104.942 58.2898C106.087 59.7726 107.233 61.2554 108.581 62.6708C109.929 64.0862 111.412 65.4342 113.097 66.6474L113.299 66.7822C114.31 67.5236 115.658 67.7932 116.939 67.4562C118.624 66.9844 119.702 66.243 120.578 65.569C121.455 64.8276 122.196 64.1536 122.87 63.4122C124.151 61.9968 125.162 60.514 126.173 59.0986C127.116 57.6158 127.925 56.133 128.734 54.6502C129.138 53.9088 129.475 53.1674 129.812 52.3586L130.284 51.2128L130.554 50.6062C130.554 50.404 130.554 50.2018 130.082 49.73ZM114.58 58.6268C114.58 58.6942 114.58 58.6942 114.58 58.6268V58.6268Z" fill="#7165FC"/>
<path opacity="0.2" d="M109.525 52.6957L105.953 49.3257L102.448 51.1456L101.774 53.9764C102.718 55.4592 103.661 56.8745 104.74 58.2899C105.885 59.7727 107.031 61.2555 108.379 62.6709C109.727 64.0863 111.21 65.4344 112.895 66.6476C109.323 63.2102 109.525 52.6957 109.525 52.6957Z" fill="black"/>
<path d="M98.7409 23.7134C98.7409 23.7134 99.3475 27.0834 100.493 28.6336C100.763 28.9706 100.426 29.5098 100.022 29.375C99.6171 29.3076 99.1453 28.9706 98.7409 28.1618C98.7409 28.1618 99.2801 30.1164 99.9541 31.06C100.224 31.397 100.156 31.8688 99.9541 32.3406C99.7519 32.8798 99.0105 32.8124 98.8757 32.2732C98.7409 31.734 98.4713 31.1948 97.9995 30.8578C96.7863 29.9142 98.7409 23.7134 98.7409 23.7134Z" fill="#263238"/>
<path d="M79.9364 38.8112C85.7328 38.0698 93.4838 38.0024 99.752 38.6764C105.346 39.283 109.592 44.001 109.592 49.6626C109.592 59.7726 106.896 63.0078 105.211 78.5772C106.627 80.397 105.548 83.0256 104.403 83.2952C94.5622 85.6542 79.9364 82.8234 75.0836 81.6776C72.9268 81.2058 74.2074 78.3076 74.2074 78.3076C74.2074 73.0504 75.2184 73.4548 74.9488 66.9844C74.0726 60.5814 74.7466 55.7286 73.5334 47.2362C72.8594 43.1248 75.7576 39.283 79.9364 38.8112Z" fill="#7165FC"/>
<path d="M91.2595 42.5857C91.2595 42.5857 97.2581 43.3945 99.4149 41.9117L97.0559 47.0341C97.0559 47.0341 94.8991 44.0011 91.2595 42.5857Z" fill="#7165FC"/>
<path opacity="0.5" d="M91.2595 42.5857C91.2595 42.5857 97.2581 43.3945 99.4149 41.9117L97.0559 47.0341C97.0559 47.0341 94.8991 44.0011 91.2595 42.5857Z" fill="white"/>
<path d="M97.3929 38.4744C93.0119 38.1374 88.0917 38.1374 83.7781 38.4744C84.1825 39.5528 85.8001 43.8664 91.2595 44.81C91.2595 44.81 92.4727 41.1704 96.1123 44.0012C96.1123 44.0012 98.3365 40.4964 100.291 43.9338C100.224 44.0012 102.38 41.44 97.3929 38.4744Z" fill="#7165FC"/>
<path opacity="0.8" d="M97.3929 38.4744C93.0119 38.1374 88.0917 38.1374 83.7781 38.4744C84.1825 39.5528 85.8001 43.8664 91.2595 44.81C91.2595 44.81 92.4727 41.1704 96.1123 44.0012C96.1123 44.0012 98.3365 40.4964 100.291 43.9338C100.224 44.0012 102.38 41.44 97.3929 38.4744Z" fill="white"/>
<path d="M87.4852 27.0836C87.4852 32.4082 86.4742 35.5086 85.261 38.4068C85.1262 38.6764 85.1936 39.0134 85.4632 39.2156C87.4852 41.0354 90.5856 42.5856 94.8318 42.5856C99.0106 42.653 98.741 41.305 97.7974 39.8896C97.6626 39.6874 97.4604 39.4852 97.2582 39.3504C94.4274 37.6654 94.2926 35.3738 95.1014 34.0258L87.4852 27.0836Z" fill="#FF8B7B"/>
<path opacity="0.2" d="M87.4851 27.0836L95.1013 34.0258C94.6295 34.7672 94.4947 35.8456 94.9665 36.924C93.4837 36.9914 91.9335 36.5196 90.5855 35.3738C88.6309 33.6888 87.9569 31.7342 87.4851 28.9708C87.4851 28.3642 87.4851 27.7576 87.4851 27.0836Z" fill="black"/>
<path d="M85.1934 23.5116C85.5304 28.634 84.789 29.4428 87.4176 32.004C91.3268 35.9132 97.6624 36.6546 98.5386 31.4648C99.3474 26.8142 99.8192 18.3892 94.7642 16.4346C89.844 14.48 84.8564 18.3892 85.1934 23.5116Z" fill="#FF8B7B"/>
<path d="M92.8098 24.3204C92.8098 24.7248 93.012 24.7922 93.2816 24.7922C93.5512 24.7922 93.8208 24.7248 93.8208 24.253C93.8208 23.8486 93.5512 23.4442 93.2816 23.5116C93.012 23.5116 92.8098 23.916 92.8098 24.3204Z" fill="#263238"/>
<path d="M96.9885 24.3204C96.9885 24.7248 97.1907 24.7922 97.4603 24.7922C97.7299 24.7922 97.9995 24.7248 97.9995 24.253C97.9995 23.8486 97.7299 23.4442 97.4603 23.5116C97.1907 23.5116 96.9885 23.916 96.9885 24.3204Z" fill="#263238"/>
<path d="M95.9102 24.1181C95.9102 24.1181 96.6516 26.0727 97.4604 27.0163C96.8538 27.5555 95.8428 27.2859 95.8428 27.2859L95.9102 24.1181Z" fill="#FF5652"/>
<path d="M92.1358 22.3657C92.0684 22.3657 92.0684 22.2983 92.0684 22.2983C92.001 22.1635 92.0684 22.0287 92.2032 21.9613C93.4838 21.3547 94.4948 21.9613 94.5622 22.0287C94.697 22.0961 94.697 22.2309 94.6296 22.3657C94.5622 22.5005 94.4274 22.5005 94.2926 22.4331C94.2926 22.4331 93.4838 21.9613 92.4054 22.4331C92.338 22.4331 92.2032 22.4331 92.1358 22.3657Z" fill="#263238"/>
<path d="M98.9431 22.3657C98.8757 22.4331 98.8083 22.4331 98.6735 22.3657C97.6625 21.8939 96.8537 22.4331 96.8537 22.4331C96.7189 22.5005 96.5841 22.5005 96.5167 22.3657C96.4493 22.2309 96.4493 22.0961 96.5841 22.0287C96.6515 22.0287 97.5951 21.3547 98.9431 21.8939C99.0779 21.9613 99.1453 22.0961 99.0779 22.2309C99.0105 22.2983 98.9431 22.3657 98.9431 22.3657Z" fill="#263238"/>
<path d="M97.3256 28.7009C97.3256 28.7009 96.1124 28.4987 92.8098 28.6335C93.2142 29.6445 94.023 30.3859 95.708 30.3185C97.393 30.1837 97.3256 28.7009 97.3256 28.7009Z" fill="#263238"/>
<path d="M94.8992 29.5099C95.708 29.4425 96.3146 29.6447 96.7864 29.9143C96.5842 30.1165 96.1798 30.2513 95.708 30.2513C94.8992 30.3187 94.2926 30.1165 93.8208 29.8469C94.0904 29.6447 94.4274 29.5099 94.8992 29.5099Z" fill="#A02724"/>
<path d="M97.1908 28.6338C97.1234 28.836 96.9886 29.0382 96.719 29.173C96.045 29.2404 94.2252 29.1056 93.7534 29.0382C93.4164 28.9708 93.2142 28.9034 93.012 28.5664C95.5058 28.499 96.7864 28.6338 97.1908 28.6338Z" fill="white"/>
<path d="M85.3283 26.0727C85.3283 26.0727 88.5635 27.4207 87.9569 23.8485C87.3503 20.2763 91.0573 23.6463 91.7987 19.5349C91.7987 19.5349 94.4947 20.0741 94.6295 18.2543C94.6295 18.2543 95.5057 19.3327 94.4947 19.6697C94.0903 19.8045 93.8881 20.2089 93.7533 20.6807C93.6185 21.1525 94.1577 21.4895 94.4947 21.1525C94.8991 20.7481 95.4383 20.4111 96.0449 20.4111C97.3255 20.4111 96.4493 18.0521 96.4493 18.0521C96.4493 18.0521 97.5277 18.3891 98.4039 20.6807C98.4039 20.6807 100.291 15.4909 95.7079 14.8843C95.7079 14.8843 90.4507 10.6381 85.9349 14.8843C81.4865 19.1305 81.2843 22.0287 81.2843 22.0287C81.2843 22.0287 81.4865 25.3987 79.8689 26.0727C78.9927 26.4097 79.3297 27.3533 79.8689 28.1621C80.0711 28.4991 80.6103 28.2969 80.5429 27.9599C80.5429 27.5555 80.6103 27.1511 80.9473 27.0837C81.7561 26.9489 82.1605 25.7357 82.1605 25.7357C82.1605 25.7357 82.6323 26.6793 81.9583 28.2295C81.2843 29.7797 83.1041 29.6449 83.3737 31.2625C83.4411 31.6669 83.5759 32.0713 83.7781 32.3409C84.0477 32.7453 84.7217 32.4757 84.6543 32.0039C84.5869 31.7343 84.5869 31.3973 84.7217 31.2625C84.7217 31.2625 85.6653 32.0039 86.2045 33.1497C86.4741 33.6215 87.1481 33.4867 87.2155 32.9475C87.3503 31.8017 87.1481 30.2515 85.6653 28.6339L85.3283 26.0727Z" fill="#263238"/>
<path d="M82.9019 26.9491C83.4411 28.1623 84.3847 29.0386 85.2609 29.443C86.6089 30.0496 87.3503 28.7016 87.0807 27.1514C86.8111 25.8034 85.7327 23.7813 84.3173 23.8487C82.9019 23.9161 82.2953 25.5337 82.9019 26.9491Z" fill="#FF8B7B"/>
<path opacity="0.2" d="M97.4603 74.6006L97.7299 72.1742C97.8647 71.0958 97.0559 70.0848 95.9101 70.0174L92.3379 69.7478L88.8331 71.0284L88.6983 70.5566C88.4961 69.8826 88.2939 69.8152 88.0243 69.8152L87.3503 69.7478L86.0023 69.613C85.1261 69.4782 84.1825 69.4108 83.3063 69.276C81.5539 69.0738 79.8015 68.7368 78.1165 68.3998C76.9707 68.1976 75.8249 67.8606 74.8139 67.5236C75.0161 72.5112 74.3421 73.1852 74.0725 76.2856C74.9487 76.4878 75.8249 76.6226 76.7011 76.69C78.7231 76.9596 80.7451 77.027 82.6997 77.0944C83.7107 77.0944 84.6543 77.0944 85.6653 77.0944L87.1481 77.027L87.8895 76.9596C88.0917 76.9596 88.2939 76.9596 88.4961 76.6226C90.3159 77.0944 92.7423 76.5552 92.7423 76.5552L95.5731 76.353C96.5841 76.2856 97.3929 75.5442 97.4603 74.6006Z" fill="black"/>
<path opacity="0.2" d="M81.6213 49.3257L80.3407 47.5733L78.7231 48.5169L75.6227 53.1675L74.2747 55.2569C74.4769 59.4357 74.4095 62.8731 74.9487 66.9171L76.3641 67.1193C73.6007 65.7713 81.6213 49.3257 81.6213 49.3257Z" fill="black"/>
<path d="M110.671 74.668H92.4054C91.664 74.668 91.0574 73.9266 91.2596 73.1852L93.8208 61.9968C93.9556 61.4576 94.4274 61.0532 94.9666 61.0532H113.232C113.973 61.0532 114.58 61.7946 114.378 62.536L111.817 73.7244C111.749 74.2636 111.277 74.668 110.671 74.668Z" fill="#263238"/>
<path d="M111.21 74.9376H92.9447C92.2033 74.9376 91.5967 74.1962 91.7989 73.4548L94.3601 62.2664C94.4949 61.7272 94.9667 61.3228 95.5059 61.3228H113.771C114.513 61.3228 115.119 62.0642 114.917 62.8056L112.356 73.994C112.288 74.5332 111.749 74.9376 111.21 74.9376Z" fill="#263238"/>
<path opacity="0.5" d="M111.21 74.9376H92.9447C92.2033 74.9376 91.5967 74.1962 91.7989 73.4548L94.3601 62.2664C94.4949 61.7272 94.9667 61.3228 95.5059 61.3228H113.771C114.513 61.3228 115.119 62.0642 114.917 62.8056L112.356 73.994C112.288 74.5332 111.749 74.9376 111.21 74.9376Z" fill="white"/>
<path d="M87.7547 70.7592L93.0793 68.8046L93.5511 75.612C93.5511 75.612 88.4961 76.7578 87.4177 74.1966L87.7547 70.7592Z" fill="#FF8B7B"/>
<path d="M98.4713 71.2309L98.2017 73.6573C98.1343 74.6009 97.3255 75.3423 96.3819 75.4097L93.5511 75.6119L93.0793 68.8045L96.6515 69.0741C97.7973 69.1415 98.6061 70.1525 98.4713 71.2309Z" fill="#FF8B7B"/>
<path d="M89.7093 70.5567L89.4397 69.5457C89.2375 68.8717 89.0353 68.8043 88.7657 68.8043L88.0917 68.7369L86.7437 68.6021C85.8675 68.4673 84.9239 68.3999 84.0477 68.2651C82.2953 68.0629 80.5429 67.7259 78.8579 67.3889C77.1729 67.0519 75.5553 66.5801 74.3421 66.0409C74.1399 65.9735 74.0051 65.9061 73.8703 65.7713C73.8703 65.4343 74.0051 64.8951 74.1399 64.3559C74.3421 63.6819 74.5443 62.9405 74.8139 62.1991C75.4205 60.7163 76.0945 59.0987 76.9033 57.5485C77.7121 55.9983 78.5883 54.4481 79.4645 52.8979C79.9363 52.1565 80.3407 51.3477 80.8125 50.6063C81.2843 49.8649 81.7561 49.0561 82.2279 48.3821V48.3147C82.2279 48.2473 82.2953 48.2473 82.2953 48.1799C83.7781 45.8209 83.0367 42.6531 80.6103 41.1703C78.2513 39.6875 75.0835 40.4289 73.6007 42.8553C73.0615 43.7315 72.5897 44.5403 72.0505 45.4165C71.5787 46.2927 71.1069 47.1015 70.6351 47.9777C69.6915 49.7301 68.8153 51.4825 68.0065 53.3023C67.1977 55.1221 66.3889 57.0093 65.7823 59.0313C65.4453 60.0423 65.1757 61.1207 64.9061 62.2665C64.7039 63.4123 64.5017 64.6929 64.5691 66.2431C64.6365 67.0519 64.7713 67.9281 65.1083 68.9391L65.2431 69.3435C65.3105 69.4783 65.3779 69.6805 65.4453 69.8153C65.5801 70.0849 65.7823 70.3545 65.9171 70.6241C66.2541 71.0959 66.6585 71.5003 66.9955 71.8373C67.7369 72.5113 68.4109 72.9157 69.0175 73.2527C69.6915 73.5897 70.2981 73.8593 70.8373 74.0615C73.1289 74.8703 75.2183 75.2073 77.2403 75.4769C79.2623 75.7465 81.2843 75.8139 83.2389 75.8813C84.2499 75.8813 85.1935 75.8813 86.2045 75.8813L87.6873 75.8139L88.4287 75.7465C88.6983 75.7465 88.9005 75.7465 89.1701 75.0725C90.0463 73.8593 90.1811 72.1743 89.7093 70.5567Z" fill="#7165FC"/>
<path d="M111.749 187.024L106.02 187.765C105.818 187.765 105.683 187.968 105.683 188.17L105.616 192.753C105.616 193.225 106.088 193.629 106.559 193.562C108.514 193.292 109.458 193.023 112.019 192.686C113.569 192.484 118.017 192.079 120.174 191.742C122.264 191.473 122.129 189.316 121.253 189.248C117.141 188.911 114.176 188.102 112.693 187.159C112.356 187.091 112.086 187.024 111.749 187.024Z" fill="#263238"/>
<path d="M112.154 187.698C112.086 187.698 112.086 187.631 112.019 187.631C112.019 187.563 112.019 187.496 112.086 187.496C112.288 187.361 114.176 186.013 114.85 186.283C114.984 186.35 115.052 186.417 115.119 186.552C115.187 186.822 115.119 187.024 114.984 187.159C114.782 187.428 114.31 187.563 113.771 187.631C113.232 187.765 112.625 187.698 112.154 187.698ZM112.558 187.496C113.704 187.563 114.513 187.361 114.782 187.024C114.85 186.889 114.917 186.754 114.85 186.62C114.85 186.552 114.782 186.552 114.782 186.485C114.715 186.485 114.647 186.485 114.58 186.485C114.108 186.552 113.232 187.024 112.558 187.496Z" fill="#7165FC"/>
<path d="M112.154 187.698C112.086 187.698 112.086 187.631 112.086 187.563C112.086 187.496 112.019 186.148 112.558 185.474C112.76 185.272 112.962 185.204 113.165 185.204C113.502 185.204 113.636 185.339 113.636 185.474C113.839 186.013 112.76 187.294 112.154 187.631C112.154 187.631 112.154 187.631 112.086 187.631C112.154 187.698 112.154 187.698 112.154 187.698ZM112.76 185.676C112.356 186.08 112.356 186.957 112.288 187.361C112.828 186.889 113.569 185.946 113.434 185.609C113.434 185.609 113.367 185.474 113.165 185.474H113.097C112.962 185.474 112.828 185.541 112.76 185.676Z" fill="#7165FC"/>
<path d="M74.14 187.765H68.411C68.2088 187.765 68.0066 187.9 68.0066 188.102L67.3326 192.686C67.2652 193.157 67.6696 193.629 68.1414 193.629C70.1634 193.629 71.107 193.494 73.6682 193.494C75.2184 193.494 79.6668 193.697 81.8236 193.697C83.913 193.697 84.1152 191.607 83.1716 191.405C79.1276 190.529 76.2968 189.316 74.9488 188.17C74.7466 187.9 74.4096 187.765 74.14 187.765Z" fill="#263238"/>
<path d="M74.4097 188.506C74.3423 188.506 74.3423 188.439 74.3423 188.372C74.3423 188.304 74.3423 188.304 74.4097 188.237C74.6119 188.102 76.7013 187.091 77.3079 187.428C77.4427 187.495 77.5101 187.63 77.5101 187.765C77.5101 188.035 77.4427 188.237 77.3079 188.372C77.0383 188.641 76.5665 188.709 76.0947 188.709C75.4881 188.641 74.8815 188.574 74.4097 188.506ZM74.8141 188.304C75.9599 188.506 76.7687 188.439 77.1057 188.169C77.2405 188.102 77.2405 187.967 77.2405 187.765C77.2405 187.698 77.2405 187.63 77.1731 187.63C77.1057 187.63 77.0383 187.563 76.9709 187.563C76.4991 187.63 75.5555 187.967 74.8141 188.304Z" fill="#7165FC"/>
<path d="M74.4097 188.439C74.3423 188.439 74.3423 188.372 74.3423 188.304C74.3423 188.237 74.4771 186.889 75.0837 186.35C75.2859 186.215 75.4881 186.148 75.7577 186.148C76.0947 186.215 76.1621 186.35 76.2295 186.485C76.2969 187.091 75.0837 188.17 74.4771 188.439C74.4771 188.439 74.4771 188.439 74.4097 188.439C74.4097 188.507 74.4097 188.507 74.4097 188.439ZM75.2859 186.552C74.8815 186.889 74.6793 187.698 74.6119 188.102C75.2185 187.698 76.0273 186.889 76.0273 186.485C76.0273 186.485 76.0273 186.35 75.7577 186.35H75.6903C75.4881 186.417 75.3533 186.485 75.2859 186.552Z" fill="#7165FC"/>
</svg>
