<svg width="31" height="34" viewBox="0 0 31 34" fill="none" xmlns="http://www.w3.org/2000/svg">
<path d="M29.3243 0H17.5946V4.14634C17.5946 5.97073 16.0865 7.46341 14.2432 7.46341H10.0541V11.6098H13.4054C15.2486 11.6098 16.7568 13.1024 16.7568 14.9268V29.8537H29.3243C30.2459 29.8537 31 29.1073 31 28.1951V1.65854C31 0.746341 30.2459 0 29.3243 0ZM23.8784 11.6098C22.2446 11.6098 20.9459 10.3244 20.9459 8.70732C20.9459 7.38049 21.8257 6.30244 23.0405 5.92927V4.97561C23.0405 4.51951 23.4176 4.14634 23.8784 4.14634C24.3392 4.14634 24.7162 4.51951 24.7162 4.97561V5.92927C25.9311 6.30244 26.8108 7.38049 26.8108 8.70732C26.8108 9.16341 26.4338 9.53658 25.973 9.53658C25.5122 9.53658 25.1351 9.16341 25.1351 8.70732C25.1351 8.00244 24.5905 7.46341 23.8784 7.46341C23.1662 7.46341 22.6216 8.00244 22.6216 8.70732C22.6216 9.37073 23.1662 9.95122 23.8784 9.95122C25.5122 9.95122 26.8108 11.2366 26.8108 12.8537C26.8108 14.1805 25.9311 15.2585 24.7162 15.6317V16.5854C24.7162 17.0415 24.3392 17.4146 23.8784 17.4146C23.4176 17.4146 23.0405 17.0415 23.0405 16.5854V15.6317C21.8257 15.2585 20.9459 14.1805 20.9459 12.8537C20.9459 12.3976 21.323 12.0244 21.7838 12.0244C22.2446 12.0244 22.6216 12.3976 22.6216 12.8537C22.6216 13.5171 23.1662 14.0976 23.8784 14.0976C24.5905 14.0976 25.1351 13.5171 25.1351 12.8537C25.1351 12.1488 24.5905 11.6098 23.8784 11.6098ZM27.6486 25.7073H20.1081C19.6473 25.7073 19.2703 25.3341 19.2703 24.878C19.2703 24.422 19.6473 24.0488 20.1081 24.0488H27.6486C28.1095 24.0488 28.4865 24.422 28.4865 24.878C28.4865 25.3341 28.1095 25.7073 27.6486 25.7073ZM27.6486 21.561H20.1081C19.6473 21.561 19.2703 21.1878 19.2703 20.7317C19.2703 20.2756 19.6473 19.9024 20.1081 19.9024H27.6486C28.1095 19.9024 28.4865 20.2756 28.4865 20.7317C28.4865 21.1878 28.1095 21.561 27.6486 21.561ZM14.2432 5.80488H11.227L15.9189 1.16098V4.14634C15.9189 5.05854 15.1649 5.80488 14.2432 5.80488ZM15.0811 14.9268V17.4146H0V14.9268C0 14.0146 0.754054 13.2683 1.67568 13.2683H13.4054C14.327 13.2683 15.0811 14.0146 15.0811 14.9268ZM0 32.3415C0 33.2537 0.754054 34 1.67568 34H13.4054C14.327 34 15.0811 33.2537 15.0811 32.3415V19.0732H0V32.3415ZM10.8919 22.2244C10.8919 22.1829 10.9338 22.1415 10.9338 22.0585C10.9338 22.0171 10.9757 21.9756 11.0176 21.9341C11.0595 21.8927 11.0595 21.8512 11.1014 21.8098C11.3946 21.478 11.9811 21.478 12.2743 21.8098C12.3162 21.8512 12.3581 21.8927 12.3581 21.9341C12.4 21.9756 12.4 22.0171 12.4419 22.0585C12.4838 22.1 12.4838 22.1415 12.4838 22.2244C12.4838 22.2659 12.4838 22.3488 12.4838 22.3902C12.4838 22.4317 12.4838 22.5146 12.4838 22.5561C12.4838 22.5976 12.4419 22.6805 12.4419 22.722C12.4419 22.7634 12.4 22.8049 12.3581 22.8463C12.3162 22.8878 12.2743 22.9293 12.2743 22.9707C12.1486 23.1366 11.9392 23.2195 11.7297 23.2195C11.5203 23.2195 11.3108 23.1366 11.1432 22.9707C11.1014 22.9293 11.0595 22.8878 11.0176 22.8463C10.9757 22.8049 10.9757 22.7634 10.9338 22.722C10.8919 22.6805 10.8919 22.639 10.8919 22.5561C10.8919 22.5146 10.8919 22.4317 10.8919 22.3902C10.8919 22.3488 10.8919 22.2659 10.8919 22.2244ZM10.8919 26.5366C10.8919 26.0805 11.2689 25.7073 11.7297 25.7073C12.1905 25.7073 12.5676 26.0805 12.5676 26.5366V30.6829C12.5676 31.139 12.1905 31.5122 11.7297 31.5122C11.2689 31.5122 10.8919 31.139 10.8919 30.6829V26.5366ZM6.7027 22.2244C6.7027 22.1829 6.74459 22.1415 6.74459 22.0585C6.74459 22.0171 6.78649 21.9756 6.82838 21.9341C6.87027 21.8927 6.87027 21.8512 6.91216 21.8098C7.20541 21.478 7.79189 21.478 8.08513 21.8098C8.12703 21.8512 8.16892 21.8927 8.16892 21.9341C8.21081 21.9756 8.21081 22.0171 8.2527 22.0585C8.29459 22.1 8.29459 22.1415 8.29459 22.2244C8.29459 22.2659 8.29459 22.3488 8.29459 22.3902C8.29459 22.4317 8.29459 22.5146 8.29459 22.5561C8.29459 22.5976 8.2527 22.6805 8.2527 22.722C8.2527 22.7634 8.21081 22.8049 8.16892 22.8463C8.12703 22.8878 8.08514 22.9293 8.04324 22.9707C7.95946 23.0537 7.87568 23.0951 7.79189 23.1366C7.75 23.2195 7.66622 23.2195 7.54054 23.2195C7.33108 23.2195 7.12162 23.1366 6.95405 22.9707C6.91216 22.9293 6.87027 22.8878 6.87027 22.8463C6.82838 22.8049 6.82838 22.7634 6.78649 22.722C6.74459 22.6805 6.74459 22.639 6.74459 22.5561C6.74459 22.5146 6.74459 22.4317 6.74459 22.3902C6.74459 22.3488 6.7027 22.2659 6.7027 22.2244ZM6.7027 26.3707C6.7027 26.3293 6.74459 26.2463 6.74459 26.2049C6.74459 26.1634 6.78649 26.122 6.82838 26.0805C6.87027 26.039 6.87027 25.9976 6.91216 25.9561C6.95405 25.9146 6.99595 25.8732 7.03784 25.8732C7.07973 25.8732 7.12162 25.8317 7.16351 25.7902C7.20541 25.7902 7.2473 25.7488 7.33108 25.7488C7.62432 25.7073 7.87568 25.7902 8.08513 25.9561C8.12703 25.9976 8.16892 26.039 8.16892 26.0805C8.21081 26.122 8.21081 26.1634 8.2527 26.2049C8.29459 26.2463 8.29459 26.2878 8.29459 26.3707C8.29459 26.4122 8.29459 26.4951 8.29459 26.5366C8.29459 26.7439 8.21081 26.9512 8.04324 27.1171C7.95946 27.2829 7.75 27.3659 7.54054 27.3659C7.33108 27.3659 7.12162 27.2829 6.95405 27.1171C6.91216 27.0756 6.87027 27.0341 6.82838 26.9927C6.78649 26.9512 6.78649 26.9098 6.74459 26.8683C6.7027 26.8268 6.7027 26.7854 6.7027 26.7024C6.7027 26.661 6.7027 26.578 6.7027 26.5366C6.7027 26.4951 6.7027 26.4122 6.7027 26.3707ZM6.7027 30.5171C6.7027 30.4756 6.74459 30.3927 6.74459 30.3512C6.74459 30.3098 6.78649 30.2683 6.82838 30.2268C6.87027 30.1854 6.87027 30.1439 6.91216 30.1024C7.12162 29.8951 7.37297 29.8122 7.66622 29.8951C7.70811 29.8951 7.75 29.9366 7.83378 29.9366C7.87568 29.978 7.91757 29.978 7.95946 30.0195C8.00135 30.061 8.04324 30.1024 8.08513 30.1024C8.12703 30.1439 8.16892 30.1854 8.16892 30.2268C8.21081 30.2683 8.21081 30.3098 8.2527 30.3512C8.29459 30.3927 8.29459 30.4341 8.29459 30.5171C8.29459 30.5585 8.29459 30.6415 8.29459 30.6829C8.29459 30.8073 8.29459 30.8902 8.21081 31.0146C8.16892 31.0976 8.12703 31.222 8.04324 31.2634C8.00135 31.3049 7.95946 31.3463 7.91757 31.3878C7.87568 31.4293 7.83378 31.4293 7.79189 31.4707C7.75 31.5122 7.70811 31.5122 7.62432 31.5122C7.58243 31.5122 7.49865 31.5122 7.45676 31.5122C7.2473 31.5122 7.03784 31.4293 6.87027 31.2634C6.78649 31.1805 6.74459 31.0976 6.7027 31.0146C6.7027 30.8902 6.7027 30.8073 6.7027 30.6829C6.7027 30.6415 6.7027 30.5585 6.7027 30.5171ZM2.51351 22.2244C2.51351 22.1829 2.55541 22.1415 2.55541 22.0585C2.55541 22.0171 2.5973 21.9756 2.63919 21.9341C2.68108 21.8927 2.68108 21.8512 2.72297 21.8098C2.93243 21.6024 3.22568 21.5195 3.47703 21.6024C3.51892 21.6024 3.56081 21.6439 3.64459 21.6439C3.68649 21.6854 3.72838 21.6854 3.77027 21.7268C3.81216 21.7683 3.85405 21.8098 3.89595 21.8098C3.93784 21.8512 3.97973 21.8927 3.97973 21.9341C4.02162 21.9756 4.02162 22.0171 4.06351 22.0585C4.10541 22.1 4.1054 22.1415 4.1054 22.2244C4.1054 22.2659 4.1054 22.3488 4.1054 22.3902C4.1054 22.4317 4.1054 22.5146 4.1054 22.5561C4.1054 22.5976 4.06351 22.6805 4.06351 22.722C4.06351 22.7634 4.02162 22.8049 3.97973 22.8463C3.93784 22.8878 3.89595 22.9293 3.85405 22.9707C3.77027 23.1366 3.56081 23.2195 3.35135 23.2195C3.14189 23.2195 2.93243 23.1366 2.76486 22.9707C2.72297 22.9293 2.68108 22.8878 2.68108 22.8463C2.63919 22.8049 2.63919 22.7634 2.5973 22.722C2.55541 22.6805 2.55541 22.639 2.55541 22.5561C2.55541 22.5146 2.55541 22.4317 2.55541 22.3902C2.55541 22.3488 2.51351 22.2659 2.51351 22.2244ZM2.51351 26.3707C2.51351 26.3293 2.55541 26.2463 2.55541 26.2049C2.55541 26.1634 2.5973 26.122 2.63919 26.0805C2.68108 26.039 2.68108 25.9976 2.72297 25.9561C3.05811 25.6244 3.6027 25.6244 3.89595 25.9561C3.93784 25.9976 3.97973 26.039 3.97973 26.0805C4.02162 26.122 4.02162 26.1634 4.06351 26.2049C4.10541 26.2463 4.1054 26.2878 4.1054 26.3707C4.1054 26.4122 4.1054 26.4951 4.1054 26.5366C4.1054 26.578 4.1054 26.661 4.1054 26.7024C4.1054 26.7439 4.06351 26.8268 4.06351 26.8683C4.06351 26.9098 4.02162 26.9512 3.97973 26.9927C3.93784 27.0341 3.89595 27.0756 3.89595 27.1171C3.81216 27.2 3.72838 27.2415 3.64459 27.2829C3.56081 27.3659 3.47703 27.3659 3.35135 27.3659C3.22568 27.3659 3.14189 27.3659 3.01622 27.2829C2.93243 27.2415 2.80676 27.2 2.76486 27.1171C2.72297 27.0756 2.68108 27.0341 2.68108 26.9927C2.63919 26.9512 2.63919 26.9098 2.5973 26.8683C2.55541 26.8268 2.55541 26.7854 2.55541 26.7024C2.55541 26.661 2.55541 26.578 2.55541 26.5366C2.55541 26.4951 2.51351 26.4122 2.51351 26.3707ZM2.51351 30.5171C2.51351 30.4756 2.55541 30.3927 2.55541 30.3512C2.55541 30.3098 2.5973 30.2683 2.63919 30.2268C2.68108 30.1854 2.68108 30.1439 2.72297 30.1024C3.01622 29.7707 3.6027 29.7707 3.89595 30.1024C3.93784 30.1439 3.97973 30.1854 3.97973 30.2268C4.02162 30.2683 4.02162 30.3098 4.06351 30.3512C4.10541 30.3927 4.1054 30.4341 4.1054 30.5171C4.1054 30.5585 4.1054 30.6415 4.1054 30.6829C4.1054 30.8073 4.10541 30.8902 4.02162 31.0146C3.97973 31.0976 3.93784 31.222 3.85405 31.2634C3.77027 31.4293 3.56081 31.5122 3.35135 31.5122C3.14189 31.5122 2.93243 31.4293 2.76486 31.2634C2.68108 31.1805 2.63919 31.0976 2.5973 31.0146C2.51351 30.8902 2.51351 30.8073 2.51351 30.6829C2.51351 30.6415 2.51351 30.5585 2.51351 30.5171Z" fill="white"/>
</svg>
