<svg width="32" height="28" viewBox="0 0 32 28" fill="none" xmlns="http://www.w3.org/2000/svg">
<path d="M17.0411 27.9759C14.1715 27.1926 11.294 26.4092 8.42445 25.6259C7.50524 25.3781 6.63398 25.506 5.80269 25.9616C5.58687 26.0735 5.37905 26.1854 5.12327 26.3293C5.11528 26.2014 5.09929 26.1215 5.09929 26.0495C5.15524 24.0193 5.21919 21.989 5.26715 19.9587C5.27514 19.7029 5.36306 19.5671 5.57888 19.4472C7.8969 18.1363 10.2549 18.0723 12.6129 19.2953C13.668 19.8388 14.7551 20.1506 15.946 20.1665C17.3608 20.1825 18.7836 20.2385 20.1984 20.2864C21.4453 20.3264 22.5164 21.1497 22.8681 22.3327C22.8921 22.4206 22.9081 22.5165 22.9321 22.6604C22.7722 22.6604 22.6443 22.6604 22.5164 22.6604C20.4382 22.6045 18.36 22.5485 16.2817 22.4926C16.1698 22.4926 16.0579 22.4846 15.954 22.4926C15.6423 22.5165 15.4265 22.7403 15.4185 23.0361C15.4185 23.3318 15.6183 23.5716 15.938 23.5956C16.3537 23.6276 16.7693 23.6356 17.185 23.6436C19.2232 23.6995 21.2695 23.7555 23.3078 23.8114C23.9392 23.8274 24.163 23.6356 24.0831 23.0121C24.0112 22.5006 24.203 22.3007 24.6426 22.1089C26.1773 21.4215 27.696 20.6781 29.2147 19.9587C30.07 19.5591 30.9093 19.6949 31.5727 20.3424C31.4608 20.4223 31.3569 20.4943 31.253 20.5662C27.8878 22.7403 24.5227 24.9145 21.1576 27.1046C20.4302 27.5762 19.6229 27.784 18.7916 27.9279C18.6717 27.9519 18.5518 27.9759 18.4399 27.9999C17.9683 27.9759 17.5047 27.9759 17.0411 27.9759Z" fill="white"/>
<path d="M16.3144 1.32375e-05C20.7666 1.32375e-05 24.3795 3.61293 24.3635 8.04915C24.3555 12.4934 20.7426 16.0903 16.2904 16.0823C11.8622 16.0743 8.26523 12.4774 8.25723 8.04915C8.25723 3.60494 11.8702 -0.00797994 16.3144 1.32375e-05ZM15.6429 12.6532C15.6429 12.7811 15.6429 12.901 15.6429 13.0289C15.6429 13.6284 15.8028 13.8842 16.1865 13.8922C16.5781 13.9002 16.77 13.6364 16.738 13.0449C16.722 12.7491 16.8419 12.6612 17.0977 12.5733C18.5285 12.1177 19.2718 10.599 18.7763 9.19217C18.4086 8.14506 17.4734 7.48962 16.2744 7.42568C15.3392 7.37772 14.6518 6.5784 14.7877 5.70714C14.9156 4.92381 15.531 4.38827 16.3064 4.38827C17.0897 4.39626 17.7052 4.94779 17.8171 5.7551C17.8411 5.90697 17.8411 6.12279 17.929 6.19473C18.0968 6.31463 18.3366 6.42653 18.5285 6.40255C18.8322 6.36259 18.9281 6.08282 18.9201 5.78708C18.8882 4.708 18.1288 3.71684 17.0737 3.38912C16.9618 3.35715 16.8499 3.31718 16.73 3.27722C16.73 3.05341 16.738 2.86157 16.73 2.66974C16.714 2.32603 16.4902 2.11021 16.1705 2.11821C15.8587 2.11821 15.6429 2.34202 15.6269 2.68572C15.619 2.78164 15.619 2.88555 15.6269 2.98147C15.6509 3.22127 15.595 3.36514 15.3232 3.46106C14.2122 3.87671 13.5807 4.91582 13.6446 6.1148C13.7086 7.21786 14.5159 8.18503 15.6429 8.46479C15.9467 8.53673 16.2744 8.53673 16.5861 8.59268C17.2895 8.72057 17.8011 9.32006 17.8251 10.0315C17.849 10.7428 17.3775 11.3663 16.69 11.5582C15.7229 11.8139 14.8836 11.1825 14.7557 10.1034C14.7157 9.72771 14.4919 9.51989 14.1722 9.53588C13.8525 9.55186 13.5967 9.79965 13.6526 10.1593C13.7326 10.607 13.8365 11.0706 14.0443 11.4702C14.38 12.0777 14.9635 12.4294 15.6429 12.6532Z" fill="white"/>
<path d="M0.271768 17.601C1.60663 17.601 2.88554 17.601 4.21241 17.601C4.12448 20.9661 4.02856 24.2753 3.94064 27.5365C2.61377 27.5365 1.32687 27.5365 0 27.5365C0.0959182 24.1713 0.183843 20.8782 0.271768 17.601Z" fill="white"/>
</svg>
