<svg width="34" height="34" viewBox="0 0 34 34" fill="none" xmlns="http://www.w3.org/2000/svg">
<path d="M14.9145 34.0001C14.3227 33.8925 13.7309 33.8387 13.0853 33.7311C9.7499 33.1393 6.89862 31.633 4.53153 29.2121C4.42394 29.1583 4.37014 29.1045 4.31634 28.9969C3.61697 29.4273 2.86381 29.8577 2.11064 30.3419C1.94925 27.652 1.78786 25.0159 1.62646 22.2722C3.88596 23.7785 6.09166 25.2311 8.35116 26.6836C7.86698 26.9526 7.3828 27.1678 6.89863 27.4368C9.5885 29.9115 12.655 31.2026 16.2594 31.095C19.8638 30.9874 22.8765 29.5349 25.4588 26.8988C25.2974 28.1899 25.136 29.3197 24.9746 30.557C25.3512 30.4494 25.6202 30.3418 25.943 30.2343C25.943 30.2343 25.943 30.2881 25.9968 30.2881C25.674 30.5032 25.405 30.7722 25.0822 30.9874C23.0917 32.44 20.886 33.3545 18.4651 33.7849C17.9271 33.8925 17.3891 33.9463 16.7974 34.0001C16.1518 34.0001 15.5062 34.0001 14.9145 34.0001Z" fill="white"/>
<path d="M16.7975 27.1678C16.0443 27.1678 15.3449 27.1678 14.5918 27.1678C14.5918 26.576 14.5918 25.9843 14.5918 25.3925C14.5918 25.1235 14.538 25.0697 14.269 25.0159C13.0854 24.9083 11.9557 24.6393 10.8259 24.1014C11.0411 23.2406 11.2563 22.3798 11.4715 21.5729C12.2785 21.8419 13.0854 22.1108 13.8386 22.326C14.5918 22.5412 15.3987 22.5412 16.2057 22.326C16.6899 22.1646 17.1202 21.8956 17.2278 21.3577C17.3354 20.7659 17.0664 20.2817 16.5823 20.0127C15.9905 19.6899 15.3449 19.421 14.6994 19.152C13.8386 18.8292 13.0316 18.4526 12.2785 17.8608C10.6107 16.5159 10.5031 13.9336 12.1171 12.4811C12.7626 11.8893 13.5696 11.5127 14.4304 11.2975C14.6456 11.2437 14.7531 11.1361 14.7531 10.9209C14.7531 10.3292 14.7531 9.7374 14.7531 9.14563C15.5063 9.14563 16.2057 9.14563 16.9588 9.14563C16.9588 9.7912 16.9588 10.383 16.9588 11.0285C17.4968 11.1361 18.0348 11.1899 18.5728 11.2975C19.0032 11.4051 19.4335 11.5665 19.9177 11.7279C20.0791 11.7817 20.1329 11.8893 20.0791 12.0507C19.8639 12.8039 19.7025 13.5032 19.4873 14.3102C19.3797 14.2564 19.2183 14.2026 19.1108 14.1488C17.981 13.6646 16.7975 13.4494 15.5601 13.6108C15.3449 13.6646 15.1297 13.7184 14.9145 13.8798C14.2152 14.3102 14.1614 15.1172 14.7531 15.6013C15.1297 15.8703 15.5601 16.1393 16.0443 16.3007C16.9051 16.6773 17.7658 17.0001 18.5728 17.3767C19.3797 17.7532 20.0253 18.345 20.4019 19.2058C21.1551 20.8735 20.5633 22.9716 19.0032 23.94C18.4114 24.3165 17.712 24.5317 17.0664 24.8007C16.8513 24.8545 16.7975 24.9621 16.7975 25.1773C16.7975 25.8229 16.7975 26.4684 16.7975 27.1678Z" fill="white"/>
<path d="M3.34803 22.0032C2.43347 21.25 1.51892 20.4969 0.550559 19.6899C0.442964 20.1741 0.389167 20.6045 0.281572 21.0348C-0.471594 16.8924 0.281572 12.9652 2.59487 9.46837C4.90816 5.97153 8.18981 3.71203 12.2784 2.58228C12.2784 1.72152 12.2784 0.914558 12.2784 0C14.6993 1.23734 17.0664 2.42089 19.4873 3.65823C17.0664 4.89558 14.6993 6.07912 12.2784 7.31647C12.2784 6.77849 12.2784 6.24052 12.2784 5.70254C8.78158 6.83229 6.1455 8.8766 4.42398 12.0507C2.70246 15.1171 2.43347 18.5064 3.34803 22.0032Z" fill="white"/>
<path d="M18.7341 5.4336C19.9177 4.94943 21.0474 4.46525 22.1772 3.98107C21.8544 3.71208 21.5316 3.49689 21.2088 3.22791C27.8259 5.4874 33.7436 13.3418 31.0538 22.7564C31.7531 23.1868 32.5063 23.6172 33.2595 24.1014C31 25.6077 28.7943 27.0602 26.5348 28.5128C26.6962 25.7691 26.8576 23.133 27.019 20.4431C27.5031 20.7121 27.9873 20.9273 28.4715 21.1963C29.2785 17.6456 28.7943 14.364 26.9114 11.2975C24.9746 8.28487 22.2848 6.34816 18.7341 5.4336Z" fill="white"/>
</svg>
