<svg width="27" height="26" viewBox="0 0 27 26" fill="none" xmlns="http://www.w3.org/2000/svg">
<path d="M25.6021 26.0001H-0.000198364V25.2878C0.203317 25.0029 0.203317 25.0029 1.06487 24.8943C1.07165 24.7994 1.07843 24.7044 1.07843 24.6094C1.07843 22.7913 1.07843 20.9733 1.07843 19.1484C1.07843 18.5854 1.24803 18.4158 1.80431 18.4158C2.7744 18.4158 3.75127 18.4158 4.72136 18.4158C5.24372 18.4158 5.4201 18.5921 5.4201 19.1213C5.4201 20.9394 5.4201 22.7642 5.4201 24.5823V24.9011H7.57736V13.7688C7.57736 13.1651 7.74018 13.0023 8.34394 13.0023C9.29368 13.0023 10.2366 13.0023 11.1864 13.0023C11.7359 13.0023 11.919 13.1786 11.919 13.7281C11.919 17.3439 11.919 20.9529 11.919 24.5687V24.9079H14.0763V15.9464C14.0763 15.3223 14.2323 15.1731 14.8564 15.1731C15.813 15.1731 16.7695 15.1731 17.726 15.1731C18.228 15.1731 18.418 15.3562 18.418 15.865C18.418 18.7685 18.418 21.672 18.418 24.5755V24.9147H20.5752V9.46787C20.5752 9.37289 20.5684 9.27792 20.582 9.18973C20.6159 8.87089 20.8127 8.67416 21.1315 8.67416C22.2033 8.66737 23.282 8.66737 24.3538 8.67416C24.6862 8.67416 24.883 8.87767 24.9169 9.21008C24.9237 9.30505 24.9169 9.39324 24.9169 9.48822V24.9215H25.2968C25.7038 24.9215 25.9141 25.0504 25.9887 25.3421C26.0566 25.5999 25.9277 25.8169 25.6021 26.0001Z" fill="white"/>
<path d="M14.1102 8.30091C13.3164 8.07704 12.5363 7.84639 11.7426 7.6293C11.6883 7.61574 11.5798 7.66322 11.5391 7.71071C10.6843 8.76899 9.65995 8.94537 8.44564 8.22628C7.35344 9.1014 6.24767 9.97652 5.14191 10.8652C5.40648 11.3876 5.48788 11.9167 5.33864 12.473C5.01301 13.6805 3.73765 14.3657 2.56404 13.9654C1.3633 13.5516 0.766323 12.2423 1.24798 11.0891C1.72963 9.93581 3.06605 9.42024 4.18538 9.96973C4.3482 10.0511 4.44317 10.0376 4.58563 9.92903C5.63713 9.08105 6.70219 8.23985 7.77404 7.38509C7.58409 6.89665 7.52982 6.40821 7.67228 5.89942C7.94364 4.94968 8.88659 4.26452 9.8499 4.33235C10.9285 4.40698 11.7765 5.17355 11.8851 6.21148C11.9122 6.48283 12.0139 6.59138 12.2717 6.65921C12.984 6.84238 13.6896 7.05946 14.3951 7.25619C14.4765 7.27655 14.5986 7.26298 14.6596 7.20871C15.4941 6.42856 16.2742 6.29967 17.3461 6.79489C17.4003 6.7474 17.4614 6.69313 17.5224 6.63208C18.5875 5.56701 19.6526 4.50195 20.7244 3.43689C20.8465 3.31478 20.8872 3.23337 20.799 3.05699C20.3445 2.10725 20.6634 0.981132 21.5317 0.384153C22.3932 -0.212826 23.5601 -0.104285 24.2995 0.641939C25.0322 1.38138 25.1339 2.53463 24.5437 3.3894C23.9467 4.25773 22.8274 4.56979 21.8709 4.12205C21.7216 4.04743 21.6267 4.05422 21.5046 4.17632C20.4327 5.26174 19.3541 6.33359 18.2754 7.41222C18.1601 7.52755 18.1465 7.60895 18.2144 7.7582C18.6146 8.5994 18.4383 9.5627 17.7802 10.214C17.1222 10.8584 16.1453 11.0144 15.3109 10.6142C14.4968 10.2207 14.022 9.36597 14.1169 8.45015C14.1102 8.40266 14.1102 8.36196 14.1102 8.30091Z" fill="white"/>
</svg>
