<svg width="31" height="30" viewBox="0 0 31 30" fill="none" xmlns="http://www.w3.org/2000/svg">
<path d="M30.0039 15.9533C29.9806 19.924 28.5969 23.2636 25.876 25.8801C22.4341 22.5979 19.0272 19.3387 15.6202 16.0795C15.6551 16.0336 15.6783 15.9992 15.7132 15.9533H30.0039Z" fill="white"/>
<path d="M23.1318 25.708C23.1667 25.7424 23.19 25.7998 23.2248 25.8342C20.1551 29.4492 14.0969 31.0558 9.06205 29.2655C1.94577 26.7408 -1.19377 19.5338 0.410883 13.4401C2.24809 6.50851 8.51553 3.13455 13.9458 3.38703V4.05264C13.9458 7.98893 13.9574 11.9252 13.9341 15.873C13.9341 16.3779 14.1086 16.7107 14.4458 17.055C17.3527 19.924 20.2365 22.816 23.1318 25.708Z" fill="white"/>
<path d="M15.4923 1.6771C15.4923 1.09182 15.69 0.977063 16.2365 1.00002C21.0388 1.24101 24.7597 3.35261 27.3993 7.31185C28.7132 9.28573 29.5504 12.4187 29.3527 14.6565H15.5388C15.5272 14.4385 15.5155 14.2549 15.5155 14.0598C15.5039 9.93987 15.5155 5.80848 15.4923 1.6771Z" fill="white"/>
</svg>
