<svg width="28" height="29" viewBox="0 0 28 29" fill="none" xmlns="http://www.w3.org/2000/svg">
<path d="M0.00292887 28.41C0.067364 27.9824 0.125941 27.5519 0.199163 27.1243C0.471548 25.5925 1.32971 24.4561 2.58619 23.5862C3.43264 23.0004 4.36987 22.5845 5.30711 22.1745C6.48159 21.6619 7.65607 21.1494 8.82176 20.6193C9.4046 20.3527 9.9523 20.0159 10.3565 19.5004C10.4766 19.3481 10.5732 19.1782 10.6757 19.0113C10.7402 18.9059 10.7314 18.8063 10.6523 18.7008C10.3594 18.3172 10.0577 17.9364 9.78536 17.541C8.67531 15.9389 7.96946 14.164 7.56527 12.2661C7.30753 11.0536 7.19623 9.82637 7.27531 8.58453C7.35439 7.36319 7.60042 6.17992 8.15983 5.07867C8.95063 3.51172 10.2159 2.51884 11.8941 2.02093C12.7904 1.7544 13.7013 1.74269 14.6209 1.79834C15.4527 1.84813 16.2523 2.00628 17.0138 2.35482C18.4255 3.00503 19.395 4.07407 20.0071 5.48578C20.4523 6.51382 20.71 7.58578 20.7013 8.70754C20.6925 9.54227 20.6808 10.377 20.6163 11.2088C20.5402 12.1665 20.2473 13.0511 19.5414 13.754C18.9967 14.2958 18.3406 14.6473 17.6172 14.8816C16.8205 15.1364 15.9946 15.2126 15.1657 15.2594C14.9519 15.2711 14.741 15.3121 14.5272 15.3414C14.0264 15.4147 13.6895 16.1527 13.9649 16.5979C14.0908 16.8 14.2548 16.9757 14.4071 17.1573C14.4276 17.1808 14.4774 17.1925 14.5096 17.1925C15.3033 17.1661 16.1 17.1573 16.8908 17.0988C17.4971 17.0548 18.0682 16.8352 18.6423 16.6506C18.7184 16.6272 18.7975 16.6067 18.9205 16.5716C18.8531 16.6887 18.8151 16.7766 18.7594 16.8527C18.3757 17.3565 17.9891 17.8603 17.6025 18.3611C17.541 18.4431 17.4766 18.5251 17.4033 18.5954C17.2305 18.7594 17.251 18.9234 17.3594 19.1167C17.6757 19.682 18.1561 20.0716 18.7038 20.3879C19.5297 20.8653 20.4142 21.2167 21.29 21.5829C22.3854 22.0427 23.4866 22.4967 24.5264 23.0766C25.4548 23.595 26.2837 24.2364 26.9456 25.077C27.5255 25.8121 27.8213 26.6557 27.9092 27.5782C27.9385 27.8946 27.9502 28.2109 27.9736 28.5272C27.9766 28.5741 27.9912 28.6209 28 28.6707C27.9941 28.6795 27.9912 28.6971 27.9854 28.7C27.9473 28.7029 27.9063 28.7 27.8682 28.7C18.5778 28.7 9.29038 28.7 0 28.7C0.00292887 28.6063 0.00292887 28.5067 0.00292887 28.41Z" fill="white"/>
<path d="M14.7937 0C15.0895 0.0175732 15.3853 0.0351464 15.6841 0.0497908C16.9318 0.120084 18.0652 0.535983 19.0962 1.23013C20.5196 2.19079 21.4451 3.5205 21.8493 5.18117C21.9928 5.76987 21.9782 6.39958 22.0192 7.01171C22.0456 7.40711 22.0485 7.80251 22.0544 8.19791C22.0573 8.2887 22.0866 8.33849 22.1686 8.37657C22.2916 8.43515 22.4117 8.49958 22.5259 8.5728C22.5669 8.59916 22.6079 8.65774 22.6079 8.70167C22.6226 9.94059 22.6343 11.1795 22.6431 12.4213C22.6431 12.4682 22.6167 12.5326 22.5815 12.5561C22.3912 12.6732 22.2067 12.8167 21.9987 12.8782C21.7205 12.9632 21.5506 13.1243 21.4334 13.382C21.2372 13.8155 20.9853 14.2138 20.6631 14.5682C20.0305 15.2623 19.2368 15.7105 18.3728 16.0443C17.4004 16.4192 16.387 16.6096 15.3443 16.6243C15.1569 16.6272 14.9636 16.6096 14.779 16.5745C14.5799 16.5364 14.5184 16.431 14.5272 16.2113C14.533 16.0151 14.6004 15.9213 14.8054 15.9038C15.2037 15.8715 15.605 15.8745 16.0033 15.8423C17.459 15.7251 18.7916 15.2858 19.8899 14.2812C20.2707 13.9326 20.5753 13.5226 20.8096 13.0598C20.9297 12.8255 20.9941 12.5795 21 12.3159C21.0292 11.3201 21.0556 10.3243 21.0878 9.33138C21.0966 9.09707 21.0966 8.85983 21.1493 8.63138C21.3924 7.57113 21.287 6.50502 21.161 5.45063C21.0703 4.68326 20.6895 3.99791 20.2355 3.37406C19.2602 2.03556 17.9598 1.18326 16.3313 0.872803C15.8832 0.787866 15.4175 0.776151 14.9606 0.773222C13.9912 0.764435 13.0188 0.764435 12.0493 0.799581C10.8836 0.843515 9.84682 1.28577 8.9213 1.97699C7.70289 2.88787 6.84766 4.05649 6.58992 5.58243C6.49326 6.15063 6.49619 6.73933 6.47862 7.31632C6.46983 7.63264 6.4669 7.95774 6.5372 8.26234C6.78615 9.3431 6.69243 10.4356 6.69243 11.5251C6.69243 11.8649 6.64849 12.2075 6.62799 12.5473C6.61628 12.7669 6.48155 12.8695 6.29117 12.9163C5.93971 13.0042 5.63218 12.887 5.33636 12.6996C5.16063 12.5883 5.09033 12.4536 5.09619 12.2339C5.11962 11.077 5.12841 9.92008 5.13427 8.76318C5.13427 8.64895 5.16649 8.57573 5.27485 8.54351C5.62046 8.441 5.71125 8.20962 5.71418 7.85523C5.72004 7.14937 5.76105 6.44059 5.82548 5.73766C5.92799 4.59247 6.39368 3.58494 7.10833 2.69456C8.2623 1.25941 9.76188 0.395397 11.5749 0.0790795C11.8267 0.0351464 12.0903 0.0410042 12.3481 0.023431C12.4096 0.0175732 12.474 0.00878661 12.5355 0C13.2912 0 14.041 0 14.7937 0Z" fill="white"/>
</svg>
