<svg width="114" height="114" viewBox="0 0 114 114" fill="none" xmlns="http://www.w3.org/2000/svg">
<g clip-path="url(#clip0_389_2076)">
<path d="M57 114C49.3063 114 41.841 112.489 34.8148 109.521C28.0257 106.649 21.9305 102.539 16.696 97.304C11.4615 92.0695 7.35116 85.9743 4.4792 79.1852C1.51063 72.159 0 64.6937 0 57C0 49.3063 1.51063 41.841 4.4792 34.8148C7.35116 28.0257 11.4615 21.9305 16.696 16.696C21.9305 11.4615 28.0257 7.35116 34.8148 4.4792C41.841 1.51063 49.3063 0 57 0C64.6937 0 72.159 1.51063 79.1852 4.4792C85.9743 7.35116 92.0695 11.4615 97.304 16.696C102.539 21.9305 106.649 28.0257 109.521 34.8148C112.489 41.841 114 49.3063 114 57C114 64.6937 112.489 72.159 109.521 79.1852C106.649 85.9743 102.539 92.0695 97.304 97.304C92.0695 102.539 85.9743 106.649 79.1852 109.521C72.159 112.489 64.6937 114 57 114ZM57 3.19692C27.3319 3.19692 3.19692 27.3319 3.19692 57C3.19692 86.6681 27.3319 110.794 56.9912 110.794C86.6505 110.794 110.786 86.6593 110.786 57C110.794 27.3319 86.6681 3.19692 57 3.19692Z" fill="#5F5F5F"/>
<path d="M57.5538 16.2656H56.4384C55.5952 16.2656 54.9189 15.5894 54.9189 14.7462V8.21185H59.0732V14.7462C59.0732 15.5806 58.3969 16.2656 57.5538 16.2656Z" fill="#E8414F"/>
<path d="M16.2657 56.4379V57.5533C16.2657 58.3965 15.5894 59.0727 14.7463 59.0727H8.21191V54.9185H14.7463C15.5806 54.9273 16.2657 55.6035 16.2657 56.4379Z" fill="#E8414F"/>
<path d="M56.4384 97.7343H57.5538C58.3969 97.7343 59.0732 98.4106 59.0732 99.2538V105.788H54.9189V99.2538C54.9277 98.4106 55.604 97.7343 56.4384 97.7343Z" fill="#E8414F"/>
<path d="M97.7344 57.5533V56.4379C97.7344 55.5948 98.4106 54.9185 99.2538 54.9185H105.788V59.0727H99.2538C98.4106 59.0727 97.7344 58.3965 97.7344 57.5533Z" fill="#E8414F"/>
<path d="M35.5354 19.4977L35.1578 19.7173C34.8767 19.8841 34.5079 19.7875 34.3498 19.4977L31.8555 15.1854L33.2607 14.3773L35.755 18.6897C35.9219 18.9707 35.8165 19.3396 35.5354 19.4977Z" fill="#5F5F5F"/>
<path d="M19.6651 35.2539L19.4455 35.6316C19.2787 35.9126 18.9186 36.0092 18.6375 35.8511L14.3164 33.3568L15.1244 31.9516L19.4367 34.4459C19.7266 34.6128 19.8232 34.9729 19.6651 35.2539Z" fill="#5F5F5F"/>
<path d="M19.4973 78.465L19.7169 78.8427C19.8837 79.1237 19.7871 79.4926 19.4973 79.6507L15.185 82.145L14.377 80.7397L18.6893 78.2454C18.9703 78.0786 19.3392 78.1752 19.4973 78.465Z" fill="#5F5F5F"/>
<path d="M35.2545 94.3354L35.6321 94.555C35.9132 94.7219 36.0098 95.082 35.8517 95.363L33.3574 99.6753L31.9521 98.8673L34.4464 94.555C34.6133 94.2739 34.9734 94.1685 35.2545 94.3354Z" fill="#5F5F5F"/>
<path d="M78.4653 94.5023L78.8429 94.2827C79.124 94.1159 79.4929 94.2125 79.651 94.5023L82.1452 98.8146L80.74 99.6226L78.2457 95.3103C78.0788 95.0293 78.1755 94.6604 78.4653 94.5023Z" fill="#5F5F5F"/>
<path d="M94.3356 78.7461L94.5552 78.3684C94.722 78.0874 95.0821 77.9907 95.3632 78.1488L99.6755 80.6431L98.8675 82.0484L94.5552 79.5541C94.2741 79.3872 94.1687 79.0271 94.3356 78.7461Z" fill="#5F5F5F"/>
<path d="M94.5024 35.535L94.2828 35.1573C94.1159 34.8763 94.2126 34.5074 94.5024 34.3493L98.8147 31.855L99.6227 33.2602L95.3104 35.7545C95.0294 35.9214 94.6605 35.816 94.5024 35.535Z" fill="#5F5F5F"/>
<path d="M78.7463 19.6646L78.3687 19.445C78.0876 19.2781 77.991 18.918 78.1491 18.637L80.6434 14.3246L82.0486 15.1327L79.5543 19.445C79.3875 19.726 79.0274 19.8226 78.7463 19.6646Z" fill="#5F5F5F"/>
<path d="M57.598 59.3977H55.3408V20.0334C55.3408 19.5767 55.7097 19.2079 56.1664 19.2079H56.7724C57.2291 19.2079 57.598 19.5767 57.598 20.0334V59.3977Z" fill="#5F5F5F"/>
<path d="M56.166 54.5935L57.4044 54.4618L61.5411 93.7821C61.5674 94.0281 61.383 94.2564 61.137 94.2827L60.8033 94.3179C60.5574 94.3442 60.329 94.1598 60.3027 93.9139L56.166 54.5935Z" fill="#E8414F"/>
<path d="M53.8213 55.8934L57.712 53.645L71.7557 77.9556C72.2124 78.7461 71.9401 79.7473 71.1496 80.204L70.1045 80.81C69.314 81.2667 68.3128 80.9945 67.8561 80.204L53.8213 55.8934Z" fill="#5F5F5F"/>
<path d="M60.9055 57.816C61.3581 55.6608 59.9777 53.5467 57.8225 53.0942C55.6672 52.6416 53.5532 54.022 53.1007 56.1772C52.6481 58.3325 54.0284 60.4465 56.1837 60.8991C58.3389 61.3516 60.453 59.9713 60.9055 57.816Z" fill="#E8414F"/>
</g>
<defs>
<clipPath id="clip0_389_2076">
<rect width="114" height="114" fill="white"/>
</clipPath>
</defs>
</svg>
