<svg width="39" height="40" viewBox="0 0 39 40" fill="none" xmlns="http://www.w3.org/2000/svg">
<path d="M33.668 19.4625V12.4767C33.668 11.2146 34.691 10.1916 35.9531 10.1916C37.2153 10.1916 38.2383 11.2146 38.2383 12.4767V22.8239C38.2383 26.2859 36.2822 29.4509 33.1858 30.9995L29.0977 33.0432V37.6135H21.0234V27.6692C21.0234 25.7367 22.4875 24.1181 24.41 23.9254C24.4189 23.9229 27.9016 23.39 29.5798 21.7118L31.2906 20.0018C31.9292 19.3632 32.8602 19.176 33.668 19.4625Z" fill="#FF5563" fill-opacity="0.05"/>
<path d="M24.295 2.5744C28.4677 2.5744 29.9218 6.41727 29.9218 8.66815C29.9218 13.2385 26.165 15.8352 19.5 21.6174C12.8349 15.8352 9.07812 13.2385 9.07812 8.66815C9.07812 6.41727 10.5322 2.5744 14.7049 2.5744C17.2666 2.5744 18.6864 4.44442 19.5 5.93282C20.3135 4.44442 21.7333 2.5744 24.295 2.5744Z" fill="#FF5563" fill-opacity="0.1"/>
<path d="M5.33203 19.4625C6.13945 19.1761 7.07058 19.363 7.70936 20.0018L9.42018 21.7118C11.0649 23.3565 14.5822 23.9232 14.59 23.9254C16.5125 24.1181 17.9766 25.7367 17.9766 27.6692V37.6135H9.90234V33.0432L5.8142 30.9995C2.71781 29.4509 0.761719 26.2859 0.761719 22.8239V12.4767C0.761719 11.2146 1.78471 10.1916 3.04688 10.1916C4.30904 10.1916 5.33203 11.2146 5.33203 12.4767V19.4625Z" fill="#FF5563" fill-opacity="0.05"/>
<path d="M30.6835 8.66815C30.6835 6.01768 28.9491 1.81268 24.295 1.81268C22.3828 1.81268 20.7742 2.71418 19.5 4.49614C18.2257 2.71418 16.6171 1.81268 14.7049 1.81268C10.0508 1.81268 8.31641 6.01768 8.31641 8.66815C8.31641 13.2379 11.8829 16.0964 16.7553 20.2628C17.4712 20.8749 18.2115 21.508 19.0008 22.1928C19.144 22.317 19.3219 22.3791 19.5 22.3791C19.678 22.3791 19.8559 22.317 19.9991 22.1928C20.7884 21.508 21.5287 20.8749 22.2447 20.2628C27.3456 15.901 30.6835 13.1413 30.6835 8.66815ZM19.5 20.6101C18.8913 20.0848 18.3108 19.5884 17.7453 19.1048C12.6478 14.7461 9.83984 12.345 9.83984 8.66815C9.83984 6.17406 11.4715 3.33612 14.7049 3.33612C16.3924 3.33612 17.7422 4.30503 18.8316 6.29814C18.9652 6.5425 19.2215 6.69454 19.5 6.69454C19.7784 6.69454 20.0348 6.5425 20.1683 6.29814C21.2577 4.30503 22.6075 3.33612 24.295 3.33612C27.4832 3.33612 29.1601 6.13193 29.1601 8.66815C29.1601 12.345 26.3522 14.7461 21.2546 19.1049C20.6892 19.5884 20.1087 20.0848 19.5 20.6101Z" fill="#FF5563"/>
<path d="M5.47356 31.6807L9.14062 33.514V37.6135C9.14062 38.0341 9.48172 38.3752 9.90234 38.3752H17.9766C18.3972 38.3752 18.7383 38.0341 18.7383 37.6135V27.6692C18.7383 25.3355 16.9876 23.4002 14.6718 23.168L14.6095 23.1613C13.2691 23.0269 10.8958 22.1101 9.95863 21.1731L8.24797 19.4631C7.67234 18.8875 6.90734 18.5705 6.09375 18.5705V12.4767C6.09375 10.7967 4.72692 9.42987 3.04688 9.42987C1.36683 9.42987 0 10.7967 0 12.4767V22.8239C0 26.5727 2.11743 30.0023 5.47356 31.6807ZM1.52344 12.4767C1.52344 11.6367 2.20685 10.9533 3.04688 10.9533C3.8869 10.9533 4.57031 11.6367 4.57031 12.4767V18.9789C3.64132 19.516 3.04688 20.5175 3.04688 21.6174C3.04688 22.431 3.3639 23.196 3.93953 23.7715L7.84029 27.673C8.13767 27.9706 8.61999 27.9706 8.91752 27.6731C9.21497 27.3757 9.21504 26.8934 8.91759 26.5959L5.01683 22.6943C4.72883 22.4064 4.57031 22.024 4.57031 21.6174C4.57031 20.9727 4.97837 20.3953 5.58584 20.1807C5.58591 20.1807 5.58606 20.1806 5.58614 20.1805C5.58629 20.1805 5.58652 20.1805 5.58667 20.1804C6.11211 19.9939 6.73535 20.105 7.17082 20.5405L8.88149 22.2505C10.6476 24.0166 14.5062 24.6812 14.5139 24.6833C16.0537 24.8376 17.2148 26.1213 17.2148 27.6692V36.8517H10.664V33.0432C10.664 32.7546 10.5009 32.4908 10.2429 32.3619L6.15484 30.3182C3.29817 28.8894 1.52344 26.0178 1.52344 22.8239V12.4767Z" fill="#FF5563"/>
<path d="M34.9629 30.6057C35.3836 30.6057 35.7246 30.2646 35.7246 29.8439C35.7246 29.4232 35.3836 29.0822 34.9629 29.0822C34.5422 29.0822 34.2012 29.4232 34.2012 29.8439C34.2012 30.2646 34.5422 30.6057 34.9629 30.6057Z" fill="#FF5563"/>
<path d="M35.9531 9.42987C34.2731 9.42987 32.9062 10.7967 32.9062 12.4767V18.5705C32.0927 18.5705 31.3277 18.8875 30.7522 19.4631L29.0412 21.1732C28.1042 22.1102 25.7309 23.027 24.3845 23.1619L24.3341 23.1674C22.0124 23.4002 20.2617 25.3355 20.2617 27.6692V37.6135C20.2617 38.0341 20.6028 38.3752 21.0234 38.3752H29.0977C29.5183 38.3752 29.8594 38.0341 29.8594 37.6135V33.514L32.3525 32.2676C32.7287 32.0795 32.8813 31.622 32.6932 31.2457C32.5051 30.8695 32.0475 30.7168 31.6713 30.905L28.757 32.3619C28.499 32.4908 28.3359 32.7546 28.3359 33.0432V36.8517H21.7852V27.6692C21.7852 26.1213 22.9462 24.8376 24.4919 24.6827L24.5423 24.6772C26.1946 24.5115 28.9303 23.4386 30.1183 22.2506L31.8293 20.5405C32.2659 20.1036 32.8904 19.9949 33.4132 20.1804C33.4134 20.1805 33.4136 20.1805 33.4138 20.1805C33.4139 20.1805 33.414 20.1806 33.4141 20.1807C34.0216 20.3953 34.4297 20.9727 34.4297 21.6174C34.4297 22.024 34.2712 22.4064 33.9832 22.6944L30.0825 26.596C29.785 26.8934 29.7851 27.3757 30.0826 27.6732C30.3799 27.9706 30.8623 27.9706 31.1598 27.6731L35.0605 23.7717C35.6361 23.196 35.9531 22.431 35.9531 21.6174C35.9531 20.5175 35.3587 19.516 34.4297 18.9789V12.4767C34.4297 11.6367 35.1131 10.9533 35.9531 10.9533C36.7931 10.9533 37.4766 11.6367 37.4766 12.4767V22.8239C37.4766 24.2176 37.1249 25.6012 36.4594 26.8251C36.2584 27.1948 36.3952 27.6572 36.7648 27.8581C37.1343 28.0591 37.597 27.9225 37.7979 27.5528C38.5843 26.1062 39 24.471 39 22.8239V12.4767C39 10.7967 37.6332 9.42987 35.9531 9.42987Z" fill="#FF5563"/>
</svg>
