<svg id="shape1" viewBox="0 0 194 112" xmlns="http://www.w3.org/2000/svg">
    <path
        d="M55.4363 1.12773C40.0197 2.20387 20.6361 11.7487 11.1621 24.0697C9.63758 26.2532 8.43972 28.6238 7.3352 31.0412C7.21074 30.4954 7.08629 29.9495 6.96184 29.4192C6.33957 26.7367 5.73286 24.0541 5.1106 21.3872C4.55056 18.9542 3.99052 16.5212 3.43048 14.0882C3.3527 13.7762 3.21269 13.4955 2.94823 13.2928C2.68376 13.1056 2.34152 13.0276 2.03038 13.0744C1.71925 13.1212 1.42368 13.3084 1.237 13.5579C1.05032 13.8074 0.956976 14.1662 1.0192 14.4781C1.39256 16.1157 1.76592 17.7533 2.15484 19.3909C2.76155 21.9954 3.3527 24.6 3.94385 27.2046C4.51944 29.7 5.07948 32.1798 5.65508 34.6752C5.73286 34.9871 5.87287 35.2678 6.13734 35.4706C6.23068 35.5329 6.32402 35.5797 6.43291 35.6265C6.68182 35.8137 6.99295 35.9073 7.30408 35.8449C8.03524 35.7201 8.76641 35.5641 9.49757 35.4238C10.2287 35.2834 10.9599 35.143 11.7066 35.0027C14.3824 34.488 17.0581 33.9733 19.7183 33.4586C21.8651 33.0531 24.0119 32.6321 26.1587 32.2265C26.4854 32.1642 26.7654 32.0238 26.9677 31.7587C27.1388 31.5403 27.2166 31.2752 27.2166 31.01C27.2166 30.9477 27.2166 30.9009 27.201 30.8385C27.1077 30.1991 26.4699 29.6688 25.8165 29.7935C24.7431 29.9963 23.6697 30.2146 22.5963 30.4174C19.9983 30.9009 17.4003 31.4155 14.7868 31.9146C13.4023 32.1798 12.0177 32.4449 10.6488 32.71C10.1354 32.8036 9.62202 32.9128 9.10865 33.0064C9.76203 31.4311 10.5399 29.9183 11.3333 28.4211C12.9978 25.2239 15.3624 22.4633 18.0382 20.0927C28.85 11.1561 42.1509 4.41854 56.3075 3.52955C89.7076 2.40663 128.459 14.8056 149.321 42.1613C144.716 41.1476 139.676 40.9136 135.351 43.0815C129.486 45.92 126.032 52.7044 126.872 59.13C128.055 68.8776 136.673 80.2161 147.485 75.7867C158.515 70.9519 159.541 55.8236 154.501 46.2008C169.762 52.1741 186.299 63.9336 189.955 80.8555C191.246 86.8133 190.499 93.3325 187.045 98.448C182.876 104.624 175.674 108.164 168.3 108.383C166.06 108.508 163.804 108.492 161.564 108.508C160.895 108.508 160.335 109.069 160.335 109.74C160.553 111.72 163.166 110.769 164.519 110.941C165.966 110.925 167.413 110.909 168.86 110.8C180.916 110.535 192.21 100.943 192.926 88.6068C194.077 65.9455 172.236 49.6007 152.805 43.0503C132.799 13.3084 90.0187 -0.494274 55.4363 1.12773ZM151.219 45.1402C153.272 48.7117 154.688 52.7044 154.983 56.8374C155.279 62.1245 153.832 67.8795 149.787 71.5134C145.354 75.6308 138.244 74.929 134.495 70.2345C127.479 62.1713 126.639 49.0237 138.027 44.6411C142.32 43.1907 146.956 43.9861 151.219 45.1402Z" />
</svg>