<svg id="shape2" viewBox="0 0 137 59" xmlns="http://www.w3.org/2000/svg">
    <path
        d="M126.217 6.27187C125.892 6.20847 125.579 6.27226 125.292 6.42985C123.266 7.55048 121.226 8.68861 119.2 9.80924C117.674 10.6545 116.147 11.4997 114.62 12.345C114.363 12.4835 114.167 12.7603 114.084 13.0418C114.072 13.0752 114.059 13.1086 114.062 13.1403C113.998 13.452 114.049 13.8002 114.22 14.072C114.393 14.3597 114.684 14.5551 115.012 14.6344C115.337 14.6978 115.65 14.634 115.937 14.4764C118.067 13.281 120.2 12.1174 122.33 10.9219C123.101 10.4906 123.887 10.0576 124.657 9.62622C124.419 11.3691 124.115 13.1024 123.744 14.7944C120.864 29.0764 109.267 41.6225 96.9338 48.6215C84.2049 55.4999 68.8946 56.9053 55.0018 53.0755C36.9891 47.6549 22.9752 33.7983 11.9181 19.032C9.83289 16.0949 8.03177 12.9684 6.44382 9.73999C5.26174 7.20937 4.14127 4.65645 2.9608 2.14172C2.67358 1.51224 1.92711 1.23444 1.30178 1.52263C0.965416 1.66911 0.724156 1.9666 0.631547 2.31329C0.5483 2.59478 0.564692 2.91436 0.688474 3.19095C4.38512 11.7956 8.74514 20.1724 15.1302 27.1075C22.985 36.5761 32.1547 45.1568 43.0939 50.8758C71.3519 66.1976 106.782 54.9168 122.102 26.7987C124.863 21.7486 126.395 16.068 127.107 10.3259C128.446 11.5717 129.785 12.8175 131.109 14.0649C132.097 14.9928 133.101 15.9192 134.104 16.8456C134.598 17.3096 135.423 17.2582 135.866 16.7475C136.325 16.2352 136.276 15.4371 135.767 14.9747C133.845 13.1775 131.924 11.3963 130.002 9.5991C128.981 8.65842 127.974 7.70024 126.953 6.75956C126.785 6.51957 126.527 6.33687 126.217 6.27187Z" />
</svg>