<svg width="35" height="35" viewBox="0 0 35 35" fill="none" xmlns="http://www.w3.org/2000/svg">
<g clip-path="url(#clip0_389_1969)">
<path d="M9.38974 28.8015L1.37305 29.7263V5.2023L9.38974 4.27759V28.8015Z" fill="#015366" fill-opacity="0.1"/>
<path d="M25.4228 26.0274L17.4062 32.5004V7.97636L25.4228 1.50348V26.0274Z" fill="#015366" fill-opacity="0.1"/>
<path d="M33.4396 19.3556C33.9734 19.3556 34.4062 18.9227 34.4062 18.389V5.20227C34.4062 4.82522 34.1869 4.48249 33.8445 4.32458L25.828 0.625751C25.7904 0.608419 25.7519 0.593677 25.7129 0.581392C25.7042 0.578669 25.6955 0.577341 25.6868 0.574884C25.6541 0.565587 25.6214 0.557286 25.5881 0.551509C25.5709 0.548521 25.5536 0.547458 25.5363 0.5454C25.5113 0.542411 25.4863 0.539423 25.4612 0.538427C25.4423 0.53763 25.4235 0.538427 25.4046 0.538825C25.3809 0.53929 25.3573 0.539954 25.3337 0.542212C25.3146 0.544071 25.2956 0.546728 25.2767 0.549782C25.2535 0.553368 25.2304 0.557486 25.2075 0.562864C25.1888 0.567114 25.1703 0.571962 25.1517 0.577341C25.1289 0.583982 25.1065 0.591751 25.0841 0.600185C25.0663 0.606825 25.0486 0.613532 25.0312 0.621368C25.0086 0.631396 24.9867 0.64295 24.9648 0.654704C24.9485 0.66347 24.9322 0.671704 24.9165 0.681466C24.9118 0.684388 24.9068 0.686513 24.9022 0.689368C24.8827 0.701853 24.8649 0.716462 24.8464 0.730275C24.8364 0.737712 24.8256 0.743622 24.8159 0.751525L17.2661 6.84715L9.79463 3.39987C9.79184 3.39861 9.78886 3.39781 9.786 3.39662C9.7518 3.38128 9.71687 3.3674 9.68114 3.35611C9.67802 3.35511 9.67484 3.35465 9.67178 3.35372C9.63911 3.34376 9.60597 3.33552 9.57244 3.32908C9.55969 3.32669 9.54694 3.32523 9.53405 3.32331C9.50982 3.31965 9.48545 3.31647 9.46088 3.31467C9.44666 3.31361 9.43245 3.31321 9.41818 3.31275C9.39447 3.31208 9.3709 3.31215 9.34712 3.31321C9.33311 3.31381 9.31916 3.31454 9.30515 3.31574C9.29639 3.31653 9.28755 3.31633 9.27886 3.3174L1.26209 4.24197C0.77434 4.29835 0.40625 4.71126 0.40625 5.20227V29.7262C0.40625 30.0019 0.523855 30.2643 0.729715 30.4478C0.90775 30.6065 1.13698 30.6928 1.37279 30.6928C1.40965 30.6928 1.44664 30.6908 1.48356 30.6865L9.23084 29.7929L12.1802 31.1537C12.6649 31.3773 13.2393 31.1657 13.4629 30.681C13.6866 30.1962 13.4749 29.6219 12.9902 29.3983L10.3561 28.1829V5.78811L16.4396 8.59497V32.5003C16.4396 32.5425 16.4432 32.5838 16.4485 32.6246C16.4498 32.6348 16.4515 32.645 16.4531 32.6552C16.4588 32.6902 16.4661 32.7247 16.4756 32.7584C16.4771 32.7641 16.4783 32.7699 16.48 32.7756C16.4918 32.8153 16.5062 32.8539 16.5227 32.8913C16.5255 32.8977 16.5288 32.9038 16.5318 32.9101C16.5466 32.9416 16.563 32.9719 16.5808 33.0014C16.5853 33.009 16.5897 33.0165 16.5944 33.0239C16.6161 33.0574 16.6395 33.0898 16.665 33.1204C16.6692 33.1253 16.6738 33.1299 16.6781 33.1347C16.7006 33.1604 16.7243 33.1847 16.7494 33.2079C16.7572 33.2152 16.765 33.2224 16.7731 33.2295C16.8034 33.2559 16.835 33.281 16.8686 33.3035C16.87 33.3045 16.8715 33.3053 16.873 33.3063C16.9065 33.3285 16.9418 33.348 16.9781 33.366C16.982 33.368 16.9854 33.3705 16.9895 33.3725C16.994 33.3747 16.9988 33.3761 17.0033 33.3782C17.026 33.3887 17.0491 33.398 17.0727 33.4067C17.0819 33.4101 17.0911 33.4138 17.1003 33.4169C17.1245 33.4249 17.1493 33.4317 17.1742 33.4379C17.1829 33.44 17.1916 33.4427 17.2005 33.4447C17.2265 33.4504 17.253 33.4544 17.2798 33.4579C17.2874 33.4589 17.2951 33.4606 17.3027 33.4613C17.3362 33.4649 17.3701 33.4668 17.4044 33.4669C17.4049 33.4669 17.4055 33.467 17.4059 33.467H17.406C17.4062 33.467 17.4065 33.467 17.4066 33.467C17.4365 33.467 17.4663 33.4652 17.496 33.4624C17.5076 33.4614 17.5189 33.4595 17.5305 33.4581C17.5483 33.4557 17.566 33.4532 17.5836 33.45C17.5973 33.4474 17.6107 33.4445 17.6243 33.4413C17.6393 33.4378 17.6542 33.4339 17.6691 33.4296C17.6831 33.4257 17.6971 33.4216 17.7109 33.417C17.7251 33.4122 17.7391 33.4069 17.7532 33.4015C17.7666 33.3964 17.78 33.3913 17.7931 33.3856C17.8081 33.379 17.8228 33.3716 17.8374 33.3642C17.8488 33.3585 17.8604 33.3532 17.8716 33.3471C17.8949 33.3344 17.9176 33.3204 17.94 33.3057C17.9465 33.3013 17.9529 33.2966 17.9594 33.292C17.9776 33.2793 17.9957 33.2664 18.0131 33.2524L25.5627 27.1566L33.0342 30.604C33.1632 30.6634 33.3014 30.6929 33.439 30.6929C33.6211 30.6929 33.8022 30.6416 33.9601 30.5404C34.2378 30.3628 34.4057 30.0559 34.4057 29.7262V23.0092C34.4057 22.4755 33.9729 22.0426 33.4391 22.0426C32.9053 22.0426 32.4725 22.4755 32.4725 23.0092V28.216L26.389 25.4091V3.01399L32.4725 5.82078V18.389C32.473 18.9228 32.9057 19.3556 33.4396 19.3556ZM2.33947 6.06376L8.42295 5.36198V27.9399L2.33947 28.6416V6.06376ZM18.3729 8.43831L24.4564 3.52638V25.5655L18.3729 30.4775V8.43831Z" fill="#015366"/>
</g>
<defs>
<clipPath id="clip0_389_1969">
<rect width="34" height="34" fill="white" transform="translate(0.40625 0.00262451)"/>
</clipPath>
</defs>
</svg>
