<svg width="355" height="330" viewBox="0 0 355 330" fill="none" xmlns="http://www.w3.org/2000/svg">
<path d="M89.5678 28.4317C82.2097 44.7001 83.8643 67.1506 97.6134 79.7156C100.461 82.2775 103.815 84.3399 107.564 85.2514C112.328 86.4316 117.28 85.5941 121.858 84.0711C131.014 81.0686 139.618 76.1194 147.044 70.0332C161.218 58.454 169.323 42.2893 179.445 27.4931C184.59 20.0045 190.402 12.7974 197.811 7.45489C205.432 1.9298 216.999 -2.0791 225.323 4.39061C232.479 9.98528 234.171 20.3701 235.268 28.8099C236.44 38.121 236.356 47.7406 233.892 56.8355C231.353 66.2393 226.104 74.4748 218.456 80.4817C211.021 86.3059 202.108 89.9988 193.067 92.56C182.6 95.5668 171.819 97.1865 161.298 99.9331C152.076 102.326 143.285 105.752 135.119 110.729C120.37 119.75 108.182 133.049 100.667 148.624C92.6219 165.223 89.1116 186.29 98.2549 203.176C105.663 216.848 122.889 226.488 138.296 221.114C147.402 217.939 154.602 210.462 160.945 203.454C167.793 195.903 173.828 187.639 178.925 178.841C188.629 162.18 195.687 142.513 211.005 129.93C224.243 119.041 245.148 113.422 259.085 126.33C265.42 132.217 268.832 140.615 270.449 148.948C272.431 158.885 272.116 169.344 270.69 179.319C268.018 198.213 260.849 218.452 246.518 231.698C239.795 237.889 231.427 242.131 222.221 242.6C211.925 243.109 201.744 239.636 191.484 241.149C183.136 242.373 176.283 247.389 171.73 254.332C166.474 262.393 164.863 272.068 165.079 281.546C165.282 290.63 166.551 300.2 169.578 308.831C172.115 316.038 176.476 322.915 183.595 326.326C187.822 328.356 192.567 329.012 197.208 329.235C202.288 329.486 207.444 329.428 212.552 329.284C222.945 328.99 233.483 327.904 243.271 324.266C259.055 318.442 271.24 306.236 279.676 291.939C288.728 276.57 294.153 258.843 296.784 241.218C298.255 231.285 298.666 221.042 296.469 211.2C295.423 206.517 293.774 202.076 291.563 197.829C289.305 193.454 286.618 189.312 284.317 184.982C282.016 180.652 280.011 176.048 279.392 171.088C278.754 165.603 279.995 160.138 281.905 154.997C285.68 144.718 290.912 134.822 296.467 125.395C301.57 116.771 307.113 108.219 313.925 100.887C320.234 94.1429 328.31 87.9018 337.599 86.1184C342.721 85.1436 348.261 86.033 351.315 90.6417C353.766 94.3109 354.157 99.0173 354.227 103.298C354.314 112.824 353.487 122.427 351.644 131.762C348.065 149.771 339.856 167.863 324.431 178.701C310.836 188.205 291.974 192.35 276.612 184.653C267.796 180.256 261.563 172.398 255.433 164.973C249.119 157.293 242.344 150.155 234.766 143.745C227.323 137.462 219.251 131.901 210.729 127.187C201.985 122.35 192.472 118.022 182.384 117.081C171.99 116.151 162.688 119.945 153.916 125.076C144.673 130.485 135.715 136.497 127.167 142.974C111.132 155.058 95.0684 168.761 84.0208 185.733C78.5584 194.108 74.4845 203.393 72.6156 213.209C70.7887 222.98 71.6618 232.477 74.4152 241.993C77.2154 251.594 81.5045 261.271 81.4429 271.502C81.3753 280.378 77.2517 288.31 69.7778 293.087C63.1576 297.307 54.912 298.921 47.1408 297.983C38.4902 296.901 30.6297 292.338 24.3783 286.36C17.6744 279.962 12.6151 271.93 8.80899 263.503C4.28716 253.44 1.17542 242.495 1.07399 231.397C0.912815 210.334 12.5948 191.59 24.7141 175.234C36.2479 159.599 50.4621 144.347 69.47 138.229C78.628 135.27 88.6065 134.423 97.9599 136.79C107.224 139.116 115.167 144.726 120.825 152.386C133.379 169.322 133.357 191.353 128.527 210.982C123.43 231.714 114.189 251.461 103.859 270.111C93.9378 288.003 82.6751 305.071 71.4108 322.095C71.2442 322.319 71.645 322.523 71.8116 322.298C83.655 304.379 95.5404 286.415 105.818 267.504C115.933 248.949 124.954 229.166 129.57 208.452C133.773 189.59 133.271 168.758 121.531 152.579C116.467 145.596 109.534 140.124 101.301 137.323C92.6256 134.363 83.1857 134.403 74.3433 136.433C55.3586 140.801 40.5581 154.371 28.7772 169.228C16.7893 184.398 4.75368 201.844 1.53326 221.282C-0.183873 231.661 1.07852 242.237 4.15662 252.265C6.98283 261.384 11.0685 270.282 16.6856 278.032C26.1745 291.234 40.9592 301.051 57.7689 298.161C64.7179 296.944 71.5058 293.722 76.1136 288.264C81.6028 281.812 82.7309 273.247 81.4693 265.076C79.9222 255.079 75.5586 245.754 73.4051 235.91C71.0951 225.373 72.0946 214.496 75.5238 204.317C82.2591 184.181 97.4612 168.455 113.18 154.896C121.654 147.591 130.54 140.796 139.84 134.553C144.189 131.596 148.633 128.81 153.167 126.109C157.916 123.312 162.801 120.641 168.074 119.005C179.182 115.581 190.642 118.176 200.993 122.736C210.545 126.931 219.579 132.501 227.895 138.752C235.85 144.711 243.18 151.479 249.79 158.886C256.307 166.165 261.902 174.483 269.6 180.583C282.612 190.946 300.145 191.089 314.942 184.557C331.158 177.405 342.132 163.19 348.042 146.756C351.257 137.896 353.058 128.606 353.981 119.218C354.424 114.612 354.69 109.969 354.739 105.334C354.808 101.266 354.696 97.0305 353.201 93.1951C351.895 89.7899 349.39 87.0406 345.894 85.8576C341.78 84.5224 337.222 85.3891 333.211 86.8477C324.885 89.8634 317.928 95.6263 312.138 102.221C305.551 109.719 300.095 118.268 295.123 126.886C289.781 136.174 284.588 145.938 281.114 156.075C279.535 160.679 278.49 165.569 278.977 170.491C279.402 174.934 280.998 179.115 282.937 183.109C285.11 187.532 287.753 191.675 290.14 195.958C292.715 200.628 294.773 205.492 295.97 210.694C298.456 221.268 297.859 232.392 296.108 243.035C294.609 252.225 292.32 261.314 289.234 270.126C283.459 286.642 274.481 302.839 260.596 313.97C253.123 319.971 244.445 324.092 235.127 326.27C224.337 328.808 213.156 329.043 202.093 328.925C196.888 328.854 191.508 328.745 186.55 327.048C182.17 325.591 178.439 322.799 175.597 319.188C170.186 312.306 168.019 303.293 166.789 294.771C165.213 283.989 164.528 272.474 168.386 262.06C171.525 253.509 177.925 245.668 186.775 242.677C197.096 239.238 208.02 242.727 218.479 243.043C227.362 243.329 235.657 240.664 242.806 235.375C257.614 224.384 265.59 205.908 269.537 188.409C271.793 178.404 272.807 167.92 272.081 157.674C271.523 149.608 269.736 141.412 265.803 134.301C261.919 127.318 255.771 121.774 247.995 119.524C240.087 117.236 231.523 118.512 223.988 121.629C206.464 128.873 196.482 145.107 187.979 161.155C183.196 170.16 178.634 179.245 172.867 187.674C166.936 196.372 160.069 204.579 152.285 211.64C144.799 218.472 135.799 223.348 125.388 221.938C116.691 220.771 108.599 215.866 102.936 209.255C89.279 193.234 91.8963 169.271 99.8903 151.275C107.24 134.788 119.749 120.691 135.094 111.254C143.732 106.042 153.044 102.509 162.747 100.098C173.402 97.4344 184.312 95.7663 194.858 92.5379C203.504 89.9039 212.067 86.2238 219.158 80.5433C226.078 74.9566 231.051 67.5617 233.757 59.1135C236.536 50.2692 236.932 40.8131 236.072 31.6653C235.295 23.6072 234.084 14.4286 229.162 7.74661C223.96 0.594061 215.259 -0.660182 207.228 2.03872C198.853 4.8814 191.914 11.1245 186.302 17.7998C174.613 31.6045 167.415 48.6538 155.098 62.0007C148.287 69.3756 140.074 75.447 131.058 79.8868C126.163 82.2957 120.87 84.5445 115.432 85.2686C110.386 85.9346 105.449 84.8045 101.194 81.9883C93.3107 76.8138 88.69 67.6292 86.7869 58.6508C84.627 48.6328 85.7687 38.0565 89.9719 28.7228C90.0917 28.4125 89.6908 28.2086 89.5678 28.4317Z" fill="#FF3F50"/>
</svg>
