<svg width="382" height="327" viewBox="0 0 382 327" fill="none" xmlns="http://www.w3.org/2000/svg">
<path d="M101.306 326.609C120.447 323.999 140.072 309.574 143.683 289.748C144.394 285.665 144.355 281.405 143.035 277.445C141.378 272.4 137.763 268.343 133.735 265.023C125.718 258.358 116.235 253.317 106.387 250.011C87.6247 243.678 68.1492 245.544 48.768 244.774C38.9461 244.364 28.9993 243.182 19.8425 239.463C10.3965 235.655 0.0713526 227.358 1.21491 216.009C2.22839 206.235 10.7732 198.712 17.8779 192.855C25.7378 186.426 34.6026 180.972 44.3548 178.001C54.4338 174.922 64.9999 174.997 74.9024 178.552C84.5158 182.018 93.0249 188.063 100.571 194.877C109.345 202.742 117.028 211.691 125.595 219.755C133.091 226.831 141.286 232.919 150.543 237.541C167.291 245.872 186.487 249.396 205.083 247.328C224.922 245.157 246.249 236.262 256.469 218.172C264.74 203.521 263.67 182.191 249.886 171.159C241.74 164.639 230.747 162.339 220.677 160.555C209.819 158.621 198.775 157.842 187.78 158.229C166.931 158.915 144.847 163.753 124.508 156.949C106.916 151.078 89.7453 135.148 93.5624 114.953C95.3151 105.762 101.051 97.8058 107.759 91.5322C115.727 84.002 125.493 78.2776 135.455 73.8493C154.309 65.4347 176.98 60.3678 197.361 65.8867C206.901 68.4882 215.599 73.7188 221.322 81.8863C227.709 91.0309 230.38 102.359 237.666 110.892C243.588 117.839 252.126 121.236 261.107 121.417C271.516 121.599 281.311 117.513 289.873 111.865C298.083 106.456 306.124 99.7904 312.294 92.0535C317.44 85.5841 321.236 77.6326 320.268 69.1471C319.699 64.1055 317.572 59.3794 315.108 54.9972C312.417 50.1975 309.399 45.5057 306.33 40.906C300.085 31.5504 293.031 22.5166 284.068 15.6367C269.654 4.51927 251.462 0.370135 233.508 0.859218C214.217 1.39961 194.85 6.62039 177.184 14.3427C167.234 18.7054 157.609 24.2187 149.853 31.8913C146.162 35.5423 143.04 39.6077 140.419 44.075C137.707 48.6611 135.457 53.5052 132.811 58.1037C130.165 62.7023 127.098 67.1867 122.908 70.6063C118.249 74.3447 112.525 76.3493 106.716 77.555C95.1236 80.0056 83.0456 80.9007 71.2117 81.2299C60.3735 81.5108 49.3479 81.3477 38.7119 79.3198C28.9028 77.4154 18.5392 73.6023 11.5639 66.1146C7.72539 61.9807 5.3551 56.3916 7.82307 50.9426C9.7765 46.5862 13.8651 43.5214 17.7487 40.996C26.4291 35.4387 35.7065 30.6756 45.3214 26.9975C63.885 19.9226 85.1866 17.044 103.989 24.9497C120.516 31.9452 135.161 46.8488 136.939 65.3548C137.978 75.9632 134.36 86.194 131.08 96.0809C127.671 106.284 125.024 116.597 123.507 127.229C122.028 137.663 121.572 148.259 122.151 158.78C122.746 169.575 124.249 180.783 129.187 190.57C134.311 200.63 143.138 206.974 152.883 212.064C163.156 217.425 173.816 222.179 184.668 226.289C204.964 234.037 226.759 240.881 248.666 241.247C259.482 241.438 270.335 239.833 280.406 235.902C290.412 231.958 298.614 225.698 305.752 217.703C312.942 209.616 319.345 200.121 328.757 194.294C336.931 189.253 346.572 188.472 355.247 192.575C362.922 196.216 369.142 202.845 372.75 210.507C376.733 219.057 377.07 228.886 375.186 238.052C373.177 247.875 368.724 257.13 363.189 265.465C356.566 275.395 348.324 284.54 338.21 291.014C318.998 303.273 295.102 303.343 273.144 301.64C252.182 300.059 230.03 295.801 213.494 281.898C205.516 275.205 199.002 266.547 195.793 256.614C192.599 246.785 193.173 236.28 196.941 226.69C205.245 205.446 225.449 192.798 246.217 185.939C268.148 178.69 291.56 175.805 314.593 174.55C336.697 173.355 358.815 173.864 380.895 174.399C381.196 174.423 381.153 173.938 380.851 173.915C357.618 173.363 334.319 172.799 311.078 174.253C288.255 175.651 264.937 178.758 243.298 186.437C223.594 193.431 204.79 205.869 196.711 225.932C193.223 234.588 192.194 244.088 194.361 253.244C196.636 262.898 202.101 271.527 209.045 278.464C223.965 293.352 244.912 299.115 265.302 301.37C286.099 303.634 309.009 304.634 328.676 296.409C339.176 292.015 348.143 284.777 355.564 276.19C362.297 268.356 368.103 259.495 371.976 249.892C378.62 233.604 379.117 214.409 366.803 200.664C361.692 194.995 354.836 190.626 347.184 189.541C338.115 188.22 329.616 192.111 322.852 197.965C314.579 205.131 308.542 214.493 300.758 222.126C292.429 230.302 281.885 235.64 270.584 238.35C248.256 243.755 225.102 238.864 203.637 232.253C192.069 228.687 180.732 224.45 169.663 219.516C164.452 217.229 159.344 214.759 154.261 212.156C148.966 209.412 143.71 206.47 139.179 202.579C129.654 194.367 125.443 182.371 123.67 170.262C122.023 159.095 121.933 147.613 122.882 136.397C123.769 125.68 125.758 115.07 128.746 104.753C131.67 94.5944 136.077 84.6842 137.241 74.1216C139.256 56.2369 129.306 40.0851 114.812 30.2793C98.9334 19.529 79.5947 17.6448 61.1349 21.6776C51.1655 23.8252 41.6163 27.5158 32.4812 32.0679C28.0051 34.3103 23.5962 36.7356 19.3202 39.3564C15.5522 41.6318 11.7342 44.1698 9.07904 47.746C6.70848 50.9002 5.62901 54.7768 6.55521 58.6617C7.697 63.2 11.112 66.879 14.7553 69.7169C22.3062 75.6134 31.5882 78.6759 40.9612 80.1909C51.6207 81.9172 62.5932 82.0021 73.3517 81.6039C84.9355 81.1589 96.8697 80.3045 108.159 77.66C113.286 76.4604 118.369 74.6058 122.6 71.33C126.427 68.3856 129.342 64.5186 131.888 60.4453C134.692 55.9108 136.969 51.1058 139.523 46.4557C142.322 41.41 145.596 36.7271 149.676 32.64C157.938 24.2813 168.477 18.432 179.238 13.9178C188.523 10.0068 198.169 6.87894 208.019 4.64064C226.478 0.437389 246.485 -0.646884 264.67 5.67827C274.466 9.07704 283.234 14.661 290.587 21.9487C299.118 30.3793 305.763 40.4917 312.015 50.6993C314.942 55.5099 317.936 60.5035 319.231 66.0236C320.415 70.8761 320.001 75.9003 318.326 80.5819C315.129 89.4981 308.114 96.6658 301.011 102.694C292.035 110.338 281.875 117.587 270.113 120.039C260.47 122.078 249.604 120.721 241.774 114.329C232.688 106.847 229.605 94.8284 223.881 85.0617C219.035 76.7553 211.823 70.6854 202.865 67.1743C184.277 59.922 162.757 63.2352 144.45 69.6786C133.983 73.3644 123.791 78.4633 114.818 85.0195C107.746 90.1691 101.262 96.5193 97.0053 104.213C92.8392 111.788 91.2929 120.61 93.7017 129.03C96.1511 137.594 102.245 144.71 109.435 149.823C126.15 161.719 146.768 161.534 166.365 160.099C177.369 159.306 188.318 158.264 199.359 158.702C210.741 159.137 222.212 160.712 233.159 163.785C243.725 166.719 253.369 172.164 258.063 182.516C261.994 191.159 262.151 201.395 259.348 210.386C252.517 232.116 229.05 243.495 207.959 246.516C188.623 249.259 168.51 245.9 151.038 237.262C141.294 232.342 132.702 225.839 124.914 218.332C116.346 210.098 108.544 201.058 99.5207 193.248C92.1356 186.839 83.8391 181.107 74.5555 177.874C65.4564 174.744 55.819 174.437 46.5202 176.815C36.8165 179.353 27.9221 184.427 20.0326 190.476C13.0937 195.821 5.37765 202.208 2.08366 210.562C-1.48087 219.442 2.37231 228.137 9.46361 233.946C16.8847 239.988 26.5967 242.758 35.9416 244.064C55.3145 246.839 75.0795 243.633 94.3944 247.248C105.069 249.249 115.356 253.286 124.61 258.997C129.632 262.098 134.737 265.656 138.527 270.223C142.038 274.465 143.841 279.64 143.707 285.16C143.497 295.36 137.736 304.876 130.602 311.782C122.662 319.522 112.312 324.557 101.341 326.071C100.987 326.14 101.031 326.625 101.306 326.609Z" fill="#FF3F50"/>
</svg>
