<svg width="32" height="27" viewBox="0 0 32 27" fill="none" xmlns="http://www.w3.org/2000/svg">
<path d="M7.79248 14.32C6.76396 15.3546 5.78312 16.3415 4.80227 17.3284C4.01896 18.1179 3.23565 18.9006 2.44553 19.6833C2.0096 20.1121 1.42381 20.2346 0.953828 19.9351C0.272687 19.5063 -0.122375 18.9823 0.0342875 18.3357C0.0955901 18.0838 0.245441 17.8252 0.422538 17.6414C1.82569 16.219 3.24246 14.8169 4.65242 13.4012C5.36762 12.6866 6.07601 11.9719 6.7912 11.2641C7.4451 10.6175 8.12624 10.6243 8.78014 11.2777C9.93126 12.4211 11.0824 13.5578 12.2267 14.7012C13.2076 15.6813 14.1748 16.6614 15.1488 17.6483C15.2305 17.7299 15.285 17.832 15.3327 17.9001C19.1812 14.0614 22.9819 10.2636 26.8099 6.45213C26.3059 5.94848 25.7746 5.42441 25.2433 4.90033C25.0253 4.68934 24.8278 4.47154 24.9709 4.13124C25.1139 3.79093 25.3932 3.72967 25.7201 3.71606C27.4979 3.63439 29.2825 3.55271 31.0603 3.46423C31.7823 3.4302 32.0275 3.65481 32.0002 4.36265C31.9253 6.10502 31.8368 7.8542 31.7482 9.59658C31.7414 9.71228 31.7278 9.82798 31.6937 9.93008C31.5234 10.4678 30.9785 10.6175 30.5835 10.2227C30.0249 9.67144 29.4868 9.10653 28.9283 8.52801C28.8125 8.6301 28.7308 8.69136 28.6626 8.76623C27.2595 10.1683 25.87 11.584 24.4668 12.986C21.7695 15.6541 19.0722 18.3425 16.3749 21.0309C15.7823 21.623 15.0739 21.6299 14.4813 21.0377C12.5264 19.0912 10.5783 17.1378 8.63028 15.1912C8.35783 14.9122 8.099 14.6331 7.79248 14.32Z" fill="url(#paint0_linear_3_21320)"/>
<path d="M28.7036 10.7539C28.7036 10.9853 28.7036 11.1214 28.7036 11.2508C28.7036 16.0219 28.7036 20.7998 28.7036 25.5709C28.7036 26.5238 28.2404 26.9798 27.28 26.9798C26.4762 26.9798 25.6657 26.9866 24.8619 26.9798C24.0582 26.973 23.5677 26.4829 23.5677 25.6798C23.5677 22.4945 23.5677 19.3092 23.5746 16.124C23.5746 16.0014 23.6154 15.8449 23.6972 15.7632C25.3251 14.1161 26.9735 12.4759 28.7036 10.7539Z" fill="url(#paint1_linear_3_21320)"/>
<path d="M15.5235 0C16.3613 0 16.3885 0.0272246 16.3885 0.850769C16.3953 1.40207 16.3953 1.38165 16.9334 1.50416C17.3625 1.59945 17.7849 1.73557 18.2003 1.87169C18.466 1.96017 18.5614 2.16436 18.4728 2.44341C18.3638 2.79052 18.2753 3.14444 18.1595 3.48475C18.0437 3.84547 17.9279 3.89312 17.5737 3.72977C16.9198 3.42349 16.2387 3.28737 15.5235 3.34182C15.3532 3.35543 15.1829 3.38266 15.0262 3.45072C14.4541 3.68893 14.3383 4.3151 14.8151 4.70305C15.1012 4.93446 15.4485 5.09781 15.7823 5.26115C16.2727 5.49937 16.7904 5.68314 17.2604 5.94177C18.4115 6.57474 19.0245 7.54802 18.8951 8.86841C18.7725 10.148 17.996 10.9579 16.804 11.3799C16.3068 11.5568 16.2863 11.5773 16.3 12.1081C16.3 12.2647 16.3 12.428 16.2932 12.5846C16.2863 13.0746 16.191 13.1835 15.7006 13.2039C15.4281 13.2175 15.1556 13.1767 14.89 13.1631C14.638 13.1495 14.529 12.9997 14.529 12.7615C14.529 12.5573 14.529 12.3532 14.5222 12.149C14.5154 11.6794 14.4949 11.6794 14.0386 11.5773C13.5209 11.4616 13.0032 11.3254 12.506 11.1417C12.0292 10.9647 11.9883 10.8218 12.1246 10.3249C12.2063 10.0187 12.288 9.71238 12.3834 9.41291C12.506 9.03176 12.6082 9.01815 12.9828 9.14747C13.6026 9.35846 14.2293 9.56945 14.8696 9.67835C15.2238 9.7396 15.6461 9.64431 15.9866 9.50139C16.6269 9.23595 16.7291 8.48046 16.1978 8.03126C15.9253 7.80665 15.5848 7.65692 15.2578 7.50038C14.6857 7.22132 14.0863 7.01033 13.5413 6.69045C12.5946 6.14595 12.0769 5.32922 12.1586 4.19259C12.2404 3.03554 12.8261 2.20519 13.8887 1.80363C14.5086 1.57222 14.7333 1.26594 14.6652 0.61936C14.6244 0.0340308 14.7197 0 15.5235 0Z" fill="url(#paint2_linear_3_21320)"/>
<path d="M7.6903 16.566C7.6903 16.6817 7.6903 16.7906 7.6903 16.9063C7.6903 19.7989 7.6903 22.6847 7.6903 25.5773C7.6903 26.5302 7.22712 26.9862 6.26672 26.993C5.46297 26.993 4.65922 26.9998 3.84867 26.993C3.05173 26.9862 2.5545 26.4961 2.54769 25.6998C2.54088 24.325 2.54088 22.9569 2.5545 21.5821C2.5545 21.4596 2.66348 21.3098 2.75884 21.2214C2.99043 21.0104 3.27651 20.8538 3.50128 20.6292C4.79545 19.3565 6.076 18.0701 7.34973 16.7838C7.43147 16.6953 7.47915 16.5728 7.54045 16.4639C7.59494 16.4911 7.64262 16.5319 7.6903 16.566Z" fill="url(#paint3_linear_3_21320)"/>
<path d="M21.4494 18.1387C21.5379 18.4449 21.6946 18.7444 21.6946 19.0507C21.715 21.2831 21.715 23.5155 21.7014 25.7479C21.7014 26.4626 21.1974 26.9731 20.4822 26.9867C19.5762 27.0003 18.6703 27.0003 17.7644 26.9867C17.0628 26.9731 16.5724 26.4762 16.5656 25.7684C16.552 24.8087 16.5588 23.8422 16.5656 22.8826C16.5656 22.7737 16.661 22.6512 16.7427 22.5695C16.9607 22.3721 17.2127 22.2156 17.4238 22.0114C18.6499 20.7999 19.8623 19.5816 21.0816 18.3633C21.1497 18.2952 21.2246 18.2272 21.2995 18.1591C21.354 18.1523 21.4017 18.1455 21.4494 18.1387Z" fill="url(#paint4_linear_3_21320)"/>
<path d="M9.71338 18.3086C10.9326 19.5269 12.0701 20.6635 13.2008 21.807C13.6299 22.2357 14.0659 22.6441 14.6993 22.8143C14.6993 23.4609 14.6993 24.087 14.6993 24.72C14.6993 25.0739 14.7061 25.421 14.6993 25.7749C14.6789 26.476 14.1885 26.9796 13.4937 26.9864C12.5878 27 11.6819 27 10.7691 26.9864C10.088 26.9728 9.56353 26.4896 9.56353 25.809C9.54991 23.5289 9.55672 21.2557 9.56353 18.9756C9.56353 18.785 9.64527 18.5945 9.71338 18.3086Z" fill="url(#paint5_linear_3_21320)"/>
<defs>
<linearGradient id="paint0_linear_3_21320" x1="16.4552" y1="14.0377" x2="16.1915" y2="21.4852" gradientUnits="userSpaceOnUse">
<stop stop-color="#538BFF"/>
<stop offset="1" stop-color="#2F73FF"/>
</linearGradient>
<linearGradient id="paint1_linear_3_21320" x1="26.2085" y1="20.2807" x2="24.9243" y2="26.742" gradientUnits="userSpaceOnUse">
<stop stop-color="#538BFF"/>
<stop offset="1" stop-color="#2F73FF"/>
</linearGradient>
<linearGradient id="paint2_linear_3_21320" x1="15.5817" y1="7.7527" x2="14.929" y2="13.1394" gradientUnits="userSpaceOnUse">
<stop stop-color="#538BFF"/>
<stop offset="1" stop-color="#2F73FF"/>
</linearGradient>
<linearGradient id="paint3_linear_3_21320" x1="5.18978" y1="22.6465" x2="4.6379" y2="26.9344" gradientUnits="userSpaceOnUse">
<stop stop-color="#538BFF"/>
<stop offset="1" stop-color="#2F73FF"/>
</linearGradient>
<linearGradient id="paint4_linear_3_21320" x1="19.2074" y1="23.3387" x2="18.8156" y2="26.9624" gradientUnits="userSpaceOnUse">
<stop stop-color="#538BFF"/>
<stop offset="1" stop-color="#2F73FF"/>
</linearGradient>
<linearGradient id="paint5_linear_3_21320" x1="12.202" y1="23.4087" x2="11.8245" y2="26.9643" gradientUnits="userSpaceOnUse">
<stop stop-color="#538BFF"/>
<stop offset="1" stop-color="#2F73FF"/>
</linearGradient>
</defs>
</svg>
