<svg width="28" height="21" viewBox="0 0 28 21" fill="none" xmlns="http://www.w3.org/2000/svg">
<path d="M24.6955 20.9995C17.3531 20.9995 10.1102 20.9995 2.84745 20.9995C2.62857 18.4526 3.3648 15.8658 6.11073 14.8112C7.424 14.2939 8.75717 13.8362 10.0704 13.3388C10.6077 13.1398 11.1847 12.9209 11.2643 12.2444C11.3041 11.926 11.2842 11.528 11.125 11.2694C9.89136 9.29947 9.33421 7.15048 9.25462 4.8622C9.23472 4.20556 9.37401 3.52903 9.55309 2.89229C9.83166 1.87749 10.4883 1.16116 11.4832 0.783099C12.7766 0.285647 14.1097 0.285646 15.423 0.663709C16.6766 1.02187 17.4526 1.85759 17.771 3.11117C18.2684 4.98159 17.9103 6.81221 17.3531 8.60303C17.0945 9.47855 16.6368 10.2944 16.2189 11.0903C15.8409 11.8066 16.0598 12.7816 16.796 13.1C17.771 13.5179 18.7858 13.8561 19.7807 14.2342C20.3378 14.4531 20.8751 14.6719 21.4322 14.9107C23.422 15.7265 24.2976 17.3383 24.5363 19.3679C24.6358 19.8653 24.6557 20.4225 24.6955 20.9995Z" fill="url(#paint0_linear_3_21349)"/>
<path d="M27.322 15.7071C26.3271 15.7071 25.3123 15.7071 24.2975 15.7071C24.1781 15.7071 24.0388 15.6673 23.9592 15.6076C22.7455 14.1948 20.9944 13.6974 19.3827 13.0009C18.8057 12.7621 18.2485 12.5234 17.6516 12.3244C17.1143 12.1254 17.0546 11.8667 17.3332 11.3693C18.5868 9.1805 19.1638 6.83253 19.0643 4.32537C19.0046 2.83302 18.5271 1.49985 17.3133 0.385558C18.6664 -0.0919952 19.9199 -0.191487 21.0939 0.465149C22.3077 1.14168 22.447 2.35547 22.4072 3.58915C22.3475 5.14119 21.9296 6.61365 21.1337 7.96672C20.7358 8.62335 20.9745 9.29989 21.7108 9.59836C22.7057 9.99632 23.7205 10.3147 24.6955 10.7325C26.7052 11.5683 27.6802 13.4188 27.322 15.7071Z" fill="url(#paint1_linear_3_21349)"/>
<path d="M10.0308 0.187051C7.46396 2.99268 8.0211 5.95749 8.85682 8.9223C9.15529 9.9769 9.71244 10.9718 10.1701 12.0662C9.67264 12.2652 9.11549 12.4642 8.59815 12.7228C7.08589 13.4392 5.57364 14.1754 4.04149 14.8917C4.02159 14.9116 3.9818 14.9116 3.9818 14.9315C3.30526 16.0458 2.19097 15.6478 1.21597 15.7075C0.818005 15.7274 0.439942 15.7075 0.0618787 15.7075C-0.25649 13.3795 0.65882 11.6682 2.68842 10.7728C3.66343 10.3351 4.67823 10.0167 5.65323 9.59883C6.46905 9.26057 6.62824 8.68352 6.17058 7.9274C5.21547 6.35545 4.79762 4.64422 4.89711 2.81359C4.9767 1.16206 5.87211 0.167153 7.52365 0.0477642C8.29967 -0.01193 9.0757 0.127357 10.0308 0.187051Z" fill="url(#paint2_linear_3_21349)"/>
<defs>
<linearGradient id="paint0_linear_3_21349" x1="13.7534" y1="7.26308" x2="13.7534" y2="20.9995" gradientUnits="userSpaceOnUse">
<stop stop-color="#538BFF"/>
<stop offset="1" stop-color="#2F73FF"/>
</linearGradient>
<linearGradient id="paint1_linear_3_21349" x1="22.2824" y1="5.23635" x2="22.2824" y2="15.7071" gradientUnits="userSpaceOnUse">
<stop stop-color="#538BFF"/>
<stop offset="1" stop-color="#2F73FF"/>
</linearGradient>
<linearGradient id="paint2_linear_3_21349" x1="5.08505" y1="5.26602" x2="5.08505" y2="15.7297" gradientUnits="userSpaceOnUse">
<stop stop-color="#538BFF"/>
<stop offset="1" stop-color="#2F73FF"/>
</linearGradient>
</defs>
</svg>
