<svg width="34" height="25" viewBox="0 0 34 25" fill="none" xmlns="http://www.w3.org/2000/svg">
<path d="M23.2632 6.52637C24.9194 8.16733 26.5458 9.76876 28.1621 11.39C28.671 11.904 28.7009 12.6652 28.192 13.1792C27.2142 14.1578 26.1866 15.097 25.0691 16.1448C24.7997 15.8384 24.4206 15.4726 24.1013 15.0574C23.1534 13.8316 21.2777 13.8514 20.6192 15.5418C20.0804 15.4726 19.5416 15.2947 19.0627 15.3836C18.6037 15.4726 18.1946 15.8482 17.7357 16.1053C17.4563 15.7988 17.3765 15.7889 16.9774 16.1843C15.4209 17.7166 13.8744 19.2587 12.3179 20.7909C12.1782 20.9293 12.0286 21.0677 11.8689 21.1764C11.38 21.5027 10.7215 21.4631 10.3524 21.0974C9.98319 20.7217 9.92333 20.0693 10.2925 19.6047C10.6517 19.1598 11.0807 18.7545 11.4898 18.3492C12.7669 17.074 14.054 15.8186 15.3411 14.5434C15.391 14.494 15.4708 14.4544 15.4808 14.405C15.5107 14.227 15.5107 14.059 15.5307 13.8811C15.371 13.9008 15.1914 13.8909 15.0418 13.9404C14.942 13.97 14.8721 14.0985 14.7923 14.1776C13.4853 15.4726 12.1882 16.7676 10.8712 18.0527C10.2526 18.6656 9.42446 18.6062 8.99543 17.9439C8.6063 17.3409 8.8757 16.5995 9.53421 16.3326C9.86346 16.2041 10.1827 15.9866 10.4322 15.7494C12.7569 13.4659 15.0817 11.1824 17.3765 8.86919C17.9252 8.31561 18.5139 8.00917 19.3121 8.07836C19.8409 8.12779 20.3697 8.09814 20.8985 8.09814C22.1657 8.08825 22.7244 7.72249 23.2632 6.52637Z" fill="url(#paint0_linear_3_21333)"/>
<path d="M17.1472 5.06302C18.4043 5.06302 19.6714 5.06302 20.9286 5.06302C21.0583 5.06302 21.198 5.05313 21.3277 5.0729C22.0062 5.13222 22.545 5.65614 22.525 6.23937C22.515 6.83249 21.9762 7.33665 21.2878 7.35642C20.5096 7.37619 19.7213 7.38607 18.9431 7.35642C18.2048 7.32676 17.6261 7.61344 17.1272 8.1077C14.7426 10.4703 12.358 12.8329 9.97336 15.1955C9.23503 15.927 8.73616 15.927 7.98785 15.1955C7.2595 14.4739 6.53114 13.7522 5.80279 13.0306C5.21412 12.4474 5.20414 11.8542 5.78284 11.271C7.53887 9.48176 9.2949 7.71229 11.0609 5.94281C11.6496 5.34969 12.3779 5.0729 13.2061 5.06302C14.5231 5.06302 15.8301 5.06302 17.1472 5.06302Z" fill="url(#paint1_linear_3_21333)"/>
<path d="M29.4192 11.657C29.1697 11.5186 28.8804 11.4198 28.6808 11.2221C26.6754 9.25487 24.6799 7.2778 22.6844 5.29085C22.2354 4.84601 22.1955 4.32208 22.5347 3.81793C23.1633 2.88871 23.8318 1.97926 24.3905 1.02038C24.8395 0.249325 25.7076 0.140587 26.376 0.802904C28.1919 2.61192 30.0477 4.3814 31.8836 6.17064C32.3924 6.66491 32.9113 7.15918 33.4101 7.66333C34.0387 8.29599 33.9489 8.97808 33.1906 9.46246C32.163 10.105 31.1552 10.7574 30.1276 11.3901C29.938 11.4988 29.6985 11.5483 29.4192 11.657ZM30.7861 9.77879C31.1552 9.78868 31.4745 9.46246 31.4546 9.07693C31.4346 8.67163 31.2051 8.44427 30.806 8.41461C30.4169 8.38496 30.1076 8.68152 30.1076 9.07693C30.1076 9.46246 30.4069 9.76891 30.7861 9.77879Z" fill="url(#paint2_linear_3_21333)"/>
<path d="M11.5895 4.21321C11.4399 4.47023 11.3301 4.77667 11.1306 4.98427C9.15502 6.96133 7.16951 8.92852 5.17402 10.8957C4.67515 11.3801 4.19623 11.3801 3.60756 11.0044C2.63975 10.3718 1.65198 9.76877 0.664216 9.15588C-0.124003 8.6715 -0.223777 7.96964 0.434734 7.32709C2.79939 5.01392 5.17402 2.71064 7.54865 0.407355C8.17723 -0.205536 8.8557 -0.116568 9.33462 0.605061C9.98315 1.57382 10.6417 2.54259 11.2902 3.53112C11.4199 3.70906 11.4798 3.93642 11.5895 4.21321ZM3.02887 9.43267C3.42797 9.44255 3.71732 9.17565 3.73727 8.78024C3.74725 8.39471 3.44792 8.07838 3.0588 8.09815C2.65971 8.10803 2.41027 8.32551 2.38034 8.73081C2.3504 9.12622 2.62977 9.42278 3.02887 9.43267Z" fill="url(#paint3_linear_3_21333)"/>
<path d="M19.6112 16.0361C19.7609 16.1053 20.1001 16.2042 20.3196 16.4118C21.2076 17.252 22.0657 18.1219 22.9337 18.982C23.2929 19.3378 23.3628 19.7926 23.2131 20.2671C23.0834 20.6724 22.7541 20.9294 22.365 20.9195C22.0058 20.9096 21.5668 20.8108 21.3174 20.5834C20.3995 19.753 19.5314 18.8633 18.6734 17.9737C18.3042 17.598 18.2443 17.1136 18.4339 16.6391C18.6035 16.2338 18.9727 16.0361 19.6112 16.0361Z" fill="url(#paint4_linear_3_21333)"/>
<path d="M16.3786 20.8403C16.179 20.8699 16.0394 20.9885 15.9097 21.1368C15.311 21.8486 14.7523 22.6592 13.994 23.2127C13.525 23.5488 12.8865 23.4401 12.5373 23.0645C12.1781 22.6789 12.1482 22.0166 12.5173 21.5619C12.7967 21.2159 13.1259 20.9095 13.4452 20.603C14.852 19.2092 16.2688 17.8252 17.6557 16.4512C17.6557 16.8367 17.6557 17.242 17.6557 17.6473C17.6557 17.588 16.7078 18.0131 16.6181 18.0724C16.3586 18.2701 16.1491 18.537 16.0394 18.8533C15.77 19.5947 16.1192 20.1779 16.3786 20.8403Z" fill="url(#paint5_linear_3_21333)"/>
<path d="M20.1102 23.015C19.9206 22.9853 19.751 22.8964 19.5814 22.7975C19.1025 22.5009 18.7133 22.1055 18.3142 21.7101C17.8952 21.2949 17.4861 20.8699 17.0671 20.4547C16.5383 19.911 16.4983 19.1894 16.9573 18.7346C17.3963 18.2898 18.1047 18.2898 18.6535 18.8038C19.4217 19.5255 20.17 20.2767 20.8984 21.0379C21.2676 21.4234 21.3673 21.8979 21.1179 22.4021C20.9882 22.6591 20.7388 22.8766 20.4694 22.9853C20.3496 23.0249 20.2299 23.0348 20.1102 23.015Z" fill="url(#paint6_linear_3_21333)"/>
<path d="M25.3581 17.6773C25.3681 17.8058 25.3581 17.9442 25.3282 18.0628C25.2484 18.3989 25.0289 18.6757 24.7096 18.8339C24.2606 19.0514 23.8116 19.0019 23.4624 18.6757C22.8139 18.0727 22.1753 17.4401 21.5667 16.7876C21.1477 16.3428 21.2075 15.7002 21.6266 15.2752C22.0257 14.86 22.7241 14.7908 23.1631 15.1862C23.8416 15.809 24.5001 16.4713 25.1287 17.1435C25.2684 17.2819 25.3382 17.4796 25.3581 17.6773Z" fill="url(#paint7_linear_3_21333)"/>
<path d="M19.2323 24.0137C19.2323 24.0236 19.2323 24.0335 19.2224 24.0434C19.1525 24.3894 18.8033 24.6958 18.504 24.8639C18.1448 25.0616 17.7457 25.0517 17.4264 24.7848C16.8976 24.34 16.3987 23.8556 15.9597 23.3218C15.5906 22.867 15.6804 22.2443 16.0595 21.8785C16.4287 21.5127 17.0373 21.404 17.4763 21.75C17.8355 22.0367 18.1448 22.3629 18.4641 22.6792C18.6936 22.9066 18.923 23.1438 19.0927 23.4206C19.1924 23.6084 19.2623 23.816 19.2323 24.0137Z" fill="url(#paint8_linear_3_21333)"/>
<defs>
<linearGradient id="paint0_linear_3_21333" x1="18.9673" y1="15.2566" x2="18.6763" y2="21.3978" gradientUnits="userSpaceOnUse">
<stop stop-color="#538BFF"/>
<stop offset="1" stop-color="#2F73FF"/>
</linearGradient>
<linearGradient id="paint1_linear_3_21333" x1="14.1839" y1="11.3321" x2="14.0111" y2="15.7469" gradientUnits="userSpaceOnUse">
<stop stop-color="#538BFF"/>
<stop offset="1" stop-color="#2F73FF"/>
</linearGradient>
<linearGradient id="paint2_linear_3_21333" x1="28.2317" y1="6.99464" x2="27.9447" y2="11.6494" gradientUnits="userSpaceOnUse">
<stop stop-color="#538BFF"/>
<stop offset="1" stop-color="#2F73FF"/>
</linearGradient>
<linearGradient id="paint3_linear_3_21333" x1="5.95916" y1="6.61809" x2="5.67474" y2="11.2665" gradientUnits="userSpaceOnUse">
<stop stop-color="#538BFF"/>
<stop offset="1" stop-color="#2F73FF"/>
</linearGradient>
<linearGradient id="paint4_linear_3_21333" x1="20.8783" y1="18.903" x2="20.7536" y2="20.9164" gradientUnits="userSpaceOnUse">
<stop stop-color="#538BFF"/>
<stop offset="1" stop-color="#2F73FF"/>
</linearGradient>
<linearGradient id="paint5_linear_3_21333" x1="15.0314" y1="20.5386" x2="14.7993" y2="23.4015" gradientUnits="userSpaceOnUse">
<stop stop-color="#538BFF"/>
<stop offset="1" stop-color="#2F73FF"/>
</linearGradient>
<linearGradient id="paint6_linear_3_21333" x1="19.013" y1="21.1187" x2="18.8933" y2="23.0215" gradientUnits="userSpaceOnUse">
<stop stop-color="#538BFF"/>
<stop offset="1" stop-color="#2F73FF"/>
</linearGradient>
<linearGradient id="paint7_linear_3_21333" x1="23.3792" y1="17.2968" x2="23.2754" y2="18.9633" gradientUnits="userSpaceOnUse">
<stop stop-color="#538BFF"/>
<stop offset="1" stop-color="#2F73FF"/>
</linearGradient>
<linearGradient id="paint8_linear_3_21333" x1="17.5318" y1="23.5712" x2="17.4435" y2="24.9978" gradientUnits="userSpaceOnUse">
<stop stop-color="#538BFF"/>
<stop offset="1" stop-color="#2F73FF"/>
</linearGradient>
</defs>
</svg>
