<svg width="29" height="29" viewBox="0 0 29 29" fill="none" xmlns="http://www.w3.org/2000/svg">
<path d="M17.3861 23.7748C15.0728 23.7748 12.7631 23.7748 10.4425 23.7748C10.3664 23.1584 9.94215 22.7559 9.53242 22.3498C8.89426 21.7153 8.22347 21.1134 7.59981 20.4643C6.47216 19.2859 5.64545 17.9298 5.32637 16.309C4.85138 13.9051 5.29736 11.6643 6.66796 9.641C8.02042 7.64312 9.89501 6.37043 12.2772 5.90632C14.6631 5.43857 16.8676 5.94257 18.8474 7.33855C20.7981 8.71639 22.0491 10.5874 22.5059 12.9442C22.9845 15.4243 22.4443 17.6796 20.8924 19.6811C20.3014 20.4426 19.6016 21.1025 18.9054 21.7624C18.5174 22.1322 18.1403 22.5166 17.7741 22.9118C17.5602 23.1475 17.4079 23.4339 17.3861 23.7748ZM14.0213 12.1828C14.2026 12.1719 14.5072 12.1683 14.8081 12.1392C15.497 12.0776 16.1715 11.9507 16.7951 11.6352C17.2919 11.3814 17.698 11.0333 17.9119 10.5003C18.1367 9.93832 18.0569 9.60474 17.6001 9.21314C17.252 8.91582 16.8495 8.70914 16.4216 8.55685C14.6667 7.9332 12.919 7.97671 11.1786 8.62212C10.6963 8.79979 10.2395 9.03547 9.87326 9.41257C9.65208 9.641 9.55055 9.90932 9.66658 10.2066C9.77173 10.4713 9.89864 10.7396 10.0727 10.9608C10.3664 11.3415 10.7834 11.57 11.2257 11.7477C12.0814 12.0885 12.9879 12.1683 14.0213 12.1828Z" fill="url(#paint0_linear_3_21359)"/>
<path d="M17.3862 24.9538C17.3862 25.563 17.408 26.1612 17.379 26.7559C17.3536 27.2853 16.7227 27.8364 16.1897 27.84C16.0156 27.8437 15.8416 27.84 15.6639 27.84C15.6458 28.0322 15.6349 28.2135 15.6132 28.3912C15.5551 28.8444 15.3738 29.0003 14.9242 29.0003C14.2244 29.0003 13.5246 29.0003 12.8212 29.0003C12.426 29.0003 12.2483 28.8444 12.2012 28.4492C12.1758 28.2534 12.1685 28.054 12.154 27.84C11.9981 27.84 11.8422 27.84 11.6863 27.84C11.03 27.84 10.4317 27.2454 10.4317 26.5927C10.4317 26.0488 10.4317 25.5086 10.4317 24.9502C12.7487 24.9538 15.0584 24.9538 17.3862 24.9538Z" fill="url(#paint1_linear_3_21359)"/>
<path d="M13.347 0C13.9235 0 14.4855 0 15.0584 0C15.0584 1.15304 15.0584 2.30245 15.0584 3.46274C14.4928 3.46274 13.9235 3.46274 13.347 3.46274C13.347 2.3097 13.347 1.15304 13.347 0Z" fill="url(#paint2_linear_3_21359)"/>
<path d="M3.45912 15.0729C2.30245 15.0729 1.15666 15.0729 0 15.0729C0 14.5 0 13.9307 0 13.3506C1.14941 13.3506 2.29883 13.3506 3.45912 13.3506C3.45912 13.9199 3.45912 14.4855 3.45912 15.0729Z" fill="url(#paint3_linear_3_21359)"/>
<path d="M24.9427 15.0654C24.9427 14.4888 24.9427 13.9232 24.9427 13.3467C26.0957 13.3467 27.2415 13.3467 28.4018 13.3467C28.4018 13.9123 28.4018 14.4816 28.4018 15.0654C27.256 15.0654 26.1066 15.0654 24.9427 15.0654Z" fill="url(#paint4_linear_3_21359)"/>
<path d="M4.10829 4.34766C4.94225 4.98944 5.76533 5.62035 6.60292 6.26213C6.28746 6.59572 5.98289 6.91842 5.67468 7.24838C4.84072 6.61022 4.01764 5.97931 3.18369 5.3339C3.49189 5.00395 3.79284 4.68124 4.10829 4.34766Z" fill="url(#paint5_linear_3_21359)"/>
<path d="M23.659 4.40527C23.9672 4.73161 24.2682 5.05431 24.5873 5.39152C23.7533 6.02968 22.9302 6.66421 22.0926 7.306C21.7989 6.97242 21.5161 6.65334 21.2224 6.31975C22.0346 5.68159 22.8396 5.04706 23.659 4.40527Z" fill="url(#paint6_linear_3_21359)"/>
<defs>
<linearGradient id="paint0_linear_3_21359" x1="14.1574" y1="16.3254" x2="13.6763" y2="23.7597" gradientUnits="userSpaceOnUse">
<stop stop-color="#538BFF"/>
<stop offset="1" stop-color="#2F73FF"/>
</linearGradient>
<linearGradient id="paint1_linear_3_21359" x1="14.0117" y1="27.3277" x2="13.9504" y2="29.0017" gradientUnits="userSpaceOnUse">
<stop stop-color="#538BFF"/>
<stop offset="1" stop-color="#2F73FF"/>
</linearGradient>
<linearGradient id="paint2_linear_3_21359" x1="14.227" y1="2.03273" x2="14.0475" y2="3.44299" gradientUnits="userSpaceOnUse">
<stop stop-color="#538BFF"/>
<stop offset="1" stop-color="#2F73FF"/>
</linearGradient>
<linearGradient id="paint3_linear_3_21359" x1="1.77864" y1="14.3616" x2="1.75633" y2="15.0737" gradientUnits="userSpaceOnUse">
<stop stop-color="#538BFF"/>
<stop offset="1" stop-color="#2F73FF"/>
</linearGradient>
<linearGradient id="paint4_linear_3_21359" x1="26.7213" y1="14.3556" x2="26.6991" y2="15.0662" gradientUnits="userSpaceOnUse">
<stop stop-color="#538BFF"/>
<stop offset="1" stop-color="#2F73FF"/>
</linearGradient>
<linearGradient id="paint5_linear_3_21359" x1="4.94181" y1="6.05047" x2="4.87793" y2="7.24756" gradientUnits="userSpaceOnUse">
<stop stop-color="#538BFF"/>
<stop offset="1" stop-color="#2F73FF"/>
</linearGradient>
<linearGradient id="paint6_linear_3_21359" x1="22.9526" y1="6.10808" x2="22.8877" y2="7.30507" gradientUnits="userSpaceOnUse">
<stop stop-color="#538BFF"/>
<stop offset="1" stop-color="#2F73FF"/>
</linearGradient>
</defs>
</svg>
