<svg width="59" height="59" viewBox="0 0 59 59" fill="none" xmlns="http://www.w3.org/2000/svg">
<circle cx="29.5" cy="29.5" r="29.5" fill="#725EFE"/>
<mask id="mask0_2_333" style="mask-type:alpha" maskUnits="userSpaceOnUse" x="0" y="0" width="59" height="59">
<circle cx="29.5" cy="29.5" r="29.5" fill="#725EFE"/>
</mask>
<g mask="url(#mask0_2_333)">
<g style="mix-blend-mode:soft-light">
<path d="M-10 76.7976L52.154 16.0359L64.7919 16.0002L-10 90.4351V76.7976Z" fill="url(#paint0_linear_2_333)"/>
<path d="M60.78 32C61.3452 32 61.9166 32.2298 62.3481 32.6829C63.2173 33.5956 63.2173 35.07 62.3481 35.9763L46.7882 52.3155C45.919 53.2282 44.515 53.2282 43.6519 52.3155C42.7827 51.4028 42.7827 49.9284 43.6519 49.0221L59.2057 32.6893C59.6434 32.2298 60.2086 32 60.78 32Z" fill="url(#paint1_linear_2_333)"/>
<path d="M74.6927 2.38916C75.7994 2.38916 76.918 2.81756 77.7629 3.66247C79.4647 5.36417 79.4647 8.11309 77.7629 9.8029L47.3107 40.2551C45.609 41.9569 42.8601 41.9569 41.1703 40.2551C39.4686 38.5534 39.4686 35.8045 41.1703 34.1147L71.6225 3.66247C72.4674 2.81756 73.5741 2.38916 74.6927 2.38916Z" fill="url(#paint2_linear_2_333)"/>
</g>
</g>
<path d="M25.0495 28.9766L27.2396 28.9766C27.4141 28.6689 27.6688 28.4142 27.9764 28.2397L27.9764 26.0496C27.2725 26.2336 26.6302 26.6015 26.1159 27.116C25.6014 27.6303 25.2334 28.2727 25.0495 28.9766Z" fill="white"/>
<path d="M27.2395 31.0233L25.0494 31.0233C25.2333 31.7272 25.6012 32.3695 26.1158 32.8841C26.6301 33.3984 27.2725 33.7665 27.9763 33.9502L27.9763 31.7601C27.6687 31.5856 27.4139 31.3312 27.2395 31.0233Z" fill="white"/>
<path d="M18.7659 31.0232L14.6724 31.0232L14.6727 31.0232C14.923 34.464 16.4065 37.6985 18.8505 40.1329C21.2945 42.5674 24.5347 44.0385 27.9761 44.2756L27.9761 40.1821L27.9761 40.1824C25.618 39.9574 23.4111 38.9215 21.7316 37.2513C20.052 35.581 19.0037 33.3798 18.7657 31.0231L18.7659 31.0232Z" fill="white"/>
<path d="M37.1153 31.0234L35.0683 31.0234C34.8539 32.2813 34.2529 33.4412 33.3485 34.3417C32.4445 35.2422 31.2822 35.8386 30.0232 36.0483L30.0232 38.095C31.8213 37.8675 33.4931 37.0499 34.7766 35.7701C36.0599 34.4903 36.8824 32.821 37.1152 31.0234L37.1153 31.0234Z" fill="white"/>
<path d="M30.7598 28.9766L32.9499 28.9766C32.7662 28.2726 32.398 27.6303 31.8838 27.116C31.3692 26.6015 30.7269 26.2336 30.023 26.0496L30.023 28.2397C30.3309 28.4142 30.5853 28.6689 30.7598 28.9766Z" fill="white"/>
<path d="M32.9498 31.0233L30.7597 31.0233C30.5852 31.3312 30.3307 31.5856 30.0228 31.7601L30.0228 33.9502C30.7268 33.7665 31.3691 33.3984 31.8836 32.8841C32.3979 32.3695 32.7661 31.7272 32.9498 31.0233Z" fill="white"/>
<path d="M39.1822 28.9766L43.2757 28.9766L43.2755 28.9766C43.0383 25.5351 41.5673 22.2948 39.1327 19.851C36.6982 17.407 33.4636 15.9236 30.0231 15.6732L30.0231 19.7664C32.3798 20.0044 34.5809 21.0528 36.2513 22.7323C37.9214 24.4119 38.9573 26.6187 39.1823 28.9768L39.1822 28.9766Z" fill="white"/>
<path d="M16.7198 28.9766L18.7665 28.9766C18.9934 26.6106 20.0366 24.3976 21.7172 22.717C23.3979 21.0363 25.6109 19.9931 27.9768 19.7663L27.9768 15.6727L27.9768 15.673C24.5272 15.9115 21.2801 17.3898 18.8353 19.8349C16.3905 22.28 14.9119 25.527 14.6734 28.9764L16.7198 28.9766Z" fill="white"/>
<path d="M43.2758 31.0233L39.1822 31.0233L39.1825 31.0233C38.9445 33.38 37.8962 35.5812 36.2166 37.2516C34.5371 38.9216 32.33 39.9576 29.9721 40.1826L29.9721 44.2761L29.9721 44.2759C33.4137 44.0387 36.6539 42.5677 39.0977 40.1331C41.5417 37.6986 43.0252 34.464 43.2756 31.0235L43.2758 31.0233Z" fill="white"/>
<path d="M22.9522 31.0234L20.9053 31.0234C21.1327 32.8216 21.9506 34.4933 23.2301 35.7769C24.5099 37.0602 26.1795 37.8827 27.9769 38.1155L27.9769 36.0685C26.719 35.8541 25.5591 35.2531 24.6585 34.3487C23.758 33.4447 23.1616 32.2824 22.9522 31.0234L22.9522 31.0234Z" fill="white"/>
<path d="M20.8847 28.9766L22.9313 28.9766C23.1458 27.7187 23.7471 26.5588 24.6511 25.6582C25.5555 24.7577 26.7178 24.1613 27.9765 23.9519L27.9765 21.905C26.1784 22.1324 24.5066 22.9503 23.2231 24.2298C21.9397 25.5096 21.1173 27.1792 20.8847 28.9766L20.8847 28.9766Z" fill="white"/>
<path d="M35.0477 28.9765L37.0944 28.9765C36.867 27.1783 36.0494 25.5066 34.7696 24.2231C33.4898 22.9397 31.8205 22.1173 30.0228 21.8847L30.0228 23.9314C31.2807 24.1459 32.4406 24.7471 33.3412 25.6512C34.2417 26.5555 34.8381 27.7178 35.0477 28.9766L35.0477 28.9765Z" fill="white"/>
<defs>
<linearGradient id="paint0_linear_2_333" x1="25.4336" y1="50.5388" x2="16.6947" y2="38.5954" gradientUnits="userSpaceOnUse">
<stop offset="0.1905" stop-opacity="0"/>
<stop offset="0.669" stop-color="#060606" stop-opacity="0.4824"/>
<stop offset="0.6946" stop-color="#0D0C0C" stop-opacity="0.5223"/>
<stop offset="0.7703" stop-color="#1C1A1A" stop-opacity="0.6408"/>
<stop offset="0.8603" stop-color="#242223" stop-opacity="0.7815"/>
<stop offset="1" stop-color="#272425"/>
</linearGradient>
<linearGradient id="paint1_linear_2_333" x1="65.3939" y1="28.635" x2="42.7022" y2="51.6537" gradientUnits="userSpaceOnUse">
<stop stop-color="white"/>
<stop offset="1" stop-color="white" stop-opacity="0"/>
</linearGradient>
<linearGradient id="paint2_linear_2_333" x1="83.7283" y1="-3.88884" x2="41.5" y2="41.0934" gradientUnits="userSpaceOnUse">
<stop stop-color="white"/>
<stop offset="1" stop-color="white" stop-opacity="0"/>
</linearGradient>
</defs>
</svg>
