<svg width="59" height="59" viewBox="0 0 59 59" fill="none" xmlns="http://www.w3.org/2000/svg">
<circle cx="29.5" cy="29.5" r="29.5" fill="#21BD96"/>
<mask id="mask0_2_302" style="mask-type:alpha" maskUnits="userSpaceOnUse" x="0" y="0" width="59" height="59">
<circle cx="29.5" cy="29.5" r="29.5" fill="#21BD96"/>
</mask>
<g mask="url(#mask0_2_302)">
<g style="mix-blend-mode:soft-light">
<path d="M-10 73.7976L52.154 13.0359L64.7919 13.0002L-10 87.4351V73.7976Z" fill="url(#paint0_linear_2_302)"/>
<path d="M60.78 29C61.3452 29 61.9166 29.2298 62.3481 29.6829C63.2173 30.5956 63.2173 32.07 62.3481 32.9763L46.7882 49.3155C45.919 50.2282 44.515 50.2282 43.6519 49.3155C42.7827 48.4028 42.7827 46.9284 43.6519 46.0221L59.2057 29.6893C59.6434 29.2298 60.2086 29 60.78 29Z" fill="url(#paint1_linear_2_302)"/>
<path d="M74.6927 -0.61084C75.7994 -0.61084 76.918 -0.182438 77.7629 0.662466C79.4647 2.36417 79.4647 5.11309 77.7629 6.8029L47.3107 37.2551C45.609 38.9569 42.8601 38.9569 41.1703 37.2551C39.4686 35.5534 39.4686 32.8045 41.1703 31.1147L71.6225 0.662466C72.4674 -0.182438 73.5741 -0.61084 74.6927 -0.61084Z" fill="url(#paint2_linear_2_302)"/>
</g>
</g>
<path d="M45.7778 15C45.2594 15 44.8276 15.3025 44.6117 15.7343H30.8327V15.1297C30.8327 15.0435 30.7896 15 30.703 15H28.4135C28.3273 15 28.2838 15.0431 28.2838 15.1297V15.7343H14.4619C14.246 15.3025 13.8138 15 13.2958 15C12.6046 15 12 15.5615 12 16.2958C12 16.987 12.5615 17.5916 13.2958 17.5916C13.8142 17.5916 14.246 17.2891 14.4619 16.8573H24.9154C22.1941 18.2397 20.164 20.8313 19.5159 23.8982H18.6954C18.6092 23.8982 18.5657 23.9413 18.5657 24.0279V26.3174C18.5657 26.4037 18.6088 26.4471 18.6954 26.4471H20.9849C21.0712 26.4471 21.1146 26.404 21.1146 26.3174V24.0279C21.1146 23.9417 21.0715 23.8982 20.9849 23.8982H20.5962C21.4602 20.2698 24.4837 17.4623 28.2418 16.9007V17.4191C28.2418 17.5053 28.2849 17.5488 28.3714 17.5488H30.661C30.7472 17.5488 30.7907 17.5057 30.7907 17.4191V16.9007C34.5488 17.4191 37.5723 20.2267 38.4362 23.8982H38.0475C37.9613 23.8982 37.9178 23.9413 37.9178 24.0279V26.3174C37.9178 26.4037 37.9609 26.4471 38.0475 26.4471H40.337C40.4233 26.4471 40.4667 26.404 40.4667 26.3174V24.0279C40.4667 23.9417 40.4236 23.8982 40.337 23.8982H39.5165C38.8684 20.8313 36.8383 18.2397 34.117 16.8573H44.5705C44.7864 17.2891 45.2186 17.5916 45.7366 17.5916C46.4278 17.5916 47.0324 17.0301 47.0324 16.2958C47.0752 15.6046 46.4706 15 45.7794 15H45.7778Z" fill="white"/>
<path d="M37.3985 34.0482C37.3553 34.0913 34.893 37.8063 33.5542 42.2984C33.5111 42.5143 33.6404 42.6871 33.8567 42.6871H36.8804C36.9667 42.6871 37.0101 42.7302 37.0532 42.7733C37.0963 42.8164 37.1394 42.8595 37.1394 42.9461V44.6306C37.1394 44.7603 37.0532 44.8896 36.8804 44.8896L22.1939 44.8904C22.1508 44.8904 22.1077 44.8472 22.0642 44.8472C22.0211 44.8041 21.978 44.7176 21.978 44.6744V42.9899C21.978 42.8602 22.0642 42.774 22.1939 42.774H25.2177C25.4336 42.774 25.5633 42.5581 25.5202 42.3853C24.1812 37.8929 21.7189 34.1783 21.6759 34.1351C21.4169 33.8326 21.3734 33.4008 21.6328 33.0984L28.2847 22.1268C28.4143 21.954 28.6303 22.0406 28.6303 22.2565V30.8092C28.6303 30.8954 28.5871 30.9389 28.544 30.982C27.9825 31.3707 27.6369 32.0619 27.8097 32.8393C27.9394 33.4439 28.4578 33.9192 29.0624 34.0919C30.1854 34.3509 31.2222 33.4873 31.2222 32.4074C31.2222 31.8028 30.9197 31.2844 30.4448 30.9819C30.4017 30.9388 30.3586 30.8957 30.3586 30.8091V22.2564C30.3586 22.0836 30.6176 21.9974 30.7042 22.1267L37.3561 33.0983C37.6575 33.3138 37.6144 33.7891 37.3985 34.0481L37.3985 34.0482Z" fill="white"/>
<defs>
<linearGradient id="paint0_linear_2_302" x1="25.4336" y1="47.5388" x2="16.6947" y2="35.5954" gradientUnits="userSpaceOnUse">
<stop offset="0.1905" stop-opacity="0"/>
<stop offset="0.669" stop-color="#060606" stop-opacity="0.4824"/>
<stop offset="0.6946" stop-color="#0D0C0C" stop-opacity="0.5223"/>
<stop offset="0.7703" stop-color="#1C1A1A" stop-opacity="0.6408"/>
<stop offset="0.8603" stop-color="#242223" stop-opacity="0.7815"/>
<stop offset="1" stop-color="#272425"/>
</linearGradient>
<linearGradient id="paint1_linear_2_302" x1="65.3939" y1="25.635" x2="42.7022" y2="48.6537" gradientUnits="userSpaceOnUse">
<stop stop-color="white"/>
<stop offset="1" stop-color="white" stop-opacity="0"/>
</linearGradient>
<linearGradient id="paint2_linear_2_302" x1="83.7283" y1="-6.88884" x2="41.5" y2="38.0934" gradientUnits="userSpaceOnUse">
<stop stop-color="white"/>
<stop offset="1" stop-color="white" stop-opacity="0"/>
</linearGradient>
</defs>
</svg>
