<svg width="59" height="59" viewBox="0 0 59 59" fill="none" xmlns="http://www.w3.org/2000/svg">
<circle cx="29.5" cy="29.5" r="29.5" fill="#FFAC0B"/>
<mask id="mask0_2_257" style="mask-type:alpha" maskUnits="userSpaceOnUse" x="0" y="0" width="59" height="59">
<circle cx="29.5" cy="29.5" r="29.5" fill="#FFAC0B"/>
</mask>
<g mask="url(#mask0_2_257)">
<g style="mix-blend-mode:soft-light">
<path d="M-10 77.7976L52.154 17.0359L64.7919 17.0002L-10 91.4351V77.7976Z" fill="url(#paint0_linear_2_257)"/>
<path d="M60.78 33C61.3452 33 61.9166 33.2298 62.3481 33.6829C63.2173 34.5956 63.2173 36.07 62.3481 36.9763L46.7882 53.3155C45.919 54.2282 44.515 54.2282 43.6519 53.3155C42.7827 52.4028 42.7827 50.9284 43.6519 50.0221L59.2057 33.6893C59.6434 33.2298 60.2086 33 60.78 33Z" fill="url(#paint1_linear_2_257)"/>
<path d="M74.6927 3.38916C75.7994 3.38916 76.918 3.81756 77.7629 4.66247C79.4647 6.36417 79.4647 9.11309 77.7629 10.8029L47.3107 41.2551C45.609 42.9569 42.8601 42.9569 41.1703 41.2551C39.4686 39.5534 39.4686 36.8045 41.1703 35.1147L71.6225 4.66247C72.4674 3.81756 73.5741 3.38916 74.6927 3.38916Z" fill="url(#paint2_linear_2_257)"/>
</g>
</g>
<path d="M46.4091 28.4174C46.4091 29.2952 46.0569 30.137 45.4306 30.7574C44.8039 31.3781 43.9541 31.7266 43.0682 31.7266V25.1081C43.9541 25.1081 44.804 25.4569 45.4306 26.0773C46.0569 26.6981 46.4091 27.5398 46.4091 28.4174ZM21.3524 23.4537H18.0116C16.221 23.4537 14.5666 24.3996 13.6714 25.9355C12.7762 27.4715 12.7762 29.3637 13.6714 30.8996C14.5665 32.4354 16.2209 33.3815 18.0116 33.3815L19.6821 40H23.0227L21.3524 33.3815V23.4537ZM39.7308 19.0003C39.581 19.0006 39.4322 19.0206 39.288 19.0596L23.0226 23.4537V33.381L39.2871 37.7748C39.7898 37.9117 40.3278 37.8082 40.7418 37.4951C41.1558 37.1816 41.3985 36.6945 41.3972 36.1787V20.6557C41.3972 20.2175 41.2216 19.7969 40.9091 19.4867C40.5967 19.1762 40.1727 19.0013 39.7303 19L39.7308 19.0003Z" fill="white"/>
<defs>
<linearGradient id="paint0_linear_2_257" x1="25.4336" y1="51.5388" x2="16.6947" y2="39.5954" gradientUnits="userSpaceOnUse">
<stop offset="0.1905" stop-opacity="0"/>
<stop offset="0.669" stop-color="#060606" stop-opacity="0.4824"/>
<stop offset="0.6946" stop-color="#0D0C0C" stop-opacity="0.5223"/>
<stop offset="0.7703" stop-color="#1C1A1A" stop-opacity="0.6408"/>
<stop offset="0.8603" stop-color="#242223" stop-opacity="0.7815"/>
<stop offset="1" stop-color="#272425"/>
</linearGradient>
<linearGradient id="paint1_linear_2_257" x1="65.3939" y1="29.635" x2="42.7022" y2="52.6537" gradientUnits="userSpaceOnUse">
<stop stop-color="white"/>
<stop offset="1" stop-color="white" stop-opacity="0"/>
</linearGradient>
<linearGradient id="paint2_linear_2_257" x1="83.7283" y1="-2.88884" x2="41.5" y2="42.0934" gradientUnits="userSpaceOnUse">
<stop stop-color="white"/>
<stop offset="1" stop-color="white" stop-opacity="0"/>
</linearGradient>
</defs>
</svg>
