<svg width="77" height="66" viewBox="0 0 77 66" fill="none" xmlns="http://www.w3.org/2000/svg">
<circle cx="38.5" cy="29.5" r="29.5" fill="#FF6464"/>
<mask id="mask0_2_278" style="mask-type:alpha" maskUnits="userSpaceOnUse" x="9" y="0" width="59" height="59">
<circle cx="38.5" cy="29.5" r="29.5" fill="#FF7C6C"/>
</mask>
<g mask="url(#mask0_2_278)">
<g style="mix-blend-mode:soft-light">
<path d="M-2 76.7976L60.154 16.0359L72.7919 16.0002L-2 90.4351V76.7976Z" fill="url(#paint0_linear_2_278)"/>
<path d="M68.78 32C69.3452 32 69.9166 32.2298 70.3481 32.6829C71.2173 33.5956 71.2173 35.07 70.3481 35.9763L54.7882 52.3155C53.919 53.2282 52.515 53.2282 51.6519 52.3155C50.7827 51.4028 50.7827 49.9284 51.6519 49.0221L67.2057 32.6893C67.6434 32.2298 68.2086 32 68.78 32Z" fill="url(#paint1_linear_2_278)"/>
<path d="M82.6927 2.38916C83.7994 2.38916 84.918 2.81756 85.7629 3.66247C87.4647 5.36417 87.4647 8.11309 85.7629 9.8029L55.3107 40.2551C53.609 41.9569 50.8601 41.9569 49.1703 40.2551C47.4686 38.5534 47.4686 35.8045 49.1703 34.1147L79.6225 3.66247C80.4674 2.81756 81.5741 2.38916 82.6927 2.38916Z" fill="url(#paint2_linear_2_278)"/>
</g>
</g>
<g filter="url(#filter0_d_2_278)">
<path d="M24.5589 42.0001H52.1906C54.5071 42.0001 56.4287 40.2817 56.7492 38.0527H20C20.3202 40.2817 22.2422 42.0001 24.5586 42.0001H24.5589ZM28.5063 39.3682H48.2429V40.6841H28.5063V39.3682Z" fill="white"/>
<path d="M23.901 18.9738C23.901 18.6105 24.1958 18.316 24.5587 18.316H27.8483V19.6319H25.2168V36.7369H51.5327V19.6319H29.1643V18.316H52.1906C52.5539 18.316 52.8484 18.6108 52.8484 18.9738V36.7367H54.1643V17H22.586V36.7367H23.9019L23.901 18.9738ZM42.5592 25.4001L43.4014 24.3895L47.3487 27.6791C47.4987 27.8041 47.5856 27.9889 47.5856 28.1844C47.5856 28.3799 47.4987 28.5647 47.3487 28.6897L43.4014 31.9793L42.5592 30.9687L45.9002 28.1844L42.5592 25.4001ZM40.4462 23.2344L41.5666 23.9238L36.3033 32.4763L35.1829 31.7869L40.4462 23.2344ZM29.4012 27.6791L33.3485 24.3895L34.1907 25.4001L30.8497 28.1843L34.1903 30.9686L33.3481 31.9792L29.4008 28.6896C29.2511 28.5646 29.1643 28.3795 29.1643 28.1843C29.1643 27.9888 29.2511 27.804 29.4012 27.679L29.4012 27.6791Z" fill="white"/>
</g>
<defs>
<filter id="filter0_d_2_278" x="0" y="1" width="76.7491" height="65" filterUnits="userSpaceOnUse" color-interpolation-filters="sRGB">
<feFlood flood-opacity="0" result="BackgroundImageFix"/>
<feColorMatrix in="SourceAlpha" type="matrix" values="0 0 0 0 0 0 0 0 0 0 0 0 0 0 0 0 0 0 127 0" result="hardAlpha"/>
<feOffset dy="4"/>
<feGaussianBlur stdDeviation="10"/>
<feComposite in2="hardAlpha" operator="out"/>
<feColorMatrix type="matrix" values="0 0 0 0 0.908333 0 0 0 0 0.291798 0 0 0 0 0.219514 0 0 0 1 0"/>
<feBlend mode="normal" in2="BackgroundImageFix" result="effect1_dropShadow_2_278"/>
<feBlend mode="normal" in="SourceGraphic" in2="effect1_dropShadow_2_278" result="shape"/>
</filter>
<linearGradient id="paint0_linear_2_278" x1="33.4336" y1="50.5388" x2="24.6947" y2="38.5954" gradientUnits="userSpaceOnUse">
<stop offset="0.1905" stop-opacity="0"/>
<stop offset="0.669" stop-color="#060606" stop-opacity="0.4824"/>
<stop offset="0.6946" stop-color="#0D0C0C" stop-opacity="0.5223"/>
<stop offset="0.7703" stop-color="#1C1A1A" stop-opacity="0.6408"/>
<stop offset="0.8603" stop-color="#242223" stop-opacity="0.7815"/>
<stop offset="1" stop-color="#272425"/>
</linearGradient>
<linearGradient id="paint1_linear_2_278" x1="73.3939" y1="28.635" x2="50.7022" y2="51.6537" gradientUnits="userSpaceOnUse">
<stop stop-color="white"/>
<stop offset="1" stop-color="white" stop-opacity="0"/>
</linearGradient>
<linearGradient id="paint2_linear_2_278" x1="91.7283" y1="-3.88884" x2="49.5" y2="41.0934" gradientUnits="userSpaceOnUse">
<stop stop-color="white"/>
<stop offset="1" stop-color="white" stop-opacity="0"/>
</linearGradient>
</defs>
</svg>
