<svg width="120" height="129" viewBox="0 0 120 129" fill="none" xmlns="http://www.w3.org/2000/svg">
<path opacity="0.2" d="M69.2303 9.58498C68.2179 3.47003 65.2564 1.13767 62.3552 0.420018C62.2948 0.405067 62.2495 0.390127 62.189 0.375176C62.1739 0.375176 62.1588 0.375161 62.1437 0.36021C61.6451 0.255553 61.0709 0.165855 60.4061 0.106051C58.8648 -0.0285081 57.2481 0.285455 55.6766 0.883495C55.6162 0.898446 55.6011 0.913408 55.6011 0.913408C49.5268 3.26071 44.465 9.8242 49.6024 11.3043C49.3153 12.2762 49.134 13.3377 49.1189 14.4291C49.1038 15.2813 49.1642 16.1186 49.3153 16.896C49.8593 19.7965 51.4911 22.099 53.6368 23.0409C53.6519 23.0409 53.6519 23.0558 53.667 23.0558C53.6972 24.2369 53.7577 25.433 53.8483 26.5992C52.7 27.0477 50.7054 28.0943 49.6628 30.322C48.8015 32.1759 46.5048 36.4519 44.7068 39.771H36.3358C35.8825 39.771 35.5501 40.2345 35.671 40.6681L36.7287 44.2264C36.3358 44.3759 36.0336 44.7049 35.8976 45.1235C35.6861 45.7514 35.5803 46.8429 35.9882 48.7566C36.1696 49.5789 36.502 50.1321 36.9402 50.4909L39.7204 54.2436L40.8084 57.9215C31.561 67.6546 21.951 101.504 21.951 101.504L23.0239 102.356C22.6461 103.358 22.2986 104.27 21.9964 105.047C21.8302 105.481 21.6791 105.869 21.5431 106.228C20.9991 107.634 20.6969 108.441 20.6969 108.441C20.6969 108.441 16.3301 114.077 14.6529 114.062C14.5925 113.973 14.5471 113.868 14.532 113.734C14.4262 112.851 8.9262 113.674 10.2257 115.901C11.5251 118.129 16.6323 119.52 18.1887 118.667C19.745 117.815 22.9634 113.674 23.2807 115.124C23.598 116.574 21.4675 121 21.4675 121L22.7368 121.433C22.7368 121.433 30.5638 110.459 26.4841 108.546L27.4662 106.781L27.5266 106.677L27.8137 106.168L29.3096 107.364L34.5075 97.2576L39.5542 87.4497C39.5542 87.4497 44.329 111.147 44.5103 111.087C44.5556 111.072 45.009 110.998 45.6889 110.893L46.1573 114.197C46.1724 114.317 46.1875 114.421 46.2026 114.526C46.4142 115.976 46.535 116.813 46.535 116.813C46.535 116.813 45.3867 123.691 43.8757 124.498C43.7699 124.453 43.6793 124.379 43.6037 124.274C43.0749 123.586 38.5267 126.92 40.7932 128.191C43.0597 129.462 48.3483 128.161 49.3304 126.696C50.3126 125.231 51.1587 120.162 52.156 121.239C53.1532 122.315 53.4252 127.085 53.4252 127.085L54.77 126.846C54.77 126.846 56.4019 113.778 51.7782 114.122V112.029V110.938V109.936C52.8812 109.772 53.6519 109.652 53.6519 109.652L51.6422 78.823L72.1617 79.3762C72.2825 79.3762 72.4034 79.3912 72.5243 79.3912H72.7358C79.354 79.436 82.6933 75.3095 83.3431 71.7512C83.8266 69.1049 81.8321 64.8139 80.2153 61.8686C82.5574 62.7357 84.8088 62.5563 86.2593 59.925C88.3294 56.1872 86.5011 49.8928 83.8719 43.9274C83.9173 43.9125 83.9475 43.8975 83.9928 43.8826C111.75 32.3105 71.3155 22.2485 69.2303 9.58498Z" fill="#003889"/>
<path opacity="0.2" d="M110.073 89.4381C108.426 80.034 100.146 72.8874 90.173 72.8874C87.846 72.8874 85.6097 73.2761 83.5246 73.9938C80.5328 66.4136 73.0835 61.0312 64.35 61.0312C57.9282 61.0312 52.1864 63.9467 48.4089 68.5217C46.5201 67.9984 44.5256 67.6994 42.4555 67.6994C33.601 67.6994 25.9856 72.9023 22.5254 80.3778C21.9663 80.318 21.3921 80.2881 20.818 80.2881C11.9937 80.2881 4.84668 87.3599 4.84668 96.0913C4.84668 104.823 11.9937 111.895 20.818 111.895C24.8372 111.895 28.4938 110.414 31.3043 107.992C34.5681 109.906 38.3758 111.012 42.4555 111.012C45.9006 111.012 49.1493 110.22 52.0504 108.83C54.7702 114.705 60.7537 118.802 67.7195 118.802C73.703 118.802 78.9765 115.782 82.0589 111.192C84.5369 112.268 87.287 112.881 90.173 112.881C94.57 112.881 98.6497 111.491 101.974 109.114C103.863 110.579 106.235 111.446 108.834 111.446C114.999 111.446 120 106.497 120 100.397C119.97 94.7308 115.633 90.0511 110.073 89.4381Z" fill="#003889"/>
<path d="M105.872 80.3631C104.225 70.959 95.9449 63.8124 85.9723 63.8124C83.6453 63.8124 81.4091 64.2011 79.3239 64.9337C76.3321 57.3536 68.8829 51.9712 60.1493 51.9712C53.7275 51.9712 47.9857 54.8866 44.2082 59.4616C42.3194 58.9383 40.3249 58.6393 38.2548 58.6393C29.4004 58.6393 21.7849 63.8423 18.3247 71.3178C17.7657 71.258 17.1915 71.2281 16.6173 71.2281C7.79303 71.2281 0.645996 78.2999 0.645996 87.0312C0.645996 95.7626 7.79303 102.834 16.6173 102.834C20.6365 102.834 24.2932 101.354 27.1037 98.9323C30.3674 100.846 34.1751 101.952 38.2548 101.952C41.6999 101.952 44.9486 101.16 47.8497 99.7695C50.5695 105.645 56.5531 109.742 63.5188 109.742C69.5024 109.742 74.7758 106.722 77.8582 102.132C80.3363 103.208 83.0863 103.821 85.9723 103.821C90.3693 103.821 94.449 102.431 97.7732 100.054C99.662 101.519 102.034 102.386 104.633 102.386C110.798 102.386 115.799 97.4371 115.799 91.3371C115.784 85.6558 111.448 80.9911 105.872 80.3631Z" fill="white"/>
<path d="M31.1077 98.4836L30.0953 100.517L27.028 106.662L26.9826 106.766L24.7766 111.177L15.3479 115.782C15.3479 115.782 12.885 113.913 14.5169 114.063C16.1487 114.212 20.3191 108.441 20.3191 108.441C20.3191 108.441 20.5911 107.634 21.0444 106.228C21.1653 105.869 21.2862 105.481 21.4373 105.047C21.9963 103.358 22.7216 101.13 23.5677 98.5583C23.8246 97.7958 24.0815 97.0035 24.3535 96.1812L31.1077 98.4836Z" fill="#FDC8AA"/>
<path d="M15.786 114.421C15.786 114.421 14.6075 114.616 14.4413 113.734C14.275 112.852 8.82033 113.674 10.2558 115.902C11.6761 118.129 16.8589 119.52 18.3699 118.668C19.8809 117.815 22.8726 113.674 23.2655 115.124C23.6584 116.574 21.7847 121 21.7847 121L23.0691 121.433C23.0691 121.433 30.3219 110.444 26.0911 108.531C26.0911 108.546 22.7971 112.523 15.786 114.421Z" fill="#1F3A6F"/>
<path d="M31.1077 98.4836L30.0953 100.517L27.028 106.662L26.9826 106.766L21.4373 105.047C21.9963 103.358 22.7216 101.13 23.5677 98.5583C23.8246 97.7958 24.0815 97.0035 24.3535 96.1812L31.1077 98.4836Z" fill="#EFA37D"/>
<path d="M51.8387 117.053L45.8702 125.605C45.8702 125.605 42.7878 125.157 44.2837 124.499C45.7795 123.841 46.5804 116.784 46.5804 116.784C46.5804 116.784 46.4142 115.947 46.1271 114.497C46.112 114.392 46.0818 114.272 46.0666 114.168L44.3894 105.705C44.2836 105.197 44.1779 104.674 44.0721 104.135L51.0982 102.895L51.1738 104.36L51.2191 105.167L51.5062 110.908L51.5667 112L51.8387 117.053Z" fill="#FDC8AA"/>
<path d="M45.5681 124.2C45.5681 124.2 44.6312 124.932 44.0571 124.245C43.4829 123.557 39.1161 126.891 41.4581 128.162C43.8002 129.433 49.0131 128.132 49.9046 126.667C50.7961 125.201 51.3854 120.133 52.4431 121.209C53.5008 122.286 54.0297 127.055 54.0297 127.055L55.3745 126.816C55.3745 126.816 56.2962 113.719 51.6725 114.093C51.6725 114.108 50.7659 119.161 45.5681 124.2Z" fill="#1F3A6F"/>
<path d="M51.5213 110.923C50.3579 111.64 47.5021 113.39 46.0666 114.182L44.3894 105.72L51.1889 104.359L51.2343 105.167L51.5213 110.923Z" fill="#EFA37D"/>
<path d="M33.4045 50.4912L36.8194 54.7822L38.0584 53.5711L37.0914 48.8018L33.4045 50.4912Z" fill="#EFA37D"/>
<path d="M37.9979 87.4349C37.9979 87.4349 44.0571 111.132 44.2384 111.072C44.4197 111.013 53.3346 109.637 53.3346 109.637L49.6327 78.8082L70.7565 79.3763L55.1176 64.9785C55.1176 64.9785 37.454 64.8589 35.5955 67.3109C33.752 69.7778 35.0968 81.9778 37.9979 87.4349Z" fill="#15315E"/>
<path d="M57.0819 44.7051C60.9954 47.7102 66.7976 48.5624 75.2743 45.6769C77.0573 45.0639 78.659 44.4658 80.0642 43.8678C107.232 32.3107 66.2536 22.2487 63.4583 9.58518C60.5269 -3.73615 49.3606 0.928555 49.3606 0.928555C49.3606 0.928555 44.2232 34.8524 57.0819 44.7051Z" fill="#1F3A6F"/>
<path d="M76.6795 60.0296H47.4869L38.4209 44.1965C38.4209 44.1965 43.6943 33.5813 45.024 30.3369C46.3537 27.0926 49.8441 26.3301 49.8441 26.3301L54.6188 27.7205H65.4376L74.7605 54.5127L75.6218 56.9946L76.6795 60.0296Z" fill="#F4B545"/>
<path d="M75.0475 59.4916L74.5489 62.7809L55.4951 62.3174V58.5049L75.0475 59.4916Z" fill="#15315E"/>
<path d="M75.8636 60.0299H54.075V58.0414C64.4555 59.2674 67.8704 54.812 67.8704 54.812L74.7757 54.5279L75.4405 54.498L75.6369 57.0098L75.8636 60.0299Z" fill="#E59D29"/>
<path d="M32.2257 39.7861H58.5474C58.8345 39.7861 59.0763 39.9805 59.1669 40.2496L64.9389 59.1626C65.0749 59.5962 64.7576 60.0298 64.3194 60.0298H38.8741C38.6022 60.0298 38.3604 59.8504 38.2697 59.5962L31.6213 40.6832C31.4702 40.2496 31.7724 39.7861 32.2257 39.7861Z" fill="#3B82F4"/>
<path d="M80.9558 71.7217C80.4118 76.0425 75.9694 81.1707 66.1026 78.7337C56.2358 76.3116 50.0406 72.9776 45.5076 66.1301C45.5076 66.1301 35.7768 65.532 35.6559 69.9724C35.6106 71.3778 35.6861 73.1121 35.8372 74.996C36.1696 79.0327 36.9403 83.7423 38.0131 87.4352L33.5103 97.243L28.8715 107.35L21.2258 101.504C21.2258 101.504 31.682 55.8886 41.9568 55.3504C41.9568 55.3504 44.2988 54.6327 48.3785 56.6063C51.3401 58.0416 62.4611 61.8241 69.4873 61.2112C72.1013 60.9869 74.5642 60.6729 75.2442 58.6695C75.2291 58.6844 81.4997 67.4009 80.9558 71.7217Z" fill="#1F3A6F"/>
<path d="M63.9418 25.0298C63.9418 25.0298 69.2605 25.0747 71.8141 29.7543C74.3677 34.434 86.9846 52.3453 83.2222 59.9105C79.4598 67.4607 67.8553 54.8122 67.8553 54.8122L66.4047 39.8761L57.3992 29.53L63.9418 25.0298Z" fill="#F4B545"/>
<path d="M70.5147 50.551C70.0463 53.4664 67.8704 54.812 67.8704 54.812C66.0875 53.9748 64.3801 52.5395 63.2921 46.4694C63.1259 45.5723 63.0806 44.7949 63.1108 44.137C63.277 41.1319 65.196 40.4591 65.9666 40.3096L67.0847 41.2365C70.2729 45.2882 70.8622 48.3682 70.5147 50.551Z" fill="#36588E"/>
<path d="M32.0748 45.1235C32.1957 44.7049 32.4828 44.3759 32.8605 44.2264C33.8276 43.8527 36.5625 42.836 37.2424 43.2845C38.0584 43.8228 37.454 44.9441 37.454 44.9441C37.454 44.9441 38.421 45.1683 38.557 46.0205C38.693 46.8728 38.0131 47.1867 38.0131 47.1867C38.0131 47.1867 38.5872 47.2615 38.7232 47.9791C38.8592 48.6968 38.1642 49.1603 38.1642 49.1603C38.1642 49.1603 38.8139 49.3247 38.8139 49.6387C38.8139 49.9527 33.5405 53.1073 32.377 48.7566C31.8633 46.8578 31.9086 45.7514 32.0748 45.1235Z" fill="#FDC8AA"/>
<path d="M70.5146 50.5508C69.8951 49.9976 69.2302 49.4145 68.5654 48.8165C66.1478 46.6785 63.7906 44.5854 63.5337 44.4358C63.3826 44.3461 63.2466 44.2415 63.1107 44.1518C61.2219 42.6866 62.0681 40.9672 58.6834 37.9621C55.0873 34.7476 59.9527 35.226 58.9856 35.0317C58.0186 34.8373 55.3441 33.4917 55.5103 32.804C55.6614 32.1312 58.5323 32.8787 61.0859 33.3123C63.6395 33.7459 65.9363 40.3094 65.9363 40.3094L65.9665 40.3393L67.0846 41.2662C70.2728 45.303 70.8621 48.368 70.5146 50.5508Z" fill="#FDC8AA"/>
<path d="M63.9417 25.0296C63.9417 25.0296 62.6724 27.0181 62.6422 27.0629C61.4485 28.9766 56.9306 32.0864 54.2864 31.907C52.3976 31.7725 50.4031 30.5465 50.3729 28.6776L49.8591 26.3303L52.1558 26.0761L52.0501 25.4781L51.5212 22.4729L53.3344 19.3482L53.41 19.2136L57.2177 12.68C57.2177 12.68 59.1216 11.469 59.6958 13.2781C60.27 15.0872 58.3207 17.5092 58.3207 17.5092L59.6353 24.4764L63.9417 25.0296Z" fill="#FDC8AA"/>
<path d="M57.399 16.6123C56.4773 24.4018 53.1682 25.3885 52.035 25.4932L51.5061 22.488L53.3193 19.3633L53.3949 19.2287L57.399 16.6123Z" fill="#EFA37D"/>
<path d="M43.9514 16.8964C44.6464 19.7969 46.3992 22.0993 48.6052 23.0412C49.3456 23.3552 50.1465 23.5196 50.9775 23.4897C54.891 23.3851 57.9432 19.139 57.7921 14.0258C57.641 8.91252 54.3622 4.84585 50.4487 4.96546C46.5352 5.07012 43.498 9.31621 43.634 14.4294C43.6491 15.2966 43.7549 16.1189 43.9514 16.8964Z" fill="#FDC8AA"/>
<path d="M57.4294 5.27927C57.4294 5.27927 50.509 13.1884 43.9362 11.3195C37.3633 9.45061 46.5653 -0.506755 54.1354 0.106236C61.7207 0.734178 57.4294 5.27927 57.4294 5.27927Z" fill="#1F3A6F"/>
<path d="M51.6575 6.68482C51.6575 6.68482 55.2688 12.6353 57.6259 12.4708C57.6259 12.4708 58.185 11.7682 58.5023 11.8579C58.744 11.9177 59.0009 11.9625 59.2427 11.9924C63.2317 12.4559 54.3621 3.56006 54.3621 3.56006C54.3621 3.56006 51.8237 3.96374 51.6575 6.68482Z" fill="#1F3A6F"/>
<path d="M37.9979 87.435L33.4951 97.2429L35.8221 75.0107C36.1545 79.0475 36.9251 83.7571 37.9979 87.435Z" fill="#072542"/>
<path d="M70.5147 50.551C69.8952 49.9978 69.2303 49.4147 68.5655 48.8167C69.0339 45.8713 67.1452 41.3711 67.0847 41.2515C70.2729 45.3032 70.8622 48.3681 70.5147 50.551Z" fill="#EFA37D"/>
</svg>
