<svg width="446" height="417" viewBox="0 0 446 417" fill="none" xmlns="http://www.w3.org/2000/svg">
<path d="M445.882 208.415C445.882 323.223 351.822 416.293 235.792 416.293C119.762 416.293 25.7021 323.223 25.7021 208.415C25.7021 105.013 102.008 19.2396 201.93 3.21217C212.946 1.44796 224.263 0.520996 235.792 0.520996C280.729 0.520996 322.372 14.4852 356.536 38.2573C356.853 38.4666 357.156 38.6909 357.458 38.9002C372.553 49.5303 386.182 62.0892 397.953 76.2179C427.901 112.16 445.882 158.209 445.882 208.415Z" fill="#ECF3FE"/>
<path d="M385.895 146.652C384.641 139.505 378.34 134.063 370.755 134.063C368.987 134.063 367.279 134.362 365.693 134.916C363.411 129.144 357.745 125.048 351.112 125.048C346.216 125.048 341.864 127.261 338.993 130.744C337.558 130.34 336.032 130.116 334.46 130.116C327.721 130.116 321.934 134.078 319.305 139.76C318.882 139.715 318.444 139.685 318.006 139.685C311.297 139.685 305.857 145.067 305.857 151.705C305.857 158.344 311.297 163.726 318.006 163.726C321.058 163.726 323.853 162.605 325.984 160.766C328.462 162.231 331.363 163.068 334.46 163.068C337.074 163.068 339.553 162.47 341.759 161.409C343.829 165.879 348.377 168.989 353.68 168.989C358.229 168.989 362.248 166.686 364.59 163.203C366.479 164.025 368.564 164.489 370.77 164.489C374.124 164.489 377.222 163.427 379.745 161.633C381.181 162.739 382.994 163.412 384.958 163.412C389.642 163.412 393.45 159.644 393.45 155.01C393.435 150.674 390.141 147.116 385.895 146.652Z" fill="white"/>
<path d="M330.214 349.627C328.96 342.48 322.659 337.038 315.074 337.038C313.306 337.038 311.599 337.337 310.012 337.89C307.731 332.119 302.064 328.022 295.431 328.022C290.535 328.022 286.184 330.235 283.313 333.719C281.877 333.315 280.351 333.091 278.78 333.091C272.041 333.091 266.254 337.053 263.624 342.734C263.201 342.689 262.763 342.66 262.325 342.66C255.616 342.66 250.177 348.042 250.177 354.68C250.177 361.318 255.616 366.701 262.325 366.701C265.377 366.701 268.173 365.579 270.303 363.74C272.781 365.206 275.682 366.043 278.78 366.043C281.394 366.043 283.872 365.445 286.078 364.383C288.148 368.854 292.696 371.963 298 371.963C302.548 371.963 306.567 369.661 308.909 366.177C310.798 367 312.883 367.463 315.089 367.463C318.444 367.463 321.541 366.402 324.065 364.608C325.5 365.714 327.313 366.387 329.277 366.387C333.962 366.387 337.769 362.619 337.769 357.984C337.754 353.648 334.46 350.105 330.214 349.627Z" fill="white"/>
<path d="M143.621 109.843C140.553 108.228 137.169 107.092 133.542 106.554C116.498 104.027 100.633 115.659 98.0791 132.509C96.7192 141.554 99.4692 150.271 104.939 156.789C105.831 158.464 106.435 160.318 106.858 162.157L88.4691 234.878C87.5625 233.174 85.84 231.529 85.84 231.529L88.2274 234.938L84.873 234.445L83.9664 240.47L86.1875 240.799L85.8098 244.237L87.4719 244.417L86.8826 248.259C85.432 248.603 84.1175 249.455 83.226 250.786C81.7905 252.954 81.9567 255.705 83.4526 257.663C83.8001 258.127 84.2383 258.546 84.737 258.904C84.8276 259.293 84.9485 259.667 85.0996 260.041L84.8276 261.85C84.2837 265.483 85.7947 268.937 88.4994 271.075C89.965 273.99 92.8662 276.128 96.3868 276.517L126.093 279.746C131.608 280.344 136.564 276.412 137.169 270.955L137.214 270.506L137.501 267.965C138.695 266.903 139.481 265.378 139.526 263.674C139.571 262.313 139.133 261.042 138.393 260.011L138.695 257.26L138.725 256.946L139.496 250.068L143.53 250.502L144.21 244.447L142.125 244.223L142.321 242.922L140.478 242.653C142.321 242.189 144.104 241.367 142.82 240.021C141.112 238.242 139.073 240.545 138.121 241.845L141.944 168.72C143.016 166.642 144.376 164.534 146.084 162.844C153.246 158.195 158.459 150.659 159.819 141.614C161.768 128.367 154.923 115.823 143.621 109.843ZM130.233 209.716L130.173 210.03L130.022 210.015L129.825 210.986L129.931 209.327L130.384 209.357L130.399 209.731L130.233 209.716ZM128.737 214.455L127.997 214.201C128.329 212.033 128.39 209.925 128.39 209.925L128.163 209.91C128.178 209.731 128.193 209.536 128.193 209.536L127.785 209.506L127.876 208.744L129.145 208.819L128.798 214.47C128.768 214.485 128.752 214.47 128.737 214.455ZM122.829 238.257L122.935 240.081L122.225 239.976L122.829 238.257ZM128.435 220.211C128.375 219.553 128.329 218.925 128.329 218.402C128.39 218.432 128.465 218.462 128.541 218.492L128.435 220.211ZM129.327 205.798L129.13 205.784C129.085 205.664 129.009 205.574 128.858 205.514C128.48 205.365 128.042 205.275 127.665 205.29C128.163 204.363 126.501 202.868 124.688 202.42C124.688 202.42 124.673 202.42 124.658 202.42C124.099 202.285 123.524 202.255 122.996 202.375C122.799 202.42 122.633 202.464 122.497 202.509C122.482 202.509 122.482 202.509 122.467 202.524C121.439 202.883 120.397 203.825 120.23 206.112C119.883 210.643 106.148 216.13 116.166 218.821C116.483 218.91 116.831 218.985 117.193 219.075C117.042 222.17 117.163 225.22 117.163 225.22C118.024 225.295 118.931 225.235 119.792 225.1L119.777 225.788H120.064C119.958 225.937 119.853 226.102 119.747 226.281C118.206 228.793 116.589 233.637 115.138 238.9L102.476 237.031C104.32 236.568 106.103 235.745 104.818 234.4C103.065 232.561 100.95 235.043 100.043 236.343L110.424 193.584L117.662 198.099C118.855 198.846 120.306 199.056 121.681 198.697L129.931 196.469L129.327 205.798ZM107.704 169.303C107.719 169.841 107.719 170.335 107.719 170.768C107.719 172.069 108.686 173.19 110.001 173.385L114.761 174.087V174.102L110.046 173.4C108.868 173.22 107.704 173.938 107.402 175.074C107.206 175.822 107.417 176.554 107.87 177.093C107.991 177.242 108.127 177.362 108.263 177.466C108.46 177.601 108.429 177.9 108.203 177.975C108.037 178.035 107.87 178.109 107.719 178.214C107.175 178.558 106.782 179.111 106.677 179.799C106.616 180.232 106.677 180.651 106.843 181.025C106.934 181.234 107.054 181.413 107.19 181.593C107.311 181.742 107.447 181.862 107.598 181.982C107.795 182.116 107.75 182.415 107.523 182.49C107.357 182.55 107.19 182.624 107.039 182.729C106.495 183.073 106.103 183.626 105.997 184.314C105.906 184.957 106.087 185.585 106.48 186.078C106.616 186.243 106.752 186.377 106.934 186.497C107.13 186.631 107.085 186.93 106.858 187.005C106.707 187.065 106.556 187.125 106.405 187.214C105.846 187.558 105.423 188.126 105.317 188.814C105.226 189.427 105.392 190.025 105.74 190.504C106.087 190.967 106.601 191.296 107.221 191.401L106.722 191.326L109.669 193.165L99.2124 236.224C98.2755 234.624 96.7494 233.159 96.7494 233.159L99.1368 236.568L91.5214 235.446C93.3648 234.983 95.1478 234.161 93.8634 232.815C92.3071 231.185 90.4788 232.949 89.4362 234.28L107.206 164.04C107.523 165.954 107.659 167.793 107.704 169.303ZM137.259 241.935C136.338 240.305 134.736 238.765 134.736 238.765L137.123 242.174L130.309 241.173C132.152 240.709 133.935 239.887 132.651 238.541C131.291 237.121 129.72 238.287 128.662 239.483L128.632 230.198L128.888 226.027L129.432 226.042L129.463 224.951L128.949 224.936L129.327 218.791C129.508 218.851 129.704 218.91 129.901 218.97C132.621 219.763 132.606 210.179 132.606 210.179L132.47 210.164L132.485 209.85H132.394L132.454 209.491L134.781 209.626C135.31 209.656 135.779 208.804 135.854 207.727C135.915 206.651 135.552 205.739 135.023 205.709L132.832 205.574L132.213 205.544L130.158 205.425L130.717 196.29L134.071 195.393L133.588 195.318C134.827 195.482 135.99 194.63 136.171 193.404C136.232 192.971 136.171 192.552 136.005 192.178C135.915 191.954 135.779 191.745 135.612 191.565C135.507 191.446 135.386 191.326 135.25 191.236C135.053 191.102 135.099 190.803 135.325 190.728C135.522 190.653 135.703 190.563 135.884 190.459C136.398 190.115 136.761 189.562 136.867 188.919C136.972 188.246 136.761 187.588 136.338 187.11C136.217 186.975 136.081 186.856 135.945 186.736C135.748 186.601 135.794 186.302 136.02 186.228C136.202 186.168 136.368 186.078 136.534 185.973C137.063 185.63 137.456 185.076 137.562 184.404C137.622 183.97 137.562 183.551 137.395 183.178C137.305 182.968 137.184 182.774 137.033 182.595C136.912 182.46 136.776 182.325 136.64 182.221C136.443 182.086 136.504 181.787 136.731 181.712C136.912 181.653 137.078 181.578 137.229 181.473C137.818 181.099 138.242 180.442 138.272 179.679C138.332 178.498 137.426 177.481 136.247 177.302L131.533 176.599V176.584L136.292 177.287C137.607 177.481 138.876 176.704 139.254 175.448C139.632 174.192 140.221 172.488 141.022 170.679L137.259 241.935Z" fill="#C4D7F2"/>
<path d="M381.468 101.904C378.4 100.289 375.016 99.1526 371.389 98.6144C354.345 96.0876 338.48 107.72 335.926 124.569C334.566 133.615 337.316 142.331 342.786 148.85C343.678 150.524 344.282 152.378 344.705 154.217L326.316 226.939C325.409 225.234 323.687 223.59 323.687 223.59L326.074 226.999L322.72 226.505L321.813 232.53L324.034 232.859L323.657 236.298L325.319 236.477L324.73 240.32C323.279 240.664 321.964 241.516 321.073 242.847C319.637 245.014 319.804 247.765 321.3 249.724C321.647 250.187 322.085 250.606 322.584 250.965C322.675 251.354 322.795 251.727 322.947 252.101L322.675 253.91C322.131 257.543 323.642 260.997 326.346 263.135C327.812 266.05 330.713 268.189 334.234 268.577L363.94 271.807C369.455 272.405 374.411 268.473 375.016 263.015L375.061 262.567L375.348 260.025C376.542 258.964 377.328 257.439 377.373 255.734C377.418 254.374 376.98 253.103 376.24 252.071L376.542 249.32L376.572 249.006L377.343 242.129L381.377 242.562L382.057 236.507L379.972 236.283L380.168 234.982L378.325 234.713C380.168 234.25 381.951 233.427 380.667 232.082C378.959 230.303 376.92 232.605 375.968 233.906L379.79 160.781C380.863 158.702 382.223 156.594 383.931 154.905C391.093 150.255 396.306 142.72 397.666 133.674C399.615 120.443 392.77 107.884 381.468 101.904ZM368.08 201.791L368.02 202.105L367.869 202.09L367.672 203.062L367.778 201.402L368.231 201.432L368.246 201.806L368.08 201.791ZM366.599 206.531L365.859 206.276C366.191 204.109 366.252 202 366.252 202L366.025 201.986C366.04 201.806 366.055 201.612 366.055 201.612L365.647 201.582L365.738 200.819L367.007 200.894L366.66 206.546C366.63 206.546 366.615 206.546 366.599 206.531ZM360.691 230.333L360.797 232.157L360.087 232.052L360.691 230.333ZM366.282 212.272C366.222 211.614 366.176 210.986 366.176 210.463C366.237 210.493 366.312 210.523 366.388 210.552L366.282 212.272ZM367.189 197.874L366.992 197.859C366.947 197.739 366.871 197.65 366.72 197.59C366.343 197.44 365.904 197.351 365.527 197.366C366.025 196.439 364.363 194.944 362.55 194.495C362.55 194.495 362.535 194.495 362.52 194.495C361.961 194.361 361.386 194.331 360.858 194.45C360.661 194.495 360.495 194.54 360.359 194.585C360.344 194.585 360.344 194.585 360.329 194.6C359.301 194.959 358.259 195.9 358.092 198.188C357.745 202.718 344.01 208.205 354.028 210.896C354.345 210.986 354.693 211.061 355.055 211.15C354.904 214.245 355.025 217.295 355.025 217.295C355.886 217.37 356.793 217.31 357.654 217.176L357.639 217.863H357.926C357.82 218.013 357.715 218.177 357.609 218.357C356.068 220.869 354.451 225.713 353 230.975L340.338 229.107C342.182 228.643 343.965 227.821 342.68 226.475C340.927 224.636 338.812 227.118 337.905 228.419L348.286 185.659L355.524 190.174C356.717 190.922 358.168 191.131 359.543 190.772L367.793 188.545L367.189 197.874ZM345.551 161.379C345.566 161.917 345.566 162.41 345.566 162.844C345.566 164.145 346.533 165.266 347.848 165.46L352.608 166.163V166.178L347.893 165.475C346.715 165.296 345.551 166.013 345.249 167.15C345.052 167.897 345.264 168.63 345.717 169.168C345.838 169.318 345.974 169.437 346.11 169.542C346.307 169.676 346.276 169.975 346.05 170.05C345.884 170.11 345.717 170.185 345.566 170.289C345.022 170.633 344.629 171.186 344.524 171.874C344.463 172.308 344.524 172.726 344.69 173.1C344.781 173.309 344.901 173.489 345.037 173.668C345.158 173.818 345.294 173.937 345.445 174.057C345.642 174.192 345.596 174.491 345.37 174.565C345.204 174.625 345.037 174.7 344.886 174.805C344.342 175.148 343.949 175.702 343.844 176.389C343.753 177.032 343.934 177.66 344.327 178.139C344.463 178.303 344.599 178.438 344.781 178.557C344.977 178.692 344.932 178.991 344.705 179.066C344.554 179.125 344.403 179.185 344.252 179.275C343.693 179.619 343.27 180.187 343.164 180.875C343.073 181.488 343.239 182.086 343.587 182.564C343.934 183.028 344.448 183.357 345.068 183.461L344.569 183.386L347.515 185.225L337.059 228.284C336.122 226.685 334.596 225.219 334.596 225.219L336.984 228.628L329.368 227.507C331.212 227.043 332.995 226.221 331.71 224.875C330.154 223.246 328.326 225.01 327.283 226.341L345.053 156.101C345.385 158.03 345.506 159.869 345.551 161.379ZM375.106 234.011C374.185 232.381 372.583 230.841 372.583 230.841L374.97 234.25L368.156 233.248C369.999 232.785 371.782 231.962 370.498 230.617C369.138 229.196 367.566 230.362 366.509 231.559L366.479 222.274L366.735 218.103L367.279 218.118L367.31 217.026L366.796 217.011L367.174 210.866C367.355 210.926 367.551 210.986 367.748 211.046C370.468 211.838 370.452 202.255 370.452 202.255L370.316 202.24L370.332 201.926H370.241L370.301 201.567L372.628 201.701C373.157 201.731 373.626 200.879 373.701 199.803C373.762 198.726 373.399 197.814 372.87 197.784L370.679 197.65L370.06 197.62L368.005 197.5L368.564 188.365L371.918 187.468L371.435 187.393C372.674 187.558 373.837 186.706 374.018 185.48C374.079 185.046 374.018 184.627 373.852 184.254C373.762 184.029 373.626 183.82 373.459 183.641C373.354 183.521 373.233 183.401 373.097 183.312C372.9 183.177 372.946 182.878 373.172 182.803C373.369 182.729 373.55 182.639 373.731 182.534C374.245 182.19 374.608 181.637 374.713 180.994C374.819 180.322 374.608 179.664 374.185 179.185C374.064 179.051 373.928 178.931 373.792 178.811C373.595 178.677 373.641 178.378 373.867 178.303C374.049 178.243 374.215 178.154 374.381 178.049C374.91 177.705 375.303 177.152 375.409 176.479C375.469 176.046 375.409 175.627 375.242 175.253C375.152 175.044 375.031 174.849 374.88 174.67C374.759 174.535 374.623 174.401 374.487 174.296C374.29 174.162 374.351 173.863 374.577 173.788C374.759 173.728 374.925 173.653 375.076 173.549C375.665 173.175 376.088 172.517 376.119 171.755C376.179 170.573 375.273 169.557 374.094 169.377L369.38 168.675V168.66L374.139 169.362C375.454 169.557 376.723 168.779 377.101 167.523C377.479 166.268 378.068 164.563 378.869 162.754L375.106 234.011Z" fill="#C4D7F2"/>
<path opacity="0.2" d="M109.608 136.381C107.931 126.782 99.4692 119.486 89.3002 119.486C86.9279 119.486 84.6463 119.89 82.5158 120.622C79.4635 112.878 71.8632 107.391 62.9483 107.391C56.3905 107.391 50.543 110.366 46.6899 115.031C44.7558 114.492 42.716 114.193 40.6157 114.193C31.5799 114.193 23.8133 119.501 20.2927 127.141C19.7185 127.081 19.1292 127.051 18.5399 127.051C9.53435 127.051 2.23621 134.273 2.23621 143.183C2.23621 152.094 9.53435 159.315 18.5399 159.315C22.6347 159.315 26.382 157.805 29.2378 155.338C32.5771 157.297 36.4604 158.418 40.6157 158.418C44.1363 158.418 47.4454 157.611 50.407 156.191C53.1721 162.186 59.2917 166.357 66.3934 166.357C72.4978 166.357 77.877 163.277 81.0199 158.598C83.5584 159.704 86.3537 160.317 89.3002 160.317C93.7878 160.317 97.9431 158.897 101.328 156.475C103.262 157.97 105.679 158.867 108.324 158.867C114.609 158.867 119.717 153.828 119.717 147.594C119.717 141.778 115.289 137.009 109.608 136.381Z" fill="#003889"/>
<path d="M107.372 129.773C105.695 120.174 97.233 112.878 87.064 112.878C84.6917 112.878 82.4101 113.282 80.2795 114.014C77.2273 106.27 69.627 100.783 60.7121 100.783C54.1543 100.783 48.3067 103.758 44.4537 108.423C42.5196 107.884 40.4798 107.585 38.3795 107.585C29.3437 107.585 21.5771 112.893 18.0565 120.533C17.4823 120.473 16.893 120.443 16.3037 120.443C7.29814 120.443 0 127.665 0 136.56C0 145.471 7.29814 152.693 16.3037 152.693C20.3985 152.693 24.1458 151.183 27.0016 148.716C30.3409 150.674 34.2242 151.795 38.3795 151.795C41.9001 151.795 45.2092 150.988 48.1708 149.568C50.9359 155.563 57.0555 159.734 64.1572 159.734C70.2616 159.734 75.6408 156.655 78.7837 151.975C81.3222 153.081 84.1175 153.694 87.064 153.694C91.5516 153.694 95.7069 152.274 99.0915 149.852C101.026 151.347 103.443 152.244 106.087 152.244C112.373 152.244 117.48 147.206 117.48 140.971C117.48 135.17 113.053 130.401 107.372 129.773Z" fill="white"/>
<path d="M155.034 72.7987C158.574 69.2955 158.574 63.6157 155.034 60.1125C151.494 56.6093 145.753 56.6093 142.213 60.1125C138.672 63.6157 138.672 69.2955 142.213 72.7987C145.753 76.3019 151.494 76.3019 155.034 72.7987Z" fill="white"/>
<path d="M396.358 363.49C403.316 356.606 403.316 345.445 396.358 338.561C389.401 331.677 378.122 331.677 371.165 338.561C364.208 345.445 364.208 356.606 371.165 363.49C378.122 370.373 389.401 370.373 396.358 363.49Z" fill="#C4D7F2"/>
</svg>
