<svg width="77" height="44" viewBox="0 0 77 44" fill="none" xmlns="http://www.w3.org/2000/svg">
<path opacity="0.2" d="M70.4648 24.2958C69.4071 18.2407 64.0732 13.6357 57.6515 13.6357C56.1556 13.6357 54.7201 13.8899 53.3753 14.3534C51.4413 9.46442 46.6514 6.01074 41.0305 6.01074C36.8903 6.01074 33.2034 7.89457 30.7707 10.825C29.5468 10.4811 28.2625 10.3017 26.9328 10.3017C21.2363 10.3017 16.3255 13.6507 14.1044 18.4649C13.7417 18.4201 13.3791 18.4051 13.0014 18.4051C7.32 18.4051 2.71143 22.9652 2.71143 28.5867C2.71143 34.2083 7.32 38.7684 13.0014 38.7684C15.5852 38.7684 17.9423 37.8115 19.7555 36.2566C21.8558 37.4975 24.3037 38.2002 26.9328 38.2002C29.154 38.2002 31.2391 37.6919 33.1128 36.7948C34.8655 40.5774 38.7186 43.2088 43.1912 43.2088C47.0442 43.2088 50.4289 41.2652 52.4234 38.3049C54.0251 38.9926 55.7929 39.3814 57.6515 39.3814C60.4922 39.3814 63.1062 38.4843 65.2367 36.9593C66.4606 37.9012 67.9867 38.4693 69.6488 38.4693C73.6228 38.4693 76.8412 35.2848 76.8412 31.3676C76.8412 27.7046 74.0609 24.6845 70.4648 24.2958Z" fill="#003889"/>
<path d="M68.4855 18.9584C67.4278 12.9033 62.094 8.29835 55.6722 8.29835C54.1763 8.29835 52.7409 8.55251 51.3961 9.01599C49.462 4.12702 44.6721 0.67334 39.0512 0.67334C34.911 0.67334 31.2242 2.55716 28.7915 5.48756C27.5676 5.14369 26.2832 4.96427 24.9535 4.96427C19.2571 4.96427 14.3463 8.3133 12.1251 13.1275C11.7625 13.0827 11.3999 13.0677 11.0221 13.0677C5.34073 13.0677 0.732178 17.6278 0.732178 23.2493C0.732178 28.8709 5.34073 33.431 11.0221 33.431C13.6059 33.431 15.9631 32.4741 17.7763 30.9192C19.8766 32.1601 22.3244 32.8628 24.9535 32.8628C27.1747 32.8628 29.2599 32.3545 31.1336 31.4574C32.8863 35.24 36.7394 37.8714 41.2119 37.8714C45.065 37.8714 48.4496 35.9278 50.4441 32.9675C52.0458 33.6552 53.8137 34.044 55.6722 34.044C58.5129 34.044 61.1269 33.1469 63.2574 31.6219C64.4814 32.5638 66.0075 33.1319 67.6696 33.1319C71.6435 33.1319 74.8619 29.9474 74.8619 26.0302C74.8619 22.3672 72.0666 19.3621 68.4855 18.9584Z" fill="#ECF3FE"/>
</svg>
