<svg width="191" height="445" viewBox="0 0 191 445" fill="none" xmlns="http://www.w3.org/2000/svg">
<path opacity="0.2" d="M145.376 385.378L146.797 367.706L157.132 368.513L158.386 352.964L10.2171 341.317L8.96303 356.866L19.2983 357.674L17.8024 376.243C14.1609 377.364 10.9424 379.801 8.93279 383.345C5.63881 389.131 6.57563 396.128 10.746 400.867C11.8792 402.153 13.2392 403.259 14.8257 404.141C14.9919 404.231 15.1732 404.321 15.3394 404.411C15.3999 404.485 15.4603 404.545 15.5208 404.62L14.9919 411.303C13.8738 425.297 24.4206 437.542 38.5635 438.663L114.824 444.659C128.967 445.765 141.342 435.329 142.475 421.335L142.566 420.199L143.095 413.65C146.086 410.854 147.945 406.892 147.93 402.512C147.915 399.013 146.721 395.814 144.727 393.242L145.286 386.185L145.376 385.378Z" fill="#003889"/>
<path d="M115.262 348.18L114.99 346.147C115.217 346.117 115.443 346.087 115.685 346.057L114.371 345.354C114.552 345.011 118.979 336.952 124.207 336.174C126.036 335.905 127.713 336.518 129.194 337.984C130.841 339.613 130.825 341.034 130.508 341.931C129.828 343.919 127.063 345.534 122.092 346.835C118.632 347.747 115.398 348.165 115.262 348.18ZM125.023 338.163C124.857 338.163 124.691 338.178 124.509 338.208C121.215 338.686 117.74 343.635 116.41 345.937C121.442 345.13 127.834 343.336 128.544 341.258C128.604 341.063 128.801 340.495 127.728 339.419C126.882 338.582 125.99 338.163 125.023 338.163Z" fill="#36588E"/>
<path d="M115.957 348.075C115.519 348.075 115.111 347.791 114.975 347.358C113.464 342.618 107.163 336.892 107.103 336.832C106.679 336.443 106.649 335.801 107.042 335.382C107.435 334.963 108.085 334.933 108.508 335.322C108.78 335.576 115.292 341.482 116.969 346.745C117.136 347.283 116.833 347.866 116.289 348.03C116.169 348.06 116.063 348.075 115.957 348.075Z" fill="#ACC6E5"/>
<path d="M118.471 220.644L114.472 349.143L116.541 349.206L120.54 220.707L118.471 220.644Z" fill="#36588E"/>
<path opacity="0.2" d="M125.476 254.482L119.825 254.318L112.587 254.094C111.998 254.079 111.469 254.482 111.061 255.185L110.396 255.17C110.26 254.871 110.034 254.647 109.656 254.497C108.644 254.123 107.541 253.959 106.574 254.019C107.646 251.597 103.098 247.904 98.3688 246.917C98.3688 246.917 98.3385 246.917 98.2932 246.902C96.8275 246.603 95.3619 246.573 94.0322 246.917C93.5336 247.052 93.1256 247.171 92.7781 247.321C92.7781 247.321 92.7781 247.321 92.763 247.321C92.7478 247.336 92.7176 247.336 92.7025 247.351C90.1338 248.352 87.686 250.834 87.7162 256.71C87.7918 268.342 53.8244 283.412 79.9496 289.542C80.7807 289.737 81.6722 289.931 82.6392 290.096C82.9112 298.02 83.8329 305.824 83.8329 305.824C86.039 305.959 88.3659 305.719 90.5267 305.331L90.6324 307.095H91.3577C91.116 307.498 90.8742 307.917 90.6324 308.381C82.7299 323.481 76.4441 370.532 74.2229 389.011L71.896 388.279C71.896 388.279 70.5361 410.062 71.0045 412.066C71.4729 414.069 88.2148 418.51 88.2148 418.51C88.8797 415.908 83.2587 410.855 83.2587 410.855L83.9236 407.117L85.5404 407.894C85.5555 407.894 85.5555 407.909 85.5706 407.909C85.7066 407.969 85.8728 407.909 85.9332 407.775C85.9937 407.625 85.9332 407.461 85.7821 407.386L84.0445 406.549L84.6791 403.035L86.3865 403.484C86.5376 403.529 86.7038 403.439 86.7341 403.275C86.7643 403.125 86.6736 402.961 86.5074 402.916L84.7697 402.467L85.2684 399.716C86.2203 400.075 87.0363 400.374 87.0363 400.374L87.2176 399.836C87.2176 399.836 86.3563 399.522 85.3741 399.148L85.9483 395.963L88.094 396.038C88.2602 396.038 88.381 395.919 88.381 395.754C88.381 395.59 88.2451 395.455 88.0788 395.455L86.039 395.395L86.2354 394.289L101.058 338.776L105.032 367.003L108.946 394.752L107.314 394.708C107.314 394.708 112.149 416.312 113.161 418.136C114.174 419.96 131.263 419.676 131.263 419.676C131.173 416.955 124.418 413.576 124.418 413.576L123.995 409.748L125.733 410.062C125.748 410.062 125.748 410.062 125.763 410.062C125.914 410.077 126.05 409.973 126.065 409.823C126.081 409.659 125.975 409.509 125.809 409.479L123.92 409.135L123.527 405.547L125.265 405.517C125.431 405.517 125.552 405.383 125.537 405.218C125.521 405.054 125.385 404.934 125.219 404.934L123.451 404.964L123.149 402.138C124.162 402.228 125.008 402.303 125.008 402.303L125.023 401.72C125.023 401.72 124.116 401.645 123.074 401.555L122.711 398.296L124.766 397.773C124.917 397.728 125.008 397.578 124.962 397.414C124.917 397.264 124.751 397.16 124.6 397.204L122.651 397.698L122.379 395.156L120.641 395.096L113.252 306.99L115.352 306.975L115.201 304.179L113.766 304.194C113.66 300.8 111.288 292.443 110.94 287.509C112.013 287.943 113.373 288.406 115.111 288.84C122.227 290.664 120.188 266.144 120.188 266.144L119.84 266.129L119.825 265.322H119.583L119.674 264.38L120.006 264.395L125.657 264.559C127.002 264.604 128.045 262.376 128 259.61C127.954 256.8 126.821 254.527 125.476 254.482ZM114.431 265.142L114.023 265.127L113.947 265.935L113.539 265.92L112.119 277.073C112.028 277.492 111.514 277.656 111.182 277.372L109.248 276.789C109.656 271.227 109.354 265.8 109.354 265.8L108.78 265.785C108.764 265.337 108.764 264.843 108.764 264.843L107.737 264.813L107.813 262.87L111.227 262.974C111.666 263.692 112.21 264.141 112.799 264.156L114.325 264.2L114.431 265.142Z" fill="#003889"/>
<path d="M105.199 286.806C102.192 290.051 97.1902 291.68 89.2423 290.409C87.5651 290.14 86.0692 289.841 84.7244 289.527C58.9014 283.397 93.6243 268.312 94.138 256.695C94.682 244.465 105.274 246.902 105.274 246.902C105.274 246.902 115.065 276.161 105.199 286.806Z" fill="#1F3A6F"/>
<path d="M105.199 286.806C102.192 290.051 97.1904 291.68 89.2425 290.409C87.5653 290.14 86.0694 289.841 84.7246 289.527C84.7095 282.246 89.3483 275.174 89.3483 275.174L103.597 283.188C103.612 283.188 104.322 284.803 105.199 286.806Z" fill="#072542"/>
<path d="M124.796 254.258C123.452 254.213 122.288 256.441 122.213 259.207C122.122 261.988 123.149 264.26 124.494 264.305L131.717 264.529L132.034 254.482L124.796 254.258Z" fill="#3B82F4"/>
<path d="M125.401 266.637L126.277 260.597L120.067 260.403L120.566 266.787L125.401 266.637Z" fill="#F3BA9F"/>
<path d="M97.7344 274.935L99.3511 262.616C99.3511 262.616 97.8099 261.076 98.0517 259.401C98.2934 257.712 100.152 258.504 100.152 258.504L104.609 263.827L106.695 266.323V271.377V276.998L97.7344 274.935Z" fill="#F3BA9F"/>
<path d="M106.71 271.362C101.255 267.729 101.089 262.511 101.089 262.511L104.624 263.811L106.71 266.308V271.362Z" fill="#EFA37D"/>
<path d="M112.557 260.238C112.376 262.914 111.182 265.217 109.384 266.368C108.78 266.757 108.1 267.026 107.359 267.131C103.884 267.624 100.53 264.335 99.8798 259.79C99.2301 255.245 101.512 251.148 104.987 250.67C108.462 250.176 111.817 253.465 112.466 258.011C112.572 258.758 112.602 259.521 112.557 260.238Z" fill="#F3BA9F"/>
<path d="M101.24 251.118C101.24 251.118 106.166 257.936 111.696 255.289C117.226 252.643 107.556 245.212 100.938 246.902C94.3194 248.591 101.24 251.118 101.24 251.118Z" fill="#1F3A6F"/>
<path d="M104.171 252.344C104.171 252.344 102.464 256.485 99.7742 258.13C99.5174 258.295 99.1698 257.831 98.8979 257.951C98.6863 258.04 98.4748 258.115 98.2632 258.175C94.803 259.177 101.285 249.967 101.285 249.967C101.285 249.967 103.597 249.967 104.171 252.344Z" fill="#1F3A6F"/>
<path d="M119.885 266.144L120.037 265.127L125.839 265.307L125.794 266.787L119.885 266.144Z" fill="white"/>
<path d="M119.508 265.919L126.156 266.114C126.156 266.114 126.972 290.633 119.946 288.809C112.92 286.985 112.165 284.982 112.165 284.982L112.134 276.011L116.577 277.372C116.909 277.656 117.423 277.506 117.529 277.073L119.508 265.919Z" fill="#E59D29"/>
<path d="M120.142 395.485L108.447 395.126L105.894 366.958L102.086 324.752L100.318 305.226L117.09 304.224L120.142 395.485Z" fill="#15315E"/>
<path d="M110.094 311.879L105.894 366.958L102.086 324.752L110.094 311.879Z" fill="#072542"/>
<path d="M106.679 328.206L84.5584 397.892L72.7122 396.561C72.7122 396.561 83.5612 327.308 94.4404 308.366C94.7124 307.902 94.9692 307.483 95.2261 307.08C95.6794 306.377 96.1478 305.779 96.6011 305.286L99.4871 305.375L102.222 305.45L109.656 305.674C109.656 305.674 109.732 305.899 109.822 306.377C109.853 306.542 109.883 306.751 109.928 306.99C110.306 309.681 110.563 316.499 106.679 328.206Z" fill="#1F3A6F"/>
<path d="M71.6846 388.278L86.0391 392.868L81.9141 410.854C81.9141 410.854 87.2781 415.908 86.4773 418.509C86.4773 418.509 69.962 414.069 69.5843 412.065C69.2217 410.062 71.6846 388.278 71.6846 388.278Z" fill="white"/>
<path d="M82.035 395.8C81.9293 395.755 81.8386 395.65 81.8537 395.515C81.8537 395.351 81.9897 395.231 82.1559 395.231L87.5049 395.411C87.6711 395.411 87.792 395.545 87.792 395.71C87.792 395.874 87.656 395.994 87.4897 395.994L82.1408 395.815C82.1106 395.83 82.0653 395.815 82.035 395.8Z" fill="#444444"/>
<path d="M81.4608 398.535C81.3097 398.475 81.2341 398.311 81.2945 398.161C81.355 398.012 81.5212 397.937 81.6723 397.997C81.9443 398.101 86.4168 399.806 86.4168 399.806L86.2053 400.345C86.2204 400.36 81.7478 398.64 81.4608 398.535Z" fill="#444444"/>
<path d="M80.8564 402.258C80.7204 402.198 80.6449 402.063 80.6751 401.914C80.7204 401.764 80.8715 401.675 81.0377 401.704L85.5556 402.901C85.7067 402.946 85.7974 403.095 85.7671 403.26C85.7218 403.409 85.5707 403.499 85.4045 403.469L80.8866 402.273C80.8715 402.258 80.8715 402.258 80.8564 402.258Z" fill="#444444"/>
<path d="M84.3771 407.895C84.362 407.895 84.362 407.895 84.3469 407.88L80.7205 406.085C80.5694 406.011 80.5241 405.846 80.5845 405.697C80.66 405.547 80.8414 405.487 80.9774 405.562L84.6038 407.357C84.7549 407.431 84.8002 407.596 84.7398 407.745C84.6793 407.895 84.5131 407.955 84.3771 407.895Z" fill="#444444"/>
<path d="M106.785 394.663L121.865 395.126L122.953 413.531C122.953 413.531 129.526 416.91 129.496 419.631C129.496 419.631 112.391 419.915 111.469 418.091C110.548 416.267 106.785 394.663 106.785 394.663Z" fill="white"/>
<path d="M118.843 399.044C118.722 399.029 118.616 398.954 118.586 398.819C118.541 398.67 118.647 398.505 118.798 398.46L123.996 397.159C124.147 397.115 124.313 397.219 124.358 397.369C124.404 397.518 124.298 397.683 124.147 397.728L118.949 399.029C118.919 399.044 118.888 399.044 118.843 399.044Z" fill="#444444"/>
<path d="M119.07 401.84C118.903 401.825 118.783 401.69 118.798 401.525C118.813 401.361 118.949 401.241 119.115 401.256C119.402 401.286 124.177 401.69 124.177 401.69L124.132 402.274C124.132 402.274 119.357 401.855 119.07 401.84Z" fill="#444444"/>
<path d="M119.523 405.563C119.372 405.548 119.266 405.428 119.251 405.278C119.251 405.114 119.372 404.979 119.538 404.979L124.207 404.889C124.373 404.889 124.509 405.009 124.509 405.174C124.509 405.338 124.388 405.473 124.222 405.473L119.553 405.563C119.538 405.563 119.538 405.563 119.523 405.563Z" fill="#444444"/>
<path d="M124.479 410.017C124.464 410.017 124.464 410.017 124.449 410.017L120.46 409.284C120.294 409.255 120.188 409.105 120.218 408.941C120.248 408.776 120.399 408.671 120.566 408.701L124.555 409.434C124.721 409.464 124.827 409.613 124.796 409.778C124.766 409.942 124.63 410.032 124.479 410.017Z" fill="#444444"/>
<path d="M96.2686 274.038L97.0089 270.465L106.982 275.892L106.438 278.15L96.2686 274.038Z" fill="white"/>
<path d="M117.831 304.164C117.816 304.882 117.71 305.39 117.483 305.57C116.531 306.332 113.434 306.512 109.853 306.392C107.208 306.302 104.307 306.033 101.829 305.719C101.013 305.615 100.243 305.495 99.5324 305.39C97.4774 305.061 96.0268 304.703 95.8153 304.448C95.7851 304.418 95.77 304.374 95.7549 304.299C95.3922 303.178 95.498 296.853 95.6793 291.127C95.8455 285.954 96.0722 281.244 96.0722 281.244L110.427 279.106C110.427 279.106 116.32 280.661 115.912 286.118C115.534 290.693 117.891 300.442 117.831 304.164Z" fill="white"/>
<path d="M112.557 260.238C112.376 262.915 111.258 263.782 109.46 264.948C107.767 263.916 107.51 259.192 107.51 259.192L112.557 260.238Z" fill="#EFA37D"/>
<path d="M119.281 306.96L109.928 307.005L99.0186 307.065L95.2411 307.094H94.5158L94.5007 304.299H95.7246L104.111 304.254L117.831 304.164H119.266L119.281 306.96Z" fill="#C4D7F2"/>
<path d="M109.943 254.946C108.674 254.901 107.586 256.62 107.51 258.773C107.45 260.926 108.417 262.69 109.701 262.735L120.369 263.064L120.611 255.29L109.943 254.946Z" fill="#2176DB"/>
<path d="M119.145 254.093C117.8 254.049 116.637 256.276 116.561 259.042C116.471 261.823 117.498 264.096 118.843 264.14L126.066 264.365L126.383 254.318L119.145 254.093Z" fill="#3B82F4"/>
<path d="M128.649 259.416C128.559 262.197 127.41 264.41 126.066 264.365C125.854 264.365 125.658 264.305 125.476 264.2C124.434 263.617 123.708 261.629 123.784 259.267C123.86 256.919 124.706 254.961 125.778 254.452C125.975 254.363 126.171 254.318 126.383 254.318C127.728 254.348 128.74 256.635 128.649 259.416Z" fill="#1067BF"/>
<path d="M127.471 259.371C127.395 261.718 126.549 263.677 125.476 264.185C124.434 263.602 123.708 261.613 123.784 259.251C123.86 256.904 124.706 254.945 125.778 254.437C126.821 255.02 127.546 257.024 127.471 259.371Z" fill="white"/>
<path d="M134.301 259.58C134.21 262.361 133.061 264.574 131.717 264.529C131.505 264.529 131.309 264.469 131.127 264.365C130.085 263.781 129.36 261.793 129.435 259.431C129.511 257.083 130.357 255.125 131.43 254.616C131.626 254.527 131.822 254.482 132.034 254.482C133.364 254.527 134.376 256.799 134.301 259.58Z" fill="#1067BF"/>
<path d="M133.107 259.551C133.031 261.898 132.185 263.856 131.112 264.365C130.07 263.782 129.344 261.793 129.42 259.431C129.495 257.084 130.342 255.125 131.414 254.617C132.457 255.185 133.182 257.188 133.107 259.551Z" fill="white"/>
<path d="M113.615 266.338L113.978 262.301C113.978 262.301 114.93 262.032 115.111 260.866C115.277 259.685 118.48 255.349 116.199 254.512C113.917 253.66 111.046 253.854 110.684 255.529C110.321 257.203 109.989 258.863 110.034 260.717C110.079 262.571 109.218 265.396 108.946 265.949C108.689 266.488 113.615 266.338 113.615 266.338Z" fill="#F3BA9F"/>
<path opacity="0.22" d="M104.639 303.85C104.639 303.85 104.458 304 104.111 304.254C103.703 304.553 103.053 304.986 102.237 305.48C102.101 305.555 101.95 305.644 101.799 305.734C100.998 306.182 100.061 306.661 99.0186 307.08C97.6587 307.648 96.1023 308.126 94.4553 308.395C94.7273 307.932 94.9842 307.513 95.2411 307.109H94.5158L94.5007 304.314H95.7246C95.3619 303.192 95.4677 296.868 95.649 291.142L104.534 289.976L104.639 303.85Z" fill="#1F3A6F"/>
<path d="M114.733 266.444C114.733 266.414 114.779 264.828 114.779 264.828L108.84 264.649L108.523 266.429L114.733 266.444Z" fill="white"/>
<path d="M108.689 288.526L104.594 287.733C104.594 287.733 104.307 291.172 103.99 294.775C103.642 298.722 103.249 302.864 103.129 302.909C102.902 303.013 94.682 306.258 87.7918 305.824C87.7918 305.824 86.0693 280.587 89.5748 274.786C89.7864 274.442 90.0885 274.143 90.4512 273.948C91.4787 273.41 94.0172 272.663 98.7617 274.621C105.244 277.282 105.743 277.626 105.743 277.626L108.236 265.591L115.322 265.8C115.322 265.8 115.458 290.125 108.689 288.526Z" fill="#F4B545"/>
<path d="M102.721 300.008C102.479 300.262 102.086 300.262 101.844 300.023C101.587 299.784 101.587 299.395 101.829 299.156C102.071 298.902 102.464 298.902 102.706 299.141C102.947 299.365 102.962 299.754 102.721 300.008Z" fill="white"/>
<path d="M104.609 287.733C104.609 287.733 104.322 291.172 104.005 294.775C100.378 291.501 99.1697 286.328 99.1697 286.328L104.609 287.733Z" fill="#E59D29"/>
<path d="M102.912 290.88C103.246 290.806 103.457 290.478 103.382 290.148C103.308 289.818 102.976 289.61 102.642 289.683C102.309 289.757 102.098 290.085 102.173 290.415C102.247 290.746 102.579 290.954 102.912 290.88Z" fill="white"/>
<path d="M102.751 295.632C103.087 295.565 103.304 295.243 103.237 294.911C103.17 294.579 102.844 294.363 102.509 294.43C102.173 294.496 101.955 294.819 102.022 295.151C102.089 295.483 102.416 295.698 102.751 295.632Z" fill="white"/>
<path d="M141.266 363.505L139.151 381.102L139.06 381.924L138.154 389.475L137.156 397.832L137.066 398.655L135.011 415.818L134.875 416.955C133.198 430.904 120.43 440.861 106.332 439.202L30.3587 430.276C16.2611 428.616 6.19778 415.983 7.875 402.033L14.2817 348.599L141.266 363.505Z" fill="#3B82F4"/>
<path d="M67.2271 392.255C67.212 392.255 67.1969 392.255 67.1818 392.255L19.4795 386.619C19.2528 386.589 19.0866 386.395 19.1168 386.155L21.1416 369.44C21.1567 369.336 21.2171 369.231 21.2927 369.171C21.3833 369.096 21.4891 369.066 21.5949 369.081L69.2972 374.718C69.5239 374.748 69.6901 374.942 69.6599 375.181L67.6351 391.897C67.62 392.001 67.5596 392.106 67.484 392.166C67.4085 392.211 67.3178 392.255 67.2271 392.255ZM19.9781 385.841L66.8645 391.388L68.7835 375.495L21.8971 369.949L19.9781 385.841Z" fill="#ACC6E5"/>
<path d="M88.8194 411.946C88.8043 411.946 88.7892 411.946 88.7741 411.946L41.0717 406.309C40.966 406.295 40.8602 406.235 40.7998 406.16C40.7242 406.07 40.694 405.966 40.7091 405.861L42.7338 389.146C42.749 389.041 42.8094 388.936 42.8849 388.877C42.9756 388.802 43.0814 388.772 43.1871 388.787L90.8895 394.423C91.1161 394.453 91.2823 394.648 91.2521 394.887L89.2274 411.602C89.2123 411.782 89.031 411.946 88.8194 411.946ZM41.5855 405.532L88.4719 411.079L90.3908 395.186L43.5045 389.639L41.5855 405.532Z" fill="#ACC6E5"/>
<path d="M139.06 381.924L139.151 381.102L106.679 377.26C106.574 377.245 106.453 377.275 106.377 377.349C106.286 377.409 106.241 377.514 106.226 377.618L104.201 394.334C104.171 394.558 104.337 394.767 104.564 394.797L137.05 398.64L137.141 397.817L105.078 394.02L106.997 378.127L139.06 381.924Z" fill="#ACC6E5"/>
<path d="M68.1917 214.564L41.6987 340.428L43.7253 340.845L70.2183 214.982L68.1917 214.564Z" fill="#36588E"/>
<path d="M43.6857 339.777L43.4137 337.744C43.6404 337.714 43.867 337.684 44.1088 337.654L42.7942 336.952C42.9755 336.608 47.4028 328.549 52.6308 327.772C54.4591 327.503 56.1364 328.115 57.6171 329.581C59.2641 331.21 59.249 332.631 58.9317 333.528C58.2518 335.516 55.4866 337.131 50.5154 338.432C47.0552 339.344 43.8217 339.762 43.6857 339.777ZM53.4468 329.76C53.2805 329.76 53.1144 329.775 52.933 329.805C49.639 330.283 46.1637 335.232 44.834 337.535C49.8657 336.727 56.2572 334.933 56.9674 332.855C57.0278 332.661 57.2243 332.092 56.1515 331.016C55.3053 330.179 54.4138 329.76 53.4468 329.76Z" fill="#36588E"/>
<path d="M44.3808 339.673C43.9426 339.673 43.5347 339.389 43.3987 338.955C41.8877 334.216 35.5868 328.49 35.5264 328.43C35.1033 328.041 35.073 327.398 35.4659 326.98C35.8588 326.561 36.5085 326.531 36.9316 326.92C37.2036 327.174 43.716 333.08 45.3932 338.342C45.5594 338.881 45.2572 339.464 44.7133 339.628C44.5924 339.658 44.4866 339.673 44.3808 339.673Z" fill="#36588E"/>
<path d="M15.5812 336.488L15.3092 334.455C15.5359 334.425 15.7625 334.395 16.0043 334.365L14.6897 333.662C14.871 333.319 19.2983 325.26 24.5263 324.483C26.3547 324.213 28.0319 324.826 29.5126 326.292C31.1596 327.921 31.1445 329.342 30.8272 330.239C30.1473 332.227 27.3821 333.842 22.4109 335.143C18.9507 336.04 15.7172 336.458 15.5812 336.488ZM25.3423 326.471C25.1761 326.471 25.0099 326.486 24.8285 326.516C21.5346 326.994 18.0592 331.943 16.7296 334.246C21.7612 333.438 28.1527 331.644 28.8629 329.566C28.9233 329.372 29.1198 328.803 28.047 327.727C27.2008 326.89 26.3093 326.471 25.3423 326.471Z" fill="#36588E"/>
<path d="M16.2761 336.369C15.8379 336.369 15.4299 336.085 15.2939 335.651C13.7829 330.912 7.48206 325.185 7.42162 325.126C6.99854 324.737 6.96831 324.094 7.36117 323.675C7.75403 323.257 8.40378 323.227 8.82686 323.616C9.09884 323.87 15.6113 329.775 17.2885 335.038C17.4547 335.576 17.1525 336.159 16.6085 336.324C16.4876 336.354 16.3819 336.369 16.2761 336.369Z" fill="#36588E"/>
<path d="M141.297 351.245L141.025 349.212C141.251 349.182 141.478 349.152 141.72 349.122L140.405 348.419C140.586 348.075 145.014 340.017 150.242 339.239C152.07 338.97 153.747 339.583 155.228 341.048C156.875 342.678 156.86 344.098 156.543 344.996C155.863 346.984 153.097 348.599 148.126 349.899C144.666 350.797 141.433 351.215 141.297 351.245ZM151.058 341.228C150.891 341.228 150.725 341.243 150.559 341.273C147.265 341.751 143.79 346.7 142.46 349.002C147.492 348.195 153.883 346.401 154.593 344.323C154.654 344.128 154.85 343.56 153.777 342.484C152.901 341.647 152.01 341.228 151.058 341.228Z" fill="#36588E"/>
<path d="M141.992 351.125C141.553 351.125 141.146 350.841 141.01 350.408C139.499 345.668 133.198 339.942 133.137 339.882C132.714 339.494 132.684 338.851 133.077 338.432C133.47 338.013 134.119 337.983 134.542 338.357C134.814 338.611 141.327 344.517 143.004 349.78C143.17 350.318 142.868 350.901 142.324 351.066C142.203 351.11 142.097 351.125 141.992 351.125Z" fill="#36588E"/>
<path d="M144.917 143.181L140.354 355.637L142.424 355.681L146.987 143.225L144.917 143.181Z" fill="#36588E"/>
<path d="M59.1591 132.924L13.3726 340.535L15.395 340.972L61.1816 133.361L59.1591 132.924Z" fill="#36588E"/>
<path d="M190.238 88.6457C187.457 111.894 174.72 131.585 156.754 144.039C147.476 153.862 142.475 168.693 140.314 176.692C139.453 179.907 136.265 182.015 132.88 181.611L65.4139 173.687C62.0292 173.283 59.4454 170.502 59.3547 167.183C59.3245 166.062 59.2792 164.806 59.1885 163.431C58.6748 154.744 56.8767 141.737 51.0895 131.63C36.5688 115.363 28.8476 93.2655 31.6278 70.0167C36.8257 26.6888 76.5348 -4.27474 120.324 0.868406C129.662 1.95983 138.425 4.60615 146.388 8.52331C175.823 22.966 194.333 54.5574 190.238 88.6457Z" fill="#E59D29"/>
<path d="M172.076 76.3708C171.683 79.6002 171.109 82.7549 170.338 85.8497C167.044 101.773 156.059 113.315 144.228 123.257C142.702 124.827 141.206 126.412 139.755 128.041C136.854 131.301 134.119 134.68 131.445 138.148C129.843 140.241 128.287 142.35 126.73 144.488C118.752 159.797 101.633 166.346 84.6792 165.583C82.3824 165.524 80.0706 165.374 77.7739 165.18C71.6694 165.015 65.1268 164.686 59.2037 163.46C58.6899 154.774 56.8918 141.766 51.1047 131.66C36.584 115.393 28.8627 93.2953 31.643 70.0465C36.8408 26.7186 76.55 -4.24495 120.339 0.898191C129.677 1.98961 138.441 4.63594 146.404 8.5531C164.883 25.1337 175.234 49.9972 172.076 76.3708Z" fill="#F4B545"/>
<path d="M134.059 92.1293C128.921 91.5313 124.101 93.8038 121.276 97.6612L119.311 93.9085L111.046 103.402L105.259 92.2639L97.6132 101.04C98.1874 93.7739 92.8536 87.3002 85.4799 86.433C77.9098 85.5509 71.0347 90.9033 70.1432 98.3938C69.3575 104.942 73.407 110.968 79.4963 112.971L76.8672 201.526L84.7999 201.765L87.4291 113.21C90.708 112.343 93.5487 110.295 95.3921 107.514L96.1325 108.934L104.398 99.4404L110.185 110.579L118.45 101.085L119.069 102.281C118.918 102.879 118.797 103.492 118.722 104.12C118.042 109.831 121.019 115.124 125.839 117.725L107.45 204.426L115.216 206.041L133.605 119.34C140.012 118.802 145.361 113.898 146.147 107.334C147.038 99.8141 141.629 93.0264 134.059 92.1293ZM82.8508 108.246C78.2422 107.708 74.9482 103.582 75.4922 99.0217C76.0361 94.4617 80.2216 91.2024 84.8151 91.7555C86.9456 92.0097 88.8041 93.0264 90.1187 94.5065C91.6448 96.2109 92.4456 98.5433 92.1585 100.98C92.1434 101.07 92.1434 101.145 92.1283 101.234C91.4635 105.645 87.3687 108.77 82.8508 108.246ZM131.429 113.943C128.226 113.569 125.657 111.461 124.57 108.665C124.101 107.454 123.905 106.109 124.071 104.718C124.116 104.314 124.192 103.926 124.298 103.537C125.355 99.6048 129.193 96.9585 133.394 97.4369C138.002 97.9752 141.296 102.117 140.737 106.662C140.224 111.237 136.038 114.481 131.429 113.943Z" fill="white"/>
<path d="M131.399 217.344C131.747 217.583 132.064 217.852 132.351 218.166C132.789 218.615 133.152 219.138 133.424 219.706C133.877 220.663 134.074 221.739 133.938 222.846C133.56 226.03 130.614 228.318 127.395 227.944L59.793 220.005C58.1762 219.811 56.8012 218.988 55.8643 217.822C54.9275 216.641 54.444 215.131 54.6404 213.531C54.852 211.752 55.8643 210.242 57.2847 209.345C57.6322 209.121 58.01 208.926 58.4179 208.777C58.977 208.568 59.0677 207.805 58.569 207.476C58.1309 207.177 57.738 206.833 57.3905 206.43C56.363 205.233 55.8341 203.634 56.0306 201.974C56.2421 200.24 57.2091 198.775 58.569 197.848C58.9468 197.594 59.3699 197.369 59.8081 197.205C60.3671 196.996 60.4578 196.233 59.9592 195.904C59.5512 195.635 59.1886 195.306 58.8712 194.947C58.4935 194.529 58.1762 194.05 57.9344 193.542C57.4811 192.585 57.2847 191.508 57.4207 190.402C57.6322 188.668 58.5993 187.203 59.9592 186.276C60.3369 186.007 60.76 185.797 61.1982 185.633C61.7724 185.423 61.8328 184.661 61.3342 184.317C60.9413 184.048 60.5938 183.749 60.2765 183.39C59.0677 182.059 58.4784 180.191 58.9166 178.262C59.5663 175.302 62.4976 173.403 65.5348 173.762L132.774 181.656C135.811 182.015 138.214 184.541 138.154 187.576C138.108 189.535 137.111 191.224 135.615 192.241C135.237 192.51 134.814 192.734 134.376 192.899C133.802 193.123 133.681 193.871 134.195 194.215C134.588 194.469 134.935 194.783 135.237 195.127C135.63 195.56 135.963 196.054 136.219 196.577C136.673 197.534 136.869 198.61 136.733 199.717C136.522 201.421 135.585 202.886 134.24 203.798C133.847 204.082 133.409 204.307 132.956 204.471C132.397 204.68 132.306 205.443 132.805 205.772C133.197 206.026 133.545 206.34 133.847 206.684C134.95 207.895 135.539 209.539 135.343 211.274C135.147 212.948 134.24 214.369 132.956 215.296C132.518 215.595 132.064 215.849 131.566 216.043C130.991 216.252 130.901 217.015 131.399 217.344Z" fill="white"/>
<path d="M58.4631 219.855L86.8851 236.421C89.9977 238.23 93.745 238.679 97.2052 237.632L128.755 228.108L58.4631 219.855Z" fill="#ACC6E5"/>
<path d="M134.18 194.214C134.573 194.469 134.92 194.782 135.222 195.126L59.9592 186.29C60.337 186.021 60.7601 185.812 61.1982 185.647C61.7724 185.438 61.8329 184.676 61.3342 184.332C60.9414 184.063 60.5938 183.764 60.2765 183.405L135.615 192.241C135.237 192.51 134.814 192.734 134.376 192.899C133.787 193.108 133.666 193.87 134.18 194.214Z" fill="#C4D7F2"/>
<path d="M132.79 205.787C133.182 206.041 133.53 206.355 133.832 206.699L58.5691 197.863C58.9468 197.609 59.3699 197.384 59.8081 197.22C60.3672 197.011 60.4579 196.248 59.9592 195.919C59.5513 195.65 59.1886 195.321 58.8713 194.962L134.225 203.813C133.832 204.097 133.394 204.322 132.941 204.486C132.382 204.695 132.291 205.443 132.79 205.787Z" fill="#C4D7F2"/>
<path d="M131.399 217.344C131.747 217.583 132.064 217.852 132.351 218.166L57.2847 209.36C57.6322 209.136 58.0099 208.941 58.4179 208.792C58.977 208.582 59.0677 207.82 58.569 207.491C58.1308 207.192 57.738 206.848 57.3904 206.444L132.941 215.31C132.502 215.609 132.049 215.863 131.55 216.058C130.991 216.252 130.901 217.015 131.399 217.344Z" fill="#C4D7F2"/>
<path d="M100.115 70.441C117.528 55.1487 123.139 33.2698 112.647 21.5733C102.155 9.87681 79.5341 12.7918 62.121 28.0842C44.7079 43.3765 39.097 65.2553 49.5887 76.9519C60.0804 88.6484 82.7017 85.7334 100.115 70.441Z" fill="#F7C959"/>
<path d="M64.9757 38.575C64.2807 38.5003 63.6158 38.1863 63.1021 37.648C61.9235 36.4221 61.9537 34.4784 63.1927 33.3123C63.7518 32.774 64.3411 32.2358 64.9304 31.7275C71.4881 25.9713 79.2547 21.785 86.7946 19.961C88.4567 19.5573 90.1339 20.574 90.5419 22.2186C90.9498 23.8632 89.9224 25.5228 88.2603 25.9265C81.6874 27.5113 74.8577 31.2042 69.0403 36.3174C68.5115 36.7809 67.9977 37.2593 67.484 37.7378C66.804 38.3956 65.8672 38.6797 64.9757 38.575Z" fill="white"/>
<path d="M54.6252 52.3745C54.2928 52.3297 53.9452 52.24 53.6279 52.0905C52.0867 51.3429 51.4521 49.504 52.2076 47.979C53.1746 46.0204 54.323 44.0618 55.6224 42.163C56.5895 40.7576 58.5084 40.3988 59.9288 41.3407C61.3491 42.2976 61.7118 44.1964 60.7598 45.6017C59.6266 47.2613 58.6293 48.9657 57.7832 50.6701C57.1788 51.8812 55.8944 52.5241 54.6252 52.3745Z" fill="white"/>
<path d="M153.424 349.213L5.82739 331.888L3.97089 347.372L151.568 364.698L153.424 349.213Z" fill="#3B82F4"/>
<path d="M58.131 368.992C53.9304 368.992 49.7299 368.423 45.6199 367.302C37.5814 365.104 32.7462 361.576 32.5347 361.426L33.7737 359.782L33.1542 360.604L33.7737 359.782C33.819 359.812 38.5636 363.265 46.2546 365.358C53.326 367.272 64.4168 368.394 77.1243 362.877L77.9554 364.76C72.0776 367.317 66.0487 368.737 60.0047 368.977C59.3852 368.992 58.7505 368.992 58.131 368.992Z" fill="#ACC6E5"/>
<path opacity="0.2" d="M83.9692 367.168C83.7879 366.943 83.531 366.779 83.2288 366.734L83.4857 366.764L78.0612 363.445C77.4719 363.086 76.7466 362.981 76.0666 363.161L69.932 364.865L70.1888 364.895C69.5693 364.805 68.9952 365.239 68.9045 365.852C68.8743 366.061 68.9045 366.27 68.9952 366.465C69.0405 366.569 69.116 366.674 69.1916 366.764C69.252 366.824 69.3125 366.883 69.3729 366.928C69.4636 366.988 69.4485 367.138 69.3427 367.182C69.252 367.212 69.1614 367.257 69.0707 367.317C68.8138 367.496 68.6325 367.766 68.5872 368.08C68.5419 368.408 68.6476 368.737 68.8592 368.977C68.9196 369.036 68.98 369.111 69.0556 369.156C69.1463 369.216 69.1312 369.365 69.0254 369.41C68.9347 369.44 68.8592 369.485 68.7685 369.53C68.5116 369.694 68.3152 369.978 68.2699 370.307C68.2397 370.517 68.2699 370.726 68.3605 370.92C68.4059 371.025 68.4663 371.115 68.5419 371.204C68.6023 371.279 68.6627 371.339 68.7383 371.384C68.8289 371.458 68.8138 371.593 68.693 371.638C68.6023 371.668 68.5267 371.713 68.4512 371.757C68.1641 371.952 67.9526 372.266 67.9374 372.655C67.9072 373.238 68.3605 373.746 68.9498 373.821H68.9196C68.2699 373.731 67.6504 374.12 67.469 374.748C67.0157 376.288 65.9883 379.128 64.1448 380.997C60.6242 383.33 58.0706 387.082 57.436 391.568C56.4992 398.146 59.9443 404.336 65.5652 407.251C67.0913 408.044 68.7685 408.582 70.5666 408.836C79.0131 410.017 86.825 404.201 88.0187 395.844C88.6533 391.358 87.2632 387.052 84.5283 383.853C83.4555 381.879 83.1684 379.353 83.1079 377.663C83.0928 377.394 83.0928 377.155 83.0928 376.945C83.0928 376.303 82.5942 375.749 81.9445 375.66L81.9293 375.645C82.5186 375.719 83.0928 375.376 83.2288 374.807C83.3195 374.434 83.2137 374.075 82.987 373.806C82.9266 373.731 82.8662 373.671 82.7906 373.626C82.6999 373.552 82.7151 373.417 82.8208 373.372C82.9115 373.342 82.987 373.297 83.0626 373.253C83.3346 373.088 83.5159 372.804 83.5763 372.46C83.6065 372.251 83.5763 372.042 83.4857 371.847C83.4403 371.743 83.3799 371.653 83.3044 371.578C83.2439 371.503 83.1684 371.444 83.0928 371.384C83.0021 371.324 83.0173 371.174 83.123 371.13C83.2137 371.1 83.2892 371.055 83.3648 371.01C83.6368 370.845 83.8181 370.561 83.8785 370.218C83.9239 369.889 83.8332 369.59 83.6368 369.35C83.5763 369.276 83.5008 369.201 83.4101 369.141C83.3195 369.081 83.3346 368.932 83.4403 368.887C83.5159 368.857 83.5914 368.827 83.667 368.782C83.939 368.618 84.1505 368.334 84.1958 367.99C84.226 367.691 84.1505 367.392 83.9692 367.168Z" fill="#003889"/>
<path opacity="0.2" d="M135.57 383.898C135.509 383.644 135.449 383.405 135.404 383.195C135.268 382.567 134.663 382.134 134.013 382.179H133.983C134.572 382.134 135.056 381.67 135.071 381.072C135.086 380.698 134.905 380.354 134.618 380.145C134.542 380.085 134.467 380.041 134.376 380.011C134.27 379.966 134.255 379.816 134.346 379.756C134.421 379.712 134.497 379.652 134.557 379.592C134.784 379.368 134.905 379.054 134.89 378.71C134.875 378.501 134.799 378.291 134.678 378.127C134.618 378.037 134.542 377.962 134.452 377.888C134.376 377.828 134.3 377.783 134.21 377.753C134.104 377.708 134.089 377.559 134.195 377.499C134.27 377.454 134.346 377.394 134.406 377.334C134.633 377.11 134.754 376.796 134.739 376.467C134.708 376.138 134.557 375.854 134.316 375.675C134.24 375.615 134.149 375.555 134.059 375.525C133.953 375.48 133.938 375.331 134.044 375.271C134.119 375.226 134.18 375.181 134.24 375.122C134.482 374.897 134.618 374.568 134.588 374.225C134.557 373.911 134.421 373.642 134.195 373.462C133.968 373.283 133.681 373.178 133.364 373.193L133.621 373.178L127.607 371.085C126.942 370.861 126.217 370.905 125.597 371.234L119.961 374.195L120.218 374.18C119.598 374.225 119.13 374.778 119.175 375.391C119.19 375.6 119.266 375.809 119.387 375.974C119.462 376.064 119.553 376.153 119.644 376.228C119.704 376.273 119.78 376.318 119.855 376.348C119.961 376.392 119.976 376.542 119.87 376.602C119.78 376.662 119.704 376.721 119.629 376.796C119.417 377.02 119.296 377.319 119.326 377.648C119.357 377.992 119.523 378.276 119.78 378.471C119.855 378.53 119.931 378.575 120.022 378.605C120.127 378.65 120.142 378.8 120.037 378.859C119.961 378.904 119.886 378.964 119.825 379.039C119.598 379.263 119.478 379.577 119.508 379.906C119.523 380.115 119.598 380.325 119.719 380.489C119.78 380.579 119.87 380.668 119.961 380.728C120.037 380.788 120.112 380.833 120.188 380.863C120.294 380.908 120.309 381.057 120.203 381.117C120.127 381.162 120.052 381.222 119.991 381.281C119.75 381.536 119.614 381.88 119.689 382.268C119.795 382.851 120.339 383.24 120.928 383.195L120.898 383.21C120.248 383.255 119.719 383.778 119.674 384.421C119.568 386.021 119.175 389.011 117.785 391.224C114.839 394.244 113.162 398.46 113.509 402.975C114.008 409.599 118.707 414.921 124.827 416.581C126.489 417.029 128.241 417.209 130.055 417.074C131.807 416.94 133.469 416.521 134.996 415.878L138.154 389.549C136.763 387.77 135.978 385.468 135.57 383.898Z" fill="#003889"/>
<path d="M106.06 378.142C100.59 378.142 95.3319 377.155 90.4211 375.226C81.9142 371.877 77.4567 366.869 77.2754 366.66L78.8468 365.314C78.8922 365.359 83.2136 370.203 91.2975 373.358C98.7316 376.258 110.971 378.291 127.078 371.459L127.894 373.343C120.49 376.482 113.222 378.097 106.302 378.142C106.226 378.142 106.136 378.142 106.06 378.142Z" fill="#ACC6E5"/>
<path opacity="0.2" d="M141.266 363.505L139.408 379.009C114.809 374.658 13.7981 352.531 13.7981 352.531L14.2665 348.599L141.266 363.505Z" fill="#003889"/>
<path d="M23.0305 359.558C18.8299 359.558 13.7227 358.661 10.9424 354.878C10.61 354.415 10.7158 353.772 11.1691 353.443C11.6375 353.114 12.2872 353.219 12.6197 353.667C16.9562 359.573 29.1651 356.867 29.286 356.852C29.8451 356.717 30.4042 357.076 30.525 357.614C30.661 358.167 30.2984 358.721 29.7544 358.84C29.5127 358.915 26.5964 359.558 23.0305 359.558Z" fill="#ACC6E5"/>
<path opacity="0.2" d="M37.6872 362.369C37.5663 362.1 37.3548 361.89 37.0677 361.771L37.3094 361.86L32.8066 357.39C32.308 356.897 31.628 356.642 30.933 356.672L24.5566 356.941L24.7983 357.031C24.209 356.807 23.5593 357.091 23.3327 357.674C23.2571 357.868 23.242 358.093 23.2722 358.287C23.2873 358.407 23.3327 358.526 23.3931 358.631C23.4384 358.706 23.4837 358.765 23.5291 358.825C23.6046 358.915 23.5442 359.049 23.4384 359.064C23.3326 359.079 23.242 359.094 23.1362 359.139C22.8491 359.244 22.6074 359.468 22.4865 359.782C22.3656 360.096 22.3958 360.44 22.5469 360.709C22.5923 360.784 22.6376 360.859 22.698 360.933C22.7736 361.023 22.7131 361.158 22.6074 361.173C22.5167 361.188 22.4261 361.202 22.3354 361.232C22.0332 361.337 21.7914 361.561 21.6706 361.875C21.595 362.07 21.5799 362.294 21.6101 362.488C21.6252 362.593 21.6705 362.712 21.7159 362.802C21.7612 362.877 21.8065 362.952 21.867 363.026C21.9425 363.116 21.8821 363.251 21.7612 363.266C21.6705 363.281 21.5799 363.296 21.4892 363.325C21.1568 363.445 20.8848 363.714 20.7791 364.073C20.6128 364.641 20.9453 365.224 21.4892 365.434H21.459C20.8395 365.194 20.1444 365.434 19.8271 366.002C19.0263 367.392 17.3642 369.934 15.143 371.324C11.1691 372.789 7.81466 375.869 6.15256 380.086C3.70473 386.275 5.62371 393.078 10.4136 397.189C11.713 398.311 13.224 399.223 14.9164 399.881C22.8642 402.946 31.8094 399.073 34.922 391.209C36.5841 386.993 36.2215 382.478 34.3025 378.74C33.7132 376.572 34.0154 374.045 34.3479 372.401C34.3932 372.147 34.4536 371.907 34.499 371.698C34.6501 371.07 34.3025 370.427 33.683 370.188L33.6679 370.173C34.2119 370.382 34.8616 370.173 35.1336 369.65C35.3149 369.306 35.2847 368.932 35.1336 368.618C35.0883 368.543 35.0429 368.469 34.9825 368.394C34.9069 368.304 34.9523 368.17 35.0731 368.155C35.1638 368.14 35.2545 368.125 35.33 368.095C35.6322 367.99 35.8891 367.766 36.01 367.452C36.0855 367.258 36.1006 367.033 36.0704 366.839C36.0553 366.734 36.01 366.63 35.9646 366.525C35.9193 366.435 35.874 366.361 35.8135 366.301C35.738 366.211 35.7984 366.076 35.9042 366.062C35.9948 366.047 36.0855 366.032 36.1611 366.002C36.4633 365.897 36.7201 365.673 36.841 365.359C36.9619 365.06 36.9317 364.731 36.8108 364.462C36.7655 364.372 36.705 364.282 36.6446 364.208C36.569 364.118 36.6295 363.983 36.7352 363.968C36.8108 363.953 36.9014 363.938 36.977 363.909C37.2792 363.804 37.5512 363.58 37.6721 363.251C37.8232 362.937 37.8081 362.638 37.6872 362.369Z" fill="#003889"/>
<path d="M137.005 377.947C132.049 377.947 127.728 375.137 127.486 374.987C127.002 374.673 126.881 374.03 127.199 373.567C127.516 373.088 128.166 372.969 128.634 373.283C128.71 373.328 135.827 377.932 141.478 374.793C141.976 374.509 142.611 374.688 142.883 375.181C143.17 375.675 142.989 376.303 142.49 376.572C140.692 377.589 138.803 377.947 137.005 377.947Z" fill="#ACC6E5"/>
<path d="M54.3686 385.587C55.7436 381.267 58.8865 377.992 62.7546 376.258C64.87 374.718 66.3659 372.087 67.0761 370.636C67.3632 370.053 68.0431 369.769 68.6626 369.964L81.1888 373.881C81.8235 374.075 82.2012 374.703 82.0954 375.331C82.0652 375.54 82.0199 375.78 81.9897 376.049C81.763 377.723 81.6421 380.25 82.3674 382.388C84.5281 386.006 85.193 390.476 83.8029 394.797C81.2342 402.841 72.5459 407.296 64.4167 404.755C62.6791 404.216 61.1076 403.394 59.7477 402.362C54.7161 398.595 52.3438 391.927 54.3686 385.587Z" fill="#E59D29"/>
<path d="M57.3756 388.578C57.572 387.98 57.7986 387.397 58.0555 386.843C59.2643 383.943 61.7726 382.134 64.3866 380.669C64.7341 380.429 65.0817 380.175 65.4141 379.921C66.0789 379.413 66.7287 378.86 67.3633 378.291C67.741 377.948 68.1188 377.604 68.4965 377.26C70.5666 374.628 74.0721 374 77.2604 374.763C77.6986 374.853 78.1216 374.972 78.5598 375.092C79.7082 375.346 80.9472 375.645 82.02 376.079C81.7934 377.753 81.6725 380.28 82.3978 382.418C84.5585 386.036 85.2233 390.506 83.8332 394.827C81.2645 402.871 72.5762 407.326 64.4471 404.785C62.7094 404.246 61.138 403.424 59.7781 402.392C56.8618 398.565 55.8192 393.467 57.3756 388.578Z" fill="#F4B545"/>
<path d="M65.1722 386.948C66.1241 387.247 67.1214 386.993 67.8013 386.35L68.0431 387.128L69.9621 385.618L70.6571 387.935L72.425 386.545C72.0473 387.905 72.833 389.325 74.1929 389.759C75.5981 390.193 77.094 389.43 77.5473 388.04C77.9402 386.829 77.3811 385.528 76.3083 384.93L80.0405 368.2L78.5446 367.871L74.8124 384.601C74.1627 384.646 73.5432 384.93 73.0899 385.393L72.9992 385.094L71.0802 386.604L70.3852 384.287L68.4662 385.797L68.3906 385.543C68.436 385.438 68.4813 385.319 68.5266 385.199C68.8591 384.137 68.4964 383.031 67.6805 382.358L74.344 366.54L72.9236 365.957L66.2601 381.775C65.0211 381.641 63.8274 382.388 63.4346 383.599C62.9964 385.02 63.767 386.5 65.1722 386.948ZM75.4923 385.722C76.3536 385.991 76.822 386.888 76.5501 387.741C76.2781 388.593 75.3715 389.056 74.5102 388.787C74.1173 388.668 73.8 388.398 73.6036 388.07C73.3769 387.696 73.3014 387.217 73.4525 386.769C73.4525 386.754 73.4676 386.739 73.4676 386.724C73.7547 385.902 74.6613 385.453 75.4923 385.722ZM66.4717 382.897C67.061 383.076 67.484 383.569 67.5747 384.137C67.62 384.392 67.6049 384.646 67.5294 384.9C67.4992 384.975 67.484 385.049 67.4387 385.109C67.0912 385.812 66.2601 386.186 65.4895 385.947C64.6282 385.677 64.1598 384.78 64.4318 383.928C64.7038 383.091 65.6104 382.627 66.4717 382.897Z" fill="white"/>
<path d="M84.2108 365.389L79.4209 361.217C78.8921 360.754 78.197 360.545 77.502 360.619L71.1558 361.292L84.2108 365.389Z" fill="#ACC6E5"/>
<path d="M68.723 367.332C68.7683 367.407 68.8287 367.482 68.8892 367.542C68.9798 367.631 68.9194 367.766 68.7985 367.781C68.7079 367.796 68.6172 367.826 68.5416 367.855C68.2243 367.99 67.9675 368.274 67.8919 368.648C67.771 369.216 68.1337 369.784 68.6927 369.964L72.6818 371.205C72.712 371.219 72.7422 371.234 72.7724 371.234L77.4112 372.685C77.4414 372.7 77.4717 372.7 77.5019 372.715L81.1736 373.866C81.7327 374.045 82.3673 373.791 82.594 373.253C82.7451 372.909 82.6997 372.52 82.5184 372.236C82.4731 372.161 82.4126 372.087 82.3522 372.027C82.2615 371.937 82.3069 371.803 82.4277 371.788C82.5184 371.773 82.6091 371.743 82.6846 371.713C82.9717 371.593 83.2135 371.339 83.3192 371.025C83.3797 370.816 83.3797 370.606 83.3343 370.412C83.3041 370.307 83.2588 370.203 83.2135 370.113C83.1681 370.038 83.1077 369.964 83.0473 369.889C82.9717 369.814 83.017 369.665 83.1228 369.65C83.2135 369.635 83.3041 369.605 83.3797 369.575C83.6668 369.455 83.9085 369.201 84.0143 368.887C84.1201 368.573 84.0747 368.259 83.9236 367.99C83.8783 367.9 83.8179 367.826 83.7423 367.751C83.6668 367.676 83.7121 367.527 83.8179 367.512C83.8934 367.497 83.9841 367.482 84.0596 367.437C84.3618 367.317 84.6036 367.063 84.7094 366.734C84.8 366.435 84.7698 366.136 84.6338 365.882C84.4978 365.628 84.2712 365.418 83.969 365.329L71.4125 361.397C70.8232 361.217 70.1735 361.546 69.9771 362.129C69.9166 362.339 69.9166 362.548 69.962 362.742C69.9922 362.862 70.0375 362.966 70.1131 363.071C70.1584 363.146 70.2037 363.206 70.2642 363.266C70.3397 363.34 70.2944 363.49 70.1886 363.505C70.0829 363.52 69.9922 363.55 69.9015 363.594C69.6296 363.729 69.4029 363.968 69.2971 364.267C69.1914 364.596 69.2518 364.925 69.418 365.194C69.4634 365.269 69.5238 365.344 69.5842 365.404C69.6598 365.478 69.6144 365.628 69.5087 365.643C69.418 365.658 69.3273 365.688 69.2367 365.732C68.9496 365.852 68.723 366.106 68.6172 366.42C68.5567 366.63 68.5567 366.839 68.6021 367.033C68.6172 367.138 68.6625 367.242 68.723 367.332Z" fill="white"/>
<path d="M2.90376 373.85C5.30625 369.993 9.14419 367.556 13.3297 366.808C15.7624 365.822 17.8627 363.624 18.8902 362.398C19.3132 361.905 20.0385 361.785 20.5976 362.129L31.7941 368.932C32.3532 369.275 32.5798 369.963 32.323 370.561C32.2323 370.756 32.1416 370.98 32.051 371.234C31.4315 372.804 30.676 375.226 30.8573 377.469C32.0661 381.49 31.6128 385.991 29.2254 389.848C24.7529 397.039 15.2487 399.282 7.98073 394.871C6.4244 393.93 5.10982 392.763 4.03701 391.433C0.0630721 386.544 -0.601769 379.517 2.90376 373.85Z" fill="#E59D29"/>
<path d="M5.09458 377.469C5.427 376.931 5.78964 376.422 6.1825 375.944C8.07126 373.417 10.9422 372.266 13.8282 371.474C14.221 371.324 14.6139 371.16 15.0068 370.995C15.7774 370.651 16.548 370.277 17.2884 369.889C17.7417 369.65 18.195 369.41 18.6332 369.156C21.2925 367.108 24.8283 367.332 27.7445 368.827C28.1374 369.022 28.5302 369.231 28.9231 369.455C29.9808 369.978 31.0989 370.562 32.0357 371.249C31.4162 372.819 30.6607 375.241 30.8421 377.484C32.0509 381.506 31.5976 386.006 29.2102 389.863C24.7376 397.055 15.2334 399.297 7.96548 394.887C6.40914 393.945 5.09458 392.779 4.02176 391.448C2.14812 387.038 2.37478 381.85 5.09458 377.469Z" fill="#F4B545"/>
<path d="M13.0578 377.753C13.904 378.276 14.9466 378.261 15.7625 377.813L15.7927 378.635L18.029 377.633L18.1348 380.056L20.2048 379.129C19.5098 380.355 19.9178 381.924 21.1417 382.672C22.3958 383.434 24.0428 383.046 24.8134 381.805C25.4933 380.713 25.2667 379.338 24.3601 378.501L32.0813 363.161L30.7063 362.488L22.9851 377.828C22.3353 377.723 21.6705 377.843 21.1114 378.187L21.0963 377.873L18.8601 378.874L18.7543 376.452L16.518 377.454L16.5029 377.2C16.5784 377.11 16.654 377.006 16.7144 376.901C17.3037 375.959 17.213 374.778 16.5784 373.941L26.9137 360.201L25.6747 359.289L15.3394 373.029C14.1759 372.61 12.8311 373.043 12.1512 374.135C11.4108 375.361 11.8037 376.991 13.0578 377.753ZM23.3779 379.039C24.1485 379.502 24.3752 380.489 23.9068 381.252C23.4384 382.014 22.4411 382.238 21.6705 381.775C21.323 381.566 21.0812 381.237 20.9603 380.863C20.8395 380.444 20.8848 379.966 21.1266 379.562C21.1417 379.547 21.1417 379.532 21.1568 379.517C21.6403 378.8 22.6224 378.575 23.3779 379.039ZM15.3092 374.135C15.838 374.464 16.1251 375.032 16.0798 375.615C16.0647 375.869 15.9891 376.123 15.838 376.348C15.7927 376.407 15.7474 376.482 15.7021 376.542C15.1883 377.14 14.2968 377.305 13.6018 376.886C12.8311 376.422 12.6045 375.436 13.0729 374.673C13.5413 373.911 14.5386 373.671 15.3092 374.135Z" fill="white"/>
<path d="M36.8107 361.397L33.1843 356.209C32.7914 355.641 32.1719 355.267 31.4769 355.162L25.1609 354.295L36.8107 361.397Z" fill="#ACC6E5"/>
<path d="M21.2928 359.572C21.323 359.662 21.3532 359.737 21.3985 359.812C21.459 359.916 21.3834 360.036 21.2625 360.021C21.1719 360.021 21.0812 360.021 20.9906 360.036C20.643 360.096 20.3257 360.305 20.1595 360.649C19.9027 361.172 20.1142 361.815 20.6128 362.114L24.1788 364.282C24.209 364.297 24.2241 364.312 24.2543 364.342L28.4096 366.869C28.4398 366.883 28.47 366.898 28.5002 366.913L31.7791 368.902C32.2778 369.201 32.9577 369.111 33.3052 368.648C33.5319 368.349 33.5923 367.975 33.4866 367.631C33.4563 367.541 33.4261 367.467 33.3808 367.377C33.3204 367.272 33.3959 367.153 33.5168 367.153C33.6074 367.153 33.6981 367.153 33.7888 367.138C34.1061 367.093 34.3932 366.898 34.5745 366.614C34.6954 366.435 34.7407 366.226 34.7407 366.016C34.7407 365.912 34.7256 365.792 34.6954 365.687C34.6651 365.598 34.6349 365.508 34.5896 365.433C34.5292 365.329 34.6047 365.209 34.7256 365.224C34.8163 365.224 34.9069 365.224 34.9976 365.209C35.3149 365.164 35.602 364.97 35.7833 364.686C35.9495 364.402 35.9948 364.088 35.9042 363.789C35.8739 363.699 35.8286 363.594 35.7833 363.505C35.7229 363.4 35.7984 363.28 35.9193 363.295C35.9948 363.295 36.0855 363.295 36.161 363.28C36.4784 363.235 36.7805 363.056 36.9619 362.757C37.1281 362.488 37.1583 362.189 37.0979 361.905C37.0374 361.621 36.8561 361.367 36.5841 361.202L25.3725 354.384C24.8436 354.056 24.1335 354.235 23.801 354.758C23.6802 354.938 23.6348 355.147 23.6348 355.356C23.6348 355.476 23.6499 355.595 23.6953 355.715C23.7255 355.79 23.7557 355.865 23.801 355.939C23.8615 356.044 23.7859 356.164 23.665 356.149C23.5593 356.149 23.4535 356.149 23.3628 356.164C23.0606 356.223 22.7887 356.403 22.6224 356.672C22.4411 356.956 22.4109 357.3 22.5016 357.599C22.5318 357.689 22.562 357.763 22.6073 357.838C22.6678 357.943 22.5922 358.062 22.4713 358.047C22.3807 358.047 22.29 358.047 22.1843 358.062C21.8821 358.122 21.595 358.302 21.4136 358.586C21.2928 358.765 21.2474 358.974 21.2474 359.184C21.2474 359.363 21.2626 359.468 21.2928 359.572Z" fill="white"/>
<path d="M110.2 397.219C110.366 392.689 112.512 388.697 115.776 386.021C117.407 383.987 118.133 381.042 118.42 379.472C118.541 378.844 119.115 378.381 119.78 378.411L132.91 378.889C133.575 378.919 134.119 379.412 134.18 380.055C134.21 380.264 134.24 380.519 134.27 380.773C134.512 382.432 135.056 384.914 136.34 386.783C139.392 389.699 141.236 393.825 141.07 398.355C140.752 406.788 133.605 413.381 125.068 413.067C123.255 413.007 121.517 412.633 119.916 412.005C114.023 409.658 109.958 403.857 110.2 397.219Z" fill="#E59D29"/>
<path d="M113.887 399.312C113.917 398.684 113.978 398.071 114.068 397.458C114.446 394.334 116.38 391.941 118.511 389.833C118.783 389.504 119.039 389.176 119.296 388.847C119.81 388.174 120.278 387.486 120.732 386.768C121.004 386.335 121.276 385.901 121.533 385.468C122.832 382.388 126.02 380.863 129.299 380.743C129.737 380.713 130.191 380.713 130.644 380.713C131.822 380.653 133.092 380.609 134.255 380.758C134.497 382.418 135.041 384.9 136.325 386.768C139.377 389.684 141.221 393.81 141.055 398.341C140.737 406.773 133.59 413.366 125.053 413.052C123.24 412.992 121.502 412.619 119.901 411.991C116.093 409.075 113.706 404.441 113.887 399.312Z" fill="#F4B545"/>
<path d="M120.974 395.679C121.971 395.709 122.862 395.201 123.346 394.408L123.784 395.096L125.219 393.137L126.519 395.201L127.849 393.392C127.849 394.797 128.982 395.963 130.417 396.023C131.898 396.083 133.137 394.931 133.182 393.481C133.228 392.21 132.351 391.104 131.143 390.82L130.236 373.716L128.695 373.791L129.601 390.895C128.982 391.119 128.468 391.553 128.151 392.121L127.985 391.852L126.549 393.81L125.25 391.747L123.814 393.706L123.678 393.481C123.693 393.362 123.708 393.242 123.724 393.122C123.769 392.016 123.104 391.029 122.137 390.611L124.298 373.611L122.772 373.417L120.611 390.416C119.387 390.626 118.435 391.657 118.39 392.928C118.344 394.393 119.493 395.619 120.974 395.679ZM130.584 391.777C131.475 391.807 132.185 392.554 132.155 393.436C132.125 394.318 131.369 395.021 130.478 394.991C130.07 394.976 129.692 394.812 129.405 394.543C129.088 394.244 128.891 393.795 128.906 393.332C128.906 393.317 128.906 393.302 128.906 393.287C128.967 392.405 129.707 391.747 130.584 391.777ZM121.125 391.433C121.744 391.463 122.273 391.822 122.53 392.345C122.636 392.569 122.696 392.823 122.681 393.093C122.681 393.167 122.666 393.242 122.651 393.317C122.515 394.094 121.805 394.662 120.989 394.632C120.097 394.603 119.387 393.855 119.417 392.973C119.478 392.091 120.233 391.403 121.125 391.433Z" fill="white"/>
<path d="M133.5 369.874L127.758 367.123C127.123 366.824 126.398 366.794 125.748 367.048L119.825 369.38L133.5 369.874Z" fill="#ACC6E5"/>
<path d="M119.1 375.839C119.161 375.899 119.236 375.959 119.312 376.003C119.417 376.063 119.402 376.213 119.297 376.258C119.221 376.303 119.13 376.347 119.07 376.407C118.798 376.631 118.632 376.975 118.662 377.349C118.692 377.932 119.206 378.381 119.795 378.411L123.966 378.56C123.996 378.56 124.026 378.56 124.056 378.575L128.922 378.754C128.952 378.754 128.982 378.754 129.012 378.754L132.865 378.889C133.455 378.904 133.984 378.5 134.074 377.917C134.12 377.543 133.984 377.185 133.727 376.945C133.666 376.886 133.591 376.826 133.515 376.781C133.409 376.721 133.409 376.572 133.515 376.527C133.591 376.482 133.666 376.437 133.742 376.377C133.984 376.183 134.15 375.884 134.165 375.54C134.18 375.331 134.12 375.121 134.014 374.942C133.953 374.852 133.893 374.763 133.817 374.688C133.757 374.628 133.681 374.568 133.591 374.523C133.485 374.464 133.5 374.314 133.606 374.269C133.681 374.224 133.757 374.179 133.832 374.12C134.074 373.925 134.24 373.626 134.256 373.282C134.271 372.953 134.135 372.654 133.923 372.445C133.848 372.37 133.772 372.311 133.681 372.266C133.576 372.206 133.591 372.056 133.696 372.012C133.772 371.982 133.832 371.937 133.908 371.877C134.165 371.683 134.331 371.369 134.346 371.025C134.361 370.711 134.24 370.427 134.044 370.217C133.848 370.008 133.56 369.874 133.258 369.859L120.097 369.38C119.478 369.35 118.949 369.844 118.919 370.472C118.904 370.681 118.964 370.89 119.07 371.07C119.13 371.174 119.206 371.264 119.297 371.354C119.357 371.414 119.417 371.458 119.493 371.503C119.599 371.563 119.584 371.713 119.478 371.757C119.387 371.802 119.297 371.862 119.221 371.922C118.994 372.116 118.843 372.415 118.828 372.729C118.813 373.073 118.964 373.372 119.191 373.596C119.251 373.656 119.327 373.716 119.402 373.761C119.508 373.821 119.493 373.97 119.387 374.015C119.297 374.06 119.221 374.105 119.145 374.165C118.904 374.359 118.738 374.658 118.738 374.987C118.722 375.196 118.783 375.405 118.889 375.585C118.949 375.675 119.025 375.764 119.1 375.839Z" fill="white"/>
</svg>
