<svg width="181" height="64" viewBox="0 0 181 64" fill="none" xmlns="http://www.w3.org/2000/svg">
<g clip-path="url(#clip0_239_1896)">
<path d="M174.15 62.5C174.15 61.9 173.75 61.5 173.25 61.4C171.85 61.3 171.85 63.4 173.15 63.4C173.65 63.4 174.05 63 174.15 62.5ZM179.35 62.7C180.55 62.3 180.05 60.4 178.75 60.8C177.65 61.1 177.95 62.8 179.05 62.8C179.15 62.7 179.25 62.7 179.35 62.7ZM168.25 61.5C168.65 60.2 166.75 59.6 166.35 60.9C166.15 61.5 166.65 62.2 167.35 62.2C167.75 62.1 168.05 61.9 168.25 61.5ZM162.75 59C163.05 58.5 162.85 57.9 162.35 57.6C160.85 56.8 160.15 59.3 161.85 59.5C162.25 59.5 162.55 59.4 162.75 59ZM157.75 55.8C158.05 55.4 157.95 54.7 157.55 54.4C156.05 53.5 155.15 56.1 156.95 56.2C157.25 56.2 157.55 56.1 157.75 55.8ZM152.95 52.1C153.85 51.1 152.25 49.8 151.35 50.9C150.85 51.5 151.35 52.5 152.15 52.5C152.55 52.4 152.75 52.3 152.95 52.1ZM148.45 48.2C149.35 47.2 147.75 45.9 146.85 46.9C146.35 47.5 146.85 48.5 147.65 48.5C147.95 48.5 148.25 48.4 148.45 48.2ZM143.85 44.3C144.75 43.3 143.15 42 142.25 43.1C141.75 43.7 142.25 44.7 143.05 44.7C143.35 44.6 143.65 44.5 143.85 44.3ZM139.25 40.4C140.05 39.3 138.45 38.1 137.65 39.2C137.15 39.8 137.65 40.8 138.45 40.8C138.75 40.8 139.05 40.7 139.25 40.4ZM134.55 36.7C135.35 35.6 133.75 34.4 132.95 35.5C132.45 36.1 132.95 37.1 133.75 37.1C134.15 37 134.45 36.9 134.55 36.7ZM129.85 33C130.15 32.6 130.05 31.9 129.65 31.6C128.15 30.6 127.25 33.2 129.05 33.4C129.35 33.4 129.65 33.2 129.85 33ZM125.05 29.4C125.85 28.3 124.15 27.1 123.35 28.3C122.95 28.9 123.45 29.9 124.15 29.8C124.55 29.8 124.85 29.7 125.05 29.4ZM120.15 25.9C120.95 24.8 119.15 23.7 118.45 24.8C118.05 25.4 118.55 26.3 119.35 26.3C119.65 26.4 119.95 26.2 120.15 25.9ZM115.15 22.6C115.45 22.1 115.35 21.5 114.85 21.2C113.35 20.4 112.55 22.9 114.35 23C114.65 23 114.95 22.9 115.15 22.6ZM110.05 19.4C110.75 18.2 108.95 17.2 108.35 18.4C107.95 19 108.55 19.9 109.25 19.9C109.55 19.9 109.85 19.7 110.05 19.4ZM104.85 16.4C105.45 15.2 103.65 14.3 103.05 15.5C102.75 16.1 103.25 16.9 103.95 16.9C104.35 16.9 104.75 16.7 104.85 16.4ZM99.5495 13.6C99.7495 13.1 99.5495 12.5 99.0495 12.3C97.5495 11.7 96.9495 14.1 98.5495 14.2C99.0495 14.1 99.4495 13.9 99.5495 13.6ZM94.1495 11C94.6495 9.70001 92.8495 9.00001 92.2495 10.2C91.9495 10.8 92.5495 11.6 93.1495 11.6C93.6495 11.6 94.0495 11.4 94.1495 11ZM12.7495 11.2C13.9495 10.5 12.8495 8.80001 11.7495 9.50001C10.9495 10 11.3495 11.4 12.2495 11.3C12.3495 11.3 12.5495 11.2 12.7495 11.2ZM88.6495 8.60001C89.1495 7.30001 87.2495 6.70001 86.7495 7.90001C86.5495 8.50001 87.0495 9.20001 87.6495 9.20001C88.1495 9.30001 88.5495 9.00001 88.6495 8.60001ZM17.9495 8.50001C19.1495 7.90001 18.2495 6.10001 17.0495 6.70001C16.1495 7.20001 16.4495 8.60001 17.5495 8.60001C17.7495 8.60001 17.8495 8.60001 17.9495 8.50001ZM83.0495 6.50001C83.4495 5.20001 81.5495 4.60001 81.1495 5.90001C80.9495 6.50001 81.4495 7.20001 82.1495 7.20001C82.5495 7.20001 82.9495 7.00001 83.0495 6.50001ZM23.4495 6.30001C24.7495 5.80001 24.0495 3.90001 22.7495 4.40001C21.7495 4.80001 22.0495 6.30001 23.1495 6.30001C23.2495 6.40001 23.3495 6.40001 23.4495 6.30001ZM77.3495 4.70001C77.4495 4.20001 77.1495 3.60001 76.6495 3.50001C75.1495 3.20001 74.8495 5.40001 76.3495 5.50001C76.8495 5.50001 77.2495 5.20001 77.3495 4.70001ZM29.1495 4.60001C30.4495 4.20001 29.8495 2.30001 28.5495 2.70001C27.4495 3.00001 27.7495 4.70001 28.8495 4.70001C28.9495 4.60001 29.0495 4.60001 29.1495 4.60001ZM71.5495 3.30001C71.6495 2.80001 71.3495 2.20001 70.7495 2.10001C69.3495 1.90001 69.1495 4.00001 70.5495 4.10001C70.9495 4.10001 71.4495 3.70001 71.5495 3.30001ZM34.9495 3.30001C36.2495 3.00001 35.8495 1.10001 34.5495 1.30001C33.4495 1.60001 33.6495 3.30001 34.7495 3.30001C34.8495 3.30001 34.8495 3.30001 34.9495 3.30001ZM65.6495 2.20001C65.8495 0.900012 63.8495 0.600012 63.6495 2.00001C63.5495 2.60001 64.0495 3.10001 64.6495 3.10001C65.1495 3.00001 65.5495 2.70001 65.6495 2.20001ZM40.8495 2.50001C42.1495 2.30001 41.9495 0.300012 40.5495 0.500012C39.3495 0.700012 39.5495 2.50001 40.7495 2.50001C40.7495 2.50001 40.7495 2.50001 40.8495 2.50001ZM59.6495 1.40001C59.7495 0.100012 57.7495 -0.0999879 57.6495 1.30001C57.6495 1.90001 58.0495 2.30001 58.6495 2.30001C59.1495 2.30001 59.6495 1.90001 59.6495 1.40001ZM46.7495 2.00001C48.0495 1.90001 47.9495 -0.0999878 46.6495 1.21891e-05C45.3495 0.200012 45.4495 2.00001 46.7495 2.00001C46.6495 2.00001 46.7495 2.00001 46.7495 2.00001ZM53.6495 1.00001C53.6495 -0.399988 51.6495 -0.399988 51.6495 1.00001C51.6495 1.50001 52.1495 2.00001 52.6495 2.00001C53.2495 2.00001 53.6495 1.60001 53.6495 1.00001Z" fill="#132742"/>
<path d="M0.949219 18.3L13.4492 14.9L8.24922 12.8L7.54922 7.20001L0.949219 18.3Z" fill="#132742"/>
</g>
<defs>
<clipPath id="clip0_239_1896">
<rect width="179.1" height="63.4" fill="white" transform="matrix(-1 0 0 1 180.05 0)"/>
</clipPath>
</defs>
</svg>
