<svg width="68" height="63" viewBox="0 0 68 63" fill="none" xmlns="http://www.w3.org/2000/svg">
<g clip-path="url(#clip0_239_1914)">
<path d="M65.3864 33.2114C66.7979 32.4513 67.6407 34.7534 66.0501 35.0361C64.9896 35.2245 64.4523 33.7923 65.3864 33.2114Z" fill="#132742"/>
<path d="M13.6229 30.0742C14.9474 30.3104 14.6356 32.2707 13.3111 32.0345C12.3998 31.8947 12.1907 30.6116 13.0078 30.2212C13.1776 30.1156 13.3475 30.01 13.6229 30.0742ZM19.451 30.9247C20.7227 31.0759 20.4637 33.1212 19.1392 32.885C18.2807 32.8301 17.9339 31.5149 18.6982 31.0396C18.9529 30.8812 19.1756 30.8605 19.451 30.9247ZM25.2263 31.6902C26.5508 31.9264 26.154 33.9395 24.8296 33.7034C24.0032 33.5107 23.8469 32.3126 24.5262 31.8901C24.781 31.7316 24.9508 31.626 25.2263 31.6902ZM31.0016 32.4558C32.2732 32.6071 32.0992 34.5995 30.8275 34.4482C29.8841 34.4461 29.6222 33.0781 30.3864 32.6028C30.5563 32.4972 30.7261 32.3916 31.0016 32.4558ZM36.809 33.0836C38.1656 33.1821 37.9066 35.2273 36.4972 35.0439C35.5859 34.9041 35.3768 33.621 36.141 33.1457C36.3637 33.125 36.5335 33.0194 36.809 33.0836ZM42.5957 33.4888C43.9522 33.5873 43.7782 35.5797 42.4216 35.4812C41.5631 35.4263 41.2163 34.1111 41.9805 33.6358C42.2032 33.6151 42.373 33.5095 42.5957 33.4888ZM48.4673 33.8412C49.771 33.8547 49.7347 35.8793 48.4309 35.8657C47.4875 35.8636 47.0879 34.4635 47.9899 34.0203C48.022 33.8826 48.1918 33.777 48.4673 33.8412ZM54.2654 33.886C55.6541 33.8467 55.6177 35.8713 54.229 35.9105C53.2856 35.9084 52.886 34.5083 53.788 34.0651C53.8201 33.9274 54.0427 33.9067 54.2654 33.886ZM59.99 33.6233C61.3787 33.584 61.5122 35.5029 60.1763 35.6271C59.148 35.6778 58.7483 34.2777 59.5975 33.7496C59.6824 33.6968 59.8522 33.5912 59.99 33.6233Z" fill="#132742"/>
<path d="M7.17975 29.3707C8.11385 28.7898 9.16075 29.9052 8.52281 30.773C7.48097 32.1274 5.87386 30.3006 7.17975 29.3707Z" fill="#132742"/>
<path d="M11.6599 26.3492L9.17024 30.4882L10.4106 35.1338L0.608289 29.2182L11.6599 26.3492Z" fill="#132742"/>
</g>
<defs>
<clipPath id="clip0_239_1914">
<rect width="53.9" height="39.6" fill="white" transform="translate(67.292 34.3817) rotate(148.123)"/>
</clipPath>
</defs>
</svg>
