<svg width="81" height="44" viewBox="0 0 81 44" fill="none" xmlns="http://www.w3.org/2000/svg">
<g clip-path="url(#clip0_239_1903)">
<path d="M79.9534 2.10024C78.6976 2.10024 78.4883 0.210024 79.7441 3.92087e-07C81.2092 -0.210023 81.4185 2.10024 79.9534 2.10024Z" fill="#132742"/>
<path d="M19.7795 41.2697C18.419 41.1647 18.419 39.0644 19.8841 39.1694C21.2446 39.2745 21.1399 41.1647 19.7795 41.2697ZM25.1167 40.1146C25.1167 39.4845 25.5353 38.9594 26.1632 38.9594C27.5237 38.9594 27.6283 40.9547 26.2679 41.0597C26.2679 41.0597 26.2678 41.0597 26.1632 41.0597C25.6399 41.0597 25.1167 40.6396 25.1167 40.1146ZM13.3958 40.7446C11.9306 40.5346 12.3492 38.4344 13.7097 38.6444C14.8609 38.9594 14.6516 40.7446 13.5004 40.7446C13.3958 40.7446 13.3958 40.7446 13.3958 40.7446ZM31.3958 39.3795C31.2911 38.7494 31.7097 38.2243 32.3376 38.1193C33.6981 38.0143 33.9074 39.9045 32.6516 40.2196C32.6516 40.2196 32.5469 40.2196 32.4423 40.2196C31.919 40.2196 31.5004 39.9045 31.3958 39.3795ZM37.6748 38.1193C37.4655 37.4893 37.8841 36.9642 38.4074 36.7542C39.6632 36.4391 40.1865 38.4344 38.9306 38.7494C38.826 38.7494 38.7213 38.7494 38.6167 38.7494C38.1981 38.8544 37.7795 38.5394 37.6748 38.1193ZM43.6399 36.1241C43.1167 34.759 45.1051 34.0239 45.6283 35.389C45.8376 36.0191 45.3144 36.7542 44.6865 36.7542C44.2679 36.8592 43.8492 36.5442 43.6399 36.1241ZM49.5004 33.6038C48.8725 32.3437 50.7562 31.3986 51.3841 32.6587C51.6981 33.2888 51.1748 34.1289 50.4423 34.1289C50.0237 34.2339 49.7097 34.0239 49.5004 33.6038ZM55.0469 30.4535C54.733 29.9284 54.8376 29.2983 55.3609 28.9833C56.512 28.3532 57.5585 30.0334 56.4074 30.7685C56.1981 30.8735 55.9888 30.9785 55.7795 30.9785C55.5702 30.9785 55.2562 30.7685 55.0469 30.4535ZM60.1748 26.8831C59.7562 26.463 59.8609 25.7279 60.3841 25.4129C61.4306 24.6778 62.6865 26.253 61.6399 27.0931C61.4306 27.1981 61.2213 27.3031 61.012 27.3031C60.6981 27.1981 60.3841 27.0931 60.1748 26.8831ZM64.9888 22.6826C64.0469 21.6325 65.6167 20.1623 66.5585 21.2124C67.1865 21.8425 66.6632 22.9976 65.7213 22.9976C65.512 22.9976 65.1981 22.8926 64.9888 22.6826ZM69.3841 18.0621C68.3376 17.1169 69.6981 15.5418 70.7446 16.4869C71.4771 17.1169 70.9539 18.3771 70.012 18.2721C69.8027 18.3771 69.5934 18.2721 69.3841 18.0621ZM73.3609 13.0215C72.2097 12.1814 73.3609 10.5012 74.512 11.2363C75.3492 11.7613 74.9306 13.2315 73.8841 13.1265C73.6748 13.2315 73.4655 13.2315 73.3609 13.0215ZM76.7097 7.66587C75.4539 6.93079 76.5004 5.14559 77.7562 5.88067C78.6981 6.40573 78.1748 7.8759 77.233 7.8759C77.0237 7.8759 76.919 7.77088 76.7097 7.66587Z" fill="#132742"/>
<path d="M7.22099 39.6945C5.96518 39.6945 5.75587 37.9093 7.01169 37.5943C8.4768 37.3842 8.68611 39.6945 7.22099 39.6945Z" fill="#132742"/>
<path d="M11.8256 34.969L8.7907 38.9594L9.4186 44L0 36.6492L11.8256 34.969Z" fill="#132742"/>
</g>
<defs>
<clipPath id="clip0_239_1903">
<rect width="81" height="44" fill="white"/>
</clipPath>
</defs>
</svg>
