<svg width="113" height="47" viewBox="0 0 113 47" fill="none" xmlns="http://www.w3.org/2000/svg">
<path d="M0.986591 45.7C-0.613409 45.6 -0.113409 43.2 1.38659 43.8C2.38659 44.1 2.08659 45.7 0.986591 45.7Z" fill="#132742"/>
<path d="M17.687 45.6C17.687 44.3 19.687 44.3 19.687 45.6C19.687 46.1 19.187 46.6 18.687 46.6C18.187 46.6 17.687 46.2 17.687 45.6ZM12.787 46.6C11.487 46.5 11.587 44.5 12.887 44.6C14.087 44.7 14.087 46.6 12.787 46.6ZM23.587 45.4C23.587 44.9 23.987 44.4 24.487 44.3C25.887 44.2 25.887 46.3 24.587 46.3C24.087 46.3 23.687 45.9 23.587 45.4ZM6.787 46.3C5.487 46.2 5.687 44.2 6.987 44.3C8.187 44.4 8.087 46.3 6.787 46.3C6.887 46.3 6.787 46.3 6.787 46.3ZM29.587 44.9C29.487 44.4 29.887 43.9 30.487 43.8C31.887 43.6 31.987 45.8 30.587 45.8C29.987 45.8 29.587 45.4 29.587 44.9ZM35.387 44.1C35.187 42.8 37.187 42.5 37.387 43.8C37.487 44.4 36.987 44.9 36.387 44.9C35.887 44.9 35.487 44.6 35.387 44.1ZM41.287 43C40.987 41.7 42.987 41.3 43.287 42.6C43.387 43.2 42.887 43.8 42.287 43.8C41.787 43.8 41.387 43.5 41.287 43ZM46.987 41.7C46.687 40.4 48.587 39.9 48.887 41.2C48.987 41.8 48.487 42.4 47.887 42.4C47.487 42.4 47.087 42.1 46.987 41.7ZM52.687 40.1C52.487 39.6 52.787 39 53.387 38.8C54.887 38.4 55.187 40.7 53.687 40.8C53.287 40.7 52.887 40.5 52.687 40.1ZM58.287 38.2C58.087 37.7 58.387 37.1 58.887 36.9C60.387 36.4 60.787 38.8 59.187 38.8C58.887 38.8 58.487 38.6 58.287 38.2ZM63.887 36.1C63.387 34.8 65.287 34.1 65.787 35.4C65.987 36 65.487 36.8 64.887 36.7C64.387 36.7 63.987 36.4 63.887 36.1ZM69.287 33.7C68.787 32.5 70.587 31.6 71.087 32.9C71.387 33.5 70.887 34.3 70.187 34.3C69.787 34.2 69.487 34 69.287 33.7ZM74.587 31.1C74.287 30.6 74.487 30 74.987 29.7C76.487 29 77.087 31.5 75.487 31.6C75.087 31.6 74.787 31.4 74.587 31.1ZM79.787 28.2C79.087 27 80.887 26 81.487 27.2C81.887 27.8 81.287 28.7 80.587 28.7C80.287 28.7 79.987 28.5 79.787 28.2ZM84.887 25.1C84.187 24 85.887 22.9 86.587 24C86.987 24.6 86.487 25.5 85.687 25.5C85.387 25.5 84.987 25.4 84.887 25.1ZM89.787 21.7C88.987 20.6 90.687 19.4 91.387 20.6C91.787 21.2 91.287 22.2 90.587 22.1C90.287 22.2 89.887 22 89.787 21.7ZM94.487 18.2C94.087 17.8 94.187 17.1 94.587 16.8C96.087 15.8 96.987 18.4 95.187 18.6C94.987 18.6 94.687 18.4 94.487 18.2ZM98.987 14.4C98.087 13.4 99.687 12.1 100.487 13.1C100.987 13.7 100.487 14.8 99.687 14.7C99.487 14.7 99.187 14.6 98.987 14.4ZM103.387 10.4C102.487 9.4 103.987 8 104.887 9C105.487 9.6 104.987 10.7 104.087 10.7C103.887 10.7 103.587 10.6 103.387 10.4Z" fill="#132742"/>
<path d="M108.286 6.39999C106.886 6.29999 107.086 4.19999 108.486 4.39999C109.586 4.69999 109.386 6.39999 108.286 6.39999Z" fill="#132742"/>
<path d="M109.287 10.8L107.187 6.5L102.687 5L112.887 0L109.287 10.8Z" fill="#132742"/>
</svg>
