<svg width="68" height="63" viewBox="0 0 68 63" fill="none" xmlns="http://www.w3.org/2000/svg">
<g clip-path="url(#clip0_239_1925)">
<path d="M2.51403 33.2113C1.10252 32.4513 0.25969 34.7534 1.85032 35.036C2.91075 35.2244 3.44813 33.7922 2.51403 33.2113Z" fill="#132742"/>
<path d="M54.2775 30.0741C52.953 30.3103 53.2648 32.2706 54.5893 32.0344C55.5006 31.8946 55.7097 30.6115 54.8926 30.2212C54.7228 30.1155 54.5529 30.0099 54.2775 30.0741ZM48.4494 30.9246C47.1777 31.0759 47.4367 33.1211 48.7612 32.8849C49.6197 32.83 49.9665 31.5148 49.2022 31.0395C48.9475 30.8811 48.7248 30.8604 48.4494 30.9246ZM42.6741 31.6902C41.3496 31.9264 41.7463 33.9395 43.0708 33.7033C43.8972 33.5106 44.0535 32.3125 43.3741 31.89C43.1194 31.7316 42.9496 31.626 42.6741 31.6902ZM36.8988 32.4557C35.6272 32.607 35.8012 34.5994 37.0729 34.4482C38.0163 34.446 38.2782 33.0781 37.5139 32.6028C37.3441 32.4971 37.1743 32.3915 36.8988 32.4557ZM31.0914 33.0836C29.7348 33.182 29.9938 35.2272 31.4032 35.0439C32.3145 34.904 32.5236 33.621 31.7594 33.1457C31.5367 33.125 31.3669 33.0194 31.0914 33.0836ZM25.3047 33.4888C23.9481 33.5872 24.1222 35.5796 25.4788 35.4812C26.3373 35.4263 26.6841 34.1111 25.9199 33.6358C25.6972 33.6151 25.5274 33.5095 25.3047 33.4888ZM19.4331 33.8411C18.1293 33.8547 18.1657 35.8792 19.4695 35.8657C20.4129 35.8635 20.8125 34.4634 19.9105 34.0203C19.8784 33.8825 19.7086 33.7769 19.4331 33.8411ZM13.635 33.886C12.2463 33.8467 12.2827 35.8712 13.6714 35.9105C14.6148 35.9084 15.0144 34.5083 14.1124 34.0651C14.0803 33.9274 13.8577 33.9067 13.635 33.886ZM7.91042 33.6232C6.52173 33.5839 6.38824 35.5028 7.72412 35.627C8.75243 35.6777 9.15209 34.2776 8.3029 33.7495C8.21798 33.6967 8.04815 33.5911 7.91042 33.6232Z" fill="#132742"/>
<path d="M60.7206 29.3707C59.7865 28.7898 58.7396 29.9051 59.3776 30.7729C60.4194 32.1274 62.0265 30.3006 60.7206 29.3707Z" fill="#132742"/>
<path d="M56.2405 26.3491L58.7301 30.4881L57.4898 35.1337L67.2921 29.2181L56.2405 26.3491Z" fill="#132742"/>
</g>
<defs>
<clipPath id="clip0_239_1925">
<rect width="53.9" height="39.6" fill="white" transform="matrix(0.849186 0.528095 0.528095 -0.849186 0.608398 34.3816)"/>
</clipPath>
</defs>
</svg>
