<svg width="78" height="42" viewBox="0 0 78 42" fill="none" xmlns="http://www.w3.org/2000/svg">
<path d="M0.95569 2.01285C2.15569 2.01285 2.35569 0.212854 1.15569 0.0128544C-0.244305 -0.187146 -0.44431 2.01285 0.95569 2.01285Z" fill="#132742"/>
<path d="M58.4553 39.3129C59.7553 39.2129 59.7553 37.2129 58.3553 37.3129C57.0553 37.4129 57.1553 39.2129 58.4553 39.3129ZM53.3553 38.2129C53.3553 37.6129 52.9553 37.1129 52.3553 37.1129C51.0553 37.1129 50.9553 39.0129 52.2553 39.1129C52.2553 39.1129 52.2553 39.1129 52.3553 39.1129C52.8553 39.1129 53.3553 38.7129 53.3553 38.2129ZM64.5553 38.8129C65.9553 38.6129 65.5553 36.6129 64.2553 36.8129C63.1553 37.1129 63.3553 38.8129 64.4553 38.8129C64.5553 38.8129 64.5553 38.8129 64.5553 38.8129ZM47.3553 37.5129C47.4553 36.9129 47.0553 36.4129 46.4553 36.3129C45.1553 36.2129 44.9553 38.0129 46.1553 38.3129C46.1553 38.3129 46.2553 38.3129 46.3553 38.3129C46.8553 38.3129 47.2553 38.0129 47.3553 37.5129ZM41.3553 36.3129C41.5553 35.7129 41.1553 35.2129 40.6553 35.0129C39.4553 34.7129 38.9553 36.6129 40.1553 36.9129C40.2553 36.9129 40.3553 36.9129 40.4553 36.9129C40.8553 37.0129 41.2553 36.7129 41.3553 36.3129ZM35.6553 34.4129C36.1553 33.1129 34.2553 32.4129 33.7553 33.7129C33.5553 34.3129 34.0553 35.0129 34.6553 35.0129C35.0553 35.1129 35.4553 34.8129 35.6553 34.4129ZM30.0553 32.0129C30.6553 30.8129 28.8553 29.9129 28.2553 31.1129C27.9553 31.7129 28.4553 32.5129 29.1553 32.5129C29.5553 32.6129 29.8553 32.4129 30.0553 32.0129ZM24.7553 29.0129C25.0553 28.5129 24.9553 27.9129 24.4553 27.6129C23.3553 27.0129 22.3553 28.6129 23.4553 29.3129C23.6553 29.4129 23.8553 29.5129 24.0553 29.5129C24.2553 29.5129 24.5553 29.3129 24.7553 29.0129ZM19.8553 25.6129C20.2553 25.2129 20.1553 24.5129 19.6553 24.2129C18.6553 23.5129 17.4553 25.0129 18.4553 25.8129C18.6553 25.9129 18.8553 26.0129 19.0553 26.0129C19.3553 25.9129 19.6553 25.8129 19.8553 25.6129ZM15.2553 21.6129C16.1553 20.6129 14.6553 19.2129 13.7553 20.2129C13.1553 20.8129 13.6553 21.9129 14.5553 21.9129C14.7553 21.9129 15.0553 21.8129 15.2553 21.6129ZM11.0553 17.2129C12.0553 16.3129 10.7553 14.8129 9.75529 15.7129C9.05529 16.3129 9.55529 17.5129 10.4553 17.4129C10.6553 17.5129 10.8553 17.4129 11.0553 17.2129ZM7.25529 12.4129C8.35529 11.6129 7.25529 10.0129 6.1553 10.7129C5.3553 11.2129 5.75529 12.6129 6.75529 12.5129C6.9553 12.6129 7.1553 12.6129 7.25529 12.4129ZM4.05529 7.31286C5.25529 6.61286 4.25529 4.91285 3.05529 5.61285C2.15529 6.11285 2.65529 7.51286 3.55529 7.51286C3.75529 7.51286 3.85529 7.41286 4.05529 7.31286Z" fill="#132742"/>
<path d="M70.4557 37.8129C71.6557 37.8129 71.8557 36.1129 70.6557 35.8129C69.2557 35.6129 69.0557 37.8129 70.4557 37.8129Z" fill="#132742"/>
<path d="M66.0555 33.3129L68.9555 37.1129L68.3555 41.9129L77.3555 34.9129L66.0555 33.3129Z" fill="#132742"/>
</svg>
