<svg width="49" height="51" viewBox="0 0 49 51" fill="none" xmlns="http://www.w3.org/2000/svg">
<path fill-rule="evenodd" clip-rule="evenodd" d="M24.6886 0.247962C30.4873 -0.319943 36.7541 -0.18659 41.158 3.65148C45.791 7.68919 46.8256 14.1066 47.6089 20.2233C48.5567 27.6238 50.8741 36.0478 46.0304 41.6978C41.057 47.4991 32.3023 47.0375 24.6886 46.9593C17.1823 46.8822 8.75911 46.9149 3.77814 41.2639C-1.06841 35.7653 -0.403381 27.4106 1.12284 20.2233C2.34286 14.478 6.67542 10.3763 11.1408 6.59125C15.101 3.23449 19.535 0.752687 24.6886 0.247962Z" fill="#2667FF" fill-opacity="0.05"/>
<path d="M47.3885 41.3586L37.8703 31.9637C40.1516 27.8852 40.9228 23.1472 40.0518 18.5661C39.1808 13.985 36.7216 9.84835 33.0984 6.86995C29.4749 3.8906 24.9146 2.25602 20.2041 2.24707C14.8434 2.26536 9.708 4.38368 5.92141 8.13905C2.13514 11.894 0.00620528 16.9799 0 22.2839C0.0180773 26.9368 1.67332 31.4381 4.68151 35.0144C7.68929 38.5909 11.8621 41.019 16.4831 41.8816C21.1042 42.7442 25.8843 41.9877 30.0022 39.7418L39.5283 49.1367C40.5689 50.1765 41.9871 50.7615 43.4661 50.7615C44.9286 50.7452 46.3267 50.1635 47.3608 49.1399C48.3953 48.1167 48.9832 46.7333 48.9996 45.2862C49.0173 43.8162 48.4368 42.4007 47.3888 41.3589L47.3885 41.3586ZM45.7308 47.5192V47.5188C45.1417 48.1221 44.329 48.4615 43.4814 48.4587C42.6072 48.4603 41.7678 48.1201 41.1467 47.5115L30.9825 37.5008V37.5004C30.7636 37.2845 30.4669 37.1629 30.1576 37.1617C29.9394 37.1593 29.7258 37.2211 29.5429 37.3386C25.8105 39.5236 21.4034 40.2939 17.1408 39.5057C12.8782 38.7174 9.04891 36.4247 6.36571 33.0539C3.68251 29.6826 2.32755 25.4623 2.5523 21.1777C2.77744 16.8923 4.5666 12.8336 7.58836 9.75532C9.23455 8.1069 11.1955 6.79836 13.3574 5.90608C15.5192 5.01379 17.8383 4.55529 20.1806 4.55727C24.4425 4.56215 28.5628 6.07197 31.8002 8.81424C35.0376 11.5569 37.1801 15.3522 37.8419 19.5186C38.5038 23.6845 37.6415 27.9472 35.4106 31.5405C35.1247 31.9953 35.1921 32.5852 35.5741 32.9652L45.7383 42.976C46.3607 43.5858 46.7062 44.4195 46.6955 45.2862C46.6943 46.1272 46.3455 46.9314 45.7305 47.5119L45.7308 47.5192Z" fill="#2667FF"/>
<path d="M33.1384 19.7272L32.0879 19.4268V19.4272C31.938 18.8552 31.7477 18.2942 31.5197 17.7483L32.1968 16.9088C32.5411 16.4779 32.728 15.945 32.728 15.3958C32.728 14.8466 32.5411 14.3133 32.1968 13.8823L31.3332 12.7197C31.0004 12.2798 30.5272 11.9644 29.9902 11.8245C29.4532 11.6847 28.8841 11.7286 28.3755 11.9497L27.3714 12.3965L27.3718 12.3961C26.3587 11.6571 25.2347 11.0802 24.0408 10.6867L23.8308 9.63176H23.8304C23.7252 9.08907 23.4368 8.59759 23.0129 8.23819C22.5889 7.8788 22.054 7.67233 21.4956 7.65241L20.0092 7.59062V7.59103C19.4504 7.56786 18.9003 7.73168 18.4471 8.05567C17.994 8.38006 17.6645 8.84552 17.5108 9.37763L17.1994 10.4171H17.1998C16.061 10.685 14.9677 11.1155 13.9543 11.6956L13.0126 11.1488C12.5352 10.8703 11.9769 10.7589 11.4277 10.8333C10.8784 10.9073 10.3701 11.1622 9.9852 11.5569L8.9503 12.6428C8.56412 13.0355 8.32337 13.5456 8.26708 14.0908C8.21039 14.6359 8.34144 15.1835 8.63889 15.6456L9.21489 16.5542V16.5546C8.90635 17.1465 8.6463 17.762 8.43677 18.3949L7.39365 18.5644C6.84519 18.6697 6.34848 18.9551 5.98411 19.3742C5.6197 19.7933 5.40893 20.3222 5.38593 20.8747L5.31609 22.3454H5.31568C5.28445 22.8934 5.44098 23.4357 5.76021 23.8845C6.07943 24.3333 6.54285 24.6617 7.07488 24.8174L8.1254 25.1256C8.26549 25.6963 8.44503 26.2573 8.66236 26.8041L8.00091 27.6203C7.65827 28.0521 7.47176 28.5846 7.47176 29.1334C7.47176 29.6822 7.65827 30.2152 8.00091 30.6468L8.91132 31.8172C9.24327 32.2582 9.71655 32.5745 10.254 32.7143C10.7913 32.8546 11.3607 32.8095 11.8689 32.5875L12.8808 32.1562H12.8804C13.8952 32.8924 15.0188 33.4688 16.2115 33.8656L16.414 34.8973H16.4136C16.5188 35.4408 16.8068 35.9331 17.2308 36.2941C17.6547 36.6547 18.1897 36.8628 18.7484 36.8844L20.2426 36.9535H20.3675C20.895 36.9466 21.4069 36.7722 21.8268 36.4563C22.2471 36.1401 22.554 35.699 22.7023 35.1977L23.0137 34.1583H23.0133C24.1629 33.8892 25.2668 33.4562 26.2897 32.8721L27.2001 33.4034L27.2005 33.4038C27.6775 33.6843 28.2362 33.7986 28.7868 33.7274C29.3373 33.6559 29.8475 33.4038 30.2357 33.0108L31.2394 31.8944C31.6281 31.5034 31.8721 30.9948 31.9329 30.4501C31.9937 29.9053 31.8672 29.3561 31.5743 28.8911L30.9905 27.9671C31.2945 27.3781 31.5545 26.7683 31.7686 26.1419L32.8347 25.9342H32.8351C33.382 25.8281 33.8766 25.5423 34.2386 25.1228C34.6001 24.7033 34.808 24.1748 34.8273 23.624L34.8972 22.1532L34.8976 22.1528C34.9169 21.613 34.7546 21.0821 34.4366 20.643C34.1182 20.204 33.6618 19.882 33.1383 19.7271L33.1384 19.7272ZM32.516 23.5777C32.5098 23.6403 32.4618 23.6907 32.3993 23.7008L30.6484 24.0472C30.2108 24.1301 29.86 24.4533 29.7454 24.8789C29.4948 25.7753 29.1205 26.633 28.6324 27.4281C28.4024 27.7989 28.4024 28.266 28.6324 28.6371L29.5819 30.1774V30.177C29.6172 30.2254 29.6172 30.2904 29.5819 30.3388L28.5236 31.3555C28.4768 31.3957 28.4069 31.3957 28.3601 31.3555L26.8034 30.4624L26.8038 30.462C26.425 30.2278 25.9448 30.2278 25.5663 30.462C24.4357 31.2063 23.1609 31.7099 21.8228 31.9404C21.3975 32.0087 21.0463 32.3055 20.9124 32.7108L20.3988 34.4125H20.3984C20.375 34.4694 20.3208 34.5084 20.2583 34.5125L18.7641 34.4357C18.6984 34.4357 18.6437 34.3852 18.6396 34.3202L18.3048 32.6108L18.3052 32.6104C18.2004 32.223 17.8997 31.9169 17.511 31.8018C16.1393 31.4348 14.8628 30.7811 13.7679 29.8843C13.5497 29.7046 13.2732 29.6087 12.9894 29.6148C12.8283 29.614 12.6689 29.6481 12.5227 29.7152L10.8806 30.4315V30.4311C10.8194 30.455 10.7495 30.4363 10.7092 30.3851L9.79884 29.2148V29.2144C9.75981 29.1648 9.75981 29.0949 9.79884 29.0453L10.904 27.6822C11.1752 27.3501 11.2409 26.898 11.0749 26.5037C10.7043 25.7183 10.4426 24.887 10.2968 24.0321C10.2191 23.6008 9.90321 23.25 9.47965 23.1232L7.75984 22.615C7.6978 22.5975 7.6559 22.5402 7.65836 22.4764L7.73601 21.0056H7.73642C7.73847 20.9426 7.78326 20.8886 7.8453 20.8747L9.58067 20.5511C10.0388 20.4678 10.4028 20.1227 10.5071 19.6735C10.7454 18.7718 11.1123 17.9084 11.5966 17.1092C11.83 16.7364 11.83 16.2648 11.5966 15.8925L10.6472 14.3908C10.6053 14.3416 10.6053 14.2701 10.6472 14.2213L11.6821 13.1664C11.7314 13.1249 11.8041 13.1249 11.8534 13.1664L13.4101 14.0595H13.4097C13.7864 14.2904 14.263 14.2904 14.6392 14.0595C15.7649 13.3245 17.0311 12.8265 18.3594 12.5964C18.7969 12.5179 19.1523 12.2021 19.278 11.7801L19.7837 10.0784V10.078C19.8006 10.0199 19.8544 9.97922 19.916 9.978L21.4102 10.0471V10.0475C21.4739 10.0491 21.5286 10.0935 21.5425 10.1552L21.8852 11.8724C21.9718 12.3033 22.2972 12.6492 22.7253 12.7659C24.0975 13.1329 25.374 13.7866 26.4689 14.683C26.8087 14.9631 27.2807 15.0261 27.6829 14.8448L29.325 14.1208V14.1212C29.3838 14.0984 29.4507 14.1171 29.4885 14.1671L30.4067 15.3298V15.3302C30.4486 15.379 30.4486 15.4505 30.4067 15.4993L29.2938 16.8855H29.2942C29.0551 17.2221 29.0136 17.6582 29.1849 18.033C29.5501 18.8208 29.8114 19.6514 29.9634 20.505C30.0201 20.9392 30.3221 21.3038 30.7416 21.4445L32.4614 21.9449C32.5222 21.9632 32.5612 22.0213 32.555 22.0835L32.516 23.5777Z" fill="#2667FF"/>
<path d="M20.3514 16.9019C18.5096 16.9628 16.824 17.9409 15.8708 19.5019C14.9176 21.0625 14.8268 22.9938 15.6288 24.6353C16.4307 26.2772 18.0174 27.4061 19.8452 27.6366H20.0946C21.9203 27.5142 23.5621 26.4927 24.4651 24.9174C25.3677 23.3422 25.4108 21.4239 24.5797 19.8104C23.7486 18.1974 22.1542 17.1047 20.3357 16.9019H20.3514ZM19.9701 25.3264C19.1526 25.2845 18.3843 24.9256 17.8322 24.3276C17.2804 23.7292 16.9887 22.9402 17.0203 22.1308C17.0602 21.3406 17.4057 20.5963 17.9854 20.0516C18.5651 19.5069 19.3341 19.2036 20.1333 19.2044H20.2812C21.2963 19.3658 22.1657 20.0126 22.6036 20.9329C23.042 21.8532 22.9927 22.928 22.4721 23.8053C21.9516 24.6826 21.0268 25.2493 20.001 25.3188L19.9701 25.3264Z" fill="#2667FF"/>
</svg>
