<svg width="53" height="53" viewBox="0 0 53 53" fill="none" xmlns="http://www.w3.org/2000/svg">
<path fill-rule="evenodd" clip-rule="evenodd" d="M26.704 2.26907C32.9761 1.65283 39.7544 1.79753 44.5178 5.96224C49.529 10.3436 50.6481 17.3071 51.4953 23.9444C52.5205 31.9748 55.027 41.1157 49.7879 47.2466C44.4086 53.5416 34.9393 53.0406 26.704 52.9558C18.5849 52.8721 9.47414 52.9077 4.08656 46.7757C-1.15563 40.8092 -0.43631 31.7435 1.2145 23.9444C2.53411 17.7101 7.22035 13.2594 12.0503 9.1522C16.3337 5.50977 21.1297 2.81675 26.704 2.26907Z" fill="#FC721A" fill-opacity="0.1"/>
<path d="M24.001 0.45752C16.7544 0.45752 10.3197 3.87851 6.30913 9.14977C6.29175 9.1671 6.27479 9.18526 6.25869 9.20382C6.24936 9.22032 6.24046 9.23682 6.23198 9.25415C3.57256 12.794 2 17.1551 2 21.8699C2 26.5847 3.57213 30.947 6.23198 34.4867C6.24046 34.5032 6.24936 34.5197 6.25869 34.5358C6.27479 34.5544 6.29175 34.5725 6.30913 34.5899C6.86356 35.3185 7.46891 36.0074 8.11184 36.6613V32.2023C7.84225 32.3599 7.5697 32.5146 7.30774 32.6801C5.35962 29.8338 4.15915 26.4595 3.98032 22.8215H8.2237C8.39029 22.1057 8.74252 21.4535 9.22913 20.9183H3.98028C4.15915 17.2816 5.35914 13.9085 7.30596 11.0627C8.95481 12.104 10.758 12.9915 12.6829 13.7031C12.2586 15.5328 11.9835 17.4933 11.8597 19.5346C12.0504 19.5091 12.2433 19.4909 12.4413 19.4909H13.8201C13.9392 17.6823 14.1864 15.947 14.5505 14.3277C17.2026 15.1194 20.0515 15.5852 23.0216 15.6697V19.4913H24.9782V15.6697C27.9496 15.5856 30.8001 15.119 33.4535 14.3268C33.8181 15.9466 34.0652 17.6823 34.1839 19.4912H35.5598C35.7582 19.4912 35.9523 19.5094 36.1431 19.535C36.0193 17.4936 35.7442 15.5339 35.319 13.7043C37.2438 12.9926 39.047 12.1047 40.6959 11.0639C42.6424 13.9093 43.8406 17.2824 44.02 20.9187H38.7741C39.2611 21.4542 39.6138 22.1061 39.7804 22.8219H44.0199C43.8411 26.4594 42.6419 29.8334 40.6943 32.6796C40.4327 32.5146 40.161 32.3603 39.8923 32.2027V36.66C40.5281 36.0131 41.1266 35.3312 41.676 34.6109C41.7006 34.5874 41.7239 34.5626 41.7455 34.5366C41.7684 34.504 41.7892 34.4702 41.8074 34.4351C44.4435 30.9044 46 26.5627 46 21.8701C46 17.1797 44.4444 12.8399 41.81 9.31027C41.7909 9.27355 41.7689 9.23807 41.7452 9.20424C41.7235 9.17907 41.7006 9.15473 41.6765 9.13163C37.6658 3.87103 31.2386 0.457961 24.0009 0.457961L24.001 0.45752ZM23.0223 2.45386V13.7653C20.2107 13.6803 17.522 13.2302 15.0292 12.4764C15.5353 10.7569 16.1733 9.19825 16.9129 7.85208C18.6071 4.76937 20.7617 2.88034 23.0218 2.4546L23.0223 2.45386ZM24.9788 2.45386C27.2402 2.87921 29.3974 4.76832 31.0916 7.85134C31.8312 9.19751 32.4687 10.7566 32.9745 12.4757C30.4812 13.2299 27.7908 13.6795 24.9784 13.7645L24.9788 2.45386ZM17.8708 3.2893C16.865 4.30131 15.9634 5.5444 15.1877 6.95574C14.3891 8.4088 13.7109 10.0532 13.1746 11.8458C11.4914 11.2089 9.91418 10.4291 8.4701 9.52684C10.89 6.64428 14.142 4.45107 17.8704 3.28898L17.8708 3.2893ZM30.1306 3.2893C33.8594 4.45149 37.111 6.6447 39.5309 9.52716C38.0871 10.429 36.5112 11.2092 34.8284 11.8462C34.2918 10.0531 33.6123 8.40911 32.8138 6.95606C32.0381 5.54472 31.1365 4.30205 30.1306 3.28962V3.2893ZM12.442 20.9176C10.8567 20.9176 9.57953 22.2188 9.57953 23.7622V37.638C9.57953 39.1813 10.8567 40.4826 12.442 40.4826H19.4974V44.069H17.3357C17.0758 44.069 16.827 44.1688 16.6435 44.3475C16.4599 44.5261 16.3569 44.7683 16.3569 45.0208C16.3565 45.2733 16.4595 45.5159 16.6431 45.6945C16.8266 45.8731 17.0758 45.9734 17.3357 45.9734H30.6697C30.9291 45.9734 31.1783 45.8731 31.3619 45.6945C31.5454 45.5159 31.6484 45.2733 31.6484 45.0208C31.6484 44.7683 31.545 44.5261 31.3614 44.3475C31.1779 44.1688 30.9291 44.069 30.6697 44.069H28.5049V40.4826H35.5604C37.1457 40.4826 38.4258 39.1814 38.4258 37.638V23.7622C38.4258 22.2189 37.1457 20.9176 35.5604 20.9176H12.442ZM12.442 22.8208H35.5605C36.0632 22.8208 36.4697 23.209 36.4697 23.7622V37.638C36.4697 38.1912 36.0632 38.5794 35.5605 38.5794H12.442C11.9393 38.5794 11.5357 38.1912 11.5357 37.638V23.7622C11.5357 23.209 11.9393 22.8208 12.442 22.8208ZM27.4113 25.6942V36.0071H30.0905V25.6942H27.4113ZM22.663 28.7917V36.007H25.3431V28.7917H22.663ZM17.9156 31.421V36.0075H20.5948V31.421H17.9156ZM21.4533 40.4821H26.5491V44.0685H21.4533V40.4821Z" fill="#FC721A"/>
</svg>
