<svg width="51" height="53" viewBox="0 0 51 53" fill="none" xmlns="http://www.w3.org/2000/svg">
<path fill-rule="evenodd" clip-rule="evenodd" d="M21.9909 1.19694C27.156 0.691091 32.738 0.809872 36.6607 4.22856C40.7874 7.82508 41.709 13.5412 42.4067 18.9896C43.2509 25.5815 45.3151 33.0849 41.0007 38.1176C36.5707 43.285 28.7727 42.8738 21.9909 42.8041C15.3048 42.7355 7.80201 42.7646 3.36531 37.7311C-0.951669 32.8334 -0.359304 25.3916 1.00015 18.9896C2.08686 13.8721 5.946 10.2186 9.9235 6.8471C13.4509 3.85714 17.4004 1.64652 21.9909 1.19694Z" fill="#3EDBB4" fill-opacity="0.1"/>
<path d="M6.23534 5.11727V48.4506C6.23673 49.5999 6.69865 50.7011 7.51941 51.5136C8.3406 52.3257 9.45357 52.7828 10.615 52.7842H36.8918C38.0529 52.7828 39.1663 52.3258 39.9874 51.5136C40.8081 50.7011 41.2701 49.5998 41.2715 48.4506V40.6509H39.5195V48.4511V48.4506C39.519 49.1401 39.2416 49.8012 38.7492 50.2884C38.2563 50.7757 37.5886 51.0502 36.8918 51.0506H10.615C9.91823 51.0502 9.25012 50.7757 8.7577 50.2884C8.26526 49.8012 7.98784 49.14 7.98738 48.4506V5.11728C7.98784 4.42827 8.26527 3.7672 8.7577 3.27985C9.25014 2.79213 9.91827 2.51809 10.615 2.51717H18.1352L19.6305 3.99679C19.7947 4.15921 20.0175 4.25072 20.2496 4.25072H27.257C27.4891 4.25072 27.712 4.15921 27.8761 3.99679L29.3715 2.51717H36.8916C37.5884 2.51809 38.256 2.79214 38.7489 3.27985C39.2414 3.7671 39.5188 4.42821 39.5193 5.11728V9.45085H41.2712V5.11728C41.2699 3.96846 40.8079 2.86722 39.9872 2.05473C39.166 1.24219 38.0525 0.785585 36.8916 0.78418H10.6148C9.45327 0.785552 8.3403 1.24215 7.51918 2.05473C6.69845 2.86728 6.23653 3.96853 6.23511 5.11728L6.23534 5.11727Z" fill="#3EDBB4"/>
<path d="M17.6213 34.5842H19.3732C19.7237 34.5842 20.04 34.3778 20.1782 34.0589L22.5752 28.5244C24.1732 28.5944 25.6412 29.4143 26.5277 30.7315C26.69 30.9726 26.9633 31.1176 27.2564 31.1176H29.8841C30.3677 31.1176 30.7598 30.7296 30.7598 30.2511V27.6511C31.6985 27.6511 32.5659 27.1556 33.0357 26.3508C33.505 25.5464 33.505 24.5555 33.0357 23.7507C32.5659 22.9464 31.6985 22.4509 30.7598 22.4509V19.8509C30.7598 19.3723 30.3677 18.9839 29.8841 18.9839H27.2564C26.9633 18.9839 26.69 19.1289 26.5277 19.37C25.5969 20.7544 24.0271 21.5858 22.3464 21.5839H16.7457C16.5131 21.5839 16.2907 21.6754 16.1261 21.8378L14.3741 23.5714H14.3745C14.2099 23.7338 14.1179 23.9543 14.1179 24.184V25.9175C14.1179 26.1472 14.2099 26.3677 14.3745 26.5306L16.1265 28.2641L16.1261 28.2637C16.2907 28.4261 16.5131 28.5176 16.7457 28.5176V33.7177C16.7457 34.1962 17.1378 34.5842 17.6214 34.5842L17.6213 34.5842ZM31.635 25.0506V25.051C31.6345 25.5291 31.2429 25.9171 30.7593 25.9175V24.184C31.2429 24.1849 31.6345 24.5724 31.635 25.051V25.0506ZM27.7038 20.717L29.0073 20.7174V29.3841H27.7043C26.4221 27.7425 24.4426 26.7817 22.3457 26.7841H21.1242V23.3175H22.3457C24.4426 23.3198 26.4221 22.3594 27.7043 20.7174L27.7038 20.717ZM15.8693 25.5584V24.5432L17.1075 23.3175H19.3728V26.7841H17.1075L15.8693 25.5584ZM20.672 28.5176L18.7952 32.8512H18.4966V28.5176H20.672Z" fill="#3EDBB4"/>
<path d="M15.8706 9.45123C15.8706 9.92991 15.478 10.318 14.9944 10.318C14.5107 10.318 14.1187 9.92991 14.1187 9.45123C14.1187 8.97255 14.5107 8.58447 14.9944 8.58447C15.478 8.58447 15.8706 8.97255 15.8706 9.45123Z" fill="#3EDBB4"/>
<path d="M18.4972 9.45123C18.4972 9.92991 18.1051 10.318 17.6215 10.318C17.1378 10.318 16.7457 9.92991 16.7457 9.45123C16.7457 8.97255 17.1378 8.58447 17.6215 8.58447C18.1051 8.58447 18.4972 8.97255 18.4972 9.45123Z" fill="#3EDBB4"/>
<path d="M21.125 9.45123C21.125 9.92991 20.7329 10.318 20.2493 10.318C19.7656 10.318 19.3735 9.92991 19.3735 9.45123C19.3735 8.97255 19.7656 8.58447 20.2493 8.58447C20.7329 8.58447 21.125 8.97255 21.125 9.45123Z" fill="#3EDBB4"/>
<path d="M36.8918 33.2092L42.4037 38.6632L43.6425 37.4375L34.0075 27.9039L32.7687 29.1296L35.1402 31.4761V42.3837H12.3672V12.9166H35.1402V18.6245L32.7692 20.9706L34.0079 22.1963L43.6429 12.6627L42.4042 11.437L36.8918 16.891V8.5834C36.8913 7.89393 36.6139 7.23285 36.1214 6.74561C35.6285 6.25836 34.9609 5.98386 34.2641 5.9834H13.2429C12.5461 5.98386 11.878 6.25837 11.3856 6.74561C10.8931 7.23287 10.6157 7.89397 10.6152 8.5834V43.2508C10.6152 43.7293 11.0073 44.1173 11.491 44.1173H36.0159C36.4996 44.1173 36.8917 43.7293 36.8917 43.2508L36.8918 33.2092ZM13.2427 7.7161H34.264C34.7476 7.71656 35.1392 8.10453 35.1402 8.58308V11.1831H12.3671V8.58308C12.3676 8.10453 12.7596 7.71656 13.2433 7.7161H13.2427Z" fill="#3EDBB4"/>
<path d="M11.4908 46.7183H14.9943V48.4523H11.4908V46.7183Z" fill="#3EDBB4"/>
<path d="M33.3882 46.7183H36.8917V48.4523H33.3882V46.7183Z" fill="#3EDBB4"/>
<path d="M35.1399 24.1836H46.5264V25.9176H35.1399V24.1836Z" fill="#3EDBB4"/>
<path d="M48.2778 24.1836H50.9055V25.9176H48.2778V24.1836Z" fill="#3EDBB4"/>
<path d="M44.1549 9.70522L45.9069 7.97168L47.1456 9.19738L45.3936 10.9309L44.1549 9.70522Z" fill="#3EDBB4"/>
<path d="M44.1549 40.3971L45.3936 39.1714L47.1456 40.9049L45.9069 42.1306L44.1549 40.3971Z" fill="#3EDBB4"/>
</svg>
