<svg width="65" height="55" viewBox="0 0 65 55" fill="none" xmlns="http://www.w3.org/2000/svg">
<path fill-rule="evenodd" clip-rule="evenodd" d="M39.4615 8.24796C33.6628 7.68006 27.3961 7.81341 22.9922 11.6515C18.3592 15.6892 17.3246 22.1066 16.5412 28.2233C15.5935 35.6238 13.2761 44.0478 18.1198 49.6978C23.0932 55.4991 31.8478 55.0375 39.4615 54.9593C46.9678 54.8822 55.391 54.9149 60.372 49.2639C65.2186 43.7653 64.5535 35.4106 63.0273 28.2233C61.8073 22.478 57.4747 18.3763 53.0093 14.5912C49.0492 11.2345 44.6151 8.75269 39.4615 8.24796Z" fill="#FC721A" fill-opacity="0.05"/>
<path d="M16.6272 41.9297C16.6276 44.5827 17.7183 47.1214 19.6493 48.962C21.5797 50.8029 24.1845 51.7873 26.8639 51.6888C29.543 51.5904 32.0665 50.4179 33.8541 48.4404L32.6284 47.3556H32.6288C30.9064 49.2614 28.3789 50.2556 25.8041 50.0399C23.2293 49.8242 20.9068 48.4241 19.5326 46.2587C18.1579 44.0933 17.8921 41.4151 18.814 39.0268C19.7358 36.6384 21.7383 34.8173 24.2211 34.1096C26.7043 33.402 29.3789 33.8901 31.4436 35.4273C33.5082 36.9649 34.7227 39.3725 34.7231 41.9297C34.7231 42.1819 34.6984 42.4311 34.6754 42.6807L33.7358 41.4412L32.4197 42.4177L34.8872 45.673C35.0427 45.878 35.2867 45.9987 35.5455 45.9987C35.8042 45.9987 36.0483 45.878 36.2033 45.673L38.6708 42.4177L37.3547 41.4412L36.3118 42.8173C36.3383 42.5226 36.3678 42.2274 36.3678 41.9292V41.9297C36.3678 38.4402 34.4868 35.2163 31.4327 33.4716C28.379 31.7269 24.6167 31.7269 21.5625 33.4716C18.5088 35.2163 16.6275 38.4403 16.6275 41.9297L16.6272 41.9297Z" fill="#FC721A" stroke="#FC721A" stroke-width="0.5"/>
<path d="M25.6752 42.2399L22.8398 43.6422L23.5754 45.0991L26.8653 43.4712C27.1441 43.3333 27.3204 43.0514 27.3204 42.7429V36.2319H25.6752V42.2399Z" fill="#FC721A" stroke="#FC721A" stroke-width="0.5"/>
<path d="M40.4812 41.1157H51.9969V42.744H40.4812V41.1157Z" fill="#FC721A" stroke="#FC721A" stroke-width="0.5"/>
<path d="M1 41.1157H14.9833V42.744H1V41.1157Z" fill="#FC721A" stroke="#FC721A" stroke-width="0.5"/>
<path d="M10.8705 39.4879V21.5823C10.8705 21.3666 10.7841 21.1595 10.6295 21.007C10.4754 20.8545 10.2661 20.7686 10.0481 20.7686H3.46788C3.01371 20.7686 2.64551 21.1329 2.64551 21.5823V39.4878H4.29071V22.3973H9.22577V39.4878L10.8705 39.4879Z" fill="#FC721A" stroke="#FC721A" stroke-width="0.5"/>
<path d="M23.2076 12.6309H16.6273C16.1731 12.6309 15.8049 12.9952 15.8049 13.4446V34.6046H17.4501V14.2585H22.3852V30.5352H24.0304L24.03 13.4446C24.03 13.2289 23.9436 13.0218 23.7894 12.8693C23.6348 12.7164 23.4256 12.6309 23.2076 12.6309L23.2076 12.6309Z" fill="#FC721A" stroke="#FC721A" stroke-width="0.5"/>
<path d="M37.191 34.6045V21.5823C37.191 21.3666 37.1042 21.1595 36.95 21.007C36.7955 20.8545 36.5866 20.7686 36.3682 20.7686H29.7884C29.3338 20.7686 28.9656 21.1329 28.9656 21.5823V30.5348H30.6108V22.3964H35.5458V34.6047L37.191 34.6045Z" fill="#FC721A" stroke="#FC721A" stroke-width="0.5"/>
<path d="M50.3507 39.488V13.4446C50.3507 13.2289 50.2639 13.0218 50.1098 12.8693C49.9556 12.7164 49.7463 12.6309 49.5279 12.6309H42.9481C42.4939 12.6309 42.1257 12.9952 42.1257 13.4446V39.4879H43.7709L43.7705 14.2585H48.7056V39.4879L50.3507 39.488Z" fill="#FC721A" stroke="#FC721A" stroke-width="0.5"/>
<path d="M46.2378 7.74743C47.1105 7.74743 47.9472 7.40459 48.5643 6.79408C49.1813 6.18358 49.5278 5.35526 49.5278 4.4921C49.5278 3.62854 49.1813 2.80063 48.5643 2.19011C47.9473 1.5796 47.1106 1.23633 46.2378 1.23633C45.3655 1.23633 44.5283 1.5796 43.9113 2.19011C43.2943 2.80061 42.9478 3.62849 42.9478 4.4921C42.9513 4.82377 43.0069 5.15329 43.1124 5.46864L35.3345 10.2702C34.7149 9.68371 33.887 9.36106 33.0294 9.37222C32.1719 9.38339 31.353 9.7271 30.7489 10.3299L22.2451 5.37877C22.3333 5.09135 22.3806 4.79276 22.385 4.49202C22.3845 3.51805 21.9434 2.59565 21.1827 1.97787C20.4224 1.36006 19.4225 1.11131 18.4569 1.29991C17.4916 1.48895 16.6623 2.09516 16.1964 2.95309C15.7309 3.81107 15.6775 4.82966 16.0514 5.73066L7.97619 11.7253C7.39914 11.2609 6.67879 11.0061 5.93461 11.0027C4.98501 11.0014 4.08099 11.4056 3.45407 12.1111C2.82709 12.817 2.53791 13.7557 2.66079 14.6876C2.78367 15.6195 3.30645 16.4534 4.0958 16.9763C4.88475 17.4996 5.86339 17.6602 6.78086 17.4179C7.69834 17.1756 8.46553 16.5535 8.88669 15.7114C9.30744 14.8689 9.34086 13.8881 8.97788 13.0193L17.0566 7.02423V7.02466C17.6845 7.52991 18.4795 7.78596 19.2875 7.74256C20.0955 7.69916 20.8585 7.35933 21.4268 6.78921L29.9276 11.7433C29.839 12.0311 29.7921 12.3297 29.7878 12.6305C29.7878 13.7934 30.4148 14.868 31.4325 15.4497C32.4507 16.0314 33.7047 16.0314 34.723 15.4497C35.7407 14.868 36.3677 13.7934 36.3677 12.6305C36.3642 12.2984 36.3087 11.9688 36.2031 11.6539L43.981 6.85196C44.5893 7.42638 45.3973 7.74687 46.238 7.7473L46.2378 7.74743ZM46.2378 2.86432C46.6742 2.86432 47.0927 3.03574 47.401 3.3412C47.7097 3.64623 47.883 4.0604 47.883 4.4922C47.883 4.92355 47.7097 5.33771 47.401 5.64319C47.0927 5.94822 46.6742 6.11964 46.2378 6.11964C45.8014 6.11964 45.3833 5.94822 45.0746 5.64319C44.7663 5.33773 44.5926 4.92356 44.5926 4.4922C44.5926 4.06042 44.7663 3.64625 45.0746 3.3412C45.3833 3.03574 45.8014 2.86432 46.2378 2.86432ZM5.9341 15.8855C5.49772 15.8855 5.07959 15.714 4.77086 15.4086C4.46258 15.1035 4.28934 14.6894 4.28934 14.258C4.28934 13.8262 4.46258 13.4121 4.77086 13.107C5.07957 12.8016 5.49771 12.6301 5.9341 12.6301C6.37047 12.6301 6.78903 12.8016 7.09733 13.107C7.40604 13.4121 7.57929 13.8262 7.57929 14.258C7.57929 14.6894 7.40604 15.1035 7.09733 15.4086C6.78905 15.714 6.37048 15.8855 5.9341 15.8855ZM19.0937 6.11911C18.6578 6.11911 18.2392 5.94768 17.9305 5.64265C17.6222 5.33719 17.449 4.92302 17.449 4.49165C17.449 4.05988 17.6222 3.64572 17.9305 3.34066C18.2392 3.0352 18.6578 2.86378 19.0937 2.86378C19.5301 2.86378 19.9487 3.0352 20.257 3.34066C20.5657 3.64569 20.7389 4.05986 20.7389 4.49165C20.7389 4.92301 20.5657 5.33717 20.257 5.64265C19.9487 5.94768 19.5301 6.11911 19.0937 6.11911ZM33.077 14.258C32.6407 14.258 32.2221 14.0862 31.9138 13.7811C31.6051 13.4757 31.4318 13.0619 31.4318 12.6301C31.4318 12.1983 31.6051 11.7842 31.9138 11.4791C32.2221 11.1737 32.6407 11.0022 33.077 11.0022C33.5134 11.0022 33.9315 11.1737 34.2403 11.4791C34.5485 11.7842 34.7222 12.1983 34.7222 12.6301C34.7222 13.0619 34.5485 13.4756 34.2403 13.7811C33.9316 14.0862 33.5134 14.258 33.077 14.258Z" fill="#FC721A" stroke="#FC721A" stroke-width="0.5"/>
</svg>
