<svg width="53" height="51" viewBox="0 0 53 51" fill="none" xmlns="http://www.w3.org/2000/svg">
<path fill-rule="evenodd" clip-rule="evenodd" d="M26.296 0.269065C20.0239 -0.347172 13.2456 -0.20247 8.48219 3.96224C3.47099 8.34359 2.35194 15.3071 1.50465 21.9444C0.479542 29.9748 -2.02703 39.1157 3.21207 45.2466C8.59143 51.5416 18.0607 51.0406 26.296 50.9558C34.4151 50.8721 43.5259 50.9077 48.9134 44.7757C54.1556 38.8092 53.4363 29.7435 51.7855 21.9444C50.4659 15.7101 45.7797 11.2594 40.9497 7.1522C36.6663 3.50977 31.8703 0.816746 26.296 0.269065Z" fill="#3EDBB4" fill-opacity="0.1"/>
<path d="M39.4961 30.9845C39.1792 30.8974 38.843 31.0299 38.6736 31.3087C38.6343 31.3733 34.676 37.7759 29.0134 38.1723C28.6097 38.2006 28.3052 38.5469 28.3334 38.9464C28.362 39.3462 28.712 39.6472 29.1157 39.6193C33.4549 39.3153 36.783 36.1079 38.5406 33.9659C38.3225 37.074 36.9215 39.9847 34.6205 42.1114C32.3195 44.2382 29.289 45.4227 26.1401 45.4262C25.7364 45.4262 25.4091 45.75 25.4091 46.1495V47.4192L19.926 42.5322L25.4091 37.6457V38.9154C25.4091 39.3149 25.7364 39.6387 26.1401 39.6387C26.5442 39.6387 26.8715 39.3149 26.8715 38.9154V36.0219C26.8711 35.7362 26.7012 35.4773 26.4377 35.3608C26.1737 35.2447 25.8657 35.2932 25.6511 35.4842L18.3401 41.9949C18.1861 42.132 18.0981 42.3276 18.0981 42.5323C18.0981 42.7373 18.1861 42.9329 18.3401 43.0699L25.6511 49.5807C25.8657 49.7717 26.1737 49.8202 26.4377 49.7037C26.7013 49.5876 26.8711 49.3287 26.8715 49.043V46.854C30.4225 46.6646 33.7656 45.1364 36.2133 42.5834C38.6606 40.0305 40.0273 36.647 40.0311 33.1279V31.6813C40.0311 31.3563 39.8123 31.0715 39.4962 30.9844L39.4961 30.9845Z" fill="#3EDBB4" stroke="#3EDBB4" stroke-width="0.4"/>
<path d="M16.0057 42.2917C9.59171 41.4061 4.93793 38.1608 4.93793 34.5749V31.3029C7.45195 34.5401 12.9799 36.7451 19.5597 36.7451C20.3134 36.7451 21.071 36.7146 21.8121 36.6546H21.8124C22.0085 36.6428 22.1918 36.5534 22.3203 36.4068C22.4493 36.2598 22.5129 36.0677 22.4967 35.8741C22.4809 35.6801 22.3867 35.501 22.2358 35.3765C22.0849 35.252 21.8893 35.1932 21.694 35.213C20.9919 35.2692 20.2741 35.2982 19.5596 35.2982C11.4972 35.2982 4.9379 31.7283 4.9379 27.3408V24.0688C7.45192 27.306 12.9799 29.511 19.5596 29.511C26.1397 29.511 31.6678 27.306 34.1814 24.0688L34.1818 27.3408C34.1818 29.718 32.2077 31.9627 28.7634 33.4991C28.5836 33.5758 28.4423 33.7209 28.3717 33.902C28.3011 34.0826 28.3065 34.2838 28.3871 34.4606C28.4674 34.6371 28.6164 34.7745 28.8001 34.8418C28.9838 34.909 29.1872 34.9002 29.3644 34.8177C31.2355 34.0471 32.8884 32.8372 34.1818 31.2933V33.1279C34.1818 33.5273 34.509 33.8515 34.9127 33.8515C35.3164 33.8515 35.6441 33.5273 35.6441 33.1279V12.8725C35.6441 7.59911 28.5794 3.46826 19.5591 3.46826C10.5396 3.46826 3.4751 7.59911 3.4751 12.8725V34.5748C3.4751 38.9599 8.54454 42.7227 15.8026 43.7243C15.8366 43.7293 15.871 43.732 15.9053 43.7316C16.2905 43.7331 16.6108 43.4387 16.6375 43.0583C16.6641 42.678 16.3881 42.3423 16.0061 42.2915L16.0057 42.2917ZM19.5596 4.9152C27.6223 4.9152 34.1823 8.48509 34.1823 12.8726C34.1823 17.26 27.6227 20.8302 19.5596 20.8302C11.4971 20.8302 4.93783 17.2599 4.93783 12.8726C4.93783 8.48519 11.4974 4.9152 19.5596 4.9152ZM19.5596 22.2768C26.1396 22.2768 31.6678 20.0718 34.1813 16.8346L34.1817 20.1062C34.1817 24.4937 27.6221 28.0639 19.56 28.0639C11.4972 28.0639 4.93723 24.494 4.93723 20.1062V16.8342C7.45125 20.0718 12.9792 22.2764 19.559 22.2764L19.5596 22.2768Z" fill="#3EDBB4" stroke="#3EDBB4" stroke-width="0.4"/>
</svg>
