<svg width="54" height="54" viewBox="0 0 54 54" fill="none" xmlns="http://www.w3.org/2000/svg">
<path fill-rule="evenodd" clip-rule="evenodd" d="M29.3114 7.24796C23.5127 6.68006 17.2459 6.81341 12.842 10.6515C8.20903 14.6892 7.17443 21.1066 6.39109 27.2233C5.44335 34.6238 3.12595 43.0478 7.96964 48.6978C12.943 54.4991 21.6977 54.0375 29.3114 53.9593C36.8177 53.8822 45.2409 53.9149 50.2219 48.2639C55.0684 42.7653 54.4034 34.4106 52.8772 27.2233C51.6571 21.478 47.3246 17.3763 42.8592 13.5912C38.899 10.2345 34.465 7.75269 29.3114 7.24796Z" fill="#2667FF" fill-opacity="0.05"/>
<path d="M27.7877 7.75939H34.2136C34.6508 7.75939 35.0047 7.40866 35.0047 6.97638C35.0047 6.54409 34.6508 6.19336 34.2136 6.19336H27.7877C27.3505 6.19336 26.9966 6.54409 26.9966 6.97638C26.9966 7.40866 27.3505 7.75939 27.7877 7.75939Z" fill="#2667FF" stroke="#2667FF" stroke-width="0.5"/>
<path d="M34.214 11.2114H21.3636C20.9264 11.2114 20.5725 11.5622 20.5725 11.9944C20.5725 12.4267 20.9264 12.7775 21.3636 12.7775H34.214C34.6512 12.7775 35.0051 12.4267 35.0051 11.9944C35.0051 11.5622 34.6512 11.2114 34.214 11.2114Z" fill="#2667FF" stroke="#2667FF" stroke-width="0.5"/>
<path d="M34.214 16.23H21.3636C20.9264 16.23 20.5725 16.5807 20.5725 17.013C20.5725 17.4453 20.9264 17.796 21.3636 17.796H34.214C34.6512 17.796 35.0051 17.4453 35.0051 17.013C35.0051 16.5807 34.6512 16.23 34.214 16.23Z" fill="#2667FF" stroke="#2667FF" stroke-width="0.5"/>
<path d="M34.214 21.2495H21.3636C20.9264 21.2495 20.5725 21.6002 20.5725 22.0325C20.5725 22.4648 20.9264 22.8155 21.3636 22.8155H34.214C34.6512 22.8155 35.0051 22.4648 35.0051 22.0325C35.0051 21.6002 34.6512 21.2495 34.214 21.2495Z" fill="#2667FF" stroke="#2667FF" stroke-width="0.5"/>
<path d="M19.1898 37.4275H43.8046C46.5351 37.4275 48.7572 35.2292 48.7572 32.5275V30.5613C48.7572 30.1292 48.4033 29.7785 47.966 29.7785H46.2167V7.81C46.2167 7.37782 45.8628 7.02719 45.4256 7.02719H39.1055V1.63046C39.1055 1.19829 38.7516 0.847656 38.3144 0.847656H21.3639C21.1838 0.847656 20.9325 0.934537 20.7889 1.07755L16.7018 5.13547C16.5613 5.27538 16.4717 5.51017 16.4717 5.68839V7.02673H10.1507C9.71348 7.02673 9.35956 7.37737 9.35956 7.80954V23.3601C7.89344 24.1246 6.68944 25.2705 5.86134 26.7101C3.6591 30.5724 4.81625 35.5233 8.47567 38.0258L7.32387 40.032L6.44989 39.5406C6.26663 39.4381 6.05185 39.4105 5.84878 39.4667C5.64615 39.5219 5.47505 39.6542 5.37149 39.8347L1.18614 47.1219C0.487313 48.3426 0.909226 49.9123 2.15873 50.6126C3.39973 51.3117 4.98147 50.8902 5.692 49.6543L9.8755 42.368C10.0916 41.9919 9.95881 41.5139 9.57877 41.3004L8.69894 40.8055L9.8566 38.7885C13.1035 40.2404 16.7251 39.5664 19.1904 37.4278L19.1898 37.4275ZM4.31644 48.8799C4.03772 49.3642 3.41679 49.5215 2.93954 49.2502C2.44784 48.9744 2.29565 48.36 2.56221 47.8939L6.35576 41.288L8.1096 42.2739L4.31644 48.8799ZM47.1739 32.5264C47.1739 34.3651 45.6619 35.8608 43.8037 35.8608H20.6124C20.8759 35.4825 21.1465 35.0316 21.3315 34.6111C21.8264 33.5672 22.1024 32.3388 22.1434 31.3431H47.1732L47.1739 32.5264ZM44.6335 8.59155V29.7777H22.0613C21.9843 29.2283 21.8487 28.6861 21.665 28.1572H38.3135C38.7507 28.1572 39.1047 27.8066 39.1047 27.3744L39.1042 8.59152L44.6335 8.59155ZM37.5224 26.5909H20.9488C20.3342 25.5532 19.3062 24.4264 18.0531 23.6513V6.46975H21.3482C21.7854 6.46975 22.1393 6.11911 22.1393 5.68694V2.41225H37.5222L37.5224 26.5909ZM20.5569 3.53312V4.90363L19.1718 4.90318L20.5569 3.53312ZM16.4707 8.59087V22.8948C14.7015 22.247 12.7541 22.1828 10.9408 22.7201V8.59073L16.4707 8.59087ZM7.23693 27.4799C9.38834 23.7391 14.4116 22.7701 17.8247 25.3957C20.3909 27.3695 21.3337 30.9204 19.8906 33.9629C18.2903 37.565 13.5819 39.1315 9.94452 37.0945C9.93731 37.0901 9.93371 37.083 9.92651 37.0789C9.9202 37.0754 9.913 37.0758 9.90669 37.0727C6.39775 35.062 5.38187 30.7336 7.23703 27.4799L7.23693 27.4799Z" fill="#2667FF" stroke="#2667FF" stroke-width="0.5"/>
</svg>
