<svg width="184" height="205" viewBox="0 0 184 205" fill="none" xmlns="http://www.w3.org/2000/svg">
<path fill-rule="evenodd" clip-rule="evenodd" d="M87.9549 125.56C94.7601 130.373 100.965 134.398 107.707 137.495C111.96 139.419 115.999 142.017 119.984 144.406C123.573 146.566 127.44 148.091 130.963 150.214C137.575 154.296 144.253 158.417 151.641 161.002C158.898 163.511 165.684 166.987 172.826 169.694C177.863 171.63 183.027 173.195 188.26 174.182C193.455 175.236 195.12 181.947 192.167 184.93C191.328 185.773 191.171 186.655 191.541 187.842C192.132 189.864 191.712 191.657 189.98 193.134C188.144 194.639 186.146 194.901 184.015 194.024C177.79 191.404 171.565 188.783 165.379 186.096C155.363 181.817 145.386 177.472 135.534 172.757C129.264 169.757 123.121 166.387 116.862 163.215C112.224 160.892 107.242 159.165 102.528 156.974C97.4453 154.659 92.4503 152.041 87.6744 149.195C81.6179 145.521 75.8296 141.383 70.2987 136.951C55.1356 124.835 41.9344 110.844 32.1591 93.9653C29.6259 89.6719 27.4437 85.2273 26.5999 80.14C26.3555 78.5834 26.2813 77.0367 26.3773 75.4997C27.0105 67.5496 27.8415 59.7137 29.1172 51.8691C29.7902 47.6575 31.2652 43.732 33.7954 40.4157C38.894 33.7167 44.9223 27.9967 52.6011 24.2914C57.8502 21.7486 63.6414 21.4651 69.3453 21.485C77.2342 21.528 84.5781 23.7333 91.4749 27.6267C94.9425 29.5402 98.7165 30.923 102.222 32.7702C106.981 35.3408 111.844 37.8831 116.642 40.3874C121.043 42.6632 125.713 44.4746 130.152 46.684C136.845 50.0172 143.5 53.4168 150.001 57.0818C155.842 60.366 161.886 63.1477 167.892 65.9958C175.057 69.4248 182.096 73.2236 189.031 77.0506C196.956 81.4488 204.984 85.8187 212.909 90.2169C217.497 92.7777 222.114 95.443 226.664 98.0701C227.983 98.8316 229.455 99.3277 230.391 100.753C231.608 102.605 231.935 104.475 230.852 106.504C230.392 107.3 229.971 108.03 229.577 108.864C228.051 111.964 224.957 113.362 221.585 112.654C218.922 112.089 216.499 110.956 214.344 109.358C208.143 104.716 201.367 101.07 194.564 97.3186C191.096 95.405 187.639 93.3207 184.287 91.2082C177.647 87.0211 170.806 83.3365 163.619 80.2491C159.329 78.3909 155.487 75.9074 151.464 73.5848C145.161 70.0341 138.742 66.6824 132.362 63.2644C123.702 58.6181 114.495 55.0715 105.834 50.4253C101.339 48.007 96.893 45.3515 92.234 43.3694C88.3111 41.6353 84.1584 40.2993 80.3504 38.3662C79.4548 37.9375 78.3846 38.1159 77.457 38.1996C75.1571 38.3756 72.9062 38.3146 70.6489 37.8075C68.5619 37.3103 66.4429 37.3254 64.3452 36.9989C61.973 36.691 60.0092 37.5034 58.2112 38.9423C55.0429 41.5363 52.1277 44.4534 49.6081 47.5989C45.7906 52.3836 44.2089 58.0168 43.9675 64.07C43.5041 74.7721 46.4917 84.3704 53.2431 92.78C57.4846 97.6174 61.424 102.369 66.0869 106.476C71.1072 110.879 75.5465 115.83 80.7477 120.072C83.3153 122.173 85.9212 124.209 87.9549 125.56Z" fill="#036A6A" fill-opacity="0.1"/>
<path fill-rule="evenodd" clip-rule="evenodd" d="M207.575 112.704C208.669 113.247 209.786 114.511 210.913 115.604C212.36 117.059 213.921 118.314 215.587 119.541C217.516 120.92 217.937 122.933 216.837 124.686C215.688 126.677 213.383 127.469 211.339 126.289C204.376 122.358 197.02 119.26 190.123 115.367C182.83 111.245 175.385 107.389 168.311 103.039C161.529 98.9469 154.354 95.6887 147.753 91.4353C138.261 85.3358 128.194 80.2315 118.012 75.3263C111.677 72.2879 105.238 69.2777 98.9895 65.9358C96.643 64.6695 94.4115 63.2042 92.1523 61.6345C86.4852 57.7433 80.0582 55.6251 73.3695 54.4173C69.8549 53.8036 66.6463 55.4012 63.878 57.607C62.2226 58.9513 62.2924 61.1148 61.9666 63.0498C60.9552 68.3045 63.1649 72.8536 65.3471 77.2981C67.342 81.4577 70.2583 85.0877 72.4234 89.2571C73.1508 90.7386 74.7059 91.548 75.8992 92.6793C78.3519 94.98 80.4705 97.707 83.3062 99.3443C87.0652 101.515 90.3369 104.377 94.1066 106.376C98.4698 108.718 102.871 110.994 107.311 113.203C110.591 114.832 114.151 115.825 117.508 117.321C119.601 118.264 121.35 119.805 123.443 120.748C130.146 123.91 136.352 127.935 142.863 131.43C150.364 135.495 157.712 139.826 165.252 143.825C171.566 147.205 178.312 149.684 185.03 152.059C188.54 153.289 192.116 154.558 195.676 155.551C197.988 156.267 199.49 157.93 200.915 159.726C201.861 160.98 201.936 162.527 201.131 163.92C200.327 165.314 198.895 165.814 197.335 165.621C194.755 165.37 192.234 164.711 189.685 163.947C175.816 160.098 162.593 154.674 149.773 148.246C143.844 145.265 138.002 141.981 131.92 139.266C127.602 137.303 123.234 135.578 118.905 133.786C116.103 132.699 113.733 130.712 110.97 129.559C108.772 128.644 106.613 127.663 104.569 126.482C101.761 124.949 98.9631 123.246 96.4615 121.182C94.7682 119.851 92.828 118.642 90.8666 117.775C84.1249 114.679 78.0898 110.664 72.3334 106.013C69.8977 103.988 67.5387 101.83 65.2838 99.6433C62.8695 97.2762 61.3488 94.2751 59.9706 91.1793C57.4462 85.6524 54.9047 79.8504 53.3398 73.7274C52.1896 69.1709 51.8903 64.6633 53.3804 59.9503C54.1339 57.7314 54.2832 55.3406 55.2729 53.1696C56.2625 50.9985 57.7584 49.4736 59.7819 48.2533C64.18 45.6616 68.9286 45.6608 73.8261 46.0114C78.4492 46.3804 82.7721 47.7262 87.161 49.1101C93.7305 51.1337 100.234 53.1192 106.476 56.0152C107.042 56.2534 107.673 56.5297 108.316 56.6353C113.133 57.7353 117.479 59.8022 121.727 62.3434C126.437 65.1512 131.404 67.6652 136.191 70.3403C138.895 71.9013 141.341 73.7561 144.083 75.2508C149.859 78.4969 155.509 82.1129 161.438 85.0936C167.301 88.0363 173.192 91.0834 178.672 94.6896C185.366 99.0855 192.203 103.387 199.117 107.555C201.783 109.183 204.667 110.583 207.575 112.704Z" fill="#FF7D05" fill-opacity="0.1"/>
<path fill-rule="evenodd" clip-rule="evenodd" d="M85.1187 75.7973C85.9993 77.0134 86.7417 77.7074 87.5883 78.3732C92.6469 82.7092 98.0672 86.7233 103.613 90.3675C107.785 93.0414 111.765 96.0471 115.975 98.6546C121.757 102.347 127.528 106.21 133.836 109.144C137.72 110.944 141.365 113.313 145.058 115.446C152.01 119.548 159.087 123.28 166.308 126.918C171.011 129.28 175.753 131.575 180.599 133.842C181.995 134.471 183.429 135.034 184.863 135.596C188.505 136.903 191.983 138.645 195.527 140.426C196.884 141.121 198.384 141.722 199.829 142.114C202.009 142.753 203.988 143.896 205.966 145.038C208.708 146.533 208.989 149.702 206.676 151.728C206.21 152.079 205.876 152.505 205.503 152.998C203.948 154.931 202.109 155.373 199.884 154.354C196.461 152.82 193.038 151.286 189.769 149.487C182.729 145.688 175.488 142.392 168.208 139.162C165.417 137.904 162.713 136.343 160.037 134.886C154.618 131.935 149.2 128.984 143.667 126.231C139.359 124.098 135.078 122.069 130.617 120.201C128.788 119.41 127.045 118.316 125.38 117.089C120.279 113.436 114.718 110.579 109.118 107.789C102.36 104.418 95.9566 100.278 90.1449 95.4191C87.5774 93.3174 85.2396 90.8177 83.138 88.3658C81.2619 86.1326 79.539 83.634 77.9203 81.1071C76.7973 79.3971 75.9317 77.3935 75.0938 75.4943C73.9474 73.0631 74.4881 71.5175 76.1202 69.452C80.4911 64.0137 86.1184 64.1663 92.0221 65.3632C95.8664 66.1673 99.334 68.0808 102.697 70.0226C106.588 72.269 110.337 74.6101 114.151 76.9892C116.948 78.6927 119.91 79.9601 122.784 81.531C128.164 84.5487 133.812 87.102 139.154 90.186C143.44 92.6609 147.573 95.4011 151.63 98.2741C155.753 101.185 160.067 103.764 164.228 106.609C165.602 107.579 167.349 108.057 168.838 108.828C172.014 110.485 174.922 112.606 178.213 114.064C182.202 115.836 186.257 117.647 190.093 119.684C193.23 121.407 196.215 123.396 199.593 124.55C203.538 125.943 207.028 128.577 211.049 129.837C212.928 130.391 214.236 134.065 213.503 135.943C212.656 138.019 210.654 138.898 208.154 137.897C205.825 136.906 203.572 135.782 201.358 134.592C196.56 132.088 191.418 130.181 186.632 127.506C183.796 125.868 180.911 124.468 178.076 122.831C176.625 121.994 174.999 121.763 173.615 120.963C170.213 119.088 166.811 117.212 163.448 115.271C160.31 113.547 157.172 111.824 154.073 110.035C151.567 108.588 148.995 107.103 146.489 105.656C144.708 104.628 143.032 103.572 141.136 102.743C139.505 102.066 137.999 101.02 136.482 100.144C132.025 97.6593 127.53 95.241 122.92 93.0217C116.585 89.9833 109.992 87.2385 103.974 83.4985C98.615 80.1393 93.0434 77.4533 86.8483 75.9997C86.4036 76.0084 85.9314 75.9126 85.1187 75.7973Z" fill="#009090" fill-opacity="0.6"/>
</svg>
