<svg width="214" height="214" viewBox="0 0 214 214" fill="none" xmlns="http://www.w3.org/2000/svg">
<path fill-rule="evenodd" clip-rule="evenodd" d="M17.7575 190.288C12.3575 181.988 15.5575 173.588 19.5575 165.188C20.9575 162.188 22.8575 159.388 24.2575 156.488C25.5575 153.688 26.0575 150.788 25.5575 147.588C24.5575 141.988 22.1575 136.988 19.0575 132.388C15.1575 126.588 10.9575 121.088 6.95749 115.388C2.35749 108.788 -0.442512 101.188 0.0574878 92.7875C0.157488 91.7875 0.157488 90.6875 0.557488 89.7875C2.85749 84.4875 2.55749 78.5875 4.15749 73.0875C6.15749 65.9875 7.85749 58.7875 10.2575 51.8875C13.8575 41.4875 20.9575 33.8875 30.4575 28.3875C32.9575 26.8875 35.2575 25.2875 38.2575 24.5875C41.4575 23.8875 44.5575 23.9875 47.6575 24.2875C53.8575 24.8875 59.7575 27.0875 65.9575 27.8875C69.8575 28.3875 73.8575 28.3875 77.7575 27.9875C81.1575 27.5875 83.6575 25.2875 86.4575 23.5875C93.3575 19.2875 99.7575 14.2875 106.257 9.38753C112.557 4.68753 119.757 1.78753 127.457 0.487526C136.157 -1.01247 144.457 1.08753 152.257 4.88753C158.557 7.98753 164.057 12.3875 169.257 17.0875C174.157 21.5875 176.257 27.4875 177.457 33.8875C178.757 40.9875 180.157 48.0875 181.357 55.1875C181.957 58.4875 183.157 61.3875 185.357 63.9875C191.657 71.5875 197.957 79.1875 204.057 86.9875C209.257 93.6875 212.957 101.188 213.357 109.888C213.657 115.888 212.457 121.488 209.657 126.788C206.657 132.288 201.957 134.988 196.057 136.188C190.557 137.388 184.957 137.288 179.457 138.388C174.657 139.288 170.757 141.488 167.757 145.588C165.157 149.088 163.157 152.888 161.557 156.888C158.357 165.188 156.357 173.988 152.657 182.088C149.657 188.588 145.157 193.788 139.257 197.888C129.957 204.288 119.557 205.488 108.657 204.188C102.557 203.488 96.6575 202.188 90.4575 201.988C85.9575 201.888 81.6575 202.988 77.3575 203.988C71.3575 205.388 66.4575 209.388 60.8575 211.588C57.0575 213.088 53.3575 213.888 49.3575 213.388C41.9575 212.488 35.0575 209.788 28.7575 205.788C24.7575 203.188 22.3575 198.988 20.0575 194.988C19.1575 193.788 18.6575 192.288 17.7575 190.288ZM41.6575 183.888C43.3575 187.788 46.0575 189.988 49.2575 192.088C51.5575 193.588 53.8575 193.588 56.0575 192.688C58.9575 191.588 61.8575 190.788 64.6575 189.688C74.0575 185.988 83.5575 183.188 93.7575 183.088C102.157 182.988 110.557 182.788 118.857 183.788C125.157 184.588 130.157 182.388 133.757 176.788C138.657 169.088 142.157 160.888 145.257 152.288C148.057 144.388 152.457 137.488 157.657 130.988C158.957 129.288 160.557 127.788 162.557 126.888C169.857 123.588 177.457 121.288 185.457 120.088C188.857 119.588 192.257 119.388 195.457 117.888C197.857 116.688 198.657 114.488 197.257 112.288C194.357 107.988 191.857 103.488 188.557 99.4875C182.457 92.2875 177.257 84.5875 173.357 75.9875C170.857 70.4875 168.557 64.7875 167.457 58.7875C166.857 55.2875 165.857 51.8875 165.457 48.3875C164.257 39.4875 159.557 33.5875 151.557 29.8875C146.957 27.6875 142.357 25.3875 137.057 25.8875C132.357 26.2875 127.757 27.2875 123.457 29.1875C117.057 31.9875 111.257 35.9875 104.657 38.5875C104.257 38.6875 103.957 38.9875 103.657 39.1875C95.1575 44.3875 86.1575 48.3875 76.0575 49.3875C71.3575 49.8875 66.6575 49.3875 61.9575 50.1875C56.8575 51.0875 51.6575 51.6875 46.4575 52.1875C44.5575 52.3875 42.9575 52.8875 41.4575 53.8875C31.5575 60.9875 25.1575 70.0875 24.5575 82.6875C24.3575 86.2875 24.2575 89.7875 24.1575 93.3875C24.0575 95.3875 24.0575 97.4875 24.6575 99.3875C26.1575 104.188 27.5575 109.088 28.5575 114.088C28.7575 115.288 29.6575 116.388 30.3575 117.388C32.5575 120.988 35.3575 124.088 37.8575 127.388C42.6575 133.888 45.6575 141.288 47.6575 149.088C49.1575 155.188 49.3575 161.388 46.3575 167.288C44.6575 170.788 42.9575 174.388 41.5575 178.088C40.7575 180.288 40.5575 182.188 41.6575 183.888Z" fill="#E6F0F0"/>
<path fill-rule="evenodd" clip-rule="evenodd" d="M69.1574 150.487C66.3574 146.187 67.9574 141.787 70.0574 137.387C70.7574 135.787 71.7574 134.387 72.4574 132.787C73.1574 131.287 73.3574 129.787 73.1574 128.187C72.6574 125.287 71.3574 122.687 69.7574 120.287C67.7574 117.287 65.5574 114.387 63.4574 111.387C61.0574 107.987 59.5574 103.987 59.8574 99.5872C59.8574 99.0872 59.9574 98.4873 60.1574 97.9873C61.3574 95.1873 61.2574 92.0872 62.0574 89.2872C63.1574 85.5872 63.9574 81.7872 65.2574 78.1872C67.1574 72.7872 70.8574 68.7873 75.7574 65.8873C77.0574 65.0873 78.2574 64.2872 79.8574 63.8872C81.5574 63.4872 83.1574 63.5873 84.7574 63.7873C87.9574 64.0873 91.0574 65.2872 94.3574 65.6872C96.4574 65.9872 98.4574 65.9872 100.557 65.6872C102.357 65.4872 103.657 64.2872 105.057 63.3872C108.657 61.1872 111.957 58.4873 115.357 55.9873C118.657 53.5873 122.457 51.9873 126.457 51.2873C131.057 50.4873 135.357 51.5872 139.357 53.5872C142.657 55.1873 145.557 57.4873 148.257 59.9873C150.857 62.2873 151.957 65.3872 152.557 68.6872C153.257 72.3872 153.957 76.0872 154.557 79.7872C154.857 81.4872 155.557 82.9873 156.657 84.3873C159.957 88.3873 163.257 92.2873 166.357 96.3873C169.057 99.8873 171.057 103.787 171.257 108.387C171.357 111.487 170.757 114.387 169.257 117.187C167.757 120.087 165.257 121.487 162.157 122.087C159.257 122.687 156.357 122.687 153.457 123.187C150.957 123.687 148.957 124.787 147.357 126.887C145.957 128.687 144.957 130.687 144.157 132.787C142.457 137.087 141.457 141.687 139.457 145.887C137.857 149.287 135.557 151.987 132.457 154.087C127.557 157.487 122.157 158.087 116.457 157.387C113.257 156.987 110.157 156.287 106.957 156.287C104.557 156.287 102.357 156.787 100.057 157.387C96.9574 158.187 94.3574 160.187 91.4574 161.387C89.4574 162.187 87.5574 162.587 85.4574 162.287C81.5574 161.787 77.9574 160.387 74.7574 158.287C72.6574 156.887 71.4574 154.787 70.1574 152.587C69.8574 152.287 69.6574 151.487 69.1574 150.487ZM81.6574 147.087C82.5574 149.087 83.9574 150.287 85.6574 151.387C86.8574 152.187 88.0574 152.187 89.2574 151.687C90.7574 151.087 92.2574 150.687 93.7574 150.087C98.6574 148.187 103.657 146.687 108.957 146.687C113.357 146.687 117.657 146.587 122.057 147.087C125.357 147.487 127.957 146.387 129.857 143.487C132.357 139.487 134.257 135.187 135.857 130.687C137.357 126.587 139.657 122.987 142.357 119.587C143.057 118.687 143.857 117.887 144.957 117.487C148.757 115.787 152.757 114.587 156.957 113.887C158.757 113.587 160.557 113.487 162.157 112.687C163.457 112.087 163.857 110.887 163.057 109.787C161.557 107.587 160.257 105.187 158.457 103.087C155.257 99.3872 152.557 95.2872 150.557 90.7872C149.257 87.8872 148.057 84.9872 147.457 81.7872C147.157 79.9872 146.657 78.1873 146.357 76.3873C145.757 71.7873 143.257 68.6872 139.057 66.6872C136.657 65.5872 134.257 64.3872 131.457 64.5872C128.957 64.7872 126.657 65.2872 124.357 66.2872C121.057 67.7872 117.957 69.7872 114.557 71.1872C114.357 71.2872 114.157 71.3873 114.057 71.4873C109.557 74.1873 104.957 76.2872 99.6574 76.7872C97.1574 76.9872 94.7574 76.7872 92.3574 77.1872C89.6574 77.6872 86.9574 77.9872 84.2574 78.1872C83.2574 78.2872 82.4574 78.5872 81.6574 79.0872C76.4574 82.7872 73.1574 87.5872 72.8574 94.0872C72.7574 95.9872 72.7574 97.7872 72.6574 99.6872C72.6574 100.787 72.6574 101.787 72.9574 102.887C73.7574 105.387 74.4574 107.987 74.9574 110.587C75.0574 111.187 75.5574 111.787 75.8574 112.287C76.9574 114.187 78.4574 115.787 79.7574 117.487C82.2574 120.887 83.8574 124.787 84.8574 128.787C85.6574 131.987 85.7574 135.187 84.1574 138.287C83.2574 140.087 82.3574 141.987 81.6574 143.887C81.1574 145.187 81.0574 146.187 81.6574 147.087Z" fill="#E6F0F0"/>
</svg>
