<svg width="117" height="416" viewBox="0 0 117 416" fill="none" xmlns="http://www.w3.org/2000/svg">
<path fill-rule="evenodd" clip-rule="evenodd" d="M96.9257 175.539C97.6453 175.734 98.2341 175.669 98.7574 175.147C97.2528 173.515 95.879 171.818 96.7295 169.468C97.5799 167.183 96.2715 166.073 94.6361 164.964C94.4399 165.029 94.1782 165.159 93.9165 165.225C93.3278 165.551 92.739 166.139 92.2157 165.355C91.8886 164.833 92.4773 164.376 92.8044 163.984C92.8044 163.789 92.8044 163.528 92.739 163.332C91.6923 162.809 90.384 163.136 89.4681 162.287C89.2719 162.614 89.1411 162.94 88.9448 163.332C89.2719 164.572 88.8794 164.833 87.8327 164.18C86.786 162.744 86.5244 161.504 88.4869 160.59C89.5336 159.35 89.8606 157.652 91.169 156.608C89.9261 156.216 89.4681 155.694 90.8419 154.78C92.2157 154.062 93.6549 153.54 95.094 154.584C95.6828 154.454 96.337 154.389 96.9257 154.258C96.4678 153.018 97.6453 151.647 96.6641 150.407C96.4024 150.015 96.1407 149.689 95.8136 149.297C94.5707 146.947 94.8978 144.923 96.9257 143.161C96.6641 142.769 96.6641 142.443 96.8603 141.986C97.2528 141.007 97.1874 140.093 96.6641 139.114C96.2715 138.395 95.8136 137.547 96.5986 136.764C96.6641 134.87 92.0848 136.241 93.9819 132.977C94.309 132.455 93.4586 132.586 93.1315 132.782C92.3465 133.108 91.3652 133.695 90.9073 132.586C90.3186 131.345 91.6269 130.758 92.4119 130.301C95.1595 128.669 97.2528 126.515 98.8228 123.643C99.7387 122.011 100.655 120.379 100.982 118.551C100.982 117.507 101.047 116.527 102.29 116.266C104.383 115.809 103.86 114.634 103.075 113.394C102.682 112.741 101.701 112.154 102.29 111.175C103.337 110.391 104.383 112.611 104.907 111.436C105.43 110.195 106.346 108.302 104.056 107.388C103.598 107.519 103.14 107.454 102.748 107.127C101.963 106.997 100.916 107.388 100.524 106.409C100.131 105.561 100.851 105.234 101.505 104.908C101.963 104.647 102.355 104.32 102.813 104.059C103.402 102.558 102.944 100.991 102.682 99.4898C102.421 97.9884 102.944 97.0745 104.383 96.5523C104.841 96.2259 105.299 95.8995 105.757 95.5731C104.841 94.2023 103.598 95.8995 102.617 95.1815C100.916 93.0273 100.916 92.8967 103.925 91.3953C104.318 89.1106 102.552 89.9592 101.505 89.7634C102.355 86.5648 102.355 86.5648 103.729 84.9328C104.71 83.4314 105.365 81.6036 105.037 79.9717C104.514 77.8175 106.019 77.23 107 76.1203L106.869 76.055C106.607 73.9008 107.458 71.2897 104.383 70.2453C103.664 69.9842 103.533 69.005 103.925 68.3522C104.58 67.3078 104.383 66.198 104.514 65.0883C104.972 60.4536 102.682 55.9494 104.056 51.3147C102.486 49.8785 103.271 48.8994 104.645 47.9855C102.225 46.2883 102.225 43.6119 101.767 41.066C99.2807 37.2799 97.0566 33.2327 92.2157 31.9271C91.2998 31.666 91.2998 31.7313 91.8886 31.1438C93.524 29.5118 92.5428 28.5979 90.9073 27.9451C90.384 27.7493 89.4681 27.4882 89.599 27.0313C90.6457 23.6368 87.7019 24.0937 86.1319 23.3757C83.1227 22.0049 80.833 19.9812 79.4593 16.9132C76.3192 14.8895 79.5247 13.9104 80.1789 12.4743C80.5714 11.6909 80.6368 10.9076 80.048 10.1895C80.048 10.3854 79.9172 10.5159 79.721 10.5812C77.8238 11.1034 77.2351 13.2576 75.4688 14.0409C75.0109 13.2576 74.6838 12.6048 74.3567 11.952V12.0173C71.0859 13.0618 70.4971 12.8007 69.9738 9.86314C69.8429 9.14509 69.5813 8.49231 69.4504 7.77425C68.4037 7.44786 67.1608 7.77425 66.4412 6.59924C64.5441 7.38258 62.647 8.94925 60.8153 6.46869C60.3574 6.40341 59.9649 6.33813 59.507 6.33813C57.4136 6.99091 55.2549 7.70897 53.0961 7.51314C50.4794 7.3173 47.601 7.64369 45.9002 4.83674C45.246 4.24924 44.5918 3.85757 43.5451 4.0534C41.321 4.51035 39.3584 4.51035 39.6855 1.31173C39.7509 0.397836 39.0313 0.0714465 38.3118 0.00616848C37.5267 -0.0591095 36.938 0.397836 36.6763 1.18117C36.0221 3.20479 34.4521 4.24924 33.0784 5.75063C30.9196 8.10064 29.8075 7.3173 28.2375 5.5548L27.9104 5.48952C26.4058 6.46869 25.1629 7.70897 24.247 9.27564C25.1629 10.777 24.5741 11.952 23.3966 12.9965C23.0695 13.2576 22.5462 13.3229 22.2845 12.9312C21.6303 11.8868 22.3499 10.777 22.4153 9.66731C22.4153 9.47148 22.7424 9.21036 22.9387 9.01453C22.8733 8.42703 22.7424 7.83953 22.8078 7.3173C23.1349 5.75063 22.8733 4.51035 20.9761 4.83674C18.752 5.22841 20.6491 6.59924 20.5182 7.51314C20.4528 7.77425 20.322 8.03536 20.1257 8.42703C19.6678 8.42703 19.079 8.49231 18.5557 8.36175C16.2007 7.77425 14.4344 9.4062 12.3411 9.92842C10.3785 10.4506 11.8177 12.2132 11.3598 13.2576C10.771 14.759 9.52811 14.759 7.89267 13.1923C6.84599 12.8659 5.79932 13.2576 6.51891 14.302C7.89268 16.5215 7.10766 18.9368 8.21976 21.2868C5.40681 20.4382 5.40681 20.4382 3.64054 22.3965C4.49097 23.5062 4.2293 24.3549 3.05179 25.0076C3.05179 26.1826 3.18262 27.4882 1.67802 27.8146C0.17342 28.141 1.35094 25.9868 0.304261 25.9868C-1.0695 26.4438 -0.938674 28.5326 -2.70494 28.2063C-3.22828 27.6188 -3.03203 27.1618 -2.50869 26.7701C-1.85451 26.1826 -1.13493 25.5951 -1.72368 24.616C-2.31244 23.5715 -3.2937 23.3757 -4.34038 23.8326C-4.86372 24.0285 -5.32164 24.4201 -5.84498 24.7465C-4.99455 25.791 -5.25622 26.5743 -6.3029 27.2271C-6.82624 27.5535 -7.48041 27.7493 -7.8075 27.1618C-8.13459 26.5743 -7.61125 26.1174 -7.15333 25.7257C-8.06917 24.8771 -8.91959 24.0937 -9.83543 23.2451C-12.1905 22.9187 -12.9755 24.159 -12.7138 26.3132C-12.5176 27.7493 -12.3867 29.1854 -11.6017 30.491C-11.2092 31.1438 -11.1438 31.9924 -11.7325 32.5146C-12.4521 33.1021 -13.0409 32.5146 -13.6296 31.9924C-15.1342 30.7521 -16.2463 31.0785 -15.9847 33.1021C-15.6576 35.0604 -16.7043 35.1257 -18.078 35.6479C-19.4518 36.1702 -20.6947 35.5174 -21.9376 35.6479C-22.3956 36.1702 -22.9843 36.366 -23.6385 35.9743C-23.8348 35.8438 -23.9656 35.7132 -24.0964 35.5174C-25.2085 35.7785 -26.2552 36.1049 -27.4327 35.9091C-29.2644 35.6479 -31.0961 35.1257 -29.7877 38.2591C-29.1336 39.891 -30.5727 40.8049 -32.1428 41.0007C-32.7969 41.066 -33.5165 40.6744 -34.2361 41.0007C-33.7782 41.8494 -33.6474 42.6327 -34.8249 43.0896C-34.8903 43.2202 -34.9557 43.416 -35.0211 43.416C-35.2828 43.4813 -35.5445 43.4813 -35.8061 43.5466C-36.3295 43.7424 -36.7874 43.5466 -37.1145 43.1549C-37.4416 43.0896 -37.7687 43.0244 -38.1612 42.9591C-38.6845 43.2202 -39.1424 43.0896 -39.6658 42.8285C-40.3199 45.048 -40.5162 47.5938 -43.5908 47.9202C-43.9179 47.9202 -44.1796 48.5077 -44.4412 48.8994C-46.2729 51.6411 -50.5905 51.9674 -51.3101 55.8841C-51.3755 56.2105 -52.3567 56.6022 -52.8147 56.5369C-54.0576 56.3411 -55.4968 56.5369 -56.4126 55.3619C-57.0668 55.623 -57.5901 55.4925 -58.1135 54.9702C-58.3751 55.0355 -58.6368 55.1661 -58.8985 55.2313C-58.8985 55.4272 -58.8985 55.623 -59.0947 55.7536C-59.2256 57.3202 -59.7489 58.8216 -58.5714 60.323C-57.721 61.3022 -57.9172 62.9341 -59.2256 63.2605C-61.5806 63.848 -62.3002 66.3286 -64.3935 67.1119C-62.8889 69.0703 -63.0198 70.7022 -65.244 72.0078C-66.4869 72.7258 -67.5336 73.6397 -68.7111 74.4883C-69.2344 74.8147 -69.7578 75.1411 -70.2811 75.4675C-71.3932 76.1856 -72.2436 75.9897 -72.7015 74.6842C-73.1595 74.3578 -73.6174 73.9008 -74.2061 74.2272C-74.5986 74.4231 -74.6641 74.88 -74.5332 75.337C-73.7482 77.2953 -72.3745 78.1439 -70.1503 77.6217C-69.4307 77.4911 -68.7111 76.9036 -68.3186 77.8175C-67.9915 78.7314 -68.5803 79.7106 -69.4961 79.8411C-71.7203 80.1675 -73.0941 81.6036 -74.4678 83.0398C-74.0753 83.9537 -74.2716 84.8023 -74.9912 85.455C-74.7949 85.9773 -74.6641 86.4995 -74.5332 86.9564C-72.1128 88.8495 -71.524 90.1551 -72.767 91.6565C-73.8136 92.8967 -75.0566 94.2676 -77.0845 93.6148C-77.5424 93.8106 -78.0658 94.0717 -78.5237 94.2676C-78.7199 94.594 -78.9816 94.9856 -79.1779 95.312C-79.2433 95.769 -79.3087 96.2259 -79.3741 96.6829C-78.5237 96.6829 -77.6733 96.6829 -76.7574 96.6829C-75.3183 96.7481 -74.7295 97.8579 -74.5986 98.9676C-74.4678 100.338 -75.7108 100.404 -76.7574 100.338C-77.6733 100.208 -78.262 100.404 -78.9162 101.252C-80.8787 104.125 -82.9721 106.932 -85 109.738C-84.7383 110.391 -84.9346 111.24 -84.1496 111.762C-83.0375 111.566 -81.9908 111.827 -82.1871 113.198C-82.3833 115.026 -83.1029 116.723 -84.9346 117.637C-84.2804 118.943 -83.3646 118.616 -82.4487 117.898C-81.3366 117.05 -80.617 117.376 -80.1591 118.551C-79.7012 119.008 -79.7666 119.4 -80.3554 119.661V119.726C-78.9162 121.227 -76.9537 122.337 -77.477 125.014C-77.6078 125.536 -76.8229 126.189 -76.4303 126.776C-75.9724 126.515 -75.3837 126.123 -74.9257 126.711C-74.5332 127.298 -75.122 127.69 -75.3837 128.147C-72.3745 130.236 -73.0941 133.108 -73.8137 135.98C-73.6828 136.176 -73.6174 136.437 -73.6174 136.633C-72.1782 138.461 -71.982 140.158 -74.2716 141.464C-74.0753 141.986 -73.8136 142.443 -73.6174 142.965C-72.8978 144.923 -72.7016 146.947 -73.0941 148.971C-73.2903 150.015 -73.1595 150.994 -72.8324 151.973C-72.0474 154.454 -72.1128 154.454 -74.7295 154.65C-76.1687 154.78 -77.3462 156.543 -76.5612 156.739C-73.6828 157.652 -73.6174 162.809 -69.3653 161.504C-68.7765 161.308 -68.2532 161.896 -68.3186 162.548C-68.384 162.94 -68.7765 163.593 -68.9727 163.528C-72.1782 163.136 -72.1782 164.572 -70.9353 166.791C-70.8044 167.053 -71.0007 167.705 -71.2624 168.032C-72.4399 169.729 -71.3932 170.839 -70.6082 172.34C-69.8232 173.972 -67.4027 174.494 -67.6644 176.453C-67.9261 178.346 -70.6082 178.15 -71.3278 179.847C-71.1315 180.369 -70.8699 180.891 -70.6736 181.348C-70.0194 182.458 -68.7111 182.719 -67.7952 183.503C-66.7486 183.046 -66.029 182.001 -64.6552 182.066C-64.2627 183.372 -63.8702 184.743 -62.9544 185.853C-61.646 187.68 -61.3843 188.986 -64.0664 189.965C-65.6365 190.487 -66.3561 193.49 -65.4402 194.796C-64.5244 196.101 -63.9356 197.929 -61.8423 198.255C-59.6181 198.647 -59.2256 200.214 -60.0106 202.172C-59.6181 202.76 -59.2256 203.347 -58.8331 204C-57.5901 206.023 -60.861 207.133 -59.8797 209.222C-59.0293 210.985 -55.9547 210.071 -55.8239 212.682C-55.8239 212.812 -55.7584 212.943 -55.7584 213.139C-55.4314 214.836 -54.3847 215.097 -52.8147 214.836C-49.0859 214.248 -48.7588 214.705 -49.9363 218.1C-50.1325 218.687 -50.3288 219.21 -50.0017 219.732C-46.9925 218.492 -46.2075 222.408 -43.5908 222.408C-42.7404 222.408 -43.1983 223.91 -43.1329 224.693C-43.0021 225.933 -42.0862 226.717 -41.5629 227.761C-40.9741 228.349 -40.3199 229.001 -40.1891 229.85C-38.292 231.351 -36.4603 232.787 -34.5632 234.224C-32.8624 233.832 -32.6661 235.921 -31.3578 236.182C-30.5727 235.594 -30.1148 234.811 -28.8065 235.007C-25.4048 235.529 -23.6385 238.401 -21.0218 240.033C-20.7601 240.229 -20.5639 240.425 -20.3022 240.556C-18.9284 239.642 -17.8818 239.968 -17.0313 241.339C-16.3772 242.318 -15.723 243.167 -14.3492 243.232C-11.1438 243.493 -8.00375 243.428 -4.7983 243.885C-2.50869 244.211 0.0425871 243.493 2.20136 244.146C4.29472 244.799 5.86474 245.19 7.82726 243.819C9.72436 242.514 12.0794 243.297 14.1073 243.558C15.4157 243.754 14.8269 245.908 15.6119 246.953C15.8082 247.149 16.0044 247.41 16.2661 247.606C16.724 247.279 17.1819 247.018 17.7053 246.692C18.8828 245.06 20.1257 246.626 21.2378 246.822C23.3312 247.214 22.4153 249.76 23.462 251C23.9853 250.674 24.3779 250.608 24.4433 250.412C25.0974 248.846 25.2937 246.169 26.3404 245.843C27.7796 245.321 29.5458 244.929 31.2467 244.799C35.3026 245.582 39.2276 244.146 43.1526 243.819C46.0964 243.624 48.8439 243.036 51.3952 241.535C52.7036 240.751 54.2082 239.903 55.7128 241.339C56.2361 241.012 56.7595 240.751 57.2828 240.425C57.6753 238.728 59.1145 238.206 60.4882 237.814C62.8433 237.226 64.2825 235.79 65.2637 233.636C67.9458 230.111 72.0671 228.087 74.553 224.301C75.4034 222.996 75.9267 221.494 77.2351 220.385C79.5901 218.361 81.6181 216.011 81.0293 212.551C80.8985 211.898 81.291 211.442 81.7489 211.05C83.0572 210.071 83.2535 208.635 83.2535 207.133C83.2535 205.762 83.5152 204.718 84.9543 203.935C86.9823 202.825 87.0477 199.561 85.0852 198.255C84.6273 197.929 83.8422 198.06 83.9077 197.276C84.0385 196.493 84.7581 196.036 85.4777 195.971C86.1973 195.905 86.9169 196.101 87.6365 196.166C87.6365 195.383 87.7673 194.665 88.2906 194.012C88.9448 193.033 89.599 191.989 90.3186 191.01C89.9915 190.161 89.2065 189.378 89.7298 188.333C89.7298 188.203 89.7298 188.072 89.6644 187.876C89.6644 184.416 92.2157 181.022 89.9915 177.366C89.599 176.779 90.4494 175.669 91.1036 175.8C93.1315 176.453 94.8978 174.625 96.9257 175.539ZM97.4491 115.026C98.1687 114.438 98.8882 114.112 99.6078 115.026C99.8695 115.418 99.9349 115.875 99.5424 116.136C98.692 116.658 98.3649 115.875 97.8416 115.418C96.2715 116.658 97.5799 118.42 97.122 119.922C96.7295 121.358 96.2061 122.663 94.7669 122.468C93.0007 122.207 93.9165 120.705 94.0474 119.661C94.2436 117.441 93.7203 114.634 97.4491 115.026ZM11.556 18.6104C11.229 18.284 11.0981 17.8271 11.4252 17.4354C12.6681 15.8034 14.9578 15.6076 16.3315 14.1715C16.3969 14.1062 16.8549 14.3673 17.0511 14.4979C17.4436 14.8243 17.2474 15.6076 17.0511 15.6076C14.8923 15.5423 14.4998 17.6965 13.1261 18.6104C12.6681 18.9368 12.0794 19.1326 11.556 18.6104ZM88.4869 151.908C87.5056 152.757 86.9169 151.843 86.1973 151.516C85.5431 151.19 85.3468 150.733 85.8048 150.211C86.4589 149.493 87.3094 149.427 88.0944 150.08C88.6177 150.537 88.9448 151.19 88.4869 151.908ZM-74.9257 106.279C-75.9724 106.54 -76.4303 105.757 -76.8883 105.038C-77.3462 104.386 -77.4116 103.602 -76.6266 103.211C-75.5145 102.623 -75.122 103.668 -74.7295 104.32C-74.337 104.973 -74.2716 105.691 -74.9257 106.279ZM93.0661 141.464C92.4773 141.137 91.954 140.941 91.5615 140.615C91.1036 140.223 90.8419 139.636 91.4961 139.179C92.0194 138.787 92.6736 138.918 92.8698 139.57C93.1315 140.027 93.0007 140.68 93.0661 141.464ZM18.752 12.1479C18.3595 12.4743 17.9015 12.6048 17.5744 12.2784C17.1165 11.8215 17.1165 11.234 17.6399 10.8423C18.0324 10.5812 18.4903 10.6465 18.752 11.0381C19.2099 11.3645 19.1445 11.7562 18.752 12.1479ZM87.0477 190.683C86.6552 190.879 86.1973 191.01 85.8702 190.618C85.4777 190.096 85.5431 189.508 86.1319 189.247C86.3935 189.116 86.9169 189.378 87.1785 189.639C87.571 189.9 87.4402 190.357 87.0477 190.683Z" fill="#009090"/>
<path fill-rule="evenodd" clip-rule="evenodd" d="M36.5847 245.01C37.0791 240.557 37.4911 236.35 37.9855 232.226C38.1503 230.742 38.5624 229.257 38.6448 227.772C39.0568 221.174 43.012 216.143 45.7312 210.534C49.5216 202.864 53.5593 195.358 55.0425 186.863C55.8665 182.079 56.5257 177.296 57.1025 172.512C58.5033 160.8 60.0689 149.088 62.3761 137.459C63.3649 132.262 64.1065 127.066 63.7769 121.788C63.7769 121.045 63.7769 120.303 63.6121 119.643C62.7881 117.004 59.9865 116.179 57.7617 117.911C56.6905 118.818 56.2785 119.973 55.7841 121.293C51.9112 131.438 48.8624 141.83 45.6488 152.14C43.2592 159.728 40.952 167.398 38.892 175.151C37.656 180.1 36.9143 185.049 36.4199 190.08C35.6783 197.915 34.8543 205.751 34.6895 213.669C34.6071 219.525 32.7943 224.968 32.1351 230.742C30.1575 225.463 28.6743 220.102 28.6743 214.493C28.6743 209.132 28.7567 203.771 28.5095 198.41C28.1799 190.905 27.0263 183.564 25.9551 176.141C24.7191 167.398 22.4118 158.903 20.9286 150.243C20.7638 149.171 20.7638 148.016 20.599 146.944C20.187 144.469 19.6102 143.809 17.715 143.727C15.3254 143.562 14.419 144.139 13.8422 146.614C13.3478 148.758 13.0182 150.985 12.8534 153.212C11.947 162.12 11.2054 171.11 10.7934 180.1C10.5462 185.791 10.3814 191.482 10.5462 197.09C10.9582 210.04 13.5126 222.576 18.127 234.701C19.9398 239.567 22.6591 243.938 24.5543 248.804C25.7903 251.939 27.1911 254.99 28.4271 258.042C29.8279 261.506 30.1575 265.135 29.7455 268.764C29.1687 273.218 29.4983 277.672 29.3335 282.126C29.3335 282.95 29.3335 283.693 29.3335 284.518C29.0039 284.435 28.6743 284.435 28.6743 284.27C25.7079 277.589 21.3406 271.651 18.8686 264.723C17.4678 260.681 16.2318 256.64 14.6662 252.681C11.8646 245.835 8.73336 239.154 6.26135 232.144C3.87173 225.546 2.22372 218.782 1.31731 211.854C0.328507 204.101 -0.989892 196.431 -3.46191 189.008C-3.87391 187.853 -4.12112 186.698 -4.94512 185.708C-5.85153 184.554 -7.08754 184.306 -8.48835 184.471C-9.88916 184.636 -10.5484 185.543 -10.9604 186.863C-11.2076 187.77 -11.3724 188.595 -11.3724 189.585C-11.9492 198.08 -11.1252 206.575 -9.97156 214.988C-9.47716 218.37 -9.22995 221.834 -8.90035 225.216C-8.15874 232.969 -7.66434 240.722 -5.35712 248.227C-1.6491 260.021 2.96533 271.486 9.63977 282.043C13.0182 287.404 17.9622 291.363 22.4119 295.817C24.8015 298.126 27.2735 300.353 29.8279 302.58C30.4047 303.158 30.5695 303.735 30.6519 304.477C31.6407 312.23 32.6295 319.901 33.5359 327.654C33.6183 328.644 33.8655 329.633 33.4535 330.541C32.2999 330.458 32.1351 329.468 31.7231 328.891C27.6031 322.953 22.8239 317.591 18.0446 312.23C12.6886 306.209 7.08536 300.353 2.05893 294.003C-0.495491 290.786 -2.47311 287.239 -4.03872 283.528C-7.49954 275.445 -11.4548 267.527 -16.1516 260.104C-16.7284 259.197 -17.3876 258.207 -18.1292 257.465C-18.9532 256.64 -20.1068 256.31 -21.2604 256.722C-22.414 257.135 -22.9908 258.042 -22.9908 259.362C-22.9908 260.681 -23.0732 262.001 -22.7436 263.321C-20.1068 274.373 -16.8932 285.177 -12.0316 295.487C-9.06515 301.756 -6.01633 307.859 -1.8139 313.385C3.37734 320.148 9.47497 326.087 16.479 331.035C20.9286 334.17 25.4607 337.304 29.9103 340.438C34.2775 343.572 36.3375 348.108 37.3264 353.222C38.892 361.387 40.3752 369.553 42.4352 377.553C42.6 378.213 42.9296 378.873 42.6824 379.78C41.6936 379.533 41.364 378.708 40.8696 377.966C36.7495 372.11 32.5471 366.254 28.5095 360.315C23.6479 353.305 17.5502 347.614 10.8758 342.5C4.94294 337.881 -0.330698 332.602 -5.27473 326.911C-7.25234 324.602 -9.47715 322.54 -11.702 320.396C-12.526 319.653 -13.5148 318.911 -14.7508 319.488C-16.0692 320.066 -16.234 321.22 -16.234 322.54C-16.1516 325.757 -14.6684 328.561 -13.2676 331.365C-11.4548 335.159 -8.65315 338.211 -5.76913 341.263C0.987718 348.438 7.90935 355.367 14.5838 362.542C20.7638 369.14 26.9439 375.656 33.5359 381.842C35.7607 383.904 38.2328 385.801 41.0344 386.956C44.4128 388.275 46.1432 390.832 47.132 393.966C49.2744 400.647 51.3344 407.245 54.3009 413.596C54.8777 414.916 55.4545 415.906 57.0201 415.988C59.5745 416.153 60.9753 414.586 60.0689 412.194C58.9153 409.06 57.5145 406.008 56.3609 402.874C53.2297 394.379 50.9224 385.719 48.4504 377.058C47.956 375.326 48.2856 373.759 49.3568 372.192C52.488 367.738 56.1961 364.274 61.3873 362.377C67.9794 360.068 73.5826 356.026 79.021 351.82C86.5195 346.046 93.4411 339.696 99.8684 332.767C106.296 325.922 111.734 318.416 115.36 309.673C116.019 308.106 116.596 306.457 116.925 304.725C117.337 302.333 116.019 301.013 113.629 301.261C111.569 301.508 109.921 302.663 108.356 304.065C104.565 307.694 101.269 311.818 97.9731 315.942C91.7107 323.86 84.3771 330.623 76.3018 336.644C69.3802 341.84 63.4473 348.108 57.7617 354.624C54.4657 358.336 51.252 362.13 48.0384 365.841C47.6264 366.336 47.2968 366.831 46.4728 366.913C45.4016 365.264 45.4016 363.367 45.072 361.552C43.6712 354.707 42.4352 347.861 41.4464 340.933C41.2816 339.696 41.4464 339.118 42.5176 338.541C54.9601 332.108 65.4249 322.952 75.9722 314.045C84.2947 307.034 90.6395 298.374 95.2539 288.559C97.9732 282.868 99.7036 276.847 101.681 270.826C101.928 270.084 101.846 269.259 101.846 268.434C101.846 267.362 101.928 266.125 100.775 265.465C99.7036 264.888 97.4787 265.135 96.4899 265.96C95.6659 266.702 94.9243 267.527 94.3475 268.517C87.0963 279.899 78.197 289.796 68.309 298.869C65.5073 301.508 62.2937 303.653 59.3273 306.127C51.9936 312.23 45.8136 319.158 41.364 327.736C41.1168 328.314 40.7048 328.726 40.3752 329.303C40.2928 329.386 40.2104 329.386 39.8808 329.551C39.6336 328.808 39.304 328.149 39.2216 327.406C38.5624 322.293 37.9032 317.179 37.2439 312.065C36.8319 308.436 36.4199 304.807 35.9255 301.261C35.6783 299.281 36.2551 297.879 38.068 296.724C43.7536 293.26 48.2856 288.477 52.9825 283.858C57.7617 279.156 63.2001 275.28 68.1442 270.826C73.253 266.207 78.4442 261.671 83.2235 256.722C84.4595 255.485 85.2011 253.918 86.0251 252.433C90.8043 243.938 95.5011 235.443 100.033 226.865C102.505 222.246 104.648 217.38 106.872 212.596C108.356 209.462 110.086 206.493 111.899 203.606C112.393 202.864 112.805 202.039 113.217 201.214C114.124 199.235 113.794 197.42 112.476 196.513C111.157 195.606 109.262 195.853 107.779 197.338C106.625 198.41 105.472 199.647 104.483 200.884C99.8684 206.658 95.6659 212.761 91.6283 218.947C85.0363 229.092 77.2906 238.247 68.2266 246.33C64.1889 249.959 60.3161 253.836 56.7729 258.042C53.3945 262.083 49.4392 265.63 45.896 269.424C42.3528 273.3 39.6336 277.672 37.0791 282.126C36.5023 283.033 36.1727 284.188 35.0191 285.177C34.8543 281.053 34.5247 277.177 35.6783 273.383C36.7496 269.919 37.7384 266.372 38.5624 262.826C39.1392 260.186 40.7872 258.124 41.9408 255.815C44.3304 251.114 46.8024 246.495 49.5216 241.959C52.6529 236.598 56.9377 232.309 61.4697 228.35C71.3578 219.69 79.9274 209.957 86.3547 198.328C88.9091 193.709 90.5571 188.678 93.0291 184.059C97.0667 176.636 99.7036 168.635 103 160.965C103.164 160.553 103.329 160.223 103.412 159.81C103.824 157.913 103.412 156.346 102.34 155.686C101.104 154.944 99.2092 155.191 97.8907 156.346C94.8419 159.068 92.0403 161.955 89.4035 165.006C84.2123 171.11 79.7626 177.791 75.313 184.389C67.897 195.441 59.8217 205.916 51.664 216.39C48.4504 220.514 44.9896 224.556 42.8472 229.504C41.1992 233.463 39.6336 237.422 38.3152 241.464C37.9032 242.619 37.9032 243.938 36.5847 245.01Z" fill="#E6E9EA" fill-opacity="0.4"/>
</svg>
