<svg width="296" height="142" viewBox="0 0 296 142" fill="none" xmlns="http://www.w3.org/2000/svg">
<path fill-rule="evenodd" clip-rule="evenodd" d="M172.433 75.3838C174.998 75.8993 177.198 77.2173 179.554 78.1609C186.89 81.1499 194.382 83.6579 201.822 86.3262C203.481 86.9014 204.221 86.2563 205.171 85.2898C208.866 81.5312 212.561 77.7727 216.958 74.8092C223.315 70.6056 229.835 66.7741 236.738 63.74C240.985 61.8974 245.564 61.1191 250.209 61.6736C254 62.1273 257.687 62.7951 261.427 63.5159C262.924 63.8255 264.528 64.241 265.503 65.7275C266.694 67.5324 266.447 69.4006 264.759 71.2255C263.334 72.7819 261.641 74.0735 259.893 75.2055C251.575 80.6492 243.096 85.9341 234.289 90.4747C232.273 91.5552 230.095 92.3701 227.804 92.6526C227.378 92.6556 226.846 92.7659 226.905 93.3521C226.962 93.7251 227.284 93.9361 227.605 94.0406C231.617 95.2394 235.682 96.3845 239.747 97.5296C240.656 97.79 241.452 97.4112 242.357 97.2449C245.338 96.691 248.264 95.9775 251.193 95.584C260.406 94.2937 268.594 97.0635 276.06 102.398C281.218 106.095 286.006 110.275 290.584 114.67C291.983 115.94 293.118 117.372 294.252 118.804C294.847 119.6 295.335 120.397 295.558 121.355C295.949 123.112 295.162 124.344 293.351 124.57C291.327 124.797 289.301 124.918 287.274 124.825C279.86 124.717 272.905 122.525 266.051 119.799C258.233 116.654 251.623 111.74 245.013 106.719C243.132 105.292 240.827 104.188 239.317 102.492C236.242 99.0471 231.972 98.65 228.066 97.4504C220.309 94.9976 212.446 92.7589 204.583 90.4134C204.102 90.2568 203.672 89.9398 203.036 90.3708C203.957 91.8043 205.351 92.5413 206.481 93.5467C209.87 96.3497 213.258 99.1527 216.436 102.277C219.777 105.667 222.111 109.757 224.392 113.794C227.975 120.062 231.506 126.384 234.454 133.083C235 134.359 235.6 135.688 235.987 137.019C236.867 139.679 236.027 140.965 233.255 141.091C226.485 141.404 220.338 140.007 215.066 135.457C211.73 132.6 208.712 129.528 206.171 126.079C201.412 119.606 196.812 112.972 194.227 105.257C193.457 102.916 193.061 100.626 193.196 98.2249C193.479 94.5966 192.963 91.0271 192.767 87.4554C192.706 86.6559 192.382 86.3382 191.74 86.1293C188.422 84.979 185.157 83.775 181.785 82.5718C180.875 82.2048 180.017 81.7841 179.107 81.4171C168.935 77.5411 159.232 72.6486 149.32 68.0776C146.373 66.7647 143.374 65.5056 140.321 64.1935C139.906 65.3696 140.816 65.6299 141.245 65.9469C145.597 69.0632 149.209 72.9313 152.769 76.853C154.656 78.9197 155.854 81.3646 157.212 83.755C162.427 93.2115 167.059 102.939 172.38 112.288C175.529 117.812 179.103 123.12 182.728 128.268C184.135 130.285 185.649 132.301 186.419 134.642C187.3 137.409 186.249 138.91 183.206 138.664C179.15 138.372 175.196 137.546 171.393 135.919C166.036 133.61 161.468 130.175 157.533 125.989C149.932 117.989 143.019 109.398 137.641 99.6757C133.784 92.7163 131.574 85.1589 129.737 77.5456C128.791 73.6591 127.952 69.7719 127.166 65.9376C126.44 62.6896 124.653 59.9822 122.76 57.3822C122.382 56.9048 121.953 56.6945 121.471 56.5378C107.823 51.6726 94.0223 47.6084 79.609 46.2149C79.1285 46.1649 78.5414 46.1156 78.0609 46.0656C77.9543 46.0664 77.742 46.1745 77.477 46.3363C79.943 47.5991 82.4047 48.4354 84.7112 49.7526C93.0766 54.2811 100.281 59.9908 105.377 68.1682C109.335 74.5936 113.186 81.0197 116.401 87.7703C117.109 89.2052 117.658 90.6947 117.994 92.2922C118.275 93.7301 118.61 95.221 117.394 96.2427C116.071 97.2651 114.419 97.4365 112.866 96.754C110.991 95.967 109.117 95.18 107.243 94.4997C105.424 93.8724 103.655 92.978 101.939 92.0299C97.2178 89.2895 92.4452 86.7094 88.0917 83.3798C79.2781 76.7213 71.6786 68.8279 65.877 59.4288C63.9798 56.4022 62.7181 52.9445 61.0321 49.7031C59.0723 45.7703 58.9657 45.7711 54.761 46.6001C48.6925 47.7086 42.7373 49.4563 36.9447 51.4696C29.9832 53.9175 22.8504 55.2467 15.4946 55.6176C11.4439 55.8589 7.39108 55.8869 3.28547 55.9687C2.96551 55.9709 2.59277 56.0268 2.21894 55.976C1.09854 55.9305 0.611578 55.2405 0.601853 54.2807C0.59429 53.5341 1.28483 53.2627 2.08419 53.2039C3.4696 53.0876 4.90888 53.0243 6.29429 52.9081C11.0387 52.7153 15.8392 52.7888 20.5265 52.2231C25.6394 51.5477 30.5885 50.5003 35.4794 48.9732C38.4032 48.0464 41.3798 47.0659 44.3036 46.1391C45.2074 45.8662 45.7364 45.4359 46.1532 44.4731C50.9932 32.654 59.0587 23.3723 69.3306 16.0485C73.1431 13.3557 77.5525 11.672 81.7991 9.72281C89.2852 6.41798 96.934 3.37867 104.803 0.977776C106.344 0.487154 107.887 0.103177 109.487 0.0921122C112.366 0.0721964 113.667 2.0897 112.199 4.65963C111.204 6.42637 109.887 7.98202 108.676 9.53694C102.095 17.9551 94.542 25.2067 85.3183 30.71C79.0097 34.4334 72.3746 37.519 65.7396 40.6046C64.8907 41.0371 63.9869 41.31 63.3545 42.061C64.1086 42.8024 64.9586 42.4765 65.7052 42.4714C78.8752 42.2203 91.6952 44.2648 104.316 47.6972C105.386 48.0098 106.561 48.215 107.632 48.6342C110.309 49.6823 112.379 48.6547 114.173 46.8291C115.229 45.7552 116.07 44.5762 117.018 43.3964C121.651 37.3915 126.821 31.9162 132.747 27.1823C136.238 24.385 140.332 23.1302 144.533 21.9812C150.649 20.2857 156.821 18.8565 163.101 17.6398C164.698 17.3088 166.403 17.1903 168.108 16.9652C169.066 16.852 170.026 16.8453 170.991 17.2653C172.758 18.053 173.198 19.3298 172.149 21.0436C170.051 24.5778 167.415 27.5825 164.511 30.429C160.551 34.3494 156.59 38.1631 152.09 41.4473C143.196 47.9083 133.474 51.6552 122.324 51.2524C121.417 51.2053 120.079 50.7346 119.877 51.8026C119.727 52.8169 121.115 52.9139 121.971 53.228C126.575 55.0093 131.18 56.7906 135.733 58.7323C140.713 60.7777 145.642 62.9834 150.569 65.0825C151.159 65.3451 151.802 65.6606 152.333 65.4436C153.978 64.6323 155.742 64.9934 157.502 65.0346C158.622 65.0801 159.414 64.2747 160.261 63.6289C164.126 60.8824 166.969 57.2364 170.134 53.8015C174.301 49.2397 178.791 44.9957 184.417 42.2903C189.193 40.0175 194.358 39.1818 199.414 38.1336C207.078 36.5874 214.807 36.2673 222.547 36.907C228.792 37.4504 235.03 37.354 241.266 36.9376C241.799 36.9339 242.331 36.8235 242.813 36.9802C243.508 37.1354 244.046 37.6649 244.267 38.41C244.489 39.2617 244.121 39.7442 243.485 40.1753C242.955 40.4989 242.479 40.8755 241.895 41.1462C231.273 45.4859 222.278 52.4809 213.066 59.1574C206.501 63.8957 199.719 68.3156 192.233 71.6205C185.969 74.4369 179.584 75.8676 172.69 74.4754C171.563 73.7899 170.284 73.9054 168.629 73.6502C170.183 74.4394 171.203 75.1256 172.433 75.3838ZM225.872 80.9337C225.553 80.9359 225.288 81.0977 225.45 81.3632C225.667 81.6817 225.824 81.414 225.929 81.1999C226.358 81.5169 226.621 81.1418 226.993 80.9793C233.105 78.9638 239.273 77.108 245.277 74.8799C246.764 74.3364 248.037 73.581 248.875 72.082C243.953 70.5161 232.849 74.6993 226.88 80.3401C226.293 80.2908 226.029 80.5593 225.872 80.9337ZM131.448 41.1101C130.968 41.1668 130.597 41.3293 130.763 41.9148C131.081 41.8059 131.346 41.6441 131.665 41.5352C133.21 41.3646 134.427 40.4496 135.809 39.9067C138.889 38.6055 141.969 37.3043 144.722 35.3654C145.781 34.6115 146.841 33.9642 147.145 32.3623C140.322 32.7294 135.668 36.6013 131.448 41.1101ZM179.763 62.0008C180.508 61.7824 181.307 61.7235 182.05 61.3984C186.354 59.8221 190.658 58.2458 194.907 56.5099C197.669 55.4242 200.376 54.1789 203.082 52.827C204.143 52.2864 205.417 51.6376 205.773 49.9819C200.812 49.8563 196.453 51.1663 192.367 53.2744C187.7 55.7598 183.302 58.6166 178.852 61.5272C178.587 61.689 178.162 61.9053 178.592 62.2223C179.076 62.5922 179.447 62.323 179.763 62.0008ZM200.938 99.0779C201.266 99.9289 201.594 100.673 201.922 101.524C204.385 107.747 207.539 113.698 211.275 119.271C212.955 121.873 215.373 123.723 218.379 125.622C217.8 121.146 216.482 117.316 214.155 113.972C210.314 108.612 205.785 103.737 201.362 98.8617C201.465 98.4343 201.141 98.1166 200.822 98.2255C200.452 98.4947 200.882 98.8117 200.938 99.0779ZM196.642 96.2279C196.459 99.2156 196.329 102.15 197.372 105.075C199.072 109.703 201.461 113.846 204.115 117.934C208.287 124.358 212.986 130.245 219.324 134.681C223.46 137.586 228.106 138.247 233.279 138.158C232.677 136.722 232.346 135.551 231.801 134.488C229.13 128.694 226.087 123.169 222.991 117.591C219.894 112.012 216.692 106.542 211.69 102.363C209.109 100.248 206.581 98.079 203.999 95.9637C202.87 95.0649 201.897 93.7917 200.4 93.3755C200.502 92.9481 200.234 92.79 199.914 92.7922L199.756 92.9533C199.918 93.2188 200.029 93.6447 200.453 93.3218C199.976 93.5917 200.245 93.8565 200.408 94.122C201.705 95.8196 202.895 97.5179 204.245 99.1617C207.592 103.192 210.991 107.061 214.339 111.091C217.578 115.015 218.96 119.752 220.235 124.596C220.457 125.447 220.413 126.354 219.62 127.053C218.721 127.753 217.865 127.545 216.901 127.125C214.168 125.811 211.802 123.907 210.124 121.413C207.58 117.75 205.515 113.925 203.448 109.993C201.163 105.529 199.515 100.741 197.442 96.169C197.437 95.7424 197.218 95.104 196.792 95.2136C196.204 95.0577 196.371 95.7498 196.642 96.2279ZM119.022 46.4223C118.755 46.3708 118.543 46.4789 118.599 46.7452C118.655 47.0114 118.974 46.9026 119.186 46.7944C121.74 46.2435 123.75 44.6297 125.707 42.963C128.985 40.1672 132.263 37.3715 135.541 34.5757C138.608 31.9947 142.276 30.8494 146.163 30.2359C147.282 30.0682 148.508 30.0064 149.213 31.2281C149.864 32.2901 149.34 33.2537 148.656 34.165C147.552 35.7192 146.124 36.849 144.533 37.7132C139.92 40.3582 134.978 42.1523 130.2 44.3185C127.865 45.4012 125.204 45.9529 123.088 47.6741C122.821 47.6226 122.554 47.5711 122.611 47.944C122.667 48.2103 122.986 48.1014 123.198 47.9933C131.364 48.6301 138.697 46.0196 145.537 42.0793C152.747 37.8697 158.553 31.9634 164.252 25.9511C165.835 24.2337 167.416 22.4096 168.569 20.3751C167.657 19.9014 166.914 20.2266 166.169 20.3384C158.234 21.5132 150.523 23.6463 142.757 25.6199C139.885 26.3863 137.125 27.6853 134.69 29.5153C130.509 32.6906 127.081 36.5007 123.601 40.3644C121.914 42.296 120.065 44.0686 119.022 46.4223ZM210.851 87.917C210.639 88.0251 210.372 88.0803 210.481 88.2928C210.644 88.5584 210.856 88.4502 210.961 88.2362C211.657 88.498 212.247 88.8672 212.942 89.0224C216.843 89.7954 220.739 90.1417 224.736 89.8474C227.187 89.6172 229.64 89.6002 231.921 88.3579C241.417 83.4393 250.48 77.8837 259.273 71.9567C260.386 71.2558 261.39 70.3422 262.233 69.3765C263.499 67.9812 263.386 67.342 261.515 66.875C258.254 66.0976 254.942 65.5872 251.683 65.0231C245.967 64.0494 240.644 65.0462 235.551 67.6412C230.298 70.2906 225.155 73.2593 220.173 76.3868C216.782 78.5434 213.876 81.1766 211.024 83.9694C210.549 84.4527 209.86 84.8308 209.975 85.6832C214.663 85.2242 217.002 84.4614 220.498 82.0907C223.04 80.3666 225.528 78.4829 228.016 76.7059C233.153 73.0973 238.783 70.8185 244.958 69.7093C246.235 69.4871 247.568 69.4246 248.905 69.7886C251.098 70.4667 251.543 72.2768 250.015 74.0473C248.802 75.3889 247.263 76.1994 245.616 76.7974C240.674 78.4848 235.73 80.0656 230.841 81.8059C224.198 84.145 217.608 86.3237 210.851 87.917ZM59.4352 39.475C59.1152 39.4772 58.8502 39.639 59.0129 39.9046C59.2294 40.223 59.3867 39.9553 59.4912 39.7413C59.92 39.9516 60.3444 39.7354 60.715 39.4661C64.3778 37.7876 68.0395 36.0025 71.7023 34.3239C82.1596 29.5053 91.9122 23.5717 99.7181 14.9851C103.041 11.3891 106.203 7.63419 109.041 3.45492C108.508 3.4586 108.133 3.30121 107.814 3.41008C106.963 3.62928 106.112 3.84848 105.261 4.06768C97.6042 6.36045 90.1149 9.34533 82.8421 12.6487C78.436 14.6523 73.9749 16.4964 70.004 19.3503C62.7518 24.68 57.0606 31.4388 52.3379 39.0441C51.7077 40.0084 50.8114 41.0279 50.7748 42.6813C54.7457 39.8274 58.1294 36.9242 61.0822 33.5974C66.5149 27.6404 72.9764 23.2227 80.1393 19.6001C81.0949 19.1669 82.1043 18.7866 83.1148 18.513C84.1253 18.2393 85.1401 18.3923 85.6831 19.3485C86.1722 20.2517 85.6993 20.9482 85.1208 21.7522C83.7527 23.5748 82.0625 25.1864 80.1557 26.4794C76.2904 29.2259 71.9371 31.1759 67.8552 33.6039C64.9401 35.3839 61.8634 37.0051 59.4352 39.475ZM234.8 40.9286C235.067 40.9801 235.387 40.9779 235.385 40.7646C235.433 40.2843 235.008 40.3939 234.688 40.3961C232.288 40.3594 229.941 40.3756 227.541 40.3389C223.06 40.1565 218.576 39.7609 214.095 39.6853C206.469 39.6847 199.072 41.2823 191.677 42.9867C186.995 44.0857 182.963 46.2467 179.315 49.3117C176.512 51.6242 173.924 54.1486 171.659 56.884C169.129 59.8879 166.493 62.8926 163.263 65.208C162.998 65.3698 163.001 65.5831 163.163 65.8487C166.733 65.5573 169.87 64.6291 173.369 62.5784C179.041 59.1794 184.606 55.6746 190.331 52.3286C194.201 50.0087 198.562 48.8053 203.034 48.0277C204.418 47.8048 205.646 47.9563 206.827 48.6948C208.062 49.4862 208.282 50.2312 207.709 51.5684C207.03 52.9063 205.864 53.661 204.644 54.3627C202.311 55.6587 199.867 56.5289 197.371 57.5594C189.138 60.8694 180.743 63.9139 172.291 66.6921C170.112 67.4005 168.04 68.2147 165.862 69.0297C170.73 70.5426 175.493 72.1629 180.61 71.9142C182.476 71.8479 184.286 71.5154 186.04 70.9167C192.789 68.5769 199.156 65.3331 205.034 61.1861C211.97 56.2852 219.013 51.3836 225.949 46.376C228.595 44.3312 231.887 42.9219 234.8 40.9286ZM183.442 135.623C183.267 134.077 182.35 133.07 181.592 132.009C178.614 127.497 175.476 123.145 172.657 118.579C167.128 109.764 162.659 100.303 157.819 91.1102C155.698 87.0185 153.842 82.7651 150.82 79.2662C146.665 74.4421 142.034 70.1011 136.666 66.6185C135.646 65.9323 134.624 65.1395 132.808 64.832C137.07 69.6555 140.956 74.2149 144.735 78.775C151.052 86.3574 156.679 94.3178 160.345 103.518C161.385 106.124 161.359 108.844 160.693 111.569C160.487 112.317 159.905 112.694 159.213 112.859C158.096 113.133 157.187 112.873 156.378 111.972C154.276 109.8 152.65 107.251 151.184 104.648C147.599 98.2736 144.757 91.4672 141.704 84.8755C139.195 79.3466 136.95 73.656 133.327 68.7215C132.624 67.7131 131.921 66.8113 130.74 65.9663C130.691 66.4465 130.587 66.6606 130.643 66.9268C131.649 71.5062 132.655 76.0855 133.767 80.5574C135.324 86.8395 137.412 92.9045 140.616 98.5885C145.775 107.672 152.257 115.84 159.479 123.363C162.498 126.542 165.726 129.292 169.534 131.452C173.825 133.876 178.373 135.284 183.442 135.623ZM67.1446 47.6877C69.6149 49.3771 72.0788 50.4266 74.3853 51.7439C81.0895 55.4839 86.8974 60.2433 91.8101 66.1288C94.1856 68.9922 96.5084 71.9092 97.5061 75.6353C98.062 77.8713 97.0063 78.9452 94.6556 78.5348C92.1444 78.0722 90.4217 76.4842 88.6463 74.95C82.0272 69.0763 75.7258 62.987 70.1624 56.0394C69.028 54.6074 67.6285 53.3372 65.7475 51.9103C72.7667 70.9535 99.0384 90.0235 115.077 93.9656C115.113 92.2055 114.351 90.7175 113.642 89.1759C110.862 83.169 107.444 77.4864 103.974 71.8576C102.348 69.309 100.829 66.7597 98.7802 64.5341C91.6116 57.0643 83.3431 51.5753 73.448 48.7106C71.5756 48.137 69.6483 47.4037 67.1446 47.6877ZM292.257 121.911C292.029 120.419 291.061 119.68 290.253 118.885C285.404 114.012 280.133 109.569 274.651 105.448C270.352 102.171 265.584 100.017 260.347 98.987C255.271 98.0089 250.424 98.629 245.586 100.102C248.851 101.306 252.113 102.19 255.426 102.807C259.914 103.63 264.403 104.559 268.686 106.235C272.863 107.913 276.46 110.288 279.744 113.305C280.391 113.94 281.145 114.682 280.674 115.592C280.255 116.341 279.348 116.294 278.493 116.193C275.987 116.157 273.632 115.32 271.382 114.376C264.743 111.756 258.363 108.44 251.827 105.499C251.077 105.184 250.38 104.815 249.631 104.607C248.882 104.399 248.135 104.298 247.173 104.091C260.298 115.199 274.717 122.406 292.257 121.911ZM141.32 78.5853C141.378 79.0649 141.328 79.3319 141.437 79.5445C144.491 86.2428 147.491 92.8881 150.651 99.479C152.503 103.306 154.673 106.917 157.48 110.204C157.75 110.576 158.02 110.947 158.552 110.73C158.923 110.568 159.027 110.247 159.076 109.873C159.375 107.738 159.3 105.659 158.426 103.638C154.71 94.8114 149.141 87.2239 143.146 79.8526C142.715 79.429 142.336 78.845 141.32 78.5853ZM95.5971 76.7151C94.3472 69.151 78.2486 54.0637 68.4601 51.1983C70.4004 53.2113 72.2319 55.0119 73.9061 57.0801C79.2529 63.7092 85.3905 69.4263 91.8987 74.8742C92.9211 75.7737 94.0469 76.3525 95.5971 76.7151ZM255.557 105.26C267.671 111.255 273.296 113.83 277.03 113.91C270.892 108.087 263.408 106.325 255.557 105.26ZM83.0836 20.6997C76.8127 22.8762 67.9671 28.8569 67.2454 31.315C72.7741 29.5702 80.8257 24.1817 83.0836 20.6997ZM65.1824 32.9825C65.9236 32.444 66.8835 32.4374 66.9793 31.3702C66.4967 31.1069 66.2327 31.3753 65.9677 31.5372C65.5971 31.8064 65.2804 32.1285 65.1824 32.9825ZM177.481 63.0299C177.746 62.8681 178.117 62.7055 178.382 62.5437C178.274 62.4378 178.272 62.2245 178.112 62.1722C177.738 62.1215 177.419 62.2304 177.263 62.6048C177.264 62.7114 177.372 62.8173 177.481 63.0299ZM225.999 93.4117C226.322 93.7295 226.587 93.5677 226.745 93.4066C226.798 93.3529 226.741 92.98 226.687 92.927C226.42 92.8755 226.045 92.7181 225.835 93.0396C225.783 93.1999 225.999 93.4117 225.999 93.4117ZM196.624 94.4148C196.731 94.4141 196.837 94.4134 196.836 94.3067C196.889 94.253 196.781 94.1471 196.78 94.0405C196.674 94.0412 196.567 94.0419 196.568 94.1486C196.515 94.2023 196.623 94.3082 196.624 94.4148ZM118.865 51.9696C118.811 51.9166 118.863 51.7563 118.756 51.757C118.65 51.7577 118.489 51.7055 118.33 51.7599C118.384 51.8129 118.332 51.9732 118.438 51.9725C118.545 51.9718 118.705 51.9173 118.865 51.9696ZM140.836 78.2154C140.943 78.2146 141.103 78.1602 141.209 78.1595C141.155 78.1065 141.207 77.9462 141.1 77.9469C140.994 77.9477 140.833 77.8954 140.674 77.9499C140.781 78.0558 140.783 78.1624 140.836 78.2154ZM62.609 42.1728C62.6629 42.2258 62.664 42.3324 62.7178 42.3854C62.8234 42.278 62.9301 42.2773 62.9818 42.1169C63.0345 42.0632 62.9268 41.9573 62.8729 41.9044C62.7674 42.0117 62.7146 42.0654 62.609 42.1728Z" fill="#007777"/>
</svg>
