<svg width="115" height="274" viewBox="0 0 115 274" fill="none" xmlns="http://www.w3.org/2000/svg">
<path fill-rule="evenodd" clip-rule="evenodd" d="M113.806 204.839C114.054 201.441 114.137 198.208 114.468 194.975C115.71 182.127 119.682 170.356 127.379 159.828C127.959 159 128.621 158.171 129.283 157.507C131.931 155.104 135.325 155.767 136.814 159C137.394 160.243 137.642 161.486 137.725 162.813C138.387 168.532 137.808 174.252 136.483 179.806C134.166 189.836 131.518 199.7 128.207 209.481C126.552 214.289 124.317 218.848 122.414 223.573C120.344 228.63 119.517 233.935 120.179 239.406C121.42 249.27 122.662 259.217 123.986 269.082C124.069 269.993 124.234 270.905 124.152 271.817C124.069 272.895 123.572 273.889 122.414 273.972C121.089 274.138 120.013 273.558 119.517 272.232C119.269 271.568 119.269 270.822 119.103 270.159C118.11 262.699 117.034 255.238 116.289 247.695C116.041 245.126 114.882 243.633 112.565 242.722C107.764 240.732 102.633 239.737 97.5016 238.826C88.8114 237.334 80.6178 234.267 72.9207 230.039C70.4378 228.713 68.0376 227.055 66.2996 224.734C65.2237 223.242 65.1409 221.667 65.5547 220.092C65.9686 218.517 67.0445 217.605 68.8653 217.439C73.9139 217.025 78.7142 217.771 83.5973 219.097C93.3634 221.833 101.971 226.723 110.082 232.609C111.323 233.521 112.482 234.432 114.303 235.013C114.303 232.194 113.641 229.625 113.31 227.055C112.813 224.154 111.903 221.252 111.654 218.351C111.406 215.201 109.668 213.958 106.937 213.377C101.143 211.968 95.3498 210.393 89.4735 208.984C82.8524 207.326 76.1485 205.917 69.8585 203.264C57.6922 198.125 46.6018 191.162 37.3322 181.629C35.8425 180.054 34.5183 178.397 33.7734 176.324C33.1113 174.418 33.6079 172.926 35.3459 171.931C36.9184 171.102 38.5737 170.853 40.3945 170.853C44.8637 170.853 49.0847 171.931 53.2229 173.423C63.6512 177.236 73.169 182.624 82.2731 188.841C88.5631 193.152 94.6876 197.711 101.226 201.69C103.13 202.85 105.116 203.928 107.185 205.171C107.516 203.762 106.854 202.85 106.357 201.938C103.461 196.219 100.398 190.665 97.005 185.194C94.8532 181.712 92.7013 178.314 90.6322 174.749C89.9701 173.506 89.0597 172.677 87.901 172.014C80.4522 168.118 72.838 164.388 64.9754 161.321C54.1333 157.176 44.2844 151.373 35.0976 144.327C28.5593 139.354 22.7658 133.717 18.2965 126.754C17.5516 125.676 16.8068 124.516 16.2274 123.355C14.8204 120.288 16.6412 117.47 20.0346 117.553C21.5243 117.636 23.0141 118.05 24.5038 118.548C35.3459 122.029 44.8637 127.666 53.554 134.961C61.3338 141.509 69.5274 147.56 78.0521 153.114C78.5487 153.446 78.9625 153.943 79.6246 153.777C79.8729 153.363 79.5418 153.031 79.4591 152.7C75.2381 143.747 71.762 134.546 68.2032 125.345C67.5411 123.604 66.7962 121.946 66.3824 120.206C65.9686 118.548 65.0582 117.636 63.6512 116.89C59.6785 114.817 55.7058 112.828 51.4021 111.419C34.0217 105.782 18.462 96.9955 4.97153 84.6444C2.57137 82.4892 1.32991 79.7537 0.253981 76.9353C-0.82195 73.7854 1.66097 70.967 5.05429 71.4644C8.11656 71.8788 10.9305 73.2051 13.4962 74.7801C20.2001 78.9247 26.8212 83.0694 33.3596 87.297C42.5464 93.2653 51.7332 99.2336 61.251 106.197C60.6717 104.207 60.3406 102.798 59.9268 101.472C57.9405 95.5034 56.0369 89.4522 53.8023 83.5668C52.0642 78.8419 48.7537 75.2775 44.2844 72.8736C40.1462 70.6354 35.9252 68.646 31.9526 66.1592C27.4833 63.3408 23.0141 60.5225 18.7103 57.3725C14.6549 54.4713 11.6754 50.6582 9.68907 46.0162C7.95103 41.8715 9.44078 39.3018 13.7445 38.4729C16.2274 37.9755 18.3793 38.8873 20.3656 40.0479C29.0558 45.1872 36.9184 51.4042 44.1189 58.6159C44.6155 59.1133 44.9465 59.7764 45.6914 60.0251C46.3535 59.1962 45.7742 58.533 45.5259 57.787C42.3808 49.5806 38.3254 41.7886 34.9321 33.748C33.1113 29.0231 31.456 24.2153 30.6283 19.1588C30.049 15.097 30.049 11.0352 30.9594 6.97348C31.2905 5.31561 32.0353 3.90643 33.1113 2.66303C36.0908 -0.901374 39.9807 -0.901374 42.8774 2.74593C44.781 5.14983 45.8569 8.05109 46.6846 11.0352C49.0019 18.993 49.6641 27.1994 50.3262 35.4058C51.1538 45.6846 52.2297 55.8804 53.885 66.0763C54.0505 67.071 54.1333 68.0657 54.8782 69.0605C55.7886 68.3973 55.5403 67.4026 55.6231 66.6566C56.3679 60.1909 57.1956 53.7252 59.4302 47.5082C61.3338 42.1202 63.8995 36.9808 68.4515 33.1677C70.7689 31.1783 73.2518 30.1007 76.2313 31.7585C77.4727 32.4217 78.3831 33.2506 78.5487 34.7427C79.0453 38.4729 79.2108 42.2031 77.721 45.8504C74.1622 54.637 69.9412 63.0922 66.7134 72.0446C64.9754 76.9353 63.6512 81.9918 62.8235 87.1312C62.2442 91.0272 62.8235 95.006 64.1478 98.8191C66.6307 105.948 69.1136 112.994 71.5965 120.123C71.6793 120.288 71.8448 120.454 71.9276 120.62C72.6724 120.123 72.3414 119.377 72.3414 118.713C72.5897 108.683 73.8311 98.8191 77.721 89.4522C82.1903 78.5103 88.3148 68.3973 95.1842 58.7817C96.5912 56.8752 98.2465 55.2173 100.316 54.0568C102.881 52.5647 105.861 53.7252 106.606 56.5436C107.268 59.0304 107.433 61.6001 106.937 64.0869C105.861 70.1381 103.709 75.8577 101.392 81.4944C99.3224 86.468 97.1706 91.4416 95.0187 96.4152C91.7081 104.207 88.2321 111.916 85.0043 119.708C82.8524 124.93 80.535 130.236 79.7074 135.955C79.2936 138.525 79.6246 141.095 80.535 143.416C83.349 150.213 86.2457 156.927 89.8046 163.393C90.0529 163.807 90.3839 164.139 91.046 165.051C91.1288 162.73 91.2943 160.989 91.2943 159.165C91.4599 147.726 93.0324 136.618 97.4189 126.008C100.564 118.548 104.95 111.833 110.247 105.699C110.992 104.87 111.82 104.124 112.813 103.627C114.054 102.964 115.379 102.881 116.62 103.544C117.944 104.29 118.11 105.616 117.944 107.026C117.117 113.491 115.875 119.874 114.551 126.257C112.482 136.535 109.089 146.483 106.026 156.513C103.874 163.642 101.226 170.522 99.5707 177.816C99.3224 179.06 99.488 179.889 100.15 180.883C104.619 188.427 109.006 195.97 112.565 203.928C112.813 204.259 112.978 204.674 113.806 204.839ZM55.1265 70.0552L54.9609 69.9723L55.0437 70.1381L55.1265 70.0552Z" fill="#009090"/>
</svg>
