<svg width="167" height="331" viewBox="0 0 167 331" fill="none" xmlns="http://www.w3.org/2000/svg">
<path fill-rule="evenodd" clip-rule="evenodd" d="M137.507 247.113C137.807 243.013 137.907 239.113 138.307 235.213C139.807 219.713 144.607 205.513 153.907 192.813C154.607 191.813 155.407 190.813 156.207 190.013C159.407 187.113 163.507 187.913 165.307 191.813C166.007 193.313 166.307 194.813 166.407 196.413C167.207 203.313 166.507 210.213 164.907 216.913C162.107 229.013 158.907 240.913 154.907 252.713C152.907 258.513 150.207 264.013 147.907 269.713C145.407 275.813 144.407 282.213 145.207 288.813C146.707 300.713 148.207 312.713 149.807 324.613C149.907 325.713 150.107 326.813 150.007 327.913C149.907 329.213 149.307 330.413 147.907 330.513C146.307 330.713 145.007 330.013 144.407 328.413C144.107 327.613 144.107 326.713 143.907 325.913C142.707 316.913 141.407 307.913 140.507 298.813C140.207 295.713 138.807 293.913 136.007 292.813C130.207 290.413 124.007 289.213 117.807 288.113C107.307 286.313 97.4069 282.613 88.1069 277.513C85.1069 275.913 82.2069 273.913 80.1069 271.113C78.8069 269.313 78.7069 267.413 79.2069 265.513C79.7069 263.613 81.0069 262.513 83.2069 262.313C89.3069 261.813 95.1069 262.713 101.007 264.313C112.807 267.613 123.207 273.513 133.007 280.613C134.507 281.713 135.907 282.813 138.107 283.513C138.107 280.113 137.307 277.013 136.907 273.913C136.307 270.413 135.207 266.913 134.907 263.413C134.607 259.613 132.507 258.113 129.207 257.413C122.207 255.713 115.207 253.813 108.107 252.113C100.107 250.113 92.0069 248.413 84.4069 245.213C69.7069 239.013 56.3069 230.613 45.1069 219.113C43.3069 217.213 41.7069 215.213 40.8069 212.713C40.0069 210.413 40.6069 208.613 42.7069 207.413C44.6069 206.413 46.6069 206.113 48.8069 206.113C54.2069 206.113 59.3069 207.413 64.3069 209.213C76.9069 213.813 88.4069 220.313 99.4069 227.813C107.007 233.013 114.407 238.513 122.307 243.313C124.607 244.713 127.007 246.013 129.507 247.513C129.907 245.813 129.107 244.713 128.507 243.613C125.007 236.713 121.307 230.013 117.207 223.413C114.607 219.213 112.007 215.113 109.507 210.813C108.707 209.313 107.607 208.313 106.207 207.513C97.2069 202.813 88.0069 198.313 78.5069 194.613C65.4069 189.613 53.5069 182.613 42.4069 174.113C34.5069 168.113 27.5069 161.313 22.1069 152.913C21.2069 151.613 20.3069 150.213 19.6069 148.813C17.9069 145.113 20.1069 141.713 24.2069 141.813C26.0069 141.913 27.8069 142.413 29.6069 143.013C42.7069 147.213 54.2069 154.013 64.7069 162.813C74.1069 170.713 84.0069 178.013 94.3069 184.713C94.9069 185.113 95.4069 185.713 96.2069 185.513C96.5069 185.013 96.1069 184.613 96.0069 184.213C90.9069 173.413 86.7069 162.313 82.4069 151.213C81.6069 149.113 80.7069 147.113 80.2069 145.013C79.7069 143.013 78.6069 141.913 76.9069 141.013C72.1069 138.513 67.3069 136.113 62.1069 134.413C41.1069 127.613 22.3069 117.013 6.00687 102.113C3.10687 99.5126 1.60687 96.2126 0.306874 92.8126C-0.993126 89.0126 2.00687 85.6126 6.10687 86.2126C9.80687 86.7126 13.2069 88.3126 16.3069 90.2126C24.4069 95.2126 32.4069 100.213 40.3069 105.313C51.4069 112.513 62.5069 119.713 74.0069 128.113C73.3069 125.713 72.9069 124.013 72.4069 122.413C70.0069 115.213 67.7069 107.913 65.0069 100.813C62.9069 95.1126 58.9069 90.8126 53.5069 87.9126C48.5069 85.2126 43.4069 82.8126 38.6069 79.8126C33.2069 76.4126 27.8069 73.0126 22.6069 69.2126C17.7069 65.7126 14.1069 61.1126 11.7069 55.5126C9.60687 50.5126 11.4069 47.4126 16.6069 46.4126C19.6069 45.8126 22.2069 46.9126 24.6069 48.3126C35.1069 54.5126 44.6069 62.0126 53.3069 70.7126C53.9069 71.3126 54.3069 72.1126 55.2069 72.4126C56.0069 71.4126 55.3069 70.6126 55.0069 69.7126C51.2069 59.8126 46.3069 50.4126 42.2069 40.7126C40.0069 35.0126 38.0069 29.2126 37.0069 23.1126C36.3069 18.2126 36.3069 13.3126 37.4069 8.41261C37.8069 6.41261 38.7069 4.71261 40.0069 3.21261C43.6069 -1.08739 48.3069 -1.08739 51.8069 3.31261C54.1069 6.21261 55.4069 9.71261 56.4069 13.3126C59.2069 22.9126 60.0069 32.8126 60.8069 42.7126C61.8069 55.1126 63.1069 67.4126 65.1069 79.7126C65.3069 80.9126 65.4069 82.1126 66.3069 83.3126C67.4069 82.5126 67.1069 81.3126 67.2069 80.4126C68.1069 72.6126 69.1069 64.8126 71.8069 57.3126C74.1069 50.8126 77.2069 44.6126 82.7069 40.0126C85.5069 37.6126 88.5069 36.3126 92.1069 38.3126C93.6069 39.1126 94.7069 40.1126 94.9069 41.9126C95.5069 46.4126 95.7069 50.9126 93.9069 55.3126C89.6069 65.9126 84.5069 76.1126 80.6069 86.9126C78.5069 92.8126 76.9069 98.9126 75.9069 105.113C75.2069 109.813 75.9069 114.613 77.5069 119.213C80.5069 127.813 83.5069 136.313 86.5069 144.913C86.6069 145.113 86.8069 145.313 86.9069 145.513C87.8069 144.913 87.4069 144.013 87.4069 143.213C87.7069 131.113 89.2069 119.213 93.9069 107.913C99.3069 94.7126 106.707 82.5126 115.007 70.9126C116.707 68.6126 118.707 66.6126 121.207 65.2126C124.307 63.4126 127.907 64.8126 128.807 68.2126C129.607 71.2126 129.807 74.3126 129.207 77.3126C127.907 84.6126 125.307 91.5126 122.507 98.3126C120.007 104.313 117.407 110.313 114.807 116.313C110.807 125.713 106.607 135.013 102.707 144.413C100.107 150.713 97.3069 157.113 96.3069 164.013C95.8069 167.113 96.2069 170.213 97.3069 173.013C100.707 181.213 104.207 189.313 108.507 197.113C108.807 197.613 109.207 198.013 110.007 199.113C110.107 196.313 110.307 194.213 110.307 192.013C110.507 178.213 112.407 164.813 117.707 152.013C121.507 143.013 126.807 134.913 133.207 127.513C134.107 126.513 135.107 125.613 136.307 125.013C137.807 124.213 139.407 124.113 140.907 124.913C142.507 125.813 142.707 127.413 142.507 129.113C141.507 136.913 140.007 144.613 138.407 152.313C135.907 164.713 131.807 176.713 128.107 188.813C125.507 197.413 122.307 205.713 120.307 214.513C120.007 216.013 120.207 217.013 121.007 218.213C126.407 227.313 131.707 236.413 136.007 246.013C136.307 246.413 136.507 246.913 137.507 247.113ZM66.6069 84.5126L66.4069 84.4126L66.5069 84.6126L66.6069 84.5126Z" fill="url(#paint0_linear_210_2882)" fill-opacity="0.1"/>
<defs>
<linearGradient id="paint0_linear_210_2882" x1="83.3696" y1="0" x2="83.3696" y2="330.546" gradientUnits="userSpaceOnUse">
<stop stop-color="#010101"/>
<stop offset="1" stop-color="#010101" stop-opacity="0"/>
</linearGradient>
</defs>
</svg>
