<svg width="39" height="34" viewBox="0 0 39 34" fill="none" xmlns="http://www.w3.org/2000/svg">
<path d="M34.7539 21.9762C36.3224 21.9762 37.5943 20.7043 37.5943 19.1357V3.84044C37.5943 2.2719 36.3224 1 34.7539 1H7.36058C5.79204 1 4.52014 1.78766 4.52014 3.35658M25.5692 24.8016H23.4721M27.4515 24.8016H31.3758C33.0769 24.8016 34.4554 23.4223 34.4554 21.7212V6.71243C34.4554 5.01176 33.0765 3.63285 31.3758 3.63285H3.77343C2.07276 3.63285 0.693848 5.01176 0.693848 6.71243V21.7212C0.693848 23.4219 2.07314 24.8016 3.77343 24.8016H6.70007L8.84389 33L13.801 24.8016H20.9898" stroke="#009090" stroke-width="1.3" stroke-miterlimit="10" stroke-linecap="round" stroke-linejoin="round"/>
<path d="M11.1517 13.936H11.0974M18.338 13.936H18.2833M25.5244 13.936H25.4701" stroke="#009090" stroke-width="2" stroke-miterlimit="10" stroke-linecap="round" stroke-linejoin="round"/>
</svg>
