<svg width="33" height="34" viewBox="0 0 33 34" fill="none" xmlns="http://www.w3.org/2000/svg">
<path d="M30.2501 0.997803H2.74992C1.23727 0.997803 0 2.23535 0 3.74772V31.2479C0 32.7605 1.23755 33.9978 2.74992 33.9978H30.2501C31.7627 33.9978 33 32.7602 33 31.2479V3.74772C33 2.23507 31.7624 0.997803 30.2501 0.997803ZM31.6249 31.2481C31.6249 32.0044 31.0061 32.6232 30.2497 32.6232L2.75048 32.6228C1.99414 32.6228 1.37533 32.0041 1.37533 31.2477V9.24776H31.6256L31.6249 31.2481ZM31.6249 7.87307H1.37459V3.7481C1.37459 2.99176 1.99338 2.37295 2.74974 2.37295H30.2499C31.0062 2.37295 31.625 2.99174 31.625 3.7481L31.6249 7.87307Z" fill="#009090"/>
<path d="M26.8124 6.42925C26.1251 6.42925 25.5062 5.87942 25.5062 5.12304C25.5062 4.36667 26.0561 3.81683 26.8124 3.81683C27.5688 3.81683 28.1186 4.36667 28.1186 5.12304C28.1186 5.87902 27.5002 6.42925 26.8124 6.42925ZM26.8124 4.36676C26.3998 4.36676 26.0561 4.71045 26.0561 5.1231C26.0561 5.53574 26.3998 5.87943 26.8124 5.87943C27.2251 5.87943 27.5688 5.53574 27.5688 5.1231C27.5688 4.71045 27.2251 4.36676 26.8124 4.36676Z" fill="#009090"/>
<path d="M29.5626 6.42925C28.8752 6.42925 28.2563 5.87942 28.2563 5.12304C28.2563 4.36667 28.8062 3.81683 29.5626 3.81683C30.3189 3.81683 30.8688 4.36667 30.8688 5.12304C30.8688 5.87902 30.25 6.42925 29.5626 6.42925ZM29.5626 4.36676C29.1499 4.36676 28.8062 4.71045 28.8062 5.1231C28.8062 5.53574 29.1499 5.87943 29.5626 5.87943C29.9752 5.87943 30.3189 5.53574 30.3189 5.1231C30.3185 4.71045 29.9748 4.36676 29.5626 4.36676Z" fill="#009090"/>
<path d="M24.0624 6.42925C23.3751 6.42925 22.7562 5.87942 22.7562 5.12304C22.7562 4.36667 23.3061 3.81683 24.0624 3.81683C24.8188 3.81683 25.3686 4.36667 25.3686 5.12304C25.3686 5.87902 24.7498 6.42925 24.0624 6.42925ZM24.0624 4.36676C23.6498 4.36676 23.3061 4.71045 23.3061 5.1231C23.3061 5.53574 23.6498 5.87943 24.0624 5.87943C24.4751 5.87943 24.8188 5.53574 24.8188 5.1231C24.8188 4.71045 24.4751 4.36676 24.0624 4.36676Z" fill="#009090"/>
<path d="M19.9372 5.81049H4.125C3.71235 5.81049 3.43762 5.53539 3.43762 5.12311C3.43762 4.71046 3.71272 4.43573 4.125 4.43573H19.9372C20.3498 4.43573 20.6246 4.71083 20.6246 5.12311C20.6246 5.53539 20.3498 5.81049 19.9372 5.81049Z" fill="#009090"/>
<path d="M21.7935 22.9978C20.9686 22.9978 20.2122 23.3414 19.731 23.8916L15.7435 21.2104C15.8121 20.8667 15.8811 20.523 15.8811 20.1103C15.8811 19.7666 15.8125 19.423 15.7435 19.1479L19.731 16.5356C20.2808 17.0854 21.0372 17.4295 21.7935 17.4295C23.4434 17.4295 24.7499 16.1232 24.7499 14.4731C24.7499 12.8232 23.4437 11.5167 21.7935 11.5167C20.1436 11.5167 18.8371 12.8229 18.8371 14.4731C18.8371 14.8857 18.9057 15.2294 19.0433 15.5731L15.262 18.1169C14.5056 16.8793 13.1995 16.0544 11.6871 16.0544C9.41845 16.0544 7.56213 17.9107 7.56213 20.1794C7.56213 22.448 9.41845 24.3044 11.6871 24.3044C13.1998 24.3044 14.506 23.4794 15.1933 22.3104L18.9746 24.8542C18.8371 25.1979 18.7685 25.5416 18.7685 25.9542C18.7685 27.6041 20.0747 28.9106 21.7248 28.9106C23.3747 28.9106 24.6812 27.6044 24.6812 25.9542C24.7494 24.3729 23.4433 22.9979 21.7934 22.9979L21.7935 22.9978ZM21.7935 12.617C22.7559 12.617 23.5809 13.442 23.5809 14.4044C23.5809 15.3669 22.756 16.1918 21.7935 16.1918C20.831 16.1918 20.0061 15.3669 20.0061 14.4044C20.0057 13.442 20.831 12.617 21.7935 12.617ZM11.6869 23.1353C10.037 23.1353 8.73048 21.8291 8.73048 20.1789C8.73048 18.529 10.0367 17.2225 11.6869 17.2225C13.3367 17.2225 14.6432 18.5287 14.6432 20.1789C14.6432 21.8291 13.3367 23.1353 11.6869 23.1353ZM21.7935 27.7415C20.8311 27.7415 20.0061 26.9166 20.0061 25.9541C20.0061 24.9917 20.831 24.1667 21.7935 24.1667C22.756 24.1667 23.5809 24.9917 23.5809 25.9541C23.5809 26.9852 22.756 27.7415 21.7935 27.7415Z" fill="#009090"/>
</svg>
