<svg width="42" height="44" viewBox="0 0 42 44" fill="none" xmlns="http://www.w3.org/2000/svg">
<path d="M8.04115 0.00012207C4.9539 0.00012207 2.44202 2.51201 2.44202 5.59966C2.44202 8.68732 4.9539 11.1992 8.04115 11.1992C11.1287 11.1992 13.6407 8.68732 13.6407 5.59966C13.6403 2.51211 11.1288 0.00012207 8.04115 0.00012207ZM8.04115 9.73913C5.7583 9.73913 3.90157 7.882 3.90157 5.59884C3.90117 3.31599 5.7583 1.45927 8.04115 1.45927C10.324 1.45927 12.1814 3.3164 12.1814 5.59956C12.181 7.88241 10.3235 9.73913 8.04115 9.73913Z" fill="#009090"/>
<path d="M0.000101866 25.0502C0.000101866 26.6939 1.08293 28.0916 2.60668 28.5346V37.312C2.60668 39.2922 4.21825 40.9035 6.19822 40.9035H9.87962C11.8635 40.9035 13.4771 39.2919 13.4771 37.312V17.2411L22.2994 17.2371C23.5683 17.2355 24.601 16.2012 24.601 14.8957C24.601 13.6199 23.5672 12.5821 22.2949 12.5821H3.63323C1.62964 12.5821 0 14.2121 0 16.2153V25.0504L0.000101866 25.0502ZM1.45925 16.2147C1.45925 15.0159 2.43456 14.0406 3.63333 14.0406H22.295C22.762 14.0406 23.142 14.4237 23.142 14.9309C23.142 15.3974 22.7636 15.7774 22.2987 15.7778L12.7478 15.7822C12.345 15.7822 12.018 16.1092 12.018 16.512V27.936L12.0176 37.3119C12.0176 38.4874 11.0584 39.4443 9.87929 39.4443H6.19789C5.02241 39.4443 4.0655 38.4875 4.0655 37.3119V27.936C4.0655 27.5609 3.78186 27.2479 3.40955 27.2102C2.29785 27.0979 1.45895 26.1695 1.45895 25.0506L1.45925 16.2147Z" fill="#009090"/>
<path d="M29.0343 36.4721C32.5595 36.4721 35.4281 33.6039 35.4281 30.0778C35.4281 26.5521 32.56 23.684 29.0343 23.684C25.509 23.684 22.6404 26.5517 22.6404 30.0778C22.6404 33.6039 25.5086 36.4721 29.0343 36.4721ZM29.0343 25.1436C31.7551 25.1436 33.9686 27.357 33.9686 30.0779C33.9686 32.7992 31.7551 35.0131 29.0343 35.0131C26.3134 35.0131 24.0999 32.7996 24.0999 30.0779C24.0995 27.357 26.3134 25.1436 29.0343 25.1436Z" fill="#009090"/>
<path d="M16.1312 34.3697C16.0032 34.8479 16.069 35.3474 16.3165 35.7759L17.7416 38.244C17.9887 38.6725 18.3883 38.9794 18.8665 39.1074C19.0262 39.1503 19.1887 39.1711 19.3496 39.1711C19.6705 39.1711 19.9871 39.0869 20.2727 38.922L22.0316 37.907C23.1148 38.8759 24.3854 39.6092 25.757 40.0577V42.0886C25.757 43.11 26.5883 43.9413 27.6097 43.9413H30.4594C31.4809 43.9413 32.3121 43.11 32.3121 42.0886V40.0577C33.6838 39.6092 34.9545 38.8758 36.0376 37.907L37.7964 38.9224C38.0821 39.0873 38.3986 39.1715 38.7196 39.1715C38.8805 39.1715 39.043 39.1507 39.2026 39.1078C39.6808 38.9794 40.08 38.6725 40.3276 38.2444L41.7522 35.7763C42.2629 34.892 41.9588 33.7566 41.0742 33.2455L39.3149 32.23C39.4618 31.5267 39.5396 30.8062 39.5396 30.0793C39.5396 29.3515 39.4654 28.6298 39.3181 27.9264L41.0742 26.9126C41.9585 26.4015 42.2625 25.2661 41.7518 24.3818L40.3272 21.9137C40.0797 21.4852 39.6805 21.1783 39.2023 21.0507C38.724 20.9232 38.2249 20.9886 37.7964 21.2361L36.038 22.2511C34.9564 21.283 33.6858 20.5493 32.3117 20.1004V18.0703C32.3117 17.0484 31.4808 16.2171 30.459 16.2171H27.6093C26.5879 16.2171 25.7566 17.0484 25.7566 18.0703V20.1004C24.3829 20.5497 23.1119 21.2831 22.0307 22.2511L20.2723 21.2361C19.8438 20.9886 19.3439 20.9224 18.8664 21.0507C18.3882 21.1787 17.989 21.4856 17.7415 21.9137L16.3164 24.3818C16.0689 24.8103 16.0031 25.3094 16.1311 25.788C16.2591 26.2658 16.566 26.6654 16.9945 26.9129L18.7529 27.928C18.6061 28.6309 18.5286 29.3518 18.5286 30.0791C18.5286 30.8061 18.6061 31.5271 18.7533 32.2299L16.9949 33.2453C16.566 33.4921 16.2595 33.8917 16.1311 34.3695L16.1312 34.3697ZM17.5406 34.7476C17.5679 34.6461 17.6325 34.5615 17.724 34.5089L19.7508 33.3383C19.8442 33.2849 19.9341 33.2239 20.0184 33.1613C20.0212 33.1589 20.0236 33.1561 20.0268 33.1537C20.0312 33.1505 20.0352 33.1461 20.0396 33.1421C20.2683 32.9571 20.3578 32.661 20.2868 32.391C20.2868 32.3902 20.2868 32.3894 20.2864 32.3886C20.0886 31.6416 19.9879 30.8641 19.9879 30.0786C19.9879 29.293 20.0882 28.5167 20.2856 27.7705C20.3112 27.6742 20.3181 27.5743 20.304 27.4772C20.2976 27.4314 20.2864 27.3861 20.2715 27.3428C20.2715 27.3424 20.2715 27.342 20.2711 27.3412C20.221 27.1951 20.1231 27.0692 19.9943 26.9797C19.9181 26.9239 19.8382 26.8682 19.7532 26.8188L17.7243 25.6478C17.5366 25.5386 17.472 25.2979 17.5803 25.1102L19.0053 22.642C19.0579 22.5506 19.1429 22.486 19.244 22.4587C19.3452 22.431 19.4519 22.4454 19.5425 22.498L21.571 23.669C21.6616 23.7212 21.7547 23.7657 21.8478 23.8062C21.8671 23.8151 21.8863 23.8195 21.906 23.8263C21.975 23.85 22.0452 23.8644 22.115 23.8672C22.1242 23.8676 22.1327 23.8724 22.1419 23.8724C22.1503 23.8724 22.1575 23.868 22.1656 23.8676C22.2462 23.8652 22.3252 23.85 22.3994 23.8223C22.4079 23.8195 22.4155 23.8171 22.4239 23.8135C22.5106 23.7778 22.5896 23.7256 22.6574 23.6586C23.7703 22.5522 25.1544 21.7525 26.6606 21.3469C26.6782 21.3421 26.6943 21.3337 26.7111 21.328C26.7244 21.3232 26.7368 21.3188 26.7497 21.3136C26.8211 21.2839 26.8857 21.2454 26.9422 21.1969C26.9499 21.19 26.9567 21.1828 26.9643 21.176C27.0217 21.1226 27.0718 21.0621 27.1091 20.9935C27.1131 20.9866 27.1152 20.9794 27.1188 20.9726C27.1569 20.8984 27.1834 20.8185 27.1942 20.7347C27.1942 20.7339 27.195 20.7327 27.195 20.7319C27.2078 20.6272 27.2155 20.5188 27.2155 20.4109V18.0683C27.2155 17.8512 27.392 17.6743 27.609 17.6743H30.4587C30.6758 17.6743 30.8523 17.8509 30.8523 18.0683V20.4109C30.8523 20.5184 30.8607 20.626 30.8727 20.7295C30.8727 20.7315 30.8735 20.7327 30.8735 20.7347C30.878 20.7704 30.8872 20.8041 30.8964 20.8378C30.8996 20.8506 30.9012 20.8639 30.9056 20.8767C30.9153 20.9048 30.9289 20.9313 30.9421 20.9578C31.036 21.1527 31.2097 21.2976 31.4168 21.3501C32.9197 21.7569 34.301 22.5549 35.4111 23.6602C35.4781 23.726 35.5563 23.7773 35.6422 23.813C35.6506 23.8163 35.6582 23.8195 35.6667 23.8223C35.7417 23.8504 35.8215 23.8656 35.9026 23.868C35.9102 23.8684 35.9182 23.8724 35.9258 23.8724C35.9343 23.8724 35.9419 23.868 35.9495 23.8676C36.0201 23.8652 36.0911 23.8508 36.1601 23.8263C36.1806 23.8195 36.1999 23.8143 36.2199 23.8054C36.313 23.7649 36.4069 23.7204 36.4951 23.6686L38.524 22.4976C38.6151 22.4454 38.7206 22.4314 38.8225 22.4582C38.9236 22.4855 39.0082 22.5501 39.0612 22.6416L40.4862 25.1097C40.5946 25.2979 40.53 25.5386 40.3422 25.6473L38.3121 26.8196C38.2271 26.8686 38.1452 26.9231 38.0686 26.9801C37.927 27.0784 37.8211 27.2268 37.7773 27.4022C37.7436 27.537 37.7497 27.6746 37.7902 27.8006C37.9819 28.5363 38.079 29.3022 38.079 30.0769C38.079 30.8625 37.9783 31.6396 37.7806 32.387C37.7806 32.3878 37.7806 32.3886 37.7801 32.3894C37.7111 32.653 37.7958 32.941 38.0128 33.1268C38.0225 33.1352 38.0309 33.1449 38.0409 33.1529C38.0433 33.1549 38.0449 33.1569 38.0473 33.1589C38.1316 33.2223 38.2219 33.2833 38.3137 33.3358L40.3426 34.5069C40.5308 34.616 40.5949 34.8567 40.4866 35.0445L39.062 37.5126C38.9537 37.7008 38.7117 37.7662 38.5244 37.6571L36.4972 36.4867C36.4025 36.4317 36.3034 36.3832 36.2059 36.3423C36.2051 36.3419 36.2035 36.3419 36.2027 36.3415C36.1995 36.3399 36.1959 36.3395 36.1927 36.3387C36.1056 36.3042 36.0157 36.2865 35.9271 36.2861H35.9255C35.8308 36.2857 35.7377 36.3042 35.6511 36.3387C35.5604 36.3752 35.4773 36.4298 35.4075 36.4996C34.293 37.6053 32.9105 38.4028 31.4092 38.8068C31.2808 38.8414 31.166 38.9116 31.0742 39.0062C31.0649 39.0159 31.0537 39.0239 31.0453 39.0339C31.0445 39.0355 31.0433 39.0367 31.0425 39.0383C31.0132 39.0728 30.9867 39.1098 30.9642 39.1487C30.959 39.1579 30.9554 39.1691 30.9506 39.1784C30.9342 39.2109 30.9177 39.2433 30.9057 39.2787C30.9017 39.2899 30.9009 39.3015 30.8973 39.3132C30.8872 39.3489 30.878 39.3842 30.8736 39.4207C30.8736 39.4227 30.8728 39.4239 30.8728 39.4255C30.8607 39.529 30.8523 39.6377 30.8523 39.7444V42.0871C30.8523 42.3041 30.6758 42.4806 30.4587 42.4806H27.6091C27.392 42.4806 27.2155 42.3045 27.2155 42.0871V39.7444C27.2155 39.6369 27.2079 39.529 27.195 39.4255C27.1946 39.4235 27.1942 39.4215 27.1934 39.4191C27.1902 39.3914 27.1822 39.3649 27.1754 39.338C27.1706 39.3172 27.1669 39.2959 27.1601 39.2758C27.1581 39.2698 27.1549 39.2646 27.1525 39.2582C27.0699 39.0331 26.8825 38.8642 26.6538 38.8052C25.1534 38.4004 23.7717 37.6029 22.6575 36.4967C22.5881 36.4277 22.5063 36.3736 22.4172 36.3382C22.4168 36.3378 22.4164 36.3378 22.4152 36.3374C22.3297 36.3033 22.2371 36.2853 22.1432 36.2853H22.14C22.0525 36.2857 21.9635 36.3037 21.8772 36.3374C21.8728 36.3394 21.868 36.3398 21.8636 36.3419C21.8616 36.3427 21.8591 36.3427 21.8571 36.3439C21.7613 36.3852 21.6642 36.4317 21.5707 36.4859L19.5418 37.6569C19.3541 37.7649 19.1129 37.7007 19.0042 37.5125L17.5792 35.0444C17.5278 34.9545 17.5134 34.8486 17.5407 34.7475L17.5406 34.7476Z" fill="#009090"/>
</svg>
