<svg width="28" height="37" viewBox="0 0 28 37" fill="none" xmlns="http://www.w3.org/2000/svg">
<path d="M27.3563 7.947L20.4093 1H1V36H27.5152V8.10584L27.3563 7.947ZM25.7124 7.78788H20.7275V2.80305L25.7124 7.78788ZM2.061 34.9396V2.06102H19.6672V8.31861C19.6672 8.63687 19.8793 8.84894 20.1976 8.84894H26.4551V34.94L2.061 34.9396Z" fill="#009090" stroke="#009090" stroke-width="0.4"/>
<path d="M18.8182 17.1742L16.5381 14.8408C16.326 14.6287 16.0077 14.6287 15.7957 14.8408C15.5836 15.0528 15.5836 15.3711 15.7957 15.5832L17.1746 17.0151H10.0684C9.75016 17.0151 9.53809 17.2272 9.53809 17.5454C9.53809 17.8637 9.75017 18.0757 10.0684 18.0757H17.2276L15.7957 19.5606C15.5836 19.7726 15.5836 20.0909 15.7957 20.303C16.0077 20.5151 16.326 20.5151 16.5381 20.303L18.8182 17.9166C18.9244 17.8104 18.9774 17.7045 18.9774 17.5454C18.9774 17.4395 18.9244 17.2804 18.8182 17.1742V17.1742Z" fill="#009090" stroke="#009090" stroke-width="0.4"/>
<path d="M18.4474 22.212H11.3413L12.7202 20.7801C12.9323 20.568 12.9323 20.2497 12.7202 20.0377C12.5081 19.8256 12.1899 19.8256 11.9778 20.0377L9.69763 22.3711C9.48555 22.5832 9.48555 22.9015 9.69763 23.1135L11.9778 25.4999C12.1899 25.712 12.5081 25.712 12.7202 25.4999C12.9323 25.2878 12.9323 24.9696 12.7202 24.7575L11.3413 23.2724H18.5004C18.8187 23.2724 19.0308 23.0603 19.0308 22.742C19.0308 22.4241 18.7658 22.212 18.4475 22.212L18.4474 22.212Z" fill="#009090" stroke="#009090" stroke-width="0.4"/>
</svg>
