<svg width="28" height="36" viewBox="0 0 28 36" fill="none" xmlns="http://www.w3.org/2000/svg">
<path d="M3.808 14.9463C3.808 21.8697 2.23093 23.9849 1.26933 24.6005C0.46161 25.1389 0 26.0621 0 26.9853C0 28.6008 1.30775 29.8701 2.88481 29.8701H25.1162C26.6932 29.8701 28.001 28.5624 28.001 26.9853C28.001 26.0237 27.5394 25.1392 26.7317 24.6005C25.7701 23.9467 24.193 21.8312 24.193 14.9463C24.193 8.48459 20.2698 5.90776 17.3851 4.83083C17.4235 4.60019 17.4619 4.33085 17.4619 4.1002C17.4619 2.17699 15.9236 0.638672 14.0004 0.638672C12.0772 0.638672 10.5388 2.17699 10.5388 4.1002C10.5388 4.33084 10.5772 4.60018 10.6156 4.83083C7.73113 5.86918 3.80805 8.48459 3.80805 14.9463H3.808ZM14.0007 2.17668C15.0778 2.17668 15.9239 3.02279 15.9239 4.09988C15.9239 4.21536 15.9239 4.29214 15.8855 4.40762C14.3084 4.0615 12.8468 4.25375 12.0778 4.40762C12.0778 4.29214 12.0394 4.21536 12.0394 4.09988C12.0778 3.02279 12.9239 2.17668 14.0006 2.17668H14.0007ZM11.9623 6.02301H12.0007C12.0007 6.02301 12.8468 5.75366 14.0394 5.75366C14.6548 5.75366 15.3087 5.83043 16.0393 6.0614H16.0777C19.0777 6.90751 22.6934 9.13844 22.6934 14.9846C22.6934 18.6384 23.1166 21.4464 23.9627 23.3694L8.23107 23.3691C7.80786 23.3691 7.46173 23.7152 7.46173 24.1385C7.46173 24.5617 7.80785 24.9078 8.23107 24.9078H24.77H24.8084C25.1161 25.331 25.4622 25.6384 25.8467 25.9077C26.2312 26.177 26.4622 26.6 26.4622 27.0232C26.4622 27.7538 25.8467 28.3692 25.1161 28.3692H2.88473C2.1541 28.3692 1.53865 27.7538 1.53865 27.0232C1.53865 26.5616 1.76929 26.1386 2.15412 25.9077C4.26956 24.4462 5.34666 20.7924 5.34666 14.9841C5.34634 9.09942 8.92335 6.86849 11.962 6.0227L11.9623 6.02301Z" fill="#009090"/>
<path d="M14.3857 35.6387C16.7705 35.6387 18.8089 33.8694 19.155 31.5233L19.2705 30.6387L9.50098 30.6384L9.61646 31.523C9.96258 33.8694 12.0009 35.6387 14.3857 35.6387L14.3857 35.6387ZM17.3473 32.1771C16.8473 33.331 15.6551 34.1004 14.3857 34.1004C13.1164 34.1004 11.9242 33.331 11.4242 32.1771H17.3473Z" fill="#009090"/>
<path d="M6.30889 24.8694H6.46276C6.50114 24.8694 6.57824 24.831 6.61662 24.831C6.65501 24.831 6.69339 24.7926 6.7321 24.7542C6.77049 24.7158 6.80888 24.6774 6.84758 24.6774C7.00113 24.4845 7.07822 24.2923 7.07822 24.1C7.07822 23.9078 7.00145 23.7155 6.84758 23.5616C6.80919 23.5233 6.77081 23.4849 6.7321 23.4849C6.69371 23.4849 6.65533 23.4465 6.61662 23.4081C6.57823 23.4081 6.53985 23.3697 6.46276 23.3697C6.23212 23.3313 5.96277 23.4081 5.77052 23.562C5.61665 23.7155 5.53955 23.9078 5.53955 24.1C5.53955 24.2923 5.61633 24.4845 5.77019 24.6384C5.92437 24.7923 6.11663 24.8694 6.30888 24.8694L6.30889 24.8694Z" fill="#009090"/>
</svg>
