<svg width="40" height="45" viewBox="0 0 40 45" fill="none" xmlns="http://www.w3.org/2000/svg">
<path d="M22.6582 38.0575H0.603026C0.270442 38.0575 0.000497133 37.7875 0.000497133 37.455L0 0.602527C0 0.269943 0.269945 0 0.602529 0H28.7347C29.0673 0 29.3372 0.269943 29.3372 0.602527V18.7647C29.3372 19.0972 29.0673 19.3672 28.7347 19.3672C28.4021 19.3672 28.1322 19.0972 28.1322 18.7647L28.1327 1.20577H1.20571V36.8517H22.6589C22.9915 36.8517 23.2615 37.1217 23.2615 37.4542C23.2615 37.7868 22.9915 38.0573 22.6584 38.0573L22.6582 38.0575Z" fill="#009090"/>
<path d="M18.886 4.15257H10.4526C10.12 4.15257 9.8501 3.88262 9.8501 3.55004C9.8501 3.21745 10.12 2.94751 10.4526 2.94751H18.8855C19.2181 2.94751 19.4881 3.21745 19.4881 3.55004C19.4886 3.88262 19.2186 4.15257 18.886 4.15257H18.886Z" fill="#009090"/>
<path d="M15.6577 29.4505H4.08398C3.7514 29.4505 3.48145 29.1805 3.48145 28.848L3.48096 6.41478C3.48096 6.0822 3.7509 5.81226 4.08349 5.81226H25.1753C25.5079 5.81226 25.7778 6.0822 25.7778 6.41478V10.7801C25.7778 11.1127 25.5079 11.3827 25.1753 11.3827C24.8427 11.3827 24.5728 11.1127 24.5728 10.7801V7.01739L4.68744 7.01788V28.2446H15.6592C15.9918 28.2446 16.2617 28.5145 16.2617 28.8471C16.2617 29.1802 15.9918 29.4501 15.6587 29.4501L15.6577 29.4505Z" fill="#009090"/>
<path d="M14.6697 35.941C13.1962 35.941 11.9971 34.7425 11.9971 33.2685C11.9971 31.795 13.1957 30.5954 14.6697 30.5954C16.1431 30.5954 17.3428 31.794 17.3428 33.2685C17.3428 34.7425 16.1432 35.941 14.6697 35.941ZM14.6697 31.8015C13.8608 31.8015 13.2027 32.4597 13.2027 33.269C13.2027 34.0778 13.8609 34.736 14.6697 34.736C15.4784 34.736 16.1372 34.0778 16.1372 33.269C16.1372 32.4596 15.4785 31.8015 14.6697 31.8015Z" fill="#009090"/>
<path d="M21.8921 29.4556C21.5595 29.4556 21.2896 29.1856 21.2896 28.853L21.2891 13.1879C21.2891 11.5751 22.6019 10.2623 24.2147 10.2623C25.8274 10.2623 27.1402 11.5751 27.1402 13.1879V23.1704C27.1402 23.5029 26.8703 23.7729 26.5377 23.7729C26.2051 23.7729 25.9352 23.5029 25.9352 23.1704L25.9347 13.1879C25.9347 12.2393 25.1631 11.4677 24.2146 11.4677C23.266 11.4677 22.4944 12.2393 22.4944 13.1879V28.853C22.4944 29.1856 22.2245 29.4556 21.8919 29.4556H21.8921Z" fill="#009090"/>
<path d="M30.8187 23.4537C30.4861 23.4537 30.2161 23.1838 30.2161 22.8512V21.2176C30.2161 20.3695 29.5266 19.68 28.6785 19.68C27.8304 19.68 27.1404 20.37 27.1404 21.2176C27.1404 21.5502 26.8704 21.8202 26.5378 21.8202C26.2052 21.8202 25.9353 21.5502 25.9353 21.2176C25.9353 19.7048 27.1662 18.4749 28.679 18.4749C30.1913 18.4749 31.4217 19.7058 31.4217 21.2176V22.8512C31.4212 23.1838 31.1513 23.4537 30.8187 23.4537H30.8187Z" fill="#009090"/>
<path d="M34.8377 23.7719C34.5051 23.7719 34.2352 23.5019 34.2352 23.1694V22.0961C34.2352 21.3195 33.6033 20.6886 32.8273 20.6886C32.0508 20.6886 31.4199 21.3205 31.4199 22.0961C31.4199 22.4286 31.15 22.6986 30.8174 22.6986C30.4848 22.6986 30.2148 22.4286 30.2148 22.0961C30.2148 20.6549 31.3871 19.4832 32.8277 19.4832C34.2689 19.4832 35.4412 20.6554 35.4412 22.0961V23.1694C35.4407 23.5019 35.1712 23.7719 34.8376 23.7719H34.8377Z" fill="#009090"/>
<path d="M36.2821 38.1631H22.6582C22.4688 38.1631 22.2904 38.0746 22.1765 37.923L15.0705 28.4874C14.1001 27.1988 14.3586 25.3604 15.6472 24.39C16.9357 23.4196 18.7741 23.6786 19.7445 24.9667L22.3728 28.4924C22.5716 28.7593 22.5169 29.1366 22.25 29.3355C21.983 29.5348 21.6057 29.4792 21.4068 29.2127L18.7805 25.69C18.2122 24.9353 17.131 24.7827 16.3728 25.3529C15.6152 25.9236 15.4636 27.0045 16.0333 27.7621L22.9578 36.9575H35.8257C36.2592 35.4194 37.693 30.2438 37.9256 28.311C38.0732 27.0915 37.9231 23.28 37.9221 23.2422C37.9216 22.5338 37.3648 21.977 36.6808 21.977C35.9967 21.977 35.4404 22.5333 35.4404 23.2179C35.4404 23.5504 35.1705 23.8204 34.8379 23.8204C34.5053 23.8204 34.2354 23.5504 34.2354 23.2179C34.2354 21.8691 35.3325 20.7714 36.6813 20.7714C38.0301 20.7714 39.1277 21.8691 39.1277 23.2179C39.1337 23.3546 39.2828 27.1402 39.1238 28.4551C38.8394 30.821 36.9423 37.4458 36.8622 37.7262C36.7872 37.9847 36.551 38.1632 36.2821 38.1632L36.2821 38.1631Z" fill="#009090"/>
<path d="M36.286 41.4249H22.6597C22.3271 41.4249 22.0571 41.155 22.0571 40.8224V37.4369C22.0571 37.1043 22.3271 36.8344 22.6597 36.8344C22.9922 36.8344 23.2622 37.1043 23.2622 37.4369V40.2198H35.6826V37.4374C35.6826 37.1048 35.9525 36.8349 36.2851 36.8349C36.6177 36.8349 36.8876 37.1048 36.8876 37.4374L36.8881 40.8224C36.8891 41.155 36.6192 41.4249 36.2861 41.4249H36.286Z" fill="#009090"/>
<path d="M36.286 44.8407H22.6597C22.3271 44.8407 22.0571 44.5708 22.0571 44.2382V40.3436C22.0571 40.011 22.3271 39.7411 22.6597 39.7411C22.9922 39.7411 23.2622 40.011 23.2622 40.3436V43.6356H35.6826V40.3436C35.6826 40.011 35.9525 39.7411 36.2851 39.7411C36.6177 39.7411 36.8876 40.011 36.8876 40.3436V44.2382C36.8891 44.5708 36.6192 44.8407 36.2861 44.8407H36.286Z" fill="#009090"/>
<path d="M34.5881 39.1303C34.5881 39.9436 33.3682 39.9436 33.3682 39.1303C33.3682 38.317 34.5881 38.317 34.5881 39.1303Z" fill="#009090"/>
<path d="M9.70287 19.4524C9.37029 19.4524 9.10034 19.1825 9.10034 18.8499C9.10034 14.1142 12.9536 10.2615 17.6888 10.2615C18.0213 10.2615 18.2913 10.5314 18.2913 10.864C18.2913 11.1966 18.0213 11.4665 17.6888 11.4665C13.6173 11.4665 10.3058 14.7784 10.3058 18.8495C10.3053 19.1831 10.0359 19.4525 9.70278 19.4525L9.70287 19.4524Z" fill="#009090"/>
<path d="M14.0107 19.5772C13.6781 19.5772 13.4082 19.3072 13.4082 18.9747C13.4082 16.2051 15.6617 13.9516 18.4313 13.9516C18.7638 13.9516 19.0338 14.2215 19.0338 14.5541C19.0338 14.8867 18.7638 15.1567 18.4313 15.1567C16.3259 15.1567 14.6138 16.8688 14.6138 18.9741C14.6133 19.3072 14.3434 19.5772 14.0108 19.5772L14.0107 19.5772Z" fill="#009090"/>
</svg>
