<svg width="26" height="26" viewBox="0 0 26 26" fill="none" xmlns="http://www.w3.org/2000/svg">
<path d="M13.0419 9.06982C13.3997 9.06982 13.6898 8.77971 13.6898 8.42187C13.6898 8.06404 13.3997 7.77393 13.0419 7.77393C11.6672 7.77393 10.349 8.32004 9.37685 9.29195C8.40491 10.2641 7.85883 11.5823 7.85883 12.957C7.85883 14.3316 8.40494 15.6501 9.37685 16.622C10.349 17.5942 11.6672 18.14 13.0419 18.14C14.4165 18.14 15.735 17.5941 16.7069 16.622C17.6791 15.65 18.2249 14.3316 18.2249 12.957C18.2249 12.5991 17.935 12.3093 17.5772 12.3093C17.2194 12.3093 16.9292 12.5991 16.9292 12.957C16.9292 13.9881 16.5196 14.9767 15.7906 15.7057C15.0616 16.4347 14.073 16.8444 13.0418 16.8444C12.0109 16.8444 11.022 16.4347 10.2931 15.7057C9.5641 14.9767 9.15466 13.9881 9.15466 12.957C9.15466 11.926 9.56406 10.9372 10.2931 10.2082C11.0221 9.47923 12.0109 9.0698 13.0418 9.0698L13.0419 9.06982Z" fill="#2477FF"/>
<path d="M25.4033 9.10935C25.2928 8.7723 24.9321 8.58633 24.5935 8.69226C24.2549 8.79819 24.0644 9.15655 24.1659 9.49642C24.9501 11.9956 24.8734 14.6854 23.9482 17.1361C23.0232 19.5865 21.3028 21.6558 19.0627 23.0133C16.8226 24.3705 14.1918 24.9371 11.5917 24.6227C8.99146 24.3082 6.57156 23.1305 4.71969 21.2785C2.86768 19.4262 1.69054 17.0063 1.37606 14.4058C1.06183 11.8055 1.62873 9.17478 2.98621 6.93488C4.34342 4.69479 6.41298 2.97458 8.8634 2.04959C11.3138 1.12461 14.0039 1.04817 16.5031 1.83258C16.6683 1.88773 16.8486 1.87439 17.0035 1.79539C17.1587 1.71613 17.2754 1.57787 17.3275 1.41191C17.3793 1.24569 17.3624 1.06562 17.2803 0.912219C17.198 0.758828 17.0577 0.644935 16.8904 0.596197C14.115 -0.274153 11.1279 -0.18872 8.40692 0.838856C5.68581 1.86667 3.38799 3.77719 1.881 6.26511C0.37375 8.75277 -0.255208 11.6742 0.09414 14.5621C0.443252 17.4497 1.75092 20.1369 3.80793 22.1933C5.86462 24.25 8.55184 25.5574 11.4397 25.9066C14.3273 26.2557 17.2487 25.6264 19.7361 24.1192C22.224 22.6119 24.1343 20.3138 25.1618 17.5927C26.1894 14.8716 26.2746 11.8843 25.404 9.10921L25.4033 9.10935Z" fill="#2477FF"/>
<path d="M14.2756 4.62491C14.279 4.25604 13.9955 3.94775 13.6277 3.92004C13.4343 3.90285 13.2406 3.88721 13.0418 3.88721C10.6362 3.88721 8.32915 4.84273 6.62824 6.54389C4.92708 8.2448 3.97156 10.5519 3.97156 12.9575C3.97156 15.3633 4.92708 17.6704 6.62824 19.3713C8.32915 21.0724 10.6362 22.028 13.0418 22.028C15.4476 22.028 17.7547 21.0724 19.4556 19.3713C21.1568 17.6704 22.1123 15.3633 22.1123 12.9575C22.1123 12.7233 22.0979 12.4891 22.0692 12.2564C22.0531 12.0743 21.961 11.9073 21.8158 11.7962C21.6706 11.6851 21.4854 11.64 21.3051 11.6721C21.125 11.7039 20.9667 11.8101 20.8685 11.9642C20.7702 12.1186 20.7413 12.3069 20.7887 12.4837C20.8026 12.6407 20.8167 12.7969 20.8167 12.9574C20.8167 15.0195 19.9974 16.997 18.5394 18.455C17.0813 19.913 15.1039 20.7323 13.0418 20.7323C10.98 20.7323 9.00247 19.913 7.54447 18.455C6.08621 16.997 5.26714 15.0196 5.26714 12.9574C5.26714 10.8956 6.08621 8.91813 7.54447 7.46013C9.00247 6.00187 10.9799 5.1828 13.0418 5.1828C13.2026 5.1828 13.3581 5.19742 13.515 5.21051L13.6366 5.22128V5.22154C13.8008 5.22846 13.9611 5.16946 14.0814 5.05711C14.2015 4.94502 14.2715 4.78906 14.2756 4.62489L14.2756 4.62491Z" fill="#2477FF"/>
<path d="M16.9289 5.83063V8.15386L12.5836 12.4994C12.4594 12.6203 12.3889 12.786 12.3878 12.9591C12.3868 13.1322 12.455 13.2987 12.5776 13.4213C12.7 13.544 12.8665 13.6122 13.0399 13.6112C13.213 13.6099 13.3787 13.5396 13.4996 13.4154L17.8451 9.07013H20.1684C20.3402 9.07013 20.5049 9.00189 20.6265 8.88031L24.5139 4.99289H24.5137C24.6989 4.80769 24.7543 4.52912 24.6542 4.28697C24.5539 4.04483 24.3177 3.88707 24.0555 3.88707H22.1119V1.9432C22.1119 1.6813 21.9542 1.44506 21.712 1.34476C21.4699 1.24446 21.1913 1.29987 21.0058 1.48533L17.1184 5.37274L17.1187 5.37249C16.9971 5.49408 16.9289 5.65875 16.9289 5.83062L16.9289 5.83063ZM18.2247 6.09894L20.8163 3.50739V4.53475C20.816 4.70662 20.8843 4.87155 21.0058 4.99314C21.1274 5.11473 21.2921 5.18296 21.464 5.1827H22.4915L19.9 7.77425H18.2244L18.2247 6.09894Z" fill="#2477FF"/>
</svg>
