<svg width="27" height="27" viewBox="0 0 27 27" fill="none" xmlns="http://www.w3.org/2000/svg">
<path d="M0.921558 25.342L0.152375 26.1109C-0.0507917 26.3138 -0.0507917 26.6435 0.152375 26.8466C0.253673 26.9482 0.387305 26.9989 0.520366 26.9989C0.653713 26.9989 0.786775 26.9482 0.888358 26.8466L1.65754 26.0777C1.86071 25.8749 1.86071 25.5452 1.65754 25.342C1.45437 25.1386 1.12472 25.1386 0.921543 25.342H0.921558Z" fill="#2477FF"/>
<path d="M1.89119 24.3721L1.84226 24.421C1.63909 24.6239 1.63909 24.9539 1.84226 25.1567C1.94384 25.2583 2.07719 25.309 2.21025 25.309C2.34359 25.309 2.47666 25.2583 2.57824 25.1567L2.62717 25.1078C2.83034 24.9049 2.83034 24.575 2.62717 24.3721C2.42372 24.1689 2.09435 24.1689 1.89117 24.3721H1.89119Z" fill="#2477FF"/>
<path d="M6.62568 20.3736C6.42251 20.1704 6.09315 20.1704 5.88997 20.3736L2.85617 23.4074C2.653 23.6102 2.653 23.9402 2.85617 24.1431C2.95775 24.2447 3.0911 24.2953 3.22416 24.2953C3.35751 24.2953 3.49057 24.2447 3.59215 24.1431L6.62596 21.1093C6.82855 20.9061 6.82855 20.5765 6.62567 20.3736H6.62568Z" fill="#2477FF"/>
<path d="M2.73914 20.6115C2.87249 20.6115 3.00555 20.5609 3.10714 20.4593L4.54162 19.0248C4.74479 18.8219 4.74479 18.4923 4.54162 18.2891C4.33846 18.0859 4.00909 18.0859 3.80592 18.2891L2.37143 19.7236C2.16826 19.9265 2.16826 20.2561 2.37143 20.4593C2.47273 20.5609 2.60607 20.6115 2.73914 20.6115H2.73914Z" fill="#2477FF"/>
<path d="M16.1169 6.97226C15.039 8.05021 15.039 9.80432 16.1169 10.882C16.6561 11.4211 17.3637 11.6904 18.072 11.6904C18.7799 11.6904 19.4882 11.4211 20.027 10.882C21.105 9.80402 21.105 8.04992 20.027 6.97226C18.9488 5.89401 17.1947 5.89401 16.117 6.97226H16.1169ZM19.3774 10.0404H16.7665C16.6887 9.94942 16.6226 9.85299 16.5668 9.7514H19.5771C19.5213 9.85299 19.4549 9.94942 19.3774 10.0404H19.3774ZM16.7425 7.84334H19.4017C19.4764 7.93462 19.5399 8.03077 19.5929 8.13236H16.5513C16.6039 8.03077 16.6678 7.93462 16.7425 7.84334H16.7425ZM19.7288 8.47918C19.7546 8.57447 19.7711 8.67061 19.78 8.76819H16.3639C16.3731 8.67033 16.3897 8.57418 16.4151 8.47918H19.7288ZM16.424 9.40461C16.3966 9.30932 16.3777 9.21346 16.3668 9.1156H19.7775C19.7666 9.21346 19.7477 9.30961 19.7203 9.40461H16.424ZM19.0318 7.49653H17.112C17.4013 7.30223 17.7361 7.20408 18.072 7.20408C18.4073 7.20408 18.7424 7.30252 19.0318 7.49653ZM17.1626 10.3873H18.9814C18.4259 10.7329 17.718 10.7329 17.1626 10.3873Z" fill="#2477FF"/>
<path d="M26.9734 0.946252L26.9634 0.543918C26.9568 0.266346 26.7331 0.0428652 26.4555 0.0362796L26.052 0.0262642C23.856 -0.0306802 21.1219 -0.102218 19.1062 1.07499C16.8888 2.37044 14.9928 4.28365 13.1588 6.13365C12.9919 6.30191 12.8268 6.46787 12.662 6.63356L7.83462 6.84932C7.70443 6.85533 7.58166 6.90941 7.48981 7.00126L2.68498 11.8067C2.53619 11.9555 2.49126 12.1792 2.57224 12.3738C2.65265 12.5684 2.84237 12.6952 3.05298 12.6952H6.60154L5.84979 13.4469C5.75222 13.5445 5.69756 13.677 5.69756 13.8149C5.69756 13.9531 5.7525 14.0851 5.84979 14.1829L6.60784 14.941L5.25233 15.701C5.11011 15.7805 5.01367 15.9222 4.99135 16.0836C4.96903 16.245 5.02369 16.4075 5.13872 16.5228L10.4775 21.8604C10.5757 21.9586 10.7084 22.0127 10.8455 22.0127C10.869 22.0127 10.893 22.0112 10.9167 22.0078C11.0781 21.9855 11.2201 21.8891 11.2993 21.7468L12.06 20.3913L12.8177 21.1491C12.9193 21.2507 13.0526 21.3013 13.1857 21.3013C13.319 21.3013 13.4521 21.2507 13.5537 21.1491L14.3051 20.3976V23.9462C14.3051 24.1568 14.4319 24.3465 14.6265 24.4269C14.6912 24.4535 14.7587 24.4664 14.8257 24.4664C14.9613 24.4664 15.0941 24.4138 15.1937 24.3142L19.9988 19.5091C20.0906 19.4172 20.1447 19.2944 20.1507 19.1645L20.3673 14.3369C20.5333 14.1717 20.699 14.0069 20.8672 13.8401C22.7175 12.0061 24.6305 10.1104 25.9259 7.89262C27.1023 5.87722 27.0307 3.14333 26.9735 0.946248L26.9734 0.946252ZM4.30893 11.654L8.08276 7.88018L11.5724 7.72365L7.64243 11.654L4.30893 11.654ZM10.7274 20.6381L6.36067 16.2714L7.37226 15.7042L11.2949 19.6265L10.7274 20.6381ZM15.345 22.6898V19.3567L19.2753 15.4264L19.1188 18.916L15.345 22.6898ZM25.0257 7.36768C23.7993 9.46718 21.9355 11.3146 20.1334 13.1011C19.8976 13.3349 19.6635 13.5667 19.4337 13.7967L13.1852 20.0449L6.9545 13.8142L13.203 7.5654C13.4333 7.33505 13.6651 7.10155 13.8986 6.86576C15.6848 5.06352 17.5322 3.20013 19.6314 1.97339C21.3667 0.959533 23.7858 1.00788 25.9354 1.0637C25.9912 3.2136 26.0399 5.63243 25.0257 7.3677L25.0257 7.36768Z" fill="#2477FF"/>
<path d="M1.92172 21.4302C2.05507 21.4302 2.18813 21.3795 2.28972 21.2779L2.32606 21.2416C2.52922 21.0387 2.52922 20.7088 2.32606 20.5059C2.12289 20.3027 1.79352 20.3027 1.59035 20.5059L1.55344 20.5419C1.35027 20.7448 1.35027 21.0748 1.55344 21.2777C1.65531 21.3795 1.78837 21.4302 1.92171 21.4302H1.92172Z" fill="#2477FF"/>
<path d="M0.747199 22.6035C0.880546 22.6035 1.01361 22.5529 1.11519 22.4513L1.48748 22.079C1.69064 21.8761 1.69064 21.5462 1.48748 21.3433C1.28431 21.1401 0.954945 21.1401 0.751771 21.3433L0.379487 21.7156C0.17632 21.9185 0.17632 22.2484 0.379487 22.4513C0.48107 22.5526 0.614132 22.6035 0.747193 22.6035H0.747199Z" fill="#2477FF"/>
<path d="M5.98298 24.4497L4.54849 25.8842C4.34533 26.0871 4.34533 26.417 4.54849 26.6199C4.65008 26.7215 4.78342 26.7722 4.91648 26.7722C5.04983 26.7722 5.18289 26.7215 5.28448 26.6199L6.71896 25.1854C6.92213 24.9826 6.92213 24.6526 6.71896 24.4497C6.51551 24.2466 6.18615 24.2466 5.98297 24.4497H5.98298Z" fill="#2477FF"/>
<path d="M7.51747 23.6484C7.32145 23.4378 6.99209 23.426 6.78206 23.6223C6.57173 23.8181 6.56001 24.1477 6.75602 24.3577L6.78377 24.3875C6.88622 24.4974 7.02529 24.5535 7.16465 24.5535C7.2917 24.5535 7.41904 24.5074 7.51919 24.4135C7.72951 24.2178 7.74124 23.8881 7.54523 23.6781L7.51747 23.6484Z" fill="#2477FF"/>
<path d="M7.97394 22.4578L7.60165 22.8301C7.39849 23.0333 7.39849 23.3629 7.60165 23.5664C7.70324 23.668 7.83659 23.7186 7.96965 23.7186C8.10299 23.7186 8.23605 23.668 8.33764 23.5664L8.71021 23.1941C8.91337 22.9909 8.91337 22.6613 8.71021 22.4578C8.50675 22.2549 8.17711 22.2549 7.97392 22.4578H7.97394Z" fill="#2477FF"/>
</svg>
