<svg width="26" height="26" viewBox="0 0 26 26" fill="none" xmlns="http://www.w3.org/2000/svg">
<path fill-rule="evenodd" clip-rule="evenodd" d="M3.0297 1.75692C3.14096 1.31189 3.54105 0.999512 3.99996 0.999512H22.0003C22.4592 0.999512 22.8592 1.31191 22.9705 1.75692L24.9706 9.75717C24.9904 9.83636 25.0005 9.91792 25.0005 9.99968C25.0005 11.2134 24.3421 12.2361 23.4288 12.9211C23.2924 13.0234 23.1495 13.1191 23.0004 13.208V21.9998C23.0004 23.6568 21.6572 25 20.0003 25H6.00006C4.34309 25 2.99989 23.6568 2.99989 21.9998V13.208C2.85082 13.1191 2.70769 13.0235 2.57149 12.9211C1.65809 12.2361 0.999817 11.2135 0.999817 9.99968C0.999817 9.91792 1.00991 9.83636 1.02971 9.75717L3.0297 1.75692ZM20.0002 14.0001C20.3407 14.0001 20.6753 13.9731 21.0003 13.9209V22.0002C21.0003 22.5525 20.5525 23.0003 20.0002 23.0003H6.00002C5.44772 23.0003 4.99991 22.5525 4.99991 22.0002V13.9209C5.32478 13.9731 5.65956 14.0001 6.00002 14.0001C7.31906 14.0001 8.57302 13.5909 9.50004 12.8673C10.4271 13.5908 11.681 14.0001 13.0001 14.0001C14.3193 14.0001 15.5732 13.5909 16.5003 12.8673C17.4272 13.5908 18.6813 14.0001 20.0003 14.0001H20.0002ZM4.78067 2.99958L3.00431 10.1053C3.03895 10.5179 3.27909 10.952 3.77144 11.3212C4.30616 11.7225 5.09068 12.0001 5.99997 12.0001C7.25606 12.0001 8.23899 11.4767 8.69607 10.8588C8.88473 10.6038 9.18287 10.4536 9.49999 10.4536C9.81712 10.4536 10.1153 10.6038 10.3039 10.8588C10.761 11.4766 11.7439 12.0001 13 12.0001C14.2563 12.0001 15.239 11.4767 15.6963 10.8588C15.885 10.6038 16.1831 10.4536 16.5002 10.4536C16.8174 10.4536 17.1155 10.6038 17.3042 10.8588C17.7613 11.4766 18.7442 12.0001 20.0003 12.0001C20.9094 12.0001 21.6941 11.7225 22.2288 11.3212C22.7211 10.952 22.9613 10.5179 22.9959 10.1053L21.2196 2.99958H4.78067Z" fill="#2477FF" stroke="#E3EDFC" stroke-width="0.7"/>
</svg>
