<svg width="42" height="26" viewBox="0 0 42 26" fill="none" xmlns="http://www.w3.org/2000/svg">
<path d="M0.354858 23.2077C0.603258 22.9593 0.92263 22.6044 1.38394 22.1786C1.63234 21.9657 1.88075 21.7173 2.16463 21.5044C2.44852 21.256 2.80337 21.0076 3.15823 20.7592C3.90343 20.2624 4.79058 19.7301 5.85515 19.3398C6.38744 19.1268 6.99069 18.9849 7.62944 18.8784C8.26818 18.8075 8.9779 18.772 9.65213 18.8784C10.3618 18.9494 11.0716 19.1623 11.7458 19.4107C12.42 19.6591 13.0588 20.014 13.662 20.3334C14.2653 20.6882 14.833 21.0431 15.4008 21.3624C15.9686 21.6818 16.5009 22.0012 17.0332 22.2496C17.5655 22.498 18.0977 22.6754 18.63 22.7464C19.1623 22.8528 19.6591 22.8528 20.2624 22.7819C21.3979 22.6754 22.6044 22.2496 23.8109 21.7528C24.4142 21.5044 25.0175 21.2205 25.6207 20.9366C26.224 20.6527 26.8627 20.3688 27.5015 20.1204C28.1402 19.872 28.779 19.6236 29.4532 19.4107C30.1274 19.2333 30.7662 19.0559 31.4404 18.9849C32.7888 18.8075 34.1018 18.8784 35.2374 19.1978C36.3729 19.5172 37.2955 19.9785 38.0407 20.5108C38.2182 20.6172 38.3956 20.7592 38.573 20.9011C38.7504 21.0431 38.8924 21.1495 39.0343 21.256C39.3182 21.5044 39.6021 21.7173 39.815 21.9657C40.0279 22.1786 40.2409 22.3915 40.4183 22.569C40.5602 22.7464 40.7022 22.9238 40.8086 23.0303C41.0215 23.2787 41.128 23.4206 41.128 23.4206C41.128 23.4206 40.986 23.3142 40.6667 23.1722C40.5247 23.1012 40.3473 22.9948 40.1344 22.8528C39.9215 22.7464 39.6731 22.6044 39.4247 22.4625C39.1408 22.3206 38.8569 22.1786 38.5375 22.0367C38.2182 21.8947 37.8633 21.7528 37.473 21.6108C36.6923 21.327 35.8406 21.114 34.8825 21.0431C33.9244 20.9721 32.9308 21.0786 31.9017 21.3624C30.8726 21.6463 29.808 22.1431 28.6725 22.7109C28.1047 23.0303 27.5369 23.3142 26.9337 23.6335C26.3304 23.9529 25.6917 24.2723 25.0529 24.5916C23.74 25.1949 22.2496 25.7627 20.6172 25.9401C19.8011 26.0466 18.8784 26.0111 18.0623 25.8336C17.2106 25.6562 16.4299 25.3723 15.7202 25.0175C15.0105 24.6626 14.3717 24.2368 13.804 23.8464C13.2717 23.4561 12.7039 23.0658 12.1716 22.7109C11.6748 22.356 11.178 22.0367 10.6812 21.7883C10.1844 21.5399 9.7231 21.3624 9.2263 21.2205C8.7295 21.0786 8.26818 21.0431 7.77138 21.0076C7.52298 21.0076 7.27458 21.0076 7.02618 21.0431C6.77778 21.0786 6.52938 21.0786 6.31646 21.114C5.35835 21.256 4.47121 21.5399 3.726 21.8592C3.33566 22.0012 2.9808 22.1786 2.62595 22.3206C2.27109 22.4625 1.9872 22.6044 1.70332 22.7464C1.13554 22.9948 0.709715 23.2432 0.425829 23.3851C0.177429 23.4916 0 23.598 0 23.598" fill="#132742"/>
<path d="M9.29688 18.3461C15.9682 16.146 20.5813 15.0105 20.5813 15.0105C20.5813 15.0105 12.9519 7.06167 25.1235 0C16.9618 7.59395 23.3492 12.4555 25.4074 13.4136C28.1043 14.6556 28.9915 17.3171 28.6366 19.1268C25.1945 20.4043 21.7169 22.427 19.1974 22.1786C16.4295 21.8947 12.2422 18.3461 9.29688 18.3461Z" fill="#132742"/>
<path d="M34.4059 18.1676C36.7384 17.1925 37.8388 14.5111 36.8637 12.1786C35.8886 9.84613 33.2072 8.74576 30.8747 9.72088C28.5422 10.696 27.4419 13.3773 28.417 15.7098C29.3921 18.0423 32.0734 19.1427 34.4059 18.1676Z" fill="#132742"/>
</svg>
