<svg width="38" height="41" viewBox="0 0 38 41" fill="none" xmlns="http://www.w3.org/2000/svg">
<path d="M20.9255 9.22075C17.5754 9.22075 8.42965 25.2341 14.4263 27.8807C19.5184 30.1588 24.7445 24.9661 25.1466 26.7752C25.4146 28.0817 25.3476 33.4083 19.5854 40.5775C30.1382 32.2023 30.6072 25.9042 28.5636 23.6596C25.8836 20.7115 21.2605 24.7316 20.2554 22.6546C19.2504 20.5775 24.0075 18.802 24.8451 13.3413C25.1466 11.2308 23.572 9.25425 20.9255 9.22075Z" fill="#132742"/>
<path d="M19.3181 28.5842L10.4404 40.5775L15.7671 28.6512C16.5041 28.8522 17.9446 28.9192 19.3181 28.5842Z" fill="#132742"/>
<path d="M23.7397 10.2928C24.4097 11.0299 25.4147 15.05 28.1953 15.7535C30.5068 16.323 34.3594 13.9444 37.5755 12.1354C35.2639 14.581 30.8753 18.0315 27.8268 18.065C25.3142 18.0985 23.2371 16.2225 22.0311 14.916C19.351 12.0349 23.7397 10.2928 23.7397 10.2928Z" fill="#132742"/>
<path d="M18.8153 12.8723C17.0063 12.6042 9.90413 12.6042 6.95605 20.2089C7.42507 14.1118 13.0197 8.65115 20.8254 9.22066C24.7785 9.52217 18.8153 12.8723 18.8153 12.8723Z" fill="#132742"/>
<path d="M23.5052 9.22073C25.892 9.22073 27.8268 7.28588 27.8268 4.89912C27.8268 2.51236 25.892 0.577515 23.5052 0.577515C21.1184 0.577515 19.1836 2.51236 19.1836 4.89912C19.1836 7.28588 21.1184 9.22073 23.5052 9.22073Z" fill="#132742"/>
<path d="M9.74187 20.1195H0V20.8154H9.74187V20.1195Z" fill="#132742"/>
</svg>
