<svg width="33" height="38" viewBox="0 0 33 38" fill="none" xmlns="http://www.w3.org/2000/svg">
<path d="M10.9379 8.48828C5.18031 6.67875 -3.2093 17.3714 1.26516 38C4.1275 17.4701 19.821 13.851 10.9379 8.48828Z" fill="#132742"/>
<path d="M7.35165 22.4381C7.35165 22.4381 14.3594 29.1169 10.9378 38C11.8919 31.8805 5.34473 25.7939 5.34473 25.7939L7.35165 22.4381Z" fill="#132742"/>
<path d="M8.602 9.50818C8.602 9.50818 14.2938 17.7991 26.105 14.2129C15.9059 18.49 10.3128 16.0225 8.10849 14.5419C5.90416 13.0943 8.602 9.50818 8.602 9.50818Z" fill="#132742"/>
<path d="M18.4874 5.91842C18.966 3.6239 17.494 1.3758 15.1994 0.897161C12.9049 0.41852 10.6568 1.89059 10.1782 4.18511C9.69954 6.47963 11.1716 8.72773 13.4661 9.20637C15.7607 9.68501 18.0087 8.21295 18.4874 5.91842Z" fill="#132742"/>
<path d="M30.9083 28.722H25.9732C25.0191 28.722 24.2295 27.9324 24.2295 26.9783V5.75752C24.2295 4.8034 25.0191 4.01379 25.9732 4.01379H30.9083C31.8624 4.01379 32.652 4.8034 32.652 5.75752V26.9783C32.652 27.9324 31.8624 28.722 30.9083 28.722Z" fill="#132742"/>
<path d="M28.4409 3.84935C28.3422 3.84935 28.2764 3.78355 28.2764 3.68485V0.164502C28.2764 0.0658009 28.3422 0 28.4409 0C28.5396 0 28.6054 0.0658009 28.6054 0.164502V3.68485C28.6054 3.75065 28.5396 3.84935 28.4409 3.84935Z" fill="#132742"/>
<path d="M26.5655 3.84934C26.5326 3.84934 26.5326 3.84934 26.4997 3.84934C26.401 3.81644 26.3681 3.71774 26.401 3.65194L27.717 0.131589C27.7499 0.0328874 27.8486 -1.29994e-05 27.9144 0.0328874C28.0131 0.0657879 28.046 0.164489 28.0131 0.23029L26.6971 3.75064C26.6971 3.78354 26.6313 3.84934 26.5655 3.84934Z" fill="#132742"/>
<path d="M30.3493 3.84934C30.2835 3.84934 30.2177 3.81644 30.1848 3.75064L28.8688 0.23029C28.8359 0.131589 28.8688 0.0657879 28.9675 0.0328874C29.0662 -1.29994e-05 29.132 0.0328874 29.1649 0.131589L30.4809 3.65194C30.5138 3.75064 30.4809 3.81644 30.3822 3.84934C30.3822 3.84934 30.3822 3.84934 30.3493 3.84934Z" fill="#132742"/>
<path d="M23.5393 13.7852C23.5064 13.7852 23.4735 13.7852 23.4406 13.7523L20.5453 11.5151C20.4795 11.4493 20.4466 11.3506 20.5124 11.2848C20.5782 11.219 20.6769 11.1861 20.7427 11.2519L23.638 13.4891C23.7038 13.5549 23.7367 13.6536 23.6709 13.7194C23.638 13.7852 23.6051 13.7852 23.5393 13.7852Z" fill="#132742"/>
<path d="M20.7425 20.2667C20.7096 20.2667 20.6438 20.2338 20.6109 20.2009C20.5451 20.1351 20.5451 20.0364 20.6109 19.9706L23.3087 17.503C23.3745 17.4372 23.4732 17.4372 23.539 17.503C23.6048 17.5688 23.6048 17.6675 23.539 17.7333L20.8412 20.2009C20.8412 20.2338 20.7754 20.2667 20.7425 20.2667Z" fill="#132742"/>
</svg>
