<svg width="37" height="41" viewBox="0 0 37 41" fill="none" xmlns="http://www.w3.org/2000/svg">
<path d="M21.0307 10.2107C27.9017 12.2656 18.141 20.1641 19.8427 23.8244C21.5444 27.4846 27.9338 25.7829 26.489 38.9792C24.5625 31.6587 22.7645 29.5074 15.5723 28.0305C11.4947 27.1957 10.0177 22.7969 12.5863 17.8202C15.1549 12.8756 15.0265 8.41267 21.0307 10.2107Z" fill="#132742"/>
<path d="M11.9441 25.6867C11.9441 25.6867 6.48576 32.7504 0 23.7924C2.98602 32.1083 6.83894 33.81 14.9301 28.0948C12.4899 27.3885 11.9441 25.6867 11.9441 25.6867Z" fill="#132742"/>
<path d="M20.0034 12.9399C18.2375 12.7794 8.79785 12.2014 6.42188 19.6825C6.5182 13.8068 14.5772 9.6007 18.3338 9.88967C22.1225 10.1465 20.0034 12.9399 20.0034 12.9399Z" fill="#132742"/>
<path d="M23.1822 11.784C23.7601 13.4536 25.4297 21.609 34.6767 16.5681C27.7414 23.6639 22.3474 18.1092 21.063 14.5453C19.7787 10.9813 23.1822 11.784 23.1822 11.784Z" fill="#132742"/>
<path d="M25.4456 8.53566C26.9178 6.7848 26.692 4.17197 24.9411 2.69973C23.1902 1.22749 20.5774 1.45336 19.1052 3.20421C17.6329 4.95507 17.8588 7.56791 19.6097 9.04014C21.3605 10.5124 23.9734 10.2865 25.4456 8.53566Z" fill="#132742"/>
<path d="M33.6954 38.6181C35.1071 37.8362 35.6175 36.0579 34.8355 34.6462C34.0535 33.2346 32.2752 32.7242 30.8636 33.5062C29.452 34.2881 28.9415 36.0664 29.7235 37.478C30.5055 38.8897 32.2838 39.4001 33.6954 38.6181Z" fill="#132742"/>
</svg>
