<svg width="31" height="40" viewBox="0 0 31 40" fill="none" xmlns="http://www.w3.org/2000/svg">
<path d="M12.4441 40C12.4441 40 3.8186 10.2716 15.2425 10.107C26.6663 9.94237 17.0532 40 17.0532 40C17.0532 40 19.1602 25.0535 15.0779 25.0535C10.9297 25.0535 12.4441 40 12.4441 40Z" fill="#132742"/>
<path d="M13.3001 10.4691C11.0615 11.5226 5.72812 6.65016 4.08203 2.04111C4.14787 9.94234 10.6005 15.0452 12.082 14.9794C13.5635 14.9465 13.3001 10.4691 13.3001 10.4691Z" fill="#132742"/>
<path d="M17.1519 10.4691C19.3906 11.5226 24.7239 6.65016 26.37 2.04111C26.3042 9.94234 19.8515 15.0452 18.37 14.9794C16.8885 14.9465 17.1519 10.4691 17.1519 10.4691Z" fill="#132742"/>
<path d="M19.2043 6.30617C19.7313 4.02071 18.3058 1.74073 16.0204 1.2137C13.7349 0.686662 11.4549 2.11215 10.9279 4.39761C10.4009 6.68307 11.8264 8.96304 14.1118 9.49008C16.3973 10.0171 18.6773 8.59163 19.2043 6.30617Z" fill="#132742"/>
<path d="M23.4733 3.45679H23.1111C22.6502 3.45679 22.2881 3.09465 22.2881 2.63374V0.823045C22.2881 0.36214 22.6502 0 23.1111 0H23.4733C23.9342 0 24.2963 0.36214 24.2963 0.823045V2.63374C24.3292 3.09465 23.9342 3.45679 23.4733 3.45679Z" fill="#132742"/>
<path d="M29.6298 3.45679H29.3006C28.8396 3.45679 28.4775 3.09465 28.4775 2.63374V0.823045C28.4446 0.36214 28.8396 0 29.3006 0H29.6298C30.0907 0 30.4528 0.36214 30.4528 0.823045V2.63374C30.4857 3.09465 30.0907 3.45679 29.6298 3.45679Z" fill="#132742"/>
<path d="M28.4772 1.41565H24.3291V2.07409H28.4772V1.41565Z" fill="#132742"/>
<path d="M1.18518 3.45679H0.823045C0.36214 3.45679 0 3.09465 0 2.63374V0.823045C0 0.36214 0.36214 0 0.823045 0H1.18518C1.64609 0 2.00823 0.36214 2.00823 0.823045V2.63374C2.00823 3.09465 1.64609 3.45679 1.18518 3.45679Z" fill="#132742"/>
<path d="M7.34143 3.45679H6.97929C6.51839 3.45679 6.15625 3.09465 6.15625 2.63374V0.823045C6.15625 0.36214 6.51839 0 6.97929 0H7.34143C7.80234 0 8.16448 0.36214 8.16448 0.823045V2.63374C8.16448 3.09465 7.80234 3.45679 7.34143 3.45679Z" fill="#132742"/>
<path d="M6.15596 1.41565H2.00781V2.07409H6.15596V1.41565Z" fill="#132742"/>
</svg>
