<svg width="36" height="34" viewBox="0 0 36 34" fill="none" xmlns="http://www.w3.org/2000/svg">
<path d="M28.2707 7.66597C29.7369 6.36463 29.8706 4.12108 28.5692 2.65486C27.2679 1.18865 25.0244 1.05499 23.5581 2.35633C22.0919 3.65768 21.9583 5.90122 23.2596 7.36744C24.561 8.83366 26.8045 8.96731 28.2707 7.66597Z" fill="#132742"/>
<path d="M21.6496 7.5052C17.9348 7.86292 10.8629 12.6509 11.3307 18.7322C11.6884 23.6027 17.5771 33.4538 17.5771 33.4538C17.5771 33.4538 15.2381 26.1618 16.9442 20.851C18.6502 15.5402 22.8053 13.9717 22.8053 13.9717C22.8053 13.9717 24.3187 20.5758 29.8221 20.2181C23.6858 18.8697 27.2355 6.98238 21.6496 7.5052Z" fill="#132742"/>
<path d="M19.5861 17.1637C19.7237 17.1362 25.5848 22.2268 19.0083 28.7759C21.7049 23.7403 17.8525 20.1631 17.8525 20.1631C17.8525 20.1631 18.678 18.0993 19.5861 17.1637Z" fill="#132742"/>
<path d="M28.2812 14.3294C28.2812 14.3294 34.5551 14.7146 28.3913 19.5851C34.8853 19.5026 36.784 13.3388 28.2812 14.3294Z" fill="#132742"/>
<path d="M33.7226 29.3306C34.8048 26.7521 33.5918 23.7846 31.0134 22.7024C28.4349 21.6202 25.4674 22.8332 24.3852 25.4117C23.303 27.9901 24.516 30.9577 27.0945 32.0398C29.673 33.122 32.6405 31.909 33.7226 29.3306Z" fill="#132742"/>
<path d="M29.051 21.2912C25.6939 21.2912 22.9697 24.0154 22.9697 27.3725C22.9697 30.7296 25.6939 33.4538 29.051 33.4538C32.4081 33.4538 35.1323 30.7296 35.1323 27.3725C35.1323 24.0154 32.4081 21.2912 29.051 21.2912ZM29.051 32.7383C26.0792 32.7383 23.6852 30.3443 23.6852 27.3725C23.6852 24.4007 26.0792 22.0067 29.051 22.0067C32.0228 22.0067 34.4168 24.4007 34.4168 27.3725C34.4168 30.3443 32.0228 32.7383 29.051 32.7383Z" fill="#132742"/>
<path d="M11.2969 29.3313C12.379 26.7528 11.166 23.7853 8.58758 22.7031C6.00912 21.621 3.0416 22.8339 1.95943 25.4124C0.877268 27.9909 2.09025 30.9584 4.66871 32.0406C7.24718 33.1227 10.2147 31.9097 11.2969 29.3313Z" fill="#132742"/>
<path d="M6.62521 21.2912C3.26813 21.2912 0.543945 24.0154 0.543945 27.3724C0.543945 30.7295 3.26813 33.4537 6.62521 33.4537C9.98229 33.4537 12.7065 30.7295 12.7065 27.3724C12.7065 24.0154 9.98229 21.2912 6.62521 21.2912ZM6.62521 32.7383C3.65337 32.7383 1.25939 30.3443 1.25939 27.3724C1.25939 24.4006 3.65337 22.0066 6.62521 22.0066C9.59705 22.0066 11.991 24.4006 11.991 27.3724C11.991 30.3443 9.59705 32.7383 6.62521 32.7383Z" fill="#132742"/>
</svg>
