<svg width="166" height="433" viewBox="0 0 166 433" fill="none" xmlns="http://www.w3.org/2000/svg">
<path d="M-527.059 91.8212L-527.059 91.8211C-461.879 8.40421 -376.694 -2.07518 -288.116 1.46387C-215.918 4.35468 -143.585 7.38922 -72.0067 20.0289L-72.0063 20.029C-68.5839 20.6309 -65.0866 21.2367 -61.5245 21.8536C-25.9343 28.0175 16.1193 35.3009 54.4514 51.1092C96.6051 68.4936 134.202 96.1661 153.712 143.95C166.818 176.081 169.46 215.06 159.289 248.836C140.61 310.71 84.6633 350.807 38.2178 374.639C-27.3354 408.281 -102.745 427.92 -179.253 431.602C-288.925 436.875 -428.518 412.525 -515.615 320.541L-515.978 320.885L-515.615 320.541C-575.073 257.771 -581.969 162.079 -527.059 91.8212Z" stroke="#2477FF"/>
<path d="M-180.505 404.44C-283.331 409.377 -414.309 386.584 -496.063 300.349C-551.934 241.439 -558.418 151.619 -506.815 85.6741C-445.595 7.41989 -365.571 -2.38725 -282.521 0.926884C-214.87 3.6323 -147.058 6.47299 -79.948 18.3092C-9.48788 30.6865 95.2297 44.8223 131.919 134.575C144.238 164.74 146.724 201.331 137.16 233.052C119.599 291.151 67.024 328.756 23.4728 351.076C-38.0177 382.594 -108.748 400.991 -180.505 404.44Z" fill="#FAFCFF"/>
</svg>
