<svg width="213" height="434" viewBox="0 0 213 434" fill="none" xmlns="http://www.w3.org/2000/svg">
<path d="M385.771 432.555C276.039 437.83 136.265 413.477 49.0223 321.338C-10.6006 258.394 -17.5201 162.426 37.5475 91.9664C102.879 8.35491 188.277 -2.12363 276.904 1.41739C349.097 4.30802 421.464 7.34318 493.08 19.9897C568.272 33.2143 680.022 48.3179 719.174 144.215C732.321 176.445 734.974 215.541 724.768 249.433C706.027 311.51 649.922 351.69 603.446 375.537C537.826 409.213 462.346 428.869 385.771 432.555Z" fill="#F4F8FD"/>
<path d="M384.495 404.893C281.669 409.831 150.691 387.037 68.9375 300.802C13.0665 241.892 6.58242 152.072 58.1847 86.1272C119.405 7.87302 199.429 -1.93413 282.479 1.38001C350.13 4.08543 417.942 6.92612 485.052 18.7623C555.512 31.1396 660.23 45.2754 696.919 135.028C709.238 165.193 711.724 201.784 702.16 233.505C684.599 291.604 632.024 329.209 588.473 351.529C526.982 383.047 456.252 401.444 384.495 404.893Z" fill="white"/>
</svg>
