<svg width="17" height="18" viewBox="0 0 17 18" fill="none" xmlns="http://www.w3.org/2000/svg">
<g clip-path="url(#clip0_53_5326)">
<path fill-rule="evenodd" clip-rule="evenodd" d="M8.65268 0.629883C13.2347 0.629883 16.933 4.36594 16.933 8.99468C16.933 13.6234 13.2347 17.3595 8.65268 17.3595C4.07069 17.3595 0.372375 13.6234 0.372375 8.99468C0.372375 4.36594 4.07069 0.629883 8.65268 0.629883ZM4.98709 9.22612C5.08527 8.56487 5.83803 8.20118 6.42714 8.56487C6.4926 8.59793 6.52533 8.631 6.59078 8.66406C6.85261 8.92856 7.14717 9.19306 7.44172 9.42449L7.70355 9.65593L10.6491 6.54806C10.8128 6.38275 10.9437 6.2505 11.2055 6.18437C12.1219 5.986 12.7437 7.11012 12.0892 7.77137L8.39085 11.6727C8.03084 12.0364 7.44172 12.0695 7.04898 11.7389C6.85261 11.5405 6.59078 11.3421 6.36168 11.1437C5.96894 10.7801 5.54347 10.4164 5.21619 10.0527C5.01982 9.85431 4.95436 9.49062 4.98709 9.22612Z" fill="#51BB96"/>
</g>
<defs>
<clipPath id="clip0_53_5326">
<rect width="16.5606" height="16.7296" fill="white" transform="translate(0.372375 0.629883)"/>
</clipPath>
</defs>
</svg>
