<svg width="52" height="32" viewBox="0 0 52 32" fill="none" xmlns="http://www.w3.org/2000/svg">
<path d="M45.7507 0.356902C45.6384 0.354513 45.5266 0.37315 45.4209 0.41186L38.6167 2.89782L38.6172 2.89734C38.3276 3.00343 38.1121 3.24907 38.0447 3.54966L24.2741 5.24236L15.5363 10.6812V10.6817C15.0015 11.0134 14.6283 11.5524 14.5059 12.1699C14.3841 12.7873 14.5236 13.4277 14.892 13.9385C15.2605 14.4489 15.8244 14.7835 16.4486 14.8618C19.1338 15.2002 21.8607 14.8508 24.3734 13.8463L27.1634 12.7328H27.1639C27.4979 12.5995 27.8798 12.6769 28.1359 12.9297L36.631 21.3669L36.6315 21.3674C37.0018 21.7339 37.1963 22.2429 37.1648 22.7633C37.1333 23.2837 36.879 23.7654 36.4671 24.0847C36.0551 24.4044 35.5252 24.5306 35.0133 24.4317C34.5015 24.3323 34.057 24.0173 33.7942 23.5671C33.5338 23.1509 32.9894 23.018 32.5665 23.2675C32.1436 23.517 31.9969 24.0575 32.2353 24.4866C32.5565 25.0233 32.5785 25.6876 32.2927 26.2438C32.0074 26.8001 31.4549 27.1699 30.8318 27.2216C30.2087 27.2732 29.6032 26.9998 29.2299 26.4985C28.9255 26.1143 28.3711 26.0416 27.9784 26.3346C27.5855 26.628 27.4976 27.1805 27.7796 27.581C28.223 28.1884 28.1628 29.0271 27.6371 29.5647C27.1115 30.1024 26.2746 30.1812 25.6577 29.7521L24.3468 31.0213V31.0209C24.9585 31.5504 25.7417 31.8405 26.5509 31.8376C27.36 31.8342 28.1408 31.5384 28.7487 31.0041C29.3566 30.4699 29.7509 29.7339 29.8579 28.9319C30.8156 29.1537 31.8226 28.9764 32.6474 28.4412C33.4722 27.9059 34.0433 27.0581 34.2306 26.0928C35.271 26.434 36.4097 26.2859 37.3288 25.6904C38.2473 25.0945 38.847 24.1153 38.9603 23.0262C39.0735 21.9371 38.6879 20.8557 37.9113 20.0833L29.4124 11.6456C29.0368 11.2729 28.5599 11.0182 28.0409 10.9125C27.5224 10.8069 26.9838 10.8552 26.4921 11.0516L23.7021 12.1651C21.4746 13.0545 19.0579 13.3632 16.679 13.0631C16.4869 13.0387 16.3306 12.8963 16.2891 12.707C16.247 12.5178 16.3287 12.3228 16.4922 12.2196L24.893 6.98903L38.5352 5.31259L42.3411 15.7235L42.3416 15.723C40.7587 16.794 39.0025 17.5825 37.1507 18.0533L38.6245 19.5141C40.213 19.0109 41.7256 18.2936 43.12 17.3812C43.3628 17.5514 43.673 17.592 43.9511 17.4902L50.7535 15.0042C50.979 14.9225 51.163 14.7538 51.2648 14.5364C51.3661 14.3185 51.3771 14.0695 51.2949 13.8439L46.582 0.948017V0.947539C46.4539 0.597242 46.1237 0.361639 45.7509 0.353516L45.7507 0.356902ZM45.1911 2.42617L49.2827 13.6208L44.1808 15.4841L40.0891 4.28941L45.1911 2.42617Z" fill="#050E12" fill-opacity="0.8"/>
<path d="M15.3491 15.4674C14.4005 15.4602 13.4872 15.8258 12.8052 16.4848L9.77634 19.4272H9.77586C9.01602 20.1637 8.61601 21.1959 8.68197 22.2526C8.74744 23.3087 9.27216 24.2837 10.1175 24.9202C10.9634 25.5572 12.0449 25.7919 13.0785 25.5634C13.1535 26.7295 13.7868 27.7876 14.7788 28.405C15.7708 29.0225 16.9995 29.1233 18.0792 28.6755C18.2436 29.4612 18.6842 30.1613 19.3212 30.6492C19.9587 31.1372 20.7496 31.3799 21.5506 31.3341C22.352 31.2877 23.1099 30.9556 23.6863 30.3974L25.8047 28.3462C26.4604 27.7121 26.8293 26.838 26.826 25.9257C26.8227 25.0134 26.447 24.1423 25.7866 23.5128C25.1261 22.8839 24.2373 22.5513 23.3264 22.5919C23.3857 21.4622 22.914 20.3692 22.0504 19.638C21.1868 18.9068 20.0313 18.6211 18.9265 18.8657C18.8672 17.9515 18.4639 17.0938 17.7972 16.4653C17.1305 15.8364 16.2507 15.4842 15.3341 15.4784L15.3491 15.4674ZM15.2764 17.2781C15.7648 17.2652 16.2375 17.4502 16.5873 17.7909C16.9371 18.1321 17.1345 18.5995 17.1345 19.088C17.1345 19.5764 16.9371 20.0442 16.5873 20.385L13.5584 23.3274C13.0934 23.7776 12.4239 23.9463 11.8012 23.769C11.1786 23.5917 10.6978 23.0957 10.54 22.4682C10.3823 21.8402 10.5716 21.176 11.0361 20.7253L14.0668 17.7867C14.3923 17.4718 14.8238 17.2902 15.2764 17.2777L15.2764 17.2781ZM19.6324 20.5986H19.6328C20.1212 20.578 20.5977 20.7563 20.9528 21.0927C21.3078 21.4292 21.5119 21.8946 21.5186 22.384C21.5248 22.8729 21.3332 23.3437 20.9872 23.6892L17.9525 26.6278C17.487 27.0737 16.8199 27.2381 16.2011 27.0608C15.5817 26.883 15.1034 26.3898 14.9451 25.7652C14.7869 25.1406 14.9724 24.4791 15.4321 24.0281L18.4648 21.0894C18.7821 20.7908 19.1969 20.6163 19.6328 20.5987L19.6324 20.5986ZM23.4234 24.3987H23.4239C24.0581 24.3763 24.6416 24.7452 24.8925 25.3278C25.1439 25.9108 25.0115 26.588 24.5594 27.0333L22.4304 29.0954H22.43C21.8163 29.6569 20.8673 29.6292 20.2875 29.0323C19.7078 28.4354 19.7074 27.4858 20.2861 26.8885L22.4151 24.8245H22.4155C22.6879 24.564 23.0468 24.4125 23.4239 24.3992L23.4234 24.3987Z" fill="#050E12" fill-opacity="0.8"/>
<path d="M10.3098 3.13881C10.0336 3.13403 9.77029 3.25541 9.59443 3.46855L0.856632 14.0586C0.703706 14.2445 0.631549 14.4839 0.654965 14.7233C0.678859 14.9628 0.796905 15.1831 0.983755 15.335L6.25638 19.6819L6.25591 19.6824C6.49725 19.8831 6.82555 19.9447 7.12328 19.8449C7.42817 20.0494 7.74596 20.2343 8.0738 20.3992H8.05564C8.2769 19.8257 8.61286 19.3034 9.04248 18.8642C8.76579 18.7357 8.49817 18.5889 8.2401 18.426L15.4898 9.63754L18.7849 7.58589H18.7853C17.9027 7.56726 17.02 7.60931 16.1435 7.71254L10.8709 3.36187C10.7137 3.23284 10.5173 3.16068 10.3137 3.15733L10.3098 3.13881ZM10.4183 5.32038L14.1698 8.41474L6.58515 17.6089L2.83701 14.5145L10.4183 5.32038Z" fill="#050E12" fill-opacity="0.8"/>
</svg>
