<svg width="46" height="46" viewBox="0 0 46 46" fill="none" xmlns="http://www.w3.org/2000/svg">
<path d="M19.517 45.2343C14.672 45.2343 9.82747 43.3905 6.14045 39.7024C-1.23529 32.3267 -1.23529 20.3248 6.14045 12.9471C9.34981 9.73775 13.6073 7.78754 18.1287 7.45754C22.6034 7.13091 27.0512 8.3992 30.6564 11.0301C31.057 11.3231 31.1459 11.8857 30.853 12.2867C30.56 12.6876 29.9973 12.7762 29.5964 12.4833C22.7476 7.48453 13.4187 8.21421 7.4134 14.219C0.739143 20.8932 0.739143 31.7541 7.4134 38.4296C10.7499 41.7661 15.1345 43.4351 19.5187 43.4351C23.9033 43.4351 28.2857 41.7661 31.624 38.4296C37.6288 32.4236 38.3586 23.0945 33.3594 16.2467C33.0668 15.8461 33.1541 15.2834 33.5559 14.9904C33.9569 14.6974 34.5196 14.7847 34.8125 15.1869C37.4434 18.7907 38.7129 23.2396 38.3855 27.7146C38.0551 32.2354 36.1049 36.4933 32.8956 39.7029C29.2084 43.3885 24.3638 45.2335 19.519 45.2335L19.517 45.2343ZM19.5183 40.2854C15.9416 40.2854 12.3649 38.9236 9.64127 36.2013C4.195 30.7554 4.195 21.8927 9.64127 16.447C11.9073 14.1805 14.9085 12.7531 18.0921 12.4282C21.2309 12.1082 24.4119 12.8649 27.0507 14.5583C27.468 14.8267 27.5901 15.3832 27.3217 15.8004C27.0532 16.218 26.4968 16.3402 26.0791 16.0718C21.3065 13.0104 14.9281 13.7014 10.9132 17.7174C6.16871 22.4619 6.16871 30.1823 10.9132 34.928C13.2848 37.2996 16.4019 38.4869 19.5186 38.4869C22.6353 38.4869 25.7507 37.3009 28.1236 34.928C32.1383 30.9134 32.8311 24.5345 29.7697 19.7621C29.5008 19.3444 29.623 18.788 30.0406 18.5195C30.4595 18.2511 31.0143 18.3733 31.2827 18.7909C32.9761 21.4309 33.7328 24.6121 33.4128 27.7491C33.0879 30.9327 31.6617 33.9339 29.3956 36.2003C26.672 38.9239 23.0953 40.2856 19.5186 40.2856L19.5183 40.2854ZM19.517 35.3377C17.2082 35.3377 14.8981 34.4593 13.1407 32.7015C9.62545 29.1854 9.62545 23.4657 13.1407 19.9493C15.8027 17.286 19.8868 16.5592 23.3044 18.1391C23.7553 18.3473 23.9518 18.8817 23.7436 19.3326C23.5354 19.7835 23.001 19.9801 22.5501 19.7723C19.8149 18.5066 16.5453 19.0887 14.414 21.2213C11.599 24.0363 11.599 28.615 14.414 31.43C15.8207 32.8367 17.6695 33.5406 19.5182 33.5406C21.367 33.5406 23.2154 32.8379 24.6225 31.43C26.7538 29.2986 27.3369 26.0289 26.0715 23.2938C25.8633 22.8425 26.0599 22.3081 26.5108 22.1003C26.9616 21.8921 27.4965 22.0886 27.7043 22.5395C29.2846 25.9554 28.5574 30.04 25.894 32.7033C24.1354 34.4581 21.8266 35.3379 19.5169 35.3379L19.517 35.3377ZM19.517 30.3892C18.4748 30.3892 17.4343 29.9932 16.6418 29.1995C15.0565 27.6141 15.0565 25.0331 16.6418 23.4477C17.1106 22.9786 17.6915 22.6291 18.3219 22.435C18.7973 22.2888 19.2998 22.556 19.4464 23.0314C19.5914 23.5068 19.3255 24.0092 18.8501 24.1554C18.4944 24.2647 18.1794 24.4546 17.9147 24.7193C17.0308 25.6032 17.0308 27.0436 17.9147 27.9274C18.7985 28.8113 20.2389 28.8113 21.1227 27.9274C21.3875 27.6627 21.5778 27.3481 21.6867 26.992C21.8321 26.5166 22.3341 26.251 22.8107 26.3961C23.2861 26.5411 23.5521 27.0448 23.407 27.5201C23.2142 28.1509 22.8635 28.7315 22.3947 29.2006C21.6006 29.9931 20.5588 30.3892 19.517 30.3892L19.517 30.3892ZM19.7547 27.0615C19.5245 27.0615 19.2947 26.9742 19.1185 26.7984C18.7678 26.4477 18.7678 25.8771 19.1185 25.5264L32.9611 11.6838C32.9561 11.6697 32.9507 11.6568 32.947 11.6427L31.5158 7.08824C31.4156 6.76867 31.5004 6.41918 31.7381 6.18274L37.0481 0.872737C37.27 0.650418 37.5925 0.560652 37.8983 0.635035C38.2042 0.709835 38.4481 0.939641 38.542 1.23884L39.706 4.94023L41.6292 3.01704C41.9799 2.6663 42.5505 2.6663 42.9012 3.01704C43.2519 3.36777 43.2519 3.93833 42.9012 4.28905L40.9355 6.25469L44.7616 7.45735C45.0608 7.55086 45.2906 7.7952 45.3654 8.10064C45.4398 8.40649 45.3496 8.72896 45.1277 8.95129L39.8177 14.2613C39.5813 14.4973 39.2318 14.5838 38.9118 14.4836L34.3565 13.052C34.3025 13.0354 34.2497 13.0138 34.2011 12.9868L20.3904 26.7974C20.2142 26.9749 19.9844 27.0621 19.7546 27.0621L19.7547 27.0615ZM35.6239 11.5647L38.9309 12.6044L42.8056 8.72928L39.6669 7.74275C39.6129 7.72613 39.5605 7.7041 39.5115 7.67709L35.6239 11.5647ZM33.3949 7.06828L34.3943 10.2493L38.2707 6.37296C38.2653 6.35883 38.2603 6.34595 38.2565 6.33182L37.2696 3.19352L33.3949 7.06828Z" fill="#050E12" fill-opacity="0.8"/>
</svg>
