<svg width="46" height="48" viewBox="0 0 46 48" fill="none" xmlns="http://www.w3.org/2000/svg">
<g opacity="0.8">
<path d="M23.223 29.7308H16.9713V28.3168C16.9713 26.9027 15.8551 25.7861 14.4407 25.7861H9.82624C8.41218 25.7861 7.2956 26.9024 7.2956 28.3168V29.7308H0.970128C0.52363 29.7308 0.22583 30.0286 0.22583 30.4751V45.4352C0.22583 45.8817 0.52363 46.1795 0.970128 46.1795H23.1493C23.5958 46.1795 23.8936 45.8817 23.8936 45.4352V30.4751C23.9677 30.0282 23.5958 29.7308 23.2235 29.7308H23.223ZM8.71007 28.2422C8.71007 27.6466 9.15657 27.2001 9.75218 27.2001H14.3666C14.9622 27.2001 15.4087 27.6466 15.4087 28.2422V29.6563H8.63591V28.2422H8.71007ZM1.71403 31.219H22.4048V33.6006L14.5157 36.8751V35.908C14.5157 35.4615 14.2179 35.1637 13.7714 35.1637H10.3477C9.90118 35.1637 9.60338 35.4615 9.60338 35.908V36.9501L1.71428 33.9729L1.71403 31.219ZM11.1662 36.6523H13.1013V39.2571H11.1662V36.6523ZM1.71403 44.6159V35.6102L9.60313 38.5128V40.0014C9.60313 40.4479 9.90093 40.7457 10.3474 40.7457H13.7711C14.2176 40.7457 14.5154 40.4479 14.5154 40.0014V38.4383L22.4794 35.1638V44.6906H1.71399L1.71403 44.6159Z" fill="#050E12"/>
<path d="M34.3132 25.7117C34.611 25.4885 34.9088 25.1907 35.2062 24.9674C35.504 24.6696 35.5782 24.2231 35.2808 23.9253C34.983 23.6275 34.5365 23.5534 34.2386 23.8508C33.7922 24.2227 33.3457 24.5951 32.8992 24.8929C32.6014 25.1161 32.4527 25.5626 32.6759 25.8604L41.9049 42.9789C42.5005 44.0952 42.0536 45.5837 40.8628 46.1048C38.8532 47.0724 37.8856 44.9886 37.8115 44.9141L30.3685 26.9772C30.2198 26.6053 29.8474 26.4562 29.4755 26.5307C23.5216 28.3171 17.0463 25.4144 14.3671 19.8325C12.8785 16.7811 12.7299 13.3574 13.8461 10.157C14.9624 6.95665 17.2698 4.42632 20.3211 2.93768C24.1168 1.15125 28.5825 1.30041 32.2296 3.45872C32.6016 3.68197 33.0485 3.53327 33.2717 3.16092C33.495 2.78898 33.3463 2.34208 32.9739 2.11881C28.9547 -0.262779 23.9678 -0.485992 19.7253 1.52321C16.3016 3.16049 13.6968 5.98902 12.4315 9.56136C11.1662 13.1337 11.3894 17.0039 12.9526 20.4274C15.8552 26.5305 22.7026 29.7309 29.178 28.0932L36.3974 45.5094C37.1417 47.2958 39.4487 48.412 41.4583 47.4445C43.3934 46.5515 44.2123 44.1699 43.1702 42.2348L34.3132 25.7117Z" fill="#050E12"/>
<path d="M37.3647 36.6527L36.174 37.1737C35.802 37.3224 35.6529 37.7693 35.802 38.1413C35.9507 38.5132 36.3976 38.6623 36.7696 38.5132L37.9603 37.9922C38.3322 37.8435 38.4814 37.3966 38.3323 37.0246C38.1836 36.6527 37.7367 36.504 37.3647 36.6527Z" fill="#050E12"/>
<path d="M38.7038 39.9271L37.5131 40.374C37.1411 40.5227 36.992 40.9696 37.1411 41.3416C37.2898 41.7135 37.7367 41.8626 38.1087 41.7135L39.2994 41.1925C39.6714 41.0438 39.8205 40.5969 39.6714 40.2249C39.5227 39.9271 39.1507 39.7039 38.7038 39.9271Z" fill="#050E12"/>
<path d="M38.5554 44.6165C38.7041 44.9885 39.151 45.1376 39.5229 44.9885L40.7137 44.4674C41.0856 44.3187 41.2347 43.8718 41.0856 43.4999C40.9369 43.1279 40.49 42.9788 40.1181 43.128L38.9273 43.649C38.5554 43.7977 38.3321 44.2446 38.5554 44.6165Z" fill="#050E12"/>
<path d="M45.0299 20.6512H43.9136V9.56217C43.9136 9.11567 43.6158 8.81787 43.1693 8.81787C42.7228 8.81787 42.425 9.11567 42.425 9.56217V20.6512H40.3412V11.4968C40.3412 11.0503 40.0434 10.7525 39.5969 10.7525C39.1504 10.7525 38.8526 11.0503 38.8526 11.4968V20.6512H36.7688V16.0368C36.7688 15.5903 36.471 15.2925 36.0245 15.2925C35.578 15.2925 35.2802 15.5903 35.2802 16.0368V20.6512H33.1964V15.5157C33.1964 15.0692 32.8986 14.7714 32.4521 14.7714C32.0056 14.7714 31.7078 15.0692 31.7078 15.5157V20.6512H29.624L29.6236 11.4968C29.6236 11.0503 29.3258 10.7525 28.8793 10.7525C28.4328 10.7525 28.135 11.0503 28.135 11.4968V20.6512H26.0512V14.1016C26.0512 13.6551 25.7534 13.3573 25.3069 13.3573C24.8604 13.3573 24.5626 13.6551 24.5626 14.1016V20.6512H22.4788V16.4832C22.4788 16.0367 22.181 15.7389 21.7345 15.7389C21.288 15.7389 20.9902 16.0367 20.9902 16.4832V20.6512H19.8739C19.4274 20.6512 19.1296 20.949 19.1296 21.3955C19.1296 21.842 19.4274 22.1398 19.8739 22.1398H45.1047C45.5512 22.1398 45.849 21.842 45.849 21.3955C45.774 20.949 45.4021 20.6512 45.0297 20.6512H45.0299Z" fill="#050E12"/>
<path d="M34.9832 6.80817C34.2389 6.80817 33.5691 7.18011 33.1967 7.70117L30.4432 6.80817C30.4432 5.54285 29.4011 4.50115 28.1362 4.50115C26.8708 4.50115 25.8292 5.54326 25.8292 6.80817C25.8292 7.03142 25.9037 7.25467 25.9037 7.47791L22.9265 9.63629C22.5546 9.33849 22.1077 9.1898 21.587 9.1898C20.3217 9.1898 19.28 10.2319 19.28 11.4968C19.28 12.7621 20.3221 13.8038 21.587 13.8038C22.8524 13.8038 23.8941 12.7617 23.8941 11.4968C23.8941 11.2736 23.8195 11.0503 23.8195 10.8271L26.7967 8.66869C27.1686 8.96649 27.6155 9.11519 28.1362 9.11519C28.8805 9.11519 29.5502 8.74325 29.9226 8.22219L32.6757 9.11519C32.6757 10.3805 33.7178 11.4222 34.9827 11.4222C36.3968 11.4222 37.5134 10.0827 37.2156 8.66824L41.6814 6.13791C42.0533 6.50985 42.5744 6.65896 43.17 6.65896C44.4354 6.65896 45.4771 5.61685 45.4771 4.35194C45.4771 3.08662 44.435 2.04492 43.17 2.04492C41.9047 2.04492 40.863 3.08703 40.863 4.35194C40.863 4.50064 40.863 4.72388 40.9376 4.87298L36.5463 7.40363C36.0994 7.03128 35.6529 6.80803 34.9832 6.80803L34.9832 6.80817ZM21.5862 12.3157C21.1397 12.3157 20.7674 11.9437 20.7674 11.4968C20.7674 11.0503 21.1393 10.678 21.5862 10.678C22.1073 10.678 22.4051 11.1245 22.4051 11.4968C22.4051 11.9433 22.0327 12.3157 21.5862 12.3157ZM28.1359 7.62665C27.6148 7.62665 27.317 7.18016 27.317 6.80781C27.317 6.36131 27.689 5.98896 28.1359 5.98896C28.5824 5.98896 28.9547 6.36091 28.9547 6.80781C28.9547 7.25471 28.5824 7.62665 28.1359 7.62665ZM34.9833 9.93408C34.5368 9.93408 34.1644 9.56214 34.1644 9.11524C34.1644 8.66874 34.5364 8.2964 34.9833 8.2964C35.2811 8.2964 35.5789 8.44509 35.653 8.66834C36.0249 9.33848 35.5785 9.93407 34.9833 9.93407V9.93408ZM43.1701 3.53321C43.6166 3.53321 43.989 3.90515 43.989 4.35205C43.989 4.79855 43.6171 5.1709 43.1701 5.1709C42.7237 5.1709 42.3513 4.79896 42.3513 4.35205C42.3513 3.90555 42.7237 3.53321 43.1701 3.53321Z" fill="#050E12"/>
</g>
</svg>
