<svg width="35" height="50" viewBox="0 0 35 50" fill="none" xmlns="http://www.w3.org/2000/svg">
<path d="M28.2354 28.3087C29.2708 27.9677 30.421 27.5687 31.1111 26.6204C31.8158 25.6516 31.8225 24.4468 31.8279 23.2813C31.8324 22.5533 31.8355 21.8651 32.0116 21.3235C32.1756 20.8186 32.5652 20.281 32.9781 19.7117C33.6422 18.7964 34.3948 17.7593 34.3948 16.5103C34.3948 15.2613 33.6418 14.2241 32.9781 13.3089C32.5652 12.7396 32.1756 12.202 32.0116 11.697C31.8355 11.1554 31.8324 10.4672 31.8279 9.73928C31.8221 8.57377 31.8158 7.36902 31.1111 6.40017C30.3997 5.4224 29.1975 5.02737 28.1372 4.67833C27.4508 4.45221 26.8028 4.23951 26.3515 3.91061C25.9095 3.58886 25.5118 3.04322 25.0908 2.46585C24.4294 1.5578 23.6796 0.528596 22.5132 0.149703C22.2076 0.0504966 21.8747 0 21.5239 0C20.7244 0 19.9276 0.254276 19.1572 0.500054C18.452 0.725731 17.7862 0.937988 17.1976 0.937988C16.609 0.937988 15.9432 0.725719 15.2385 0.500946C14.4681 0.255168 13.6718 0.000892005 12.8718 0.000892005C12.5214 0.000892005 12.1881 0.0513886 11.882 0.150595C10.7157 0.529099 9.96576 1.55875 9.30441 2.46674C8.8839 3.04411 8.48708 3.58929 8.04418 3.91104C7.59284 4.23949 6.94486 4.45266 6.25851 4.67877C5.19763 5.02733 3.99602 5.42282 3.28411 6.4006C2.57984 7.36944 2.57313 8.57421 2.56687 9.73971C2.5633 10.4677 2.55928 11.1554 2.38365 11.6974C2.21965 12.2024 1.82998 12.74 1.41662 13.3093C0.752558 14.2245 0 15.2617 0 16.5107C0 17.7597 0.752535 18.7964 1.41662 19.7121C1.82953 20.2814 2.21965 20.819 2.38365 21.3244C2.55973 21.8661 2.56374 22.5542 2.56687 23.2822C2.57358 24.4477 2.57939 25.6524 3.28411 26.6208C3.99554 27.5986 5.19768 27.9936 6.25805 28.3427C6.27682 28.3494 6.2947 28.3547 6.31391 28.361L1.2683 46.6547C1.18071 46.9715 1.29287 47.3098 1.55206 47.5118C1.8117 47.7142 2.16697 47.7397 2.45297 47.5775L7.10584 44.9355L9.74689 49.5884C9.89256 49.8454 10.1643 50 10.4534 50C10.4869 50 10.5204 49.9978 10.5544 49.9933C10.8806 49.9531 11.1505 49.7198 11.2377 49.403L15.9544 32.3036C16.3937 32.1785 16.8133 32.0837 17.1976 32.0837C17.581 32.0837 18.0002 32.178 18.439 32.3031L23.2175 49.3808C23.3051 49.6954 23.5728 49.9269 23.8977 49.968C23.9316 49.9724 23.9665 49.9747 24 49.9747C24.2873 49.9747 24.5559 49.8232 24.7025 49.5698L27.415 44.8986L32.1783 47.5415C32.4643 47.6997 32.8187 47.672 33.0761 47.4682C33.3335 47.2649 33.4434 46.9275 33.3549 46.6115L28.2354 28.3087ZM10.1922 47.0783L8.11828 43.4251C7.89618 43.0341 7.4006 42.8969 7.01047 43.1194L3.35676 45.1934L7.82866 28.9783C7.90195 29.0216 7.97926 29.0619 8.0445 29.1092C8.48646 29.431 8.88373 29.9766 9.30473 30.5535C9.9661 31.462 10.716 32.4908 11.8823 32.8697C12.1879 32.9693 12.5209 33.0194 12.8717 33.0194C13.2895 33.0194 13.7055 32.9483 14.1176 32.8478L10.1922 47.0783ZM14.7446 30.9719C13.8347 31.262 12.966 31.5136 12.3846 31.3245C11.7192 31.1087 11.1848 30.3745 10.6185 29.5973C10.1421 28.944 9.64966 28.2679 9.00122 27.796C8.34342 27.3169 7.5417 27.0537 6.76641 26.7985C5.85925 26.5 5.00259 26.2185 4.59956 25.6639C4.20363 25.1201 4.19871 24.2227 4.19335 23.2732C4.18888 22.4527 4.18486 21.6045 3.93058 20.822C3.68748 20.0722 3.20262 19.4037 2.73384 18.7575C2.16452 17.9723 1.62693 17.2314 1.62693 16.5105C1.62693 15.7902 2.16496 15.0484 2.73384 14.2636C3.20262 13.6174 3.68747 12.9489 3.93058 12.1995C4.18486 11.4165 4.18887 10.5684 4.19335 9.74788C4.19826 8.79872 4.20318 7.90135 4.59956 7.35715C5.00264 6.80302 5.85979 6.52104 6.76733 6.22253C7.54265 5.9678 8.34387 5.70416 9.00213 5.22555C9.65055 4.75321 10.143 4.07755 10.6194 3.42421C11.1856 2.64665 11.721 1.91241 12.3855 1.697C12.9673 1.50663 13.8366 1.75911 14.7459 2.04958C15.5369 2.30295 16.3565 2.56393 17.1975 2.56393C18.0394 2.56393 18.8582 2.30296 19.6508 2.04958C20.5611 1.75911 21.4308 1.50796 22.0108 1.697C22.6757 1.91284 23.2102 2.64661 23.7769 3.42421C24.2533 4.07799 24.7457 4.75366 25.3942 5.22601C26.052 5.70506 26.8532 5.96828 27.629 6.22344C28.5361 6.52151 29.3928 6.80349 29.7958 7.35717C30.1918 7.90146 30.1967 8.79838 30.2016 9.7479C30.2065 10.5688 30.211 11.4165 30.4644 12.1995C30.7075 12.9489 31.1923 13.6175 31.6611 14.2636C32.2309 15.0488 32.7685 15.7897 32.7685 16.511C32.7685 17.2323 32.2309 17.9732 31.6616 18.7579C31.1923 19.4041 30.7075 20.0726 30.4644 20.8221C30.2101 21.605 30.2061 22.4527 30.2016 23.2737C30.1967 24.2228 30.1918 25.1202 29.7958 25.6644C29.3928 26.2181 28.5361 26.4996 27.629 26.7981C26.8537 27.0533 26.052 27.3165 25.3937 27.7955C24.7453 28.2679 24.2533 28.9436 23.7769 29.5969C23.2107 30.3745 22.6758 31.1087 22.0108 31.3241C21.4294 31.5122 20.5602 31.2611 19.6508 30.9715C18.8581 30.7186 18.0389 30.4572 17.1975 30.4572C16.3565 30.4576 15.5369 30.719 14.7447 30.972L14.7446 30.9719ZM27.5059 43.0903C27.1189 42.8754 26.6309 43.0103 26.4093 43.3933L24.2633 47.089L20.279 32.8496C20.6906 32.9511 21.1062 33.0208 21.5231 33.0208C21.8735 33.0208 22.2068 32.9703 22.5125 32.8711C23.6788 32.4926 24.4287 31.4626 25.091 30.5549C25.5115 29.9776 25.9092 29.4324 26.3507 29.1106C26.4598 29.0315 26.5809 28.96 26.7105 28.8921L31.2659 45.177L27.5059 43.0903Z" fill="#050E12" fill-opacity="0.8"/>
<path d="M28.4114 16.5104C28.4114 10.3274 23.3809 5.29736 17.1984 5.29736C11.015 5.29736 5.98535 10.3279 5.98535 16.5104C5.98535 22.6938 11.0159 27.7234 17.1984 27.7234C23.3809 27.7239 28.4114 22.6934 28.4114 16.5104ZM17.1979 26.0985C11.9114 26.0985 7.61018 21.7973 7.61018 16.5107C7.61018 11.2242 11.9114 6.92299 17.1979 6.92299C22.4849 6.92299 26.7857 11.2242 26.7857 16.5107C26.7861 21.7973 22.4854 26.0985 17.1979 26.0985Z" fill="#050E12" fill-opacity="0.8"/>
</svg>
