<svg width="216" height="146" viewBox="0 0 216 146" fill="none" xmlns="http://www.w3.org/2000/svg">
<path fill-rule="evenodd" clip-rule="evenodd" d="M32.5101 5.91797L15.6563 22.7717L-1.21545 39.6435L15.6563 56.4972L32.5101 73.369L49.3818 56.4972L66.2356 39.6435L49.3818 22.7717L32.5101 5.91797Z" fill="#FBB81B"/>
<path fill-rule="evenodd" clip-rule="evenodd" d="M107.677 61.4253L94.3132 74.7896L80.9309 88.1539L94.3132 101.536L107.677 114.9L121.042 101.536L134.406 88.1539L121.042 74.7896L107.677 61.4253Z" fill="#FBB81B"/>
<path d="M145.72 101.249H107.534V146H145.72V101.249Z" fill="#F56F6F"/>
<path d="M107.947 90.9238H-52.9999V101.608H107.947V90.9238Z" fill="#F56F6F"/>
<path d="M215.671 90.9238H62.2963V91.9851H215.671V90.9238Z" fill="#1257B8"/>
<path d="M108.595 75.7432H107.534V146H108.595V75.7432Z" fill="#1257B8"/>
<path d="M165.362 84.3589H11.9871V85.4201H165.362V84.3589Z" fill="#1257B8"/>
<path fill-rule="evenodd" clip-rule="evenodd" d="M47.7808 2.0685L46.7376 1.04324L45.6944 0L44.6691 1.04324L43.6259 2.0685L44.6691 3.11174L45.6944 4.15498L46.7376 3.11174L47.7808 2.0685Z" fill="#1257B8"/>
<path fill-rule="evenodd" clip-rule="evenodd" d="M47.781 12.7169L46.7377 11.6737L45.6945 10.6484L44.6692 11.6737L43.626 12.7169L44.6692 13.7602L45.6945 14.7854L46.7377 13.7602L47.781 12.7169Z" fill="#1257B8"/>
<path fill-rule="evenodd" clip-rule="evenodd" d="M47.781 23.3473L46.7377 22.3221L45.6945 21.2788L44.6692 22.3221L43.626 23.3473L44.6692 24.3905L45.6945 25.4338L46.7377 24.3905L47.781 23.3473Z" fill="#1257B8"/>
<path fill-rule="evenodd" clip-rule="evenodd" d="M47.781 33.9953L46.7377 32.952L45.6945 31.9268L44.6692 32.952L43.626 33.9953L44.6692 35.0385L45.6945 36.0638L46.7377 35.0385L47.781 33.9953Z" fill="#1257B8"/>
<path fill-rule="evenodd" clip-rule="evenodd" d="M56.5049 2.0685L55.4797 1.04324L54.4364 0L53.3932 1.04324L52.3679 2.0685L53.3932 3.11174L54.4364 4.15498L55.4797 3.11174L56.5049 2.0685Z" fill="#1257B8"/>
<path fill-rule="evenodd" clip-rule="evenodd" d="M56.5049 12.7169L55.4797 11.6737L54.4364 10.6484L53.3932 11.6737L52.3679 12.7169L53.3932 13.7602L54.4364 14.7854L55.4797 13.7602L56.5049 12.7169Z" fill="#1257B8"/>
<path fill-rule="evenodd" clip-rule="evenodd" d="M56.5049 23.3473L55.4797 22.3221L54.4364 21.2788L53.3932 22.3221L52.3679 23.3473L53.3932 24.3905L54.4364 25.4338L55.4797 24.3905L56.5049 23.3473Z" fill="#1257B8"/>
<path fill-rule="evenodd" clip-rule="evenodd" d="M56.5049 33.9953L55.4797 32.952L54.4364 31.9268L53.3932 32.952L52.3679 33.9953L53.3932 35.0385L54.4364 36.0638L55.4797 35.0385L56.5049 33.9953Z" fill="#1257B8"/>
</svg>
