<svg width="211" height="139" viewBox="0 0 211 139" fill="none" xmlns="http://www.w3.org/2000/svg">
<path fill-rule="evenodd" clip-rule="evenodd" d="M125.38 26.8904L139.179 40.6888L152.977 54.5093L139.179 68.3078L125.38 82.1062L111.582 68.3078L97.7836 54.5093L111.582 40.6888L125.38 26.8904Z" fill="#51BB96"/>
<path d="M148.142 0H188.169V108.997H148.142V0Z" fill="#2477FF"/>
<path d="M138.009 0H139.311V108.997H138.009V0Z" fill="#2477FF"/>
<path d="M132.136 0H133.438V139H132.136V0Z" fill="#2477FF"/>
<path d="M63.2985 68.8599H202.298V70.1624H63.2985V68.8599Z" fill="#2477FF"/>
<path fill-rule="evenodd" clip-rule="evenodd" d="M69.1488 94.1606L76.7434 101.755L84.3381 109.35L76.7434 116.945L69.1488 124.517L61.5541 116.945L53.9594 109.35L61.5541 101.755L69.1488 94.1606Z" fill="#51BB96"/>
<path d="M188.169 108.997H220.998V129.86H188.169V108.997Z" fill="#2477FF"/>
<path fill-rule="evenodd" clip-rule="evenodd" d="M81.534 47.4224L82.8144 48.6808L84.095 49.9613L82.8144 51.2418L81.534 52.5002L80.2755 51.2418L78.995 49.9613L80.2755 48.6808L81.534 47.4224Z" fill="#51BB96"/>
<path fill-rule="evenodd" clip-rule="evenodd" d="M68.4863 47.4224L69.7447 48.6808L71.0252 49.9613L69.7447 51.2418L68.4863 52.5002L67.2058 51.2418L65.9253 49.9613L67.2058 48.6808L68.4863 47.4224Z" fill="#51BB96"/>
<path fill-rule="evenodd" clip-rule="evenodd" d="M55.4166 47.4224L56.6971 48.6808L57.9776 49.9613L56.6971 51.2418L55.4166 52.5002L54.1581 51.2418L52.8777 49.9613L54.1581 48.6808L55.4166 47.4224Z" fill="#51BB96"/>
<path fill-rule="evenodd" clip-rule="evenodd" d="M42.3682 47.4224L43.6266 48.6808L44.9072 49.9613L43.6266 51.2418L42.3682 52.5002L41.0877 51.2418L39.8072 49.9613L41.0877 48.6808L42.3682 47.4224Z" fill="#51BB96"/>
<path fill-rule="evenodd" clip-rule="evenodd" d="M29.2988 47.4224L30.5792 48.6808L31.8377 49.9613L30.5792 51.2418L29.2988 52.5002L28.0183 51.2418L26.7598 49.9613L28.0183 48.6808L29.2988 47.4224Z" fill="#51BB96"/>
<path fill-rule="evenodd" clip-rule="evenodd" d="M16.2286 47.4224L17.5091 48.6808L18.7896 49.9613L17.5091 51.2418L16.2286 52.5002L14.9702 51.2418L13.6897 49.9613L14.9702 48.6808L16.2286 47.4224Z" fill="#51BB96"/>
<path fill-rule="evenodd" clip-rule="evenodd" d="M3.18135 47.4224L4.46185 48.6808L5.72027 49.9613L4.46185 51.2418L3.18135 52.5002L1.90085 51.2418L0.642441 49.9613L1.90085 48.6808L3.18135 47.4224Z" fill="#51BB96"/>
<path fill-rule="evenodd" clip-rule="evenodd" d="M81.5341 36.6929L82.8146 37.9734L84.0951 39.2318L82.8146 40.5123L81.5341 41.7928L80.2757 40.5123L78.9952 39.2318L80.2757 37.9734L81.5341 36.6929Z" fill="#51BB96"/>
<path fill-rule="evenodd" clip-rule="evenodd" d="M68.4863 36.6929L69.7447 37.9734L71.0252 39.2318L69.7447 40.5123L68.4863 41.7928L67.2058 40.5123L65.9253 39.2318L67.2058 37.9734L68.4863 36.6929Z" fill="#51BB96"/>
<path fill-rule="evenodd" clip-rule="evenodd" d="M55.4166 36.6929L56.6971 37.9734L57.9776 39.2318L56.6971 40.5123L55.4166 41.7928L54.1581 40.5123L52.8777 39.2318L54.1581 37.9734L55.4166 36.6929Z" fill="#51BB96"/>
<path fill-rule="evenodd" clip-rule="evenodd" d="M42.3682 36.6929L43.6266 37.9734L44.9072 39.2318L43.6266 40.5123L42.3682 41.7928L41.0877 40.5123L39.8072 39.2318L41.0877 37.9734L42.3682 36.6929Z" fill="#51BB96"/>
<path fill-rule="evenodd" clip-rule="evenodd" d="M29.2988 36.6929L30.5792 37.9734L31.8377 39.2318L30.5792 40.5123L29.2988 41.7928L28.0183 40.5123L26.7598 39.2318L28.0183 37.9734L29.2988 36.6929Z" fill="#51BB96"/>
<path fill-rule="evenodd" clip-rule="evenodd" d="M16.2286 36.6929L17.5091 37.9734L18.7896 39.2318L17.5091 40.5123L16.2286 41.7928L14.9702 40.5123L13.6897 39.2318L14.9702 37.9734L16.2286 36.6929Z" fill="#51BB96"/>
<path fill-rule="evenodd" clip-rule="evenodd" d="M3.18135 36.6929L4.46185 37.9734L5.72027 39.2318L4.46185 40.5123L3.18135 41.7928L1.90085 40.5123L0.642441 39.2318L1.90085 37.9734L3.18135 36.6929Z" fill="#51BB96"/>
</svg>
