<svg width="161" height="184" viewBox="0 0 161 184" fill="none" xmlns="http://www.w3.org/2000/svg">
<path fill-rule="evenodd" clip-rule="evenodd" d="M72.6915 31.792L64.0313 40.4523L55.371 49.1126L64.0313 57.7728L72.6915 66.4331L81.3518 57.7728L89.9895 49.1126L81.3518 40.4523L72.6915 31.792Z" fill="#51BB96"/>
<path fill-rule="evenodd" clip-rule="evenodd" d="M43.1607 94.856L21.0916 116.948L-1 139.039L21.0916 161.108L43.1607 183.2L65.2523 161.108L87.3213 139.039L65.2523 116.948L43.1607 94.856Z" fill="#51BB96"/>
<path d="M160.199 83.731H107.921V139.537H160.199V83.731Z" fill="#2477FF"/>
<path d="M107.92 0H97.7451V83.912H107.92V0Z" fill="#2477FF"/>
<path d="M160.221 138.225H41.7361V139.559H160.221V138.225Z" fill="#1257B8"/>
<path d="M99.0792 18.4736H97.7451V158.938H99.0792V18.4736Z" fill="#1257B8"/>
<path d="M160.221 83.731H79.1812V85.0651H160.221V83.731Z" fill="#1257B8"/>
<path fill-rule="evenodd" clip-rule="evenodd" d="M18.5591 84.9749L17.2702 83.686L15.9587 82.3745L14.6473 83.686L13.3584 84.9749L14.6473 86.2863L15.9587 87.5978L17.2702 86.2863L18.5591 84.9749Z" fill="#1257B8"/>
<path fill-rule="evenodd" clip-rule="evenodd" d="M18.5591 98.3611L17.2702 97.0496L15.9587 95.7607L14.6473 97.0496L13.3584 98.3611L14.6473 99.6726L15.9587 100.961L17.2702 99.6726L18.5591 98.3611Z" fill="#1257B8"/>
<path fill-rule="evenodd" clip-rule="evenodd" d="M18.5591 111.747L17.2702 110.435L15.9587 109.124L14.6473 110.435L13.3584 111.747L14.6473 113.036L15.9587 114.347L17.2702 113.036L18.5591 111.747Z" fill="#1257B8"/>
<path fill-rule="evenodd" clip-rule="evenodd" d="M18.5591 125.111L17.2702 123.822L15.9587 122.51L14.6473 123.822L13.3584 125.111L14.6473 126.422L15.9587 127.711L17.2702 126.422L18.5591 125.111Z" fill="#1257B8"/>
<path fill-rule="evenodd" clip-rule="evenodd" d="M18.5591 138.496L17.2702 137.185L15.9587 135.874L14.6473 137.185L13.3584 138.496L14.6473 139.785L15.9587 141.097L17.2702 139.785L18.5591 138.496Z" fill="#1257B8"/>
<path fill-rule="evenodd" clip-rule="evenodd" d="M29.5484 84.9749L28.2369 83.686L26.948 82.3745L25.6366 83.686L24.3251 84.9749L25.6366 86.2863L26.948 87.5978L28.2369 86.2863L29.5484 84.9749Z" fill="#1257B8"/>
<path fill-rule="evenodd" clip-rule="evenodd" d="M29.5484 98.3611L28.2369 97.0496L26.948 95.7607L25.6366 97.0496L24.3251 98.3611L25.6366 99.6726L26.948 100.961L28.2369 99.6726L29.5484 98.3611Z" fill="#1257B8"/>
<path fill-rule="evenodd" clip-rule="evenodd" d="M29.5484 111.747L28.2369 110.435L26.948 109.124L25.6366 110.435L24.3251 111.747L25.6366 113.036L26.948 114.347L28.2369 113.036L29.5484 111.747Z" fill="#1257B8"/>
<path fill-rule="evenodd" clip-rule="evenodd" d="M29.5484 125.111L28.2369 123.822L26.948 122.51L25.6366 123.822L24.3251 125.111L25.6366 126.422L26.948 127.711L28.2369 126.422L29.5484 125.111Z" fill="#1257B8"/>
<path fill-rule="evenodd" clip-rule="evenodd" d="M29.5484 138.496L28.2369 137.185L26.948 135.874L25.6366 137.185L24.3251 138.496L25.6366 139.785L26.948 141.097L28.2369 139.785L29.5484 138.496Z" fill="#1257B8"/>
</svg>
