<svg width="196" height="124" viewBox="0 0 196 124" fill="none" xmlns="http://www.w3.org/2000/svg">
<path fill-rule="evenodd" clip-rule="evenodd" d="M70.1232 31.4673L54.9104 46.6802L39.6975 61.893L54.9104 77.0832L70.1232 92.2961L85.3361 77.0832L100.549 61.893L85.3361 46.6802L70.1232 31.4673Z" fill="#51BB96"/>
<path fill-rule="evenodd" clip-rule="evenodd" d="M118.229 0L110.623 7.60643L103.017 15.2129L110.623 22.8193L118.229 30.4257L125.836 22.8193L133.442 15.2129L125.836 7.60643L118.229 0Z" fill="#51BB96"/>
<path d="M69.9648 83.8066H-14.0002V123.288H69.9648V83.8066Z" fill="#2477FF"/>
<path d="M92.105 71.084H69.4442V83.8293H92.105V71.084Z" fill="#2477FF"/>
<path d="M195.312 71.084H2.27661V72.4196H195.312V71.084Z" fill="#2477FF"/>
<path d="M70.7799 46.5439H69.4442V123.31H70.7799V46.5439Z" fill="#2477FF"/>
<path d="M195.313 82.4937H73.3153V83.8293H195.313V82.4937Z" fill="#2477FF"/>
<path fill-rule="evenodd" clip-rule="evenodd" d="M10.3175 30.6753L9.00449 31.9657L7.71411 33.2787L9.00449 34.5691L10.3175 35.8821L11.6305 34.5691L12.9209 33.2787L11.6305 31.9657L10.3175 30.6753Z" fill="#2477FF"/>
<path fill-rule="evenodd" clip-rule="evenodd" d="M23.6968 30.6753L22.4064 31.9657L21.0934 33.2787L22.4064 34.5691L23.6968 35.8821L25.0098 34.5691L26.3228 33.2787L25.0098 31.9657L23.6968 30.6753Z" fill="#2477FF"/>
<path fill-rule="evenodd" clip-rule="evenodd" d="M37.0984 30.6753L35.7854 31.9657L34.495 33.2787L35.7854 34.5691L37.0984 35.8821L38.4114 34.5691L39.7018 33.2787L38.4114 31.9657L37.0984 30.6753Z" fill="#2477FF"/>
<path fill-rule="evenodd" clip-rule="evenodd" d="M10.3175 19.6729L9.00449 20.9632L7.71411 22.2762L9.00449 23.5893L10.3175 24.8796L11.6305 23.5893L12.9209 22.2762L11.6305 20.9632L10.3175 19.6729Z" fill="#2477FF"/>
<path fill-rule="evenodd" clip-rule="evenodd" d="M23.6968 19.6729L22.4064 20.9632L21.0934 22.2762L22.4064 23.5893L23.6968 24.8796L25.0098 23.5893L26.3228 22.2762L25.0098 20.9632L23.6968 19.6729Z" fill="#2477FF"/>
<path fill-rule="evenodd" clip-rule="evenodd" d="M37.0984 19.6729L35.7854 20.9632L34.495 22.2762L35.7854 23.5893L37.0984 24.8796L38.4114 23.5893L39.7018 22.2762L38.4114 20.9632L37.0984 19.6729Z" fill="#2477FF"/>
</svg>
