<svg width="33" height="17" viewBox="0 0 33 17" fill="none" xmlns="http://www.w3.org/2000/svg">
<path d="M11.783 4.86473C11.783 2.15412 13.8849 0 16.5131 0C19.1605 0 21.2697 2.15384 21.2697 4.86473C21.1066 7.6727 19.0711 9.70376 16.5131 9.74327C13.888 9.74327 11.783 7.55544 11.783 4.86473V4.86473ZM5.57215 10.0204C7.30263 10.0204 8.68542 8.61197 8.68542 6.84679C8.68542 5.06002 7.30263 3.6452 5.57215 3.6452C3.84167 3.6452 2.45889 5.05995 2.45889 6.84679C2.48682 8.79153 3.82516 9.91009 5.57215 10.0204ZM27.4279 10.0204C29.1583 10.0204 30.5411 8.61197 30.5411 6.84679C30.5411 5.06002 29.1583 3.6452 27.4279 3.6452C25.6974 3.6452 24.328 5.05995 24.328 6.84679C24.354 8.6582 25.6125 9.97863 27.4279 10.0204ZM20.6148 9.33639C19.4985 10.2785 18.0635 10.8471 16.5129 10.8471C14.9659 10.8471 13.5524 10.2674 12.4377 9.32258V9.32286C10.0345 10.5058 8.29554 12.7372 8.29554 16.2941V17H24.7438V16.2941C24.7438 12.7507 23.0047 10.5138 20.615 9.33638L20.6148 9.33639ZM9.08567 10.4867C8.89631 10.3504 8.70723 10.211 8.49776 10.0987C7.68389 10.7398 6.66725 11.1243 5.5716 11.1243C4.48239 11.1243 3.47019 10.7467 2.65889 10.1125C1.10265 10.9287 0 12.3822 0 14.7416V16.9867C0.00642372 16.9911 0.0128466 16.9952 0.01927 16.9997H7.25565V16.2938C7.25565 13.9513 7.96561 12.005 9.08587 10.4867L9.08567 10.4867ZM32.9998 16.9729V14.7416C32.9998 12.3731 31.893 10.9083 30.3409 10.0987C29.5288 10.7343 28.5186 11.1243 27.4282 11.1243C26.3339 11.1243 25.3288 10.7384 24.5155 10.0987C24.3069 10.2099 24.1044 10.3385 23.9142 10.4729C25.0406 11.9931 25.7447 13.9481 25.7447 16.2939V16.9997H32.9603C32.9735 16.9906 32.9866 16.982 33 16.9729L32.9998 16.9729Z" fill="#FFB642"/>
</svg>
