<svg width="26" height="26" viewBox="0 0 26 26" fill="none" xmlns="http://www.w3.org/2000/svg">
<path fill-rule="evenodd" clip-rule="evenodd" d="M21.9656 0H8.52036L8.4974 0.000481589C8.42736 0.00361196 8.36157 0.0228753 8.30336 0.0551419L8.30123 0.0565867C8.26455 0.0770541 8.23094 0.102578 8.20042 0.133641L2.82103 5.60739C2.73229 5.69768 2.68661 5.82001 2.68969 5.94305V14.5984C2.62391 14.6049 2.56025 14.6254 2.50275 14.6596L0.22055 16.028C0.0837706 16.1101 0 16.2596 0 16.4212C0 16.5828 0.0837706 16.7323 0.22055 16.8144L2.50275 18.1828C2.57184 18.2238 2.65018 18.2457 2.7304 18.2457H22.4137V20.2426C21.8067 19.5749 20.9434 19.1578 19.9871 19.1578H6.27528C6.02775 19.1578 5.82708 19.3623 5.82708 19.6139C5.82708 19.8657 6.02799 20.0699 6.27528 20.0699C7.61611 20.0699 8.70183 21.1957 8.70183 22.5788C8.70183 23.9248 7.67384 25.0269 6.3825 25.0852C4.84266 25.0272 3.5861 23.9448 3.5861 22.5788V19.1578C3.5861 18.9059 3.38519 18.7017 3.1379 18.7017C2.89037 18.7017 2.6897 18.9062 2.6897 19.1578V22.5788C2.6897 24.3778 4.26122 25.8834 6.27553 25.9935V26H19.9874C21.8194 26 23.3105 24.4688 23.3105 22.579V18.2457H24.1823C25.1879 18.2457 26 17.426 26 16.4212C26 15.4163 25.1876 14.5967 24.1823 14.5967H23.3105V1.36861C23.3105 0.612737 22.7085 0.00018718 21.9657 0.00018718L21.9656 0ZM4.93095 15.5089H2.85273L2.0919 15.9649H3.58606C3.83359 15.9649 4.03426 16.1693 4.03426 16.421C4.03426 16.6728 3.83335 16.877 3.58606 16.877H2.0919L2.85273 17.3331H4.93095V15.5086V15.5089ZM5.82761 17.3334H21.0691V15.5089H5.82761V17.3334ZM21.9657 15.5089H24.1823C24.6885 15.5089 25.1036 15.9153 25.1036 16.4212C25.1036 16.9272 24.6885 17.3336 24.1823 17.3336H21.9657V15.5089ZM5.82761 13.228H19.7242C19.9717 13.228 20.1724 13.0236 20.1724 12.772C20.1724 12.5201 19.9715 12.3159 19.7242 12.3159H5.82761C5.58008 12.3159 5.37941 12.5204 5.37941 12.772C5.37941 13.0239 5.58032 13.228 5.82761 13.228ZM5.82761 10.9472H19.7242C19.9717 10.9472 20.1724 10.7428 20.1724 10.4912C20.1724 10.2393 19.9715 10.0351 19.7242 10.0351H5.82761C5.58008 10.0351 5.37941 10.2396 5.37941 10.4912C5.37941 10.7431 5.58032 10.9472 5.82761 10.9472ZM5.82761 8.66644H19.7242C19.9717 8.66644 20.1724 8.46201 20.1724 8.21038C20.1724 7.95851 19.9715 7.75432 19.7242 7.75432H5.82761C5.58008 7.75432 5.37941 7.95875 5.37941 8.21038C5.37941 8.46225 5.58032 8.66644 5.82761 8.66644ZM11.207 6.38564H19.724C19.9716 6.38564 20.1722 6.1812 20.1722 5.92957C20.1722 5.6777 19.9713 5.47351 19.724 5.47351H11.207C10.9595 5.47351 10.7588 5.67794 10.7588 5.92957C10.7588 6.18144 10.9597 6.38564 11.207 6.38564ZM8.06909 1.55699V5.01722C8.06909 5.26908 7.86818 5.47328 7.62089 5.47328H4.22032L8.06931 1.55677L8.06909 1.55699ZM11.207 4.10508H19.724C19.9716 4.10508 20.1722 3.90064 20.1722 3.64902C20.1722 3.39715 19.9713 3.19295 19.724 3.19295H11.207C10.9595 3.19295 10.7588 3.39739 10.7588 3.64902C10.7588 3.90088 10.9597 4.10508 11.207 4.10508Z" fill="#66C371"/>
</svg>
