<svg width="40" height="23" viewBox="0 0 40 23" fill="none" xmlns="http://www.w3.org/2000/svg">
<path d="M12.4109 18.7601L14.8448 16.7511H14.8444C15.3303 16.3504 15.3988 15.6316 14.9981 15.1458C14.597 14.6603 13.8782 14.5914 13.3927 14.9925L10.9592 17.0014C10.4816 17.4042 10.4173 18.1167 10.8149 18.5988C11.2129 19.0808 11.9243 19.1528 12.411 18.76L12.4109 18.7601Z" fill="#7165FC"/>
<path d="M15.3168 17.2373L13.4128 18.8091C12.9353 19.212 12.8709 19.9245 13.2685 20.4065C13.6665 20.8886 14.3779 20.9606 14.8646 20.5678L16.7686 18.996V18.9964C17.2472 18.5935 17.3119 17.8803 16.9136 17.3979C16.5156 16.9155 15.8031 16.8439 15.3169 17.2373L15.3168 17.2373Z" fill="#7165FC"/>
<path d="M32.3424 0.587402L27.335 4.08783L34.6081 14.4929L39.6156 10.9925L32.3424 0.587402Z" fill="#7165FC"/>
<path d="M7.04414 0L0.00146484 11.5895L5.22075 14.7609L12.2631 3.17131L7.04414 0Z" fill="#7165FC"/>
<path d="M0.930664 11.3625L7.27081 0.928223L11.3353 3.39771L4.9948 13.832L0.930664 11.3625Z" fill="#7165FC"/>
<path d="M26.5602 19.4857C26.6193 19.9408 26.5044 20.4011 26.238 20.7748C25.9715 21.1482 25.5739 21.4071 25.1244 21.4995C24.6749 21.5915 24.2073 21.5102 23.8153 21.2718C23.8253 21.6922 23.6779 22.1016 23.4021 22.4193C23.1263 22.7366 22.7414 22.9398 22.3237 22.9886C21.9057 23.0374 21.4845 22.9284 21.143 22.683L18.8991 21.0711L17.7665 22.0062C17.2803 22.3986 16.5685 22.3266 16.1708 21.8445C15.7728 21.3625 15.8372 20.6503 16.3147 20.2472L17.5768 19.2055C17.9862 18.8681 18.5742 18.8574 18.9957 19.1799C19.4169 19.5024 19.5601 20.0731 19.3411 20.5562L21.5372 22.1341C21.9912 22.4529 22.6172 22.347 22.9408 21.8964C23.2644 21.4458 23.1651 20.8188 22.7183 20.4904L19.5197 18.1919C19.3719 18.0818 19.3398 17.8735 19.447 17.724C19.5546 17.5741 19.7623 17.5381 19.9139 17.643L24.094 20.6464C24.6054 21.0102 25.3145 20.8921 25.6806 20.3824C26.0468 19.8726 25.9322 19.1628 25.4246 18.7943L20.9801 15.6008C20.8285 15.4918 20.7939 15.2807 20.9029 15.1292C21.0116 14.9776 21.2227 14.943 21.3743 15.052L26.4105 18.6704H26.4109C26.9223 19.0341 27.6314 18.9161 27.9975 18.4064C28.3637 17.8966 28.2491 17.1872 27.7414 16.8183L22.4066 12.9849C22.2588 12.8749 22.2263 12.6669 22.3339 12.5171C22.4415 12.3672 22.6491 12.3316 22.8004 12.4364L28.3273 16.4075C28.8025 16.749 29.4631 16.6511 29.8185 16.186C30.1739 15.7209 30.095 15.0579 29.6406 14.689L22.2523 8.69069C20.6224 9.48179 18.7584 9.6458 17.0154 9.15129C16.5388 9.01564 16.2045 8.58791 16.1879 8.09271C16.1713 7.59751 16.4765 7.14833 16.9427 6.98116C17.8784 6.64478 18.7761 6.21014 19.6202 5.6848C18.5522 5.53634 17.4646 5.62597 16.4351 5.94711C14.9847 6.07758 13.5278 6.12567 12.0719 6.09107L7.64855 13.3712L9.27083 14.5623L10.3021 13.7113C10.7887 13.3189 11.5002 13.3909 11.8982 13.8729C12.2958 14.3546 12.2314 15.0671 11.7539 15.4703L10.4077 16.5815C9.96409 16.948 9.31665 16.9262 8.89858 16.531C8.48019 16.1358 8.42171 15.4911 8.76258 15.0273L6.74951 13.5493L11.6989 5.40408H11.6985C13.235 5.45633 14.7733 5.4148 16.3046 5.27984C17.6507 4.87357 19.0807 4.82997 20.4493 5.15319C21.1864 4.75625 22.0571 4.6905 22.8454 4.97219L25.9213 6.0709L27.4965 5.49471L32.9397 13.2815L30.7065 15.3312V15.3309C30.7657 15.85 30.5903 16.3687 30.2283 16.7459C29.8663 17.1232 29.3552 17.3197 28.834 17.282C28.9437 17.6993 28.9015 18.1419 28.7146 18.5309C28.5278 18.9199 28.2083 19.2296 27.8138 19.4048C27.4193 19.5795 26.9753 19.6082 26.5618 19.4857L26.5602 19.4857Z" fill="#7165FC"/>
</svg>
