<svg width="29" height="29" viewBox="0 0 29 29" fill="none" xmlns="http://www.w3.org/2000/svg">
<path fill-rule="evenodd" clip-rule="evenodd" d="M15.9645 6.50912C21.1787 6.50912 25.3952 10.7302 25.3952 15.9503C25.3952 21.1703 21.1788 25.3914 15.9645 25.3914C10.7502 25.3914 6.53376 21.1703 6.53376 15.9503C6.53376 10.7302 10.7502 6.50912 15.9645 6.50912ZM15.9645 18.4956C17.3806 18.4956 18.5073 17.3679 18.5073 15.95C18.5073 15.499 18.4107 15.1123 18.1855 14.7256L20.7926 12.1156C21.0822 11.8257 21.0822 11.3746 20.7926 11.0844C20.5029 10.7945 20.0524 10.7945 19.7625 11.0844L17.1233 13.7265C16.7692 13.5333 16.3508 13.4366 15.9324 13.4366C14.5163 13.4366 13.3896 14.5642 13.3896 15.9822C13.4217 17.3677 14.5805 18.4956 15.9645 18.4956L15.9645 18.4956ZM15.9645 14.8866C16.5759 14.8866 17.0589 15.3701 17.0589 15.9822C17.0589 16.5943 16.5759 17.0777 15.9645 17.0777C15.3531 17.0777 14.8701 16.5943 14.8701 15.9822C14.8701 15.3701 15.3852 14.8866 15.9645 14.8866ZM26.3284 8.02347C28.002 10.2145 29 12.9534 29 15.9501C29 23.1677 23.1742 29 15.9644 29C10.557 29 5.92201 25.7134 3.9592 21.0088H6.37329C8.20779 24.4565 11.8128 26.8089 15.9971 26.8089C21.9838 26.8089 26.8761 21.9432 26.8761 15.9178C26.8758 9.89231 21.9835 5.05873 15.9644 5.05873C12.1021 5.05873 8.6902 7.08875 6.75865 10.1497H4.28033C6.27597 6.15423 10.2349 3.31855 14.8699 2.93209V2.15868H13.0674C12.456 2.15868 11.9731 1.67523 11.9731 1.06311C11.9731 0.450999 12.4557 0 13.0674 0H18.8611C19.4726 0 19.9555 0.483454 19.9555 1.09557C19.9555 1.70766 19.4726 2.19114 18.8611 2.19114H17.0587V2.96454C19.0544 3.1256 20.921 3.73795 22.5949 4.70458L23.0454 4.15681C23.5605 3.54472 24.4615 3.48014 25.0411 3.96359L26.6825 5.34908C27.294 5.86469 27.3585 6.76674 26.8434 7.3791L26.3284 8.02347ZM3.28302 12.6956H0.740201C0.321798 12.6956 0 12.3735 0 11.9546C0 11.5679 0.321771 11.2457 0.740201 11.2457H3.28302C3.70142 11.2457 4.02322 11.5679 4.02322 11.9868C4.02322 12.3735 3.70145 12.6956 3.28302 12.6956ZM1.83456 15.5955C1.83456 15.2088 2.15633 14.8867 2.57476 14.8867H5.11758C5.53599 14.8867 5.85778 15.2088 5.85778 15.5955C5.85778 15.9822 5.53601 16.3043 5.11758 16.3043H2.57476C2.15636 16.3046 1.83456 15.9822 1.83456 15.5955ZM0.772348 18.1089H3.31517C3.73357 18.1089 4.05537 18.4311 4.05537 18.85C4.05537 19.2367 3.7336 19.591 3.31517 19.591L0.772348 19.5912C0.353946 19.5912 0.0321476 19.2691 0.0321476 18.8502C0.0321476 18.4633 0.353919 18.1089 0.772348 18.1089V18.1089Z" fill="#FF828A"/>
</svg>
