<svg width="30" height="27" viewBox="0 0 30 27" fill="none" xmlns="http://www.w3.org/2000/svg">
<path d="M24.7071 1.38299C24.7071 0.628503 24.0783 0 23.3241 0H1.38323C0.628747 0 0.000244141 0.628749 0.000244141 1.38299V4.77793H24.7069L24.7071 1.38299ZM11.316 2.82896H3.39479C3.14328 2.82896 2.89179 2.57746 2.89179 2.32597C2.89179 2.07447 3.14329 1.82297 3.39479 1.82297H11.316C11.5675 1.82297 11.819 2.01146 11.819 2.32597C11.7559 2.64047 11.5672 2.82896 11.3157 2.82896H11.316ZM15.9054 3.20621C15.4655 3.20621 15.151 2.89196 15.151 2.45173C15.151 2.01173 15.4652 1.69724 15.9054 1.69724C16.3454 1.69724 16.6599 2.01149 16.6599 2.45173C16.6599 2.82897 16.3454 3.20621 15.9054 3.20621ZM18.3572 3.20621C17.9172 3.20621 17.6027 2.89196 17.6027 2.45173C17.6027 2.01173 17.917 1.69724 18.3572 1.69724C18.7972 1.69724 19.1117 2.01149 19.1117 2.45173C19.1117 2.82897 18.7974 3.20621 18.3572 3.20621ZM20.8092 3.20621C20.3692 3.20621 20.0547 2.89196 20.0547 2.45173C20.0547 2.01173 20.3689 1.69724 20.8092 1.69724C21.2491 1.69724 21.5636 2.01149 21.5636 2.45173C21.5636 2.82897 21.1864 3.20621 20.8092 3.20621Z" fill="#7165FC"/>
<path d="M14.4595 21.8151C14.0195 21.6266 13.6423 21.2494 13.6423 20.7464V18.1689C13.6423 17.6659 13.9566 17.2259 14.4595 17.1001C14.9625 16.9744 15.2767 16.5344 15.2767 16.0314C15.2767 15.8429 15.214 15.6541 15.151 15.4656C15.0252 15.2771 15.0252 15.0884 15.0252 14.8999C15.0252 14.5856 15.151 14.3342 15.3395 14.1454L17.1627 12.3222C17.54 11.9449 18.043 11.8822 18.483 12.1337C19.1117 12.5109 19.929 12.1337 20.1175 11.4422C20.2432 10.9392 20.6832 10.625 21.1862 10.625H23.701C24.204 10.625 24.644 10.9392 24.7698 11.4422V5.6582H0V21.249C0 22.0035 0.628749 22.632 1.38299 22.632H15.2766C15.2138 22.255 14.8993 21.9405 14.4594 21.8148L14.4595 21.8151ZM11.4418 18.1059H2.20043C1.69744 18.1059 1.32017 17.7287 1.32017 17.2257C1.32017 16.7226 1.69742 16.2827 2.20043 16.2827H11.4418C11.9448 16.2827 12.3221 16.7227 12.3221 17.2257C12.3218 17.6659 11.9446 18.1059 11.4415 18.1059H11.4418ZM11.4418 13.831H2.20043C1.69744 13.831 1.32017 13.391 1.32017 12.9507C1.32017 12.4477 1.69742 12.0077 2.20043 12.0077H11.4418C11.9448 12.0077 12.3221 12.385 12.3221 12.9507C12.3218 13.391 11.9446 13.831 11.4415 13.831H11.4418ZM11.4418 9.55604H2.20043C1.69744 9.55604 1.32017 9.11605 1.32017 8.61305C1.32017 8.11005 1.69742 7.73279 2.20043 7.73279H11.4418C11.9448 7.73279 12.3221 8.17278 12.3221 8.61305C12.3218 9.17879 11.9446 9.55604 11.4415 9.55604H11.4418Z" fill="#7165FC"/>
<path d="M29.7995 20.6212V18.358L27.7248 17.7922C27.599 17.478 27.4733 17.1635 27.3475 16.8493L28.4163 15.026L26.7818 13.3915L24.9586 14.4603C24.7071 14.3345 24.3298 14.1461 24.0156 14.083L23.5126 12.0083H21.1866L20.6836 14.083C20.3694 14.1458 20.0549 14.3345 19.7406 14.4603L17.9174 13.3915L16.2829 15.026L17.3517 16.8493C17.1632 17.1635 17.0374 17.478 16.9744 17.7922L14.8997 18.2952V20.5585L16.9114 21.1242C17.0372 21.4385 17.1629 21.753 17.2887 22.0672C17.2259 22.13 16.1569 24.0162 16.2199 23.8905L17.8544 25.5249L19.6776 24.4562C19.9919 24.6447 20.3064 24.7704 20.6206 24.8334L21.1236 26.9082H23.3869L23.8899 24.8334C24.2041 24.7077 24.5186 24.5819 24.8328 24.4562L26.6561 25.5249L28.2906 23.8905L27.2218 22.0672C27.4103 21.753 27.536 21.4385 27.599 21.1242L29.7995 20.6212ZM22.3808 23.639C20.1175 23.639 18.1686 21.8157 18.1686 19.4268C18.1686 17.1005 20.0546 15.2145 22.3808 15.2145C24.707 15.2145 26.593 17.1005 26.593 19.4268C26.53 21.753 24.7068 23.639 22.3808 23.639Z" fill="#7165FC"/>
</svg>
