<svg width="30" height="30" viewBox="0 0 30 30" fill="none" xmlns="http://www.w3.org/2000/svg">
<path d="M25.7082 12.8541C25.7082 5.76644 19.9418 0 12.8541 0C5.76644 0 0 5.76673 0 12.8541C0 19.9415 5.76644 25.7082 12.8541 25.7082C19.9418 25.7082 25.7082 19.9415 25.7082 12.8541ZM12.8541 23.5665C6.94748 23.5665 2.14247 18.761 2.14247 12.8541C2.14247 6.94748 6.94762 2.14247 12.8541 2.14247C18.7608 2.14247 23.5658 6.94762 23.5658 12.8541C23.566 18.7608 18.7606 23.5665 12.8541 23.5665Z" fill="#FF828A"/>
<path d="M29.0148 24.2862L24.7627 20.0347C23.5918 21.9689 21.9684 23.5926 20.0342 24.7635L24.2857 29.0144C24.9173 29.6457 25.7568 29.9935 26.6502 29.9935C27.5431 29.9935 28.3829 29.6457 29.0153 29.0144C30.3185 27.7107 30.3185 25.5896 29.0148 24.2862H29.0148Z" fill="#FF828A"/>
<path d="M14.9961 22.2477C15.7482 22.077 16.4646 21.8163 17.1384 21.4809L17.1387 18.21H14.9964L14.9961 22.2477Z" fill="#FF828A"/>
<path d="M11.7822 22.4321C12.1345 22.4708 12.4911 22.4948 12.8535 22.4948C13.216 22.4948 13.5725 22.4711 13.9248 22.4321V10.7114H11.7825L11.7822 22.4321Z" fill="#FF828A"/>
<path d="M12.8535 3.21387C7.52905 3.21387 3.2124 7.53016 3.2124 12.855C3.2124 16.1973 4.91422 19.1406 7.49728 20.8697V14.4615C7.49728 14.1655 7.73676 13.926 8.03278 13.926H10.7109V10.1769C10.7109 9.88085 10.9504 9.64138 11.2464 9.64138H14.4599C14.756 9.64138 14.9954 9.88085 14.9954 10.1769V17.1396H17.6735C17.9696 17.1396 18.209 17.379 18.209 17.6751V20.8697C20.7922 19.1402 22.4939 16.1969 22.4939 12.855C22.4939 7.53052 18.1776 3.21387 12.8528 3.21387H12.8535ZM18.7452 14.9207V15.5326C18.7452 15.8286 18.5057 16.0681 18.2097 16.0681C17.9137 16.0681 17.6742 15.8286 17.6742 15.5326V14.921C16.7525 14.6813 16.0671 13.85 16.0671 12.8545C16.0671 12.5585 16.3066 12.319 16.6026 12.319C16.8986 12.319 17.1384 12.5585 17.1384 12.8545C17.1384 13.4451 17.6191 13.9258 18.2097 13.9258C18.8004 13.9258 19.281 13.4451 19.281 12.8545C19.281 12.2638 18.8004 11.7832 18.2097 11.7832C17.0282 11.7832 16.0674 10.8225 16.0674 9.64085C16.0674 8.64532 16.7527 7.8141 17.6742 7.57459L17.6739 6.96303C17.6739 6.66672 17.9134 6.42724 18.2094 6.42724C18.5054 6.42724 18.7449 6.66672 18.7449 6.96275V7.57431C19.6666 7.81407 20.352 8.64533 20.352 9.64085C20.352 9.93688 20.1125 10.1764 19.8165 10.1764C19.5201 10.1764 19.2807 9.93688 19.2807 9.64085C19.2807 9.05021 18.8 8.56954 18.2094 8.56954C17.6187 8.56954 17.1381 9.0502 17.1381 9.64085C17.1381 10.2315 17.6187 10.7122 18.2094 10.7122C19.3909 10.7122 20.3517 11.6729 20.3517 12.8545C20.352 13.85 19.6666 14.6812 18.7452 14.9207H18.7452Z" fill="#FF828A"/>
<path d="M8.56836 21.4814C9.24212 21.8167 9.95858 22.0774 10.7107 22.2482L10.711 14.9971H8.56864L8.56836 21.4814Z" fill="#FF828A"/>
</svg>
