<svg width="29" height="29" viewBox="0 0 29 29" fill="none" xmlns="http://www.w3.org/2000/svg">
<path fill-rule="evenodd" clip-rule="evenodd" d="M18.1651 3.15686V2.04629C18.1651 0.92068 17.2445 0 16.1189 0H10.0097C8.88406 0 7.9634 0.920946 7.9634 2.04629V3.15686H9.77483V2.04629C9.77483 1.92094 9.88432 1.81144 10.0097 1.81144H16.1189C16.2442 1.81144 16.3537 1.92094 16.3537 2.04629V3.15686H18.1651ZM1.1647 13.0861V20.5251C1.1647 21.5769 2.0253 22.4375 3.07706 22.4375H15.5807V21.1171L17.6186 20.791C17.654 20.6984 17.6922 20.6068 17.7325 20.5163L16.5221 18.8445L18.8438 16.5228L20.5156 17.7332C20.6063 17.6929 20.6979 17.6547 20.7902 17.6193L21.1163 15.5816H24.3998L24.7259 17.6193C24.806 17.6503 24.8856 17.6828 24.9641 17.7171V13.0864C24.9327 13.1072 24.9012 13.1272 24.8692 13.1475C23.1878 14.2112 19.8456 14.857 16.1473 15.0856C15.8916 16.5571 14.6084 17.676 13.0641 17.676C11.5197 17.676 10.2365 16.5568 9.98082 15.0856C6.28306 14.8572 2.94137 14.2112 1.25891 13.1469C1.22718 13.1269 1.19545 13.1066 1.16398 13.0863L1.1647 13.0861ZM24.369 12.3557C22.8356 13.3261 19.6829 13.9222 16.1677 14.1409C15.9693 12.6041 14.6551 11.416 13.0643 11.416C11.4726 11.416 10.1582 12.6051 9.96052 14.1424C6.45104 13.9253 3.30123 13.3312 1.75992 12.3557C1.54978 12.2228 1.34925 12.081 1.16434 11.9291C0.476709 11.3645 0 10.6594 0 9.73376L0.000260076 5.07231C0.000260076 4.53264 0.440311 4.09257 0.979978 4.09257H5.77424V7.2786C5.77424 7.7457 5.96513 8.16992 6.27228 8.47705C6.57944 8.78419 7.00359 8.97511 7.47072 8.97511H18.6581C19.1252 8.97511 19.5494 8.78421 19.8565 8.47705C20.1636 8.1699 20.3546 7.74573 20.3546 7.2786V4.09257H25.1488C25.6885 4.09257 26.1285 4.53263 26.1285 5.07231L26.1288 9.73403C26.1288 10.6596 25.6523 11.3647 24.9642 11.9294C24.7793 12.081 24.5793 12.2228 24.3689 12.3557L24.369 12.3557ZM19.4187 4.09239H6.70997V7.27841C6.70997 7.487 6.7958 7.67712 6.93364 7.81522C7.07148 7.95306 7.26185 8.03889 7.47044 8.03889H18.6578C18.8664 8.03889 19.0565 7.95306 19.1946 7.81522C19.3324 7.67738 19.4183 7.487 19.4183 7.27841L19.418 4.09239H19.4187ZM10.8712 14.5456C10.8712 13.3377 11.8493 12.3518 13.0649 12.3518C14.2803 12.3518 15.2586 13.3378 15.2586 14.5456C15.2586 15.7573 14.2766 16.7393 13.0649 16.7393C11.8532 16.7391 10.8712 15.757 10.8712 14.5456ZM23.8928 18.3337C24.3167 18.4421 24.717 18.6099 25.084 18.8276L26.575 17.748L27.7683 18.9412L26.6887 20.4323C26.9064 20.7995 27.0744 21.1995 27.1826 21.6235L29 21.9145V23.6017L27.1831 23.8927C27.0747 24.3167 26.9069 24.7169 26.6892 25.0839L27.7688 26.575L26.5756 27.7683L25.0845 26.6887C24.7173 26.9063 24.3173 27.0744 23.8933 27.1825L23.6023 29H21.9152L21.6242 27.1831C21.2002 27.0746 20.8 26.9069 20.433 26.6892L18.9419 27.7688L17.7487 26.5755L18.8283 25.0845C18.6106 24.7172 18.4431 24.3172 18.3344 23.8933L16.517 23.6022V21.9151L18.3344 21.624C18.4429 21.2001 18.6106 20.7998 18.8283 20.4328L17.7487 18.9418L18.9419 17.7485L20.433 18.8281C20.8002 18.6104 21.2002 18.4424 21.6242 18.3342L21.9152 16.5173H23.6023L23.8928 18.3337ZM22.4341 19.8047C23.8858 19.8047 25.0629 20.9816 25.0629 22.4333C25.0629 23.8851 23.886 25.0619 22.4341 25.0619C20.9823 25.0619 19.8055 23.8851 19.8055 22.4333C19.805 20.9815 20.9818 19.8047 22.4341 19.8047Z" fill="#F99313"/>
</svg>
