<svg width="26" height="29" viewBox="0 0 26 29" fill="none" xmlns="http://www.w3.org/2000/svg">
<path d="M24.9955 3.7182L12.7604 0L0.52537 3.7182C0.52537 3.7182 -3.86902 24.6059 12.7604 29C29.3896 24.6059 24.9955 3.7182 24.9955 3.7182ZM12.7604 21.7444C8.51423 21.7444 5.07184 18.3024 5.07184 14.0558C5.07184 9.80994 8.51415 6.36726 12.7604 6.36726C17.0063 6.36726 20.449 9.80928 20.449 14.0558C20.449 18.302 17.0064 21.7444 12.7604 21.7444Z" fill="#00ADEE"/>
<path d="M17.0534 10.8257L10.8901 16.9889L8.01016 14.1092C7.78752 13.886 7.42552 13.886 7.20263 14.1092C6.97998 14.3318 6.97998 14.6935 7.20263 14.9162L10.4861 18.1997C10.598 18.3116 10.7437 18.3668 10.8896 18.3668C11.0356 18.3668 11.1818 18.3113 11.2931 18.1997L17.861 11.6329C18.0836 11.4103 18.0836 11.0486 17.861 10.8259C17.638 10.6033 17.2763 10.6027 17.0534 10.8256L17.0534 10.8257Z" fill="#00ADEE"/>
</svg>
