<svg width="36" height="37" viewBox="0 0 36 37" fill="none" xmlns="http://www.w3.org/2000/svg">
<path d="M3.45199 36.9999H32.5488C33.4645 36.9989 34.3424 36.6304 34.9895 35.9752C35.6366 35.3197 36 34.4314 36 33.5053V14.8175C35.9997 14.526 35.8725 14.2495 35.6517 14.0618L30.8349 9.94567V2.77048C30.8349 2.03566 30.5463 1.33083 30.0325 0.811533C29.519 0.291832 28.8222 0 28.0957 0H8.09602C7.36981 0 6.67295 0.29184 6.15918 0.811533C5.64568 1.3309 5.35713 2.03566 5.35713 2.77048V9.79524L0.348252 14.0619C0.127806 14.2496 0.000322242 14.5261 0 14.8176V33.5054C0 34.4315 0.363744 35.3198 1.01085 35.9753C1.65798 36.6304 2.53555 36.999 3.45154 37L3.45199 36.9999ZM32.5455 35.021L3.45199 35.0213C3.055 35.02 2.6748 34.8601 2.39463 34.5757C2.11448 34.2917 1.95697 33.9068 1.95697 33.5053V16.7045L13.109 24.6835L5.19302 30.8098C4.76052 31.1376 4.67305 31.7579 4.9971 32.1949C5.32148 32.632 5.93474 32.7208 6.36688 32.3927L14.784 25.8786L17.5232 27.8575H17.5229C17.8618 28.1001 18.3149 28.1001 18.6539 27.8575L21.3931 25.8786L29.8135 32.381C30.2457 32.7088 30.8589 32.6203 31.183 32.1832C31.507 31.7461 31.4196 31.1259 30.9874 30.7981L23.0869 24.6835L34.0432 16.8472V33.5093V33.509C34.0422 33.9098 33.8844 34.2937 33.6042 34.5771C33.3244 34.8601 32.9445 35.0197 32.5485 35.021L32.5455 35.021ZM33.4963 14.8131L30.8352 16.7169V12.5335L33.4963 14.8131ZM8.09625 1.98184H28.1C28.3076 1.98184 28.5064 2.06541 28.6532 2.21361C28.8001 2.36214 28.8824 2.56356 28.8824 2.77346V18.1051L18.098 25.8265L7.3178 18.1051V2.76928C7.31974 2.33511 7.66735 1.98386 8.0963 1.98157L8.09625 1.98184ZM5.35702 16.716L2.58649 14.737L5.35702 12.3625V16.716ZM18.0005 20.7449H18.2509C18.7912 20.7449 19.2292 20.3019 19.2292 19.7558C19.2292 19.2093 18.7912 18.7663 18.2509 18.7663H18.0005C16.3463 18.7663 14.76 18.1017 13.59 16.9184C12.4203 15.7354 11.7632 14.1309 11.7632 12.4578C11.7632 10.7845 12.4203 9.18 13.59 7.997C14.76 6.81365 16.3463 6.14903 18.0005 6.14903C19.6549 6.14903 21.2413 6.81366 22.411 7.997C23.5806 9.18 24.2378 10.7845 24.2378 12.4578V14.1475C24.2032 14.7309 23.7259 15.1856 23.1481 15.1856C22.5707 15.1856 22.0929 14.7309 22.0584 14.1475V12.4578C22.0665 11.206 21.5107 10.0186 20.5488 9.23131C19.5866 8.44393 18.3228 8.14199 17.1141 8.41096C15.9057 8.67996 14.8838 9.49085 14.3374 10.6138C13.791 11.737 13.7797 13.0503 14.3064 14.1831C14.8332 15.3155 15.8411 16.1444 17.0447 16.4345C18.2486 16.7251 19.5177 16.4456 20.4931 15.6752C20.9362 16.4763 21.7096 17.0358 22.6023 17.201C23.495 17.3662 24.4139 17.1201 25.1088 16.5296C25.8037 15.939 26.2017 15.0654 26.1943 14.1475V12.4578C26.1943 10.2595 25.3312 8.15172 23.7946 6.5975C22.2579 5.04328 20.1735 4.1704 18.0004 4.1704C15.8272 4.1704 13.7432 5.04328 12.2066 6.5975C10.6699 8.15172 9.80652 10.2595 9.80652 12.4578C9.80652 14.6558 10.6699 16.7635 12.2066 18.3178C13.7432 19.872 15.8272 20.7449 18.0004 20.7449L18.0005 20.7449ZM18.0005 14.583C17.4434 14.583 16.9089 14.3591 16.5149 13.9605C16.1208 13.5619 15.8994 13.0213 15.8994 12.4579C15.8994 11.8941 16.1208 11.3535 16.5149 10.955C16.9089 10.5565 17.4434 10.3325 18.0005 10.3325C18.5579 10.3325 19.0924 10.5564 19.4864 10.955C19.8805 11.3536 20.1019 11.8942 20.1019 12.4579C20.1019 13.0214 19.8805 13.5619 19.4864 13.9605C19.0923 14.359 18.5579 14.583 18.0005 14.583Z" fill="#2667FF"/>
</svg>
