<svg width="41" height="41" viewBox="0 0 41 41" fill="none" xmlns="http://www.w3.org/2000/svg">
<path d="M0.136814 33.2107L1.94985 35.6279L0.0552714 40.0479C-0.0594411 40.3163 0.00801689 40.6276 0.22409 40.8235C0.352867 40.9403 0.517724 41.0006 0.6833 41.0006C0.796212 41.0006 0.909474 40.9728 1.01228 40.9158L14.6786 33.399C14.8976 33.2796 15.0332 33.0498 15.0332 32.8006C15.0332 32.5513 14.8975 32.3219 14.679 32.2021L1.01264 24.6853C0.759051 24.545 0.440891 24.5811 0.22445 24.7777C0.00837806 24.9736 -0.0590803 25.2849 0.0556321 25.5532L1.95021 29.9732L0.136804 32.3905C-0.0453671 32.6336 -0.0453671 32.968 0.136804 33.2107L0.136814 33.2107ZM3.22533 36.1203L9.64016 34.611L2.09335 38.7619L3.22533 36.1203ZM9.64016 30.99L3.22533 29.4807L2.09335 26.8395L9.64016 30.99ZM3.01146 30.8349L11.3656 32.8005L3.01146 34.7661L1.53752 32.8005L3.01146 30.8349Z" fill="#2667FF"/>
<path d="M30.0672 0C24.2692 0 19.524 4.54011 19.1685 10.2504H17.3666L15.5169 8.40064L14.5505 9.36704L15.4342 10.2505H12.6422C8.6854 10.2505 5.46704 13.4692 5.46704 17.4253C5.46704 21.3814 8.68549 24.6001 12.6422 24.6001H20.2175L22.0673 26.4499L23.0337 25.4835L22.1499 24.6001H35.1919C37.264 24.6001 38.9503 26.2862 38.9503 28.3585C38.9503 30.4308 37.2639 32.1169 35.1919 32.1169H28.9831L27.1334 30.2671L26.167 31.2335L27.0507 32.1169H16.4005V33.4837H27.0507L26.1673 34.3672L27.1337 35.3336L28.9835 33.4838H35.1919C38.0179 33.4838 40.3168 31.1848 40.3168 28.3589C40.3171 25.5327 38.0182 23.2337 35.1919 23.2337H22.1499L23.0333 22.3503L22.0669 21.3839L20.2175 23.2337H12.6422C9.43968 23.2337 6.83386 20.6281 6.83386 17.4253C6.83386 14.2225 9.43977 11.6169 12.6422 11.6169H15.4342L14.5508 12.5003L15.5172 13.4667L17.3666 11.6169H19.1685C19.5242 17.3269 24.2691 21.8674 30.0672 21.8674C36.0956 21.8674 41.0001 16.9626 41.0001 10.9345C41.0001 4.90642 36.0953 0.00164441 30.0672 0.00164441L30.0672 0ZM30.0672 20.4999C25.0228 20.4999 20.8878 16.5727 20.5352 11.6167H22.5852C22.9322 15.4418 26.1532 18.4499 30.0674 18.4499C34.2122 18.4499 37.5842 15.0778 37.5842 10.9331C37.5838 6.78874 34.2121 3.41662 30.0674 3.41662C26.1531 3.41662 22.9322 6.42471 22.5852 10.2499H20.5352C20.888 5.29384 25.0231 1.36663 30.0672 1.36663C35.3425 1.36663 39.6343 5.65823 39.6343 10.9337C39.6339 16.2086 35.3427 20.4998 30.0672 20.4998V20.4999ZM28.5002 13.4665L30.5502 11.4165C30.8171 11.1495 30.8171 10.717 30.5502 10.4501L28.5002 8.40009L27.5338 9.36649L28.4176 10.2503H23.9575C24.2988 7.17976 26.9071 4.78347 30.0671 4.78347C33.4584 4.78347 36.2172 7.54268 36.2172 10.9335C36.2172 14.3244 33.4584 17.0836 30.0671 17.0836C26.9071 17.0836 24.2987 14.6873 23.9575 11.6168H28.4176L27.5341 12.5002L28.5002 13.4665Z" fill="#2667FF"/>
<path d="M34.1674 10.934C34.1674 8.67297 32.3284 6.83398 30.0674 6.83398V8.2008C31.5748 8.2008 32.8006 9.42688 32.8006 10.9341C32.8006 12.4412 31.5749 13.6673 30.0674 13.6673V15.0341C32.328 15.0341 34.1674 13.1948 34.1674 10.9342V10.934Z" fill="#2667FF"/>
</svg>
