<svg width="42" height="36" viewBox="0 0 42 36" fill="none" xmlns="http://www.w3.org/2000/svg">
<path d="M40.8573 13.7139H29.7129V0.857218C29.7129 0.383477 29.3301 0 28.8567 0H1.42829C0.954889 0 0.571411 0.383477 0.571411 0.85688V23.1431C0.571411 23.6165 0.954889 23.9993 1.42829 23.9993H3.99964V29.1422L13.2571 23.9993H17.7146V31.7136C17.7146 32.188 18.0981 32.5725 18.5715 32.5725H32.2848L38.2863 36V32.5721H40.8577C41.3297 32.5721 41.7139 32.188 41.7139 31.7132V14.5718C41.7142 14.0987 41.3301 13.7146 40.8577 13.7146L40.8573 13.7139ZM12.8121 22.2865L12.4242 22.5013L5.71375 26.2288V22.2865H2.28521V1.71431H28.0004V22.2865L13.2567 22.2868L12.8121 22.2865ZM39.9981 30.8569H36.5702V33.0465L33.1349 31.0826L32.7409 30.857H19.4272V23.9989H28.8558C29.3292 23.9989 29.712 23.6158 29.712 23.1427V15.4284H39.9972L39.9981 30.8569Z" fill="#2667FF"/>
<path d="M15.1439 5.14258C13.8011 5.14258 12.7345 5.55015 11.9736 6.35241C10.772 7.62062 10.8537 9.39983 10.8581 9.47481L10.8595 9.47413C10.8833 9.92615 11.2562 10.2852 11.714 10.2852C12.1874 10.2852 12.5716 9.90171 12.5716 9.42831C12.5716 9.4144 12.5699 9.40082 12.5692 9.38691H12.5705C12.5699 9.37571 12.5315 8.24666 13.2265 7.52316C13.6507 7.08132 14.2961 6.857 15.1442 6.857C16.1633 6.857 16.8491 7.1044 17.2428 7.61479C17.5543 8.01795 17.7124 8.62881 17.7142 9.42971C17.7148 10.0042 17.2214 10.7417 16.3241 11.5076C15.5426 12.1751 14.739 12.6187 14.7322 12.6224L14.286 12.866L14.2846 15.4269H14.287V15.4276C14.287 15.901 14.6712 16.2844 15.1446 16.2844C15.618 16.2844 16.0014 15.901 16.0014 15.4276C16.0014 15.4106 16.0001 15.3943 15.9991 15.3773L15.9997 13.8652C17.047 13.2146 19.432 11.5046 19.4279 9.42671C19.4232 6.66363 17.9019 5.14269 15.1439 5.14269L15.1439 5.14258Z" fill="#2667FF"/>
<path d="M15.143 17.1426C14.6696 17.1426 14.2854 17.5261 14.2854 17.9995C14.2854 18.4729 14.6696 18.8563 15.143 18.8563C15.6164 18.8563 15.9998 18.4729 15.9998 17.9995C15.9998 17.5261 15.6164 17.1426 15.143 17.1426Z" fill="#2667FF"/>
</svg>
