<svg width="42" height="42" viewBox="0 0 42 42" fill="none" xmlns="http://www.w3.org/2000/svg">
<path d="M5.15246 6.63621H7.07331C7.59728 6.63621 7.94659 6.2869 7.94659 5.76293C7.94659 5.23896 7.59728 4.88965 7.07331 4.88965H5.15246C4.62849 4.88965 4.27917 5.23896 4.27917 5.76293C4.27917 6.2869 4.71564 6.63621 5.15246 6.63621Z" fill="#2667FF"/>
<path d="M9.86693 6.63621H11.7878C12.3118 6.63621 12.6611 6.2869 12.6611 5.76293C12.6611 5.23896 12.3118 4.88965 11.7878 4.88965H9.86693C9.34297 4.88965 8.99365 5.23896 8.99365 5.76293C8.99365 6.2869 9.43047 6.63621 9.86693 6.63621Z" fill="#2667FF"/>
<path d="M14.6691 6.63621H16.5903C17.1142 6.63621 17.4636 6.2869 17.4636 5.76293C17.4636 5.23896 17.1142 4.88965 16.5903 4.88965H14.6694C14.1455 4.88965 13.7961 5.23896 13.7961 5.76293C13.7961 6.2869 14.1451 6.63621 14.6691 6.63621H14.6691Z" fill="#2667FF"/>
<path d="M4.19091 32.9185H11.1764C13.4465 36.5859 16.5028 39.904 19.7334 41.6502C20.083 41.8252 20.5195 41.9124 20.956 41.9124C21.3925 41.9124 21.7417 41.8253 22.1786 41.6506C25.4095 39.8169 28.553 36.5863 30.8232 32.9189H37.8086C40.1663 32.9189 42 30.9981 42 28.6404L41.9996 10.4782V4.2785C41.9125 1.92085 39.9917 0 37.7211 0H4.19101C1.92085 0 0 1.92085 0 4.2785V28.5528C0 30.9977 1.92085 32.9185 4.19101 32.9185L4.19091 32.9185ZM21.2183 40.0787C21.0436 40.1658 20.7818 40.1658 20.6071 40.0787C15.3678 37.197 10.4783 29.8623 9.60528 23.8377C9.34348 22.0916 9.34348 19.821 10.5657 18.0748C11.6136 18.8606 12.8359 19.2974 14.2331 19.2974C16.5032 19.2974 18.9484 18.1624 21.0439 16.3286C23.1394 18.1624 25.5846 19.2974 27.8548 19.2974C29.252 19.2974 30.4742 18.8609 31.5222 18.0748C32.7448 19.8209 32.7448 22.1787 32.4826 23.9252C31.4347 29.95 26.4576 37.1968 21.2189 40.0786L21.2183 40.0787ZM37.721 31.1724H31.696C32.9186 28.9022 33.7915 26.4571 34.0537 24.1869C34.5776 20.7817 33.879 18.0747 32.0453 16.2411C31.696 15.8917 31.172 15.8917 30.8227 16.2411C29.9494 17.1143 28.9019 17.5508 27.6792 17.5508C25.6709 17.5508 23.3133 16.4158 21.4795 14.4945C21.3924 14.4074 21.1302 14.2327 20.8684 14.2327C20.6938 14.2327 20.3444 14.4074 20.2573 14.4945C18.4236 16.3283 16.0659 17.5508 14.0576 17.5508C12.835 17.5508 11.7874 17.1143 10.9141 16.2411C10.5648 15.8917 10.0408 15.8917 9.69149 16.2411C7.94533 18.0748 7.24663 20.7817 7.77064 24.0998C8.11995 26.37 8.99325 28.8151 10.2155 31.1725H4.19075C2.79353 31.1725 1.74589 30.0374 1.74589 28.6401V11.351H40.1657V28.5526C40.1661 30.0373 39.0307 31.1724 37.7209 31.1724H37.721ZM4.19091 1.7456H37.6335C39.0307 1.7456 40.1662 2.88063 40.1662 4.27795V9.60436H1.74633V4.27795C1.74633 2.88073 2.88136 1.7456 4.19119 1.7456H4.19091Z" fill="#2667FF"/>
<path d="M16.5037 28.3776C16.5037 27.4172 16.6783 26.4568 16.9402 25.5835C17.1148 25.147 16.853 24.623 16.329 24.4484C15.8926 24.2738 15.3686 24.5356 15.194 25.0595C14.8447 26.1075 14.67 27.2426 14.67 28.3776C14.67 30.6478 15.3687 32.7436 16.6784 34.1406C17.0277 34.4899 17.5517 34.577 17.901 34.2277C18.2503 33.8784 18.3375 33.3544 17.9881 33.0051C17.1152 31.8703 16.5037 30.2113 16.5037 28.3777L16.5037 28.3776Z" fill="#2667FF"/>
<path d="M26.5449 29.6886C26.1084 29.6014 25.5845 29.8632 25.497 30.2997C24.7983 33.2684 22.7028 34.6657 20.6945 34.491C20.1705 34.4039 19.8212 34.7528 19.734 35.2768C19.6469 35.8008 19.9958 36.1501 20.5198 36.2372C23.8379 36.5866 26.4573 34.0542 27.1559 30.7361C27.3306 30.2997 27.0688 29.7757 26.5448 29.6886L26.5449 29.6886Z" fill="#2667FF"/>
<path d="M21.1307 19.5596C19.6462 19.5596 18.1619 20.3453 17.0268 21.7426C16.6775 22.0919 16.765 22.703 17.1139 22.9652C17.4632 23.227 18.0743 23.227 18.3365 22.8781C18.9476 22.1795 19.821 21.3062 21.1307 21.3062C23.2262 21.3062 25.1474 23.8385 25.6714 26.9819C25.7585 27.4183 26.1078 27.7676 26.5447 27.7676H26.6318C27.0683 27.6805 27.4176 27.2437 27.3304 26.8072C26.7193 22.6155 24.0995 19.5596 21.1307 19.5596L21.1307 19.5596Z" fill="#2667FF"/>
<path d="M19.0353 27.5923H19.2099C19.5592 27.5923 19.9957 27.3305 20.0832 26.8937C20.4325 25.5839 21.0436 24.7982 21.3058 24.6235C21.7423 24.5364 22.0916 24.1871 22.0916 23.7502C22.0916 23.2263 21.7423 22.877 21.2183 22.877C19.9957 22.877 18.8607 24.7107 18.4241 26.4568C18.2495 27.0687 18.5113 27.5051 19.0353 27.5922L19.0353 27.5923Z" fill="#2667FF"/>
<path d="M21.1307 32.8323C21.3053 32.8323 21.48 32.8323 21.6547 32.7451C23.3137 32.3087 24.0995 30.2128 24.0995 28.3791C24.0995 27.8552 23.7502 27.5059 23.2262 27.5059C22.7023 27.5059 22.353 27.8552 22.353 28.3791C22.353 29.2524 21.9165 31.0861 21.1303 31.0861C20.6939 31.0861 20.1699 30.3875 19.9953 29.3399C19.9082 28.9035 19.4713 28.5542 18.9474 28.6413C18.5109 28.7285 18.1616 29.1653 18.2488 29.6892C18.5988 31.6097 19.7338 32.8323 21.1308 32.8323L21.1307 32.8323Z" fill="#2667FF"/>
</svg>
