<svg width="40" height="41" viewBox="0 0 40 41" fill="none" xmlns="http://www.w3.org/2000/svg">
<path d="M0.935411 12.9316C0.418804 12.9316 0 13.3491 0 13.867V20.2191C0 20.7357 0.418488 21.1549 0.935411 21.1549H3.70969C3.96499 21.9885 4.29838 22.7944 4.7055 23.5647L2.74489 25.5253C2.37947 25.8907 2.37947 26.4821 2.74489 26.8482L7.23715 31.3411C7.60258 31.7065 8.19392 31.7065 8.56 31.3411L10.5216 29.3812C11.2935 29.7876 12.1004 30.121 12.9315 30.3763V33.1525C12.9315 33.6682 13.3499 34.088 13.8669 34.088H20.2213C20.7379 34.088 21.1567 33.6688 21.1567 33.1525V30.3756C22.2264 30.0466 23.2485 29.593 24.2047 29.0217C24.6485 28.7567 24.7933 28.1827 24.5287 27.7388C24.2641 27.2949 23.6897 27.1501 23.2458 27.4148C22.2367 28.0168 21.1427 28.469 19.9934 28.7567C19.5762 28.8614 19.2856 29.2359 19.2856 29.6651V32.2164L14.8026 32.216V29.6647C14.8026 29.2349 14.5093 28.8605 14.0931 28.7563C12.9515 28.4723 11.8571 28.0208 10.8403 27.4144C10.4722 27.1948 10.003 27.2539 9.69935 27.5559L7.89825 29.357L4.72952 26.1867L6.53165 24.3845C6.83401 24.0812 6.89308 23.611 6.67215 23.2429C6.0661 22.2314 5.61354 21.1371 5.32888 19.9914C5.22475 19.5752 4.85031 19.2825 4.42149 19.2825H1.87053V14.801H4.42089C4.85006 14.801 5.22349 14.5093 5.32828 14.0931C5.61562 12.9461 6.06815 11.8502 6.67155 10.8393C6.89214 10.4722 6.83307 10.0013 6.53005 9.69835L4.72997 7.89827L7.90032 4.72852L9.69972 6.52963C10.0037 6.83298 10.4733 6.89105 10.8414 6.67112C11.8529 6.06608 12.9462 5.61422 14.0929 5.32623C14.509 5.22311 14.8007 4.84766 14.8007 4.41952L14.8017 1.87087H19.2843L19.286 4.42123C19.286 4.8494 19.5777 5.22384 19.9948 5.327C21.1415 5.615 22.2364 6.06687 23.2473 6.67189C23.6164 6.89148 24.0863 6.83341 24.3889 6.5304L26.189 4.72929L29.3577 7.89904L27.5576 9.69912C27.2543 10.0025 27.1962 10.4727 27.4162 10.8401C28.0212 11.856 28.4737 12.9502 28.76 14.0929C28.8641 14.51 29.2376 14.8017 29.6667 14.8017L32.2171 14.8027V19.2836H29.6658C29.2366 19.2836 28.8632 19.5753 28.7584 19.9924C28.4694 21.1448 28.0185 22.2381 27.4158 23.2442C27.1508 23.6871 27.2953 24.2621 27.7392 24.5271C28.183 24.7931 28.757 24.6486 29.0227 24.2037C29.593 23.2496 30.0475 22.2263 30.3766 21.1551H33.1529C33.6695 21.1551 34.0886 20.7359 34.0886 20.2193V13.8672C34.0886 13.3506 33.6695 12.9318 33.1532 12.9318L30.378 12.9308C30.122 12.0981 29.7883 11.2918 29.3822 10.521L31.3428 8.56034C31.7072 8.19492 31.7072 7.60255 31.3428 7.23681L26.8512 2.74455C26.6757 2.56901 26.4377 2.47123 26.1898 2.47123C25.9418 2.47123 25.7032 2.56934 25.5283 2.74455L23.5684 4.70619C22.7985 4.29971 21.9912 3.96632 21.1575 3.71037L21.1552 0.934471C21.1552 0.417864 20.7367 0 20.2198 0H13.8664C13.3508 0 12.931 0.417488 12.931 0.934471L12.9299 3.71072C12.098 3.96602 11.292 4.2994 10.5228 4.70584L8.56216 2.74421C8.38662 2.56867 8.14868 2.47089 7.90139 2.47089C7.65276 2.47089 7.41482 2.569 7.23995 2.74421L2.74598 7.23715C2.38055 7.60258 2.38055 8.19495 2.74598 8.56069L4.70659 10.5213C4.30011 11.2905 3.96672 12.0965 3.71146 12.9311L0.935411 12.9316Z" fill="#2667FF"/>
<path d="M19.2198 21.4175C18.5417 21.7573 17.8095 21.9288 17.0442 21.9288C14.3494 21.9288 12.1579 19.7378 12.1579 17.0434C12.1579 14.3496 14.3498 12.1579 17.0442 12.1579C17.5608 12.1579 17.9796 11.7394 17.9796 11.2225C17.9796 10.7056 17.5612 10.2871 17.0442 10.2871C13.3179 10.2871 10.2866 13.3177 10.2866 17.043C10.2866 20.7694 13.3178 23.7999 17.0442 23.7999C18.1018 23.7999 19.1153 23.562 20.0554 23.0911C20.5186 22.8608 20.7059 22.2985 20.4753 21.8363C20.2446 21.3744 19.6827 21.1872 19.2198 21.4174L19.2198 21.4175Z" fill="#2667FF"/>
<path d="M22.44 12.9755C22.1309 12.5664 21.7749 12.1913 21.3831 11.8639C20.987 11.5321 20.3966 11.5842 20.0655 11.9803C19.7338 12.3765 19.7859 12.9668 20.182 13.2986C20.4653 13.5355 20.7223 13.8068 20.9462 14.1029C21.5903 14.9555 21.931 15.9724 21.931 17.044C21.931 17.7575 21.7798 18.4463 21.4828 19.09C21.2659 19.5599 21.4708 20.1159 21.9394 20.3318C22.0662 20.3902 22.2 20.4186 22.3312 20.4186C22.6846 20.4186 23.0233 20.217 23.1811 19.8749C23.593 18.9829 23.8019 18.0315 23.8019 17.0439C23.8022 15.5625 23.331 14.1558 22.44 12.9755V12.9755Z" fill="#2667FF"/>
<path d="M39.2864 34.6485L32.0366 27.3996C31.1182 26.4802 29.5157 26.4802 28.5973 27.3996L28.5882 27.4087L26.3833 25.2047C26.0179 24.8393 25.4265 24.8393 25.0604 25.2047C24.695 25.5692 24.695 26.1615 25.0604 26.5283L27.2644 28.7312L27.255 28.7405C26.7958 29.2007 26.5419 29.8101 26.5419 30.4609C26.5419 31.1113 26.7951 31.721 27.255 32.1813L34.5052 39.4324C34.9654 39.891 35.5757 40.1446 36.2255 40.1446C36.875 40.1446 37.4857 39.8913 37.9459 39.4324L39.2868 38.0898C39.747 37.6306 40 37.0193 40 36.3695C39.9996 35.7187 39.7467 35.1083 39.2865 34.6484L39.2864 34.6485ZM37.9642 36.766L36.6223 38.1086C36.4094 38.3205 36.0403 38.3205 35.8287 38.1086L28.5775 30.8574C28.3596 30.6388 28.3596 30.2824 28.5775 30.0638L29.9201 28.7219C30.0259 28.6161 30.1667 28.557 30.3172 28.557C30.4667 28.557 30.6079 28.6161 30.7144 28.7219L37.9645 35.972C38.0703 36.0768 38.1294 36.2187 38.1294 36.3692C38.1297 36.5193 38.07 36.6608 37.9642 36.766L37.9642 36.766Z" fill="#2667FF"/>
<path d="M17.0441 6.44043C11.1982 6.44043 6.44263 11.1974 6.44263 17.0427C6.44263 22.8886 11.1979 27.6442 17.0441 27.6442C22.8892 27.6442 27.6464 22.8889 27.6464 17.0427C27.6467 11.1975 22.8894 6.44043 17.0441 6.44043ZM17.0441 25.7732C12.2297 25.7732 8.31276 21.8576 8.31276 17.0436C8.31276 12.2303 12.2294 8.31228 17.0441 8.31228C21.8581 8.31228 25.7754 12.2298 25.7754 17.0436C25.7757 21.8576 21.8581 25.7732 17.0441 25.7732Z" fill="#2667FF"/>
</svg>
