<svg width="40" height="39" viewBox="0 0 40 39" fill="none" xmlns="http://www.w3.org/2000/svg">
<path d="M21.9909 19.2409C21.9913 20.0504 21.6731 20.8278 21.1038 21.4098C20.5346 21.9921 19.7586 22.3325 18.9397 22.3604V23.3998C18.9397 23.974 18.4682 24.4397 17.8868 24.4397C17.3054 24.4397 16.8338 23.974 16.8338 23.3998V22.3604H15.7809C15.1995 22.3604 14.7284 21.8947 14.7284 21.3206C14.7284 20.7464 15.1995 20.2807 15.7809 20.2807H18.832C19.4134 20.2807 19.885 19.8155 19.885 19.2409C19.885 18.6667 19.4134 18.2014 18.832 18.2014H16.8338C15.7053 18.2014 14.6628 17.6067 14.0988 16.6419C13.5343 15.6766 13.5343 14.4876 14.0988 13.5223C14.6628 12.5575 15.7053 11.9628 16.8338 11.9628V10.9229C16.8338 10.3487 17.3053 9.8835 17.8867 9.8835C18.4681 9.8835 18.9397 10.3487 18.9397 10.9229V11.9628H19.9123C20.4937 11.9628 20.9652 12.4285 20.9652 13.0026C20.9652 13.5768 20.4937 14.0425 19.9123 14.0425H16.8338C16.2524 14.0425 15.7809 14.5077 15.7809 15.0819C15.7809 15.6565 16.2524 16.1218 16.8338 16.1218H18.8385C19.6752 16.1235 20.4767 16.4528 21.0677 17.0377C21.6587 17.6226 21.9908 18.415 21.9908 19.2409H21.9909ZM21.8372 2.05797H21.8368C25.227 2.92286 28.2296 4.87564 30.3732 7.60966C32.5168 10.3437 33.6796 13.7034 33.6792 17.1613C33.6792 17.7355 34.1507 18.2011 34.7321 18.2011C35.3135 18.2011 35.7847 17.7355 35.7847 17.1613C35.7851 13.2429 34.4665 9.43553 32.037 6.33783C29.6076 3.24012 26.2048 1.02708 22.3635 0.04724C22.0882 -0.0376634 21.7899 -0.00721706 21.5381 0.131286C21.2862 0.269788 21.103 0.503911 21.0309 0.77963C20.9588 1.05492 21.004 1.3478 21.1564 1.58921C21.3088 1.83105 21.555 2.00043 21.8368 2.05789L21.8372 2.05797ZM10.8119 31.1085C6.80893 29.1424 3.84818 25.5808 2.67537 21.3206C1.48956 17.0836 2.16519 12.549 4.53679 8.82947C4.84725 8.34363 4.70049 7.70132 4.20853 7.39473C3.71658 7.08813 3.06618 7.23349 2.75573 7.7189C0.0684211 11.9362 -0.695776 17.0762 0.649877 21.8775C1.97808 26.7024 5.3301 30.737 9.86236 32.9658C10.0087 33.0395 10.1711 33.0781 10.3361 33.0781C10.8233 33.0781 11.2466 32.7479 11.3599 32.2797C11.4732 31.8119 11.2466 31.3282 10.812 31.1108L10.8119 31.1085ZM39.9958 34.1302C40.0241 34.4342 39.9073 34.734 39.6802 34.9411L35.89 38.6842C35.6803 38.9084 35.3768 39.0238 35.0689 38.9959C34.7567 38.971 34.4715 38.8111 34.2895 38.5594L31.9944 35.3777L29.6992 38.5594C29.496 38.8295 29.1769 38.9907 28.836 38.9959C28.7861 38.9993 28.7357 38.9925 28.6888 38.9753C28.2946 38.9324 27.9637 38.6627 27.8465 38.2888L24.6669 28.8894V28.8899C22.6101 30.0751 20.2684 30.6926 17.8868 30.678C14.2569 30.678 10.7754 29.2539 8.20892 26.7193C5.64189 24.1846 4.19997 20.7465 4.19997 17.1617C4.19997 13.577 5.642 10.1387 8.20892 7.60418C10.7755 5.06906 14.2569 3.64508 17.8868 3.64508C21.5167 3.64508 24.9982 5.06917 27.5647 7.60418C30.1313 10.1389 31.5732 13.577 31.5732 17.1617C31.588 19.5137 30.9627 21.8262 29.7626 23.8575L39.2803 26.9976H39.2799C39.6585 27.1134 39.9316 27.4401 39.975 27.8294C40.0345 28.2137 39.8721 28.5987 39.5539 28.8273L36.3321 31.0939L39.5539 33.3605C39.8087 33.5402 39.9707 33.8219 39.9959 34.1302L39.9958 34.1302ZM27.7198 23.1918C28.8691 21.3862 29.4753 19.2944 29.4675 17.1615C29.4675 14.1281 28.2473 11.2191 26.0755 9.07426C23.9036 6.92939 20.958 5.72441 17.8864 5.72441C14.8148 5.72441 11.8692 6.92939 9.69731 9.07426C7.52544 11.2191 6.30528 14.1281 6.30528 17.1615C6.30528 20.1949 7.52544 23.1039 9.69731 25.2488C11.8692 27.3936 14.8148 28.5986 17.8864 28.5986C20.0461 28.6063 22.1641 28.0077 23.9926 26.8727L22.7925 23.3165C22.6705 22.9448 22.7695 22.5365 23.0495 22.2604C23.3291 21.9838 23.7425 21.886 24.119 22.0065L27.7198 23.1918ZM37.3218 34.3382L33.9106 31.9468L33.9102 31.9473C33.6323 31.7496 33.4677 31.4323 33.4677 31.0944C33.4677 30.7565 33.6323 30.4392 33.9102 30.2419L36.6474 28.3286L27.8456 25.4174L27.8035 25.3968L25.4453 24.6275L26.2243 26.9564L26.2451 26.9979L29.193 35.6903L31.1304 32.9871L31.1309 32.9867C31.3306 32.7122 31.6519 32.5497 31.9941 32.5497C32.3362 32.5497 32.6575 32.7122 32.8577 32.9867L35.2792 36.3554L36.3109 35.3571L37.3218 34.3382Z" fill="#2667FF"/>
</svg>
