<svg width="97" height="97" viewBox="0 0 97 97" fill="none" xmlns="http://www.w3.org/2000/svg">
<path opacity="0.2" d="M55.8346 76.3274C55.8346 77.5191 54.8524 78.5017 53.6614 78.5017C52.4703 78.5017 51.4881 77.5191 51.4881 76.3274C51.4881 75.1147 52.4703 74.153 53.6614 74.153C54.8524 74.153 55.8346 75.1357 55.8346 76.3274ZM63.9423 9.75875C62.7512 9.75875 61.7691 10.7414 61.7691 11.9331C61.7691 13.1248 62.7512 14.1075 63.9423 14.1075C65.1542 14.1075 66.1155 13.1248 66.1155 11.9331C66.1155 10.7414 65.1542 9.75875 63.9423 9.75875ZM63.9423 0.55957C62.7512 0.55957 61.7691 1.54221 61.7691 2.73392C61.7691 3.92563 62.7512 4.90827 63.9423 4.90827C65.1542 4.90827 66.1155 3.92563 66.1155 2.73392C66.1155 1.54221 65.1542 0.55957 63.9423 0.55957ZM63.9423 18.9579C62.7512 18.9579 61.7691 19.9406 61.7691 21.1323C61.7691 22.324 62.7512 23.3066 63.9423 23.3066C65.1542 23.3066 66.1155 22.324 66.1155 21.1323C66.1155 19.9406 65.1542 18.9579 63.9423 18.9579ZM53.6405 83.3522C52.4494 83.3522 51.4673 84.3348 51.4673 85.5265C51.4673 86.7392 52.4494 87.7009 53.6405 87.7009C54.8524 87.7009 55.8137 86.7183 55.8137 85.5265C55.8346 84.3348 54.8524 83.3522 53.6405 83.3522ZM63.9423 74.153C62.7512 74.153 61.7691 75.1357 61.7691 76.3274C61.7691 77.5191 62.7512 78.5017 63.9423 78.5017C65.1542 78.5017 66.1155 77.5191 66.1155 76.3274C66.1155 75.1357 65.1542 74.153 63.9423 74.153ZM63.9423 55.7547C62.7512 55.7547 61.7691 56.7373 61.7691 57.929C61.7691 59.1207 62.7512 60.1034 63.9423 60.1034C65.1542 60.1034 66.1155 59.1207 66.1155 57.929C66.1155 56.7373 65.1542 55.7547 63.9423 55.7547ZM63.9423 64.9538C62.7512 64.9538 61.7691 65.9365 61.7691 67.1282C61.7691 68.3199 62.7512 69.3025 63.9423 69.3025C65.1542 69.3025 66.1155 68.3199 66.1155 67.1282C66.1155 65.9365 65.1542 64.9538 63.9423 64.9538ZM53.6405 64.9538C52.4494 64.9538 51.4673 65.9365 51.4673 67.1282C51.4673 68.3199 52.4494 69.3025 53.6405 69.3025C54.8524 69.3025 55.8137 68.3199 55.8137 67.1282C55.8346 65.9365 54.8524 64.9538 53.6405 64.9538ZM63.9423 28.1571C62.7512 28.1571 61.7691 29.1397 61.7691 30.3315C61.7691 31.5441 62.7512 32.5058 63.9423 32.5058C65.1542 32.5058 66.1155 31.5232 66.1155 30.3315C66.1155 29.1397 65.1542 28.1571 63.9423 28.1571ZM63.9423 37.3563C62.7512 37.3563 61.7691 38.3389 61.7691 39.5306C61.7691 40.7433 62.7512 41.705 63.9423 41.705C65.1542 41.705 66.1155 40.7224 66.1155 39.5306C66.1155 38.3389 65.1542 37.3563 63.9423 37.3563ZM63.9423 46.5555C62.7512 46.5555 61.7691 47.5381 61.7691 48.7298C61.7691 49.9215 62.7512 50.9042 63.9423 50.9042C65.1542 50.9042 66.1155 49.9215 66.1155 48.7298C66.1155 47.5381 65.1542 46.5555 63.9423 46.5555ZM53.6405 96.921C54.8524 96.921 55.8137 95.9383 55.8137 94.7466C55.8137 93.5549 54.8315 92.5723 53.6405 92.5723C52.4494 92.5723 51.4673 93.5549 51.4673 94.7466C51.4673 95.9383 52.4494 96.921 53.6405 96.921ZM74.2441 92.5514C73.1784 92.5514 72.3007 93.304 72.1127 94.3076C73.0948 93.8058 74.056 93.2622 74.9963 92.6977C74.7456 92.6141 74.4948 92.5514 74.2441 92.5514ZM94.8268 37.3563C93.6148 37.3563 92.6536 38.3389 92.6536 39.5306C92.6536 40.7433 93.6357 41.705 94.8268 41.705C96.0179 41.705 97 40.7224 97 39.5306C97 38.3389 96.0179 37.3563 94.8268 37.3563ZM53.6405 0.55957C52.4494 0.55957 51.4673 1.54221 51.4673 2.73392C51.4673 3.92563 52.4494 4.90827 53.6405 4.90827C54.8524 4.90827 55.8137 3.92563 55.8137 2.73392C55.8346 1.54221 54.8524 0.55957 53.6405 0.55957ZM94.8268 64.9538C93.6148 64.9538 92.6536 65.9365 92.6536 67.1282C92.6536 68.3199 93.6357 69.3025 94.8268 69.3025C95.0775 69.3025 95.3283 69.2607 95.5582 69.1771C95.997 68.1735 96.394 67.17 96.7701 66.1246C96.394 65.4347 95.6626 64.9538 94.8268 64.9538ZM94.8268 28.1571C93.6148 28.1571 92.6536 29.1397 92.6536 30.3315C92.6536 31.5441 93.6357 32.5058 94.8268 32.5058C95.6626 32.5058 96.394 32.025 96.7701 31.3141C96.394 30.2896 95.997 29.2652 95.5582 28.2826C95.3283 28.1989 95.0775 28.1571 94.8268 28.1571ZM53.6405 55.7547C52.4494 55.7547 51.4673 56.7373 51.4673 57.929C51.4673 59.1207 52.4494 60.1034 53.6405 60.1034C54.8524 60.1034 55.8137 59.1207 55.8137 57.929C55.8346 56.7373 54.8524 55.7547 53.6405 55.7547ZM53.6405 9.75875C52.4494 9.75875 51.4673 10.7414 51.4673 11.9331C51.4673 13.1248 52.4494 14.1075 53.6405 14.1075C54.8524 14.1075 55.8137 13.1248 55.8137 11.9331C55.8346 10.7414 54.8524 9.75875 53.6405 9.75875ZM53.6405 37.3563C52.4494 37.3563 51.4673 38.3389 51.4673 39.5306C51.4673 40.7433 52.4494 41.705 53.6405 41.705C54.8524 41.705 55.8137 40.7224 55.8137 39.5306C55.8346 38.3389 54.8524 37.3563 53.6405 37.3563ZM53.6405 18.9579C52.4494 18.9579 51.4673 19.9406 51.4673 21.1323C51.4673 22.324 52.4494 23.3066 53.6405 23.3066C54.8524 23.3066 55.8137 22.324 55.8137 21.1323C55.8346 19.9406 54.8524 18.9579 53.6405 18.9579ZM53.6405 28.1571C52.4494 28.1571 51.4673 29.1397 51.4673 30.3315C51.4673 31.5441 52.4494 32.5058 53.6405 32.5058C54.8524 32.5058 55.8137 31.5232 55.8137 30.3315C55.8346 29.1397 54.8524 28.1571 53.6405 28.1571ZM53.6405 46.5555C52.4494 46.5555 51.4673 47.5381 51.4673 48.7298C51.4673 49.9215 52.4494 50.9042 53.6405 50.9042C54.8524 50.9042 55.8137 49.9215 55.8137 48.7298C55.8346 47.5381 54.8524 46.5555 53.6405 46.5555ZM84.525 55.7547C83.3339 55.7547 82.3518 56.7373 82.3518 57.929C82.3518 59.1207 83.3339 60.1034 84.525 60.1034C85.737 60.1034 86.6982 59.1207 86.6982 57.929C86.7191 56.7373 85.737 55.7547 84.525 55.7547ZM84.525 37.3563C83.3339 37.3563 82.3518 38.3389 82.3518 39.5306C82.3518 40.7433 83.3339 41.705 84.525 41.705C85.737 41.705 86.6982 40.7224 86.6982 39.5306C86.7191 38.3389 85.737 37.3563 84.525 37.3563ZM84.525 46.5555C83.3339 46.5555 82.3518 47.5381 82.3518 48.7298C82.3518 49.9215 83.3339 50.9042 84.525 50.9042C85.737 50.9042 86.6982 49.9215 86.6982 48.7298C86.7191 47.5381 85.737 46.5555 84.525 46.5555ZM84.525 28.1571C83.3339 28.1571 82.3518 29.1397 82.3518 30.3315C82.3518 31.5441 83.3339 32.5058 84.525 32.5058C85.737 32.5058 86.6982 31.5232 86.6982 30.3315C86.7191 29.1397 85.737 28.1571 84.525 28.1571ZM84.525 14.1075C85.0474 14.1075 85.528 13.9193 85.9041 13.6266C84.922 12.5812 83.8981 11.5568 82.8115 10.595C82.519 10.9714 82.3518 11.4313 82.3518 11.9331C82.3518 13.1248 83.3339 14.1075 84.525 14.1075ZM84.525 18.9579C83.3339 18.9579 82.3518 19.9406 82.3518 21.1323C82.3518 22.324 83.3339 23.3066 84.525 23.3066C85.737 23.3066 86.6982 22.324 86.6982 21.1323C86.7191 19.9406 85.737 18.9579 84.525 18.9579ZM94.8268 46.5555C93.6148 46.5555 92.6536 47.5381 92.6536 48.7298C92.6536 49.9215 93.6357 50.9042 94.8268 50.9042C96.0179 50.9042 97 49.9215 97 48.7298C97 47.5381 96.0179 46.5555 94.8268 46.5555ZM82.3518 85.5265C82.3518 86.0283 82.519 86.5092 82.8115 86.8646C83.8772 85.9029 84.922 84.8784 85.9041 83.8331C85.528 83.5404 85.0474 83.3522 84.525 83.3522C83.3339 83.3522 82.3518 84.3348 82.3518 85.5265ZM63.9423 92.5514C62.7512 92.5514 61.7691 93.534 61.7691 94.7257C61.7691 95.9383 62.7512 96.9001 63.9423 96.9001C65.1542 96.9001 66.1155 95.9174 66.1155 94.7257C66.1155 93.534 65.1542 92.5514 63.9423 92.5514ZM84.525 74.153C83.3339 74.153 82.3518 75.1357 82.3518 76.3274C82.3518 77.5191 83.3339 78.5017 84.525 78.5017C85.737 78.5017 86.6982 77.5191 86.6982 76.3274C86.7191 75.1357 85.737 74.153 84.525 74.153ZM84.525 64.9538C83.3339 64.9538 82.3518 65.9365 82.3518 67.1282C82.3518 68.3199 83.3339 69.3025 84.525 69.3025C85.737 69.3025 86.6982 68.3199 86.6982 67.1282C86.7191 65.9365 85.737 64.9538 84.525 64.9538ZM94.8268 55.7547C93.6148 55.7547 92.6536 56.7373 92.6536 57.929C92.6536 59.1207 93.6357 60.1034 94.8268 60.1034C96.0179 60.1034 97 59.1207 97 57.929C97 56.7373 96.0179 55.7547 94.8268 55.7547ZM74.2441 74.153C73.0321 74.153 72.0709 75.1357 72.0709 76.3274C72.0709 77.5191 73.053 78.5017 74.2441 78.5017C75.4352 78.5017 76.4173 77.5191 76.4173 76.3274C76.4173 75.1357 75.4352 74.153 74.2441 74.153ZM74.2441 28.1571C73.0321 28.1571 72.0709 29.1397 72.0709 30.3315C72.0709 31.5441 73.053 32.5058 74.2441 32.5058C75.4352 32.5058 76.4173 31.5232 76.4173 30.3315C76.4173 29.1397 75.4352 28.1571 74.2441 28.1571ZM74.2441 18.9579C73.0321 18.9579 72.0709 19.9406 72.0709 21.1323C72.0709 22.324 73.053 23.3066 74.2441 23.3066C75.4352 23.3066 76.4173 22.324 76.4173 21.1323C76.4173 19.9406 75.4352 18.9579 74.2441 18.9579ZM74.2441 4.90827C74.4948 4.90827 74.7456 4.86646 74.9963 4.78283C74.056 4.21834 73.0948 3.67475 72.1127 3.17297C72.3007 4.15561 73.1784 4.90827 74.2441 4.90827ZM63.9423 83.3522C62.7512 83.3522 61.7691 84.3348 61.7691 85.5265C61.7691 86.7392 62.7512 87.7009 63.9423 87.7009C65.1542 87.7009 66.1155 86.7183 66.1155 85.5265C66.1155 84.3348 65.1542 83.3522 63.9423 83.3522ZM74.2441 9.75875C73.0321 9.75875 72.0709 10.7414 72.0709 11.9331C72.0709 13.1248 73.053 14.1075 74.2441 14.1075C75.4352 14.1075 76.4173 13.1248 76.4173 11.9331C76.4173 10.7414 75.4352 9.75875 74.2441 9.75875ZM74.2441 83.3522C73.0321 83.3522 72.0709 84.3348 72.0709 85.5265C72.0709 86.7392 73.053 87.7009 74.2441 87.7009C75.4352 87.7009 76.4173 86.7183 76.4173 85.5265C76.4173 84.3348 75.4352 83.3522 74.2441 83.3522ZM74.2441 64.9538C73.0321 64.9538 72.0709 65.9365 72.0709 67.1282C72.0709 68.3199 73.053 69.3025 74.2441 69.3025C75.4352 69.3025 76.4173 68.3199 76.4173 67.1282C76.4173 65.9365 75.4352 64.9538 74.2441 64.9538ZM74.2441 37.3563C73.0321 37.3563 72.0709 38.3389 72.0709 39.5306C72.0709 40.7433 73.053 41.705 74.2441 41.705C75.4352 41.705 76.4173 40.7224 76.4173 39.5306C76.4173 38.3389 75.4352 37.3563 74.2441 37.3563ZM74.2441 46.5555C73.0321 46.5555 72.0709 47.5381 72.0709 48.7298C72.0709 49.9215 73.053 50.9042 74.2441 50.9042C75.4352 50.9042 76.4173 49.9215 76.4173 48.7298C76.4173 47.5381 75.4352 46.5555 74.2441 46.5555ZM74.2441 55.7547C73.0321 55.7547 72.0709 56.7373 72.0709 57.929C72.0709 59.1207 73.053 60.1034 74.2441 60.1034C75.4352 60.1034 76.4173 59.1207 76.4173 57.929C76.4173 56.7373 75.4352 55.7547 74.2441 55.7547ZM33.0577 96.921C34.2488 96.921 35.2309 95.9383 35.2309 94.7466C35.2309 93.5549 34.2488 92.5723 33.0577 92.5723C31.8458 92.5723 30.8845 93.5549 30.8845 94.7466C30.8845 95.9383 31.8667 96.921 33.0577 96.921ZM33.0577 60.1034C34.2488 60.1034 35.2309 59.1207 35.2309 57.929C35.2309 56.7164 34.2488 55.7547 33.0577 55.7547C31.8458 55.7547 30.8845 56.7373 30.8845 57.929C30.8845 59.1416 31.8667 60.1034 33.0577 60.1034ZM33.0577 69.3025C34.2488 69.3025 35.2309 68.3199 35.2309 67.1282C35.2309 65.9156 34.2488 64.9538 33.0577 64.9538C31.8458 64.9538 30.8845 65.9365 30.8845 67.1282C30.8845 68.3408 31.8667 69.3025 33.0577 69.3025ZM33.0577 87.7218C34.2488 87.7218 35.2309 86.7392 35.2309 85.5474C35.2309 84.3557 34.2488 83.3731 33.0577 83.3731C31.8458 83.3731 30.8845 84.3557 30.8845 85.5474C30.8845 86.7392 31.8667 87.7218 33.0577 87.7218ZM22.7768 92.5514C22.5052 92.5514 22.2544 92.5932 22.0246 92.6977C22.9649 93.2622 23.9261 93.8058 24.9082 94.3076C24.6993 93.304 23.8216 92.5514 22.7768 92.5514ZM33.0577 50.9042C34.2488 50.9042 35.2309 49.9215 35.2309 48.7298C35.2309 47.5172 34.2488 46.5555 33.0577 46.5555C31.8458 46.5555 30.8845 47.5381 30.8845 48.7298C30.8845 49.9424 31.8667 50.9042 33.0577 50.9042ZM33.0577 41.705C34.2488 41.705 35.2309 40.7224 35.2309 39.5306C35.2309 38.3389 34.2488 37.3563 33.0577 37.3563C31.8458 37.3563 30.8845 38.3389 30.8845 39.5306C30.8845 40.7433 31.8667 41.705 33.0577 41.705ZM33.0577 14.1075C34.2488 14.1075 35.2309 13.1248 35.2309 11.9331C35.2309 10.7205 34.2488 9.75875 33.0577 9.75875C31.8458 9.75875 30.8845 10.7414 30.8845 11.9331C30.8845 13.1248 31.8667 14.1075 33.0577 14.1075ZM33.0577 4.90827C34.2488 4.90827 35.2309 3.92563 35.2309 2.73392C35.2309 1.54221 34.2697 0.55957 33.0577 0.55957C31.8458 0.55957 30.8845 1.54221 30.8845 2.73392C30.8845 3.94654 31.8667 4.90827 33.0577 4.90827ZM43.3595 23.3066C44.5506 23.3066 45.5327 22.324 45.5327 21.1323C45.5327 19.9197 44.5506 18.9579 43.3595 18.9579C42.1476 18.9579 41.1863 19.9406 41.1863 21.1323C41.1863 22.3449 42.1476 23.3066 43.3595 23.3066ZM33.0577 23.3066C34.2488 23.3066 35.2309 22.324 35.2309 21.1323C35.2309 19.9197 34.2488 18.9579 33.0577 18.9579C31.8458 18.9579 30.8845 19.9406 30.8845 21.1323C30.8845 22.3449 31.8667 23.3066 33.0577 23.3066ZM33.0577 32.5058C34.2488 32.5058 35.2309 31.5232 35.2309 30.3315C35.2309 29.1397 34.2488 28.1571 33.0577 28.1571C31.8458 28.1571 30.8845 29.1397 30.8845 30.3315C30.8845 31.5441 31.8667 32.5058 33.0577 32.5058ZM33.0577 78.5017C34.2488 78.5017 35.2309 77.5191 35.2309 76.3274C35.2309 75.1147 34.2488 74.153 33.0577 74.153C31.8458 74.153 30.8845 75.1357 30.8845 76.3274C30.8845 77.54 31.8667 78.5017 33.0577 78.5017ZM43.3595 78.5017C44.5506 78.5017 45.5327 77.5191 45.5327 76.3274C45.5327 75.1147 44.5506 74.153 43.3595 74.153C42.1476 74.153 41.1863 75.1357 41.1863 76.3274C41.1863 77.54 42.1476 78.5017 43.3595 78.5017ZM43.3595 96.921C44.5506 96.921 45.5327 95.9383 45.5327 94.7466C45.5327 93.5549 44.5506 92.5723 43.3595 92.5723C42.1476 92.5723 41.1863 93.5549 41.1863 94.7466C41.1863 95.9383 42.1476 96.921 43.3595 96.921ZM43.3595 87.7218C44.5506 87.7218 45.5327 86.7392 45.5327 85.5474C45.5327 84.3557 44.5506 83.3731 43.3595 83.3731C42.1476 83.3731 41.1863 84.3557 41.1863 85.5474C41.1863 86.7392 42.1476 87.7218 43.3595 87.7218ZM22.7768 4.90827C23.8216 4.90827 24.7202 4.15561 24.9082 3.15207C23.9261 3.65384 22.9649 4.19743 22.0246 4.76192C22.2544 4.86646 22.5052 4.90827 22.7768 4.90827ZM14.6482 11.9331C14.6482 11.4313 14.481 10.9714 14.1885 10.595C13.1228 11.5568 12.0989 12.5603 11.0959 13.6266C11.472 13.9402 11.9526 14.1075 12.475 14.1075C13.6661 14.1075 14.6482 13.1248 14.6482 11.9331ZM43.3595 32.5058C44.5506 32.5058 45.5327 31.5232 45.5327 30.3315C45.5327 29.1397 44.5506 28.1571 43.3595 28.1571C42.1476 28.1571 41.1863 29.1397 41.1863 30.3315C41.1863 31.5441 42.1476 32.5058 43.3595 32.5058ZM43.3595 41.705C44.5506 41.705 45.5327 40.7224 45.5327 39.5306C45.5327 38.3389 44.5506 37.3563 43.3595 37.3563C42.1476 37.3563 41.1863 38.3389 41.1863 39.5306C41.1863 40.7433 42.1476 41.705 43.3595 41.705ZM43.3595 69.3025C44.5506 69.3025 45.5327 68.3199 45.5327 67.1282C45.5327 65.9156 44.5506 64.9538 43.3595 64.9538C42.1476 64.9538 41.1863 65.9365 41.1863 67.1282C41.1863 68.3408 42.1476 69.3025 43.3595 69.3025ZM43.3595 14.1075C44.5506 14.1075 45.5327 13.1248 45.5327 11.9331C45.5327 10.7205 44.5506 9.75875 43.3595 9.75875C42.1476 9.75875 41.1863 10.7414 41.1863 11.9331C41.1863 13.1248 42.1476 14.1075 43.3595 14.1075ZM43.3595 50.9042C44.5506 50.9042 45.5327 49.9215 45.5327 48.7298C45.5327 47.5172 44.5506 46.5555 43.3595 46.5555C42.1476 46.5555 41.1863 47.5381 41.1863 48.7298C41.1863 49.9424 42.1476 50.9042 43.3595 50.9042ZM43.3595 60.1034C44.5506 60.1034 45.5327 59.1207 45.5327 57.929C45.5327 56.7164 44.5506 55.7547 43.3595 55.7547C42.1476 55.7547 41.1863 56.7373 41.1863 57.929C41.1863 59.1416 42.1476 60.1034 43.3595 60.1034ZM43.3595 0.55957C42.1476 0.55957 41.1863 1.54221 41.1863 2.73392C41.1863 3.92563 42.1685 4.90827 43.3595 4.90827C44.5506 4.90827 45.5327 3.92563 45.5327 2.73392C45.5327 1.54221 44.5506 0.55957 43.3595 0.55957ZM22.7768 28.1571C21.5648 28.1571 20.6036 29.1397 20.6036 30.3315C20.6036 31.5441 21.5857 32.5058 22.7768 32.5058C23.9679 32.5058 24.95 31.5232 24.95 30.3315C24.95 29.1397 23.9679 28.1571 22.7768 28.1571ZM22.7768 18.9579C21.5648 18.9579 20.6036 19.9406 20.6036 21.1323C20.6036 22.324 21.5857 23.3066 22.7768 23.3066C23.9679 23.3066 24.95 22.324 24.95 21.1323C24.95 19.9406 23.9679 18.9579 22.7768 18.9579ZM22.7768 37.3563C21.5648 37.3563 20.6036 38.3389 20.6036 39.5306C20.6036 40.7433 21.5857 41.705 22.7768 41.705C23.9679 41.705 24.95 40.7224 24.95 39.5306C24.95 38.3389 23.9679 37.3563 22.7768 37.3563ZM22.7768 9.75875C21.5648 9.75875 20.6036 10.7414 20.6036 11.9331C20.6036 13.1248 21.5857 14.1075 22.7768 14.1075C23.9679 14.1075 24.95 13.1248 24.95 11.9331C24.95 10.7414 23.9679 9.75875 22.7768 9.75875ZM12.475 64.9538C11.2839 64.9538 10.3018 65.9365 10.3018 67.1282C10.3018 68.3199 11.2839 69.3025 12.475 69.3025C13.687 69.3025 14.6482 68.3199 14.6482 67.1282C14.6482 65.9365 13.6661 64.9538 12.475 64.9538ZM22.7768 64.9538C21.5648 64.9538 20.6036 65.9365 20.6036 67.1282C20.6036 68.3199 21.5857 69.3025 22.7768 69.3025C23.9679 69.3025 24.95 68.3199 24.95 67.1282C24.95 65.9365 23.9679 64.9538 22.7768 64.9538ZM22.7768 74.153C21.5648 74.153 20.6036 75.1357 20.6036 76.3274C20.6036 77.5191 21.5857 78.5017 22.7768 78.5017C23.9679 78.5017 24.95 77.5191 24.95 76.3274C24.95 75.1357 23.9679 74.153 22.7768 74.153ZM22.7768 83.3522C21.5648 83.3522 20.6036 84.3348 20.6036 85.5265C20.6036 86.7392 21.5857 87.7009 22.7768 87.7009C23.9679 87.7009 24.95 86.7183 24.95 85.5265C24.95 84.3348 23.9679 83.3522 22.7768 83.3522ZM12.475 74.153C11.2839 74.153 10.3018 75.1357 10.3018 76.3274C10.3018 77.5191 11.2839 78.5017 12.475 78.5017C13.687 78.5017 14.6482 77.5191 14.6482 76.3274C14.6482 75.1357 13.6661 74.153 12.475 74.153ZM22.7768 55.7547C21.5648 55.7547 20.6036 56.7373 20.6036 57.929C20.6036 59.1207 21.5857 60.1034 22.7768 60.1034C23.9679 60.1034 24.95 59.1207 24.95 57.929C24.95 56.7373 23.9679 55.7547 22.7768 55.7547ZM22.7768 46.5555C21.5648 46.5555 20.6036 47.5381 20.6036 48.7298C20.6036 49.9215 21.5857 50.9042 22.7768 50.9042C23.9679 50.9042 24.95 49.9215 24.95 48.7298C24.95 47.5381 23.9679 46.5555 22.7768 46.5555ZM12.475 46.5555C11.2839 46.5555 10.3018 47.5381 10.3018 48.7298C10.3018 49.9215 11.2839 50.9042 12.475 50.9042C13.687 50.9042 14.6482 49.9215 14.6482 48.7298C14.6482 47.5381 13.6661 46.5555 12.475 46.5555ZM2.1732 46.5555C0.98212 46.5555 0 47.5381 0 48.7298C0 49.9215 0.98212 50.9042 2.1732 50.9042C3.36428 50.9042 4.3464 49.9215 4.3464 48.7298C4.3464 47.5381 3.38518 46.5555 2.1732 46.5555ZM12.475 55.7547C11.2839 55.7547 10.3018 56.7373 10.3018 57.929C10.3018 59.1207 11.2839 60.1034 12.475 60.1034C13.687 60.1034 14.6482 59.1207 14.6482 57.929C14.6482 56.7373 13.6661 55.7547 12.475 55.7547ZM2.1732 37.3563C0.98212 37.3563 0 38.3389 0 39.5306C0 40.7433 0.98212 41.705 2.1732 41.705C3.36428 41.705 4.3464 40.7224 4.3464 39.5306C4.3464 38.3389 3.38518 37.3563 2.1732 37.3563ZM4.3464 67.1282C4.3464 65.9156 3.36428 64.9538 2.1732 64.9538C1.33735 64.9538 0.605989 65.4347 0.229858 66.1455C0.605989 67.17 1.00302 68.1945 1.44184 69.198C1.67169 69.2816 1.92245 69.3234 2.1732 69.3234C3.38518 69.3025 4.3464 68.3408 4.3464 67.1282ZM2.1732 60.1034C3.36428 60.1034 4.3464 59.1207 4.3464 57.929C4.3464 56.7164 3.36428 55.7547 2.1732 55.7547C0.98212 55.7547 0 56.7373 0 57.929C0 59.1416 0.98212 60.1034 2.1732 60.1034ZM2.1732 32.5058C3.36428 32.5058 4.3464 31.5232 4.3464 30.3315C4.3464 29.1397 3.36428 28.1571 2.1732 28.1571C1.92245 28.1571 1.67169 28.1989 1.44184 28.2826C1.00302 29.2861 0.605989 30.2896 0.229858 31.3141C0.605989 32.025 1.33735 32.5058 2.1732 32.5058ZM12.475 37.3563C11.2839 37.3563 10.3018 38.3389 10.3018 39.5306C10.3018 40.7433 11.2839 41.705 12.475 41.705C13.687 41.705 14.6482 40.7224 14.6482 39.5306C14.6482 38.3389 13.6661 37.3563 12.475 37.3563ZM12.475 18.9579C11.2839 18.9579 10.3018 19.9406 10.3018 21.1323C10.3018 22.324 11.2839 23.3066 12.475 23.3066C13.687 23.3066 14.6482 22.324 14.6482 21.1323C14.6482 19.9406 13.6661 18.9579 12.475 18.9579ZM12.475 83.3522C11.9526 83.3522 11.472 83.5404 11.0959 83.8331C12.078 84.8784 13.1019 85.9029 14.1885 86.8646C14.481 86.5092 14.6482 86.0283 14.6482 85.5265C14.6482 84.3348 13.6661 83.3522 12.475 83.3522ZM12.475 28.1571C11.2839 28.1571 10.3018 29.1397 10.3018 30.3315C10.3018 31.5441 11.2839 32.5058 12.475 32.5058C13.687 32.5058 14.6482 31.5232 14.6482 30.3315C14.6482 29.1397 13.6661 28.1571 12.475 28.1571Z" fill="#F53A8B"/>
</svg>
