<svg width="72" height="72" viewBox="0 0 72 72" fill="none" xmlns="http://www.w3.org/2000/svg">
<path opacity="0.2" d="M41.4442 56.1646C41.4442 57.0431 40.7152 57.7675 39.8311 57.7675C38.947 57.7675 38.218 57.0431 38.218 56.1646C38.218 55.2706 38.947 54.5616 39.8311 54.5616C40.7152 54.5616 41.4442 55.286 41.4442 56.1646ZM47.4623 7.09023C46.5782 7.09023 45.8492 7.81463 45.8492 8.69316C45.8492 9.57168 46.5782 10.2961 47.4623 10.2961C48.3619 10.2961 49.0754 9.57168 49.0754 8.69316C49.0754 7.81463 48.3619 7.09023 47.4623 7.09023ZM47.4623 0.308594C46.5782 0.308594 45.8492 1.033 45.8492 1.91152C45.8492 2.79005 46.5782 3.51446 47.4623 3.51446C48.3619 3.51446 49.0754 2.79005 49.0754 1.91152C49.0754 1.033 48.3619 0.308594 47.4623 0.308594ZM47.4623 13.8719C46.5782 13.8719 45.8492 14.5963 45.8492 15.4748C45.8492 16.3533 46.5782 17.0777 47.4623 17.0777C48.3619 17.0777 49.0754 16.3533 49.0754 15.4748C49.0754 14.5963 48.3619 13.8719 47.4623 13.8719ZM39.8156 61.3433C38.9315 61.3433 38.2025 62.0677 38.2025 62.9462C38.2025 63.8401 38.9315 64.5491 39.8156 64.5491C40.7152 64.5491 41.4287 63.8247 41.4287 62.9462C41.4442 62.0677 40.7152 61.3433 39.8156 61.3433ZM47.4623 54.5616C46.5782 54.5616 45.8492 55.286 45.8492 56.1646C45.8492 57.0431 46.5782 57.7675 47.4623 57.7675C48.3619 57.7675 49.0754 57.0431 49.0754 56.1646C49.0754 55.286 48.3619 54.5616 47.4623 54.5616ZM47.4623 40.9984C46.5782 40.9984 45.8492 41.7228 45.8492 42.6013C45.8492 43.4798 46.5782 44.2042 47.4623 44.2042C48.3619 44.2042 49.0754 43.4798 49.0754 42.6013C49.0754 41.7228 48.3619 40.9984 47.4623 40.9984ZM47.4623 47.78C46.5782 47.78 45.8492 48.5044 45.8492 49.3829C45.8492 50.2615 46.5782 50.9859 47.4623 50.9859C48.3619 50.9859 49.0754 50.2615 49.0754 49.3829C49.0754 48.5044 48.3619 47.78 47.4623 47.78ZM39.8156 47.78C38.9315 47.78 38.2025 48.5044 38.2025 49.3829C38.2025 50.2615 38.9315 50.9859 39.8156 50.9859C40.7152 50.9859 41.4287 50.2615 41.4287 49.3829C41.4442 48.5044 40.7152 47.78 39.8156 47.78ZM47.4623 20.6535C46.5782 20.6535 45.8492 21.3779 45.8492 22.2564C45.8492 23.1504 46.5782 23.8593 47.4623 23.8593C48.3619 23.8593 49.0754 23.1349 49.0754 22.2564C49.0754 21.3779 48.3619 20.6535 47.4623 20.6535ZM47.4623 27.4351C46.5782 27.4351 45.8492 28.1595 45.8492 29.038C45.8492 29.932 46.5782 30.641 47.4623 30.641C48.3619 30.641 49.0754 29.9166 49.0754 29.038C49.0754 28.1595 48.3619 27.4351 47.4623 27.4351ZM47.4623 34.2167C46.5782 34.2167 45.8492 34.9412 45.8492 35.8197C45.8492 36.6982 46.5782 37.4226 47.4623 37.4226C48.3619 37.4226 49.0754 36.6982 49.0754 35.8197C49.0754 34.9412 48.3619 34.2167 47.4623 34.2167ZM39.8156 71.3462C40.7152 71.3462 41.4287 70.6218 41.4287 69.7432C41.4287 68.8647 40.6997 68.1403 39.8156 68.1403C38.9315 68.1403 38.2025 68.8647 38.2025 69.7432C38.2025 70.6218 38.9315 71.3462 39.8156 71.3462ZM55.109 68.1249C54.318 68.1249 53.6665 68.6798 53.5269 69.4196C54.2559 69.0497 54.9694 68.6489 55.6674 68.2328C55.4813 68.1711 55.2951 68.1249 55.109 68.1249ZM70.3869 27.4351C69.4873 27.4351 68.7738 28.1595 68.7738 29.038C68.7738 29.932 69.5028 30.641 70.3869 30.641C71.271 30.641 72 29.9166 72 29.038C72 28.1595 71.271 27.4351 70.3869 27.4351ZM39.8156 0.308594C38.9315 0.308594 38.2025 1.033 38.2025 1.91152C38.2025 2.79005 38.9315 3.51446 39.8156 3.51446C40.7152 3.51446 41.4287 2.79005 41.4287 1.91152C41.4442 1.033 40.7152 0.308594 39.8156 0.308594ZM70.3869 47.78C69.4873 47.78 68.7738 48.5044 68.7738 49.3829C68.7738 50.2615 69.5028 50.9859 70.3869 50.9859C70.573 50.9859 70.7591 50.955 70.9298 50.8934C71.2555 50.1536 71.5502 49.4138 71.8294 48.6431C71.5502 48.1345 71.0073 47.78 70.3869 47.78ZM70.3869 20.6535C69.4873 20.6535 68.7738 21.3779 68.7738 22.2564C68.7738 23.1504 69.5028 23.8593 70.3869 23.8593C71.0073 23.8593 71.5502 23.5049 71.8294 22.9808C71.5502 22.2256 71.2555 21.4704 70.9298 20.746C70.7591 20.6843 70.573 20.6535 70.3869 20.6535ZM39.8156 40.9984C38.9315 40.9984 38.2025 41.7228 38.2025 42.6013C38.2025 43.4798 38.9315 44.2042 39.8156 44.2042C40.7152 44.2042 41.4287 43.4798 41.4287 42.6013C41.4442 41.7228 40.7152 40.9984 39.8156 40.9984ZM39.8156 7.09023C38.9315 7.09023 38.2025 7.81463 38.2025 8.69316C38.2025 9.57168 38.9315 10.2961 39.8156 10.2961C40.7152 10.2961 41.4287 9.57168 41.4287 8.69316C41.4442 7.81463 40.7152 7.09023 39.8156 7.09023ZM39.8156 27.4351C38.9315 27.4351 38.2025 28.1595 38.2025 29.038C38.2025 29.932 38.9315 30.641 39.8156 30.641C40.7152 30.641 41.4287 29.9166 41.4287 29.038C41.4442 28.1595 40.7152 27.4351 39.8156 27.4351ZM39.8156 13.8719C38.9315 13.8719 38.2025 14.5963 38.2025 15.4748C38.2025 16.3533 38.9315 17.0777 39.8156 17.0777C40.7152 17.0777 41.4287 16.3533 41.4287 15.4748C41.4442 14.5963 40.7152 13.8719 39.8156 13.8719ZM39.8156 20.6535C38.9315 20.6535 38.2025 21.3779 38.2025 22.2564C38.2025 23.1504 38.9315 23.8593 39.8156 23.8593C40.7152 23.8593 41.4287 23.1349 41.4287 22.2564C41.4442 21.3779 40.7152 20.6535 39.8156 20.6535ZM39.8156 34.2167C38.9315 34.2167 38.2025 34.9412 38.2025 35.8197C38.2025 36.6982 38.9315 37.4226 39.8156 37.4226C40.7152 37.4226 41.4287 36.6982 41.4287 35.8197C41.4442 34.9412 40.7152 34.2167 39.8156 34.2167ZM62.7402 40.9984C61.8561 40.9984 61.1271 41.7228 61.1271 42.6013C61.1271 43.4798 61.8561 44.2042 62.7402 44.2042C63.6398 44.2042 64.3533 43.4798 64.3533 42.6013C64.3688 41.7228 63.6398 40.9984 62.7402 40.9984ZM62.7402 27.4351C61.8561 27.4351 61.1271 28.1595 61.1271 29.038C61.1271 29.932 61.8561 30.641 62.7402 30.641C63.6398 30.641 64.3533 29.9166 64.3533 29.038C64.3688 28.1595 63.6398 27.4351 62.7402 27.4351ZM62.7402 34.2167C61.8561 34.2167 61.1271 34.9412 61.1271 35.8197C61.1271 36.6982 61.8561 37.4226 62.7402 37.4226C63.6398 37.4226 64.3533 36.6982 64.3533 35.8197C64.3688 34.9412 63.6398 34.2167 62.7402 34.2167ZM62.7402 20.6535C61.8561 20.6535 61.1271 21.3779 61.1271 22.2564C61.1271 23.1504 61.8561 23.8593 62.7402 23.8593C63.6398 23.8593 64.3533 23.1349 64.3533 22.2564C64.3688 21.3779 63.6398 20.6535 62.7402 20.6535ZM62.7402 10.2961C63.128 10.2961 63.4847 10.1574 63.7639 9.94159C63.0349 9.17095 62.2749 8.41572 61.4683 7.70674C61.2512 7.98417 61.1271 8.32325 61.1271 8.69316C61.1271 9.57168 61.8561 10.2961 62.7402 10.2961ZM62.7402 13.8719C61.8561 13.8719 61.1271 14.5963 61.1271 15.4748C61.1271 16.3533 61.8561 17.0777 62.7402 17.0777C63.6398 17.0777 64.3533 16.3533 64.3533 15.4748C64.3688 14.5963 63.6398 13.8719 62.7402 13.8719ZM70.3869 34.2167C69.4873 34.2167 68.7738 34.9412 68.7738 35.8197C68.7738 36.6982 69.5028 37.4226 70.3869 37.4226C71.271 37.4226 72 36.6982 72 35.8197C72 34.9412 71.271 34.2167 70.3869 34.2167ZM61.1271 62.9462C61.1271 63.3161 61.2512 63.6706 61.4683 63.9326C62.2594 63.2236 63.0349 62.4684 63.7639 61.6978C63.4847 61.482 63.128 61.3433 62.7402 61.3433C61.8561 61.3433 61.1271 62.0677 61.1271 62.9462ZM47.4623 68.1249C46.5782 68.1249 45.8492 68.8493 45.8492 69.7278C45.8492 70.6218 46.5782 71.3308 47.4623 71.3308C48.3619 71.3308 49.0754 70.6064 49.0754 69.7278C49.0754 68.8493 48.3619 68.1249 47.4623 68.1249ZM62.7402 54.5616C61.8561 54.5616 61.1271 55.286 61.1271 56.1646C61.1271 57.0431 61.8561 57.7675 62.7402 57.7675C63.6398 57.7675 64.3533 57.0431 64.3533 56.1646C64.3688 55.286 63.6398 54.5616 62.7402 54.5616ZM62.7402 47.78C61.8561 47.78 61.1271 48.5044 61.1271 49.3829C61.1271 50.2615 61.8561 50.9859 62.7402 50.9859C63.6398 50.9859 64.3533 50.2615 64.3533 49.3829C64.3688 48.5044 63.6398 47.78 62.7402 47.78ZM70.3869 40.9984C69.4873 40.9984 68.7738 41.7228 68.7738 42.6013C68.7738 43.4798 69.5028 44.2042 70.3869 44.2042C71.271 44.2042 72 43.4798 72 42.6013C72 41.7228 71.271 40.9984 70.3869 40.9984ZM55.109 54.5616C54.2094 54.5616 53.4959 55.286 53.4959 56.1646C53.4959 57.0431 54.2249 57.7675 55.109 57.7675C55.9931 57.7675 56.7221 57.0431 56.7221 56.1646C56.7221 55.286 55.9931 54.5616 55.109 54.5616ZM55.109 20.6535C54.2094 20.6535 53.4959 21.3779 53.4959 22.2564C53.4959 23.1504 54.2249 23.8593 55.109 23.8593C55.9931 23.8593 56.7221 23.1349 56.7221 22.2564C56.7221 21.3779 55.9931 20.6535 55.109 20.6535ZM55.109 13.8719C54.2094 13.8719 53.4959 14.5963 53.4959 15.4748C53.4959 16.3533 54.2249 17.0777 55.109 17.0777C55.9931 17.0777 56.7221 16.3533 56.7221 15.4748C56.7221 14.5963 55.9931 13.8719 55.109 13.8719ZM55.109 3.51446C55.2951 3.51446 55.4813 3.48363 55.6674 3.42198C54.9694 3.00583 54.2559 2.6051 53.5269 2.23519C53.6665 2.95959 54.318 3.51446 55.109 3.51446ZM47.4623 61.3433C46.5782 61.3433 45.8492 62.0677 45.8492 62.9462C45.8492 63.8401 46.5782 64.5491 47.4623 64.5491C48.3619 64.5491 49.0754 63.8247 49.0754 62.9462C49.0754 62.0677 48.3619 61.3433 47.4623 61.3433ZM55.109 7.09023C54.2094 7.09023 53.4959 7.81463 53.4959 8.69316C53.4959 9.57168 54.2249 10.2961 55.109 10.2961C55.9931 10.2961 56.7221 9.57168 56.7221 8.69316C56.7221 7.81463 55.9931 7.09023 55.109 7.09023ZM55.109 61.3433C54.2094 61.3433 53.4959 62.0677 53.4959 62.9462C53.4959 63.8401 54.2249 64.5491 55.109 64.5491C55.9931 64.5491 56.7221 63.8247 56.7221 62.9462C56.7221 62.0677 55.9931 61.3433 55.109 61.3433ZM55.109 47.78C54.2094 47.78 53.4959 48.5044 53.4959 49.3829C53.4959 50.2615 54.2249 50.9859 55.109 50.9859C55.9931 50.9859 56.7221 50.2615 56.7221 49.3829C56.7221 48.5044 55.9931 47.78 55.109 47.78ZM55.109 27.4351C54.2094 27.4351 53.4959 28.1595 53.4959 29.038C53.4959 29.932 54.2249 30.641 55.109 30.641C55.9931 30.641 56.7221 29.9166 56.7221 29.038C56.7221 28.1595 55.9931 27.4351 55.109 27.4351ZM55.109 34.2167C54.2094 34.2167 53.4959 34.9412 53.4959 35.8197C53.4959 36.6982 54.2249 37.4226 55.109 37.4226C55.9931 37.4226 56.7221 36.6982 56.7221 35.8197C56.7221 34.9412 55.9931 34.2167 55.109 34.2167ZM55.109 40.9984C54.2094 40.9984 53.4959 41.7228 53.4959 42.6013C53.4959 43.4798 54.2249 44.2042 55.109 44.2042C55.9931 44.2042 56.7221 43.4798 56.7221 42.6013C56.7221 41.7228 55.9931 40.9984 55.109 40.9984ZM24.5377 71.3462C25.4218 71.3462 26.1508 70.6218 26.1508 69.7432C26.1508 68.8647 25.4218 68.1403 24.5377 68.1403C23.6381 68.1403 22.9246 68.8647 22.9246 69.7432C22.9246 70.6218 23.6536 71.3462 24.5377 71.3462ZM24.5377 44.2042C25.4218 44.2042 26.1508 43.4798 26.1508 42.6013C26.1508 41.7074 25.4218 40.9984 24.5377 40.9984C23.6381 40.9984 22.9246 41.7228 22.9246 42.6013C22.9246 43.4953 23.6536 44.2042 24.5377 44.2042ZM24.5377 50.9859C25.4218 50.9859 26.1508 50.2615 26.1508 49.3829C26.1508 48.489 25.4218 47.78 24.5377 47.78C23.6381 47.78 22.9246 48.5044 22.9246 49.3829C22.9246 50.2769 23.6536 50.9859 24.5377 50.9859ZM24.5377 64.5645C25.4218 64.5645 26.1508 63.8401 26.1508 62.9616C26.1508 62.0831 25.4218 61.3587 24.5377 61.3587C23.6381 61.3587 22.9246 62.0831 22.9246 62.9616C22.9246 63.8401 23.6536 64.5645 24.5377 64.5645ZM16.9065 68.1249C16.7049 68.1249 16.5187 68.1557 16.3481 68.2328C17.0461 68.6489 17.7596 69.0497 18.4886 69.4196C18.3335 68.6798 17.682 68.1249 16.9065 68.1249ZM24.5377 37.4226C25.4218 37.4226 26.1508 36.6982 26.1508 35.8197C26.1508 34.9257 25.4218 34.2167 24.5377 34.2167C23.6381 34.2167 22.9246 34.9412 22.9246 35.8197C22.9246 36.7136 23.6536 37.4226 24.5377 37.4226ZM24.5377 30.641C25.4218 30.641 26.1508 29.9166 26.1508 29.038C26.1508 28.1595 25.4218 27.4351 24.5377 27.4351C23.6381 27.4351 22.9246 28.1595 22.9246 29.038C22.9246 29.932 23.6536 30.641 24.5377 30.641ZM24.5377 10.2961C25.4218 10.2961 26.1508 9.57168 26.1508 8.69316C26.1508 7.79921 25.4218 7.09023 24.5377 7.09023C23.6381 7.09023 22.9246 7.81463 22.9246 8.69316C22.9246 9.57168 23.6536 10.2961 24.5377 10.2961ZM24.5377 3.51446C25.4218 3.51446 26.1508 2.79005 26.1508 1.91152C26.1508 1.033 25.4373 0.308594 24.5377 0.308594C23.6381 0.308594 22.9246 1.033 22.9246 1.91152C22.9246 2.80547 23.6536 3.51446 24.5377 3.51446ZM32.1844 17.0777C33.0685 17.0777 33.7975 16.3533 33.7975 15.4748C33.7975 14.5808 33.0685 13.8719 32.1844 13.8719C31.2848 13.8719 30.5713 14.5963 30.5713 15.4748C30.5713 16.3687 31.2848 17.0777 32.1844 17.0777ZM24.5377 17.0777C25.4218 17.0777 26.1508 16.3533 26.1508 15.4748C26.1508 14.5808 25.4218 13.8719 24.5377 13.8719C23.6381 13.8719 22.9246 14.5963 22.9246 15.4748C22.9246 16.3687 23.6536 17.0777 24.5377 17.0777ZM24.5377 23.8593C25.4218 23.8593 26.1508 23.1349 26.1508 22.2564C26.1508 21.3779 25.4218 20.6535 24.5377 20.6535C23.6381 20.6535 22.9246 21.3779 22.9246 22.2564C22.9246 23.1504 23.6536 23.8593 24.5377 23.8593ZM24.5377 57.7675C25.4218 57.7675 26.1508 57.0431 26.1508 56.1646C26.1508 55.2706 25.4218 54.5616 24.5377 54.5616C23.6381 54.5616 22.9246 55.286 22.9246 56.1646C22.9246 57.0585 23.6536 57.7675 24.5377 57.7675ZM32.1844 57.7675C33.0685 57.7675 33.7975 57.0431 33.7975 56.1646C33.7975 55.2706 33.0685 54.5616 32.1844 54.5616C31.2848 54.5616 30.5713 55.286 30.5713 56.1646C30.5713 57.0585 31.2848 57.7675 32.1844 57.7675ZM32.1844 71.3462C33.0685 71.3462 33.7975 70.6218 33.7975 69.7432C33.7975 68.8647 33.0685 68.1403 32.1844 68.1403C31.2848 68.1403 30.5713 68.8647 30.5713 69.7432C30.5713 70.6218 31.2848 71.3462 32.1844 71.3462ZM32.1844 64.5645C33.0685 64.5645 33.7975 63.8401 33.7975 62.9616C33.7975 62.0831 33.0685 61.3587 32.1844 61.3587C31.2848 61.3587 30.5713 62.0831 30.5713 62.9616C30.5713 63.8401 31.2848 64.5645 32.1844 64.5645ZM16.9065 3.51446C17.682 3.51446 18.349 2.95959 18.4886 2.21978C17.7596 2.58969 17.0461 2.99042 16.3481 3.40657C16.5187 3.48363 16.7049 3.51446 16.9065 3.51446ZM10.8729 8.69316C10.8729 8.32325 10.7488 7.98417 10.5317 7.70674C9.74063 8.41572 8.98061 9.15554 8.2361 9.94159C8.5153 10.1728 8.87204 10.2961 9.2598 10.2961C10.1439 10.2961 10.8729 9.57168 10.8729 8.69316ZM32.1844 23.8593C33.0685 23.8593 33.7975 23.1349 33.7975 22.2564C33.7975 21.3779 33.0685 20.6535 32.1844 20.6535C31.2848 20.6535 30.5713 21.3779 30.5713 22.2564C30.5713 23.1504 31.2848 23.8593 32.1844 23.8593ZM32.1844 30.641C33.0685 30.641 33.7975 29.9166 33.7975 29.038C33.7975 28.1595 33.0685 27.4351 32.1844 27.4351C31.2848 27.4351 30.5713 28.1595 30.5713 29.038C30.5713 29.932 31.2848 30.641 32.1844 30.641ZM32.1844 50.9859C33.0685 50.9859 33.7975 50.2615 33.7975 49.3829C33.7975 48.489 33.0685 47.78 32.1844 47.78C31.2848 47.78 30.5713 48.5044 30.5713 49.3829C30.5713 50.2769 31.2848 50.9859 32.1844 50.9859ZM32.1844 10.2961C33.0685 10.2961 33.7975 9.57168 33.7975 8.69316C33.7975 7.79921 33.0685 7.09023 32.1844 7.09023C31.2848 7.09023 30.5713 7.81463 30.5713 8.69316C30.5713 9.57168 31.2848 10.2961 32.1844 10.2961ZM32.1844 37.4226C33.0685 37.4226 33.7975 36.6982 33.7975 35.8197C33.7975 34.9257 33.0685 34.2167 32.1844 34.2167C31.2848 34.2167 30.5713 34.9412 30.5713 35.8197C30.5713 36.7136 31.2848 37.4226 32.1844 37.4226ZM32.1844 44.2042C33.0685 44.2042 33.7975 43.4798 33.7975 42.6013C33.7975 41.7074 33.0685 40.9984 32.1844 40.9984C31.2848 40.9984 30.5713 41.7228 30.5713 42.6013C30.5713 43.4953 31.2848 44.2042 32.1844 44.2042ZM32.1844 0.308594C31.2848 0.308594 30.5713 1.033 30.5713 1.91152C30.5713 2.79005 31.3003 3.51446 32.1844 3.51446C33.0685 3.51446 33.7975 2.79005 33.7975 1.91152C33.7975 1.033 33.0685 0.308594 32.1844 0.308594ZM16.9065 20.6535C16.0069 20.6535 15.2934 21.3779 15.2934 22.2564C15.2934 23.1504 16.0224 23.8593 16.9065 23.8593C17.7906 23.8593 18.5196 23.1349 18.5196 22.2564C18.5196 21.3779 17.7906 20.6535 16.9065 20.6535ZM16.9065 13.8719C16.0069 13.8719 15.2934 14.5963 15.2934 15.4748C15.2934 16.3533 16.0224 17.0777 16.9065 17.0777C17.7906 17.0777 18.5196 16.3533 18.5196 15.4748C18.5196 14.5963 17.7906 13.8719 16.9065 13.8719ZM16.9065 27.4351C16.0069 27.4351 15.2934 28.1595 15.2934 29.038C15.2934 29.932 16.0224 30.641 16.9065 30.641C17.7906 30.641 18.5196 29.9166 18.5196 29.038C18.5196 28.1595 17.7906 27.4351 16.9065 27.4351ZM16.9065 7.09023C16.0069 7.09023 15.2934 7.81463 15.2934 8.69316C15.2934 9.57168 16.0224 10.2961 16.9065 10.2961C17.7906 10.2961 18.5196 9.57168 18.5196 8.69316C18.5196 7.81463 17.7906 7.09023 16.9065 7.09023ZM9.2598 47.78C8.3757 47.78 7.6467 48.5044 7.6467 49.3829C7.6467 50.2615 8.3757 50.9859 9.2598 50.9859C10.1594 50.9859 10.8729 50.2615 10.8729 49.3829C10.8729 48.5044 10.1439 47.78 9.2598 47.78ZM16.9065 47.78C16.0069 47.78 15.2934 48.5044 15.2934 49.3829C15.2934 50.2615 16.0224 50.9859 16.9065 50.9859C17.7906 50.9859 18.5196 50.2615 18.5196 49.3829C18.5196 48.5044 17.7906 47.78 16.9065 47.78ZM16.9065 54.5616C16.0069 54.5616 15.2934 55.286 15.2934 56.1646C15.2934 57.0431 16.0224 57.7675 16.9065 57.7675C17.7906 57.7675 18.5196 57.0431 18.5196 56.1646C18.5196 55.286 17.7906 54.5616 16.9065 54.5616ZM16.9065 61.3433C16.0069 61.3433 15.2934 62.0677 15.2934 62.9462C15.2934 63.8401 16.0224 64.5491 16.9065 64.5491C17.7906 64.5491 18.5196 63.8247 18.5196 62.9462C18.5196 62.0677 17.7906 61.3433 16.9065 61.3433ZM9.2598 54.5616C8.3757 54.5616 7.6467 55.286 7.6467 56.1646C7.6467 57.0431 8.3757 57.7675 9.2598 57.7675C10.1594 57.7675 10.8729 57.0431 10.8729 56.1646C10.8729 55.286 10.1439 54.5616 9.2598 54.5616ZM16.9065 40.9984C16.0069 40.9984 15.2934 41.7228 15.2934 42.6013C15.2934 43.4798 16.0224 44.2042 16.9065 44.2042C17.7906 44.2042 18.5196 43.4798 18.5196 42.6013C18.5196 41.7228 17.7906 40.9984 16.9065 40.9984ZM16.9065 34.2167C16.0069 34.2167 15.2934 34.9412 15.2934 35.8197C15.2934 36.6982 16.0224 37.4226 16.9065 37.4226C17.7906 37.4226 18.5196 36.6982 18.5196 35.8197C18.5196 34.9412 17.7906 34.2167 16.9065 34.2167ZM9.2598 34.2167C8.3757 34.2167 7.6467 34.9412 7.6467 35.8197C7.6467 36.6982 8.3757 37.4226 9.2598 37.4226C10.1594 37.4226 10.8729 36.6982 10.8729 35.8197C10.8729 34.9412 10.1439 34.2167 9.2598 34.2167ZM1.6131 34.2167C0.728996 34.2167 0 34.9412 0 35.8197C0 36.6982 0.728996 37.4226 1.6131 37.4226C2.4972 37.4226 3.2262 36.6982 3.2262 35.8197C3.2262 34.9412 2.51271 34.2167 1.6131 34.2167ZM9.2598 40.9984C8.3757 40.9984 7.6467 41.7228 7.6467 42.6013C7.6467 43.4798 8.3757 44.2042 9.2598 44.2042C10.1594 44.2042 10.8729 43.4798 10.8729 42.6013C10.8729 41.7228 10.1439 40.9984 9.2598 40.9984ZM1.6131 27.4351C0.728996 27.4351 0 28.1595 0 29.038C0 29.932 0.728996 30.641 1.6131 30.641C2.4972 30.641 3.2262 29.9166 3.2262 29.038C3.2262 28.1595 2.51271 27.4351 1.6131 27.4351ZM3.2262 49.3829C3.2262 48.489 2.4972 47.78 1.6131 47.78C0.992675 47.78 0.449806 48.1345 0.170616 48.6585C0.449806 49.4138 0.744507 50.169 1.07023 50.9088C1.24084 50.9705 1.42697 51.0013 1.6131 51.0013C2.51271 50.9859 3.2262 50.2769 3.2262 49.3829ZM1.6131 44.2042C2.4972 44.2042 3.2262 43.4798 3.2262 42.6013C3.2262 41.7074 2.4972 40.9984 1.6131 40.9984C0.728996 40.9984 0 41.7228 0 42.6013C0 43.4953 0.728996 44.2042 1.6131 44.2042ZM1.6131 23.8593C2.4972 23.8593 3.2262 23.1349 3.2262 22.2564C3.2262 21.3779 2.4972 20.6535 1.6131 20.6535C1.42697 20.6535 1.24084 20.6843 1.07023 20.746C0.744507 21.4858 0.449806 22.2256 0.170616 22.9808C0.449806 23.5049 0.992675 23.8593 1.6131 23.8593ZM9.2598 27.4351C8.3757 27.4351 7.6467 28.1595 7.6467 29.038C7.6467 29.932 8.3757 30.641 9.2598 30.641C10.1594 30.641 10.8729 29.9166 10.8729 29.038C10.8729 28.1595 10.1439 27.4351 9.2598 27.4351ZM9.2598 13.8719C8.3757 13.8719 7.6467 14.5963 7.6467 15.4748C7.6467 16.3533 8.3757 17.0777 9.2598 17.0777C10.1594 17.0777 10.8729 16.3533 10.8729 15.4748C10.8729 14.5963 10.1439 13.8719 9.2598 13.8719ZM9.2598 61.3433C8.87204 61.3433 8.5153 61.482 8.2361 61.6978C8.9651 62.4684 9.72512 63.2236 10.5317 63.9326C10.7488 63.6706 10.8729 63.3161 10.8729 62.9462C10.8729 62.0677 10.1439 61.3433 9.2598 61.3433ZM9.2598 20.6535C8.3757 20.6535 7.6467 21.3779 7.6467 22.2564C7.6467 23.1504 8.3757 23.8593 9.2598 23.8593C10.1594 23.8593 10.8729 23.1349 10.8729 22.2564C10.8729 21.3779 10.1439 20.6535 9.2598 20.6535Z" fill="#272BFF"/>
</svg>
