<svg width="95" height="227" viewBox="0 0 95 227" fill="none" xmlns="http://www.w3.org/2000/svg">
<path d="M121.401 225.678C183.312 225.678 233.501 175.463 233.501 113.519C233.501 51.5748 183.312 1.35938 121.401 1.35938C59.4897 1.35938 9.30078 51.5748 9.30078 113.519C9.30078 175.463 59.4897 225.678 121.401 225.678Z" stroke="#F6463A" stroke-miterlimit="10"/>
<path d="M54.4678 188.713C56.1119 177.802 49.3 167.509 39.253 165.724C29.206 163.938 19.7285 171.336 18.0844 182.247C16.4402 193.158 23.2521 203.45 33.2991 205.236C43.3461 207.021 52.8236 199.624 54.4678 188.713Z" stroke="#FF7882" stroke-miterlimit="10"/>
<path d="M40.0885 174.692C42.4014 163.926 36.2399 153.162 26.3263 150.65C16.4126 148.139 6.50099 154.83 4.18801 165.596C1.87504 176.362 8.03659 187.126 17.9502 189.638C27.8639 192.15 37.7755 185.458 40.0885 174.692Z" fill="#F8746B"/>
</svg>
