<svg width="131" height="272" viewBox="0 0 131 272" fill="none" xmlns="http://www.w3.org/2000/svg">
<path d="M85.4168 44.9281C79.558 39.0663 70.0592 39.0663 64.2004 44.9281C58.3417 50.79 58.3417 60.2939 64.2004 66.1557C70.0592 72.0176 79.558 72.0176 85.4168 66.1557C91.2755 60.2939 91.2755 50.79 85.4168 44.9281Z" fill="#F6463A"/>
<path d="M-14.5742 270.908C12.444 270.908 34.3919 248.949 34.3919 221.916L34.3919 0.652703" stroke="black" stroke-width="0.7883" stroke-miterlimit="10"/>
<path d="M-78.543 51.3815L47.241 51.3814C71.342 51.3814 90.9285 70.9783 90.9285 95.0921C90.9285 119.206 71.342 138.803 47.241 138.803L-78.543 138.803" stroke="black" stroke-width="0.8325" stroke-miterlimit="10"/>
<path d="M-78.543 57.7745L47.241 57.7745C67.7998 57.7745 84.5386 74.5221 84.5386 95.0918C84.5386 115.662 67.7998 132.409 47.241 132.409L-78.543 132.409" stroke="black" stroke-width="0.8325" stroke-miterlimit="10"/>
<path d="M-78.543 64.0982L47.241 64.0982C64.327 64.0982 78.1487 77.9966 78.1487 95.0222C78.1487 112.117 64.2576 125.946 47.241 125.946L-78.543 125.946" stroke="black" stroke-width="0.8325" stroke-miterlimit="10"/>
<path d="M-78.543 70.4919L47.241 70.4919C60.7848 70.4919 71.8282 81.5411 71.8282 95.0921C71.8282 108.643 60.7848 119.692 47.241 119.692L-78.543 119.692" stroke="black" stroke-width="0.8325" stroke-miterlimit="10"/>
<path d="M10.9154 31.438C10.9154 30.5936 10.2313 29.9091 9.38739 29.9091C8.54349 29.9091 7.85937 30.5936 7.85937 31.438C7.85937 32.2823 8.54349 32.9668 9.38739 32.9668C10.2313 32.9668 10.9154 32.2823 10.9154 31.438Z" fill="black"/>
<path d="M10.9154 11.2856C10.9154 10.4413 10.2313 9.75678 9.38739 9.75678C8.54349 9.75678 7.85937 10.4413 7.85937 11.2856C7.85937 12.13 8.54349 12.8145 9.38739 12.8145C10.2313 12.8145 10.9154 12.13 10.9154 11.2856Z" fill="black"/>
<path d="M30.849 31.438C30.849 30.5936 30.1649 29.9091 29.321 29.9091C28.4771 29.9091 27.793 30.5936 27.793 31.438C27.793 32.2823 28.4771 32.9668 29.321 32.9668C30.1649 32.9668 30.849 32.2823 30.849 31.438Z" fill="black"/>
<path d="M30.849 11.2856C30.849 10.4413 30.1649 9.75678 29.321 9.75678C28.4771 9.75678 27.793 10.4413 27.793 11.2856C27.793 12.13 28.4771 12.8145 29.321 12.8145C30.1649 12.8145 30.849 12.13 30.849 11.2856Z" fill="black"/>
<path d="M49.2546 29.9091C50.088 29.9091 50.7826 30.6041 50.7826 31.438C50.7826 32.2719 50.088 32.9668 49.2546 32.9668C48.4211 32.9668 47.7266 32.2719 47.7266 31.438C47.7266 30.6041 48.4211 29.9091 49.2546 29.9091Z" fill="black"/>
<path d="M49.2546 9.75678C50.088 9.75678 50.7826 10.4517 50.7826 11.2856C50.7826 12.1195 50.088 12.8145 49.2546 12.8145C48.4211 12.8145 47.7266 12.1195 47.7266 11.2856C47.7266 10.4517 48.4211 9.75678 49.2546 9.75678Z" fill="black"/>
<path d="M69.2585 29.9091C70.092 29.9091 70.7865 30.6041 70.7865 31.438C70.7865 32.2719 70.092 32.9668 69.2585 32.9668C68.425 32.9668 67.7305 32.2719 67.7305 31.438C67.7305 30.6041 68.3556 29.9091 69.2585 29.9091Z" fill="black"/>
<path d="M69.2585 9.75678C70.092 9.75678 70.7865 10.4517 70.7865 11.2856C70.7865 12.1195 70.092 12.8145 69.2585 12.8145C68.425 12.8145 67.7305 12.1195 67.7305 11.2856C67.7305 10.4517 68.3556 9.75678 69.2585 9.75678Z" fill="black"/>
<path d="M90.7201 31.438C90.7201 30.5936 90.036 29.9091 89.1921 29.9091C88.3482 29.9091 87.6641 30.5936 87.6641 31.438C87.6641 32.2823 88.3482 32.9668 89.1921 32.9668C90.036 32.9668 90.7201 32.2823 90.7201 31.438Z" fill="black"/>
<path d="M90.7201 11.2856C90.7201 10.4413 90.036 9.75678 89.1921 9.75678C88.3482 9.75678 87.6641 10.4413 87.6641 11.2856C87.6641 12.13 88.3482 12.8145 89.1921 12.8145C90.036 12.8145 90.7201 12.13 90.7201 11.2856Z" fill="black"/>
<path d="M110.654 31.438C110.654 30.5936 109.97 29.9091 109.126 29.9091C108.282 29.9091 107.598 30.5936 107.598 31.438C107.598 32.2823 108.282 32.9668 109.126 32.9668C109.97 32.9668 110.654 32.2823 110.654 31.438Z" fill="black"/>
<path d="M110.654 11.2856C110.654 10.4413 109.97 9.75678 109.126 9.75678C108.282 9.75678 107.598 10.4413 107.598 11.2856C107.598 12.13 108.282 12.8145 109.126 12.8145C109.97 12.8145 110.654 12.13 110.654 11.2856Z" fill="black"/>
<path d="M129.13 29.9091C129.963 29.9091 130.658 30.6041 130.658 31.438C130.658 32.2719 129.963 32.9668 129.13 32.9668C128.296 32.9668 127.602 32.2719 127.602 31.438C127.602 30.6041 128.227 29.9091 129.13 29.9091Z" fill="black"/>
<path d="M129.129 9.75678C129.962 9.75678 130.657 10.4517 130.657 11.2856C130.657 12.1195 129.962 12.8145 129.129 12.8145C128.295 12.8145 127.6 12.1195 127.6 11.2856C127.531 10.4517 128.226 9.75678 129.129 9.75678Z" fill="black"/>
</svg>
