<svg width="280" height="146" viewBox="0 0 280 146" fill="none" xmlns="http://www.w3.org/2000/svg">
<path d="M199.445 116.894C198.362 116.894 197.28 117.609 197.023 118.49C196.772 119.371 197.445 120.092 198.527 120.092C199.61 120.092 200.692 119.377 200.949 118.49C201.2 117.609 200.527 116.894 199.445 116.894Z" fill="#444444"/>
<path d="M209.854 116.894C208.772 116.894 207.689 117.609 207.432 118.49C207.181 119.371 207.848 120.092 208.937 120.092C210.019 120.092 211.102 119.377 211.359 118.49C211.609 117.609 210.937 116.894 209.854 116.894Z" fill="#444444"/>
<path d="M220.264 116.894C219.181 116.894 218.098 117.609 217.842 118.49C217.591 119.371 218.264 120.092 219.346 120.092C220.429 120.092 221.511 119.377 221.768 118.49C222.019 117.609 221.346 116.894 220.264 116.894Z" fill="#444444"/>
<path d="M230.673 116.894C229.59 116.894 228.508 117.609 228.251 118.49C228 119.371 228.673 120.092 229.755 120.092C230.838 120.092 231.92 119.377 232.177 118.49C232.428 117.609 231.755 116.894 230.673 116.894Z" fill="#444444"/>
<path d="M197.586 123.37C196.503 123.37 195.421 124.086 195.164 124.966C194.913 125.847 195.586 126.563 196.668 126.563C197.751 126.563 198.833 125.847 199.09 124.966C199.341 124.086 198.668 123.37 197.586 123.37Z" fill="#444444"/>
<path d="M207.995 123.37C206.912 123.37 205.83 124.086 205.573 124.966C205.322 125.847 205.989 126.563 207.077 126.563C208.16 126.563 209.242 125.847 209.499 124.966C209.75 124.086 209.077 123.37 207.995 123.37Z" fill="#444444"/>
<path d="M218.404 123.37C217.322 123.37 216.239 124.086 215.982 124.966C215.732 125.847 216.404 126.563 217.487 126.563C218.569 126.563 219.652 125.847 219.909 124.966C220.16 124.086 219.487 123.37 218.404 123.37Z" fill="#444444"/>
<path d="M228.814 123.37C227.731 123.37 226.649 124.086 226.392 124.966C226.141 125.847 226.814 126.563 227.896 126.563C228.979 126.563 230.061 125.847 230.318 124.966C230.569 124.086 229.896 123.37 228.814 123.37Z" fill="#444444"/>
<path d="M195.726 129.847C194.644 129.847 193.561 130.563 193.304 131.45C193.054 132.33 193.726 133.046 194.809 133.046C195.891 133.046 196.974 132.33 197.231 131.45C197.488 130.569 196.809 129.847 195.726 129.847Z" fill="#444444"/>
<path d="M206.136 129.847C205.053 129.847 203.971 130.563 203.714 131.45C203.463 132.33 204.13 133.046 205.218 133.046C206.301 133.046 207.383 132.33 207.64 131.45C207.897 130.569 207.218 129.847 206.136 129.847Z" fill="#444444"/>
<path d="M216.545 129.847C215.463 129.847 214.38 130.563 214.123 131.45C213.872 132.33 214.545 133.046 215.628 133.046C216.71 133.046 217.793 132.33 218.05 131.45C218.306 130.569 217.628 129.847 216.545 129.847Z" fill="#444444"/>
<path d="M226.954 129.847C225.872 129.847 224.789 130.563 224.532 131.45C224.282 132.33 224.954 133.046 226.037 133.046C227.119 133.046 228.202 132.33 228.459 131.45C228.709 130.563 228.037 129.847 226.954 129.847Z" fill="#444444"/>
<path d="M193.867 136.324C192.784 136.324 191.702 137.039 191.445 137.926C191.194 138.807 191.867 139.522 192.95 139.522C194.032 139.522 195.115 138.807 195.371 137.926C195.622 137.039 194.949 136.324 193.867 136.324Z" fill="#444444"/>
<path d="M204.276 136.324C203.194 136.324 202.111 137.039 201.854 137.926C201.604 138.807 202.27 139.522 203.359 139.522C204.441 139.522 205.524 138.807 205.781 137.926C206.032 137.039 205.359 136.324 204.276 136.324Z" fill="#444444"/>
<path d="M214.686 136.324C213.603 136.324 212.521 137.039 212.264 137.926C212.013 138.807 212.686 139.522 213.768 139.522C214.851 139.522 215.933 138.807 216.19 137.926C216.441 137.039 215.768 136.324 214.686 136.324Z" fill="#444444"/>
<path d="M225.095 136.324C224.013 136.324 222.93 137.039 222.673 137.926C222.422 138.807 223.095 139.522 224.178 139.522C225.26 139.522 226.343 138.807 226.6 137.926C226.85 137.039 226.178 136.324 225.095 136.324Z" fill="#444444"/>
<path d="M192.008 142.801C190.925 142.801 189.843 143.516 189.586 144.403C189.335 145.284 190.008 145.999 191.09 145.999C192.173 145.999 193.255 145.284 193.512 144.403C193.763 143.516 193.09 142.801 192.008 142.801Z" fill="#444444"/>
<path d="M202.417 142.801C201.335 142.801 200.252 143.516 199.995 144.403C199.744 145.284 200.411 145.999 201.5 145.999C202.582 145.999 203.665 145.284 203.922 144.403C204.172 143.516 203.5 142.801 202.417 142.801Z" fill="#444444"/>
<path d="M212.826 142.801C211.744 142.801 210.661 143.516 210.404 144.403C210.154 145.284 210.826 145.999 211.909 145.999C212.992 145.999 214.074 145.284 214.331 144.403C214.582 143.516 213.909 142.801 212.826 142.801Z" fill="#444444"/>
<path d="M223.236 142.801C222.153 142.801 221.071 143.516 220.814 144.403C220.563 145.284 221.236 145.999 222.318 145.999C223.401 145.999 224.483 145.284 224.74 144.403C224.991 143.516 224.318 142.801 223.236 142.801Z" fill="#444444"/>
<path d="M9.91136 80.3447C8.82883 80.3447 7.74631 81.0603 7.48944 81.941C7.23869 82.8217 7.91144 83.5434 8.99396 83.5434C10.0765 83.5434 11.159 82.8278 11.4159 81.941C11.6666 81.0603 10.9939 80.3447 9.91136 80.3447Z" fill="#444444"/>
<path d="M20.3207 80.3447C19.2382 80.3447 18.1557 81.0603 17.8988 81.941C17.6481 82.8217 18.3147 83.5434 19.4033 83.5434C20.4859 83.5434 21.5684 82.8278 21.8253 81.941C22.076 81.0603 21.4033 80.3447 20.3207 80.3447Z" fill="#444444"/>
<path d="M30.7302 80.3447C29.6477 80.3447 28.5652 81.0603 28.3083 81.941C28.0575 82.8217 28.7303 83.5434 29.8128 83.5434C30.8953 83.5434 31.9779 82.8278 32.2347 81.941C32.4855 81.0603 31.8127 80.3447 30.7302 80.3447Z" fill="#444444"/>
<path d="M41.1395 80.3447C40.057 80.3447 38.9745 81.0603 38.7176 81.941C38.4668 82.8217 39.1396 83.5434 40.2221 83.5434C41.3046 83.5434 42.3872 82.8278 42.644 81.941C42.8948 81.0603 42.222 80.3447 41.1395 80.3447Z" fill="#444444"/>
<path d="M8.05223 86.8276C6.9697 86.8276 5.88718 87.5432 5.63031 88.4239C5.37956 89.3046 6.05231 90.0202 7.13483 90.0202C8.21736 90.0202 9.29988 89.3046 9.55675 88.4239C9.8075 87.5371 9.13475 86.8276 8.05223 86.8276Z" fill="#444444"/>
<path d="M18.4615 86.8276C17.379 86.8276 16.2964 87.5432 16.0396 88.4239C15.7888 89.3046 16.4554 90.0202 17.5441 90.0202C18.6266 90.0202 19.7091 89.3046 19.966 88.4239C20.2168 87.5371 19.544 86.8276 18.4615 86.8276Z" fill="#444444"/>
<path d="M28.8708 86.8276C27.7883 86.8276 26.7058 87.5432 26.4489 88.4239C26.1982 89.3046 26.8709 90.0202 27.9534 90.0202C29.036 90.0202 30.1185 89.3046 30.3754 88.4239C30.6261 87.5371 29.9534 86.8276 28.8708 86.8276Z" fill="#444444"/>
<path d="M39.2801 86.8276C38.1976 86.8276 37.1151 87.5432 36.8582 88.4239C36.6075 89.3046 37.2802 90.0202 38.3627 90.0202C39.4453 90.0202 40.5278 89.3046 40.7847 88.4239C41.0354 87.5371 40.3627 86.8276 39.2801 86.8276Z" fill="#444444"/>
<path d="M6.19285 93.3042C5.11033 93.3042 4.0278 94.0198 3.77093 94.9066C3.52018 95.7873 4.19293 96.5028 5.27546 96.5028C6.35798 96.5028 7.44051 95.7873 7.69738 94.9066C7.94813 94.0198 7.27537 93.3042 6.19285 93.3042Z" fill="#444444"/>
<path d="M16.6021 93.3042C15.5196 93.3042 14.4371 94.0198 14.1802 94.9066C13.9294 95.7873 14.5961 96.5028 15.6847 96.5028C16.7672 96.5028 17.8498 95.7873 18.1066 94.9066C18.3574 94.0198 17.6846 93.3042 16.6021 93.3042Z" fill="#444444"/>
<path d="M27.0117 93.3042C25.9292 93.3042 24.8467 94.0198 24.5898 94.9066C24.339 95.7873 25.0118 96.5028 26.0943 96.5028C27.1768 96.5028 28.2594 95.7873 28.5162 94.9066C28.767 94.0198 28.0942 93.3042 27.0117 93.3042Z" fill="#444444"/>
<path d="M37.421 93.3042C36.3385 93.3042 35.256 94.0198 34.9991 94.9066C34.7483 95.7873 35.4211 96.5028 36.5036 96.5028C37.5861 96.5028 38.6687 95.7873 38.9255 94.9066C39.1763 94.0198 38.5035 93.3042 37.421 93.3042Z" fill="#444444"/>
<path d="M4.33372 99.7812C3.2512 99.7812 2.16867 100.497 1.9118 101.384C1.66105 102.264 2.3338 102.98 3.41633 102.98C4.49885 102.98 5.58137 102.264 5.83824 101.384C6.089 100.497 5.41624 99.7812 4.33372 99.7812Z" fill="#444444"/>
<path d="M14.743 99.7812C13.6604 99.7812 12.5779 100.497 12.3211 101.384C12.0703 102.264 12.7369 102.98 13.8256 102.98C14.9081 102.98 15.9906 102.264 16.2475 101.384C16.4982 100.497 15.8255 99.7812 14.743 99.7812Z" fill="#444444"/>
<path d="M25.1523 99.7812C24.0698 99.7812 22.9873 100.497 22.7304 101.384C22.4797 102.264 23.1524 102.98 24.2349 102.98C25.3175 102.98 26.4 102.264 26.6568 101.384C26.9076 100.497 26.2348 99.7812 25.1523 99.7812Z" fill="#444444"/>
<path d="M35.5617 99.7812C34.4792 99.7812 33.3967 100.497 33.1398 101.384C32.8891 102.264 33.5618 102.98 34.6444 102.98C35.7269 102.98 36.8094 102.264 37.0663 101.384C37.317 100.497 36.6443 99.7812 35.5617 99.7812Z" fill="#444444"/>
<path d="M2.47435 106.258C1.39182 106.258 0.309298 106.973 0.0524285 107.86C-0.198326 108.741 0.474429 109.456 1.55695 109.456C2.63948 109.456 3.722 108.741 3.97887 107.86C4.22962 106.973 3.55687 106.258 2.47435 106.258Z" fill="#444444"/>
<path d="M12.8836 106.258C11.8011 106.258 10.7186 106.973 10.4617 107.86C10.2109 108.741 10.8776 109.456 11.9662 109.456C13.0487 109.456 14.1313 108.741 14.3881 107.86C14.6389 106.973 13.9661 106.258 12.8836 106.258Z" fill="#444444"/>
<path d="M23.2931 106.258C22.2105 106.258 21.128 106.973 20.8712 107.86C20.6204 108.741 21.2932 109.456 22.3757 109.456C23.4582 109.456 24.5407 108.741 24.7976 107.86C25.0483 106.973 24.3756 106.258 23.2931 106.258Z" fill="#444444"/>
<path d="M33.7024 106.258C32.6199 106.258 31.5373 106.973 31.2805 107.86C31.0297 108.741 31.7025 109.456 32.785 109.456C33.8675 109.456 34.95 108.741 35.2069 107.86C35.4577 106.973 34.7849 106.258 33.7024 106.258Z" fill="#444444"/>
<path d="M138.377 123.266L156.089 61.5747H276.188L258.482 123.266H138.377Z" fill="#F9C067"/>
<path d="M276.188 61.5747H156.089L138.377 123.266H258.482L276.188 61.5747Z" fill="#F9C067"/>
<path d="M5.70349 145.1L28.8463 64.4614H185.818L162.676 145.1H5.70349Z" fill="#ECF3FE"/>
<path d="M185.818 64.4614H28.8463L5.70349 145.1H162.676L185.818 64.4614Z" fill="#ECF3FE"/>
<path d="M166.773 97.0842C165.318 97.0842 164.419 96.124 164.755 94.9375C165.098 93.751 166.547 92.7908 168.003 92.7908H241.792C243.247 92.7908 244.146 93.751 243.81 94.9375C243.467 96.124 242.018 97.0842 240.562 97.0842H166.773ZM169.428 87.8552C167.972 87.8552 167.073 86.895 167.409 85.7085C167.752 84.5282 169.201 83.5618 170.657 83.5618H244.446C245.902 83.5618 246.801 84.522 246.464 85.7085C246.122 86.895 244.672 87.8552 243.217 87.8552H169.428ZM172.076 78.6263C170.62 78.6263 169.721 77.6661 170.058 76.4796C170.4 75.2931 171.85 74.3329 173.305 74.3329H247.094C248.55 74.3329 249.449 75.2931 249.112 76.4796C248.77 77.6661 247.32 78.6263 245.865 78.6263H172.076ZM174.724 69.3973C173.269 69.3973 172.369 68.4371 172.706 67.2506C173.048 66.0641 174.498 65.1039 175.953 65.1039H249.742C251.198 65.1039 252.097 66.0641 251.761 67.2506C251.418 68.4371 249.969 69.3973 248.513 69.3973H174.724ZM177.372 60.1683C175.917 60.1683 175.018 59.2081 175.354 58.0216C175.697 56.8351 177.146 55.8749 178.602 55.8749H252.391C253.846 55.8749 254.745 56.8351 254.409 58.0216C254.066 59.2081 252.617 60.1683 251.161 60.1683H177.372ZM180.021 50.9393C178.565 50.9393 177.666 49.9791 178.002 48.7926C178.345 47.6061 179.794 46.6459 181.25 46.6459H255.039C256.494 46.6459 257.393 47.6061 257.057 48.7926C256.715 49.9791 255.265 50.9393 253.809 50.9393H180.021ZM182.669 41.7104C181.213 41.7104 180.314 40.7502 180.65 39.5637C180.993 38.3772 182.442 37.417 183.898 37.417H257.687C259.143 37.417 260.042 38.3772 259.705 39.5637C259.363 40.7502 257.913 41.7104 256.458 41.7104H182.669ZM185.317 32.4814C183.861 32.4814 182.962 31.5212 183.299 30.3347C183.641 29.1482 185.091 28.188 186.546 28.188H260.335C261.791 28.188 262.69 29.1482 262.353 30.3347C262.011 31.5212 260.562 32.4814 259.106 32.4814H185.317ZM203.304 20.3351C201.848 20.3351 200.949 19.3749 201.286 18.1884C201.628 17.0019 203.078 16.0417 204.533 16.0417H249.32C250.776 16.0417 251.675 17.0019 251.339 18.1884C250.996 19.3749 249.547 20.3351 248.091 20.3351H203.304ZM276.157 3.32666H184.999C182.381 3.32666 179.764 5.05747 179.152 7.19194L151.208 104.564C150.597 106.698 152.217 108.429 154.835 108.429H245.993C248.611 108.429 251.229 106.698 251.84 104.564L279.784 7.19194C280.396 5.05747 278.775 3.32666 276.157 3.32666Z" fill="#3B82F4"/>
<path d="M249.32 16.0479H204.533C203.078 16.0479 201.628 17.0081 201.286 18.1946C200.943 19.381 201.848 20.3413 203.304 20.3413H248.091C249.547 20.3413 250.996 19.381 251.339 18.1946C251.675 17.0081 250.776 16.0479 249.32 16.0479Z" fill="white"/>
<path d="M260.335 28.188H186.546C185.09 28.188 183.641 29.1482 183.299 30.3347C182.956 31.5212 183.861 32.4814 185.317 32.4814H259.106C260.561 32.4814 262.011 31.5212 262.353 30.3347C262.69 29.1482 261.791 28.188 260.335 28.188Z" fill="white"/>
<path d="M257.687 37.417H183.898C182.442 37.417 180.993 38.3772 180.65 39.5637C180.308 40.7502 181.213 41.7104 182.669 41.7104H256.458C257.913 41.7104 259.363 40.7502 259.705 39.5637C260.042 38.3833 259.136 37.417 257.687 37.417Z" fill="white"/>
<path d="M255.039 46.6519H181.25C179.794 46.6519 178.345 47.6121 178.002 48.7986C177.66 49.9851 178.565 50.9453 180.02 50.9453H253.809C255.265 50.9453 256.714 49.9851 257.057 48.7986C257.393 47.6121 256.488 46.6519 255.039 46.6519Z" fill="white"/>
<path d="M252.39 55.8809H178.601C177.146 55.8809 175.696 56.8411 175.354 58.0276C175.011 59.2141 175.917 60.1743 177.372 60.1743H251.161C252.617 60.1743 254.066 59.2141 254.409 58.0276C254.745 56.8411 253.84 55.8809 252.39 55.8809Z" fill="white"/>
<path d="M249.742 65.1099H175.953C174.498 65.1099 173.048 66.0701 172.706 67.2566C172.363 68.4431 173.268 69.4033 174.724 69.4033H248.513C249.969 69.4033 251.418 68.4431 251.761 67.2566C252.097 66.0701 251.192 65.1099 249.742 65.1099Z" fill="white"/>
<path d="M247.088 74.3389H173.305C171.85 74.3389 170.4 75.2991 170.058 76.4856C169.715 77.6721 170.62 78.6323 172.076 78.6323H245.865C247.32 78.6323 248.77 77.6721 249.112 76.4856C249.449 75.2991 248.544 74.3389 247.088 74.3389Z" fill="white"/>
<path d="M244.44 83.5679H170.657C169.201 83.5679 167.752 84.5281 167.409 85.7146C167.067 86.9011 167.972 87.8613 169.427 87.8613H243.216C244.672 87.8613 246.122 86.9011 246.464 85.7146C246.8 84.5281 245.895 83.5679 244.44 83.5679Z" fill="white"/>
<path d="M241.792 92.7969H168.009C166.553 92.7969 165.104 93.7571 164.761 94.9436C164.419 96.1301 165.324 97.0903 166.78 97.0903H240.562C242.018 97.0903 243.467 96.1301 243.81 94.9436C244.152 93.7571 243.247 92.7969 241.792 92.7969Z" fill="white"/>
<path opacity="0.2" d="M239.51 30.4507H68.4777C65.5604 30.4507 62.637 32.3772 61.9581 34.7563L33.207 134.948C32.522 137.333 34.3385 139.26 37.2558 139.26H208.282C211.2 139.26 214.123 137.333 214.802 134.948L243.553 34.7563C244.238 32.3833 242.428 30.4507 239.51 30.4507Z" fill="#3A7EC1"/>
<path d="M228.392 37.3926H171.079L157.232 85.7575H214.551L228.392 37.3926Z" fill="#E9FFFB"/>
<path d="M205.023 92.9071H55.2001C54.6863 92.9071 54.1726 93.2434 54.0564 93.6593L46.124 121.297C46.0078 121.713 46.3197 122.056 46.8335 122.056H196.656C197.17 122.056 197.683 121.713 197.806 121.297L205.738 93.6593C205.854 93.2496 205.536 92.9071 205.023 92.9071ZM108.024 59.832L60.0561 81.0299H143.826L108.024 59.832ZM70.2025 37.4354C70.1842 37.4782 70.1719 37.5149 70.1597 37.5577L58.0318 79.8189C58.0195 79.8617 58.0134 79.8984 58.0073 79.9412L106.097 58.6883L70.2025 37.4354ZM159.049 37.2825L110.611 58.6883L146.762 80.0941C146.811 80.0085 146.854 79.9107 146.878 79.8189L159.006 37.5577C159.037 37.4598 159.049 37.3681 159.049 37.2825ZM156.652 36.3467H72.8752L108.678 57.5446L156.652 36.3467ZM46.283 123.994C44.4544 123.994 43.3229 122.783 43.7449 121.297L51.6773 93.6593C52.1054 92.1731 53.9341 90.9622 55.7628 90.9622H205.585C207.414 90.9622 208.545 92.1731 208.123 93.6593L200.191 121.297C199.763 122.783 197.934 123.994 196.106 123.994H46.283ZM157.618 81.1705C156.223 81.1705 155.367 80.247 155.691 79.1217C156.015 77.9841 157.404 77.0729 158.798 77.0729H210.172C211.561 77.0729 212.429 77.9902 212.099 79.1217C211.775 80.2532 210.38 81.1705 208.992 81.1705H157.618ZM160.009 72.8284C158.615 72.8284 157.752 71.911 158.083 70.7795C158.407 69.6481 159.795 68.7246 161.19 68.7246H212.564C213.952 68.7246 214.814 69.6481 214.49 70.7795C214.166 71.9171 212.771 72.8284 211.383 72.8284H160.009ZM162.407 64.4923C161.012 64.4923 160.156 63.5688 160.48 62.4435C160.804 61.3059 162.193 60.3947 163.587 60.3947H214.961C216.349 60.3947 217.218 61.312 216.888 62.4435C216.563 63.575 215.169 64.4923 213.781 64.4923H162.407ZM164.798 56.1502C163.404 56.1502 162.547 55.2267 162.871 54.1013C163.196 52.9699 164.584 52.0525 165.978 52.0525H217.352C218.741 52.0525 219.603 52.976 219.279 54.1013C218.955 55.2328 217.56 56.1502 216.172 56.1502H164.798ZM167.189 47.808C165.795 47.808 164.932 46.8906 165.257 45.7653C165.581 44.6277 166.969 43.7165 168.364 43.7165H219.738C221.126 43.7165 221.994 44.6338 221.664 45.7653C221.34 46.8967 219.945 47.808 218.557 47.808H167.189ZM169.581 39.4781C168.186 39.4781 167.33 38.5546 167.654 37.4293C167.978 36.2978 169.367 35.3804 170.761 35.3804H199.494C200.882 35.3804 201.744 36.3039 201.42 37.4293C201.096 38.5607 199.702 39.4781 198.313 39.4781H169.581ZM58.6128 82.9748C56.4844 82.9748 55.1512 81.5559 55.6527 79.8128L67.7806 37.5516C68.2821 35.8085 70.4227 34.3896 72.5572 34.3896H158.425C160.553 34.3896 161.887 35.8085 161.385 37.5516L149.257 79.8128C148.756 81.5559 146.615 82.9748 144.481 82.9748H58.6128ZM234.41 22.6348H63.3771C60.4598 22.6348 57.5364 24.5613 56.8575 26.9404L28.1064 127.132C27.4214 129.517 29.2379 131.444 32.1552 131.444H203.182C206.099 131.444 209.022 129.517 209.701 127.132L238.452 26.9404C239.137 24.5674 237.327 22.6348 234.41 22.6348Z" fill="white"/>
<path d="M111.473 60.6758H54.1602L40.3137 109.041H97.6324L111.473 60.6758Z" fill="#E9FFFB"/>
<path d="M208.68 29.9189H151.361L137.521 78.2839H194.833L208.68 29.9189Z" fill="#E9FFFB"/>
<path d="M156.651 36.3465L159.41 35.1294L160.192 36.7807L159.049 37.2884C159.049 37.3801 159.037 37.4718 159.006 37.5636L146.878 79.8248C146.854 79.9226 146.811 80.0144 146.762 80.1L147.612 80.6076L145.881 82.2589L143.826 81.0419H60.056L57.5362 82.155L56.7534 80.5037L58.0072 79.9471C58.0133 79.9043 58.0255 79.8676 58.0316 79.8248L70.1596 37.5636C70.1718 37.5208 70.184 37.4841 70.2024 37.4413L69.2666 36.8847L70.9974 35.2334L72.875 36.3465H156.651ZM158.425 34.3955H72.5509C70.4225 34.3955 68.2758 35.8144 67.7743 37.5575L55.6464 79.8187C55.1449 81.5617 56.4782 82.9806 58.6065 82.9806H144.481C146.609 82.9806 148.756 81.5617 149.257 79.8187L161.385 37.5575C161.887 35.8144 160.559 34.3955 158.425 34.3955Z" fill="#E4ECF9"/>
<path d="M106.091 58.6883L58.0011 79.9412L56.7473 80.4978L57.5302 82.1491L60.0499 81.036L108.017 59.8381L106.091 58.6883ZM159.404 35.1235L156.645 36.3406L108.678 57.5385L110.61 58.6822L159.049 37.2764L160.193 36.7687L159.404 35.1235Z" fill="#E4ECF9"/>
<path d="M70.9974 35.2334L69.2666 36.8786L70.2023 37.4351L106.091 58.6881L108.023 59.8318L143.826 81.0297L145.881 82.2467L147.612 80.5954L146.762 80.0939L110.61 58.6881L108.678 57.5444L72.875 36.3465L70.9974 35.2334Z" fill="#E4ECF9"/>
<path d="M46.8396 122.055C46.3259 122.055 46.0078 121.713 46.1301 121.297L54.0625 93.659C54.1787 93.2432 54.6925 92.9068 55.2062 92.9068H205.029C205.542 92.9068 205.86 93.2432 205.744 93.659L197.812 121.297C197.696 121.713 197.182 122.055 196.662 122.055H46.8396ZM205.579 90.9619H55.7567C53.928 90.9619 52.0993 92.1729 51.6712 93.659L43.7388 121.297C43.3107 122.783 44.4421 123.994 46.2769 123.994H196.099C197.928 123.994 199.757 122.783 200.185 121.297L208.117 93.659C208.545 92.1729 207.414 90.9619 205.579 90.9619Z" fill="#E4ECF9"/>
<path d="M199.494 35.374H170.761C169.367 35.374 167.978 36.2975 167.654 37.4229C167.33 38.5543 168.186 39.4717 169.581 39.4717H198.313C199.702 39.4717 201.096 38.5482 201.42 37.4229C201.744 36.2914 200.876 35.374 199.494 35.374Z" fill="#52D1BD"/>
<path d="M219.744 43.7104H168.37C166.975 43.7104 165.593 44.6278 165.263 45.7593C164.938 46.8907 165.801 47.802 167.195 47.802H218.569C219.958 47.802 221.346 46.8846 221.676 45.7593C221.994 44.6278 221.132 43.7104 219.744 43.7104Z" fill="#E4ECF9"/>
<path d="M217.352 52.0464H165.978C164.584 52.0464 163.196 52.9699 162.871 54.0952C162.547 55.2267 163.403 56.1441 164.798 56.1441H216.172C217.56 56.1441 218.955 55.2206 219.279 54.0952C219.603 52.9699 218.741 52.0464 217.352 52.0464Z" fill="#E4ECF9"/>
<path d="M214.955 60.3887H163.581C162.186 60.3887 160.804 61.3061 160.474 62.4375C160.15 63.569 161.006 64.4864 162.4 64.4864H213.774C215.163 64.4864 216.557 63.5629 216.881 62.4375C217.211 61.3061 216.343 60.3887 214.955 60.3887Z" fill="#E4ECF9"/>
<path d="M212.563 68.7246H161.189C159.795 68.7246 158.407 69.6481 158.083 70.7796C157.758 71.9171 158.615 72.8284 160.009 72.8284H211.383C212.771 72.8284 214.16 71.911 214.49 70.7796C214.814 69.6481 213.952 68.7246 212.563 68.7246Z" fill="#E4ECF9"/>
<path d="M210.172 77.0669H158.798C157.404 77.0669 156.021 77.9843 155.691 79.1157C155.367 80.2472 156.223 81.1646 157.618 81.1646H208.992C210.38 81.1646 211.774 80.2411 212.099 79.1157C212.423 77.9843 211.56 77.0669 210.172 77.0669Z" fill="#E4ECF9"/>
<path d="M131.955 113.255H60.5514L64.594 100.044L65.8723 100.436L62.3556 111.922H131.955V113.255Z" fill="#52D1BD"/>
<g opacity="0.2">
<path d="M259.95 56.6885H200.148C198.998 56.6885 197.848 57.4469 197.579 58.3887L194.093 70.5411C193.824 71.4768 194.54 72.2413 195.69 72.2413H255.491C256.641 72.2413 257.791 71.483 258.06 70.5411L261.546 58.3887C261.815 57.453 261.106 56.6885 259.95 56.6885Z" fill="#3A7EC1"/>
</g>
<path d="M137.105 110.386H128.066L126.806 114.784H135.845L137.105 110.386Z" fill="#3A3A3A"/>
<g opacity="0.2">
<path d="M97.0086 90.5093H34.1489C32.9685 90.5093 31.7881 91.2921 31.5129 92.2523L27.3663 106.692C27.0911 107.652 27.825 108.429 29.0054 108.429H91.8651C93.0455 108.429 94.2259 107.652 94.5011 106.692L98.6477 92.2523C98.9229 91.2921 98.189 90.5093 97.0086 90.5093Z" fill="#3A7EC1"/>
</g>
<path d="M50.2583 99.5917C49.61 99.5917 49.1942 99.1575 49.3471 98.6254C49.5 98.0933 50.1605 97.6652 50.8088 97.6652H85.4495C86.0978 97.6652 86.5076 98.0994 86.3547 98.6254C86.2018 99.1636 85.5474 99.5917 84.8991 99.5917H50.2583ZM51.3286 95.8671C50.6803 95.8671 50.2644 95.4329 50.4173 94.9008C50.5702 94.3687 51.2308 93.9406 51.8791 93.9406H86.5198C87.1681 93.9406 87.5779 94.3748 87.425 94.9008C87.2721 95.439 86.6177 95.8671 85.9694 95.8671H51.3286ZM52.3989 92.1425C51.7506 92.1425 51.3347 91.7083 51.4876 91.1823C51.6405 90.6441 52.3011 90.216 52.9494 90.216H66.8693C67.5175 90.216 67.9273 90.6502 67.7744 91.1823C67.6215 91.7144 66.9671 92.1425 66.3188 92.1425H52.3989ZM39.0417 92.6257L44.1485 89.2497L46.2891 91.5248L41.1761 94.9008L44.3503 98.2829L40.9009 100.558L37.7267 97.182L32.6138 100.558L30.4793 98.2829L35.5923 94.9008L32.4181 91.5248L35.8614 89.2497L39.0417 92.6257ZM93.6265 85.9409H30.7668C29.5864 85.9409 28.406 86.7238 28.1308 87.684L23.9842 102.124C23.709 103.084 24.4429 103.861 25.6233 103.861H88.483C89.6634 103.861 90.8438 103.084 91.119 102.124L95.2656 87.684C95.5408 86.7238 94.8069 85.9409 93.6265 85.9409Z" fill="#3B82F4"/>
<path d="M44.1545 89.2495L39.0416 92.6255L35.8674 89.2495L32.4241 91.5246L35.5922 94.9006L30.4854 98.2828L32.6198 100.558L37.7389 97.1819L40.9069 100.558L44.3563 98.2828L41.1822 94.9006L46.2951 91.5246L44.1545 89.2495Z" fill="white"/>
<path d="M66.8692 90.2158H52.9493C52.3011 90.2158 51.6405 90.6501 51.4876 91.1821C51.3347 91.7142 51.7506 92.1423 52.3989 92.1423H66.3188C66.9671 92.1423 67.6215 91.7081 67.7744 91.1821C67.9273 90.6439 67.5237 90.2158 66.8692 90.2158Z" fill="white"/>
<path d="M86.526 93.9404H51.8791C51.2308 93.9404 50.5703 94.3747 50.4174 94.9006C50.2645 95.4388 50.6743 95.867 51.3287 95.867H85.9694C86.6177 95.867 87.2721 95.4327 87.425 94.9006C87.5779 94.3685 87.1743 93.9404 86.526 93.9404Z" fill="white"/>
<path d="M85.4555 97.665H50.8148C50.1665 97.665 49.506 98.0993 49.3531 98.6252C49.2002 99.1634 49.6099 99.5916 50.2643 99.5916H84.9051C85.5534 99.5916 86.2078 99.1573 86.3607 98.6252C86.5136 98.0932 86.1038 97.665 85.4555 97.665Z" fill="white"/>
<g opacity="0.2">
<path d="M149.202 14.7085L38.1671 14.7513C36.9439 14.7513 35.7146 15.1733 34.7421 15.8399C33.8308 16.4699 33.1397 17.3139 32.8768 18.2496L17.0364 73.5501C16.4799 75.4766 17.9477 77.0423 20.3146 77.0423L131.356 76.9995C133.723 76.9995 136.09 75.4399 136.64 73.5073L152.486 18.2007C152.749 17.2711 152.548 16.421 151.997 15.7971C151.41 15.1305 150.425 14.7085 149.202 14.7085Z" fill="#3A7EC1"/>
</g>
<path d="M18.9385 63.3363C17.5196 63.3363 16.3087 62.8165 15.6237 61.8991C15.0549 61.1407 14.8898 60.1805 15.1772 59.2019L31.0175 3.90149C31.2989 2.89847 32.0328 1.94438 33.0786 1.21659C34.1795 0.458208 35.5005 0.0362074 36.791 0.0362074L147.82 -0.000488281C149.135 -0.000488281 150.297 0.458208 150.994 1.2594C151.673 2.03001 151.893 3.07584 151.587 4.13389L135.747 59.4404C135.447 60.4863 134.677 61.4648 133.576 62.1926C132.5 62.9082 131.215 63.2996 129.974 63.2996L18.9385 63.3363ZM147.82 1.00864L36.7849 1.04534C35.7146 1.04534 34.5709 1.4123 33.6474 2.04836C32.7912 2.6416 32.204 3.39387 31.9839 4.17671L16.1436 59.4771C15.9478 60.156 16.0457 60.786 16.431 61.2936C16.9264 61.948 17.8438 62.3272 18.9447 62.3272L129.986 62.2844C132.139 62.2844 134.292 60.8838 134.787 59.1591L150.633 3.85256C150.841 3.12476 150.707 2.43978 150.248 1.92604C149.728 1.34502 148.847 1.00864 147.82 1.00864Z" fill="#444444"/>
<path d="M168.932 100.411L167.642 100.062L178.614 59.6421H226.123V60.9754H179.635L168.932 100.411Z" fill="#52D1BD"/>
<path d="M211.536 63.844C210.906 63.844 210.508 63.4281 210.661 62.9082C210.808 62.3945 211.444 61.9725 212.074 61.9725H248.611C249.241 61.9725 249.638 62.3884 249.485 62.9082C249.339 63.4281 248.703 63.844 248.073 63.844H211.536ZM212.551 60.309C211.921 60.309 211.524 59.8931 211.677 59.3732C211.823 58.8595 212.459 58.4375 213.089 58.4375H249.626C250.256 58.4375 250.654 58.8534 250.501 59.3732C250.354 59.887 249.718 60.309 249.088 60.309H212.551ZM213.566 56.7739C212.936 56.7739 212.539 56.3581 212.692 55.8382C212.839 55.3245 213.475 54.9025 214.105 54.9025H228.177C228.807 54.9025 229.205 55.3183 229.052 55.8382C228.905 56.3519 228.269 56.7739 227.639 56.7739H213.566ZM199.102 60.8533L206.71 54.4438L208.515 55.7465L198.802 63.9296L195.108 61.263L197.212 59.4894L199.102 60.8533ZM255.479 51.606H195.677C194.527 51.606 193.378 52.3643 193.109 53.3062L189.622 65.4586C189.353 66.3943 190.069 67.1588 191.219 67.1588H251.02C252.17 67.1588 253.32 66.4004 253.589 65.4586L257.075 53.3062C257.344 52.3643 256.629 51.606 255.479 51.606Z" fill="#F9C067"/>
<path d="M206.71 54.4438L199.102 60.8534L197.212 59.4895L195.109 61.2692L198.796 63.9358L208.515 55.7465L206.71 54.4438Z" fill="white"/>
<path d="M228.171 54.9087H214.099C213.469 54.9087 212.833 55.3246 212.686 55.8444C212.539 56.3582 212.931 56.7802 213.56 56.7802H227.633C228.263 56.7802 228.899 56.3643 229.046 55.8444C229.199 55.3246 228.808 54.9087 228.171 54.9087Z" fill="#3A3A3A"/>
<path d="M249.62 58.4438H213.083C212.453 58.4438 211.817 58.8597 211.671 59.3796C211.524 59.8933 211.915 60.3153 212.545 60.3153H249.082C249.712 60.3153 250.348 59.8994 250.495 59.3796C250.648 58.8659 250.25 58.4438 249.62 58.4438Z" fill="white"/>
<path d="M248.605 61.9785H212.068C211.438 61.9785 210.802 62.3944 210.655 62.9143C210.508 63.4341 210.9 63.85 211.53 63.85H248.066C248.696 63.85 249.332 63.4341 249.479 62.9143C249.632 62.4005 249.241 61.9785 248.605 61.9785Z" fill="white"/>
<path d="M173.44 98.0381H164.394L163.134 102.435H172.18L173.44 98.0381Z" fill="#3A3A3A"/>
<path d="M143.129 5.91406L78.8504 35.9923C77.8107 36.4571 76.7221 36.6895 75.6946 36.6895C74.6671 36.6895 73.7069 36.4571 72.9363 35.9923L25.8802 5.95687C24.9689 6.58682 24.2778 7.43082 24.0087 8.36656L8.1745 63.667C7.61795 65.5935 9.08578 67.1592 11.4527 67.1592L122.494 67.1164C124.861 67.1164 127.228 65.5568 127.778 63.6242L143.624 8.31763C143.894 7.38801 143.686 6.53789 143.129 5.91406Z" fill="#F9C067"/>
<path d="M143.129 5.91406L81.2845 21.9012C80.2509 22.366 79.1562 22.5984 78.1287 22.5984C77.1012 22.5984 76.141 22.366 75.3704 21.9073L25.8801 5.95687L72.9424 35.9923C73.713 36.4571 74.6732 36.6895 75.7007 36.6895C76.7282 36.6895 77.8168 36.4571 78.8565 35.9923L143.129 5.91406Z" fill="#E29D2D"/>
<path d="M140.34 4.8252L29.2928 4.86189C28.0696 4.86189 26.8465 5.28389 25.874 5.95053L75.3704 21.9071C76.141 22.3657 77.1012 22.5982 78.1287 22.5982C79.1562 22.5982 80.2509 22.3657 81.2845 21.9009L143.129 5.91383C142.542 5.24108 141.557 4.8252 140.34 4.8252Z" fill="#F9C067"/>
</svg>
