<svg width="226" height="199" viewBox="0 0 226 199" fill="none" xmlns="http://www.w3.org/2000/svg">
<path d="M68.5767 192.588C26.0603 173.645 11.7271 114.098 28.8695 70.9305C47.8825 23.062 99.7231 10.1859 108.634 8.16829C139.626 1.13478 193.751 2.22063 215.188 37.9697C239.013 77.7048 204.89 130.947 181.358 154.954C175.186 161.252 120.34 215.65 68.5767 192.588Z" fill="#ECF3FE"/>
<path d="M180.455 139.171L86.4409 110.337L110.133 24.4912L207.531 41.0522L180.455 139.171ZM87.4147 109.797L179.901 138.169L206.529 41.6897L110.708 25.3879L87.4147 109.797Z" fill="#444444"/>
<path d="M40.863 196.252L40.6738 195.902L8.27344 135.465L46.1311 115.17L52.4571 126.961L78.7277 175.957L78.3774 176.146L40.863 196.252ZM9.35228 135.788L41.1923 195.173L77.6418 175.628L51.7495 127.332L45.8019 116.242L41.0732 118.778L9.35228 135.788Z" fill="#444444"/>
<path opacity="0.2" d="M198.893 126.106C213.425 126.106 225.206 114.325 225.206 99.7931C225.206 85.261 213.425 73.4805 198.893 73.4805C184.361 73.4805 172.58 85.261 172.58 99.7931C172.58 114.325 184.361 126.106 198.893 126.106Z" fill="#3A7EC1"/>
<path d="M196.287 126.106C210.819 126.106 222.6 114.325 222.6 99.7931C222.6 85.261 210.819 73.4805 196.287 73.4805C181.755 73.4805 169.974 85.261 169.974 99.7931C169.974 114.325 181.755 126.106 196.287 126.106Z" fill="#F9C067"/>
<path opacity="0.2" d="M174.115 133.672C174.115 133.672 202.073 48.0155 201.282 48.0155C200.49 48.0155 191.936 46.4253 191.936 46.4253L174.115 133.672Z" fill="#3A7EC1"/>
<path opacity="0.2" d="M122.533 180.924L155.746 128.102L122.533 118.806V180.924Z" fill="#3A7EC1"/>
<path opacity="0.2" d="M146.905 153.161C144.663 153.161 142.576 153.714 140.831 154.653L135.304 150.233C136.25 148.881 136.789 147.318 136.789 145.651C136.789 140.579 131.815 136.467 125.679 136.467C119.542 136.467 114.568 140.579 114.568 145.651C114.568 150.723 119.542 154.835 125.679 154.835C128.698 154.835 131.437 153.84 133.441 152.222L138.548 156.306C136.838 157.925 135.802 160.033 135.802 162.352C135.802 167.424 140.775 171.536 146.912 171.536C153.049 171.536 158.023 167.424 158.023 162.352C158.016 157.273 153.042 153.161 146.905 153.161Z" fill="#3A7EC1"/>
<path d="M69.3684 174.163L32.2113 194.08L0 133.994L32.0782 116.795L37.1501 114.07L43.287 125.51L69.3684 174.163Z" fill="#3B82F4"/>
<path d="M12.9671 134.912L14.4453 134.12L13.8078 132.936L9.42236 135.29L10.0529 136.474L11.545 135.675L14.116 140.467L15.5312 139.71L12.9671 134.912Z" fill="#B3CEF6"/>
<path d="M20.8273 133.013C20.3929 132.214 19.8045 131.612 19.0409 131.22C18.2843 130.827 17.4856 130.848 16.652 131.297C15.8253 131.738 15.349 132.369 15.2159 133.195C15.0828 134.022 15.2509 134.863 15.7203 135.738C16.1826 136.593 16.7921 137.209 17.5557 137.574C18.3193 137.945 19.1039 137.91 19.9095 137.483C20.7502 137.034 21.2266 136.39 21.3457 135.563C21.4648 134.729 21.2896 133.882 20.8273 133.013ZM19.3351 136.313C18.5995 136.705 17.885 136.257 17.1984 134.968C16.5049 133.679 16.5259 132.838 17.2615 132.446C17.969 132.067 18.6766 132.523 19.3701 133.812C20.0567 135.101 20.0497 135.934 19.3351 136.313Z" fill="#B3CEF6"/>
<path d="M28.8765 128.684C28.5123 128.004 28.0639 127.521 27.5385 127.227C27.0131 126.94 26.5087 126.786 26.0323 126.779C25.5559 126.772 24.9465 126.961 24.2039 127.36L22.3824 128.341L25.584 134.316L27.6436 133.217C28.5263 132.74 29.0727 132.082 29.2688 131.241C29.465 130.393 29.3319 129.546 28.8765 128.684ZM27.7627 130.961C27.7206 131.472 27.4404 131.864 26.936 132.138L26.3616 132.446L24.351 128.698L24.9395 128.383C25.2337 128.222 25.5209 128.152 25.7941 128.159C26.0673 128.173 26.3616 128.292 26.6698 128.523C26.9781 128.754 27.2232 129.048 27.4194 129.413C27.6926 129.938 27.8117 130.449 27.7627 130.961Z" fill="#B3CEF6"/>
<path d="M34.607 125.622C34.1797 124.824 33.5842 124.221 32.8276 123.829C32.3793 123.598 31.9239 123.507 31.4475 123.57C31.1183 123.612 30.782 123.724 30.4387 123.906C29.6121 124.347 29.1357 124.985 29.0026 125.805C28.8695 126.624 29.0376 127.472 29.507 128.348C29.8713 129.02 30.3196 129.538 30.8661 129.91C31.0202 130.015 31.1743 130.106 31.3424 130.183C32.106 130.554 32.8907 130.519 33.6963 130.085C34.5369 129.637 35.0133 128.992 35.1324 128.165C35.2515 127.339 35.0764 126.491 34.607 125.622ZM33.1218 128.922C32.4213 129.3 31.7347 128.901 31.0692 127.724C31.0412 127.675 31.0132 127.626 30.9852 127.57C30.2916 126.281 30.3126 125.44 31.0482 125.048C31.1393 124.999 31.2304 124.964 31.3284 124.943C31.9449 124.803 32.5544 125.293 33.1569 126.414C33.8434 127.71 33.8294 128.544 33.1218 128.922Z" fill="#B3CEF6"/>
<path d="M17.733 152.351C19.7802 151.955 21.1181 149.973 20.7213 147.926C20.3244 145.879 18.3431 144.541 16.2959 144.938C14.2486 145.335 12.9107 147.316 13.3076 149.363C13.7044 151.41 15.6857 152.748 17.733 152.351Z" fill="#B3CEF6"/>
<path d="M42.6283 136.698L24.0848 146.639C23.3212 147.052 22.3684 146.758 21.9551 145.994C21.5418 145.231 21.836 144.278 22.5996 143.865L41.1431 133.924C41.9067 133.511 42.8595 133.805 43.2728 134.568C43.6861 135.332 43.3989 136.285 42.6283 136.698Z" fill="#B3CEF6"/>
<path d="M22.5017 162.567C24.5869 162.539 26.2551 160.827 26.2278 158.741C26.2004 156.656 24.4879 154.988 22.4027 155.015C20.3175 155.043 18.6493 156.755 18.6766 158.841C18.704 160.926 20.4165 162.594 22.5017 162.567Z" fill="#B3CEF6"/>
<path d="M48.0718 146.842L29.5282 156.783C28.7646 157.196 27.8119 156.902 27.3986 156.138C26.9852 155.375 27.2795 154.422 28.0431 154.008L46.5866 144.075C47.3502 143.661 48.303 143.956 48.7163 144.719C49.1226 145.483 48.8354 146.436 48.0718 146.842Z" fill="#B3CEF6"/>
<path d="M27.8958 172.72C29.9812 172.72 31.6718 171.03 31.6718 168.944C31.6718 166.859 29.9812 165.168 27.8958 165.168C25.8104 165.168 24.1199 166.859 24.1199 168.944C24.1199 171.03 25.8104 172.72 27.8958 172.72Z" fill="#B3CEF6"/>
<path d="M53.5149 156.993L34.9714 166.934C34.2078 167.347 33.255 167.053 32.8417 166.289C32.4284 165.526 32.7226 164.573 33.4862 164.16L52.0297 154.219C52.7933 153.805 53.7461 154.1 54.1594 154.863C54.5657 155.627 54.2785 156.58 53.5149 156.993Z" fill="#B3CEF6"/>
<path d="M33.3321 182.864C35.4175 182.864 37.1081 181.174 37.1081 179.088C37.1081 177.003 35.4175 175.312 33.3321 175.312C31.2467 175.312 29.5562 177.003 29.5562 179.088C29.5562 181.174 31.2467 182.864 33.3321 182.864Z" fill="#B3CEF6"/>
<path d="M58.9513 167.144L40.4078 177.085C39.6442 177.498 38.6914 177.204 38.2781 176.44C37.8648 175.677 38.159 174.724 38.9226 174.31L57.4661 164.37C58.2297 163.956 59.1825 164.251 59.5958 165.014C60.0021 165.778 59.7149 166.73 58.9513 167.144Z" fill="#B3CEF6"/>
<path opacity="0.2" d="M43.2868 125.51L38.3269 135.437L35.889 140.313L29.4019 153.287L28.5472 154.989L28.6733 153.679L29.5911 143.69L29.9413 139.935L30.8661 129.91L31.0692 127.731L31.3214 124.943L31.4475 123.57L32.078 116.795L37.15 114.07L43.2868 125.51Z" fill="#3A7EC1"/>
<path d="M189.246 112.445C188.301 112.354 187.39 111.899 186.738 111.107L179.628 102.456C178.325 100.872 178.556 98.5324 180.139 97.2294C181.722 95.9264 184.062 96.1576 185.365 97.7408L190.115 103.527L204.911 91.3728C206.494 90.0698 208.834 90.301 210.137 91.8842C211.44 93.4675 211.208 95.8073 209.625 97.1103L191.964 111.619C191.173 112.27 190.192 112.536 189.246 112.445Z" fill="white"/>
<path d="M149.917 166.899C149.364 166.402 149.322 165.547 149.826 165C151.115 163.571 148.951 161.33 148.93 161.309L117.335 132.684C116.781 132.187 116.739 131.332 117.244 130.786C117.741 130.232 118.596 130.19 119.142 130.695L150.793 159.375C152.229 160.832 154.205 164.188 151.823 166.815C151.319 167.354 150.471 167.396 149.917 166.899Z" fill="#636466"/>
<path d="M118.512 138.443C119.065 138.94 119.913 138.898 120.41 138.352C121.699 136.922 124.151 138.863 124.172 138.884L155.767 167.515C156.32 168.013 157.168 167.971 157.666 167.424C158.163 166.871 158.121 166.023 157.574 165.526L125.924 136.845C124.333 135.563 120.803 133.924 118.421 136.551C117.923 137.091 117.965 137.945 118.512 138.443Z" fill="#636466"/>
<path opacity="0.28" d="M132.764 145.515C136.681 141.598 136.681 135.246 132.764 131.328C128.846 127.411 122.494 127.411 118.577 131.328C114.659 135.246 114.659 141.598 118.577 145.515C122.494 149.433 128.846 149.433 132.764 145.515Z" fill="#F2F2F2"/>
<path opacity="0.28" d="M156.471 166.99C160.388 163.073 160.388 156.721 156.471 152.803C152.553 148.886 146.201 148.886 142.283 152.803C138.366 156.721 138.366 163.073 142.283 166.991C146.201 170.908 152.553 170.908 156.471 166.99Z" fill="#F2F2F2"/>
<path d="M157.203 151.256C153.308 147.725 147.648 147.333 143.367 149.904C142.449 146.492 139.682 143.991 136.201 143.409C138.337 138.898 137.399 133.315 133.496 129.777C128.733 125.461 121.342 125.826 117.027 130.589C112.711 135.353 113.075 142.744 117.839 147.059C119.422 148.495 121.286 149.413 123.254 149.82C123.745 149.925 124.242 150.002 124.74 150.037C125.307 150.079 125.875 150.086 126.442 150.044C129.356 149.848 132.2 148.58 134.316 146.247C134.4 146.156 134.491 146.051 134.568 145.952C134.842 145.959 135.108 145.974 135.374 145.995C136.761 146.149 138.008 146.681 138.968 147.557C139.935 148.432 140.586 149.616 140.873 150.982C140.922 151.249 140.971 151.515 140.992 151.788C140.901 151.872 140.817 151.97 140.733 152.061C138.624 154.387 137.644 157.343 137.735 160.258C137.749 160.825 137.812 161.393 137.91 161.953C138.001 162.443 138.12 162.941 138.267 163.417C138.87 165.33 139.97 167.102 141.546 168.531C146.31 172.847 153.7 172.482 158.016 167.719C162.331 162.969 161.967 155.578 157.203 151.256ZM125.258 147.375C123.254 147.291 121.258 146.527 119.654 145.07C115.983 141.742 115.703 136.068 119.03 132.404C122.351 128.74 128.032 128.453 131.696 131.78C135.01 134.786 135.556 139.732 133.16 143.36L133.153 143.367C132.908 143.739 132.628 144.103 132.32 144.453C132.137 144.649 131.948 144.846 131.759 145.021C130.526 146.17 129.048 146.891 127.479 147.206C126.75 147.347 126.001 147.41 125.258 147.375ZM143.353 166.542C141.742 165.084 140.789 163.179 140.502 161.189C140.397 160.454 140.383 159.704 140.46 158.962C140.614 157.371 141.196 155.823 142.211 154.485C142.365 154.275 142.541 154.072 142.723 153.869C143.038 153.525 143.367 153.21 143.717 152.93C143.717 152.93 143.717 152.93 143.725 152.923C147.101 150.184 152.075 150.24 155.396 153.245C159.067 156.573 159.34 162.254 156.019 165.911C152.699 169.589 147.024 169.869 143.353 166.542Z" fill="#636466"/>
<path d="M198.893 44.0364L174.36 132.922C173.204 137.118 168.86 139.584 164.664 138.421C163.347 138.057 162.198 137.378 161.28 136.488C159.277 134.547 158.373 131.605 159.165 128.726L163.606 112.627L84.8154 90.8822L102.28 27.6016L198.893 44.0364Z" fill="white"/>
<path opacity="0.2" d="M167.452 61.6694L166.906 63.659L97.6145 44.534L99.5971 37.3604C111.415 41.5496 167.452 61.6694 167.452 61.6694Z" fill="#3A7EC1"/>
<path opacity="0.2" d="M172.027 63.7991C169.617 63.1336 167.179 63.3508 165.043 64.2475L154.751 101.524L165.834 104.578L159.172 128.726C158.38 131.605 158.822 134.415 160.132 136.166C162.177 135.318 164.027 133.062 164.846 130.106L171.467 106.126L179.383 77.4388L179.509 76.9695C181.078 71.274 177.729 65.3754 172.027 63.7991Z" fill="#3A7EC1"/>
<path d="M164.671 138.421L81.2777 115.408C75.4281 113.79 71.9884 107.737 73.6067 101.888L90.56 40.4565L156.293 58.5938L153.441 68.9199C154.142 66.3769 155.697 64.3102 157.715 62.9302C157.96 62.762 158.219 62.6009 158.478 62.4538C160.86 61.1017 163.767 60.6604 166.619 61.445C172.321 63.0212 175.67 68.9199 174.094 74.6223L159.165 128.726C158.009 132.922 160.475 137.265 164.671 138.421Z" fill="#5B97EF"/>
<path d="M151.795 134.87L136.418 130.624L153.511 68.6817C154.24 66.2508 155.767 64.2612 157.722 62.9302C163.046 64.7306 166.128 70.4401 164.615 75.9254L150.303 127.787C149.595 130.344 150.24 132.957 151.795 134.87Z" fill="#3B82F4"/>
<path d="M122.533 180.924L153.441 68.9199C155.017 63.2174 160.916 59.8688 166.619 61.438L72.5558 35.4826C66.8953 33.9204 61.0387 37.248 59.4765 42.9085L28.5472 154.989L122.533 180.924Z" fill="white"/>
<path d="M73.2084 62.1732C75.1864 60.1953 75.1864 56.9883 73.2084 55.0104C71.2305 53.0324 68.0235 53.0324 66.0456 55.0104C64.0676 56.9883 64.0676 60.1953 66.0456 62.1732C68.0235 64.1512 71.2305 64.1512 73.2084 62.1732Z" fill="#E4ECF9"/>
<path d="M138.316 80.1773L80.1707 64.1347C78.8607 63.7704 78.0761 62.4044 78.4404 61.0873L78.4684 60.9822C78.8327 59.6722 80.1987 58.8876 81.5158 59.2519L139.661 75.2945C140.971 75.6588 141.756 77.0248 141.392 78.3419L141.364 78.4469C141.006 79.757 139.633 80.5346 138.316 80.1773Z" fill="#E4ECF9"/>
<path d="M65.011 80.3878C67.8083 80.3878 70.076 78.1201 70.076 75.3228C70.076 72.5255 67.8083 70.2578 65.011 70.2578C62.2137 70.2578 59.946 72.5255 59.946 75.3228C59.946 78.1201 62.2137 80.3878 65.011 80.3878Z" fill="#E4ECF9"/>
<path d="M133.7 96.9068L75.5543 80.8642C74.2442 80.4999 73.4596 79.1339 73.8239 77.8168L73.8519 77.7117C74.2162 76.4017 75.5823 75.6171 76.8993 75.9814L135.045 92.024C136.355 92.3882 137.14 93.7543 136.775 95.0714L136.747 95.1764C136.383 96.4935 135.017 97.2711 133.7 96.9068Z" fill="#E4ECF9"/>
<path d="M60.3872 97.1236C63.1845 97.1236 65.4522 94.8559 65.4522 92.0586C65.4522 89.2613 63.1845 86.9937 60.3872 86.9937C57.5899 86.9937 55.3223 89.2613 55.3223 92.0586C55.3223 94.8559 57.5899 97.1236 60.3872 97.1236Z" fill="#E4ECF9"/>
<path d="M129.083 113.643L70.9376 97.6C69.6275 97.2358 68.8429 95.8697 69.2072 94.5527L69.2352 94.4476C69.5995 93.1375 70.9656 92.3529 72.2826 92.7172L130.428 108.76C131.738 109.124 132.523 110.49 132.159 111.807L132.131 111.912C131.766 113.222 130.4 114 129.083 113.643Z" fill="#E4ECF9"/>
<path d="M59.3505 112.371C61.3285 110.393 61.3285 107.186 59.3505 105.208C57.3726 103.23 54.1656 103.23 52.1876 105.208C50.2097 107.186 50.2097 110.393 52.1876 112.371C54.1656 114.349 57.3725 114.349 59.3505 112.371Z" fill="#E4ECF9"/>
<path d="M124.466 130.372L66.3209 114.329C65.0108 113.965 64.2262 112.599 64.5905 111.282L64.6185 111.177C64.9828 109.867 66.3489 109.082 67.6659 109.446L125.812 125.489C127.122 125.853 127.906 127.219 127.542 128.536L127.514 128.641C127.15 129.958 125.783 130.736 124.466 130.372Z" fill="#E4ECF9"/>
<path d="M54.7363 129.105C56.7142 127.127 56.7142 123.92 54.7363 121.942C52.7583 119.965 49.5514 119.965 47.5734 121.942C45.5954 123.92 45.5954 127.127 47.5734 129.105C49.5514 131.083 52.7583 131.083 54.7363 129.105Z" fill="#E4ECF9"/>
<path d="M119.85 147.101L61.7044 131.059C60.3944 130.694 59.6098 129.328 59.9741 128.011L60.0021 127.906C60.3664 126.596 61.7324 125.811 63.0495 126.176L121.195 142.218C122.505 142.583 123.29 143.949 122.925 145.266L122.897 145.371C122.533 146.688 121.16 147.465 119.85 147.101Z" fill="#E4ECF9"/>
<path d="M50.117 145.835C52.095 143.857 52.095 140.65 50.117 138.672C48.139 136.694 44.9321 136.694 42.9541 138.672C40.9761 140.65 40.9761 143.857 42.9541 145.835C44.9321 147.813 48.139 147.813 50.117 145.835Z" fill="#E4ECF9"/>
<path d="M115.233 163.837L57.0877 147.794C55.7777 147.43 54.9931 146.064 55.3574 144.747L55.3854 144.642C55.7497 143.332 57.1157 142.547 58.4328 142.912L116.578 158.954C117.888 159.318 118.673 160.684 118.309 162.002L118.281 162.107C117.916 163.424 116.543 164.201 115.233 163.837Z" fill="#E4ECF9"/>
<path d="M62.6081 78.349C62.2718 78.2579 61.9776 78.0337 61.7884 77.7115L59.7709 74.1527C59.3996 73.5012 59.6308 72.6745 60.2823 72.3032C60.9338 71.9319 61.7604 72.1631 62.1317 72.8146L63.4838 75.1965L69.5715 71.7428C70.2231 71.3715 71.0497 71.6027 71.421 72.2542C71.7923 72.9057 71.5611 73.7323 70.9096 74.1036L63.6449 78.2229C63.3156 78.412 62.9443 78.447 62.6081 78.349Z" fill="#F9C067"/>
<path d="M53.6479 110.827C53.3116 110.735 53.0174 110.511 52.8282 110.189L50.8107 106.63C50.4394 105.979 50.6705 105.152 51.3221 104.781C51.9736 104.409 52.8002 104.641 53.1715 105.292L54.5236 107.674L60.6113 104.22C61.2629 103.849 62.0895 104.08 62.4608 104.732C62.8321 105.383 62.6009 106.21 61.9494 106.581L54.6847 110.7C54.3484 110.883 53.9841 110.925 53.6479 110.827Z" fill="#F9C067"/>
<path d="M48.8913 128.053C48.555 127.962 48.2608 127.738 48.0716 127.416L46.0541 123.857C45.6828 123.205 45.914 122.379 46.5655 122.007C47.217 121.636 48.0436 121.867 48.4149 122.519L49.767 124.901L55.8547 121.447C56.5063 121.076 57.3329 121.307 57.7042 121.958C58.0755 122.61 57.8443 123.436 57.1928 123.808L49.9281 127.927C49.5988 128.109 49.2276 128.144 48.8913 128.053Z" fill="#F9C067"/>
<path d="M44.4147 144.292C44.0785 144.201 43.7842 143.977 43.5951 143.654L41.5775 140.096C41.2062 139.444 41.4374 138.617 42.0889 138.246C42.7404 137.875 43.5671 138.106 43.9384 138.757L45.2904 141.139L51.3782 137.686C52.0297 137.314 52.8563 137.546 53.2276 138.197C53.5989 138.849 53.3677 139.675 52.7162 140.047L45.4515 144.166C45.1153 144.348 44.744 144.383 44.4147 144.292Z" fill="#F9C067"/>
<path d="M123.85 12.1475C127.205 12.1475 129.924 9.42821 129.924 6.07376C129.924 2.71932 127.205 0 123.85 0C120.496 0 117.776 2.71932 117.776 6.07376C117.776 9.42821 120.496 12.1475 123.85 12.1475Z" fill="#4786D1"/>
<path d="M12.0275 88.0558C12.6129 85.3679 10.9085 82.7144 8.22061 82.129C5.53273 81.5436 2.87921 83.248 2.29382 85.9359C1.70844 88.6238 3.41285 91.2773 6.10074 91.8627C8.78862 92.4481 11.4421 90.7436 12.0275 88.0558Z" fill="#4786D1"/>
<path d="M187.705 174.941C191.06 174.941 193.779 172.222 193.779 168.867C193.779 165.513 191.06 162.793 187.705 162.793C184.351 162.793 181.631 165.513 181.631 168.867C181.631 172.222 184.351 174.941 187.705 174.941Z" fill="#4786D1"/>
</svg>
