<svg width="258" height="179" viewBox="0 0 258 179" fill="none" xmlns="http://www.w3.org/2000/svg">
<path d="M257.949 173.03H94.5377L72.5454 31.6047C73.1875 31.4627 120.796 25.2083 165.213 19.3861C176.24 17.9413 187.063 16.5213 196.93 15.2309C222.028 11.9462 240.89 9.47656 240.89 9.47656L257.949 173.03Z" fill="#ECF3FE"/>
<path opacity="0.3" d="M247.743 138.091L235.462 122.847L234.493 121.643C237.549 118.753 237.623 113.499 238.333 110.362C239.037 107.245 235.302 104.096 233.851 103.003C234.234 102.731 234.475 102.565 234.475 102.565L233.376 101.249L231.906 102.398L231.567 100.039L231.492 99.5145C231.665 99.2552 231.826 98.9773 231.968 98.6933C234.153 99.8849 234.993 97.4585 235.043 95.1247C235.067 93.7911 234.839 92.4945 234.45 91.9141C233.369 90.3088 231.678 91.1053 231.147 91.0189C230.616 90.9324 230.375 89.5803 227.72 88.895C225.065 88.2096 222.719 91.5005 223.694 93.6984C224.127 94.674 224.707 95.1123 225.497 95.2543C225.423 95.4951 225.355 95.7421 225.306 95.9952C225.257 96.2298 225.22 96.4645 225.195 96.7053C224.979 98.6439 225.541 100.268 226.559 101.089L226.257 102.657L226.251 102.682L225.312 101.342L224.114 102.114L224.633 102.799C223.867 103.133 222.299 103.855 220.879 104.719L215.285 97.7734L214.853 97.2362C222.633 88.6665 228.27 78.1828 230.474 66.8533C235.518 40.9281 220.867 19.405 196.942 15.2251C187.076 16.5155 176.246 17.9355 165.225 19.3803C145.74 27.7216 129.835 45.8427 125.748 66.8533C120.123 95.773 139.004 119.216 167.923 119.216C179.247 119.216 190.434 115.623 200.19 109.51L201.887 111.622C200.998 112.029 201.122 112.715 201.739 113.999C202.449 115.487 203.869 115.364 203.869 115.364C203.869 115.364 204.295 115.401 204.857 115.308L212.328 124.582C211.519 126.002 212.995 128.626 215.285 128.755C215.433 128.761 215.569 128.768 215.699 128.768L216.205 129.397L206.216 143.345L202.709 168.43H203.159L202.974 169.523C202.919 169.486 202.869 169.455 202.832 169.418C202.69 169.288 202.455 169.301 202.283 169.449C201.4 170.171 199.356 171.82 199.047 171.906C198.652 172.017 196.312 172.005 196.022 172.598C195.954 172.734 195.892 172.882 195.849 173.03H206.512C206.598 172.209 206.845 169.542 206.043 169.906C206.018 169.918 205.993 169.931 205.962 169.937L206.357 168.43H207.16L212.951 144.882L219.583 137.763C219.329 138.887 219.064 140.066 218.805 141.208C218.008 144.722 217.298 147.877 217.298 147.877L221.07 168.023H221.7L221.923 169.406C221.855 169.393 221.793 169.375 221.743 169.356C221.558 169.288 221.33 169.369 221.194 169.554C220.533 170.474 218.996 172.573 218.712 172.746C218.613 172.808 218.36 172.907 218.039 173.03H225.102C225.571 172.876 225.862 172.777 225.886 172.771C225.985 172.74 226.751 172.005 226.658 171.604C226.565 171.202 225.905 168.165 225.139 168.795C225.115 168.813 225.09 168.832 225.065 168.85L225.016 168.029H225.788L224.831 147.796L225.399 146.858L227.479 143.419L233.073 150.365C234.438 152.056 236.493 152.908 238.716 152.908C240.939 152.908 243.322 152.063 245.347 150.365C249.404 146.975 250.472 141.48 247.743 138.091ZM169.239 112.388C144.097 112.388 127.68 92.0067 132.57 66.8656C137.46 41.7245 161.811 21.3437 186.952 21.3437C212.093 21.3437 228.51 41.7245 223.62 66.8656C218.73 92.0067 194.386 112.388 169.239 112.388Z" fill="#9FB8D6"/>
<path d="M103.601 31.8706L128.125 173.03H99.6931L103.601 31.8706Z" fill="#D7E4F9"/>
<path d="M106.268 173.03H11.3657L26.832 33.9883L49.596 33.3586L56.6654 33.1672L103.601 31.8706L106.268 173.03Z" fill="#ECF3FE"/>
<path d="M133.15 71.7494C127.798 54.7211 127.242 36.8655 131.329 19.4977C131.607 18.164 130.848 16.8119 129.613 16.2748C116.789 11.0206 103.959 5.76636 91.1355 0.518341C89.5364 -0.148467 87.8446 1.41359 87.1346 2.66077C74.4838 26.6041 68.6986 53.3505 70.131 80.3809C70.1557 82.2578 71.9586 83.6964 73.7799 83.4062C92.6852 80.4303 111.597 77.4543 130.502 74.4722C131.805 74.2438 133.539 73.3423 133.15 71.7494Z" fill="#FACF55"/>
<path d="M122.859 75.1944C115.03 59.1539 111.813 41.5823 113.264 23.8008C113.344 22.4363 112.387 21.22 111.085 20.8681C97.6188 17.5896 84.153 14.305 70.6872 11.0265C69.0078 10.6066 67.5692 12.4033 67.0506 13.7431C58.1104 39.3041 56.3817 66.6123 61.8334 93.1302C62.136 94.9825 64.1302 96.137 65.8899 95.5752C84.1406 89.8085 102.391 84.0481 120.642 78.2814C121.895 77.8616 123.476 76.7132 122.859 75.1944Z" fill="#D7E4F9"/>
<path d="M125.625 78.0655C106.72 81.0414 87.8081 84.0173 68.9029 86.9995C67.0815 87.2896 65.2849 85.8511 65.254 83.9741C63.8216 56.9437 69.6006 30.1974 82.2576 6.25403C82.9738 5.00685 84.6655 3.4448 86.2584 4.1116C99.0821 9.3658 111.912 14.62 124.736 19.868C125.971 20.4052 126.736 21.7511 126.452 23.0909C122.365 40.4588 122.927 58.3144 128.273 75.3427C128.669 76.9418 126.934 77.837 125.625 78.0655Z" fill="white"/>
<path d="M82.3006 43.1443C79.6581 42.8356 77.0156 42.5269 74.373 42.2182C75.54 36.9887 76.9662 31.8518 78.6703 26.7705C81.1029 27.32 83.5355 27.8633 85.9743 28.4128C84.4925 33.2657 83.2762 38.168 82.3006 43.1443Z" fill="#D7E4F9"/>
<path d="M94.2845 44.5399C91.642 44.2312 88.9995 43.9225 86.3569 43.6137C87.6967 36.1863 89.6169 28.9378 92.1421 21.8252C94.4574 22.4858 96.7665 23.1526 99.0818 23.8133C96.9209 30.5987 95.328 37.4952 94.2845 44.5399Z" fill="#D7E4F9"/>
<path d="M106.269 45.9352C103.626 45.6265 100.984 45.3178 98.3411 45.0091C98.9523 40.2797 99.8167 35.6182 100.934 30.9814C103.354 31.5433 105.775 32.1051 108.195 32.6608C107.318 37.0568 106.676 41.4713 106.269 45.9352Z" fill="#D7E4F9"/>
<path d="M118.253 47.3304C115.61 47.0216 112.967 46.7129 110.325 46.4042C110.837 39.1064 112.023 31.9444 113.881 24.875C116.135 25.5912 118.388 26.3012 120.642 27.0174C119.216 33.7287 118.419 40.4771 118.253 47.3304Z" fill="#D7E4F9"/>
<path d="M97.6746 16.7007C93.5811 15.2991 89.4815 13.8976 85.388 12.4961C84.9311 12.3417 84.7768 11.7428 85.0546 11.1686C85.3325 10.5944 85.9252 10.261 86.3759 10.4277C90.4076 11.8848 94.4393 13.3357 98.4649 14.7928C98.9156 14.9534 99.107 15.5152 98.8909 16.04C98.6748 16.5587 98.1376 16.8612 97.6746 16.7007Z" fill="#3B82F4"/>
<path d="M116.623 54.4863C102.533 53.7577 88.4439 53.0353 74.3545 52.3068C73.7556 52.2759 73.3481 51.7264 73.4469 51.072C73.5457 50.4237 74.1075 49.9298 74.7002 49.9668C88.6538 50.8991 102.607 51.8252 116.567 52.7575C117.16 52.7946 117.648 53.2144 117.672 53.6836C117.678 54.159 117.215 54.5171 116.623 54.4863Z" fill="#D7E4F9"/>
<path d="M117.03 60.1355C102.521 60.0923 88.0114 60.0553 73.5022 60.0121C72.891 60.0121 72.4341 59.4749 72.4958 58.8204C72.5576 58.166 73.1071 57.6412 73.7121 57.6535C88.0979 57.9067 102.484 58.1598 116.869 58.413C117.481 58.4253 118.005 58.8143 118.055 59.2835C118.104 59.7589 117.647 60.1355 117.03 60.1355Z" fill="#D7E4F9"/>
<path d="M117.759 65.7541C102.867 66.427 87.9746 67.1 73.0826 67.773C72.4528 67.8039 71.9589 67.2914 71.9836 66.6308C72.0082 65.9701 72.5392 65.4207 73.169 65.4021C87.9499 64.9514 102.731 64.5007 117.506 64.05C118.129 64.0315 118.691 64.3957 118.765 64.865C118.839 65.328 118.388 65.7294 117.759 65.7541Z" fill="#D7E4F9"/>
<path d="M118.802 71.3297C103.565 72.7436 88.3329 74.1574 73.0951 75.5652C72.453 75.6269 71.9159 75.133 71.9035 74.4723C71.8912 73.8117 72.4098 73.2313 73.0458 73.1819C88.1786 71.9965 103.318 70.8111 118.45 69.6318C119.092 69.5824 119.685 69.9158 119.784 70.3789C119.883 70.8481 119.444 71.2741 118.802 71.3297Z" fill="#D7E4F9"/>
<g opacity="0.3">
<path d="M77.3674 171.715C77.1143 171.721 75.9227 171.35 75.0027 171.054C74.1075 170.066 71.9836 167.689 71.6748 167.09C71.6563 167.047 71.6255 166.991 71.5946 166.917C72.8912 166.479 73.9655 166.102 74.0025 166.09C74.0889 166.059 71.9836 160.978 72.0206 160.725C72.0329 160.669 71.6502 160.725 71.0451 160.842L64.5561 145.894L53.5784 126.094C53.7019 126.094 53.7637 126.094 53.7637 126.094C53.7637 126.094 53.5784 123.445 53.634 123.383C53.634 123.377 53.5229 123.371 53.3191 123.371L53.2883 120.389C53.8686 120.605 54.7454 120.932 55.6344 121.266C57.2767 121.877 58.9932 122.513 59.0734 122.525C59.2401 122.556 60.938 119.481 61.0059 119.352C61.0677 119.234 62.2963 113.369 62.4569 112.579L62.4815 112.727L62.9446 113.048L63.2657 112.727L63.0681 112.017L63.1669 111.937C63.2348 111.881 63.2842 111.801 63.2965 111.708L63.5003 110.492C63.5373 110.269 63.3953 110.01 63.1607 109.893L62.4815 109.541C62.4445 109.522 62.4075 109.51 62.3704 109.498L62.1481 108.689C63.136 108.602 63.7411 107.757 63.5126 106.732C63.2718 105.645 62.1975 104.768 61.1109 104.768C60.0242 104.768 59.3389 105.651 59.5797 106.732C59.8081 107.757 60.7837 108.602 61.8086 108.689L61.9567 109.559C61.5986 109.751 61.0183 110.066 60.9689 110.109C60.8948 110.171 61.0924 112.109 61.1232 112.239C61.1541 112.369 57.2274 118.302 57.2274 118.302C57.2274 118.302 54.9738 117.135 53.5723 116.4C53.3685 116.295 53.1833 116.197 53.0228 116.116L53.245 115.906L47.9414 113.239L47.5525 113.826L46.2868 112.684L45.6879 111.152L45.2372 109.529C45.8546 109.516 46.3609 109.448 46.6449 109.35C47.75 108.967 45.904 106.411 46.293 106.318C46.6819 106.225 46.6881 105.892 46.6881 105.892C46.225 104.639 44.4839 103.231 43.5763 102.564C43.8048 102.305 44.1443 101.595 42.5823 100.446C40.5757 98.9708 37.927 99.1931 36.0747 100.446C34.2225 101.7 36.1118 106.497 38.6247 109.701C39.5199 110.838 39.7978 112.634 39.8286 114.561L36.1241 116.357L36.4946 116.851C36.3649 116.987 36.1859 117.166 35.9698 117.394C34.1422 119.284 29.6475 123.988 29.6475 123.988C29.6475 123.988 32.9136 126.847 40.0756 128.212C40.0756 128.212 42.5144 128.767 43.0454 129.082C43.2244 129.193 43.5455 129.267 43.9406 129.274C42.9466 134.843 43.5022 143.474 44.947 146.666C46.1818 149.395 48.0402 157.57 49.0775 162.435L48.5342 162.472C48.5342 162.472 49.9233 166.886 49.9419 166.979C49.948 167.016 51.2384 167.053 52.8869 167.09C52.9672 167.603 52.9549 167.967 53.0228 168.325C52.64 168.905 52.1522 169.856 52.6523 170.43C53.3809 171.27 53.7019 171.387 54.1465 172.258C54.3008 172.554 54.4366 172.814 54.554 173.03H55.0047C54.7639 172.375 54.3996 171.394 54.3749 171.319C54.4305 171.387 55.6529 171.931 56.3815 172.826C56.4371 172.894 56.4865 172.962 56.542 173.03H61.4752C61.1973 172.869 60.8763 172.764 60.7343 172.733C60.475 172.684 59.3389 172.079 58.4684 171.603C57.7769 170.492 56.1407 167.825 55.9678 167.201C55.9617 167.183 55.9555 167.164 55.9555 167.146C58.0176 167.183 59.839 167.201 59.9069 167.201C60.0675 167.201 59.0487 161.737 59.0487 161.737L58.3264 161.787L56.5482 152.186C56.6099 152.272 57.6966 153.939 59.1599 156.15C60.4503 158.101 62.0308 160.478 63.4447 162.564C63.1484 162.632 62.9446 162.682 62.8643 162.694C62.8643 162.694 67.0689 168.22 67.0998 168.343C67.1122 168.387 67.8592 168.158 68.8594 167.831C69.0014 168.245 69.0694 168.572 69.199 168.874C68.9767 169.554 68.7421 170.628 69.341 171.109C70.2116 171.813 70.5326 171.863 71.1439 172.653C71.2488 172.783 71.3414 172.912 71.4341 173.023H71.9712C71.6069 172.418 71.1624 171.684 71.1377 171.64C71.1747 171.696 72.4528 171.98 73.3419 172.746C73.4407 172.832 73.5394 172.925 73.6444 173.023H78.2812C79.4234 171.999 77.7379 171.708 77.3674 171.715ZM61.8456 108.096C61.0924 108.096 60.3453 107.485 60.1786 106.732C60.0119 105.978 60.4873 105.367 61.2405 105.367C61.9938 105.367 62.7409 105.978 62.9076 106.732C63.0804 107.485 62.5989 108.096 61.8456 108.096ZM44.3049 127.631C44.0456 127.693 43.8048 127.761 43.5948 127.847C43.5948 127.847 35.9945 125.057 34.593 123.371L36.6922 121.858L39.0013 120.191L39.1371 120.377L39.5878 119.932C39.5076 121.439 39.5076 122.661 39.8471 123.254C40.551 124.489 42.7552 125.995 44.663 126.532C44.5271 126.872 44.4098 127.236 44.3049 127.631Z" fill="#9FB8D6"/>
<path d="M59.518 158.15C59.5241 158.162 59.5241 158.15 59.5056 158.107C59.5056 158.132 59.5118 158.15 59.518 158.15Z" fill="#9FB8D6"/>
</g>
<path d="M62.5928 90.4323C62.5928 90.4323 64.1734 89.5185 62.1298 87.7219C60.0861 85.9314 56.8077 86.1969 54.2269 87.7219C51.6461 89.2469 52.6463 95.0691 54.8443 98.965C57.0423 102.861 51.8931 113.116 52.6895 115.431C53.4922 117.747 58.4562 120.828 60.7962 119.21C63.1362 117.592 64.8402 113.425 63.1794 109.263C61.5185 105.096 61.6729 95.9952 62.1298 95.1494C62.5867 94.3035 62.5928 90.4323 62.5928 90.4323Z" fill="#1F3A6F"/>
<path d="M84.8508 99.9405L84.2705 101.416C84.2272 101.527 84.1532 101.626 84.0482 101.694L83.0665 102.361C83.0665 102.361 79.5596 110.535 79.4423 110.69C79.325 110.844 76.4355 114.586 76.2441 114.542C76.1453 114.524 74.2375 113.752 72.4038 113.011C70.6688 112.307 68.9956 111.622 68.9956 111.622L67.7546 107.868L70.0391 106.405C70.0885 106.442 70.5577 106.726 71.206 107.103C72.7125 107.992 75.1327 109.412 75.1327 109.412C75.1327 109.412 81.4921 102.2 81.4921 102.046C81.4921 101.892 81.7761 99.5392 81.8811 99.4651C81.9552 99.4095 82.8504 98.9773 83.3196 98.7551C83.4987 98.6686 83.7086 98.681 83.8753 98.7798L84.6039 99.212C84.8508 99.3601 84.9558 99.6688 84.8508 99.9405Z" fill="white"/>
<path d="M72.4038 113.011C70.6688 112.307 68.9956 111.622 68.9956 111.622L67.7546 107.868L70.0391 106.405C70.0885 106.442 70.5577 106.726 71.206 107.102C71.4283 108.214 72.0889 111.455 72.4038 113.011Z" fill="#BACAE2"/>
<path d="M76.5216 170.128C76.4166 170.319 74.8114 172.703 75.6757 173.555C76.5401 174.407 76.9167 174.468 77.4477 175.432C77.9787 176.395 78.3738 177.006 78.3738 177.006L78.7196 176.833C78.7196 176.833 77.6823 174.135 77.7132 174.203C77.7441 174.271 79.2197 174.617 80.0964 175.549C80.9731 176.481 81.782 178.253 85.0357 176.5C88.2895 174.74 85.7705 174.283 85.2518 174.289C84.7332 174.295 81.3189 173.042 81.3189 173.042L76.5216 170.128Z" fill="#15315E"/>
<path d="M79.59 168.665C79.4233 168.09 78.8059 164.831 78.1452 161.719L73.4961 162.027C73.5208 162.089 73.5393 162.157 73.564 162.219C74.6321 165.232 75.7311 168.214 75.8978 169.085C76.2251 170.764 75.6447 171.289 77.6513 172.777C79.6579 174.265 81.2323 175.765 82.3498 175.351C83.4735 174.931 83.6834 174.697 82.9302 174.011C82.9302 174.011 79.8555 169.591 79.59 168.665Z" fill="white"/>
<path d="M57.1657 169.566C57.0237 169.733 54.9368 171.709 55.5913 172.728C56.2519 173.746 56.6039 173.888 56.9126 174.944C57.2213 176 57.4744 176.685 57.4744 176.685L57.851 176.593C57.851 176.593 57.4312 173.734 57.4435 173.808C57.4559 173.882 58.8266 174.543 59.4748 175.642C60.1293 176.741 60.5306 178.649 64.0931 177.642C67.6494 176.636 65.2909 175.636 64.7846 175.531C64.2783 175.426 61.2159 173.462 61.2159 173.462L57.1657 169.566Z" fill="#15315E"/>
<path d="M60.4751 168.801C60.438 168.202 60.543 164.886 60.58 161.707L55.9741 160.997C55.9803 161.064 55.9926 161.132 55.9988 161.194C56.3878 164.368 56.8076 167.516 56.7829 168.406C56.7397 170.122 56.0544 170.505 57.6905 172.394C59.3267 174.283 60.5306 176.092 61.7161 175.926C62.9015 175.765 63.1546 175.58 62.5743 174.746C62.5743 174.753 60.5306 169.764 60.4751 168.801Z" fill="white"/>
<path d="M81.7204 166.757C81.7204 166.757 74.7807 170.227 73.8546 169.301C73.2433 168.69 69.6809 160.731 67.3223 155.378C66.1369 152.692 65.2602 150.667 65.217 150.562V150.556L64.5687 168.14L53.3379 167.566C53.3379 167.566 53.7207 148.685 52.6032 143.857C51.4857 139.029 54.3134 123.915 58.2217 118.568L68.4028 118.259L76.6268 142.925L81.7204 166.757Z" fill="#1F3A6F"/>
<path d="M64.5684 103.997L65.2166 103.262L70.9401 106.504L67.6431 109.047L64.5684 103.997Z" fill="#E59D29"/>
<path d="M65.2167 104.682L63.2842 107.047L59.5859 103.682L59.4377 101.638L59.2031 99.6564L58.2214 97.3843L62.9014 98.4092L63.0311 100.731L63.3521 102.589L65.2167 104.682Z" fill="white"/>
<path d="M63.0311 100.731C62.1235 100.582 60.5923 100.28 59.2031 99.6564L58.2214 97.3843L62.9014 98.4154L63.0311 100.731Z" fill="#BACAE2"/>
<path d="M64.6733 98.5389C63.6361 98.8661 60.5428 98.9525 58.4374 97.8782C57.5978 97.446 56.9124 96.8348 56.5729 95.9766C55.3998 92.9698 56.1901 90.1729 56.1901 90.1729L62.2037 89.8271C62.2037 89.8271 62.4259 90 62.7593 90.2902C63.6793 91.0928 65.4266 92.8093 65.655 94.3343C65.655 94.3343 65.5562 94.7418 65.0561 94.8529C64.5622 94.9764 66.1243 98.0758 64.6733 98.5389Z" fill="white"/>
<path d="M62.7655 90.2902C62.605 90.4754 62.2345 90.6668 61.4628 90.778C59.6599 91.0311 57.9929 91.8029 59.0734 93.402C60.1539 94.9949 59.4809 95.2295 59.0981 95.1493C58.7153 95.0752 57.2458 94.5318 57.5545 95.8408C57.7151 96.5323 58.104 97.304 58.4374 97.8782C57.5978 97.446 56.9124 96.8348 56.5729 95.9766C55.3998 92.9698 56.1901 90.1729 56.1901 90.1729L62.2037 89.8271C62.2098 89.8271 62.4321 90 62.7655 90.2902Z" fill="#1F3A6F"/>
<path d="M70.2548 109.726L68.6063 117.555L58.2214 117.746L56.3136 114.771L54.3934 111.782L54.165 110.677L52.6091 111.937L50.0283 107.053L59.4562 102.922C59.5612 102.947 62.9323 105.688 63.0125 105.664C63.0866 105.639 64.5746 103.997 64.5746 103.997L65.2229 104.682L70.2548 109.726Z" fill="#FACF55"/>
<path d="M56.3136 114.771L54.3935 111.783L54.165 110.677C54.165 110.677 56.3322 109.263 56.5421 108.529C56.7088 107.942 57.0607 112.696 56.3136 114.771Z" fill="#E59D29"/>
<path opacity="0.5" d="M67.2173 157.761C67.2296 157.811 67.2296 157.829 67.2235 157.811C67.2173 157.804 67.2173 157.786 67.2173 157.761Z" fill="#F94141"/>
<path d="M67.3222 155.378C66.1368 152.692 65.26 150.667 65.2168 150.562V150.556C66.7418 144.567 64.8464 129.447 64.8093 129.113C67.9458 136.88 67.5753 149.982 67.3222 155.378Z" fill="#072542"/>
<path d="M59.66 121.581C57.5979 122.933 55.5727 122.89 55.0109 122.507C54.4552 122.124 51.6336 121.445 51.6336 121.445C43.3047 119.784 40.1003 116.314 40.1003 116.314C40.1003 116.314 46.824 110.603 49.5468 108.3C49.8678 108.029 50.1333 107.807 50.3247 107.646L52.4733 111.709L49.2196 113.734L46.2683 115.567C47.5217 117.617 56.0049 121.001 56.0049 121.001C57.9621 120.291 61.7222 120.229 59.66 121.581Z" fill="white"/>
<path d="M75.1386 165.164C75.0892 165.164 75.046 165.133 75.0275 165.084L67.9334 144.826C67.9148 144.765 67.9457 144.703 68.0013 144.678C68.063 144.66 68.1248 144.691 68.1495 144.746L75.2435 165.004C75.2621 165.065 75.2312 165.127 75.1756 165.152C75.1633 165.164 75.1509 165.164 75.1386 165.164Z" fill="white"/>
<path d="M56.7026 164.75C56.6409 164.75 56.5915 164.707 56.5853 164.645C55.5728 152.847 55.5542 144.055 55.7148 138.757C55.8876 133.015 56.3075 130.021 56.3075 129.99C56.3136 129.928 56.3754 129.885 56.4371 129.891C56.4989 129.897 56.5421 129.959 56.5359 130.021C56.5297 130.052 56.1161 133.034 55.9432 138.77C55.7827 144.061 55.8074 152.84 56.8138 164.627C56.8199 164.689 56.7705 164.744 56.7088 164.75C56.715 164.75 56.7088 164.75 56.7026 164.75Z" fill="white"/>
<path d="M60.7407 164.238C60.7345 164.238 60.7283 164.238 60.7222 164.238C60.6604 164.226 60.6172 164.17 60.6296 164.102C63.0683 150.112 62.7164 134.942 62.7102 134.794C62.7102 134.732 62.7596 134.676 62.8214 134.676C62.8831 134.676 62.9325 134.726 62.9387 134.787C62.9449 134.942 63.2968 150.13 60.8518 164.145C60.8457 164.201 60.7963 164.238 60.7407 164.238Z" fill="white"/>
<path d="M78.1699 164.238C78.1144 164.238 78.065 164.195 78.0526 164.139C75.9966 148.778 70.7054 134.053 70.656 133.905C70.6313 133.843 70.6683 133.781 70.7239 133.756C70.7856 133.732 70.8474 133.769 70.8721 133.824C70.9277 133.972 76.2189 148.716 78.2811 164.108C78.2872 164.17 78.244 164.232 78.1823 164.238C78.1823 164.238 78.1761 164.238 78.1699 164.238Z" fill="white"/>
<path d="M70.3045 153.878C70.286 153.878 70.2736 153.872 70.2551 153.865C70.1995 153.841 70.1748 153.767 70.1995 153.711L71.28 151.396C71.3047 151.34 71.3788 151.315 71.4343 151.34C71.4899 151.365 71.5146 151.439 71.4899 151.494L70.4094 153.81C70.3909 153.853 70.3477 153.878 70.3045 153.878Z" fill="white"/>
<path d="M72.5391 156.113C72.5268 156.113 72.5206 156.113 72.5083 156.107L71.1191 155.761C71.0573 155.743 71.0203 155.681 71.0326 155.619C71.0512 155.557 71.1129 155.52 71.1746 155.533L72.5638 155.878C72.6256 155.897 72.6626 155.959 72.6503 156.02C72.6379 156.082 72.5947 156.113 72.5391 156.113Z" fill="white"/>
<path d="M56.7023 148.636C56.6837 148.636 56.659 148.63 56.6405 148.617L54.7389 147.42C54.6833 147.383 54.671 147.315 54.7018 147.259C54.7389 147.204 54.8068 147.191 54.8624 147.222L56.764 148.42C56.8196 148.457 56.8319 148.525 56.801 148.58C56.7825 148.617 56.7455 148.636 56.7023 148.636Z" fill="white"/>
<path d="M54.8009 152.723C54.77 152.723 54.733 152.711 54.7083 152.68C54.6651 152.631 54.6774 152.557 54.7268 152.52L56.6285 150.976C56.6779 150.933 56.7519 150.945 56.789 150.995C56.8322 151.044 56.8199 151.118 56.7705 151.155L54.8688 152.699C54.8565 152.711 54.8256 152.723 54.8009 152.723Z" fill="white"/>
<path d="M56.7029 115.74C56.7029 115.74 69.4772 115.511 69.4031 115.586C69.329 115.66 68.8351 118.876 68.8351 118.876C68.8351 118.876 57.9068 119.006 57.9377 118.876C57.9624 118.747 56.7029 115.74 56.7029 115.74Z" fill="white"/>
<path d="M59.1104 118.376C59.061 118.376 59.0116 118.345 58.9993 118.29L58.4127 116.259C58.3942 116.197 58.4313 116.135 58.493 116.117C58.5547 116.098 58.6165 116.135 58.635 116.197L59.2216 118.228C59.2401 118.29 59.203 118.352 59.1413 118.37C59.1289 118.37 59.1166 118.376 59.1104 118.376Z" fill="#1F3A6F"/>
<path d="M61.2406 118.376C61.1788 118.376 61.1294 118.333 61.1233 118.272L60.9566 116.24C60.9504 116.178 60.9998 116.123 61.0615 116.117C61.1233 116.111 61.1788 116.16 61.185 116.222L61.3517 118.253C61.3579 118.315 61.3085 118.37 61.2468 118.376C61.2468 118.376 61.2468 118.376 61.2406 118.376Z" fill="#1F3A6F"/>
<path d="M63.6053 118.29C63.5436 118.29 63.488 118.241 63.488 118.173V116.228C63.488 116.166 63.5374 116.111 63.6053 116.111C63.6671 116.111 63.7227 116.16 63.7227 116.228V118.173C63.7227 118.235 63.6671 118.29 63.6053 118.29Z" fill="#1F3A6F"/>
<path d="M65.408 118.377H65.4019C65.3401 118.37 65.2907 118.315 65.2969 118.253L65.4451 116.123C65.4513 116.061 65.5068 116.012 65.5686 116.018C65.6303 116.024 65.6797 116.08 65.6735 116.142L65.5254 118.272C65.5192 118.327 65.4636 118.377 65.408 118.377Z" fill="#1F3A6F"/>
<path d="M67.3531 118.29C67.3469 118.29 67.3345 118.29 67.3284 118.29C67.2666 118.278 67.2234 118.216 67.2358 118.154L67.6371 116.209C67.6494 116.148 67.7112 116.105 67.7729 116.117C67.8347 116.129 67.8779 116.191 67.8655 116.253L67.4642 118.198C67.4519 118.247 67.4025 118.29 67.3531 118.29Z" fill="#1F3A6F"/>
<path d="M70.0759 163.324C70.8292 163.201 81.8377 160.626 81.7204 160.935C81.603 161.244 82.8008 167.412 82.6835 167.455C82.5662 167.492 73.7002 170.344 73.7002 170.19C73.7002 170.036 70.0759 163.324 70.0759 163.324Z" fill="#FACF55"/>
<path d="M52.7202 163.059L65.6797 162.17C65.6797 162.17 65.4513 168.801 65.2537 168.801C65.0562 168.801 53.2203 168.647 53.2203 168.529C53.2203 168.412 52.7202 163.059 52.7202 163.059Z" fill="#FACF55"/>
<path d="M52.4857 111.708L49.2319 113.733C49.306 112.35 49.4604 109.572 49.5592 108.306C49.8802 108.035 50.1457 107.812 50.3371 107.652L52.4857 111.708Z" fill="#BACAE2"/>
<path d="M83.6711 97.3843H83.4859H83.3007L83.0105 102.645L83.4859 103.034L83.9613 102.645L83.6711 97.3843Z" fill="#3B82F4"/>
<path d="M83.4861 97.7485C82.171 97.7485 81.0967 96.6742 81.0967 95.3591C81.0967 94.044 82.1648 92.9697 83.4861 92.9697C84.8012 92.9697 85.8755 94.044 85.8755 95.3591C85.8755 96.6742 84.8012 97.7485 83.4861 97.7485ZM83.4861 93.7044C82.5723 93.7044 81.8252 94.4515 81.8252 95.3653C81.8252 96.2791 82.5661 97.0261 83.4861 97.0261C84.3999 97.0261 85.1469 96.2791 85.1469 95.3653C85.1469 94.4453 84.3999 93.7044 83.4861 93.7044Z" fill="#3B82F4"/>
<path d="M83.801 99.6997C83.801 99.6997 82.8255 100.299 82.844 101.169C82.8625 102.034 83.9121 101.787 83.9121 101.787L84.3567 100.015L83.801 99.6997Z" fill="white"/>
<path d="M181.439 6.58096C177.592 6.20434 173.61 6.48217 169.652 7.50091C151.512 12.1624 140.578 30.6478 145.246 48.7997C149.907 66.9394 168.393 77.8738 186.545 73.2061C189.156 72.5331 191.626 71.5762 193.91 70.3722L178.098 40.3535L181.439 6.58096Z" fill="#FACF55"/>
<path d="M186.131 2.64209L183.229 36.4517L217.051 39.1189C217.353 35.3403 217.02 31.4445 215.97 27.5795C212.136 13.4468 199.918 3.8337 186.131 2.64209Z" fill="#1F3A6F"/>
<path d="M170.625 168.642C172.214 167.053 172.214 164.477 170.625 162.888C169.036 161.299 166.46 161.299 164.871 162.888C163.282 164.477 163.282 167.053 164.871 168.642C166.46 170.231 169.036 170.231 170.625 168.642Z" fill="#D7E4F9"/>
<path d="M167.613 155.831C169.201 154.242 169.201 151.666 167.613 150.077C166.024 148.488 163.447 148.488 161.858 150.077C160.27 151.666 160.27 154.242 161.858 155.831C163.447 157.42 166.024 157.42 167.613 155.831Z" fill="#D7E4F9"/>
<path d="M164.601 143.019C166.189 141.43 166.189 138.854 164.601 137.265C163.012 135.676 160.435 135.676 158.846 137.265C157.258 138.854 157.258 141.43 158.847 143.019C160.435 144.608 163.012 144.608 164.601 143.019Z" fill="#D7E4F9"/>
<path d="M161.588 130.208C163.177 128.619 163.177 126.042 161.588 124.454C159.999 122.865 157.423 122.865 155.834 124.454C154.245 126.042 154.245 128.619 155.834 130.208C157.423 131.797 159.999 131.797 161.588 130.208Z" fill="#D7E4F9"/>
<path d="M158.576 117.396C160.165 115.807 160.165 113.231 158.576 111.642C156.987 110.053 154.411 110.053 152.822 111.642C151.233 113.231 151.233 115.807 152.822 117.396C154.411 118.985 156.987 118.985 158.576 117.396Z" fill="white"/>
<path d="M158.216 171.561C159.805 169.972 159.805 167.396 158.216 165.807C156.627 164.218 154.051 164.218 152.462 165.807C150.873 167.396 150.873 169.972 152.462 171.561C154.051 173.15 156.627 173.15 158.216 171.561Z" fill="white"/>
<path d="M155.204 158.749C156.793 157.16 156.793 154.584 155.204 152.995C153.615 151.406 151.038 151.406 149.45 152.995C147.861 154.584 147.861 157.16 149.45 158.749C151.038 160.338 153.615 160.338 155.204 158.749Z" fill="#D7E4F9"/>
<path d="M152.191 145.938C153.78 144.349 153.78 141.773 152.191 140.184C150.602 138.595 148.026 138.595 146.437 140.184C144.848 141.773 144.848 144.349 146.437 145.938C148.026 147.527 150.602 147.527 152.191 145.938Z" fill="#D7E4F9"/>
<path d="M149.179 133.126C150.768 131.537 150.768 128.961 149.179 127.372C147.59 125.783 145.014 125.783 143.425 127.372C141.836 128.961 141.836 131.537 143.425 133.126C145.014 134.715 147.59 134.715 149.179 133.126Z" fill="white"/>
<path d="M146.162 120.31C147.751 118.721 147.751 116.145 146.162 114.556C144.573 112.967 141.997 112.967 140.408 114.556C138.819 116.145 138.819 118.721 140.408 120.31C141.997 121.899 144.573 121.899 146.162 120.31Z" fill="#D7E4F9"/>
<path d="M146.696 173.141H139.158C139.078 172.943 139.01 172.739 138.96 172.529C138.448 170.344 139.8 168.152 141.992 167.633C144.177 167.121 146.369 168.473 146.888 170.665C147.092 171.529 147.011 172.387 146.696 173.141Z" fill="#D7E4F9"/>
<path d="M142.794 161.668C144.383 160.079 144.383 157.503 142.794 155.914C141.205 154.325 138.629 154.325 137.04 155.914C135.451 157.503 135.451 160.079 137.04 161.668C138.629 163.257 141.205 163.257 142.794 161.668Z" fill="#D7E4F9"/>
<path d="M139.777 148.852C141.366 147.263 141.366 144.687 139.777 143.098C138.188 141.509 135.612 141.509 134.023 143.098C132.434 144.687 132.434 147.263 134.023 148.852C135.612 150.441 138.188 150.441 139.777 148.852Z" fill="#D7E4F9"/>
<path d="M136.765 136.041C138.354 134.452 138.354 131.875 136.765 130.287C135.176 128.698 132.6 128.698 131.011 130.287C129.422 131.875 129.422 134.452 131.011 136.041C132.6 137.63 135.176 137.63 136.765 136.041Z" fill="#D7E4F9"/>
<path d="M133.753 123.229C135.342 121.64 135.342 119.064 133.753 117.475C132.164 115.886 129.588 115.886 127.999 117.475C126.41 119.064 126.41 121.64 127.999 123.229C129.588 124.818 132.164 124.818 133.753 123.229Z" fill="#D7E4F9"/>
<path d="M134.348 173.141H126.686C127.137 171.888 128.193 170.881 129.588 170.554C131.619 170.078 133.663 171.221 134.348 173.141Z" fill="#D7E4F9"/>
<path d="M130.38 164.582C131.969 162.993 131.969 160.417 130.38 158.828C128.791 157.239 126.215 157.239 124.626 158.828C123.037 160.417 123.037 162.993 124.626 164.582C126.215 166.171 128.791 166.171 130.38 164.582Z" fill="#D7E4F9"/>
<path d="M127.368 151.771C128.957 150.182 128.957 147.605 127.368 146.017C125.779 144.428 123.203 144.428 121.614 146.017C120.025 147.605 120.025 150.182 121.614 151.771C123.203 153.36 125.779 153.36 127.368 151.771Z" fill="#D7E4F9"/>
<path d="M124.356 138.959C125.945 137.37 125.945 134.794 124.356 133.205C122.767 131.616 120.191 131.616 118.602 133.205C117.013 134.794 117.013 137.37 118.602 138.959C120.191 140.548 122.767 140.548 124.356 138.959Z" fill="#D7E4F9"/>
<path d="M121.343 126.148C122.932 124.559 122.932 121.982 121.343 120.393C119.755 118.805 117.178 118.805 115.589 120.393C114 121.982 114 124.559 115.589 126.148C117.178 127.736 119.755 127.736 121.343 126.148Z" fill="#D7E4F9"/>
<path d="M199.325 71.5395C209.451 66.0446 216.051 55.7337 216.946 44.3918L183.124 41.7246L199.325 71.5395Z" fill="white"/>
<path d="M209.957 167.516L211.069 170.659L214.304 169.844L213.316 165.942L209.957 167.516Z" fill="white"/>
<path d="M210.661 170.048C210.445 169.974 210.21 170.06 210.099 170.264C209.568 171.27 208.333 173.579 208.056 173.771C207.704 174.012 205.253 174.802 205.277 175.481C205.302 176.16 205.444 177 207.296 176.623C209.148 176.247 215.841 173.833 215.946 173.796C216.051 173.759 216.73 172.95 216.545 172.511C216.36 172.073 214.983 168.739 214.279 169.43C213.693 170.011 211.507 170.344 210.661 170.048Z" fill="#15315E"/>
<path d="M210.76 171.425C210.735 171.425 210.704 171.412 210.686 171.394L209.735 170.499C209.692 170.455 209.692 170.387 209.729 170.344C209.772 170.301 209.84 170.301 209.883 170.338L210.834 171.233C210.877 171.277 210.877 171.344 210.84 171.388C210.822 171.412 210.791 171.425 210.76 171.425Z" fill="white"/>
<path d="M210.241 172.042C210.223 172.042 210.204 172.036 210.186 172.023L209.087 171.357C209.037 171.326 209.019 171.258 209.05 171.208C209.081 171.159 209.149 171.14 209.198 171.171L210.297 171.838C210.346 171.869 210.365 171.937 210.334 171.986C210.315 172.023 210.278 172.042 210.241 172.042Z" fill="white"/>
<path d="M209.741 172.758L208.432 172.709C208.371 172.709 208.327 172.659 208.327 172.598C208.327 172.536 208.377 172.493 208.439 172.493L209.741 172.542C209.803 172.542 209.846 172.591 209.846 172.653C209.852 172.715 209.803 172.758 209.741 172.758Z" fill="white"/>
<path d="M209.463 146.376L214.835 168.591H209.643L201.196 146.463C201.196 146.463 201.307 143.005 201.425 139.14C201.573 134.448 201.733 129.169 201.733 128.78L214.835 133.312L209.889 145.345L209.463 146.376Z" fill="#15315E"/>
<path d="M214.835 133.312L209.889 145.345L204.049 137.788L201.425 139.146C201.573 134.454 201.733 129.175 201.733 128.786L214.835 133.312Z" fill="#072542"/>
<path d="M208.024 97.9893V102.28H201.363V94.3713L206.265 92.7969L206.648 93.9329L208.024 97.9893Z" fill="white"/>
<path d="M209.093 96.7485L204.129 100.367L200.097 96.7485C200.097 96.7485 194.232 99.3725 193.435 101.638C192.632 103.904 193.435 116.919 193.435 116.919H213.52V102.213L209.093 96.7485Z" fill="#FACF55"/>
<path d="M190.021 167.492L190.101 170.826L193.429 171.048L193.7 167.041L190.021 167.492Z" fill="white"/>
<path d="M189.903 170.116C189.724 169.98 189.465 169.986 189.305 170.147C188.49 170.937 186.594 172.752 186.273 172.845C185.866 172.968 183.291 172.956 183.1 173.61C182.908 174.265 182.785 175.111 184.668 175.327C186.545 175.543 193.657 175.327 193.762 175.327C193.873 175.327 194.769 174.771 194.732 174.289C194.688 173.814 194.417 170.214 193.534 170.653C192.793 171.023 190.613 170.659 189.903 170.116Z" fill="#15315E"/>
<path d="M189.607 171.461C189.57 171.461 189.533 171.443 189.514 171.406L188.891 170.264C188.86 170.208 188.878 170.146 188.934 170.115C188.99 170.085 189.051 170.103 189.082 170.159L189.706 171.301C189.737 171.356 189.718 171.418 189.663 171.449C189.644 171.455 189.626 171.461 189.607 171.461Z" fill="white"/>
<path d="M188.916 171.888C188.885 171.888 188.854 171.875 188.835 171.851L187.996 170.875C187.959 170.832 187.959 170.764 188.008 170.721C188.051 170.684 188.119 170.684 188.162 170.733L189.002 171.709C189.039 171.752 189.039 171.82 188.99 171.863C188.971 171.881 188.946 171.888 188.916 171.888Z" fill="white"/>
<path d="M188.224 172.412C188.212 172.412 188.2 172.412 188.187 172.406L186.959 171.956C186.903 171.937 186.872 171.875 186.897 171.814C186.915 171.758 186.977 171.727 187.039 171.752L188.267 172.202C188.323 172.221 188.354 172.283 188.329 172.344C188.311 172.388 188.267 172.412 188.224 172.412Z" fill="white"/>
<path d="M200.048 95.3716L203.561 99.3045L203.826 101.391L198.899 96.2174L200.048 95.3716Z" fill="#1F3A6F"/>
<path d="M206.648 93.9331C205.987 95.0691 203.906 98.113 201.363 96.8164V94.3776L206.265 92.8032L206.648 93.9331Z" fill="#BACAE2"/>
<path d="M196.399 125.483L188.052 141.486L189.558 169.035H194.448L195.782 143.178L208.821 125.483H196.399Z" fill="#1F3A6F"/>
<path d="M209.204 105.831C209.204 105.831 210.401 115.16 207.111 114.227V115.857H212.618V105.831H209.204Z" fill="#E59D29"/>
<path d="M232.542 149.198C230.684 151.056 228.245 151.988 225.806 151.988C223.368 151.988 220.929 151.056 219.064 149.198L196.133 126.267L191.429 121.562L176.524 106.658L170.233 100.366L183.711 86.8882L188.274 91.4509L211.711 114.888L215.798 118.975L232.542 135.719C236.265 139.436 236.265 145.475 232.542 149.198Z" fill="#3B82F4"/>
<path d="M206.673 92.3893L207.117 89.1355L209.414 88.5366C209.871 91.1359 209.439 93.8526 206.673 92.3893Z" fill="#1F3A6F"/>
<path d="M207.086 89.6047C207.346 92.7906 205.734 95.5257 203.487 95.7109C201.233 95.8962 199.196 93.4635 198.93 90.2777C198.906 90.0122 198.899 89.7529 198.906 89.4997C198.943 86.6596 200.468 84.3443 202.536 84.1776C204.135 84.048 205.623 85.2334 206.45 87.0733C206.784 87.8142 207.006 88.6786 207.086 89.6047Z" fill="white"/>
<path d="M206.444 87.0612L205.999 89.9013C205.999 89.9013 205.666 88.5554 202.06 89.3518C200.56 89.6852 199.56 89.6482 198.899 89.4877C198.936 86.6476 200.461 84.3322 202.53 84.1655C204.129 84.0421 205.617 85.2275 206.444 87.0612Z" fill="#BACAE2"/>
<path d="M200.035 81.6956C203.098 82.4489 203.653 83.9307 204.252 84.0295C204.851 84.1221 206.543 83.2453 208.074 85.0111C208.623 85.6471 209.154 87.0733 209.408 88.5366L207.111 89.1355L207.173 88.7033C207.173 88.7033 206.642 90.8581 206.061 90.8087C205.481 90.7593 206.796 87.8204 203.375 88.3081C199.949 88.7959 198.177 89.3824 196.639 86.9683C195.102 84.5543 196.973 80.9424 200.035 81.6956Z" fill="#1F3A6F"/>
<path d="M206.339 89.6483C206.438 89.2531 206.685 88.9074 207.055 88.7345C207.358 88.5925 207.772 88.5616 208.198 88.9815C209.056 89.8273 207.802 91.8216 206.747 91.4202L206.302 90.8461C206.228 90.3274 206.271 89.9323 206.339 89.6483Z" fill="white"/>
<path d="M208.889 95.2603L210.377 96.705C210.377 96.705 204.579 101.484 204.579 101.391C204.579 101.299 204.579 99.2364 204.579 99.2364L208.889 95.2603Z" fill="#1F3A6F"/>
<path d="M177.036 106.467C177.036 106.467 182.599 104.398 182.933 107.732C183.266 111.066 179.5 110.764 179.5 110.764C179.5 110.764 177.969 110.9 176.87 109.264C175.771 107.634 175.561 106.88 177.036 106.467Z" fill="white"/>
<path d="M210.933 167.152C210.883 167.152 210.84 167.121 210.828 167.078L203.246 146.605V143.586C203.246 143.524 203.295 143.468 203.363 143.468C203.431 143.468 203.48 143.518 203.48 143.586V146.562L211.05 166.998C211.075 167.06 211.044 167.121 210.982 167.146C210.957 167.152 210.945 167.152 210.933 167.152Z" fill="white"/>
<path d="M191.027 167.152C190.966 167.152 190.916 167.103 190.91 167.041L189.49 142.246L189.502 142.215L191.28 138.794C191.311 138.739 191.379 138.714 191.435 138.745C191.49 138.776 191.515 138.844 191.484 138.899L189.725 142.295L191.145 167.029C191.151 167.09 191.101 167.146 191.034 167.152H191.027Z" fill="white"/>
<path d="M191.86 164.528C191.848 164.528 191.842 164.528 191.829 164.522L189.99 164.003C189.928 163.985 189.891 163.923 189.909 163.861C189.928 163.8 189.99 163.763 190.051 163.781L191.891 164.3C191.953 164.318 191.99 164.38 191.971 164.442C191.959 164.491 191.91 164.528 191.86 164.528Z" fill="white"/>
<path d="M214.878 119.938L215.471 120.599L210.754 122.186L210.569 121.531C207.469 122.562 202.308 124.236 200.449 124.575C198.01 125.02 198.017 126.236 196.127 126.267L191.423 121.562C191.472 121.414 191.54 121.272 191.633 121.148C192.713 119.741 198.165 121.642 198.165 121.642L209.309 117.049L209.167 116.53L210.241 114.808L210.902 115.536C211.192 115.332 211.476 115.11 211.705 114.882L215.792 118.969C215.539 119.327 215.23 119.648 214.878 119.938Z" fill="#246FDD"/>
<path d="M190.021 162.991C189.971 162.991 189.928 162.96 189.91 162.917C189.885 162.855 189.916 162.793 189.978 162.769L191.62 162.17C191.682 162.145 191.743 162.176 191.768 162.238C191.793 162.299 191.762 162.361 191.7 162.386L190.058 162.985C190.045 162.991 190.033 162.991 190.021 162.991Z" fill="white"/>
<path d="M211.155 165.442H209.624C209.562 165.442 209.507 165.392 209.507 165.324C209.507 165.263 209.556 165.207 209.624 165.207H211.155C211.217 165.207 211.272 165.256 211.272 165.324C211.266 165.392 211.217 165.442 211.155 165.442Z" fill="white"/>
<path d="M209.235 164.528C209.198 164.528 209.154 164.51 209.136 164.473C209.105 164.417 209.124 164.349 209.179 164.318L210.704 163.435C210.76 163.404 210.828 163.423 210.859 163.478C210.889 163.534 210.871 163.602 210.815 163.633L209.29 164.516C209.278 164.522 209.259 164.528 209.235 164.528Z" fill="white"/>
<path d="M188.28 91.4509C186.792 94.3095 182.884 101.058 176.524 106.658L170.233 100.366L183.711 86.8882L188.28 91.4509Z" fill="#246FDD"/>
<path d="M209.112 115.166L197.449 120.741C197.449 120.741 191.898 119.142 190.898 120.605C189.898 122.069 192.188 125.316 194.899 125.471C197.609 125.625 197.189 124.18 199.887 123.538C202.586 122.896 212.223 118.982 212.223 118.982L209.112 115.166Z" fill="white"/>
<path d="M209.093 96.7485C209.093 96.7485 216.422 101.033 216.292 105.269C216.163 109.504 217.755 117.234 211.958 119.364L208.488 114.863C208.488 114.863 210.828 113.499 211.026 112.53C211.223 111.56 209.124 105.596 209.124 105.596L209.093 96.7485Z" fill="#FACF55"/>
<path d="M208.154 115.03L210.044 120.587L214.662 118.741L209.13 113.252L208.154 115.03Z" fill="#1F3A6F"/>
<path d="M140.85 -0.000488281C109.09 -0.000488281 83.3501 25.7457 83.3501 57.4993C83.3501 89.2591 109.09 114.999 140.85 114.999C172.61 114.999 198.35 89.2529 198.35 57.4993C198.35 25.7457 172.61 -0.000488281 140.85 -0.000488281ZM140.85 107.491C113.239 107.491 90.8579 85.1101 90.8579 57.4993C90.8579 29.8885 113.239 7.50727 140.85 7.50727C168.454 7.50727 190.842 29.8885 190.842 57.4993C190.842 85.1101 168.461 107.491 140.85 107.491Z" fill="#3B82F4"/>
<path d="M5.60521 121.544L5.22241 121.47L20.0465 41.5516L47.7808 38.9214L47.8178 39.3104L20.3738 41.9097L5.60521 121.544Z" fill="#444444"/>
<path d="M9.28765 112.7L3.93848 113.251L4.09416 114.762L9.44333 114.211L9.28765 112.7Z" fill="#444444"/>
<path d="M10.5334 109.115L5.39233 107.537L4.94656 108.989L10.0876 110.567L10.5334 109.115Z" fill="#444444"/>
<path opacity="0.3" d="M58.95 24.3628L56.6656 33.1671L20.3246 173.03H13.3108L49.5962 33.3585L52.3746 22.6587L58.95 24.3628Z" fill="#9FB8D6"/>
<path d="M57.6587 21.8098L51.2034 19.6997L-5.33293e-05 176.342L6.45532 178.452L57.6587 21.8098Z" fill="white"/>
</svg>
