<svg width="294" height="189" viewBox="0 0 294 189" fill="none" xmlns="http://www.w3.org/2000/svg">
<path d="M48.0756 181.397H113.417C135.396 169.692 150.361 146.552 150.361 119.909C150.361 81.4613 119.191 50.2915 80.7432 50.2915C42.2956 50.2915 11.1257 81.4613 11.1257 119.909C11.1257 146.552 26.0904 169.692 48.0756 181.397Z" fill="#ECF3FE"/>
<path d="M51.9753 163.899C50.3521 161.154 44.5457 154.912 34.721 153.764C33.1111 153.579 29.5415 153.157 28.3736 154.299C26.051 156.555 38.0597 163.292 36.7005 164.48C35.2621 165.74 21.2145 158.779 19.1031 160.343C18.1068 161.075 28.7959 165.205 29.1983 172.186C29.2907 173.763 28.842 175.129 28.3868 176.119L55.8682 173.42C55.8682 173.42 55.9672 170.656 51.9753 163.899Z" fill="#33DA82"/>
<path d="M256.473 181.397C272.671 162.197 282.436 137.394 282.436 110.308C282.436 49.3874 233.049 0 172.128 0C111.207 0 61.8196 49.3874 61.8196 110.308C61.8196 137.394 71.5849 162.197 87.7834 181.397H256.473Z" fill="#ECF3FE"/>
<path d="M262.22 130.525L226.062 136.576L203.364 79.0462C205.561 77.0403 206.544 74.1371 206.188 71.3197L226.616 57.3711L230.681 63.3293C231.479 64.4972 233.069 64.8007 234.244 64.0023C234.686 63.6988 235.002 63.2831 235.187 62.8146L247.677 73.6884C247.856 72.7185 248.007 71.7288 248.119 70.7391C248.119 70.7325 248.119 70.7259 248.119 70.7193L255.127 112.598L253.048 112.948C252.045 113.113 251.306 113.733 251.405 114.327L254.335 131.851L263.744 130.274L260.814 112.75C260.715 112.156 259.818 111.806 258.815 111.978L256.737 112.327L247.922 59.6145C247.908 59.5221 247.895 59.4232 247.875 59.3308V59.3242C246.919 53.4188 244.682 47.6256 241.086 42.3537C234.573 32.7995 224.815 26.7951 214.291 24.7959L219.714 40.394C219.266 40.4204 218.824 40.5656 218.428 40.8361C217.26 41.6279 216.956 43.2246 217.755 44.3925L221.819 50.3441L201.239 64.4114H201.233C198.264 62.973 194.621 63.2369 191.844 65.3879C190.913 66.1071 190.161 66.9781 189.607 67.9348C188.67 69.5184 188.254 71.3527 188.393 73.1672L159.301 93.0277L158.991 92.5856C158.417 91.7477 157.269 91.5365 156.438 92.1106L152.763 94.6179C151.918 95.1853 151.7 96.34 152.281 97.178L154.194 99.9822L158.998 128.684L153.026 129.681C152.433 129.78 152.03 130.34 152.129 130.934L155.059 148.466L153.765 148.683C151.271 149.099 149.589 151.448 150.004 153.942C150.42 156.436 152.782 158.112 155.27 157.69L263.737 139.545C264.984 139.334 266.034 138.648 266.713 137.697C267.386 136.741 267.71 135.533 267.498 134.286C267.069 131.785 264.714 130.11 262.22 130.525ZM243.699 55.6292C244.669 57.0676 244.306 59.0207 242.874 59.9972C241.436 60.9737 239.469 60.6174 238.493 59.179C237.523 57.7472 237.886 55.7942 239.318 54.811C240.756 53.8279 242.722 54.204 243.699 55.6292ZM239.014 43.7525C240.624 46.1146 240.017 49.3411 237.655 50.9577C236.586 51.6901 235.326 51.9606 234.138 51.8155C233.894 50.5354 233.379 49.2686 232.594 48.1139C231.809 46.9658 230.819 46.0421 229.711 45.336C230.021 44.1748 230.72 43.1191 231.789 42.3933C234.164 40.7635 237.397 41.3771 239.014 43.7525ZM225.277 34.2313C226.715 33.2416 228.668 33.6177 229.645 35.0561C230.621 36.4945 230.252 38.4409 228.813 39.4307C227.395 40.4072 225.428 40.0377 224.452 38.5993C223.475 37.1609 223.845 35.2078 225.277 34.2313ZM211.816 115.006L196.357 117.593L196.297 111.707L209.962 109.424L211.816 115.006ZM209.078 106.792L196.258 108.936L196.245 107.775L195.974 81.3159C197.459 81.5403 198.996 81.3951 200.441 80.8475L209.078 106.792ZM166.553 127.398L160.581 128.394L156.359 103.156L157.672 105.076C158.239 105.921 159.394 106.138 160.232 105.564L163.907 103.057C164.745 102.483 164.956 101.335 164.389 100.497L164.092 100.048L191.791 81.1312L192.655 80.5374L192.457 85.0967L189.904 142.613L170.736 145.82L167.806 128.288C167.707 127.701 167.147 127.299 166.553 127.398ZM196.601 141.505L196.377 120.364L212.687 117.632L219.365 137.691L196.601 141.505Z" fill="white"/>
<path d="M248.693 162.824C248.693 162.824 252.454 74.8105 270.408 54.752C271.688 53.3202 273.991 53.5379 274.974 55.1875C277.494 59.4103 279.368 71.3464 267.478 104.938C249.762 154.998 248.693 162.824 248.693 162.824Z" fill="#C4D7F2"/>
<path d="M249.05 166.386C249.05 166.386 271.167 93.6415 290.341 81.5866C291.469 80.8806 292.967 81.3557 293.462 82.5895C294.894 86.179 294.689 96.1554 276.874 122.608C251.596 160.151 249.05 166.386 249.05 166.386Z" fill="#C4D7F2"/>
<path d="M250.455 165.272C250.455 165.272 228.206 103.809 235.194 85.6381C235.603 84.5692 236.883 84.1271 237.859 84.7209C240.696 86.4497 245.691 93.424 247.057 120.813C248.997 159.67 250.455 165.272 250.455 165.272Z" fill="#C4D7F2"/>
<path d="M257.225 156.898H242.597V175.868H257.225V156.898Z" fill="#ACC6E5"/>
<path d="M242.597 156.898V158.68L257.231 164.031V156.898H242.597Z" fill="#95B7D8"/>
<path d="M150.361 188.992C220.043 188.992 276.531 184.342 276.531 178.606C276.531 172.87 220.043 168.221 150.361 168.221C80.6786 168.221 24.1902 172.87 24.1902 178.606C24.1902 184.342 80.6786 188.992 150.361 188.992Z" fill="#D7E4F9"/>
<path d="M237.147 59.4165V162.975C237.147 165.449 235.141 167.462 232.66 167.462H77.728C75.2471 167.462 73.2412 165.449 73.2412 162.975V59.4165C73.2412 56.9355 75.2471 54.9297 77.728 54.9297H232.66C235.141 54.9297 237.147 56.9355 237.147 59.4165Z" fill="#C4D7F2"/>
<path d="M231.136 66.8266V170.385C231.136 172.859 229.13 174.872 226.649 174.872H71.7236C69.2427 174.872 67.2368 172.859 67.2368 170.385V66.8266C67.2368 64.3457 69.2427 62.3398 71.7236 62.3398H226.649C229.136 62.3398 231.136 64.3391 231.136 66.8266Z" fill="white"/>
<path d="M205.601 92.2099H214.818V90.8375H205.601V71.3398H204.473V90.8375H187.185V71.3398H186.064V90.8375H168.776V71.3398H167.648V90.8375H150.361V71.3398H149.232V90.8375H131.945V71.3398H130.817V90.8375H113.536V71.3398H112.408V90.8375H95.1208V71.3398H93.9925V90.8375H76.2764V92.2099H93.9991V109.141H76.2764V110.513H93.9991V127.444H76.2764V128.817H93.9991V145.748H76.2764V147.12H93.9991V164.836H95.1274V147.12H112.415V164.836H113.543V147.12H130.824V164.836H131.952V147.12H149.239V164.836H150.367V147.12H167.655V164.836H168.783V147.12H186.07V164.836H187.192V147.12H204.479V164.836H205.607V147.12H214.825V145.748H205.601V128.817H214.818V127.444H205.601V110.513H214.818V109.141H205.601V92.2099ZM187.185 92.2099H204.473V109.141H187.185V92.2099ZM187.185 110.507H204.473V127.438H187.185V110.507ZM168.776 92.2099H186.064V109.141H168.776V92.2099ZM168.776 110.507H186.064V127.438H168.776V110.507ZM150.361 92.2099H167.648V109.141H150.361V92.2099ZM150.361 110.507H167.648V127.438H150.361V110.507ZM131.945 92.2099H149.232V109.141H131.945V92.2099ZM131.945 110.507H149.232V127.438H131.945V110.507ZM113.543 110.507H130.824V127.438H113.543V110.507ZM113.543 92.2099H130.824V109.141H113.543V92.2099ZM112.415 92.2099V109.141H95.1274V92.2099H112.415ZM112.415 110.507V127.438H95.1274V110.507H112.415ZM95.1274 145.741V128.81H112.415V145.741H95.1274ZM130.824 145.741H113.543V128.81H130.824V145.741ZM149.239 145.741H131.952V128.81H149.239V145.741ZM150.361 145.741V128.81H167.648V145.741H150.361ZM186.07 145.741H168.783V128.81H186.07V145.741ZM204.473 145.741H187.185V128.81H204.473V145.741Z" fill="#ECF3FE"/>
<path d="M95.1272 85.8159H93.9989V93.8129H88.5356V130.75H93.9989V140.106H95.1272V130.75H99.9571V93.8129H95.1272V85.8159Z" fill="#33DA82"/>
<path d="M150.361 90.8438H149.232V98.8407H143.769V129.476H149.232V138.826H150.361V129.476H155.191V98.8407H150.361V90.8438Z" fill="#C4D7F2"/>
<path d="M113.53 97.2637H112.401V105.261H106.945V134.92H112.401V148.538H113.53V134.92H118.366V105.261H113.53V97.2637Z" fill="#C4D7F2"/>
<path d="M168.77 106.541H167.641V114.538H162.178V144.197H167.641V157.816H168.77V144.197H173.606V114.538H168.77V106.541Z" fill="#33DA82"/>
<path d="M210.424 100.081H205.594V92.0845H204.466V100.081H199.002V129.113H204.466V142.726H205.594V129.113H210.424V100.081Z" fill="#C4D7F2"/>
<path d="M131.998 111.681H130.87V119.678H125.413V137.651H130.87V142.679H131.998V137.651H136.835V119.678H131.998V111.681Z" fill="#C4D7F2"/>
<path d="M187.185 98.6562H186.063V106.653H180.6V124.627H186.063V135.923H187.185V124.627H192.022V106.653H187.185V98.6562Z" fill="#C4D7F2"/>
<path d="M88.7799 109.378H80.3474C79.9185 109.378 79.5688 109.029 79.5688 108.6V105.98C79.5688 105.551 79.9185 105.202 80.3474 105.202H88.7799C89.2088 105.202 89.5585 105.551 89.5585 105.98V108.6C89.5585 109.029 89.2088 109.378 88.7799 109.378Z" fill="#36588E"/>
<path d="M94.0319 109.247H48.7617V176.68H94.0319V109.247Z" fill="#3B82F4"/>
<path opacity="0.2" d="M94.0385 110.19V112.578C88.0869 112.585 54.9706 113.113 54.0007 124.508C53.8951 125.689 53.8093 126.725 53.7302 127.622C53.651 128.474 53.5784 129.206 53.519 129.833C53.387 131.238 53.2815 132.122 53.2155 132.644C53.0175 134.049 53.0175 132.934 53.0241 132.644C53.0241 132.604 53.0241 132.578 53.0241 132.578H48.7617V110.19H94.0385Z" fill="#003889"/>
<path opacity="0.2" d="M94.0385 155.163V157.552C90.4358 157.558 76.837 157.75 66.4778 160.442C59.7477 162.19 54.3834 164.994 54.0007 169.481C53.7961 171.85 53.6378 173.618 53.5124 174.911C53.4464 175.631 53.387 176.211 53.3277 176.673H48.7617V155.163H94.0385Z" fill="#003889"/>
<path d="M95.5496 111.2H47.2509C46.1754 111.2 45.2979 110.322 45.2979 109.247C45.2979 108.171 46.1754 107.293 47.2509 107.293H95.543C96.6185 107.293 97.4961 108.171 97.4961 109.247C97.5027 110.322 96.6251 111.2 95.5496 111.2Z" fill="#36588E"/>
<path d="M97.4961 176.865C97.4961 177.406 97.2784 177.894 96.9221 178.25C96.5723 178.607 96.0841 178.824 95.543 178.824H47.2575C46.1754 178.824 45.2979 177.947 45.2979 176.865C45.2979 176.324 45.5156 175.835 45.8719 175.486C46.2282 175.129 46.7165 174.912 47.2575 174.912H95.5496C96.6251 174.912 97.4961 175.789 97.4961 176.865Z" fill="#36588E"/>
<path d="M71.4002 151.145C75.8678 151.145 79.4895 147.523 79.4895 143.055C79.4895 138.588 75.8678 134.966 71.4002 134.966C66.9325 134.966 63.3108 138.588 63.3108 143.055C63.3108 147.523 66.9325 151.145 71.4002 151.145Z" fill="white"/>
<path opacity="0.2" d="M94.0385 132.65V135.038C91.452 135.045 83.7057 135.151 75.7021 136.206C71.9741 136.701 68.1934 137.394 64.8547 138.39C64.8283 138.397 64.8085 138.404 64.7887 138.41C58.8701 140.178 54.3504 142.87 54.0007 146.975C53.7961 149.33 53.6378 151.085 53.5124 152.378C53.3738 153.79 53.2749 154.668 53.2023 155.17C53.0241 156.417 53.0175 155.519 53.0241 155.17C53.0241 155.097 53.0241 155.051 53.0241 155.051H48.7617V132.656H94.0385V132.65Z" fill="#003889"/>
<path d="M97.4961 131.786C97.4961 132.32 97.2784 132.808 96.9221 133.165C96.5723 133.521 96.0841 133.739 95.543 133.739H47.2575C46.1754 133.739 45.2979 132.868 45.2979 131.786C45.2979 131.251 45.5156 130.763 45.8719 130.407C46.2282 130.05 46.7165 129.833 47.2575 129.833H95.5496C96.6251 129.839 97.4961 130.71 97.4961 131.786Z" fill="#36588E"/>
<path d="M97.4961 154.332C97.4961 154.866 97.2784 155.354 96.9221 155.711C96.5723 156.067 96.0841 156.285 95.543 156.285H47.2575C46.1754 156.285 45.2979 155.407 45.2979 154.332C45.2979 153.791 45.5156 153.302 45.8719 152.946C46.2282 152.59 46.7165 152.372 47.2575 152.372H95.5496C96.6251 152.372 97.4961 153.25 97.4961 154.332Z" fill="#36588E"/>
<path d="M69.7704 140.951C69.3745 140.37 68.7807 140.08 68.0021 140.08C67.2301 140.08 66.6297 140.357 66.214 140.898C65.7917 141.445 65.5872 142.132 65.5872 142.943C65.5872 143.313 65.6267 143.656 65.7191 143.979C65.8181 144.355 65.9831 144.698 66.2074 145.002C66.4911 145.391 66.8672 145.655 67.3225 145.767C67.5204 145.82 67.7316 145.846 67.9559 145.846C68.7411 145.846 69.3415 145.563 69.7506 145.008C70.1663 144.448 70.3642 143.761 70.3642 142.95C70.3642 142.211 70.1729 141.538 69.7704 140.951ZM67.9955 144.784C67.3093 144.784 66.9596 144.184 66.9596 142.97C66.9596 141.762 67.3093 141.155 67.9955 141.155C68.6619 141.155 68.9984 141.762 68.9984 142.976C68.9918 144.177 68.6553 144.784 67.9955 144.784Z" fill="#3B82F4"/>
<path d="M71.2219 140.166V145.767H72.535V140.166H71.2219Z" fill="#3B82F4"/>
<path d="M74.9896 144.659V140.166H73.6633V145.767H77.2264V144.659H74.9896Z" fill="#3B82F4"/>
<path opacity="0.22" d="M85.6918 80.0886L81.5217 76.486L82.3729 75.5227C82.65 75.2059 82.6368 74.7441 82.3333 74.4867L76.4675 69.4193C76.1706 69.162 75.7021 69.2082 75.425 69.5249L74.5739 70.4882L52.0938 51.0698C51.3416 50.4232 50.1672 50.5419 49.4678 51.3337C48.7684 52.1255 48.8079 53.2934 49.5601 53.94L50.6092 54.844L38.528 68.5352L37.4789 67.6312C36.7267 66.9846 35.5522 67.1034 34.8528 67.8952C34.1534 68.6869 34.193 69.8548 34.9452 70.5014L35.9943 71.4054L23.913 85.0966L22.8639 84.1927C22.1117 83.5461 20.9372 83.6648 20.2378 84.4566C19.5384 85.2484 19.578 86.4163 20.3302 87.0629L21.3793 87.9668L9.29801 101.658L8.2489 100.754C7.49671 100.107 6.32223 100.226 5.62282 101.018C4.92341 101.81 4.963 102.978 5.7152 103.624L24.52 119.862C23.2466 120.027 21.8808 120.166 22.4152 120.733C22.8573 121.202 24.9225 121.802 26.8096 121.835L36.9642 130.604C38.429 135.025 41.0881 136.919 42.8828 137.73C42.9686 137.77 43.0609 137.816 43.1599 137.856L44.3542 149.554C44.3542 149.554 37.4987 171.77 36.2714 176.198V176.204C36.1526 176.627 36.0932 176.884 36.0866 176.95C36.08 177.089 36.2054 177.174 36.4166 177.22L35.8359 180.295C35.7831 180.566 35.9679 180.81 36.2384 180.83C38.1519 180.981 44.9546 181.443 44.8754 180.506C44.7831 179.411 43.7933 179.127 41.9128 178.685C40.679 178.388 40.0983 177.537 39.841 176.99C39.9664 176.97 40.0456 176.957 40.0456 176.957C40.0456 176.957 48.8541 157.782 51.7177 149.686C52.8592 146.453 53.3277 142.184 53.4729 138.219L55.4721 139.901L67.5666 150.062C67.5666 150.062 67.6326 176.706 67.7051 176.877C67.7183 176.904 67.8173 176.924 67.9691 176.93L67.3554 180.183C67.2961 180.513 67.5204 180.816 67.8503 180.843C69.9089 181.001 76.4477 181.43 76.3686 180.513C76.2762 179.418 75.2865 179.134 73.406 178.692C72.0929 178.382 71.5189 177.432 71.288 176.897C71.4661 176.891 71.5717 176.884 71.5717 176.884C71.5717 176.884 72.0402 173.334 72.5878 168.597C73.5379 160.356 74.7454 148.512 74.1714 145.516C73.7029 143.035 69.2029 137.572 65.0395 132.947C65.3232 132.98 65.6069 133.019 65.8775 133.052C67.2565 133.211 68.5035 133.316 69.2689 133.29C71.9082 133.204 73.0761 125.029 77.2989 111.892C80.6838 101.368 77.8598 97.6266 76.6061 96.5577L76.6919 96.109L76.7645 95.7197C77.3253 95.6999 77.873 95.5547 78.381 95.3106C80.3209 94.3869 81.8121 92.0115 81.9902 89.2271C82.0496 88.3099 81.9572 87.439 81.7527 86.6472C82.3993 85.9676 83.6464 84.6348 84.4381 83.3613C84.9264 83.3217 85.4147 83.0974 85.771 82.6883C86.4836 81.9031 86.444 80.7352 85.6918 80.0886Z" fill="#003889"/>
<path opacity="0.22" d="M240.096 98.0954C243.204 103.994 248.39 96.9869 251.847 101.54C255.305 106.092 264.047 105.452 261.949 97.9635C259.851 90.4745 252.058 92.9752 249.122 91.7282C246.186 90.4811 245.85 86.1923 241.198 82.8668C237.549 80.2539 233.801 81.9299 232.356 82.7678L232.066 82.4445C231.67 82.0024 231.017 81.9365 230.601 82.2994L230.456 82.4247L230.449 82.4313C226.886 79.9636 222.037 81.6659 221.205 83.0911C220.387 84.49 221.416 86.2385 222.03 86.7399C221.938 88.1124 221.469 89.4122 221.258 89.9467C221.199 90.0984 221.245 90.2832 221.383 90.3953L221.482 90.4811C221.667 90.6395 221.793 90.8638 221.806 91.1013C221.845 91.6952 222.01 92.8829 222.611 93.4899C218.929 91.7348 214.172 89.5178 212.786 87.7495C210.859 85.2949 204.373 77.1924 204.373 77.1924L204.004 77.4365L203.529 76.8823C203.529 76.8823 203.351 73.0289 202.071 72.3163C200.791 71.6037 199.398 70.6668 199.207 70.9901C199.016 71.3134 200.217 72.5275 200.692 72.8112C201.173 73.0949 198.673 71.9138 200.065 74.276C201.457 76.6381 200.87 77.4497 201.919 78.71C201.932 78.7297 201.952 78.7495 201.972 78.7759L201.503 79.086C201.503 79.086 209.454 92.0119 211.387 93.3645C212.812 94.3608 219.061 98.1878 222.274 100.147C222.195 101.46 221.793 103.618 221.482 105.162C221.146 105.868 220.869 106.66 220.79 107.643C220.532 110.718 223.462 111.655 224.346 113.898C225.23 116.135 224.716 124.581 225.23 126.718C225.257 126.817 225.303 126.916 225.375 127.002L225.012 128.922L221.357 148.354L225.93 174.41L226.952 174.258C227.051 174.727 227.137 175.142 227.216 175.505C227.421 176.475 227.54 177.029 227.54 177.029C227.54 177.029 227.104 181.556 226.147 182.038C226.081 182.005 226.015 181.952 225.956 181.879C225.573 181.404 222.736 183.463 224.293 184.38C225.844 185.297 229.255 184.624 229.836 183.687C230.416 182.75 230.74 179.418 231.446 180.164C232.152 180.909 232.554 184.09 232.554 184.09L233.432 183.977C233.432 183.977 233.894 175.36 230.872 175.426L230.779 174.041L230.76 173.691L231.334 173.605L229.658 151.343C229.658 151.343 231.835 147.833 233.999 143.293L236.566 148.868L237.602 151.118L252.111 170.656L253.055 169.943C253.767 170.774 254.335 171.441 254.711 171.89C255.047 172.285 255.232 172.503 255.232 172.503C255.232 172.503 257.165 176.851 256.651 177.828C256.578 177.834 256.506 177.828 256.42 177.795C255.879 177.584 254.685 181.068 256.367 181.008C258.05 180.949 260.392 178.389 260.379 177.208C260.359 176.027 258.94 172.826 259.871 173.097C260.801 173.368 262.721 176.013 262.721 176.013L263.355 175.413C263.355 175.413 259.389 167.35 257.04 169.145L256.374 168.109L256.083 167.653L256.545 167.304L243.322 147.252L239.839 133.488L239.41 131.792C240.419 132.36 241.508 132.874 242.682 133.336C242.682 133.336 238.235 116.617 238.341 114.419C238.387 113.746 238.44 113.04 238.486 112.314C238.486 112.288 238.486 112.262 238.493 112.242C238.499 112.117 238.506 111.991 238.512 111.866C239.865 113.588 240.947 115.191 241.231 116.3C241.983 119.269 246.08 128.803 246.08 128.803L246.457 128.757C246.562 129.034 246.655 129.292 246.674 129.384C246.714 129.542 246.562 130.169 246.569 130.202C246.595 130.308 245.368 131.858 245.79 132.597C246.219 133.336 246.648 131.806 247.011 132.116C247.374 132.426 247.123 134.009 247.763 134.089C248.403 134.168 250.422 134.273 250.508 133.079C250.594 131.891 249.756 130.301 249.465 129.688C249.386 129.523 249.142 128.955 249.102 128.678C249.096 128.652 249.089 128.553 249.083 128.427L249.558 128.368C249.558 128.368 246.146 113.99 244.919 111.978C243.863 110.262 238.328 102.397 236.757 100.167C236.638 99.9825 236.507 99.8043 236.381 99.6328C236.355 99.5998 236.342 99.58 236.342 99.58C236.342 99.58 236.342 99.58 236.335 99.5734C236.025 99.1643 235.688 98.7948 235.339 98.4649C234.864 98.0096 234.362 97.6203 233.867 97.297C233.854 97.2904 233.841 97.2838 233.828 97.2706C233.729 97.2047 233.623 97.1387 233.524 97.0793C231.611 95.9114 229.856 95.5881 229.849 95.5881L229.347 92.7047C229.902 92.8169 230.443 92.7377 230.858 92.4342C232.178 91.4576 234.553 89.2143 233.128 85.8096C233.201 85.7766 233.273 85.7304 233.333 85.671L233.478 85.5457C233.894 85.1828 233.913 84.5296 233.518 84.0875L233.432 83.9951C234.501 84.1732 236.045 84.6879 237.674 86.0735C240.677 88.6072 236.982 92.1966 240.096 98.0954ZM222.043 86.1725C222.043 86.1857 222.043 86.2055 222.043 86.2187C222.043 86.1989 222.043 86.1857 222.043 86.1725ZM222.037 86.509C222.037 86.5156 222.037 86.5222 222.037 86.5288C222.037 86.5222 222.037 86.5156 222.037 86.509ZM224.26 93.7076C224.458 93.6284 224.65 93.5427 224.841 93.4503C225.045 93.7076 225.362 94.1497 225.653 94.671C225.732 94.8161 225.811 94.9679 225.877 95.1196C225.217 94.7501 224.353 94.3279 223.383 93.8594C223.633 93.8858 223.924 93.8462 224.26 93.7076Z" fill="#003889"/>
<path d="M210.444 80.8079L212.8 79.3036L210.906 76.8754C210.906 76.8754 210.992 73.0221 209.764 72.3095C208.537 71.5969 207.204 70.6599 206.993 70.9832C206.782 71.3066 207.897 72.5206 208.352 72.8043C208.814 73.0881 206.393 71.907 207.627 74.2691C208.86 76.6313 208.214 77.4429 209.177 78.7031C209.368 78.9538 209.83 79.7258 210.444 80.8079Z" fill="#FDC8AA"/>
<path d="M231.459 167.977V169.481L231.446 174.02L231.439 177.366L227.23 182.822C227.23 182.822 225.23 182.42 226.233 182.037C227.236 181.655 228.008 177.016 228.008 177.016C228.008 177.016 227.929 176.462 227.791 175.492C227.619 174.284 227.355 172.424 227.045 170.207C226.972 169.679 226.893 169.131 226.814 168.564L231.459 167.977Z" fill="#FDC8AA"/>
<path d="M227.078 181.879C227.078 181.879 226.438 182.334 226.088 181.859C225.738 181.384 222.763 183.443 224.254 184.36C225.745 185.277 229.196 184.604 229.842 183.667C230.489 182.73 231.037 179.398 231.69 180.143C232.343 180.889 232.528 184.069 232.528 184.069L233.412 183.957C233.412 183.957 234.474 175.32 231.433 175.406C231.433 175.406 230.654 178.725 227.078 181.879Z" fill="#1F3A6F"/>
<path d="M231.453 169.481L231.439 174.02C230.648 174.331 228.833 175.063 227.784 175.485C227.612 174.278 227.348 172.417 227.038 170.2C228.266 170.002 229.981 169.718 231.453 169.481Z" fill="#EFA37D"/>
<path d="M259.006 170.82L258.241 177.953C258.241 177.953 256.387 178.751 257.027 177.841C257.667 176.93 255.991 172.483 255.991 172.483C255.991 172.483 255.82 172.265 255.509 171.869C254.731 170.88 253.081 168.768 251.042 166.169C250.963 166.063 250.878 165.958 250.792 165.852L254.348 162.691L255.298 164.354L257.436 168.095L259.006 170.82Z" fill="#FDC8AA"/>
<path d="M257.443 168.089L255.51 171.863C254.731 170.873 253.082 168.762 251.043 166.162C252.422 165.562 254.005 164.895 255.299 164.348L257.443 168.089Z" fill="#EFA37D"/>
<path d="M257.647 177.227C257.647 177.227 257.344 177.986 256.816 177.775C256.288 177.564 254.856 181.048 256.539 180.988C258.221 180.929 260.748 178.369 260.814 177.188C260.88 176.007 259.68 172.807 260.59 173.077C261.501 173.348 263.236 175.994 263.236 175.994L263.916 175.393C263.916 175.393 260.498 167.31 258.023 169.131C258.03 169.131 259.04 172.444 257.647 177.227Z" fill="#1F3A6F"/>
<path d="M257.667 167.284L252.996 170.629L239.839 151.098L238.961 148.848L236.777 143.273L233.874 135.85L238.697 129.496L238.862 129.278L241.765 126.217L241.924 126.052L243.296 133.468L245.83 147.239L257.667 167.284Z" fill="#1F3A6F"/>
<path d="M238.961 148.849L233.874 135.85L238.862 129.278L241.422 130.941C241.403 131.119 239.443 142.501 238.961 148.849Z" fill="#072542"/>
<path d="M241.482 132.32C240.551 135.85 238.644 139.855 236.777 143.273C234.296 147.813 231.881 151.323 231.881 151.323L232.02 173.585L226.583 174.39L223.812 148.334L228.813 128.902L229.612 125.801L229.796 125.088L241.686 125.966C241.686 125.973 241.686 125.973 241.693 125.979C241.726 126.058 241.752 126.137 241.779 126.223C242.293 127.84 242.102 129.978 241.482 132.32Z" fill="#1F3A6F"/>
<path d="M243.296 133.468C242.636 133.132 242.029 132.736 241.482 132.32C240.182 131.324 239.232 130.202 238.697 129.496C238.374 129.067 238.202 128.79 238.202 128.79C233.419 129.74 230.001 129.179 228.807 128.909L229.605 125.808L241.68 125.979C241.713 126.058 241.739 126.138 241.765 126.223L241.924 126.052L243.296 133.468Z" fill="#072542"/>
<path d="M228.945 86.39C228.945 86.39 227.461 84.5821 228.398 83.6715C229.334 82.7544 230.766 84.1664 230.766 84.1664C230.766 84.1664 229.361 85.0307 228.945 86.39Z" fill="#072542"/>
<path d="M238.677 83.1701C238.677 83.1701 243.745 79.5411 248.166 82.8666C252.586 86.1987 252.626 90.4875 255.476 91.7279C258.327 92.975 266.291 90.4743 267.874 97.9632C269.451 105.452 260.669 106.092 257.529 101.539C254.388 96.9867 248.72 103.994 246.015 98.0952C243.309 92.1964 247.255 88.607 244.418 86.0469C241.581 83.4934 238.849 83.9091 238.849 83.9091L238.677 83.1701Z" fill="#1F3A6F"/>
<path d="M226.392 107.003C226.392 107.003 228.318 100.497 228.087 99.1972C227.856 97.8907 229.222 97.1188 230.238 96.9208C231.254 96.7229 232.508 97.5476 232.508 97.5476C232.508 97.5476 228.259 105.498 227.764 105.617C227.269 105.729 226.392 107.003 226.392 107.003Z" fill="#15315E"/>
<path d="M233.676 99.58C233.676 99.58 235.154 97.0331 232.264 95.278C229.374 93.5229 221.172 90.2106 219.411 87.7495C217.656 85.295 211.73 77.1924 211.73 77.1924L208.741 79.0795C208.741 79.0795 215.795 92.0053 217.642 93.3579C219.49 94.7106 229.895 101.309 229.895 101.309C229.895 101.309 232.693 101.718 233.676 99.58Z" fill="#1F3A6F"/>
<path d="M253.187 129.667C253.431 130.281 254.163 131.871 253.998 133.059C253.827 134.247 251.814 134.148 251.181 134.068C250.554 133.989 250.91 132.406 250.567 132.096C250.224 131.785 249.69 133.316 249.314 132.577C248.938 131.838 250.27 130.288 250.257 130.182C250.251 130.149 250.449 129.522 250.422 129.364C250.389 129.166 250.046 128.11 250.007 127.886C250.732 127.774 252.158 127.351 252.89 127.187C252.897 127.305 252.89 128.539 252.897 128.658C252.91 128.935 253.121 129.502 253.187 129.667Z" fill="#FDC8AA"/>
<path d="M243.052 121.624C243.375 124.646 243.461 128.13 242.306 128.216C241.838 128.249 240.34 128.328 238.519 128.341C234.692 128.381 229.42 128.15 229.176 126.705C228.813 124.567 229.902 116.128 229.176 113.884C228.444 111.641 225.58 110.704 226.049 107.629C226.517 104.555 228.76 103.354 228.859 100.701C228.965 98.0422 233.808 95.5943 235.919 95.5679C235.919 95.5679 242.082 96.7028 243.448 102.522C244.814 108.342 242.3 116.227 242.768 119.401C242.867 120.067 242.973 120.832 243.052 121.624Z" fill="white"/>
<path d="M235.919 95.5748C235.919 95.5748 235.708 95.5748 234.072 97.8908C232.429 100.207 230.271 102.635 230.245 101.487C230.219 100.339 231.861 98.8013 232.251 97.0858C232.429 96.294 232.158 95.4033 231.809 94.6775C231.406 93.8329 230.898 93.2061 230.898 93.2061L235.015 90.1577L235.2 90.7384L235.537 91.7941L235.919 95.5748Z" fill="#FDC8AA"/>
<path d="M246.147 133.323C242.966 132.036 240.472 130.314 238.519 128.341C230.549 120.305 231.532 108.171 231.532 104.872C231.532 103.341 232.422 102.028 233.538 100.979C234.679 99.9097 236.051 99.1179 236.955 98.6627C237.199 98.5373 237.358 98.3262 237.417 98.082C237.477 97.8379 237.43 97.5674 237.265 97.343L235.926 95.5747C235.926 95.5747 242.089 96.7096 243.455 102.529C243.455 102.542 243.461 102.556 243.461 102.569C244.319 106.257 243.626 110.764 243.118 114.38C242.828 116.458 246.147 133.323 246.147 133.323Z" fill="#1F3A6F"/>
<path d="M243.461 102.562C244.319 106.25 243.626 110.757 243.118 114.373C241.482 110.962 238.334 106.455 237.2 104.218C235.669 101.203 238.275 99.8172 238.275 99.8172C240.241 98.5173 242.399 100.352 242.399 100.352C242.399 100.352 242.828 101.242 243.461 102.562Z" fill="#072542"/>
<path d="M237.978 99.5203C237.978 99.5203 235.557 101.203 237.43 104.014C239.304 106.825 245.322 113.317 245.87 116.286C246.417 119.255 249.855 128.79 249.855 128.79L253.365 128.348C253.365 128.348 250.95 113.97 249.855 111.958C248.76 109.952 242.135 99.5599 242.135 99.5599C242.135 99.5599 239.779 97.9961 237.978 99.5203Z" fill="#1F3A6F"/>
<path d="M235.194 90.7384C233.98 92.9223 232.62 94.1034 231.802 94.6775C231.4 93.8329 230.892 93.2061 230.892 93.2061L235.009 90.1577L235.194 90.7384Z" fill="#EFA37D"/>
<path d="M235.24 90.6193C235.24 90.6193 233.043 92.6978 230.483 93.7073C228.404 94.5255 228.2 92.0577 228.2 91.1076C228.2 90.8701 228.094 90.6457 227.916 90.4874L227.824 90.4016C227.698 90.2894 227.659 90.1047 227.731 89.9529C228.015 89.3525 228.681 87.7755 228.78 86.2249C228.82 85.6113 229.057 85.0769 229.374 84.6282C230.074 83.6451 231.123 83.104 231.123 83.104C231.651 83.1568 232.112 83.2756 232.522 83.4405C236.263 84.9449 235.24 90.6193 235.24 90.6193Z" fill="#FDC8AA"/>
<path d="M237.305 83.8825L238.638 85.5056C239.001 85.9477 239.654 86.0137 240.096 85.6508L240.248 85.5254C240.69 85.1625 240.756 84.5093 240.393 84.0672L239.06 82.4441C238.697 82.002 238.044 81.936 237.602 82.2989L237.45 82.4243C237.008 82.7938 236.942 83.4404 237.305 83.8825Z" fill="white"/>
<path d="M233.841 86.1592L232.165 88.3432C232.165 88.3432 231.499 85.6248 229.374 84.6218C230.073 83.6387 231.123 83.0977 231.123 83.0977C231.65 83.1504 232.112 83.2692 232.521 83.4342L233.841 86.1592Z" fill="#EFA37D"/>
<path d="M228.727 86.7466C228.754 86.575 228.767 86.3969 228.78 86.2253C228.787 86.166 228.787 86.1066 228.8 86.0472C228.576 85.5787 228.002 84.1865 228.925 83.8104C229.202 83.6982 229.552 83.784 229.915 84.0083C231.03 84.6945 232.31 86.6872 232.172 88.3565C232.172 88.3565 233.082 86.9181 234.065 87.4856C234.831 87.9277 234.25 89.2407 233.491 89.8807C233.161 90.1578 233.089 90.6461 233.339 90.9958C233.452 91.1542 233.584 91.3257 233.729 91.5039C234.62 92.6124 236.163 93.127 237.153 92.4276C238.75 91.2993 241.871 88.5017 239.067 84.1799C235.946 79.3698 229.255 81.4285 228.153 83.1044C227.243 84.49 228.147 86.2451 228.727 86.7466Z" fill="#1F3A6F"/>
<path d="M236.949 99.3819C236.065 99.6788 234.745 100.193 233.538 100.979C234.679 99.9097 236.052 99.1179 236.955 98.6627C237.2 98.5373 237.358 98.3262 237.417 98.082L237.444 98.1282C237.708 98.6033 237.47 99.2103 236.949 99.3819Z" fill="#072542"/>
<path d="M72.9113 77.5547L66.7156 72.4873C66.3989 72.23 66.3528 71.7681 66.6101 71.4514L68.1805 69.5247C68.4378 69.208 68.8997 69.1618 69.2164 69.4192L75.4121 74.4866C75.7288 74.7439 75.775 75.2058 75.5176 75.5225L73.9473 77.4492C73.6899 77.7659 73.2281 77.8121 72.9113 77.5547Z" fill="#F7AA23"/>
<path d="M43.5877 53.4115L3.07837 102.951L36.3445 130.153L76.8539 80.6141L43.5877 53.4115Z" fill="#F4B545"/>
<path opacity="0.4" d="M76.2894 81.3027L74.851 83.0578C70.4764 79.4882 45.8256 59.984 38.2706 67.7632C29.9701 76.3211 32.7018 73.1078 32.7018 73.1078L29.5676 70.5477L43.0279 54.105L76.2894 81.3027Z" fill="#CE8419"/>
<path opacity="0.4" d="M49.2698 114.353L47.8314 116.108C43.4568 112.538 18.7994 93.034 11.2511 100.813C8.80315 103.334 7.31855 104.832 6.4344 105.696L3.08252 102.951L16.0084 87.1484L49.2698 114.353Z" fill="#CE8419"/>
<path d="M76.7909 82.9588L41.3125 53.94C40.5207 53.2934 40.4019 52.1255 41.0485 51.3337C41.6952 50.5419 42.863 50.4232 43.6548 51.0698L79.1399 80.0886C79.9317 80.7352 80.0504 81.9031 79.4038 82.6949C78.7572 83.4867 77.5893 83.6054 76.7909 82.9588Z" fill="#FFD03B"/>
<path d="M36.1659 132.643L0.680884 103.625C-0.110898 102.978 -0.229666 101.81 0.416956 101.018C1.06358 100.227 2.23146 100.108 3.02324 100.754L38.5083 129.773C39.3001 130.42 39.4188 131.588 38.7722 132.379C38.1256 133.171 36.9577 133.29 36.1659 132.643Z" fill="#E59D29"/>
<path d="M39.9137 99.5334C44.1554 99.5334 47.594 96.0948 47.594 91.8531C47.594 87.6114 44.1554 84.1729 39.9137 84.1729C35.672 84.1729 32.2334 87.6114 32.2334 91.8531C32.2334 96.0948 35.672 99.5334 39.9137 99.5334Z" fill="#FFD797"/>
<path opacity="0.4" d="M62.7962 97.8049L61.3578 99.56C56.9832 95.9904 32.3258 76.4862 24.7709 84.272C16.4704 92.8233 19.202 89.6166 19.202 89.6166L16.0679 87.0565L29.5216 70.6006L62.7962 97.8049Z" fill="#CE8419"/>
<path d="M63.2514 99.5203L27.7663 70.5015C26.9746 69.8549 26.8558 68.687 27.5024 67.8952C28.149 67.1035 29.3169 66.9847 30.1087 67.6313L65.5937 96.6501C66.3855 97.2968 66.5043 98.4646 65.8577 99.2564C65.211 100.048 64.0432 100.167 63.2514 99.5203Z" fill="#FFD03B"/>
<path d="M49.7052 116.082L14.2202 87.063C13.4284 86.4164 13.3096 85.2485 13.9563 84.4568C14.6029 83.665 15.7708 83.5462 16.5625 84.1928L52.0476 113.212C52.8394 113.858 52.9581 115.026 52.3115 115.818C51.6715 116.61 50.5036 116.728 49.7052 116.082Z" fill="#FFD03B"/>
<path d="M35.6974 91.8401C35.1432 91.3848 34.8858 90.8306 34.9188 90.1642C34.9584 89.4978 35.2157 88.8709 35.6974 88.2837C36.1923 87.6833 36.7531 87.3072 37.3865 87.1554C38.02 87.0036 38.627 87.162 39.1944 87.6239C39.7685 88.0923 40.0258 88.6598 39.9664 89.3328C39.9071 89.9992 39.6497 90.6128 39.201 91.1671C38.7128 91.7609 38.1519 92.1436 37.5119 92.3086C36.8851 92.4669 36.2781 92.3152 35.6974 91.8401ZM38.5544 88.4091C38.0464 87.9934 37.4327 88.2309 36.7069 89.1217C35.9811 90.0124 35.869 90.6656 36.3704 91.0747C36.8587 91.4772 37.4657 91.2331 38.1915 90.3423C38.9239 89.4516 39.0427 88.805 38.5544 88.4091Z" fill="#F7AA23"/>
<path d="M42.4803 90.4082L39.1152 94.5255L38.1519 93.7403L41.5169 89.623L42.4803 90.4082Z" fill="#F7AA23"/>
<path d="M41.5829 95.1856L43.2192 96.525L42.5528 97.3366L39.9399 95.1988L43.305 91.0815L44.2815 91.8799L41.5829 95.1856Z" fill="#F7AA23"/>
<path d="M70.5027 176.468C70.7138 176.488 70.892 176.62 70.9777 176.811C71.2153 177.332 71.8487 178.362 73.2475 178.692C75.1544 179.14 76.1639 179.418 76.3289 180.513C76.4674 181.437 69.8957 181.001 67.8304 180.843C67.4939 180.816 67.2498 180.519 67.2894 180.183L67.7116 176.772C67.7512 176.455 68.035 176.231 68.3517 176.257L70.5027 176.468Z" fill="#072542"/>
<path d="M39.2538 176.495C39.3198 176.502 39.3726 176.541 39.3923 176.6C39.5309 176.977 40.1181 178.309 41.7479 178.692C43.6548 179.141 44.6643 179.418 44.8293 180.513C44.9678 181.45 38.1321 180.988 36.212 180.837C35.9415 180.817 35.7436 180.573 35.7765 180.302L36.2648 176.363C36.278 176.271 36.3572 176.211 36.443 176.218L39.2538 176.495Z" fill="#072542"/>
<path d="M26.0772 120.734C25.8067 121.268 25.2062 121.578 24.454 121.723C22.3624 122.139 19.0963 121.334 18.4893 120.734C17.6645 119.915 20.8844 119.981 21.9995 119.592C22.3954 119.453 22.7385 119.223 23.0222 118.992C23.5435 118.563 23.8536 118.107 23.8536 118.107C23.8536 118.107 24.619 118.253 25.292 118.635C25.7737 118.912 26.2091 119.308 26.2685 119.863C26.2949 120.107 26.2421 120.404 26.0772 120.734Z" fill="#FDC8AA"/>
<path d="M26.0772 120.733C25.8067 121.268 25.2062 121.578 24.454 121.723C24.1175 121.07 23.3785 119.651 23.0222 118.985C23.5435 118.556 23.8536 118.101 23.8536 118.101C23.8536 118.101 24.619 118.246 25.292 118.628L26.2685 119.856C26.2949 120.106 26.2421 120.403 26.0772 120.733Z" fill="#EFA37D"/>
<path d="M72.8254 111.892C69.4538 125.022 68.8204 133.204 66.1811 133.29C65.4157 133.316 64.162 133.21 62.7698 133.052C61.9912 132.96 61.1731 132.854 60.3747 132.742C59.121 132.57 57.907 132.379 56.9766 132.234C55.9077 132.062 55.2017 131.944 55.2017 131.944L53.0969 128.295L52.1072 126.586L50.6226 124.013L70.5887 96.188C70.5887 96.188 76.1971 98.7613 72.8254 111.892Z" fill="#15315E"/>
<path d="M64.0892 115.31C59.3649 121.453 61.4895 128.598 62.7696 133.046C61.991 132.953 61.1728 132.848 60.3745 132.736C59.1208 132.564 57.9067 132.373 56.9764 132.227L53.0967 128.288L52.1069 126.579L71.4 101.044C71.4066 101.638 73.0826 103.611 64.0892 115.31Z" fill="#072542"/>
<path d="M71.7828 168.597C71.5387 173.334 71.3078 176.884 71.3078 176.884C71.3078 176.884 67.5138 177.049 67.428 176.884C67.3423 176.712 65.5542 150.069 65.5542 150.069L48.6232 136.576L47.6929 125.781L53.8754 125.299L54.1855 125.273C54.1855 125.273 70.6677 140.785 71.8686 145.51C72.634 148.512 72.1985 160.349 71.7828 168.597Z" fill="#15315E"/>
<path d="M54.9839 141.643L50.6291 126.982L49.1709 127.807C49.1709 127.807 48.8212 133.475 48.6299 136.576L54.9839 141.643Z" fill="#072542"/>
<path d="M49.6724 149.686C47.33 157.782 39.7619 176.957 39.7619 176.957C39.7619 176.957 35.7964 177.702 35.7964 176.957C35.7964 176.891 35.8426 176.633 35.9349 176.211V176.204C36.8785 171.77 42.289 149.561 42.289 149.561L39.7685 134.405L39.4254 132.359L49.6724 126.982C49.6724 126.989 52.0147 141.597 49.6724 149.686Z" fill="#15315E"/>
<path d="M35.9414 176.211C36.8849 171.777 42.2955 149.567 42.2955 149.567L39.7684 134.405L42.3021 135.632C42.8893 137.677 43.2588 150.326 43.2588 150.326L35.9414 176.211Z" fill="#072542"/>
<path d="M70.7338 105.234C67.7646 110.229 61.5623 113.073 59.1012 120.225C57.1547 125.86 56.2309 128.427 51.4671 128.486C50.187 128.499 48.6298 128.334 46.7032 128.005C46.3733 127.945 46.0763 127.853 45.8256 127.734C39.1944 124.534 59.9193 100.114 59.9193 100.114L60.4208 99.6588L64.802 95.6932L65.2309 95.3105L71.0901 96.9205C71.0967 96.9139 73.7095 100.233 70.7338 105.234Z" fill="white"/>
<path d="M71.4 94.4197L71.1954 96.1088L71.0965 96.9138C71.0965 96.9138 68.2724 99.9159 66.2336 98.6821C64.1948 97.4482 65.2967 94.6968 65.2043 94.5384C65.1713 94.4791 65.4748 94.1689 65.8641 93.7994C66.4843 93.2056 67.3157 92.4732 67.2563 92.4204L71.4 94.4197Z" fill="#FDC8AA"/>
<path d="M71.4001 94.4199L71.1956 96.109C70.1927 96.2278 68.3122 96.34 67.1179 95.7065C66.2272 95.2315 65.9302 94.4463 65.8643 93.8063C66.4845 93.2124 67.3159 92.48 67.2565 92.4272L71.4001 94.4199Z" fill="#EFA37D"/>
<path opacity="0.2" d="M65.8841 110.783C65.7456 108.454 65.6928 105.722 66.1613 105.208C66.9992 104.284 66.8937 103.453 66.8937 103.453H64.9868L64.5183 112.123L65.8841 110.783Z" fill="#003889"/>
<path d="M65.7058 112.129C65.7058 112.129 65.6728 119.843 66.5569 121.921C66.6691 122.178 66.8934 126.309 66.8934 126.309L63.4888 124.402L64.109 113.185L65.7058 112.129Z" fill="#072542"/>
<path d="M65.0923 101.038C65.2572 101.038 66.5901 101.243 66.5901 101.243C66.5901 101.243 67.56 103.308 67.2367 103.79C66.9134 104.278 65.3364 104.278 65.3364 105.69C65.3364 107.102 64.1883 118.629 66.2008 122.588L66.1612 125.339C66.1612 125.339 63.1986 124.369 63.1986 124.25C63.1986 124.132 62.9215 107.979 64.1685 105.327C64.3533 104.938 64.0894 102.575 64.0894 102.575L65.0923 101.038Z" fill="#3B82F4"/>
<path opacity="0.2" d="M64.9866 95.304C64.9866 95.304 64.9206 95.4359 64.8084 95.6866C63.2776 98.9659 52.4962 122.231 51.4669 128.48C50.1868 128.493 48.6297 128.328 46.703 127.998C46.3731 127.939 46.0762 127.846 45.8254 127.727L55.9273 106.785L60.4206 99.6522L63.1655 95.2974H64.9866V95.304Z" fill="#003889"/>
<path d="M64.8942 95.9773C62.8554 100.834 54.1722 116.933 50.629 124.013C46.5843 132.109 47.6598 137.354 47.3431 139.38C47.3365 139.433 47.3233 139.479 47.3101 139.519C46.7888 141.267 42.1701 138.661 40.0719 137.737C37.9209 136.787 34.503 134.385 32.926 128.249C32.3718 126.105 33.6254 122.225 35.849 117.863C36.621 116.346 37.5118 114.769 38.4817 113.185C40.3952 110.078 42.6188 106.95 44.8951 104.212C47.6532 100.893 50.4838 98.1415 52.9119 96.6965C61.2586 91.7016 65.2439 94.4663 65.2439 94.4663C65.2439 94.6312 65.1846 95.2844 64.8942 95.9773Z" fill="#1F3A6F"/>
<path d="M58.5336 99.6587C58.5336 99.6587 58.3488 101.928 55.3137 103.321C52.7206 104.508 41.6356 111.252 38.4685 113.185C40.382 110.077 42.6056 106.95 44.8819 104.211C49.9362 102.483 58.5336 99.6587 58.5336 99.6587Z" fill="#15315E"/>
<path d="M59.1803 94.0767C59.1803 94.0767 46.6438 97.2438 37.789 104.917C28.9342 112.591 23.5369 116.933 23.2862 118.028C23.0355 119.123 26.0706 121.697 26.4071 121.063C26.7436 120.43 38.8843 110.605 38.8843 110.605L54.5682 102.892C54.5682 102.892 58.8174 101.124 59.1803 97.831C59.5432 94.5451 59.1803 94.0767 59.1803 94.0767Z" fill="#1F3A6F"/>
<path d="M75.2602 87.1157C75.1678 87.0497 81.6143 80.6957 77.0945 80.3196C72.5748 79.9369 66.8145 81.5535 66.1877 83.104C65.5543 84.6546 64.6305 87.5974 65.706 88.6663C66.775 89.7352 75.2602 87.1157 75.2602 87.1157Z" fill="#1F3A6F"/>
<path d="M76.0452 89.2338C76.0452 92.0183 74.7058 94.3936 72.8319 95.3173C72.2909 95.5813 71.7036 95.7264 71.09 95.7264C68.3518 95.7264 66.1348 92.8166 66.1348 89.2338C66.1348 85.6444 68.3518 82.7412 71.09 82.7412C71.9874 82.7412 72.8319 83.0579 73.5577 83.6056C75.0489 84.7207 76.0452 86.8255 76.0452 89.2338Z" fill="#FDC8AA"/>
<path d="M76.0453 89.2337C76.0453 92.0182 74.7059 94.3935 72.832 95.3172C76.7777 91.9522 74.3562 85.4464 73.5578 83.6055C75.049 84.7206 76.0453 86.8254 76.0453 89.2337Z" fill="#EFA37D"/>
<path d="M66.4646 88.5673C66.4646 88.5211 70.3707 83.843 72.1852 84.1729C74.0063 84.5028 75.2798 87.3004 75.6361 86.6538C75.9924 86.0072 75.7482 82.3848 73.9535 82.233C72.1588 82.0879 69.8627 81.6656 68.5562 82.5497C67.2498 83.4339 65.7916 85.1428 65.9829 86.1523C66.1743 87.1619 65.9631 88.7058 65.9631 88.7058L66.4646 88.5673Z" fill="#1F3A6F"/>
<path d="M67.2564 88.95C67.2564 88.95 65.1714 87.1487 65.1054 88.95C65.0395 90.7513 66.9397 91.6355 66.9397 91.6355L67.2564 88.95Z" fill="#FDC8AA"/>
<path opacity="0.2" d="M117.264 84.292C129.388 84.292 139.216 74.4637 139.216 62.3399C139.216 50.216 129.388 40.3877 117.264 40.3877C105.14 40.3877 95.312 50.216 95.312 62.3399C95.312 74.4637 105.14 84.292 117.264 84.292Z" fill="#003889"/>
<path d="M114.882 81.3555C127.006 81.3555 136.834 71.5272 136.834 59.4033C136.834 47.2795 127.006 37.4512 114.882 37.4512C102.758 37.4512 92.9302 47.2795 92.9302 59.4033C92.9302 71.5272 102.758 81.3555 114.882 81.3555Z" fill="#3B82F4"/>
<path d="M145.01 48.1403C149.084 48.1403 152.386 44.8376 152.386 40.7635C152.386 36.6894 149.084 33.3867 145.01 33.3867C140.936 33.3867 137.633 36.6894 137.633 40.7635C137.633 44.8376 140.936 48.1403 145.01 48.1403Z" fill="#3B82F4"/>
<path d="M138.101 28.788C140.317 28.788 142.113 26.9919 142.113 24.7763C142.113 22.5607 140.317 20.7646 138.101 20.7646C135.886 20.7646 134.09 22.5607 134.09 24.7763C134.09 26.9919 135.886 28.788 138.101 28.788Z" fill="#3B82F4"/>
<path d="M26.2754 149.865C28.491 149.865 30.2871 148.069 30.2871 145.853C30.2871 143.637 28.491 141.841 26.2754 141.841C24.0598 141.841 22.2637 143.637 22.2637 145.853C22.2637 148.069 24.0598 149.865 26.2754 149.865Z" fill="white"/>
<path d="M126.244 69.4524H118.67L116.004 56.9554C116.519 56.6189 116.822 56.0647 116.842 55.4774L121.48 53.333L122.107 54.6856C122.233 54.9496 122.543 55.0683 122.807 54.943C122.906 54.8968 122.985 54.8242 123.038 54.7318L125.215 57.3711C125.281 57.1797 125.347 56.9818 125.406 56.7839C125.406 56.7839 125.406 56.7839 125.406 56.7773V65.5462H124.971C124.76 65.5462 124.588 65.6452 124.588 65.7706V69.4392H126.561V65.7838C126.561 65.6584 126.389 65.5594 126.178 65.5594H125.743V54.4943C125.743 54.4811 125.743 54.4679 125.743 54.4547C125.749 53.2208 125.492 51.9606 124.938 50.7663C123.935 48.5955 122.153 47.0383 120.075 46.2729L120.649 49.638C120.557 49.6314 120.464 49.638 120.372 49.6842C120.108 49.803 119.989 50.1197 120.115 50.3836L120.741 51.7362L116.07 53.9005C115.516 53.5046 114.763 53.4386 114.123 53.7817C113.912 53.8939 113.728 54.0456 113.582 54.2238C113.338 54.5141 113.193 54.877 113.16 55.2465L106.555 58.3014L106.509 58.2025C106.423 58.0111 106.192 57.9319 106.008 58.0177L105.17 58.4004C104.978 58.4862 104.893 58.7171 104.985 58.9019L105.282 59.5419V65.5528H104.035C103.909 65.5528 103.811 65.6518 103.811 65.7772V69.4458H103.54C103.019 69.4458 102.596 69.8681 102.596 70.3893C102.596 70.9106 103.019 71.3329 103.54 71.3329H126.258C126.521 71.3329 126.759 71.2273 126.924 71.0557C127.095 70.8842 127.201 70.6466 127.201 70.3893C127.188 69.8747 126.766 69.4524 126.244 69.4524ZM125.024 53.5639C125.169 53.8873 125.03 54.2765 124.707 54.4283C124.384 54.5801 123.994 54.4349 123.843 54.1116C123.697 53.7883 123.836 53.399 124.159 53.2472C124.483 53.0955 124.872 53.2406 125.024 53.5639ZM124.469 50.9841C124.714 51.5185 124.483 52.1585 123.948 52.4093C123.704 52.5214 123.44 52.5346 123.203 52.462C123.196 52.1915 123.137 51.921 123.018 51.6571C122.899 51.3931 122.727 51.1754 122.523 50.9907C122.629 50.7663 122.807 50.575 123.044 50.4628C123.585 50.2121 124.225 50.443 124.469 50.9841ZM121.995 48.5757C122.318 48.424 122.708 48.5625 122.859 48.8924C123.011 49.2157 122.866 49.605 122.543 49.7568C122.219 49.9085 121.83 49.7634 121.685 49.4401C121.533 49.1102 121.672 48.7275 121.995 48.5757ZM116.499 64.5763H113.259L113.444 63.3754H116.307L116.499 64.5763ZM116.222 62.808H113.536L113.576 62.5705L114.42 57.1732C114.717 57.2721 115.034 57.2919 115.344 57.2325L116.222 62.808ZM106.859 65.5594H105.612V60.2743L105.816 60.7098C105.902 60.9011 106.133 60.9869 106.318 60.8945L107.156 60.5118C107.347 60.4261 107.426 60.1951 107.341 60.0104L107.294 59.9114L113.582 57.0016L113.78 56.9092L113.582 57.833L111.101 69.4656H107.09V65.7838C107.083 65.6584 106.984 65.5594 106.859 65.5594ZM112.5 69.4524L113.173 65.1372H116.591L117.271 69.4524H112.5Z" fill="white"/>
</svg>
