<svg width="138" height="184" viewBox="0 0 138 184" fill="none" xmlns="http://www.w3.org/2000/svg">
<g clip-path="url(#clip0_49_1489)">
<path d="M115.298 48.9041H108.188V123.625H115.298V48.9041Z" fill="#333333"/>
<path d="M101.326 48.9041H94.2161V123.625H101.326V48.9041Z" fill="#333333"/>
<path d="M45.0929 73.6099H31.7107V131.256H45.0929V73.6099Z" fill="#349BF0"/>
<path fill-rule="evenodd" clip-rule="evenodd" d="M138 74.3371H80.312C71.2532 74.3371 63.018 70.6312 57.0475 64.6607C51.0769 58.6902 47.3711 50.4549 47.3711 41.3962C47.3711 32.3375 51.0769 24.1022 57.0475 18.1317C63.018 12.1612 71.2532 8.45532 80.312 8.45532H138V15.318H80.312C73.1473 15.318 66.6278 18.2552 61.8925 22.9768C57.171 27.6983 54.2338 34.2178 54.2338 41.3962C54.2338 48.5608 57.171 55.0804 61.8925 59.8156C66.6141 64.5372 73.1336 67.4744 80.312 67.4744H138V74.3371Z" fill="#F99313"/>
<path fill-rule="evenodd" clip-rule="evenodd" d="M138 85.8802H10.5873C6.37364 85.8802 2.54428 84.1508 -0.241969 81.3783C-3.01449 78.6058 -4.7439 74.7627 -4.7439 70.549C-4.7439 66.3353 -3.01449 62.5059 -0.241969 59.7197C2.53055 56.9472 6.37364 55.2178 10.5873 55.2178H138V56.357H10.5873C6.68933 56.357 3.14818 57.9491 0.567814 60.5295C-1.99883 63.0961 -3.60468 66.651 -3.60468 70.549C-3.60468 74.447 -2.01256 77.9882 0.567814 80.5685C3.13446 83.1352 6.68933 84.741 10.5873 84.741H138V85.8802Z" fill="white"/>
<path d="M72.2001 131.257H45.0925V146.011H72.2001V131.257Z" fill="#51BB96"/>
<path fill-rule="evenodd" clip-rule="evenodd" d="M2.88726 28.6451C2.88726 29.3039 2.35194 29.8392 1.69312 29.8392C1.03431 29.8392 0.499023 29.3039 0.499023 28.6451C0.499023 27.9863 1.03431 27.451 1.69312 27.451C2.35194 27.4373 2.88726 27.9863 2.88726 28.6451ZM19.7008 28.6451C19.7008 29.3039 19.1655 29.8392 18.5067 29.8392C17.8479 29.8392 17.3126 29.3039 17.3126 28.6451C17.3126 27.9863 17.8479 27.451 18.5067 27.451C19.1655 27.4373 19.7008 27.9863 19.7008 28.6451ZM36.5144 28.6451C36.5144 29.3039 35.9791 29.8392 35.3203 29.8392C34.6615 29.8392 34.1262 29.3039 34.1262 28.6451C34.1262 27.9863 34.6615 27.451 35.3203 27.451C35.9791 27.451 36.5144 27.9863 36.5144 28.6451ZM2.88726 14.9197C2.88726 15.5785 2.35194 16.1138 1.69312 16.1138C1.03431 16.1138 0.499023 15.5785 0.499023 14.9197C0.499023 14.2609 1.03431 13.7256 1.69312 13.7256C2.35194 13.7119 2.88726 14.2609 2.88726 14.9197ZM19.7008 14.9197C19.7008 15.5785 19.1655 16.1138 18.5067 16.1138C17.8479 16.1138 17.3126 15.5785 17.3126 14.9197C17.3126 14.2609 17.8479 13.7256 18.5067 13.7256C19.1655 13.7119 19.7008 14.2609 19.7008 14.9197ZM36.5144 14.9197C36.5144 15.5785 35.9791 16.1138 35.3203 16.1138C34.6615 16.1138 34.1262 15.5785 34.1262 14.9197C34.1262 14.2609 34.6615 13.7256 35.3203 13.7256C35.9791 13.7256 36.5144 14.2609 36.5144 14.9197ZM2.88726 1.19436C2.88726 1.85318 2.35194 2.38847 1.69312 2.38847C1.03431 2.38847 0.499023 1.85318 0.499023 1.19436C0.499023 0.535543 1.03431 0.000251901 1.69312 0.000251901C2.35194 -0.0134735 2.88726 0.535543 2.88726 1.19436ZM19.7008 1.19436C19.7008 1.85318 19.1655 2.38847 18.5067 2.38847C17.8479 2.38847 17.3126 1.85318 17.3126 1.19436C17.3126 0.535543 17.8479 0.000251901 18.5067 0.000251901C19.1655 -0.0134735 19.7008 0.535543 19.7008 1.19436ZM36.5144 1.19436C36.5144 1.85318 35.9791 2.38847 35.3203 2.38847C34.6615 2.38847 34.1262 1.85318 34.1262 1.19436C34.1262 0.535543 34.6615 0.000251901 35.3203 0.000251901C35.9791 0.000251901 36.5144 0.535543 36.5144 1.19436Z" fill="white"/>
<path fill-rule="evenodd" clip-rule="evenodd" d="M107.269 151.611L102.26 147.397V146.203L107.269 150.417V151.611ZM107.269 184.414L102.26 180.201V179.007L107.269 183.22V184.414ZM107.269 176.207L102.26 171.993V170.799L107.269 175.012V176.207ZM107.269 168.012L102.26 163.799V162.605L107.269 166.818V168.012ZM107.269 159.805L102.26 155.591V154.397L107.269 158.611V159.805Z" fill="white"/>
</g>
<defs>
<clipPath id="clip0_49_1489">
<rect width="138" height="184" fill="white"/>
</clipPath>
</defs>
</svg>
