<svg width="117" height="228" viewBox="0 0 117 228" fill="none" xmlns="http://www.w3.org/2000/svg">
<g clip-path="url(#clip0_49_1490)">
<path d="M100.588 58.9314H89.8747V105.083H100.588V58.9314Z" fill="#349BF0"/>
<path fill-rule="evenodd" clip-rule="evenodd" d="M174.969 59.5135H128.785C121.532 59.5135 114.939 56.5466 110.159 51.7667C105.379 46.9867 102.413 40.3936 102.413 33.1413C102.413 25.8889 105.379 19.2959 110.159 14.5159C114.939 9.73592 121.532 6.76904 128.785 6.76904H174.969V12.2633H128.785C123.049 12.2633 117.829 14.6148 114.038 18.3948C110.258 22.1748 107.907 27.3943 107.907 33.1413C107.907 38.8772 110.258 44.0967 114.038 47.8878C117.818 51.6678 123.038 54.0193 128.785 54.0193H174.969V59.5135Z" fill="#FB7474"/>
<path fill-rule="evenodd" clip-rule="evenodd" d="M174.969 68.7552H72.9636C69.5902 68.7552 66.5244 67.3706 64.2938 65.151C62.0741 62.9313 60.6895 59.8546 60.6895 56.4811C60.6895 53.1077 62.0741 50.0419 64.2938 47.8112C66.5134 45.5916 69.5902 44.207 72.9636 44.207H174.969V45.1191H72.9636C69.8429 45.1191 67.0079 46.3937 64.9421 48.4596C62.8872 50.5144 61.6016 53.3604 61.6016 56.4811C61.6016 59.6018 62.8762 62.4368 64.9421 64.5027C66.9969 66.5575 69.8429 67.8431 72.9636 67.8431H174.969V68.7552Z" fill="white"/>
<path d="M122.291 105.083H100.589V116.895H122.291V105.083Z" fill="#51BB96"/>
<path d="M41.7236 180.068H-0.27417V185.76H41.7236V180.068Z" fill="#333333"/>
<path d="M41.7236 191.265H-0.27417V196.957H41.7236V191.265Z" fill="#333333"/>
<path d="M41.7236 202.462H-0.27417V208.154H41.7236V202.462Z" fill="#333333"/>
<path d="M110.753 192.573H100.039V215.648H110.753V192.573Z" fill="#51BB96"/>
<path fill-rule="evenodd" clip-rule="evenodd" d="M61.2611 133.664C70.7881 133.664 79.4359 137.554 85.7103 143.828C91.9847 150.102 95.8746 158.75 95.8746 168.277V228.186H90.3804V168.277C90.3804 160.267 87.1059 152.992 81.8204 147.718C76.535 142.443 69.2607 139.158 61.2611 139.158C53.2505 139.158 45.9762 142.432 40.7017 147.718C35.4273 153.003 32.1417 160.278 32.1417 168.277V228.186H26.6475V168.277C26.6475 158.75 30.5374 150.102 36.8118 143.828C43.0862 137.554 51.7341 133.664 61.2611 133.664Z" fill="#2477FF"/>
<path fill-rule="evenodd" clip-rule="evenodd" d="M80.0295 228.186V183.397C80.0295 180.024 81.4141 176.958 83.6337 174.727C85.8534 172.508 88.9301 171.123 92.3036 171.123C95.677 171.123 98.7428 172.508 100.973 174.727C103.193 176.947 104.578 180.024 104.578 183.397V228.186H103.666V183.397C103.666 180.276 102.391 177.441 100.325 175.376C98.2593 173.31 95.4243 172.035 92.3036 172.035C89.1829 172.035 86.3479 173.31 84.282 175.376C82.2162 177.441 80.9416 180.276 80.9416 183.397V228.186H80.0295Z" fill="white"/>
<path d="M133.279 179.387H110.753V192.573H133.279V179.387Z" fill="#FB7474"/>
<path fill-rule="evenodd" clip-rule="evenodd" d="M66.7993 22.9331C66.7993 23.4605 66.3707 23.889 65.8433 23.889C65.3158 23.889 64.8873 23.4605 64.8873 22.9331C64.8873 22.4056 65.3158 21.9771 65.8433 21.9771C66.3707 21.9661 66.7993 22.4056 66.7993 22.9331ZM80.2601 22.9331C80.2601 23.4605 79.8315 23.889 79.3041 23.889C78.7766 23.889 78.3481 23.4605 78.3481 22.9331C78.3481 22.4056 78.7766 21.9771 79.3041 21.9771C79.8315 21.9661 80.2601 22.4056 80.2601 22.9331ZM93.7209 22.9331C93.7209 23.4605 93.2924 23.889 92.7649 23.889C92.2375 23.889 91.8089 23.4605 91.8089 22.9331C91.8089 22.4056 92.2375 21.9771 92.7649 21.9771C93.2924 21.9771 93.7209 22.4056 93.7209 22.9331ZM66.7993 11.9446C66.7993 12.4721 66.3707 12.9006 65.8433 12.9006C65.3158 12.9006 64.8873 12.4721 64.8873 11.9446C64.8873 11.4172 65.3158 10.9886 65.8433 10.9886C66.3707 10.9776 66.7993 11.4172 66.7993 11.9446ZM80.2601 11.9446C80.2601 12.4721 79.8315 12.9006 79.3041 12.9006C78.7766 12.9006 78.3481 12.4721 78.3481 11.9446C78.3481 11.4172 78.7766 10.9886 79.3041 10.9886C79.8315 10.9776 80.2601 11.4172 80.2601 11.9446ZM93.7209 11.9446C93.7209 12.4721 93.2924 12.9006 92.7649 12.9006C92.2375 12.9006 91.8089 12.4721 91.8089 11.9446C91.8089 11.4172 92.2375 10.9886 92.7649 10.9886C93.2924 10.9886 93.7209 11.4172 93.7209 11.9446ZM66.7993 0.956196C66.7993 1.48364 66.3707 1.91219 65.8433 1.91219C65.3158 1.91219 64.8873 1.48364 64.8873 0.956196C64.8873 0.428752 65.3158 0.00020167 65.8433 0.00020167C66.3707 -0.0107868 66.7993 0.428752 66.7993 0.956196ZM80.2601 0.956196C80.2601 1.48364 79.8315 1.91219 79.3041 1.91219C78.7766 1.91219 78.3481 1.48364 78.3481 0.956196C78.3481 0.428752 78.7766 0.00020167 79.3041 0.00020167C79.8315 -0.0107868 80.2601 0.428752 80.2601 0.956196ZM93.7209 0.956196C93.7209 1.48364 93.2924 1.91219 92.7649 1.91219C92.2375 1.91219 91.8089 1.48364 91.8089 0.956196C91.8089 0.428752 92.2375 0.00020167 92.7649 0.00020167C93.2924 0.00020167 93.7209 0.428752 93.7209 0.956196Z" fill="white"/>
</g>
<defs>
<clipPath id="clip0_49_1490">
<rect width="117" height="228" fill="white"/>
</clipPath>
</defs>
</svg>
