<svg width="127" height="286" viewBox="0 0 127 286" fill="none" xmlns="http://www.w3.org/2000/svg">
<path d="M17.9347 100.553C34.9516 117.391 62.5413 117.391 79.5582 100.553C96.575 83.7153 96.575 56.416 79.5582 39.5782C62.5413 22.7405 34.9516 22.7405 17.9348 39.5782C0.917915 56.416 0.917915 83.7153 17.9347 100.553Z" fill="#FEB42C"/>
<path fill-rule="evenodd" clip-rule="evenodd" d="M-14.5528 122.125C-13.6159 122.092 -12.679 122.06 -11.7256 122.06C25.488 122.06 55.6665 151.92 55.6665 188.742C55.6665 225.564 25.488 255.425 -11.7256 255.425C-12.679 255.425 -13.6159 255.409 -14.5528 255.36L-14.5528 122.125Z" fill="#A9DEB4"/>
<path fill-rule="evenodd" clip-rule="evenodd" d="M53.8913 0.631836L53.8913 188.547L55.6665 188.547L55.6665 0.631836" fill="#050E12"/>
<path fill-rule="evenodd" clip-rule="evenodd" d="M39.5088 0.631836L39.5088 185.246L41.284 185.246L41.2841 0.631836" fill="#050E12"/>
<path d="M54.4995 123.377L54.4995 100.51L40.528 100.51L40.528 123.377L54.4995 123.377Z" fill="#050E12"/>
<path d="M41.2841 100.51L41.2841 38.2021L31.241 38.2021L31.241 100.51L41.2841 100.51Z" fill="#050E12"/>
<path fill-rule="evenodd" clip-rule="evenodd" d="M55.6665 274.78C55.6665 275.707 54.9104 276.455 53.9735 276.455C53.0366 276.455 52.2805 275.707 52.2805 274.78C52.2805 273.853 53.0366 273.104 53.9735 273.104C54.9104 273.104 55.6665 273.853 55.6665 274.78ZM43.7496 274.78C43.7496 275.707 42.9935 276.455 42.0566 276.455C41.1197 276.455 40.3636 275.707 40.3636 274.78C40.3636 273.853 41.1197 273.104 42.0566 273.104C42.9935 273.104 43.7496 273.853 43.7496 274.78ZM31.8327 274.78C31.8327 275.707 31.0766 276.455 30.1397 276.455C29.2028 276.455 28.4467 275.707 28.4467 274.78C28.4467 273.853 29.2028 273.104 30.1397 273.104C31.0766 273.104 31.8327 273.853 31.8327 274.78ZM19.9158 274.78C19.9158 275.707 19.1597 276.455 18.2228 276.455C17.2859 276.455 16.5298 275.707 16.5298 274.78C16.5298 273.853 17.2859 273.104 18.2228 273.104C19.1597 273.104 19.9158 273.853 19.9158 274.78ZM7.99891 274.78C7.99891 275.707 7.24281 276.455 6.30589 276.455C5.36898 276.455 4.61288 275.707 4.61288 274.78C4.61288 273.853 5.36898 273.104 6.30589 273.104C7.24281 273.104 7.99891 273.853 7.99891 274.78ZM55.6665 283.92C55.6665 284.847 54.9104 285.595 53.9735 285.595C53.0366 285.595 52.2805 284.847 52.2805 283.92C52.2805 282.993 53.0366 282.245 53.9735 282.245C54.9104 282.245 55.6665 282.993 55.6665 283.92ZM43.7496 283.92C43.7496 284.847 42.9935 285.595 42.0566 285.595C41.1197 285.595 40.3636 284.847 40.3636 283.92C40.3636 282.993 41.1197 282.245 42.0566 282.245C42.9935 282.245 43.7496 282.993 43.7496 283.92ZM31.8327 283.92C31.8327 284.847 31.0766 285.595 30.1397 285.595C29.2028 285.595 28.4467 284.847 28.4467 283.92C28.4467 282.993 29.2028 282.245 30.1397 282.245C31.0766 282.245 31.8327 282.993 31.8327 283.92ZM19.9158 283.92C19.9158 284.847 19.1597 285.595 18.2228 285.595C17.2859 285.595 16.5298 284.847 16.5298 283.92C16.5298 282.993 17.2859 282.245 18.2228 282.245C19.1597 282.245 19.9158 282.993 19.9158 283.92ZM7.99891 283.92C7.99891 284.847 7.24281 285.595 6.30589 285.595C5.36898 285.595 4.61287 284.847 4.61287 283.92C4.61287 282.993 5.36898 282.245 6.30589 282.245C7.24281 282.245 7.99891 282.993 7.99891 283.92Z" fill="#050E12"/>
<path d="M92.3 135.953C93.3908 144.771 101.499 151.044 110.411 149.965C119.323 148.885 125.663 140.862 124.572 132.044C123.481 123.226 115.372 116.953 106.461 118.032C97.5491 119.112 91.2091 127.135 92.3 135.953Z" fill="#FEB42C"/>
</svg>
