<svg width="780" height="481" viewBox="0 0 780 481" fill="none" xmlns="http://www.w3.org/2000/svg">
<path d="M765.312 480.214H28.517V11.3643H765.24V480.214H765.312ZM29.8749 478.928H763.954V12.7222H29.8749V478.928Z" fill="#050505"/>
<path d="M718.999 0H52.6742V21.8701H718.999V0Z" fill="#0B0705"/>
<path d="M486.146 68.04L484.788 75.9019L477.212 73.043L478.07 68.183L486.146 68.04Z" fill="#FFAC03"/>
<path d="M513.519 56.3899L505.657 55.032L508.516 47.4561L513.376 48.2422L513.519 56.3899Z" fill="#FFAC03"/>
<path d="M502.727 55.0323L495.223 57.8197L493.865 49.8149L498.51 48.0996L502.727 55.0323Z" fill="#FFAC03"/>
<path d="M492.721 59.3206L487.575 65.4671L482.429 59.1776L485.646 55.3896L492.721 59.3206Z" fill="#FFAC03"/>
<path d="M484.859 78.832L487.575 86.3365L479.642 87.623L477.927 82.9773L484.859 78.832Z" fill="#FFAC03"/>
<path d="M489.148 88.8379L495.223 93.9838L489.005 99.0582L485.217 95.9135L489.148 88.8379Z" fill="#FFAC03"/>
<path d="M497.796 95.4131L505.657 96.771L502.87 104.347L497.939 103.489L497.796 95.4131Z" fill="#FFAC03"/>
<path d="M508.588 96.6995L516.092 93.9121L517.45 101.917L512.804 103.632L508.588 96.6995Z" fill="#FFAC03"/>
<path d="M518.665 92.4112L523.74 86.2646L528.886 92.5541L525.669 96.3421L518.665 92.4112Z" fill="#FFAC03"/>
<path d="M525.169 83.6919L526.527 75.8301L534.103 78.6889L533.245 83.6204L525.169 83.6919Z" fill="#FFAC03"/>
<path d="M526.455 72.8993L523.74 65.3949L531.744 64.1084L533.388 68.754L526.455 72.8993Z" fill="#FFAC03"/>
<path d="M522.239 62.8942L516.092 57.8197L522.31 52.6738L526.17 55.8186L522.239 62.8942Z" fill="#FFAC03"/>
<path d="M517.522 94.913C501.226 104.562 481.572 92.1256 483.359 73.2573C484.002 66.4675 487.861 60.321 493.793 56.8189C510.089 47.1703 529.743 59.6063 527.957 78.4747C527.313 85.2644 523.454 91.4109 517.522 94.913ZM508.159 59.9637C494.151 58.1769 484.788 72.9714 492.364 84.907C494.794 88.695 498.725 91.1965 503.156 91.7683C517.164 93.555 526.527 78.7605 518.951 66.8249C516.521 63.1084 512.59 60.5354 508.159 59.9637Z" fill="#FFAC03"/>
<path d="M511.947 65.3242C502.584 60.1068 491.792 67.6828 493.579 78.2605C494.151 81.6911 496.295 84.6929 499.368 86.4082C508.731 91.6255 519.523 84.0496 517.736 73.4719C517.164 70.0413 515.02 67.0395 511.947 65.3242ZM507.73 84.3355C499.94 85.9079 494.294 77.9031 498.439 71.1134C499.583 69.1836 501.512 67.8972 503.656 67.3969C511.447 65.8245 517.093 73.8293 512.948 80.619C511.804 82.5487 509.874 83.9067 507.73 84.3355Z" fill="#FC6C01"/>
<path d="M154.735 448.124C154.735 448.124 123.216 363.431 68.3264 350.995C13.4367 338.559 10.6493 344.133 10.6493 344.133C10.6493 344.133 78.4038 458.773 154.735 448.124Z" fill="#2CA35A"/>
<path d="M154.806 448.552C115.14 454.056 77.9749 425.396 53.7463 400.381C27.5164 373.293 10.4348 344.633 10.2919 344.348L10.1489 344.133L10.2919 343.919C10.5778 343.275 14.7945 338.344 68.4693 350.566C96.9862 357.069 119.071 383.228 132.507 404.026C147.087 426.539 155.092 447.838 155.164 447.981L155.378 448.552H154.806ZM54.3895 399.809C78.3323 424.538 115.068 452.841 154.092 447.766C151.233 440.476 119.928 363.216 68.1834 351.423C20.2978 340.56 12.3645 343.49 11.221 344.205C13.1507 347.349 29.732 374.294 54.3895 399.809Z" fill="#595B02"/>
<path d="M118.07 418.678L118.714 418.034C61.6082 359.857 12.2217 343.276 11.7214 343.133L11.4355 343.99C11.9358 344.133 61.1794 360.643 118.07 418.678Z" fill="#595B02"/>
<path d="M78.6183 382.299C68.9697 363.43 54.0323 347.635 53.8893 347.492L53.2461 348.135C53.389 348.278 68.255 364.002 77.8321 382.727L78.6183 382.299Z" fill="#595B02"/>
<path d="M107.993 408.672L108.35 407.814C108.207 407.743 94.1988 401.596 76.4026 402.096C64.8957 402.382 59.7498 405.241 59.5354 405.384L59.9642 406.17C60.0357 406.17 65.1816 403.311 76.4026 403.026C94.0559 402.597 107.85 408.672 107.993 408.672Z" fill="#595B02"/>
<path d="M123.145 421.321L123.645 420.535C123.502 420.464 110.637 412.173 92.9839 409.815C81.5486 408.314 76.0453 410.315 75.7594 410.386L76.0453 411.244C76.1168 411.244 81.6915 409.243 92.7695 410.744C110.351 413.031 123.002 421.25 123.145 421.321Z" fill="#595B02"/>
<path d="M64.3241 350.065C64.8959 350.208 65.5391 350.351 66.1823 350.494C70.6135 354.997 81.4057 367.647 90.2681 391.59L89.339 391.947C79.6189 365.718 67.6118 353.21 64.3241 350.065Z" fill="#595B02"/>
<path d="M129.792 399.166C129.792 399.166 139.154 336.057 109.422 309.541C79.6904 283.025 76.1168 285.527 76.1168 285.527C76.1168 285.527 78.9042 379.583 129.792 399.166Z" fill="#2CA35A"/>
<path d="M129.649 399.523C103.276 389.374 89.9821 358.927 83.5497 335.128C76.5456 309.398 75.7594 285.813 75.7594 285.598V285.455L75.9023 285.384C76.3312 285.098 80.6194 283.454 109.637 309.398C125.074 323.192 129.791 346.92 131.078 364.359C132.436 383.299 130.149 399.166 130.077 399.309L130.006 399.737L129.649 399.523ZM84.193 334.985C90.5539 358.499 103.633 388.517 129.506 398.737C130.22 393.305 137.224 334.77 109.208 309.827C83.2639 286.67 77.4032 285.813 76.4026 285.813C76.5456 288.386 77.5462 310.756 84.193 334.985Z" fill="#595B02"/>
<path d="M117.141 368.433L117.784 368.29C102.275 312.757 77.3318 285.598 77.1174 285.384L76.6171 285.813C76.8315 286.027 101.703 313.043 117.141 368.433Z" fill="#595B02"/>
<path d="M105.134 332.411C105.563 317.474 101.703 302.536 101.703 302.394L101.06 302.536C101.132 302.679 104.92 317.474 104.491 332.34L105.134 332.411Z" fill="#595B02"/>
<path d="M114.282 358.856L114.783 358.427C114.711 358.356 108.136 349.708 96.9863 343.919C89.7677 340.202 85.6224 340.131 85.408 340.131V340.774C85.4794 340.774 89.6248 340.774 96.7004 344.491C107.778 350.28 114.211 358.713 114.282 358.856Z" fill="#595B02"/>
<path d="M119.357 371.792L119.928 371.506C119.857 371.434 114.783 361.857 104.634 354.353C98.0583 349.493 93.9845 348.85 93.7701 348.85L93.6986 349.493C93.7701 349.493 97.8439 350.208 104.276 354.925C114.282 362.286 119.285 371.72 119.357 371.792Z" fill="#595B02"/>
<path d="M107.278 307.611C107.635 307.897 107.921 308.183 108.279 308.469C109.494 312.757 111.852 324.264 109.208 342.132L108.493 342.06C111.352 322.549 108.207 310.685 107.278 307.611Z" fill="#595B02"/>
<path d="M112.71 271.518H102.847L100.631 260.011C98.4871 259.583 96.343 258.939 94.3418 258.153L86.8374 266.801L78.3323 261.87L82.1917 250.863C80.5479 249.434 78.9756 247.79 77.6176 246.146L66.8255 249.934L61.894 241.429L70.7564 233.71C70.0417 231.637 69.5414 229.493 69.1125 227.278L57.8916 225.134V215.271L69.1125 213.126C69.5414 210.911 70.1846 208.695 70.9708 206.551L62.5372 199.261L67.4687 190.756L78.3323 194.544C79.4758 193.257 80.6194 192.114 81.8344 191.113C82.2632 190.756 82.7635 190.399 83.2638 189.97L79.5473 179.249L88.0524 174.318L95.6998 183.18C97.7724 182.465 99.9166 181.965 102.061 181.608L104.205 170.387H114.068L116.283 181.894C118.428 182.322 120.572 182.966 122.573 183.752L130.077 175.104L138.582 180.035L134.723 191.113C136.367 192.543 137.939 194.187 139.297 195.83L150.089 192.042L155.021 200.547L146.158 208.195C146.873 210.268 147.373 212.412 147.802 214.627L159.023 216.771V226.634L147.802 228.779C147.373 230.994 146.73 233.21 145.944 235.354L154.377 242.644L149.446 251.149L138.582 247.361C137.439 248.647 136.295 249.791 135.08 250.792C134.651 251.149 134.223 251.506 133.651 251.935L137.367 262.656L128.862 267.587L121.215 258.725C119.142 259.44 116.998 259.94 114.854 260.297L112.71 271.518ZM104.062 270.089H111.495L113.639 259.011L114.139 258.939C116.498 258.582 118.928 258.01 121.215 257.153L121.644 257.01L129.148 265.729L135.652 262.013L131.936 251.435L132.364 251.149C133.079 250.649 133.579 250.148 134.151 249.72C135.438 248.647 136.653 247.432 137.796 246.075L138.082 245.717L148.731 249.434L152.448 242.93L144.157 235.783L144.372 235.282C145.301 232.924 146.015 230.494 146.444 227.992L146.516 227.492L157.522 225.419V217.915L146.516 215.842L146.444 215.342C146.015 212.912 145.444 210.482 144.657 208.266L144.514 207.838L153.234 200.333L149.517 193.829L138.868 197.546L138.582 197.117C137.081 195.187 135.366 193.472 133.508 191.828L133.151 191.542L136.939 180.679L130.435 176.962L123.073 185.539L122.573 185.324C120.286 184.395 117.927 183.752 115.569 183.323L115.068 183.252L112.924 171.959H105.42L103.276 183.037L102.775 183.109C100.417 183.466 97.9868 184.038 95.6998 184.895L95.271 185.038L87.7665 176.319L81.2626 180.035L84.9791 190.613L84.5503 190.899C83.9071 191.399 83.3353 191.9 82.7635 192.328C81.477 193.4 80.262 194.615 79.1185 195.973L78.8326 196.331L68.1834 192.614L64.4669 199.118L72.7576 206.265L72.5432 206.765C71.614 209.124 70.8993 211.554 70.4705 214.056L70.399 214.556L59.321 216.486V223.99L70.3276 226.063L70.399 226.563C70.7564 228.993 71.3996 231.423 72.1858 233.639L72.3287 234.067L63.6093 241.572L67.3258 248.076L77.975 244.359L78.2608 244.788C79.7617 246.718 81.477 248.433 83.3353 250.077L83.6926 250.363L79.9047 261.226L86.4085 264.943L93.7701 256.366L94.2703 256.581C96.5574 257.51 98.916 258.153 101.275 258.582L101.775 258.653L104.062 270.089ZM107.778 249.791C100.131 249.791 92.9124 246.646 87.7665 240.929C79.8332 232.281 77.6176 220.416 81.9773 209.91C86.3371 199.475 96.2715 192.614 107.993 192.114C116.069 191.757 123.788 194.973 129.22 200.905C137.153 209.553 139.369 221.417 135.009 231.923C130.649 242.358 120.715 249.219 108.993 249.72C108.565 249.791 108.207 249.791 107.778 249.791ZM109.208 193.543C108.85 193.543 108.422 193.543 108.064 193.543C96.9148 194.044 87.4091 200.547 83.3353 210.482C79.19 220.416 81.3341 231.709 88.8386 239.999C93.9845 245.646 101.346 248.647 108.993 248.362C120.143 247.861 129.649 241.357 133.722 231.423C137.868 221.488 135.724 210.196 128.219 201.905C123.288 196.545 116.426 193.543 109.208 193.543Z" fill="#050505"/>
<path d="M223.347 401.024C222.775 401.024 222.275 400.523 222.275 399.952V138.368H137.367C136.795 138.368 136.295 137.867 136.295 137.296C136.295 136.724 136.795 136.224 137.367 136.224H224.419V400.023C224.49 400.523 223.99 401.024 223.347 401.024Z" fill="#050505"/>
<path d="M333.269 440.618C332.769 440.618 332.34 440.19 332.34 439.689V256.366H247.29C246.789 256.366 246.361 255.937 246.361 255.437C246.361 254.937 246.789 254.508 247.29 254.508H334.198V439.689C334.198 440.19 333.841 440.618 333.269 440.618Z" fill="#050505"/>
<path d="M440.333 470.851C439.904 470.851 439.547 470.493 439.547 470.065V340.416H354.353C353.924 340.416 353.567 340.059 353.567 339.63C353.567 339.201 353.924 338.844 354.353 338.844H441.119V470.065C441.119 470.493 440.762 470.851 440.333 470.851Z" fill="#050505"/>
<path d="M209.124 153.02H123.145V478.356H209.124V153.02Z" fill="#FC6C01"/>
<path d="M322.406 277.308H236.426V478.356H322.406V277.308Z" fill="#73A8FF"/>
<path d="M430.613 353.854H344.633V478.356H430.613V353.854Z" fill="#2667FF"/>
<path d="M412.96 54.3896H43.24V97.7011H412.96V54.3896Z" fill="#73A8FF"/>
<path d="M387.659 63.1807H53.1744V89.3391H387.659V63.1807Z" fill="white"/>
<path d="M388.302 89.982H52.5312V62.5371H388.302V89.982ZM53.8177 88.6955H386.944V63.8236H53.8177V88.6955Z" fill="#050505"/>
<path d="M432.042 240.286L458.201 197.546C467.635 203.335 474.067 210.84 478.355 221.06L432.042 240.286Z" fill="#FFAC03"/>
<path d="M419.034 252.65L369.076 256.653C366.861 229.065 387.444 204.908 415.032 202.763C426.039 201.906 435.687 204.193 445.121 209.982L419.034 252.65Z" fill="#396AE3"/>
<path d="M419.034 252.65L465.276 233.424C475.925 258.939 463.775 288.314 438.26 298.891C412.745 309.54 383.37 297.39 372.793 271.875C370.649 266.801 369.577 262.155 369.148 256.652L419.034 252.65Z" fill="#6C98DF"/>
<path d="M415.032 202.692C401.81 203.764 390.232 209.839 381.941 218.916L418.963 252.65L445.121 209.911C435.687 204.122 426.039 201.834 415.032 202.692Z" fill="#FC6C01"/>
<path d="M384.085 283.74C386.944 278.379 390.875 273.662 395.092 269.374C397.236 267.23 399.523 265.157 401.881 263.299C403.025 262.37 404.168 261.512 405.312 260.726C405.884 260.369 406.455 259.94 407.027 259.582C407.313 259.368 407.599 259.225 407.885 259.082C408.028 259.011 408.814 258.653 408.314 258.725C408.028 258.582 407.742 258.51 407.528 258.367C407.599 258.367 407.599 258.439 407.67 258.439C407.528 258.153 407.456 257.867 407.313 257.653C407.313 258.081 406.813 258.868 406.67 259.225C406.455 259.797 406.241 260.369 406.027 260.94C405.598 262.084 405.169 263.227 404.812 264.442C404.025 266.729 403.382 269.017 402.739 271.375C401.524 276.092 400.595 280.881 399.952 285.669C399.809 286.741 401.238 287.027 401.881 286.455C404.526 284.24 407.17 282.024 409.815 279.809C411.244 278.665 412.602 277.45 414.031 276.307C415.246 275.306 416.89 274.52 418.177 275.235C419.749 276.021 420.607 278.093 421.321 279.737C422.179 281.667 422.894 283.668 424.109 285.383C425.395 287.099 427.254 288.099 429.398 287.67C431.613 287.242 433.114 285.383 434.687 283.883C436.402 282.31 438.189 280.666 439.904 279.094C447.837 271.804 455.77 264.514 463.704 257.224C464.776 256.223 463.203 254.579 462.06 255.58C454.984 262.084 447.98 268.516 440.905 275.02C439.118 276.664 437.331 278.308 435.544 279.952C434.687 280.738 433.9 281.452 433.043 282.239C432.114 283.096 431.256 284.097 430.255 284.74C428.397 286.027 426.825 285.312 425.753 283.74C424.538 281.953 423.894 279.88 422.965 277.95C422.108 276.164 421.107 274.162 419.249 273.233C415.389 271.232 412.102 274.806 409.386 277.093C406.313 279.666 403.239 282.239 400.166 284.812C400.809 285.098 401.452 285.383 402.096 285.598C402.739 280.595 403.811 275.663 405.098 270.803C405.741 268.445 406.455 266.086 407.313 263.728C407.742 262.584 408.171 261.441 408.6 260.226C408.957 259.368 409.886 257.939 409.386 257.009C408.743 255.937 407.742 256.366 406.884 256.866C406.098 257.367 405.312 257.867 404.597 258.367C402.882 259.511 401.31 260.726 399.666 262.084C396.307 264.8 393.162 267.873 390.232 271.089C387.087 274.591 384.228 278.379 382.012 282.525C381.441 283.883 383.37 285.026 384.085 283.74Z" fill="#F7E90A"/>
<path d="M419.035 303.109C412.531 303.109 406.027 301.822 399.809 299.249C387.373 294.103 377.653 284.455 372.507 272.019C370.363 266.873 369.219 262.227 368.791 256.652L369.434 256.581C369.863 262.084 370.935 266.587 373.079 271.733C378.153 284.026 387.73 293.532 400.023 298.606C412.316 303.68 425.824 303.68 438.117 298.534C450.41 293.46 459.916 283.883 464.991 271.59C470.065 259.297 470.065 245.789 464.919 233.496L465.562 233.21C470.708 245.646 470.78 259.368 465.634 271.804C460.488 284.24 450.839 293.96 438.403 299.106C432.114 301.822 425.539 303.109 419.035 303.109Z" fill="#050505"/>
<path d="M643.167 429.826C641.166 431.327 650.743 463.275 650.743 463.275L705.704 462.131L696.699 426.253L643.167 429.826Z" fill="white"/>
<path d="M650.529 463.632L650.457 463.418C648.814 458.057 640.952 431.184 642.953 429.612L643.024 429.54H643.096L696.914 425.967L706.062 462.488L650.529 463.632ZM643.31 430.112C642.381 431.47 646.455 447.694 650.958 462.989L705.276 461.845L696.413 426.61L643.31 430.112Z" fill="#050505"/>
<path d="M523.382 442.334L527.17 402.167L575.341 418.248L574.555 463.06L523.382 442.334Z" fill="white"/>
<path d="M574.841 463.561L523.024 442.548L526.884 401.667L575.699 417.962V418.177L574.841 463.561ZM523.739 442.12L574.198 462.56L574.984 418.463L527.456 402.596L523.739 442.12Z" fill="#050505"/>
<path d="M579.701 447.194L577.843 478.356H465.848C465.848 478.356 462.774 465.205 481.214 457.558C493.078 452.626 502.512 454.413 502.512 454.413L520.88 437.546L579.701 447.194Z" fill="#FC6C01"/>
<path d="M466.062 472.495C465.276 475.854 465.848 478.356 465.848 478.356H577.914L578.271 472.495H466.062Z" fill="#396AE3"/>
<path d="M492.006 452.555C487.718 452.555 484.001 452.126 482.572 450.911C482.071 450.482 481.857 450.053 481.857 449.482C481.857 447.766 483 446.337 485.073 445.479C491.005 443.049 504.728 445.05 510.231 450.482L510.803 450.982L510.016 451.125C509.445 451.197 499.796 452.555 492.006 452.555ZM491.72 445.193C489.218 445.193 487.003 445.551 485.43 446.194C483.644 446.98 482.715 448.052 482.715 449.482C482.715 449.839 482.858 450.125 483.143 450.339C486.503 453.269 505.085 450.982 509.159 450.482C505.156 447.051 497.723 445.193 491.72 445.193Z" fill="#050505"/>
<path d="M510.874 450.839L510.303 450.553C509.373 450.124 486.86 439.833 486.431 432.471C486.36 430.97 487.146 429.684 488.861 428.612C490.934 427.325 493.221 427.325 495.794 428.54C503.513 432.328 510.517 446.622 510.874 450.196V450.839ZM489.219 429.255C487.789 430.113 487.074 431.185 487.146 432.4C487.503 438.689 506.157 447.766 509.945 449.553C508.873 445.264 502.441 432.614 495.365 429.183C493.149 428.111 491.077 428.111 489.219 429.255Z" fill="#050505"/>
<path d="M526.67 272.233L590.851 174.032L677.545 171.959L691.982 319.761L716.425 448.552L635.949 450.267L620.154 326.051L617.223 228.778L581.059 314.115L588.849 444.764L511.661 431.613L515.02 309.326C515.377 296.176 519.38 283.311 526.67 272.233Z" fill="#FFAC03"/>
<path d="M589.278 445.336L511.16 432.042V431.685L514.591 308.04C514.948 295.604 518.736 283.525 525.526 273.091L590.422 173.817L591.136 174.318L526.241 273.591C519.522 283.883 515.806 295.818 515.449 308.111L512.09 431.327L588.349 444.335L580.559 314.186L581.416 314.115L589.278 445.336Z" fill="#050505"/>
<path d="M698.057 422.393L676.759 310.898V310.827C676.759 310.327 676.759 261.583 674.543 242.787C672.327 223.99 667.324 195.115 667.253 194.829L668.039 194.687C668.111 194.972 673.114 223.847 675.329 242.715C677.473 261.298 677.545 309.183 677.545 310.827L698.843 422.322L698.057 422.393Z" fill="#050505"/>
<path d="M683.263 460.917L682.262 460.416C672.042 455.556 660.535 445.479 660.463 438.689C660.463 436.616 661.464 435.044 663.465 433.972C664.752 433.329 666.181 433.257 667.61 433.829C675.472 437.045 682.691 458.915 682.977 459.845L683.263 460.917ZM665.538 434.401C664.966 434.401 664.394 434.544 663.823 434.83C662.107 435.687 661.321 436.974 661.321 438.689C661.393 444.693 671.827 454.127 681.547 459.058C679.975 454.484 673.614 437.474 667.11 434.758C666.61 434.544 666.11 434.401 665.538 434.401Z" fill="#050505"/>
<path d="M679.832 461.488L679.975 460.559C680.118 459.773 683.334 441.762 689.195 438.26C690.267 437.617 691.339 437.474 692.411 437.831C694.055 438.403 695.055 439.475 695.27 441.047C695.984 446.193 688.123 455.77 680.618 460.916L679.832 461.488ZM691.267 438.403C690.696 438.403 690.195 438.546 689.624 438.903C684.835 441.762 681.69 455.985 680.976 459.773C688.051 454.627 695.198 445.836 694.555 441.19C694.341 439.904 693.626 439.046 692.197 438.617C691.839 438.474 691.553 438.403 691.267 438.403Z" fill="#050505"/>
<path d="M645.597 479.57V473.209C645.597 468.421 648.17 464.061 652.173 462.06L655.675 460.344C670.183 453.054 686.765 452.34 701.774 458.343L709.135 461.273C713.566 463.06 716.497 467.634 716.497 472.78V479.57H645.597Z" fill="#FC6C01"/>
<path d="M716.425 473.567H645.597V479.571H716.425V473.567Z" fill="#396AE3"/>
<path d="M673.757 85.1934C663.465 78.8325 642.596 79.6901 623.299 79.0469C612.578 78.6895 598.641 72.6859 588.921 78.761C571.768 89.4102 535.246 149.875 535.246 149.875L470.351 129.72L458.844 150.875C564.335 201.191 560.618 191.542 568.409 183.395L587.063 137.725L582.56 187.397L679.689 188.469L673.757 85.1934Z" fill="#73A8FF"/>
<path d="M676.279 123.205L675.637 123.249L680.224 190.206L680.866 190.162L676.279 123.205Z" fill="#050505"/>
<path d="M629.29 249.1L643.258 224.482L450.296 115.001L436.329 139.619L629.29 249.1Z" fill="#050505"/>
<path d="M448.981 42.3819C463.632 58.034 471.28 78.4748 470.565 99.9161C469.85 121.357 460.845 141.226 445.121 155.878C412.816 186.11 361.858 184.395 331.625 152.09C301.393 119.785 303.108 68.8262 335.413 38.5939C345.062 29.5886 356.354 23.3706 368.29 20.0114C396.378 12.0782 427.754 19.6541 448.981 42.3819ZM430.112 139.725C441.476 129.076 447.98 114.711 448.552 99.1299C449.052 83.6207 443.549 68.7547 432.9 57.3908C422.251 46.0269 407.885 39.523 392.304 38.9513C376.795 38.451 361.929 44.0257 350.565 54.6034C327.123 76.545 325.908 113.424 347.778 136.867C363.144 153.305 385.943 158.808 406.241 153.09C414.889 150.732 423.108 146.301 430.112 139.725Z" fill="#2667FF"/>
<path d="M392.018 50.8872L392.59 57.1766C404.383 56.1046 415.747 60.4643 423.751 69.1123C430.684 76.5453 434.329 86.1939 433.972 96.4142C433.614 106.563 429.326 115.997 421.893 122.93L426.181 127.504C434.829 119.428 439.832 108.421 440.19 96.6286C440.619 84.7644 436.33 73.472 428.254 64.824C418.963 54.7466 405.669 49.6722 392.018 50.8872Z" fill="white"/>
<path d="M426.182 128.29L421.107 122.93L421.536 122.573C428.826 115.712 433.043 106.42 433.4 96.4143C433.758 86.4084 430.184 76.8313 423.323 69.5412C415.39 61.0362 404.169 56.7479 392.59 57.82L392.019 57.8915L391.375 50.5299L391.947 50.4585C405.812 49.2435 419.249 54.3894 428.755 64.5383C436.974 73.3292 441.262 84.6931 440.833 96.7002C440.404 108.707 435.401 119.785 426.61 128.005L426.182 128.29ZM422.68 122.93L426.253 126.718C434.544 118.785 439.332 108.064 439.69 96.5573C440.047 84.836 435.902 73.6865 427.897 65.1815C418.82 55.39 405.955 50.387 392.59 51.3876L393.019 56.5335C404.74 55.6758 416.033 60.0356 424.109 68.6836C431.185 76.188 434.83 86.051 434.472 96.3429C434.186 106.492 429.97 115.926 422.68 122.93Z" fill="#050505"/>
<path d="M390.375 178.249C376.652 178.249 362.93 174.747 350.422 167.671C331.625 157.022 318.046 139.654 312.328 118.785C306.539 97.9153 309.255 76.0452 319.976 57.2483C320.19 56.8909 320.619 56.8195 320.976 56.9624C321.334 57.1768 321.405 57.6056 321.262 57.963C310.684 76.474 308.04 97.9153 313.686 118.427C319.332 138.94 332.626 155.95 351.137 166.456C377.152 181.251 408.886 180.178 434.043 163.812C444.693 156.879 453.34 147.659 459.63 136.51C470.136 118.07 472.781 96.5574 467.063 76.0452C461.417 55.533 448.123 38.4514 429.684 28.0166C429.326 27.8022 429.255 27.3734 429.398 27.016C429.612 26.6587 430.041 26.5872 430.398 26.7302C449.195 37.3793 462.703 54.7468 468.492 75.6163C474.282 96.4859 471.566 118.356 460.916 137.153C454.484 148.517 445.765 157.808 434.901 164.884C421.25 173.818 405.812 178.249 390.375 178.249ZM390.303 156.164C380.226 156.164 370.291 153.591 361.286 148.445C347.563 140.655 337.772 128.076 333.555 112.853C329.338 97.7009 331.339 81.7629 339.13 68.1119C343.775 59.9642 350.279 53.0315 358.07 47.8856C358.427 47.6712 358.856 47.7426 359.07 48.1C359.285 48.4573 359.213 48.8862 358.856 49.1006C351.28 54.0321 344.848 60.8933 340.345 68.8266C332.769 82.1917 330.839 97.7009 334.913 112.495C338.987 127.29 348.635 139.654 362.001 147.23C375.366 154.806 390.875 156.736 405.669 152.662C420.464 148.588 432.828 138.94 440.404 125.575C440.619 125.217 441.047 125.146 441.405 125.289C441.762 125.503 441.834 125.932 441.691 126.289C433.9 140.012 421.322 149.803 406.098 154.02C400.881 155.449 395.52 156.164 390.303 156.164Z" fill="#050505"/>
<path d="M453.698 149.16C453.698 149.16 463.346 154.806 468.921 154.877C473.853 154.949 483.43 149.374 485.359 148.302C488.433 146.587 493.007 147.016 490.791 150.804C490.791 150.804 496.58 148.874 498.51 150.446C500.511 152.019 497.009 155.163 497.009 155.163C497.009 155.163 502.87 152.376 504.728 154.234C507.444 156.95 503.156 159.595 503.156 159.595C503.156 159.595 507.801 157.736 509.66 159.952C510.875 161.453 509.016 163.525 504.8 166.241C500.654 168.957 492.435 172.388 486.217 172.173C475.782 171.673 458.057 164.455 453.698 149.16Z" fill="white"/>
<path d="M486.86 172.388C486.646 172.388 486.431 172.388 486.217 172.388C475.211 171.959 457.772 164.526 453.412 149.231C453.412 149.088 453.412 149.017 453.483 148.945C453.555 148.874 453.698 148.874 453.769 148.945C453.841 149.017 463.418 154.52 468.85 154.591C468.85 154.591 468.85 154.591 468.921 154.591C471.994 154.591 477.283 152.447 484.716 148.23L485.145 148.016C487.361 146.801 490.005 146.658 491.077 147.73C491.506 148.159 491.863 148.945 491.292 150.232C492.864 149.803 496.938 148.731 498.653 150.089C499.082 150.446 499.368 150.875 499.368 151.447C499.368 152.447 498.724 153.519 498.081 154.234C499.94 153.519 503.442 152.447 504.871 153.877C505.586 154.591 505.943 155.449 505.8 156.307C505.657 157.307 505.014 158.165 504.371 158.808C505.943 158.379 508.445 158.093 509.731 159.666C510.088 160.095 510.231 160.595 510.16 161.095C509.945 162.453 508.23 164.168 504.871 166.384C501.297 168.743 493.364 172.388 486.86 172.388ZM454.127 149.731C458.701 164.311 475.568 171.458 486.217 171.816C492.649 172.03 500.94 168.314 504.585 165.955C507.801 163.882 509.445 162.239 509.66 161.024C509.731 160.666 509.588 160.309 509.374 160.023C507.73 158.022 503.227 159.737 503.227 159.809C503.084 159.88 502.941 159.809 502.87 159.666C502.798 159.523 502.87 159.38 502.941 159.308C502.941 159.308 505.085 157.95 505.3 156.307C505.371 155.592 505.085 154.949 504.514 154.377C503.084 152.947 498.653 154.591 497.081 155.377C496.938 155.449 496.795 155.377 496.723 155.306C496.652 155.163 496.652 155.02 496.795 154.949C496.795 154.949 498.867 153.019 498.867 151.589C498.867 151.232 498.724 150.875 498.367 150.66C496.509 149.231 490.934 151.089 490.863 151.089C490.72 151.161 490.648 151.089 490.577 151.018C490.505 150.946 490.505 150.803 490.577 150.732C491.006 149.946 491.434 148.945 490.791 148.302C489.934 147.373 487.432 147.587 485.502 148.659L485.074 148.874C477.569 153.162 472.137 155.306 468.993 155.306H468.921C464.061 155.02 456.342 150.946 454.127 149.731Z" fill="#050505"/>
<path d="M478.284 156.736L478.212 156.092C478.284 156.092 487.075 154.592 490.577 150.446L491.077 150.875C487.432 155.235 478.641 156.736 478.284 156.736Z" fill="#050505"/>
<path d="M485.86 161.453L485.503 161.167C485.431 160.809 485.431 160.809 487.575 159.809C490.077 158.665 494.151 156.664 496.866 154.734L497.224 155.235C494.508 157.236 490.363 159.237 487.861 160.381C487.003 160.809 486.217 161.167 486.074 161.238L485.86 161.024V161.453Z" fill="#050505"/>
<path d="M493.65 165.026L493.507 164.383C496.938 163.454 502.87 159.309 502.942 159.237L503.299 159.738C503.084 159.952 497.152 164.026 493.65 165.026Z" fill="#050505"/>
<path d="M635.378 200.333L628.874 204.05C628.874 204.05 624.514 200.476 618.439 201.905C612.364 203.406 602.644 204.192 601.214 205.05C599.714 205.908 599.999 208.767 603.001 209.839C606.003 210.911 614.437 210.267 615.652 210.41C616.867 210.553 619.654 212.269 619.654 212.269C619.654 212.269 612.078 216.271 607.432 216.914C602.858 217.558 591.995 215.27 588.993 213.77C586.348 212.555 585.062 215.413 585.991 217.415C587.635 220.988 592.423 222.346 592.423 222.346C592.423 222.346 588.35 220.559 587.492 223.347C586.634 226.063 589.708 228.421 591.566 229.136C591.566 229.136 589.35 229.35 589.779 231.494C590.208 233.639 593.567 235.997 595.711 235.783C595.711 235.783 594.711 237.212 597.712 238.284C600.714 239.356 611.363 239.428 616.009 239.213C620.655 238.999 644.311 228.493 644.311 228.493L651.03 222.775L635.378 200.333Z" fill="white"/>
<path d="M611.077 239.642C606.003 239.642 599.785 239.356 597.641 238.641C596.354 238.212 595.568 237.641 595.354 236.926C595.282 236.64 595.282 236.426 595.282 236.211C592.924 236.14 589.85 233.781 589.421 231.637C589.279 230.922 589.35 230.279 589.707 229.85C589.993 229.493 590.279 229.278 590.636 229.135C588.778 228.206 586.277 225.991 587.134 223.346C587.349 222.632 587.778 222.131 588.349 221.917C588.778 221.702 589.207 221.631 589.636 221.631C588.206 220.845 586.491 219.558 585.634 217.629C585.062 216.414 585.276 214.841 586.205 213.912C586.92 213.197 587.992 213.054 589.064 213.626C591.923 214.984 602.644 217.414 607.361 216.7C611.22 216.128 617.367 213.126 619.01 212.268C618.01 211.697 616.295 210.767 615.508 210.696C615.223 210.696 614.436 210.696 613.364 210.696C610.22 210.767 605.074 210.91 602.787 210.124C600.857 209.481 600.071 208.052 599.928 206.979C599.856 206.05 600.214 205.264 600.928 204.835C601.714 204.335 604.573 203.906 608.218 203.406C611.506 202.906 615.294 202.405 618.224 201.691C623.728 200.333 627.873 203.12 628.731 203.763L635.091 200.118C635.234 200.047 635.377 200.047 635.449 200.19L651.172 222.632C651.244 222.775 651.244 222.917 651.101 222.989L644.383 228.707C644.383 228.707 644.311 228.707 644.311 228.778C643.311 229.207 620.583 239.284 615.937 239.499C614.722 239.642 613.007 239.642 611.077 239.642ZM595.711 235.639C595.782 235.639 595.925 235.711 595.925 235.782C595.997 235.854 595.997 235.997 595.925 236.068C595.925 236.068 595.711 236.354 595.854 236.711C595.997 237.069 596.426 237.641 597.784 238.069C600.714 239.07 611.149 239.213 615.937 238.998C620.368 238.784 643.025 228.778 644.097 228.349L650.601 222.775L635.163 200.69L628.873 204.264C628.802 204.335 628.659 204.335 628.588 204.264C628.516 204.264 624.299 200.761 618.439 202.191C615.508 202.906 611.72 203.477 608.361 203.978C605.074 204.478 602 204.907 601.286 205.336C600.785 205.621 600.499 206.265 600.571 206.979C600.642 207.909 601.357 209.052 603.001 209.624C605.145 210.41 610.291 210.267 613.364 210.196C614.436 210.196 615.222 210.124 615.58 210.196C616.795 210.339 619.582 212.054 619.725 212.125C619.797 212.197 619.868 212.268 619.868 212.34C619.868 212.411 619.797 212.554 619.725 212.554C619.439 212.697 612.006 216.557 607.432 217.271C602.644 217.986 591.78 215.556 588.85 214.127C587.992 213.698 587.206 213.769 586.634 214.341C585.919 215.056 585.705 216.414 586.205 217.414C587.349 219.987 590.208 221.345 591.637 221.917C592.137 222.06 592.495 222.203 592.495 222.203C592.638 222.274 592.709 222.417 592.638 222.56C592.566 222.703 592.423 222.775 592.28 222.703C592.209 222.703 591.923 222.56 591.423 222.417C590.636 222.203 589.493 221.988 588.635 222.417C588.135 222.632 587.849 222.989 587.706 223.561C586.92 226.205 590.065 228.421 591.566 228.993C591.709 229.064 591.78 229.135 591.709 229.278C591.709 229.421 591.566 229.493 591.494 229.493C591.494 229.493 590.636 229.564 590.208 230.208C589.922 230.565 589.85 230.994 589.993 231.565C590.422 233.495 593.638 235.854 595.711 235.639Z" fill="#050505"/>
<path d="M601.572 223.346C598.498 223.346 594.496 223.203 591.994 222.56C591.851 222.489 591.78 222.346 591.78 222.203C591.852 222.06 591.994 221.988 592.137 221.988C596.569 223.132 606.003 222.632 606.074 222.632C606.217 222.632 606.36 222.774 606.36 222.917C606.36 223.06 606.217 223.203 606.074 223.203C606.003 223.275 604.073 223.346 601.572 223.346Z" fill="#050505"/>
<path d="M596.64 236.283C595.782 236.283 595.139 236.211 594.925 236.14C594.782 236.068 594.782 235.926 594.853 235.783C594.925 235.64 595.068 235.64 595.211 235.711C595.997 236.14 606.575 235.211 613.007 234.496C613.15 234.496 613.293 234.568 613.293 234.71C613.293 234.853 613.221 234.996 613.078 234.996C610.791 235.282 600.785 236.283 596.64 236.283Z" fill="#050505"/>
<path d="M596.64 229.851C594.71 229.851 592.924 229.779 591.494 229.422C591.351 229.422 591.28 229.207 591.28 229.064C591.28 228.921 591.423 228.85 591.637 228.85C596.068 229.779 605.574 228.707 605.717 228.707C605.86 228.707 606.003 228.778 606.003 228.921C606.003 229.064 605.931 229.207 605.788 229.207C605.431 229.35 600.928 229.851 596.64 229.851Z" fill="#050505"/>
<path d="M660.321 110.279L697.343 152.161L633.876 201.19L649.886 224.99L731.863 170.601C741.512 163.74 743.227 150.089 735.508 141.012C721.143 124.073 700.059 99.4872 693.34 92.6974C683.477 82.8344 660.321 81.1191 660.321 81.1191V110.279Z" fill="#73A8FF"/>
<path d="M732.078 170.887L731.72 170.386C736.223 167.17 739.225 162.167 739.939 156.664C740.654 151.16 738.939 145.586 735.365 141.297C719.785 122.929 699.773 99.6299 693.197 92.9831C683.549 83.3345 660.607 81.4762 660.392 81.4762L660.464 80.833C660.678 80.833 683.906 82.6913 693.698 92.4828C700.344 99.1296 720.285 122.429 735.937 140.797C739.653 145.157 741.369 150.946 740.654 156.664C739.796 162.381 736.723 167.527 732.078 170.887Z" fill="#050505"/>
<path d="M685.615 160.738L633.621 200.869L634.014 201.378L686.008 161.247L685.615 160.738Z" fill="#050505"/>
<path d="M530.672 164.526C531.601 164.954 532.673 165.455 533.745 165.383C534.603 165.312 535.532 164.954 535.961 164.168C536.175 163.811 536.247 163.382 536.318 162.882C536.39 162.524 536.318 161.953 536.604 161.667C537.248 160.952 538.391 162.167 538.748 162.596C539.177 163.025 539.82 162.382 539.392 161.953C538.82 161.309 537.962 160.595 537.033 160.595C536.033 160.595 535.532 161.452 535.461 162.31C535.389 162.739 535.461 163.239 535.246 163.597C535.032 163.954 534.675 164.24 534.246 164.383C533.174 164.74 532.03 164.24 531.101 163.739C530.601 163.454 530.1 164.311 530.672 164.526Z" fill="#050505"/>
<path d="M556.33 163.096C556.402 164.168 557.259 165.097 558.403 165.169C559.547 165.24 560.547 164.311 560.69 163.239C560.762 162.739 560.547 161.953 561.047 161.667C561.476 161.452 562.048 161.524 562.477 161.595C563.406 161.667 564.549 161.452 564.835 160.452C564.978 159.88 564.121 159.594 563.906 160.237C563.692 160.952 562.477 160.666 561.977 160.666C561.119 160.666 560.19 160.809 559.904 161.667C559.689 162.167 559.832 162.667 559.761 163.168C559.689 163.596 559.404 163.882 559.046 164.097C558.26 164.525 557.331 163.882 557.259 163.096C557.188 162.524 556.259 162.453 556.33 163.096Z" fill="#050505"/>
<path d="M548.969 143.299C549.612 144.442 551.327 144.871 552.399 144.013C553.543 143.156 553.543 141.369 552.542 140.44C552.471 140.726 552.399 140.94 552.328 141.226C553.4 141.012 554.544 141.226 555.401 141.941C555.616 142.084 555.83 142.155 556.044 141.941C556.187 141.798 556.259 141.44 556.044 141.298C554.901 140.44 553.472 140.083 552.042 140.368C551.685 140.44 551.613 140.94 551.828 141.155C552.399 141.726 552.471 142.798 551.828 143.299C551.184 143.799 550.112 143.513 549.755 142.87C549.469 142.298 548.683 142.727 548.969 143.299Z" fill="#050505"/>
<path d="M593.996 114.139C594.639 114.425 595.282 114.282 595.782 113.853C596.354 113.353 596.426 112.638 596.068 111.995C595.925 111.709 595.711 111.494 595.568 111.137C595.497 110.923 595.497 110.708 595.568 110.422C595.711 109.994 596.14 109.636 596.569 109.636C597.14 109.636 597.14 108.707 596.569 108.707C595.282 108.707 594.282 110.065 594.639 111.28C594.71 111.637 594.925 111.852 595.068 112.209C595.139 112.352 595.211 112.424 595.282 112.566C595.282 112.709 595.282 112.709 595.282 112.852C595.211 112.995 595.068 113.21 594.925 113.281C594.782 113.353 594.567 113.424 594.424 113.353C594.21 113.21 593.924 113.281 593.781 113.496C593.71 113.71 593.781 114.067 593.996 114.139Z" fill="#050505"/>
<path d="M564.549 116.783C565.121 117.212 565.836 117.355 566.551 117.14C567.194 116.926 567.766 116.426 567.98 115.782C568.266 115.139 568.194 114.425 567.837 113.781C567.48 113.21 566.837 112.781 566.551 112.137C566.408 111.923 566.336 111.566 566.551 111.423C566.622 111.351 566.694 111.351 566.765 111.351C566.837 111.351 566.837 111.351 566.908 111.351C567.265 111.852 568.052 111.351 567.694 110.851C567.337 110.279 566.622 110.208 566.05 110.565C565.407 110.994 565.336 111.78 565.693 112.495C565.979 113.21 566.622 113.567 567.051 114.21C567.337 114.71 567.265 115.354 566.908 115.782C566.408 116.283 565.622 116.283 565.121 115.854C564.907 115.711 564.621 115.854 564.478 115.997C564.264 116.426 564.407 116.64 564.549 116.783Z" fill="#050505"/>
<path d="M587.349 85.5502C587.635 86.9081 589.493 87.3369 590.565 86.6222C591.351 86.0504 591.351 84.9784 591.208 84.0493C591.137 83.6204 591.137 83.2631 591.28 82.8343C591.423 82.4054 591.708 82.334 592.137 82.334C592.709 82.334 593.209 82.4769 593.71 82.191C594.138 81.9051 594.424 81.4763 594.281 80.976C594.138 80.4042 593.209 80.6187 593.352 81.1904C593.352 81.2619 593.209 81.3334 593.138 81.4048C592.923 81.4763 592.709 81.4763 592.423 81.4048C591.851 81.3334 591.351 81.3334 590.851 81.6907C590.065 82.334 590.136 83.406 590.208 84.2637C590.279 84.6925 590.35 85.2643 590.065 85.6216C589.922 85.836 589.636 85.9075 589.421 85.9075C588.921 85.979 588.278 85.6931 588.206 85.1928C588.135 84.6925 587.206 84.9784 587.349 85.5502Z" fill="#050505"/>
<path d="M593.424 146.229C594.139 146.587 595.497 146.944 596.14 146.229C596.354 146.015 596.426 145.729 596.426 145.443C596.426 145.086 596.283 144.8 596.14 144.514C595.997 144.085 596.068 143.656 596.211 143.228C596.426 142.727 596.783 142.441 597.283 142.299C597.855 142.156 597.641 141.226 597.069 141.369C595.997 141.655 595.282 142.656 595.139 143.656C595.139 143.942 595.139 144.157 595.139 144.443C595.211 144.729 595.354 144.943 595.425 145.229C595.425 145.372 595.497 145.372 595.425 145.515V145.586C595.425 145.515 595.425 145.586 595.425 145.586C595.354 145.658 595.497 145.515 595.425 145.658C595.354 145.729 595.425 145.658 595.425 145.658C595.425 145.658 595.497 145.658 595.425 145.658C595.354 145.729 595.425 145.658 595.425 145.658C595.354 145.658 595.354 145.658 595.282 145.729C595.282 145.729 595.139 145.729 595.211 145.729C594.925 145.729 594.782 145.729 594.567 145.658C594.282 145.586 594.139 145.515 593.924 145.443C593.352 145.157 592.852 145.944 593.424 146.229Z" fill="#050505"/>
<path d="M571.839 135.437C571.839 136.223 572.483 137.009 573.269 137.009C574.126 137.009 574.77 136.294 574.77 135.508C574.77 135.079 574.555 134.722 574.555 134.293C574.484 134.007 574.627 133.864 574.841 133.721C575.413 133.435 576.056 134.007 576.485 134.436C576.914 134.865 577.557 134.222 577.128 133.793C576.628 133.221 575.913 132.721 575.127 132.721C574.412 132.792 573.698 133.221 573.626 134.007C573.555 134.365 573.698 134.722 573.769 135.151C573.841 135.437 573.912 135.651 573.698 135.937C573.34 136.366 572.697 136.08 572.697 135.508C572.768 134.793 571.839 134.793 571.839 135.437Z" fill="#050505"/>
<path d="M658.82 125.074C658.748 126.003 658.605 126.861 658.534 127.79C658.534 128.076 658.534 128.29 658.82 128.433C658.963 128.504 659.106 128.576 659.249 128.647C659.535 128.719 659.82 128.719 660.035 128.647C660.535 128.576 661.035 128.29 661.464 128.147C661.679 128.076 661.893 128.004 662.179 127.933C662.107 127.933 662.25 127.933 662.25 127.933H662.393C662.465 127.933 662.536 127.933 662.608 128.004C662.822 128.147 662.894 128.361 662.894 128.647C662.894 129.005 662.822 129.291 662.751 129.648C662.608 130.291 663.537 130.506 663.68 129.934C663.894 129.219 663.966 128.433 663.68 127.79C663.394 127.218 662.679 126.932 662.107 127.003C661.536 127.075 661.035 127.361 660.535 127.504C660.392 127.575 660.249 127.575 660.178 127.647C660.106 127.647 660.035 127.647 659.963 127.718H659.892C659.963 127.718 659.963 127.718 659.892 127.718C659.82 127.718 659.749 127.718 659.677 127.718C659.606 127.718 659.606 127.718 659.677 127.718H659.606C659.606 127.718 659.463 127.647 659.535 127.718C659.463 127.718 659.463 127.647 659.392 127.647C659.463 127.79 659.535 127.933 659.606 128.076C659.677 127.146 659.82 126.146 659.892 125.217C659.892 124.931 659.677 124.716 659.392 124.716C659.034 124.573 658.82 124.788 658.82 125.074Z" fill="#050505"/>
<path d="M610.934 117.784C611.148 118.713 611.434 119.57 612.006 120.285C612.578 120.928 613.436 121.286 614.293 121.143C614.722 121.071 615.079 120.857 615.365 120.571C615.58 120.356 615.794 119.928 616.151 119.928C616.437 119.928 616.723 120.214 616.866 120.499C617.009 120.928 617.009 121.429 616.938 121.929C616.866 122.572 617.867 122.572 617.938 121.929C618.01 121 618.01 119.928 617.152 119.284C616.795 118.999 616.366 118.927 615.937 118.999C615.508 119.07 615.151 119.427 614.936 119.713C614.722 119.999 614.508 120.214 614.079 120.214C613.721 120.214 613.364 120.071 613.078 119.856C612.363 119.284 612.149 118.284 611.935 117.498C611.72 116.926 610.791 117.14 610.934 117.784Z" fill="#050505"/>
<path d="M638.236 115.782C638.593 116.283 639.308 116.426 639.88 116.283C640.523 116.14 640.952 115.639 641.095 114.996C641.095 114.782 641.166 114.639 641.166 114.424C641.166 114.21 641.238 114.21 641.309 114.067C641.381 113.996 641.381 113.924 641.524 113.853C641.595 113.781 641.595 113.781 641.524 113.853L641.595 113.781C641.667 113.781 641.667 113.71 641.738 113.71C642.096 113.567 642.596 113.567 642.81 113.853C643.239 114.281 643.954 113.567 643.525 113.138C642.596 112.28 641.023 112.566 640.452 113.638C640.237 113.996 640.237 114.353 640.166 114.71C640.166 114.782 640.166 114.853 640.166 114.853C640.166 114.925 640.166 114.996 640.094 114.996C640.094 114.996 640.094 115.068 640.023 115.068C640.023 115.068 639.88 115.139 639.951 115.139C639.737 115.282 639.594 115.282 639.38 115.282C639.308 115.282 639.308 115.282 639.38 115.282H639.308C639.308 115.282 639.165 115.211 639.237 115.282C639.094 115.211 639.094 115.211 639.022 115.068C638.879 114.853 638.522 114.925 638.308 115.068C638.093 115.282 638.093 115.568 638.236 115.782Z" fill="#050505"/>
<path d="M634.448 135.437C634.305 136.366 635.091 137.152 636.02 137.223C637.021 137.366 637.879 136.509 638.45 135.794C638.665 135.58 639.022 135.079 639.379 135.151C639.594 135.222 639.737 135.58 639.88 135.723C640.237 136.294 640.595 136.938 641.381 136.938C642.024 136.866 642.024 135.937 641.381 135.937C641.309 135.937 641.309 135.937 641.238 135.937H641.166C641.095 135.866 641.023 135.794 640.952 135.723C640.809 135.508 640.666 135.222 640.523 135.008C640.094 134.436 639.522 134.007 638.736 134.293C637.879 134.579 637.521 135.508 636.807 136.008C636.521 136.223 636.163 136.366 635.806 136.223C635.592 136.151 635.306 135.937 635.306 135.723C635.377 135.437 635.234 135.222 634.948 135.151C634.805 135.008 634.519 135.151 634.448 135.437Z" fill="#050505"/>
<path d="M613.721 147.372C613.579 148.301 614.365 149.088 615.294 149.159C616.294 149.302 617.152 148.444 617.724 147.73C617.938 147.515 618.296 147.015 618.653 147.086C618.867 147.158 619.01 147.515 619.153 147.658C619.511 148.23 619.868 148.873 620.654 148.873C621.297 148.802 621.297 147.873 620.654 147.873C620.583 147.873 620.583 147.873 620.511 147.873H620.44C620.368 147.801 620.297 147.73 620.225 147.658C620.082 147.444 619.939 147.158 619.796 146.943C619.368 146.372 618.796 145.943 618.01 146.229C617.152 146.515 616.795 147.444 616.08 147.944C615.794 148.158 615.437 148.301 615.079 148.158C614.865 148.087 614.579 147.873 614.579 147.658C614.651 147.372 614.508 147.158 614.222 147.086C614.079 146.943 613.721 147.086 613.721 147.372Z" fill="#050505"/>
<path d="M597.498 170.958C597.926 172.245 599.213 173.174 600.571 173.031C602 172.888 603.001 171.745 603.144 170.315C602.929 170.458 602.644 170.601 602.429 170.744C603.215 171.173 603.787 171.888 604.073 172.745C604.287 173.317 605.216 173.103 605.002 172.459C604.645 171.387 603.859 170.458 602.858 169.886C602.501 169.672 602.143 169.958 602.143 170.315C602.072 171.173 601.286 171.959 600.428 172.03C599.57 172.102 598.641 171.53 598.355 170.673C598.284 170.101 597.283 170.387 597.498 170.958Z" fill="#050505"/>
<path d="M632.018 171.387C633.448 172.96 636.449 172.531 637.307 170.53C637.021 170.53 636.807 170.601 636.521 170.601C636.95 171.101 637.021 171.887 636.878 172.459C636.735 173.031 637.664 173.317 637.807 172.745C638.093 171.745 637.879 170.744 637.236 169.886C637.021 169.672 636.592 169.743 636.449 169.958C635.806 171.387 633.734 171.745 632.733 170.601C632.304 170.172 631.589 170.887 632.018 171.387Z" fill="#050505"/>
<path d="M648.099 150.732C647.599 152.161 649.028 153.376 650.386 153.448C651.887 153.591 653.173 152.304 654.103 151.303C653.817 151.161 653.531 151.018 653.316 150.803C653.245 151.232 653.102 151.661 653.03 152.09C652.888 152.733 653.817 152.947 653.96 152.376C654.031 151.947 654.174 151.518 654.246 151.089C654.388 150.66 653.745 150.231 653.459 150.589C652.745 151.375 651.887 152.376 650.743 152.518C649.957 152.59 648.885 151.875 649.171 151.018C649.243 150.374 648.313 150.088 648.099 150.732Z" fill="#050505"/>
<path d="M664.537 168.099C665.109 169.242 666.396 170.958 667.896 170.457C668.54 170.243 668.969 169.743 669.254 169.099C669.469 168.599 669.683 167.956 670.184 167.67C669.969 167.67 669.755 167.598 669.612 167.598C670.041 168.099 670.469 168.671 670.898 169.171C671.041 169.385 671.399 169.314 671.613 169.171C671.827 168.956 671.756 168.671 671.613 168.456C671.184 167.956 670.755 167.384 670.327 166.884C670.184 166.741 669.898 166.669 669.755 166.812C669.254 167.098 668.969 167.598 668.754 168.099C668.54 168.528 668.397 169.099 667.968 169.385C666.967 170.1 665.824 168.313 665.466 167.598C665.109 167.027 664.251 167.527 664.537 168.099Z" fill="#050505"/>
<path d="M661.536 85.9791C661.321 86.7653 661.107 87.623 661.536 88.3377C661.893 88.9095 662.608 89.3383 663.251 89.0524C663.751 88.9095 664.037 88.4092 664.323 87.9803C664.395 87.8374 664.537 87.5515 664.68 87.48C664.68 87.4086 664.752 87.4086 664.752 87.3371C664.752 87.3371 664.895 87.2656 664.823 87.2656L664.966 87.1941C664.895 87.1941 665.109 87.1941 665.038 87.1941C664.895 87.1227 664.823 87.1227 664.68 87.0512C665.395 87.9089 666.11 88.838 666.825 89.6956C666.967 89.91 667.325 89.8386 667.539 89.6956C667.754 89.4812 667.682 89.1953 667.539 88.9809C666.896 88.1233 666.181 87.3371 665.538 86.4794C665.324 86.265 665.181 86.1221 664.823 86.1936C664.68 86.1936 664.537 86.265 664.466 86.3365C664.18 86.4794 664.037 86.7653 663.823 87.0512C663.68 87.2656 663.537 87.5515 663.394 87.7659C663.251 87.9089 663.18 88.0518 662.965 88.0518C662.679 88.0518 662.465 87.7659 662.393 87.48C662.25 87.0512 662.465 86.5509 662.608 86.1221C662.608 85.6218 661.679 85.4074 661.536 85.9791Z" fill="#050505"/>
<path d="M714.424 137.723C714.138 138.724 713.996 140.225 715.068 140.868C715.711 141.297 716.497 141.083 717.069 140.725C717.426 140.582 717.712 140.368 717.998 140.153C718.141 140.082 718.355 140.011 718.57 140.011C718.641 140.011 718.713 140.011 718.784 140.011C718.856 140.011 718.856 140.011 718.927 140.011C718.999 140.011 719.07 140.011 719.07 140.082H719.141C719.07 140.082 719.141 140.082 719.141 140.082C719.141 140.082 719.213 140.082 719.213 140.153C719.141 140.082 719.284 140.225 719.213 140.153C719.213 140.153 719.284 140.296 719.284 140.225C719.284 140.225 719.284 140.296 719.284 140.225V140.296C719.284 140.225 719.284 140.368 719.284 140.439C719.284 140.725 719.499 140.94 719.785 140.94C720.071 140.94 720.213 140.725 720.285 140.439C720.428 139.224 718.856 138.938 717.926 139.224C717.283 139.439 716.854 139.939 716.211 140.153C715.997 140.225 715.711 140.296 715.496 140.153C715.353 140.082 715.282 139.939 715.211 139.796C715.068 139.296 715.139 138.653 715.282 138.152C715.496 137.366 714.567 137.08 714.424 137.723Z" fill="#050505"/>
<path d="M680.904 184.823C680.618 185.824 680.475 187.325 681.548 187.968C682.191 188.397 682.977 188.182 683.549 187.825C683.906 187.682 684.192 187.468 684.478 187.253C684.621 187.182 684.835 187.11 685.05 187.11C685.121 187.11 685.193 187.11 685.264 187.11C685.336 187.11 685.336 187.11 685.407 187.11C685.478 187.11 685.55 187.11 685.55 187.182H685.621C685.55 187.182 685.621 187.182 685.621 187.182C685.621 187.182 685.693 187.182 685.693 187.253C685.621 187.182 685.764 187.325 685.693 187.253C685.693 187.253 685.764 187.396 685.764 187.325C685.764 187.325 685.764 187.396 685.764 187.325V187.396C685.764 187.325 685.764 187.467 685.764 187.539C685.764 187.825 685.979 188.039 686.265 188.039C686.551 188.039 686.693 187.825 686.765 187.539C686.908 186.324 685.336 186.038 684.406 186.324C683.763 186.538 683.334 187.039 682.691 187.253C682.477 187.325 682.191 187.396 681.976 187.253C681.833 187.182 681.762 187.039 681.69 186.896C681.548 186.395 681.619 185.752 681.762 185.252C681.976 184.466 681.047 184.18 680.904 184.823Z" fill="#050505"/>
<path d="M684.835 99.0578C684.049 99.844 683.334 100.702 682.691 101.631C682.548 101.845 682.619 102.06 682.762 102.202C683.834 103.346 685.478 102.989 686.836 103.06C687.408 103.06 688.123 103.203 688.48 103.703C688.695 103.989 688.837 104.561 688.48 104.847C687.98 105.204 688.48 106.062 688.98 105.705C689.624 105.276 689.767 104.561 689.624 103.846C689.409 103.06 688.837 102.56 688.123 102.274C687.265 101.988 686.407 102.06 685.55 102.131C684.835 102.131 683.977 102.131 683.477 101.559C683.477 101.774 683.549 101.988 683.549 102.131C684.12 101.273 684.764 100.487 685.478 99.701C685.979 99.3437 685.335 98.6289 684.835 99.0578Z" fill="#050505"/>
<path d="M698.415 120.285C699.201 121.929 701.988 121.643 702.489 119.928C702.203 119.999 701.917 120.071 701.702 120.142C702.06 120.571 702.417 121 702.774 121.429C702.917 121.643 703.275 121.572 703.489 121.429C703.704 121.214 703.632 120.928 703.489 120.714C703.132 120.285 702.774 119.856 702.417 119.427C702.203 119.142 701.702 119.285 701.631 119.642C701.631 119.713 701.559 119.856 701.488 119.928C701.559 119.856 701.488 119.999 701.417 119.999L701.345 120.071L701.274 120.142C701.345 120.071 701.274 120.142 701.202 120.142C701.131 120.214 701.059 120.214 700.988 120.214C700.916 120.285 700.988 120.214 700.988 120.214C700.988 120.214 700.916 120.214 700.916 120.285C700.845 120.285 700.773 120.357 700.702 120.357C700.702 120.357 700.559 120.357 700.63 120.357C700.559 120.357 700.559 120.357 700.487 120.357C700.416 120.357 700.344 120.357 700.273 120.357C700.201 120.357 700.201 120.357 700.13 120.357C699.987 120.357 700.201 120.357 700.13 120.357C700.059 120.357 699.987 120.357 699.916 120.285H699.844C699.773 120.285 699.916 120.357 699.844 120.285C699.773 120.285 699.701 120.214 699.63 120.214L699.558 120.142C699.63 120.214 699.487 120.071 699.487 120.071L699.415 119.999C699.344 119.928 699.415 119.999 699.415 119.999C699.344 119.928 699.344 119.856 699.272 119.785C699.129 119.57 698.844 119.499 698.629 119.642C698.343 119.713 698.343 119.999 698.415 120.285Z" fill="#050505"/>
<path d="M695.985 138.439C696.056 138.296 696.056 138.224 696.128 138.082C696.128 138.082 696.128 138.01 696.199 138.01C696.199 137.939 696.199 137.939 696.199 138.01C696.199 137.939 696.271 137.867 696.271 137.867C696.342 137.653 696.485 137.438 696.628 137.224C696.699 137.152 696.771 137.009 696.842 136.938C696.914 136.867 696.914 136.866 696.985 136.795C696.985 136.724 696.985 136.795 696.985 136.795L697.057 136.724C697.2 136.509 697.414 136.366 697.557 136.152C697.343 136.152 697.128 136.152 696.842 136.152C697.057 136.366 697.343 136.509 697.557 136.724C697.771 136.867 698.057 136.938 698.272 136.724C698.415 136.509 698.486 136.223 698.272 136.009C698.057 135.794 697.771 135.651 697.557 135.437C697.343 135.294 697.057 135.223 696.842 135.437C696.056 136.223 695.413 137.224 695.056 138.296C694.984 138.51 695.127 138.868 695.413 138.868C695.627 138.868 695.913 138.725 695.985 138.439Z" fill="#050505"/>
<path d="M709.564 174.245C709.278 175.032 709.993 175.746 710.779 175.889C711.208 175.961 711.637 175.889 711.994 175.603C712.351 175.317 712.566 174.96 712.709 174.531C712.852 174.102 712.923 173.602 712.923 173.102C712.923 172.816 712.709 172.602 712.423 172.602C712.137 172.602 711.923 172.816 711.923 173.102C711.923 173.245 711.923 173.459 711.851 173.602V173.674V173.602C711.851 173.674 711.851 173.674 711.851 173.745C711.851 173.817 711.851 173.888 711.78 174.031C711.78 174.102 711.708 174.174 711.708 174.245V174.317C711.708 174.317 711.708 174.388 711.708 174.317C711.708 174.245 711.708 174.317 711.708 174.317C711.708 174.388 711.637 174.46 711.565 174.531L711.494 174.603C711.422 174.674 711.494 174.603 711.494 174.603C711.494 174.603 711.565 174.531 711.494 174.603C711.422 174.674 711.422 174.674 711.351 174.746C711.279 174.817 711.422 174.674 711.351 174.746C711.351 174.746 711.351 174.746 711.279 174.746C711.279 174.746 711.208 174.746 711.208 174.817C711.136 174.889 711.279 174.817 711.208 174.817H711.136C711.136 174.817 710.993 174.817 711.065 174.817C711.136 174.817 711.065 174.817 710.993 174.817H710.922H710.851C710.779 174.817 710.922 174.817 710.922 174.817C710.851 174.817 710.779 174.817 710.708 174.746H710.636C710.636 174.746 710.708 174.817 710.708 174.746C710.708 174.746 710.708 174.746 710.636 174.746C710.565 174.746 710.565 174.674 710.493 174.674C710.422 174.674 710.565 174.746 710.565 174.674C710.565 174.674 710.565 174.674 710.493 174.674L710.422 174.603C710.35 174.531 710.493 174.674 710.422 174.674C710.422 174.674 710.422 174.674 710.422 174.603C710.35 174.46 710.422 174.603 710.422 174.603C710.493 174.674 710.422 174.603 710.422 174.531C710.422 174.46 710.422 174.674 710.422 174.531C710.422 174.531 710.422 174.388 710.422 174.46C710.422 174.531 710.422 174.46 710.422 174.388C710.493 174.174 710.35 173.817 710.064 173.817C709.921 173.817 709.636 173.96 709.564 174.245Z" fill="#050505"/>
<path d="M664.752 106.134C665.324 107.635 667.611 107.921 668.54 106.634C669.112 105.776 668.683 104.633 669.612 103.99C670.47 103.346 671.542 103.775 671.97 104.704C672.256 105.276 673.042 104.776 672.828 104.204C672.399 103.275 671.399 102.703 670.398 102.703C669.397 102.775 668.468 103.418 668.182 104.418C667.897 105.133 668.182 106.205 667.253 106.491C666.753 106.634 665.967 106.491 665.752 105.919C665.467 105.276 664.537 105.49 664.752 106.134Z" fill="#050505"/>
<path d="M729.147 158.379C729.219 159.594 730.434 160.309 731.577 160.166C732.149 160.095 732.721 159.88 733.221 159.523C733.793 159.023 734.079 158.308 734.293 157.593C734.508 156.807 734.508 155.949 734.508 155.092C734.508 154.449 733.507 154.449 733.507 155.092C733.507 156.235 733.507 157.593 732.792 158.522C732.721 158.594 732.649 158.665 732.578 158.808C732.506 158.88 732.506 158.88 732.363 158.951C732.292 158.951 732.292 159.023 732.221 159.023H732.149C732.078 159.023 732.221 159.023 732.149 159.023C732.078 159.094 731.935 159.094 731.863 159.094C731.792 159.094 731.72 159.094 731.72 159.094C731.792 159.094 731.649 159.094 731.649 159.094C731.506 159.094 731.434 159.094 731.291 159.094C731.291 159.094 731.148 159.094 731.22 159.094C731.148 159.094 731.148 159.094 731.077 159.094C730.934 159.094 730.863 159.023 730.791 159.023C730.863 159.023 730.72 159.023 730.72 158.951C730.648 158.951 730.648 158.88 730.577 158.88C730.505 158.808 730.577 158.88 730.577 158.88C730.648 158.951 730.505 158.808 730.505 158.808L730.434 158.737C730.362 158.665 730.505 158.808 730.434 158.737C730.434 158.737 730.434 158.665 730.362 158.665C730.362 158.665 730.291 158.522 730.291 158.594C730.291 158.665 730.291 158.522 730.219 158.451V158.379C730.219 158.237 730.219 158.451 730.219 158.308C730.219 158.022 730.005 157.808 729.719 157.808C729.362 157.879 729.076 158.094 729.147 158.379Z" fill="#050505"/>
<path d="M671.256 83.5496C683.12 85.9081 656.247 118.07 626.658 117.927C597.069 117.784 584.704 86.337 588.921 78.761C592.137 72.9719 619.653 78.1178 619.653 78.1178L619.796 62.6086L643.739 46.8135L642.667 78.761C642.596 78.761 659.177 81.1196 671.256 83.5496Z" fill="white"/>
<path d="M626.801 118.213C626.729 118.213 626.658 118.213 626.658 118.213C606.646 118.141 596.283 104.061 592.781 98.0577C588.349 90.4818 586.634 82.3341 588.707 78.6176C591.851 73.0428 616.009 77.1882 619.368 77.7599L619.511 62.4651L643.954 46.2412L642.882 78.4746C645.026 78.7605 660.178 80.9761 671.256 83.2632C673.471 83.692 674.543 85.1929 674.329 87.48C673.829 92.34 667.611 100.13 659.177 106.42C653.245 110.78 641.166 118.213 626.801 118.213ZM599.213 76.259C594.353 76.259 590.208 76.9023 589.064 78.832C587.42 81.7623 588.278 89.4097 593.138 97.7003C596.64 103.632 606.86 117.498 626.515 117.569C626.586 117.569 626.658 117.569 626.658 117.569C651.101 117.569 672.757 95.9136 673.686 87.4085C673.9 85.4073 673.042 84.1923 671.113 83.835C659.177 81.405 642.667 79.0464 642.453 79.0464L642.167 78.9749L643.168 47.3848L619.868 62.751L619.725 78.4032L619.368 78.3317C619.368 78.3317 608.075 76.259 599.213 76.259Z" fill="#050505"/>
<path d="M649.457 40.7389C648.17 40.0957 646.455 40.8104 645.169 42.2398V40.6674C645.169 32.7342 638.736 26.3018 630.803 26.3018C622.87 26.3018 616.437 32.7342 616.437 40.6674V55.8193C616.437 63.7526 622.87 70.185 630.803 70.185C638.736 70.185 645.169 63.7526 645.169 55.8193V50.6734C646.884 51.1737 649.1 49.6728 650.315 47.1713C651.601 44.4554 651.244 41.5966 649.457 40.7389Z" fill="white"/>
<path d="M630.803 70.3989C622.727 70.3989 616.223 63.8236 616.223 55.8189V40.667C616.223 32.5908 622.798 26.0869 630.803 26.0869C638.879 26.0869 645.383 32.6622 645.383 40.667V41.5961C646.741 40.3096 648.313 39.8808 649.528 40.4526C650.458 40.8814 651.101 41.882 651.244 43.1685C651.387 44.455 651.172 45.8844 650.529 47.2423C649.385 49.6723 647.17 51.2447 645.383 50.9588V55.8189C645.455 63.8236 638.879 70.3989 630.803 70.3989ZM630.803 26.5157C623.013 26.5157 616.723 32.8767 616.723 40.5955V55.7474C616.723 63.5377 623.084 69.8272 630.803 69.8272C638.593 69.8272 644.883 63.4663 644.883 55.7474V50.2441L645.24 50.3156C646.884 50.8159 648.957 49.315 650.1 46.9565C650.672 45.67 650.958 44.3835 650.815 43.1685C650.672 42.025 650.172 41.2388 649.385 40.8814C648.242 40.3096 646.67 40.8814 645.383 42.3108L644.954 42.8111V40.5241C644.883 32.8767 638.593 26.5157 630.803 26.5157Z" fill="#050505"/>
<path d="M621.941 44.6696C621.226 44.6696 620.654 44.0978 620.654 43.3831V41.096C620.654 40.3813 621.226 39.8096 621.941 39.8096C622.655 39.8096 623.227 40.3813 623.227 41.096V43.3831C623.227 44.0978 622.655 44.6696 621.941 44.6696Z" fill="#050505"/>
<path d="M632.089 44.6696C631.375 44.6696 630.803 44.0978 630.803 43.3831V41.096C630.803 40.3813 631.375 39.8096 632.089 39.8096C632.804 39.8096 633.376 40.3813 633.376 41.096V43.3831C633.447 44.0978 632.804 44.6696 632.089 44.6696Z" fill="#050505"/>
<path d="M626.658 53.3883C625.943 53.3883 624.871 53.1025 624.013 52.6022C622.87 51.9589 622.298 51.1727 622.298 50.3151C622.298 49.7433 622.512 49.3145 622.87 49.0286C624.013 48.028 626.586 48.4568 626.658 48.5283C626.801 48.5283 626.872 48.6713 626.872 48.8142C626.872 48.9571 626.729 49.0286 626.586 49.0286C626.586 49.0286 624.156 48.5998 623.156 49.4574C622.87 49.6718 622.727 49.9577 622.727 50.3866C622.727 51.2442 623.656 51.8874 624.156 52.2448C625.014 52.7451 626.014 52.9595 626.515 52.9595C626.658 52.9595 626.801 53.1025 626.801 53.2454C626.872 53.2454 626.801 53.3883 626.658 53.3883Z" fill="#050505"/>
<path d="M625.514 61.5364C623.87 61.5364 622.584 61.322 622.441 61.322C622.227 61.322 622.155 61.1075 622.155 60.9646C622.155 60.7502 622.369 60.6787 622.512 60.6787C622.584 60.6787 627.801 61.5364 630.517 59.8211C630.66 59.7496 630.874 59.7496 630.946 59.964C631.017 60.107 631.017 60.3214 630.803 60.3928C629.445 61.322 627.301 61.5364 625.514 61.5364Z" fill="#050505"/>
<path d="M638.379 24.1569C638.379 24.1569 637.736 16.438 632.161 15.223C626.586 14.008 618.439 15.8662 614.222 22.513C609.934 29.2313 603.43 32.0902 602 31.2325C602 31.2325 603.001 38.4511 609.29 38.9514C619.225 39.809 621.869 28.731 625.729 28.5881C631.232 28.3737 632.59 32.6619 632.09 33.4481C631.661 34.3058 638.379 24.1569 638.379 24.1569Z" fill="#FC6C01"/>
<path d="M652.387 32.4474C650.743 19.4397 641.238 19.8685 637.95 21.8697C636.592 22.7273 633.09 31.4468 632.161 33.448C641.166 27.4444 644.525 43.311 644.525 43.311C645.74 40.5951 648.242 40.0948 649.528 40.6666C651.315 41.5242 651.672 44.3831 650.386 47.099C649.171 49.6004 646.955 51.1013 645.24 50.601V55.747C645.24 56.3187 645.169 56.8905 645.169 57.4623C652.959 51.7446 653.888 44.3116 652.387 32.4474Z" fill="#FC6C01"/>
<path d="M651.101 38.809C650.886 38.809 650.743 38.5946 650.743 38.4516C651.673 30.0181 647.599 24.086 643.382 22.1563C641.309 21.2271 639.38 21.3701 638.307 22.5851C636.735 24.3004 635.163 27.0163 634.091 29.8036C634.019 29.9466 633.805 30.0895 633.662 30.0181C633.519 29.9466 633.376 29.7322 633.447 29.5892C634.591 26.6589 636.235 23.8716 637.807 22.1563C639.094 20.7268 641.309 20.5124 643.668 21.5845C648.099 23.5857 652.387 29.7322 651.387 38.5231C651.387 38.7375 651.244 38.809 651.101 38.809Z" fill="#050505"/>
<path d="M641.166 32.3051C641.023 32.3051 640.88 32.2336 640.809 32.0192C640.166 29.0174 637.95 26.8733 637.879 26.8018C637.736 26.6589 637.736 26.4445 637.879 26.3015C638.022 26.1586 638.236 26.1586 638.379 26.3015C638.45 26.373 640.738 28.5886 641.452 31.8048C641.524 32.0907 641.452 32.2336 641.166 32.3051C641.238 32.3051 641.238 32.3051 641.166 32.3051Z" fill="#050505"/>
<path d="M646.098 35.0921C645.955 35.0921 645.74 34.9491 645.74 34.8062C645.383 27.802 640.595 25.0861 640.595 25.0861C640.452 25.0147 640.38 24.8003 640.452 24.6573C640.523 24.5144 640.738 24.4429 640.88 24.5144C641.095 24.6573 646.026 27.4447 646.384 34.8062C646.455 34.8777 646.312 35.0921 646.098 35.0921Z" fill="#050505"/>
<path d="M778.534 480.999H1.42942C0.643239 480.999 0 480.356 0 479.57C0 478.784 0.643239 478.141 1.42942 478.141H778.534C779.32 478.141 779.963 478.784 779.963 479.57C779.963 480.356 779.32 480.999 778.534 480.999Z" fill="#050505"/>
</svg>
