<svg width="301" height="21" viewBox="0 0 301 21" fill="none" xmlns="http://www.w3.org/2000/svg">
<path d="M71.0878 17.2351L42.9134 16.9613L13.4329 16.1517L12.1267 15.6157L10.8206 15.0798L9.25749 10.9115L7.95134 10.3755L6.64519 9.8396L5.33903 9.30368L4.03288 8.76775L4.24272 8.14845L4.45256 7.52915L3.14641 6.99322L2.88946 3.36079L32.5798 3.55117L62.0603 4.36085L61.8505 4.98015L61.6406 5.59946L61.4308 6.21876L61.221 6.83806L62.3173 7.99329L63.4136 9.14851L63.2037 9.76781L62.9939 10.3871L71.0878 17.2351Z" fill="#FFBB0B"/>
<path d="M98.3497 17.2351L70.1754 16.9613L40.6949 16.1517L39.3887 15.6157L38.0826 15.0798L36.5195 10.9115L35.2133 10.3755L33.9072 9.8396L32.601 9.30368L31.2948 8.76775L31.5047 8.14845L31.7145 7.52915L30.4084 6.99322L30.1514 3.36079L59.8418 3.55117L89.3223 4.36085L89.1124 4.98015L88.9026 5.59946L88.6928 6.21876L88.4829 6.83806L89.5792 7.99329L90.6755 9.14851L90.4657 9.76781L90.2559 10.3871L98.3497 17.2351Z" fill="#FFBB0B"/>
<path d="M143.787 17.2351L115.612 16.9613L86.1319 16.1517L84.8257 15.6157L83.5196 15.0798L81.9565 10.9115L80.6503 10.3755L79.3442 9.8396L78.038 9.30368L76.7319 8.76775L76.9417 8.14845L77.1515 7.52915L75.8454 6.99322L75.5884 3.36079L105.279 3.55117L134.759 4.36085L134.549 4.98015L134.34 5.59946L134.13 6.21876L133.92 6.83806L135.016 7.99329L136.113 9.14851L135.903 9.76781L135.693 10.3871L143.787 17.2351Z" fill="#FFBB0B"/>
<path d="M189.224 17.2351L161.049 16.9613L131.569 16.1517L130.262 15.6157L128.956 15.0798L127.393 10.9115L126.087 10.3755L124.781 9.8396L123.475 9.30368L122.169 8.76775L122.378 8.14845L122.588 7.52915L121.282 6.99322L121.025 3.36079L150.716 3.55117L180.196 4.36085L179.986 4.98015L179.776 5.59946L179.567 6.21876L179.357 6.83806L180.453 7.99329L181.549 9.14851L181.339 9.76781L181.13 10.3871L189.224 17.2351Z" fill="#FFBB0B"/>
<path d="M243.748 17.2351L215.574 16.9613L186.093 16.1517L184.787 15.6157L183.481 15.0798L181.918 10.9115L180.611 10.3755L179.305 9.8396L177.999 9.30368L176.693 8.76775L176.903 8.14845L177.113 7.52915L175.807 6.99322L175.55 3.36079L205.24 3.55117L234.72 4.36085L234.511 4.98015L234.301 5.59946L234.091 6.21876L233.881 6.83806L234.977 7.99329L236.074 9.14851L235.864 9.76781L235.654 10.3871L243.748 17.2351Z" fill="#FFBB0B"/>
<path d="M298.272 17.2351L270.098 16.9613L240.617 16.1517L239.311 15.6157L238.005 15.0798L236.442 10.9115L235.136 10.3755L233.83 9.8396L232.523 9.30368L231.217 8.76775L231.427 8.14845L231.637 7.52915L230.331 6.99322L230.074 3.36079L259.764 3.55117L289.245 4.36085L289.035 4.98015L288.825 5.59946L288.615 6.21876L288.405 6.83806L289.502 7.99329L290.598 9.14851L290.388 9.76781L290.178 10.3871L298.272 17.2351Z" fill="#FFBB0B"/>
</svg>
