<svg width="39" height="39" viewBox="0 0 39 39" fill="none" xmlns="http://www.w3.org/2000/svg">
<path d="M10.5299 7.27132L8.86815 5.60953C8.43464 5.17602 7.69767 5.17602 7.20636 5.60953C6.77285 6.04304 6.77285 6.78001 7.20636 7.27132L8.86815 8.93311C9.30166 9.36662 10.0386 9.36662 10.5299 8.93311C10.9562 8.43457 10.9562 7.69761 10.5299 7.27132Z" fill="#64AF5B" stroke="#F9F9F9"/>
<path d="M4.50421 17.2204H2.17048C1.55634 17.2204 1 17.7117 1 18.3908C1 19.005 1.49131 19.5613 2.17048 19.5613H4.50421C5.11834 19.5613 5.67468 19.07 5.67468 18.3908C5.67468 17.7117 5.18337 17.2204 4.50421 17.2204Z" fill="#64AF5B" stroke="#F9F9F9"/>
<path d="M36.7647 19.4965H34.431C33.8168 19.4965 33.2605 19.9878 33.2605 20.6669C33.2605 21.2811 33.7518 21.8374 34.431 21.8374H36.7647C37.3788 21.8374 37.9352 21.3461 37.9352 20.6669C37.9352 19.9878 37.4439 19.4965 36.7647 19.4965Z" fill="#64AF5B" stroke="#F9F9F9"/>
<path d="M33.3252 7.27136C32.8917 6.83785 32.1547 6.83785 31.6634 7.27136L30.0016 8.93315C29.5681 9.36666 29.5681 10.1036 30.0016 10.5949C30.4352 11.0284 31.1721 11.0284 31.6634 10.5949L33.3252 8.93315C33.8165 8.43461 33.8165 7.69765 33.3252 7.27136Z" fill="#64AF5B" stroke="#F9F9F9"/>
<path d="M20.6671 5.66758C20.9777 5.66758 21.2812 5.54475 21.4691 5.2991C21.6569 5.11124 21.7797 4.80778 21.7797 4.4971V2.1706C21.7797 1.55646 21.2884 1.00012 20.6093 1.00012C20.1179 1.00012 19.7495 1.3108 19.5616 1.67929L19.4966 2.23563V4.56935C19.4966 5.17627 19.9879 5.66758 20.6671 5.66758Z" fill="#64AF5B" stroke="#F9F9F9"/>
<path d="M19.4967 10.2772C14.3957 10.2772 10.2773 14.3956 10.2773 19.4965C10.2773 22.8779 12.1198 25.8258 14.887 27.4225V30.9845H24.1063V27.4225C26.8735 25.8258 28.716 22.8779 28.716 19.4965C28.716 14.3956 24.5976 10.2772 19.4967 10.2772ZM22.9431 25.4573L21.7726 26.1365V27.4876V28.7158H17.1629V27.4225V26.0714L15.9924 25.3923C13.8393 24.099 12.5533 21.8881 12.5533 19.4315C12.5533 15.6238 15.624 12.4881 19.4967 12.4881C23.3043 12.4881 26.44 15.5588 26.44 19.4315C26.3822 21.9531 25.0889 24.164 22.9431 25.4573Z" fill="#64AF5B" stroke="#F9F9F9"/>
<path d="M14.8868 35.6592H17.2856L17.2206 35.9699C17.2206 37.0753 18.2682 38.0001 19.5543 38.0001C20.8404 38.0001 21.888 37.0753 21.888 35.9699L21.823 35.6592H24.2218V33.3254H15.0097V35.6592H14.8868Z" fill="#64AF5B" stroke="#F9F9F9"/>
</svg>
