<svg width="25" height="28" viewBox="0 0 25 28" fill="none" xmlns="http://www.w3.org/2000/svg">
<path d="M16.0429 9.75212H5.31452C4.97047 9.75212 4.68896 9.47062 4.68896 9.12656C4.68896 8.7825 4.97047 8.501 5.31452 8.501H16.0429C16.3869 8.501 16.6684 8.7825 16.6684 9.12656C16.6684 9.47062 16.39 9.75212 16.0429 9.75212ZM16.0429 13.5211H5.31452C4.97047 13.5211 4.68896 13.2396 4.68896 12.8956C4.68896 12.5515 4.97047 12.27 5.31452 12.27H16.0429C16.3869 12.27 16.6684 12.5515 16.6684 12.8956C16.6684 13.2396 16.39 13.5211 16.0429 13.5211Z" fill="#007AFF"/>
<path d="M16.2056 -0.000213623H0.666709C0.297629 -0.000213623 0.000488281 0.300055 0.000488281 0.666007V27.3179C0.000488281 27.687 0.300757 27.9842 0.666709 27.9842H14.3852C14.7293 27.9842 15.0108 27.7027 15.0108 27.3586C15.0108 27.0145 14.7293 26.733 14.3852 26.733H1.25161V1.2509H14.9169V6.04894C14.9169 6.40864 15.211 6.70265 15.5706 6.70265H20.1654V17.3841C20.1654 17.7281 20.4469 18.0096 20.7909 18.0096C21.135 18.0096 21.4165 17.7281 21.4165 17.3841V5.21069C21.4165 2.33625 19.08 -0.000213623 16.2056 -0.000213623ZM16.1681 5.45153V1.2509H16.2056C18.3888 1.2509 20.1654 3.02749 20.1654 5.21069V5.45153H16.1681Z" fill="#007AFF"/>
<path d="M10.6943 17.2902H5.31452C4.97047 17.2902 4.68896 17.0087 4.68896 16.6647C4.68896 16.3206 4.97047 16.0391 5.31452 16.0391H10.6943C11.0384 16.0391 11.3199 16.3206 11.3199 16.6647C11.3199 17.0087 11.0415 17.2902 10.6943 17.2902ZM24.5067 26.9332L21.9388 24.3653C22.9209 22.964 22.7864 21.0123 21.5353 19.7581C20.134 18.3568 17.8507 18.3568 16.4495 19.7581C15.0482 21.1593 15.0482 23.4426 16.4495 24.8439C17.1501 25.5445 18.0728 25.8948 18.9924 25.8948C19.7149 25.8948 20.4374 25.679 21.0536 25.2473L23.6215 27.8153C23.7435 27.9372 23.903 27.9998 24.0625 27.9998C24.222 27.9998 24.3816 27.9372 24.5035 27.8153C24.7506 27.5744 24.7506 27.1803 24.5067 26.9332ZM17.3315 23.9618C16.4182 23.0485 16.4182 21.5597 17.3315 20.6432C17.7882 20.1866 18.3887 19.9582 18.9892 19.9582C19.5898 19.9582 20.1903 20.1866 20.647 20.6432C21.5603 21.5565 21.5603 23.0454 20.647 23.9618C19.7337 24.8751 18.2448 24.8751 17.3315 23.9618Z" fill="#007AFF"/>
</svg>
