<svg width="36" height="34" viewBox="0 0 36 34" fill="none" xmlns="http://www.w3.org/2000/svg">
<path d="M17.9981 0C16.7391 0 15.6827 0.864129 15.399 2.01229H5.10406V0.732597H5.10373C5.10504 0.397962 4.82815 0.125701 4.48542 0.124424H0.617988H0.618316C0.275578 0.125703 -0.00130396 0.397953 4.61931e-06 0.732597V4.5086C0.000659914 4.84196 0.276887 5.11198 0.618316 5.11358H4.48574H4.48542C4.82685 5.11198 5.10307 4.84196 5.10373 4.5086V3.22539H12.5473C8.32274 5.2041 5.41535 9.40951 5.41535 14.2975V15.3071C4.23931 15.5842 3.35334 16.6159 3.35334 17.8447C3.35334 19.284 4.56444 20.4665 6.0386 20.4665C7.51276 20.4665 8.71892 19.284 8.71892 17.8447C8.71892 16.614 7.8342 15.5813 6.65691 15.3058V14.2975C6.65691 9.15406 10.1996 4.86503 15.0377 3.60049L15.48 3.48565C15.8493 4.50104 16.8356 5.23757 17.9982 5.23757C19.1608 5.23757 20.1484 4.50111 20.5186 3.48565L20.9574 3.60049C25.7954 4.86487 29.3431 9.15406 29.3431 14.2975V15.3058C28.1658 15.5813 27.2811 16.614 27.2811 17.8447C27.2811 19.284 28.4872 20.4665 29.9614 20.4665C31.4355 20.4665 32.6417 19.284 32.6417 17.8447C32.6417 16.614 31.757 15.5813 30.5797 15.3058V14.2975C30.5797 9.40935 27.6726 5.2041 23.4477 3.22539H30.8913V4.5086C30.8916 4.66952 30.9575 4.82373 31.0745 4.9373C31.1911 5.05055 31.3494 5.11389 31.5142 5.11358H35.3768C35.5416 5.1139 35.6998 5.05055 35.8168 4.9373C35.9338 4.82373 35.9997 4.66953 36 4.5086V0.732597C36.0007 0.571033 35.9351 0.416193 35.8181 0.301983C35.7012 0.187454 35.5422 0.123785 35.3768 0.124424H31.5142C31.3487 0.123784 31.1901 0.187448 31.0732 0.301983C30.9562 0.416193 30.8906 0.571041 30.8913 0.732597V2.01229H20.6005C20.3158 0.864375 19.2565 0 17.9976 0H17.9981ZM17.9981 1.2122C18.8012 1.2122 19.4408 1.83637 19.4408 2.6208C19.4408 3.40493 18.8015 4.02588 17.9981 4.02588C17.1949 4.02588 16.559 3.40524 16.559 2.6208C16.559 1.83668 17.1946 1.2122 17.9981 1.2122ZM1.24158 1.33761H3.86753V2.56611H3.86721C3.86459 2.59939 3.86459 2.63266 3.86721 2.66561V3.90017H1.24125L1.24158 1.33761ZM32.134 1.33761H34.7587V3.90018H32.134V2.6621H32.1337C32.1353 2.63683 32.1353 2.61155 32.1337 2.58628L32.134 1.33761ZM18.0031 8.40756H18.0028C17.9824 8.40756 17.9621 8.4082 17.9421 8.4098C17.7272 8.42964 17.5378 8.55697 17.4428 8.74604L10.107 23.0663C10.0123 23.2531 10.0227 23.4745 10.1348 23.6521L13.345 28.7926H12.499V28.7929C12.1559 28.7942 11.8793 29.0665 11.8807 29.4014V33.3915C11.8793 33.7261 12.1559 33.9984 12.499 34H23.496C23.6615 34.0003 23.8204 33.9367 23.9374 33.8224C24.0544 33.7082 24.1199 33.5531 24.1193 33.3915V29.4014C24.1199 29.2398 24.0544 29.0847 23.9374 28.9705C23.8204 28.8563 23.6615 28.7923 23.496 28.7929H22.6546L25.8648 23.6524L25.8651 23.6521C25.9756 23.4739 25.9844 23.2525 25.8884 23.0663L18.5526 8.74604C18.4494 8.54129 18.2374 8.41044 18.0034 8.40756L18.0031 8.40756ZM17.3789 11.5787V19.8727C16.368 20.143 15.6151 21.0443 15.6151 22.1134C15.6151 23.3927 16.6882 24.444 17.9985 24.444C19.3089 24.444 20.3856 23.3927 20.3856 22.1134C20.3856 21.0458 19.6316 20.1456 18.6218 19.8739V11.5856L24.624 23.3072L21.2015 28.7923H14.7956L11.3731 23.3072L17.3789 11.5787ZM6.03873 16.4398C6.84184 16.4398 7.47783 17.0605 7.47783 17.8449C7.47783 18.629 6.84215 19.2548 6.03873 19.2548C5.23562 19.2548 4.59602 18.6294 4.59602 17.8449C4.59602 17.0608 5.23563 16.4398 6.03873 16.4398ZM29.9613 16.4398C30.7645 16.4398 31.4054 17.0605 31.4054 17.8449C31.4054 18.629 30.7648 19.2548 29.9613 19.2548C29.1582 19.2548 28.5186 18.6294 28.5186 17.8449C28.5186 17.0608 29.1582 16.4398 29.9613 16.4398ZM17.9979 20.9945C18.6372 20.9945 19.1434 21.4888 19.1434 22.113C19.1434 22.7371 18.6372 23.2314 17.9979 23.2314C17.3587 23.2314 16.857 22.7371 16.857 22.113C16.857 21.4888 17.3583 20.9945 17.9979 20.9945ZM13.1219 30.0044H22.8775V32.7871L13.1219 32.7874V30.0044Z" fill="#FFB302"/>
</svg>
