<svg width="44" height="34" viewBox="0 0 44 34" fill="none" xmlns="http://www.w3.org/2000/svg">
<path d="M43.4992 8.18897H31.1179L27.515 15.9192L23.9121 8.18897H20.3092C19.1954 3.73431 16.0509 0.52407 15.8545 0.327696L15.5268 0L15.1991 0.327696C15.0681 0.524385 11.9235 3.73431 10.7444 8.18897H0.000488281L4.19314 17.229V34H39.2411L39.2415 17.1634L43.4992 8.18897ZM31.7077 9.17174H41.9274L38.4552 16.5743H28.3011L31.7077 9.17174ZM23.2568 9.17174L26.7286 16.5746H22.6014C22.2083 15.5266 21.3566 14.6748 20.5049 14.2162C20.6359 13.2991 20.7016 12.3163 20.7016 11.2683C20.7016 10.5476 20.6359 9.82722 20.5049 9.17183L23.2568 9.17174ZM21.9467 18.2774C21.9467 18.5395 21.881 18.7362 21.8157 18.9982C21.357 18.1464 20.5709 17.4914 19.9159 17.1637C20.1126 16.574 20.2436 15.9847 20.3089 15.3293C21.1606 15.8537 22.012 16.9671 21.9467 18.2775L21.9467 18.2774ZM15.4612 1.37521C16.5093 2.61999 19.6539 6.61591 19.6539 11.2677C19.6539 13.8882 19.2608 16.3774 18.4748 18.2772H17.1647L17.3614 16.3774C17.4271 15.9186 17.2957 15.4603 16.9684 15.0673C16.6407 14.7396 16.1823 14.5433 15.7236 14.5433H15.1996C14.7409 14.5433 14.2825 14.74 13.9548 15.0673C13.6271 15.395 13.4961 15.919 13.5618 16.3774L13.7585 18.2772H12.4484C11.6623 16.3774 11.2693 13.8879 11.2693 11.2677C11.2683 6.61663 14.4129 2.62035 15.4613 1.37521H15.4612ZM14.5438 16.3119C14.5438 16.1152 14.6095 15.9189 14.7405 15.7879C14.8715 15.6569 15.0682 15.5912 15.2645 15.5912H15.7886C15.9853 15.5912 16.1816 15.6569 16.3126 15.7879C16.4436 15.9189 16.5093 16.1156 16.5093 16.3119L16.0506 19.9805H15.0678L14.5438 16.3119ZM11.0719 17.098C10.4169 17.4257 9.63084 18.0807 9.1721 18.9324C9.10642 18.6704 9.10642 18.4737 9.04109 18.2117C8.97541 16.9669 9.82715 15.7878 10.6132 15.2638C10.7442 15.9189 10.8752 16.5086 11.0719 17.0979L11.0719 17.098ZM10.4822 9.1714C10.3512 9.82645 10.2855 10.5472 10.2855 11.2679C10.2855 12.2506 10.3512 13.2333 10.4822 14.2157C9.63046 14.6744 8.77911 15.5258 8.32037 16.5742L5.04476 16.5739L1.57287 9.17132L10.4822 9.1714ZM5.17577 17.5567H8.05835C8.05835 17.8187 7.99267 18.0154 8.05835 18.2774C8.12403 19.1292 8.38605 19.9805 8.77908 20.6359L9.56513 22.0117L9.69614 20.4396C9.76182 19.3916 10.6132 18.4742 11.3992 18.0158C11.5302 18.3435 11.5959 18.6055 11.7269 18.8675L11.8579 19.1295H13.9544L14.1511 20.8326L16.8369 20.8323L17.0336 19.1292H19.1301L19.2611 18.8672C19.3921 18.6051 19.5231 18.2774 19.5888 18.0154C20.3095 18.4741 21.1609 19.3912 21.2266 20.4393L21.3576 22.0113L22.1436 20.6355C22.5367 19.9805 22.7987 19.1288 22.8644 18.2771V17.5564H26.9916V32.9516L5.17555 32.952L5.17577 17.5567ZM38.3239 32.952H27.9737V17.5567H38.2591V32.952H38.3239Z" fill="#FF6461"/>
<path d="M7.40308 30.5285H8.38585V31.5113H7.40308V30.5285Z" fill="#FF6461"/>
<path d="M11.9883 30.5285H12.9711V31.5113H11.9883V30.5285Z" fill="#FF6461"/>
<path d="M9.69531 30.5285H10.6781V31.5113H9.69531V30.5285Z" fill="#FF6461"/>
<path d="M15.461 11.203C16.7058 11.203 17.7539 10.1549 17.7539 8.91013C17.7539 7.66534 16.7058 6.61729 15.461 6.61729C14.2163 6.61729 13.1682 7.66534 13.1682 8.91013C13.2335 10.2202 14.2163 11.203 15.461 11.203ZM15.461 7.66534C16.1818 7.66534 16.7711 8.25506 16.7711 8.97541C16.7711 9.69613 16.1814 10.2855 15.461 10.2855C14.7403 10.2855 14.151 9.69575 14.151 8.97541C14.2163 8.25468 14.7404 7.66534 15.461 7.66534Z" fill="#FF6461"/>
<path d="M12.5122 21.4225H13.495V24.0431H12.5122V21.4225Z" fill="#FF6461"/>
<path d="M15.0024 22.8633H15.9852V25.3528H15.0024V22.8633Z" fill="#FF6461"/>
<path d="M17.4253 21.4225H18.4081V24.0431H17.4253V21.4225Z" fill="#FF6461"/>
</svg>
