<svg width="36" height="26" viewBox="0 0 36 26" fill="none" xmlns="http://www.w3.org/2000/svg">
<path d="M15.3488 6.89021C15.3488 7.01168 15.345 7.13315 15.3373 7.25077C15.3334 7.31135 15.3296 7.37224 15.3222 7.43666C15.3184 7.46711 15.3145 7.49724 15.3107 7.52769C15.3107 7.54275 15.2918 7.67576 15.303 7.59211C15.3107 7.52384 15.2841 7.70588 15.2802 7.72864C15.2687 7.79306 15.2575 7.85395 15.2459 7.91838C15.2193 8.05492 15.1889 8.19145 15.1549 8.32446C15.0905 8.58246 15.0107 8.84046 14.9197 9.0911C14.8742 9.22026 14.8248 9.34526 14.7716 9.47057C14.7299 9.57313 14.76 9.49717 14.7677 9.47826C14.7527 9.50871 14.7411 9.54269 14.7261 9.57313C14.6918 9.65294 14.654 9.72857 14.6197 9.80838C14.3806 10.3093 14.0883 10.7837 13.7582 11.2276C13.705 11.2997 13.8114 11.1631 13.7543 11.2314C13.7354 11.258 13.7126 11.2846 13.6899 11.3112C13.6482 11.3644 13.6066 11.4138 13.5607 11.4631C13.4697 11.5695 13.3748 11.6718 13.2761 11.7744C13.0979 11.9564 12.9082 12.1311 12.7031 12.2904C12.7979 12.2144 12.6576 12.3208 12.6309 12.3436C12.5816 12.3779 12.5284 12.4157 12.479 12.45C12.3691 12.5221 12.2588 12.5865 12.1451 12.6509C12.0919 12.6814 12.0387 12.708 11.9858 12.7343C11.9669 12.7458 11.8037 12.8141 11.8682 12.7875C11.9326 12.7609 11.7694 12.8253 11.7505 12.833C11.69 12.8557 11.6252 12.8746 11.5608 12.8935C11.447 12.9278 11.3332 12.9541 11.2191 12.9769C11.1775 12.9846 11.0066 12.9996 11.1547 12.9884C11.0903 12.9923 11.022 12.9999 10.9573 13.0035C10.8474 13.0073 10.7333 13.0073 10.6233 13.0035C10.5663 12.9996 10.5057 12.9919 10.4487 12.9884C10.6006 12.9961 10.3842 12.9769 10.3387 12.9695C10.2249 12.9467 10.1112 12.9163 9.99707 12.8823C9.94771 12.8673 9.89835 12.8519 9.84899 12.833C9.8147 12.8214 9.6365 12.7458 9.75797 12.7987C9.53041 12.6961 9.31023 12.5785 9.10158 12.4381C9.04838 12.4038 8.99902 12.3698 8.94966 12.3317C8.92306 12.3128 8.9003 12.2939 8.8737 12.2747C8.80543 12.2253 8.94197 12.3317 8.87755 12.2785C8.77114 12.1952 8.6689 12.1077 8.57019 12.0128C8.37276 11.8308 8.18686 11.6333 8.01251 11.4285C7.97085 11.3792 7.92918 11.326 7.88335 11.2731C7.86829 11.2542 7.8529 11.2353 7.83784 11.2125C7.90226 11.2923 7.84553 11.2241 7.83399 11.2087C7.74297 11.0872 7.65579 10.9619 7.5683 10.8369C7.41637 10.6093 7.276 10.3741 7.14716 10.1311C7.08274 10.0097 7.02184 9.8882 6.96127 9.7632C6.93082 9.70263 6.90422 9.63789 6.87409 9.57731C6.85903 9.54687 6.84749 9.51289 6.83243 9.48245C6.86672 9.55841 6.83627 9.49399 6.82089 9.452C6.71448 9.194 6.62346 8.93215 6.54398 8.66261C6.46802 8.40461 6.4036 8.13891 6.35424 7.87321C6.3427 7.81616 6.33533 7.76328 6.32379 7.70622C6.3161 7.66841 6.29334 7.49374 6.30873 7.6229C6.29366 7.48636 6.27828 7.34598 6.27091 7.20561C6.23661 6.59473 6.27475 6.22644 6.42635 5.67647C6.46417 5.54731 6.50231 5.41462 6.55166 5.2893C6.57057 5.23225 6.59333 5.17937 6.61608 5.12231C6.57826 5.22103 6.60839 5.13738 6.61608 5.11847C6.63499 5.07296 6.65775 5.02744 6.6805 4.98193C6.79428 4.74284 6.92729 4.51143 7.07889 4.29125C7.11671 4.23805 7.15485 4.18132 7.19651 4.12811C7.26094 4.04093 7.21158 4.1092 7.19651 4.12426C7.21542 4.09766 7.23818 4.07106 7.25709 4.04831C7.35195 3.93453 7.45067 3.82075 7.55675 3.71434C7.64393 3.62717 7.73496 3.53967 7.8263 3.45634C7.87566 3.41083 7.92501 3.36917 7.97822 3.32718C7.98976 3.31564 8.07309 3.25122 8.01604 3.29289C7.95899 3.3384 8.0654 3.25507 8.07662 3.24738C8.2968 3.08424 8.53205 2.94002 8.77851 2.81854C8.83909 2.7881 8.89999 2.75797 8.96056 2.73137C8.99101 2.7163 9.02114 2.70476 9.05159 2.6897C9.13139 2.65541 8.97178 2.72015 9.05544 2.6897C9.18812 2.64034 9.32498 2.58714 9.46151 2.54548C9.59067 2.50766 9.72336 2.46952 9.85605 2.44292C9.91662 2.43138 9.97367 2.42016 10.0342 2.40862C10.0647 2.40478 10.2846 2.3708 10.1669 2.38587C10.4554 2.35157 10.7474 2.34036 11.0397 2.35157C11.1118 2.35542 11.1801 2.35926 11.2522 2.36664C11.2865 2.37048 11.3204 2.37433 11.3586 2.37817C11.3736 2.37817 11.4839 2.39324 11.4118 2.38587C11.3397 2.37817 11.4496 2.39356 11.465 2.39356C11.4993 2.3974 11.5333 2.4051 11.5676 2.41247C11.6435 2.42753 11.7195 2.44291 11.7951 2.45798C11.9278 2.48843 12.0608 2.5224 12.1896 2.56439C12.2541 2.5833 12.3188 2.60605 12.3832 2.62881C12.4137 2.64035 12.4477 2.65156 12.4781 2.6631C12.4896 2.66695 12.6185 2.72015 12.5502 2.6897C12.4858 2.6631 12.5845 2.70477 12.5996 2.71246C12.63 2.72752 12.6601 2.73906 12.6906 2.75412C12.7438 2.78073 12.797 2.80348 12.8499 2.83008C12.9826 2.89835 13.1156 2.97431 13.2406 3.05412C13.3543 3.12623 13.4608 3.20219 13.5707 3.27815C13.5784 3.282 13.6428 3.33135 13.5934 3.29321C13.5402 3.25155 13.62 3.31597 13.6313 3.32751C13.6883 3.37686 13.745 3.42237 13.8021 3.47173C14.0069 3.65378 14.1928 3.85121 14.3674 4.06369C14.379 4.07523 14.4434 4.15856 14.4017 4.10151C14.3601 4.04831 14.4245 4.13196 14.4322 4.14318C14.47 4.19638 14.5081 4.24959 14.546 4.30632C14.6258 4.42394 14.7014 4.54541 14.77 4.66688C14.8344 4.7845 14.8953 4.90213 14.952 5.0236C14.9671 5.05405 15.0354 5.22102 14.9937 5.11846C15.0203 5.19058 15.0508 5.25884 15.0735 5.33095C15.1684 5.59665 15.2405 5.86972 15.2899 6.14663C15.2975 6.18092 15.3203 6.36682 15.3088 6.25304C15.3165 6.31361 15.3238 6.37451 15.3277 6.43509C15.3415 6.59053 15.3488 6.74245 15.3488 6.8902C15.3488 7.18603 15.6107 7.47448 15.918 7.45941C16.2254 7.44435 16.4872 7.2091 16.4872 6.8902C16.4796 5.57743 16.0244 4.32135 15.2046 3.30058C14.4306 2.33684 13.3072 1.63459 12.1044 1.36153C10.8179 1.06571 9.46726 1.22884 8.28338 1.80543C7.18664 2.34035 6.26105 3.2663 5.72577 4.36304C5.15271 5.53191 5.02387 6.80686 5.24374 8.08181C5.44854 9.27693 5.94179 10.4496 6.61739 11.4551C7.27378 12.4265 8.13914 13.3297 9.2317 13.8002C10.3513 14.2822 11.5425 14.2329 12.6316 13.6864C13.7056 13.1438 14.5556 12.1874 15.1815 11.1743C15.8229 10.1346 16.2629 8.95836 16.426 7.74782C16.4639 7.46321 16.4905 7.1786 16.4905 6.89402C16.4905 6.59819 16.2286 6.30974 15.9212 6.32481C15.6107 6.33634 15.3488 6.57159 15.3488 6.89017L15.3488 6.89021Z" fill="#9460FB"/>
<path d="M20.4825 20.5743V24.8241V25.4199L21.0517 24.8507H19.0178H14.1305H8.19962H3.08825C2.26489 24.8507 1.42611 24.8091 0.602754 24.8507H0.568461L1.13767 25.4199V21.0448C1.13767 20.8512 1.13383 20.6615 1.13767 20.4679C1.14152 20.3086 1.15274 20.149 1.16812 19.9935C1.17966 19.8798 1.17197 19.9669 1.16812 19.9897C1.17581 19.9365 1.18318 19.8871 1.19087 19.8343C1.20594 19.7509 1.22132 19.6634 1.24023 19.5801C1.27452 19.4282 1.31234 19.2804 1.3617 19.1362C1.38831 19.0564 1.41491 18.9769 1.44503 18.8971C1.45657 18.8667 1.46779 18.8327 1.48285 18.8022C1.50945 18.7417 1.50945 18.7417 1.48285 18.7984C1.49439 18.7756 1.50176 18.7529 1.5133 18.7301C1.64984 18.4343 1.8056 18.1497 1.99149 17.8802C2.0104 17.8536 2.02931 17.827 2.04854 17.8004C2.04469 17.8042 2.1434 17.6712 2.09405 17.7398C2.04469 17.8042 2.1434 17.6754 2.1434 17.6792C2.16616 17.6526 2.18507 17.626 2.20782 17.6033C2.31423 17.478 2.42801 17.3565 2.54563 17.2389C2.65941 17.1289 2.77704 17.0225 2.89851 16.9238C2.92896 16.8972 2.96293 16.8706 2.99722 16.8478C2.97831 16.8629 2.91389 16.9084 3.00107 16.8478C3.07703 16.7946 3.14914 16.7414 3.2251 16.6924C3.35779 16.6052 3.49465 16.5254 3.63502 16.4495C3.70329 16.4152 3.76771 16.3812 3.83598 16.3469C3.8738 16.328 3.91193 16.3126 3.94975 16.2937C3.97251 16.2822 4.10904 16.2293 3.99911 16.271C4.34077 16.1344 4.69363 16.0319 5.05384 15.9674C5.09551 15.9597 5.14102 15.9524 5.183 15.9447C5.30831 15.9258 5.09967 15.9524 5.24005 15.937C5.32723 15.9293 5.41472 15.9181 5.5019 15.9142C5.61953 15.9065 5.73715 15.9065 5.85862 15.9027H7.05021C6.91752 15.8456 6.78067 15.7928 6.64799 15.7357C7.75211 17.045 8.86009 18.35 9.96455 19.6593C10.12 19.8452 10.2758 20.0272 10.4312 20.2134C10.6171 20.4336 11.0498 20.4336 11.2357 20.2134C12.3324 18.908 13.425 17.6026 14.5218 16.2937C14.6772 16.1078 14.833 15.9219 14.9884 15.736C14.8557 15.7931 14.7189 15.846 14.5862 15.903H15.7019C15.9333 15.903 16.1612 15.9146 16.3926 15.9335C16.5596 15.9485 16.3205 15.9219 16.423 15.9373C16.4647 15.945 16.5102 15.9489 16.5522 15.9562C16.6355 15.9713 16.723 15.9867 16.8064 16.0056C16.9733 16.0434 17.1365 16.0889 17.2996 16.1421C17.3794 16.1687 17.4589 16.1953 17.5387 16.2255C17.5691 16.237 17.6031 16.2521 17.6336 16.2633C17.5159 16.2178 17.6714 16.2783 17.6829 16.286C17.8348 16.3543 17.9864 16.4303 18.1307 16.5136C18.2672 16.5934 18.4002 16.6767 18.5329 16.7677C18.5595 16.7866 18.7303 16.912 18.6393 16.8399C18.7191 16.9004 18.7947 16.9652 18.8707 17.0296C19.121 17.2459 19.3489 17.4889 19.5537 17.7507C19.4893 17.6674 19.5421 17.7392 19.5537 17.7546C19.5841 17.7962 19.6107 17.8344 19.6409 17.876C19.6825 17.9366 19.7242 18.0014 19.7662 18.0619C19.861 18.21 19.9444 18.3616 20.0242 18.5212C20.0658 18.6045 20.104 18.6882 20.1418 18.7715C20.1796 18.8626 20.0963 18.6462 20.1533 18.7981C20.1722 18.8436 20.1912 18.893 20.2065 18.9385C20.271 19.1132 20.3242 19.2952 20.3697 19.4773C20.3924 19.576 20.4152 19.6782 20.4341 19.7808C20.4418 19.8151 20.4456 19.849 20.453 19.8833C20.4569 19.9176 20.4719 20.0426 20.4607 19.9404C20.4674 20.1494 20.479 20.3618 20.4825 20.5743C20.4825 20.8702 20.7443 21.1586 21.0517 21.1436C21.3591 21.1285 21.6209 20.8932 21.6209 20.5743C21.6132 18.9769 20.9491 17.4136 19.7729 16.3245C18.665 15.296 17.223 14.7611 15.7166 14.7611H14.9881C14.7151 14.7611 14.3849 14.7155 14.176 14.928C14.0468 15.0572 13.9369 15.2126 13.8193 15.353C13.1779 16.1158 12.5405 16.8783 11.8992 17.6411C11.4059 18.2292 10.9127 18.8174 10.4229 19.4019H11.2274C10.514 18.5596 9.80436 17.7171 9.09095 16.8748C8.65827 16.3626 8.22591 15.8502 7.79327 15.338C7.68686 15.2127 7.58462 15.08 7.47437 14.9585C7.26572 14.7345 6.99618 14.7576 6.71927 14.7576C5.85776 14.7576 5.00782 14.746 4.17323 14.9928C3.10692 15.3079 2.12037 15.9377 1.40311 16.7915C0.644158 17.6947 0.181322 18.7684 0.0409374 19.9411C-0.0161117 20.4305 0.00311819 20.9276 0.00311819 21.4173V25.3297V25.4207C0.00311819 25.7281 0.264968 25.9899 0.572329 25.9899H2.60623H7.49353H13.4244H18.5358C19.363 25.9899 20.194 26.0127 21.0213 25.9899H21.0556C21.3629 25.9899 21.6248 25.7281 21.6248 25.4207V21.1709V20.5751C21.6248 20.2792 21.3629 19.9908 21.0556 20.0058C20.7405 20.0164 20.4825 20.2517 20.4825 20.5744L20.4825 20.5743Z" fill="#9460FB"/>
<path d="M31.6314 9.54302C29.8631 9.91865 28.0949 10.2904 26.3229 10.6661C24.8887 10.9696 23.4579 11.2731 22.0237 11.5767C21.1321 11.7664 20.2366 11.9561 19.3447 12.142C19.5572 12.2292 19.7735 12.3167 19.986 12.4039C19.6104 11.7513 19.2309 11.0985 18.8553 10.4421C18.8248 10.6735 18.7947 10.9014 18.7681 11.1328C19.713 10.0816 20.6616 9.02677 21.6065 7.97581C23.1128 6.29866 24.6196 4.62143 26.1259 2.94427C26.4711 2.56095 26.8166 2.17763 27.1579 1.79461C26.8582 1.75679 26.5621 1.71865 26.2624 1.68084C26.8278 2.66353 27.397 3.64647 27.9624 4.62531C28.8617 6.18488 29.761 7.74446 30.6642 9.30018C30.8729 9.66075 31.078 10.0175 31.2867 10.3777C31.4386 10.6434 31.8027 10.7383 32.0645 10.5825C32.3302 10.4271 32.4212 10.0704 32.2693 9.80467C31.7039 8.82197 31.1347 7.83903 30.5694 6.86019C29.67 5.30062 28.7707 3.74104 27.8675 2.18532C27.6588 1.82476 27.4537 1.46803 27.2451 1.10778C27.0704 0.804262 26.5961 0.717085 26.3496 0.993999C25.4047 2.0452 24.4561 3.10002 23.5112 4.15098C22.0049 5.82813 20.4982 7.50536 18.9918 9.18252C18.6467 9.56584 18.3011 9.94916 17.9598 10.3322C17.789 10.5219 17.7396 10.795 17.8726 11.0229C18.2483 11.6754 18.6277 12.3283 19.0034 12.9846C19.136 13.2122 19.3979 13.2997 19.6447 13.2465C21.2687 12.9013 22.893 12.5597 24.517 12.2145C26.1108 11.8767 27.7082 11.5392 29.302 11.2014C30.1786 11.0155 31.0552 10.8296 31.9318 10.6437C32.2314 10.5793 32.4061 10.2264 32.3302 9.94178C32.2462 9.63057 31.935 9.48249 31.6315 9.54307L31.6314 9.54302Z" fill="#9460FB"/>
<path d="M20.3795 13.08C19.8218 12.1163 19.2638 11.1487 18.7061 10.1846C18.6263 10.048 18.5468 9.91152 18.467 9.77466C18.3151 9.50897 17.951 9.4141 17.6892 9.56986C17.4235 9.7253 17.3325 10.082 17.4844 10.3477C18.0421 11.3115 18.6001 12.2791 19.1578 13.2431C19.2376 13.3797 19.317 13.5162 19.3969 13.6531C19.5488 13.9188 19.9129 14.0136 20.1747 13.8579C20.4439 13.7021 20.535 13.3454 20.3795 13.08Z" fill="#9460FB"/>
<path d="M25.8789 1.00895C26.5315 2.13966 27.1843 3.27037 27.8369 4.40149C28.8766 6.20402 29.9202 8.00654 30.9598 9.81251C31.1989 10.2263 31.438 10.6436 31.6771 11.057C31.829 11.3227 32.1931 11.4176 32.4549 11.2618C32.7206 11.1064 32.8117 10.7497 32.6597 10.484C32.0072 9.35325 31.3543 8.22254 30.7018 7.09142C29.6621 5.2889 28.6185 3.48637 27.5789 1.68041C27.3398 1.26664 27.1007 0.849337 26.8616 0.435895C26.7097 0.170198 26.3456 0.0753326 26.0837 0.231093C25.8184 0.386534 25.7273 0.739728 25.8789 1.00895Z" fill="#9460FB"/>
<path d="M31.6429 5.03096C32.3031 4.65149 32.9595 4.27202 33.6197 3.88868C33.8854 3.73676 33.9803 3.37267 33.8245 3.11082C33.6691 2.84513 33.3124 2.7541 33.0467 2.90602C32.3864 3.2855 31.73 3.66497 31.0698 4.0483C30.8041 4.20022 30.7092 4.56431 30.865 4.82616C31.0208 5.09538 31.3775 5.1864 31.6429 5.03096Z" fill="#9460FB"/>
<path d="M30.3258 2.74353C30.7508 2.11375 31.1796 1.48368 31.6046 0.853877C31.7754 0.599716 31.6539 0.22409 31.3998 0.0760169C31.119 -0.0871201 30.7927 0.0266593 30.6219 0.280817C30.1969 0.910605 29.7681 1.54067 29.3431 2.17048C29.1723 2.42464 29.2937 2.80026 29.5479 2.94834C29.8287 3.11147 30.1511 2.99769 30.3258 2.74353Z" fill="#9460FB"/>
<path d="M32.4018 7.47123C33.1608 7.41802 33.9197 7.3613 34.6787 7.30809C34.9745 7.28534 35.2629 7.06131 35.2479 6.73888C35.2363 6.45043 34.9976 6.14692 34.6787 6.16967C33.9197 6.22287 33.1608 6.2796 32.4018 6.3328C32.106 6.35556 31.8175 6.57959 31.8326 6.90202C31.8441 7.19047 32.0832 7.49398 32.4018 7.47123Z" fill="#9460FB"/>
<path d="M25.5865 11.2847V12.093C25.5865 12.1462 25.5865 12.1956 25.5827 12.2485C25.5788 12.2828 25.5788 12.3167 25.575 12.351C25.5788 12.3244 25.5978 12.2446 25.5712 12.351C25.5561 12.4154 25.5407 12.4837 25.5218 12.5485C25.5141 12.5751 25.4574 12.7154 25.4801 12.6699C25.5029 12.6206 25.4308 12.761 25.4196 12.7799C25.3891 12.8292 25.359 12.8786 25.3285 12.9279C25.3135 12.9468 25.3019 12.9696 25.2869 12.9885C25.3362 12.9241 25.2984 12.9734 25.2641 13.0074C25.2263 13.0491 25.1843 13.0907 25.1426 13.1289C25.1237 13.1439 25.1048 13.1632 25.0856 13.1782C25.0212 13.2353 25.1539 13.1289 25.0856 13.1821C24.983 13.2542 24.8769 13.3148 24.7667 13.3718C24.8654 13.3263 24.725 13.3869 24.6907 13.3984C24.6337 13.4173 24.577 13.4327 24.5199 13.4439C24.4856 13.4516 24.4516 13.459 24.4212 13.4628C24.4289 13.4628 24.5122 13.4513 24.4439 13.459C24.3834 13.4628 24.3186 13.4667 24.2581 13.4667H24.0799C24.0267 13.4667 23.9735 13.4628 23.9167 13.459C23.8029 13.4513 23.8901 13.4552 23.9129 13.459C23.8786 13.4513 23.8446 13.4475 23.8142 13.4401C23.7497 13.425 23.6815 13.4058 23.6206 13.3869C23.5863 13.3753 23.484 13.3263 23.5712 13.368C23.4536 13.3109 23.336 13.2465 23.2296 13.1632C23.3129 13.2276 23.1841 13.1177 23.1575 13.0911C23.1119 13.0456 23.0664 12.9962 23.0248 12.9468C23.0969 13.0302 22.9869 12.8936 22.9677 12.8635C22.9334 12.8065 22.9033 12.7497 22.869 12.6888C22.8158 12.5978 22.8539 12.6622 22.8652 12.6888C22.8536 12.6584 22.8424 12.6244 22.8309 12.594C22.8081 12.5219 22.7853 12.4497 22.7703 12.3738C22.7664 12.3472 22.7587 12.3244 22.7552 12.2978C22.7703 12.3812 22.7591 12.3167 22.7552 12.2674C22.7514 12.218 22.7514 12.1687 22.7514 12.1193C22.611 12.3014 22.4745 12.4837 22.3341 12.6696C23.4952 12.4228 24.6565 12.1802 25.8176 11.9334C25.9808 11.8991 26.1477 11.8651 26.3109 11.827C26.6105 11.7626 26.7852 11.4097 26.7093 11.1251C26.6221 10.8139 26.3109 10.6623 26.0074 10.7267C24.8462 10.9735 23.685 11.2161 22.5238 11.4629C22.3607 11.4972 22.1937 11.5312 22.0306 11.5693C21.7876 11.6225 21.6133 11.8805 21.6133 12.1196C21.6133 13.4818 22.7328 14.5862 24.0872 14.6013C24.6792 14.609 25.2484 14.4759 25.7265 14.1157C26.2919 13.6869 26.6371 13.076 26.7169 12.3703C26.7585 12.0097 26.7319 11.6379 26.7319 11.2774C26.7319 10.9816 26.4701 10.6931 26.1627 10.7082C25.848 10.7306 25.5865 10.9659 25.5865 11.2848L25.5865 11.2847Z" fill="#9460FB"/>
</svg>
