<svg width="89" height="91" viewBox="0 0 89 91" fill="none" xmlns="http://www.w3.org/2000/svg">
<path d="M43.2304 90.5915C40.4734 90.5915 37.7164 90.3408 35.0429 89.8396L35.1265 89.3383C37.7999 89.8396 40.5152 90.0902 43.2304 90.0902C67.6676 90.0902 87.5515 70.2063 87.5515 45.7691C87.5515 21.332 67.6676 1.44809 43.2304 1.44809C35.2518 1.44809 27.3985 3.57851 20.5895 7.67225L20.3389 7.25452C27.2314 3.16078 35.1682 0.988586 43.2304 0.988586C49.2875 0.988586 55.1357 2.15823 60.6915 4.49751C66.0384 6.75325 70.8423 9.96976 74.9361 14.1053C79.0716 18.2408 82.2881 23.0029 84.5438 28.3498C86.8831 33.8639 88.0528 39.7538 88.0528 45.8109C88.0528 51.868 86.8831 57.7162 84.5438 63.272C82.2881 68.6189 79.0716 73.4228 74.9361 77.5166C70.8006 81.6521 66.0384 84.8686 60.6915 87.1243C55.1775 89.4218 49.2875 90.5915 43.2304 90.5915Z" fill="#007AFF"/>
<path d="M43.7316 88.0434C43.6063 88.0434 43.4809 87.9181 43.4809 87.7927C43.4809 87.6674 43.6063 87.5421 43.7316 87.5421C54.509 87.4168 64.7016 83.1977 72.4296 75.6786L73.1815 74.9267C80.7424 67.1987 84.9614 57.0061 85.0868 46.2287V45.1844C84.9614 34.407 80.7424 24.2144 73.2233 16.4864L72.4713 15.7345C64.7434 8.17356 54.5508 3.9545 43.7734 3.82918H42.729C33.2048 3.9545 23.9312 7.3381 16.5792 13.3534C16.4539 13.4369 16.3286 13.437 16.2032 13.3116C16.1197 13.1863 16.1197 13.061 16.245 12.9357C20.0046 9.84448 24.2236 7.42165 28.8187 5.79251C33.2884 4.20514 37.9252 3.36968 42.6873 3.28613H43.7734C54.6761 3.41145 64.994 7.71406 72.8055 15.3585L73.5574 16.1104C81.1601 23.9219 85.4209 34.2399 85.5463 45.1844V46.2705C85.4209 57.1732 81.1183 67.4911 73.4739 75.3026L72.722 76.0545C64.994 83.6572 54.6761 87.9598 43.7316 88.0434Z" fill="#BFBFBF"/>
<path d="M12.7371 75.3443C5.09269 67.491 0.831862 57.1313 0.706543 46.1868H1.542C1.66732 56.9225 5.84461 67.1151 13.3637 74.8013L12.7371 75.3443Z" fill="#007AFF"/>
<path d="M42.6463 88.2104C31.7018 88.0433 21.3421 83.7825 13.4888 76.0963L14.0736 75.5115C21.7598 83.0306 31.9106 87.2497 42.6463 87.375V88.2104Z" fill="#007AFF"/>
<path d="M1.49952 45.1008H0.664062C0.747608 40.1299 1.66661 35.2842 3.3793 30.6474C5.05022 26.1777 7.47305 22.0422 10.5642 18.408L11.1908 18.951C5.092 26.2613 1.66661 35.5348 1.49952 45.1008Z" fill="#007AFF"/>
<path d="M12.0683 24.7992C11.943 24.7992 11.8176 24.7574 11.6923 24.7157C11.2746 24.5486 10.9822 24.1726 10.9404 23.7131L10.6898 19.3269C10.6898 19.2434 10.648 19.1599 10.6062 19.1181C10.5645 19.0763 10.4809 19.0345 10.3974 19.0345L6.0112 19.2852C5.5517 19.3269 5.13397 19.0763 4.92511 18.6586C4.71624 18.2409 4.79978 17.7814 5.09219 17.4054L6.4707 15.8598C6.67956 15.6509 6.93021 15.5256 7.26439 15.4838L13.1126 15.1497C13.7392 15.1079 14.2405 15.6092 14.2822 16.194L14.6164 22.0422C14.6164 22.3346 14.5329 22.627 14.324 22.8359L12.9455 24.3815C12.6949 24.6739 12.4025 24.7992 12.0683 24.7992ZM10.3974 18.2409C10.6898 18.2409 10.9404 18.3244 11.1493 18.5333C11.3581 18.7421 11.4834 18.9928 11.5252 19.3269L11.7759 23.7131C11.7759 23.8802 11.9012 23.9637 11.9847 24.0055C12.0265 24.0055 12.1936 24.0473 12.3189 23.922L13.6974 22.3764C13.7392 22.3346 13.781 22.251 13.781 22.1675L13.4468 16.3193C13.4468 16.1522 13.2797 16.0269 13.1126 16.0269L7.26439 16.3611C7.18085 16.3611 7.0973 16.4028 7.05553 16.4446L5.67701 17.9902C5.55169 18.1155 5.59346 18.2826 5.63524 18.3244C5.67701 18.3662 5.76056 18.4915 5.92765 18.4915L10.3138 18.2409C10.3556 18.2409 10.3974 18.2409 10.3974 18.2409Z" fill="#007AFF"/>
</svg>
