<svg width="93" height="91" viewBox="0 0 93 91" fill="none" xmlns="http://www.w3.org/2000/svg">
<path d="M47.2305 90.5917C44.8077 90.5917 42.4266 90.3828 40.0456 90.0069L40.1291 89.5056C42.4684 89.8815 44.8494 90.0904 47.2305 90.0904C71.6676 90.0904 91.5516 70.2065 91.5516 45.7693C91.5516 21.3322 71.6676 1.4483 47.2305 1.4483C26.8035 1.4483 9.13361 15.2751 4.2044 35.0337L3.70312 34.9084C4.91454 30.1045 6.87787 25.5513 9.59311 21.374C12.2666 17.2802 15.5666 13.646 19.4097 10.5966C23.2946 7.50537 27.5972 5.12431 32.234 3.49517C37.0379 1.78248 42.0924 0.947021 47.2305 0.947021C53.2876 0.947021 59.1358 2.11666 64.6916 4.45595C70.0385 6.71168 74.8424 9.9282 78.9361 14.0637C83.0717 18.1992 86.2882 22.9613 88.5439 28.3083C90.8832 33.8223 92.0528 39.7123 92.0528 45.7693C92.0528 51.8264 90.8832 57.6746 88.5439 63.2304C86.2882 68.5774 83.0717 73.3812 78.9361 77.475C74.8006 81.6105 70.0385 84.827 64.6916 87.0828C59.1776 89.422 53.2876 90.5917 47.2305 90.5917Z" fill="#64AF5B"/>
<path d="M16.7781 75.4702C13.3109 71.9195 10.5121 67.8257 8.50702 63.3143C6.54369 58.9699 5.33228 54.3331 4.91455 49.571L5.70824 49.4874C6.54369 59.0117 10.6792 68.0346 17.3629 74.8854L16.7781 75.4702Z" fill="#64AF5B"/>
<path d="M1.40553 53.8318C1.28021 53.8318 1.1549 53.79 1.02958 53.7482C0.611848 53.5811 0.319437 53.2052 0.277664 52.7457L0.152344 50.657C0.152344 50.3646 0.235891 50.0722 0.444756 49.8633L4.32963 45.519C4.74736 45.0595 5.4575 45.0177 5.91701 45.4354L10.2614 49.3203C10.4703 49.5292 10.5956 49.7798 10.6373 50.114L10.7627 52.2026C10.8044 52.6621 10.5538 53.0799 10.1361 53.2887C9.71834 53.4976 9.25884 53.414 8.88288 53.1216L5.37396 49.9887L2.24099 53.4976C2.03212 53.7064 1.69794 53.8318 1.40553 53.8318ZM5.16509 45.9785C5.08155 45.9785 4.998 46.0202 4.95623 46.062L1.07135 50.4064C1.02958 50.4482 0.987802 50.5317 0.987802 50.6153L1.11312 52.7039C1.11312 52.871 1.23844 52.9545 1.32199 52.9963C1.36376 52.9963 1.53085 53.0381 1.65617 52.9128L5.33218 48.7772L9.4677 52.4533C9.59302 52.5786 9.76012 52.5368 9.80189 52.495C9.84366 52.4533 9.96898 52.3697 9.96898 52.2026L9.84366 50.114C9.84366 50.0304 9.80189 49.9469 9.76011 49.9051L5.41573 46.0202C5.33219 45.9785 5.24864 45.9785 5.16509 45.9785Z" fill="#64AF5B"/>
<path d="M46.6876 88.3362C35.7431 88.2109 25.3834 83.9083 17.5301 76.2221C17.363 76.055 17.363 75.8044 17.5301 75.6373C17.6972 75.4702 17.9478 75.4702 18.1149 75.6373C25.8011 83.1564 35.952 87.3755 46.6876 87.5008C46.8965 87.5008 47.1053 87.7096 47.1053 87.9185C47.0636 88.1274 46.8965 88.3362 46.6876 88.3362Z" fill="#64AF5B"/>
<path d="M47.7322 88.169C47.6069 88.169 47.4816 88.0437 47.4816 87.9184C47.4816 87.7931 47.6069 87.6677 47.7322 87.6677C58.5096 87.5424 68.7022 83.3234 76.4302 75.8042L77.1821 75.0523C84.743 67.3243 88.9621 57.1317 89.0874 46.3543V45.31C88.9621 34.5326 84.743 24.34 77.2239 16.612L76.472 15.8601C68.744 8.29921 58.5514 4.08015 47.774 3.95483H46.7297C35.9523 4.08015 25.7597 8.29921 18.0317 15.8183L17.2798 16.5703C10.5543 23.4628 6.37704 32.4857 5.54158 42.0517C5.54158 42.177 5.41626 42.3024 5.24917 42.3024C5.12385 42.3024 4.99854 42.177 4.99854 42.01C5.45804 37.1225 6.71122 32.3604 8.79987 27.8907C10.805 23.5463 13.562 19.6197 16.9038 16.1943L17.6557 15.4424C25.4673 7.83971 35.7852 3.57887 46.7297 3.45355H47.8158C58.7185 3.57887 69.0364 7.88148 76.8479 15.5259L77.5999 16.2778C85.2025 24.0894 89.4634 34.4073 89.5887 45.3518V46.4379C89.4634 57.3406 85.1607 67.6585 77.5163 75.4701L76.7644 76.222C68.9946 83.7829 58.6767 88.0437 47.7322 88.169Z" fill="#BFBFBF"/>
</svg>
