<svg width="89" height="93" viewBox="0 0 89 93" fill="none" xmlns="http://www.w3.org/2000/svg">
<path d="M43.2305 92.5915C40.4735 92.5915 37.7164 92.3409 35.043 91.8396L35.1265 91.3383C37.8 91.8396 40.5152 92.0903 43.2305 92.0903C67.6676 92.0903 87.5515 72.2064 87.5515 47.7692C87.5515 28.3448 74.5602 10.8837 55.9712 5.32794L56.0965 4.82666C60.6498 6.20517 64.9524 8.29381 68.879 11.0091C72.7639 13.7243 76.1475 16.9826 78.9881 20.7421C81.8704 24.5435 84.1262 28.7625 85.63 33.274C87.2174 37.9108 88.011 42.7982 88.011 47.7692C88.011 53.8263 86.8414 59.6745 84.5021 65.2303C82.2464 70.5772 79.0299 75.3811 74.8943 79.4748C70.7588 83.6104 65.9967 86.8269 60.6498 89.0826C55.1358 91.4219 49.2875 92.5915 43.2305 92.5915Z" fill="#FFB302"/>
<path d="M14.1151 17.693L13.5303 17.1082C17.081 13.641 21.1747 10.8423 25.6862 8.83716C30.0306 6.87384 34.6674 5.66242 39.4295 5.24469L39.513 6.03838C29.9888 6.87383 20.9659 11.0094 14.1151 17.693Z" fill="#FFB302"/>
<path d="M36.9649 11.0927C36.5472 11.0927 36.1295 10.8421 35.9624 10.4661C35.7535 10.0484 35.8371 9.58891 36.1295 9.21296L39.0953 5.9129C39.1371 5.87113 39.1789 5.78758 39.1789 5.70404C39.1789 5.62049 39.1371 5.53694 39.0953 5.49517L35.7953 2.57107C35.4611 2.27866 35.3358 1.81915 35.5029 1.35965C35.67 0.941923 36.0459 0.649512 36.5054 0.607739L38.5941 0.482422C38.8865 0.482422 39.1789 0.565966 39.3878 0.774831L43.7322 4.65971C44.1917 5.07744 44.2334 5.78758 43.8157 6.24708L39.9308 10.5915C39.7219 10.8003 39.4713 10.9256 39.1371 10.9674L37.0485 11.0927C37.0067 11.0927 37.0067 11.0927 36.9649 11.0927ZM36.7561 9.75601C36.6308 9.88132 36.6725 10.0484 36.7143 10.0902C36.7561 10.132 36.8396 10.2573 37.0067 10.2573L39.0953 10.132C39.1789 10.132 39.2624 10.0902 39.3042 10.0484L43.1891 5.70404C43.3144 5.57872 43.2726 5.36985 43.1473 5.28631L38.8029 1.40142C38.7612 1.35965 38.6776 1.31788 38.5941 1.31788L36.5054 1.4432C36.3383 1.4432 36.2548 1.56852 36.213 1.65206C36.213 1.69383 36.1712 1.86093 36.2966 1.98625L39.5966 4.91035C39.8055 5.11921 39.9726 5.36985 39.9726 5.70404C39.9726 5.99645 39.889 6.28885 39.6802 6.49772L36.7561 9.75601Z" fill="#FFB302"/>
<path d="M1.49952 47.0175H0.664062C0.789381 36.073 5.09199 25.7133 12.7782 17.86L13.363 18.4448C5.88569 26.131 1.66661 36.2818 1.49952 47.0175Z" fill="#FFB302"/>
<path d="M12.7362 77.2609C5.09172 69.4076 0.830885 59.0479 0.705566 48.1034H1.54102C1.66634 58.839 5.84363 69.0316 13.3628 76.7178L12.7362 77.2609Z" fill="#FFB302"/>
<path d="M42.6463 90.127C31.7018 90.0017 21.3421 85.6991 13.4888 78.0129L14.0736 77.428C21.7598 84.9472 31.9106 89.1662 42.6463 89.2915V90.127Z" fill="#FFB302"/>
<path d="M43.7324 89.9597V89.4584C54.5098 89.3331 64.7024 85.1141 72.4304 77.5949L73.1823 76.843C80.7432 69.115 84.9623 58.9224 85.0876 48.145V47.1007C84.9623 36.3233 80.7432 26.1307 73.2241 18.4027L72.4722 17.6508C65.7467 11.0925 56.9326 6.91518 47.5755 5.9544L47.6173 5.45312C52.4212 5.9544 57.058 7.24936 61.3606 9.33801C65.5796 11.3431 69.4228 14.0166 72.7646 17.3166L73.5165 18.0685C81.1192 25.8801 85.38 36.198 85.5053 47.1425V48.2286C85.38 59.1313 81.0774 69.4492 73.433 77.2608L72.681 78.0127C64.9531 85.5736 54.6352 89.8344 43.7324 89.9597Z" fill="#BFBFBF"/>
</svg>
