<svg width="89" height="89" viewBox="0 0 89 89" fill="none" xmlns="http://www.w3.org/2000/svg">
<path d="M43.2304 88.5914C40.4734 88.5914 37.7164 88.3408 35.043 87.8395L35.1265 87.3382C37.8 87.8395 40.5152 88.0901 43.2304 88.0901C67.6676 88.0901 87.5515 68.2062 87.5515 43.7691C87.5515 35.9576 85.5046 28.3131 81.6198 21.5877L82.0793 21.337C86.0059 28.1042 88.0946 35.874 88.0946 43.7691C88.0946 49.8262 86.9249 55.6744 84.5856 61.2302C82.3299 66.5771 79.1134 71.381 74.9779 75.4747C70.8423 79.6102 66.0802 82.8268 60.7333 85.0825C55.1357 87.4218 49.2875 88.5914 43.2304 88.5914Z" fill="#FF6461"/>
<path d="M43.7319 85.8763V85.375C54.5093 85.2497 64.7019 81.0306 72.4299 73.5115L73.1818 72.7596C80.7427 65.0316 84.9618 54.839 85.0871 44.0616V43.0173C84.9618 33.3677 81.4947 23.9688 75.3123 16.6168L75.6882 16.2826C78.863 20.0839 81.3276 24.3448 83.0403 28.9816C84.6694 33.493 85.5466 38.2134 85.5884 43.0173V44.1034C85.4631 55.0061 81.1605 65.324 73.516 73.1355L72.7641 73.8874C64.9526 81.4901 54.6347 85.7509 43.7319 85.8763Z" fill="#BFBFBF"/>
<path d="M69.965 11.4788C62.6548 5.33818 53.3394 1.9128 43.7734 1.78748V0.952026C48.7444 1.03557 53.5901 1.95458 58.2269 3.66727C62.6966 5.33818 66.8321 7.76101 70.4663 10.8522L69.965 11.4788Z" fill="#FF6461"/>
<path d="M66.7906 14.8208C66.4982 14.8208 66.2475 14.7373 66.0387 14.5284L64.4931 13.1499C64.1589 12.8575 64.0335 12.398 64.2006 11.9385C64.3677 11.479 64.7437 11.2283 65.2032 11.1866L69.5894 10.9359C69.6729 10.9359 69.7564 10.8941 69.7982 10.8524C69.84 10.8106 69.8818 10.7271 69.8818 10.6435L69.6311 6.25735C69.5893 5.79785 69.84 5.38012 70.2577 5.17126C70.6754 4.9624 71.1349 5.04594 71.5109 5.33835L73.0565 6.71686C73.2654 6.92572 73.3907 7.17636 73.4325 7.51054L73.7666 13.3587C73.7666 13.6512 73.6831 13.9436 73.4742 14.1524C73.2654 14.3613 73.0147 14.4866 72.6805 14.5284L66.8323 14.8626C66.8323 14.8208 66.8323 14.8208 66.7906 14.8208ZM65.2032 12.022C65.0361 12.022 64.9526 12.1473 64.9108 12.2309C64.9108 12.2727 64.869 12.4397 64.9943 12.5651L66.5399 13.9436C66.5817 13.9853 66.6653 14.0271 66.7488 14.0271L72.597 13.6929C72.6806 13.6929 72.7641 13.6512 72.8059 13.6094C72.8476 13.5676 72.8894 13.4841 72.8894 13.4005L72.5552 7.55231C72.5552 7.46877 72.5134 7.38522 72.4717 7.34345L70.9261 5.96494C70.8008 5.83962 70.6337 5.88139 70.5919 5.92317C70.5501 5.96494 70.4248 6.04849 70.4248 6.21558L70.6754 10.6017C70.6754 10.8941 70.5919 11.1866 70.383 11.3954C70.1742 11.6043 69.9235 11.7296 69.5894 11.7714L65.2032 12.022Z" fill="#FF6461"/>
<path d="M14.1146 13.5674L13.5298 12.9826C21.3831 5.33818 31.7428 1.07735 42.6873 0.952026V1.78748C31.9934 1.87103 21.8426 6.09009 14.1146 13.5674Z" fill="#FF6461"/>
<path d="M1.49952 42.9338H0.664062C0.831154 31.9893 5.09199 21.6296 12.7782 13.7763L13.363 14.3611C5.88566 22.0056 1.66661 32.1564 1.49952 42.9338Z" fill="#FF6461"/>
<path d="M12.7362 73.1356C5.09172 65.2823 0.830885 54.9226 0.705566 43.9781H1.54102C1.66634 54.7137 5.84363 64.9063 13.3628 72.5925L12.7362 73.1356Z" fill="#FF6461"/>
<path d="M42.6458 86.0017C31.7013 85.8346 21.3416 81.5738 13.4883 73.8876L14.0731 73.3027C21.7593 80.8219 31.9101 85.0409 42.6458 85.1662V86.0017Z" fill="#FF6461"/>
</svg>
