<svg width="833" height="482" viewBox="0 0 833 482" fill="none" xmlns="http://www.w3.org/2000/svg">
<g clip-path="url(#clip0_2_369)">
<path d="M444.271 13C443.593 13 443 13.5954 443 14.2758C443 14.9988 443.593 15.5516 444.271 15.5516C444.992 15.5516 445.543 14.9562 445.543 14.2758C445.585 13.5954 444.992 13 444.271 13Z" fill="#725EFE"/>
<path d="M458.214 13C457.493 13 456.942 13.5954 456.942 14.2758C456.942 14.9988 457.536 15.5516 458.214 15.5516C458.934 15.5516 459.485 14.9562 459.485 14.2758C459.485 13.5954 458.934 13 458.214 13Z" fill="#725EFE"/>
<path d="M472.156 15.5941C472.876 15.5941 473.427 14.9987 473.427 14.3183C473.427 13.5953 472.834 13.0425 472.156 13.0425C471.435 13.0425 470.885 13.6379 470.885 14.3183C470.885 14.9987 471.435 15.5941 472.156 15.5941Z" fill="#725EFE"/>
<path d="M444.271 22.696C443.551 22.696 443 23.2914 443 23.9719C443 24.6948 443.593 25.2477 444.271 25.2477C444.992 25.2477 445.543 24.6523 445.543 23.9719C445.585 23.2489 444.992 22.696 444.271 22.696Z" fill="#725EFE"/>
<path d="M458.214 22.696C457.493 22.696 456.942 23.2914 456.942 23.9719C456.942 24.6948 457.536 25.2477 458.214 25.2477C458.934 25.2477 459.485 24.6523 459.485 23.9719C459.485 23.2489 458.934 22.696 458.214 22.696Z" fill="#725EFE"/>
<path d="M472.156 22.696C471.435 22.696 470.885 23.2914 470.885 23.9719C470.885 24.6948 471.478 25.2477 472.156 25.2477C472.876 25.2477 473.427 24.6523 473.427 23.9719C473.427 23.2489 472.876 22.696 472.156 22.696Z" fill="#725EFE"/>
<path d="M444.271 32.3499C443.551 32.3499 443 32.9452 443 33.6257C443 34.3486 443.593 34.9015 444.271 34.9015C444.992 34.9015 445.543 34.3061 445.543 33.6257C445.585 32.9452 444.992 32.3499 444.271 32.3499Z" fill="#725EFE"/>
<path d="M458.214 32.3499C457.493 32.3499 456.942 32.9452 456.942 33.6257C456.942 34.3486 457.536 34.9015 458.214 34.9015C458.934 34.9015 459.485 34.3061 459.485 33.6257C459.485 32.9452 458.934 32.3499 458.214 32.3499Z" fill="#725EFE"/>
<path d="M472.156 32.3499C471.435 32.3499 470.885 32.9452 470.885 33.6257C470.885 34.3486 471.478 34.9015 472.156 34.9015C472.876 34.9015 473.427 34.3061 473.427 33.6257C473.427 32.9452 472.876 32.3499 472.156 32.3499Z" fill="#725EFE"/>
<path d="M444.271 42.0459C443.551 42.0459 443 42.6413 443 43.3217C443 44.0447 443.593 44.5975 444.271 44.5975C444.992 44.5975 445.543 44.0021 445.543 43.3217C445.585 42.5987 444.992 42.0459 444.271 42.0459Z" fill="#725EFE"/>
<path d="M458.214 42.0459C457.493 42.0459 456.942 42.6413 456.942 43.3217C456.942 44.0447 457.536 44.5975 458.214 44.5975C458.934 44.5975 459.485 44.0021 459.485 43.3217C459.485 42.5987 458.934 42.0459 458.214 42.0459Z" fill="#725EFE"/>
<path d="M472.156 42.0459C471.435 42.0459 470.885 42.6413 470.885 43.3217C470.885 44.0447 471.478 44.5975 472.156 44.5975C472.876 44.5975 473.427 44.0021 473.427 43.3217C473.427 42.5987 472.876 42.0459 472.156 42.0459Z" fill="#725EFE"/>
</g>
<g clip-path="url(#clip1_2_369)">
<path d="M485.231 13C484.553 13 483.96 13.5954 483.96 14.2758C483.96 14.9988 484.553 15.5516 485.231 15.5516C485.952 15.5516 486.503 14.9562 486.503 14.2758C486.545 13.5954 485.952 13 485.231 13Z" fill="#725EFE"/>
<path d="M499.173 13C498.453 13 497.902 13.5954 497.902 14.2758C497.902 14.9988 498.495 15.5516 499.173 15.5516C499.894 15.5516 500.445 14.9562 500.445 14.2758C500.445 13.5954 499.894 13 499.173 13Z" fill="#725EFE"/>
<path d="M513.116 15.5941C513.836 15.5941 514.387 14.9987 514.387 14.3183C514.387 13.5953 513.794 13.0425 513.116 13.0425C512.395 13.0425 511.844 13.6379 511.844 14.3183C511.844 14.9987 512.395 15.5941 513.116 15.5941Z" fill="#725EFE"/>
<path d="M485.231 22.696C484.511 22.696 483.96 23.2914 483.96 23.9719C483.96 24.6948 484.553 25.2477 485.231 25.2477C485.952 25.2477 486.503 24.6523 486.503 23.9719C486.545 23.2489 485.952 22.696 485.231 22.696Z" fill="#725EFE"/>
<path d="M499.173 22.696C498.453 22.696 497.902 23.2914 497.902 23.9719C497.902 24.6948 498.495 25.2477 499.173 25.2477C499.894 25.2477 500.445 24.6523 500.445 23.9719C500.445 23.2489 499.894 22.696 499.173 22.696Z" fill="#725EFE"/>
<path d="M513.116 22.696C512.395 22.696 511.844 23.2914 511.844 23.9719C511.844 24.6948 512.438 25.2477 513.116 25.2477C513.836 25.2477 514.387 24.6523 514.387 23.9719C514.387 23.2489 513.836 22.696 513.116 22.696Z" fill="#725EFE"/>
<path d="M485.231 32.3499C484.511 32.3499 483.96 32.9452 483.96 33.6257C483.96 34.3486 484.553 34.9015 485.231 34.9015C485.952 34.9015 486.503 34.3061 486.503 33.6257C486.545 32.9452 485.952 32.3499 485.231 32.3499Z" fill="#725EFE"/>
<path d="M499.173 32.3499C498.453 32.3499 497.902 32.9452 497.902 33.6257C497.902 34.3486 498.495 34.9015 499.173 34.9015C499.894 34.9015 500.445 34.3061 500.445 33.6257C500.445 32.9452 499.894 32.3499 499.173 32.3499Z" fill="#725EFE"/>
<path d="M513.116 32.3499C512.395 32.3499 511.844 32.9452 511.844 33.6257C511.844 34.3486 512.438 34.9015 513.116 34.9015C513.836 34.9015 514.387 34.3061 514.387 33.6257C514.387 32.9452 513.836 32.3499 513.116 32.3499Z" fill="#725EFE"/>
<path d="M485.231 42.0459C484.511 42.0459 483.96 42.6413 483.96 43.3217C483.96 44.0447 484.553 44.5975 485.231 44.5975C485.952 44.5975 486.503 44.0021 486.503 43.3217C486.545 42.5987 485.952 42.0459 485.231 42.0459Z" fill="#725EFE"/>
<path d="M499.173 42.0459C498.453 42.0459 497.902 42.6413 497.902 43.3217C497.902 44.0447 498.495 44.5975 499.173 44.5975C499.894 44.5975 500.445 44.0021 500.445 43.3217C500.445 42.5987 499.894 42.0459 499.173 42.0459Z" fill="#725EFE"/>
<path d="M513.116 42.0459C512.395 42.0459 511.844 42.6413 511.844 43.3217C511.844 44.0447 512.438 44.5975 513.116 44.5975C513.836 44.5975 514.387 44.0021 514.387 43.3217C514.387 42.5987 513.836 42.0459 513.116 42.0459Z" fill="#725EFE"/>
</g>
<g clip-path="url(#clip2_2_369)">
<path d="M444.271 53.9597C443.593 53.9597 443 54.5551 443 55.2355C443 55.9585 443.593 56.5113 444.271 56.5113C444.992 56.5113 445.543 55.916 445.543 55.2355C445.585 54.5551 444.992 53.9597 444.271 53.9597Z" fill="#725EFE"/>
<path d="M458.214 53.9597C457.493 53.9597 456.942 54.5551 456.942 55.2355C456.942 55.9585 457.536 56.5113 458.214 56.5113C458.934 56.5113 459.485 55.916 459.485 55.2355C459.485 54.5551 458.934 53.9597 458.214 53.9597Z" fill="#725EFE"/>
<path d="M472.156 56.5538C472.876 56.5538 473.427 55.9584 473.427 55.278C473.427 54.555 472.834 54.0022 472.156 54.0022C471.435 54.0022 470.885 54.5976 470.885 55.278C470.885 55.9584 471.435 56.5538 472.156 56.5538Z" fill="#725EFE"/>
<path d="M444.271 63.6558C443.551 63.6558 443 64.2511 443 64.9316C443 65.6545 443.593 66.2074 444.271 66.2074C444.992 66.2074 445.543 65.612 445.543 64.9316C445.585 64.2086 444.992 63.6558 444.271 63.6558Z" fill="#725EFE"/>
<path d="M458.214 63.6558C457.493 63.6558 456.942 64.2511 456.942 64.9316C456.942 65.6545 457.536 66.2074 458.214 66.2074C458.934 66.2074 459.485 65.612 459.485 64.9316C459.485 64.2086 458.934 63.6558 458.214 63.6558Z" fill="#725EFE"/>
<path d="M472.156 63.6558C471.435 63.6558 470.885 64.2511 470.885 64.9316C470.885 65.6545 471.478 66.2074 472.156 66.2074C472.876 66.2074 473.427 65.612 473.427 64.9316C473.427 64.2086 472.876 63.6558 472.156 63.6558Z" fill="#725EFE"/>
<path d="M444.271 73.3096C443.551 73.3096 443 73.9049 443 74.5854C443 75.3083 443.593 75.8612 444.271 75.8612C444.992 75.8612 445.543 75.2658 445.543 74.5854C445.585 73.9049 444.992 73.3096 444.271 73.3096Z" fill="#725EFE"/>
<path d="M458.214 73.3096C457.493 73.3096 456.942 73.9049 456.942 74.5854C456.942 75.3083 457.536 75.8612 458.214 75.8612C458.934 75.8612 459.485 75.2658 459.485 74.5854C459.485 73.9049 458.934 73.3096 458.214 73.3096Z" fill="#725EFE"/>
<path d="M472.156 73.3096C471.435 73.3096 470.885 73.9049 470.885 74.5854C470.885 75.3083 471.478 75.8612 472.156 75.8612C472.876 75.8612 473.427 75.2658 473.427 74.5854C473.427 73.9049 472.876 73.3096 472.156 73.3096Z" fill="#725EFE"/>
<path d="M444.271 83.0056C443.551 83.0056 443 83.601 443 84.2814C443 85.0044 443.593 85.5572 444.271 85.5572C444.992 85.5572 445.543 84.9619 445.543 84.2814C445.585 83.5585 444.992 83.0056 444.271 83.0056Z" fill="#725EFE"/>
<path d="M458.214 83.0056C457.493 83.0056 456.942 83.601 456.942 84.2814C456.942 85.0044 457.536 85.5572 458.214 85.5572C458.934 85.5572 459.485 84.9619 459.485 84.2814C459.485 83.5585 458.934 83.0056 458.214 83.0056Z" fill="#725EFE"/>
<path d="M472.156 83.0056C471.435 83.0056 470.885 83.601 470.885 84.2814C470.885 85.0044 471.478 85.5572 472.156 85.5572C472.876 85.5572 473.427 84.9619 473.427 84.2814C473.427 83.5585 472.876 83.0056 472.156 83.0056Z" fill="#725EFE"/>
</g>
<g clip-path="url(#clip3_2_369)">
<path d="M485.231 53.9597C484.553 53.9597 483.96 54.5551 483.96 55.2355C483.96 55.9585 484.553 56.5113 485.231 56.5113C485.952 56.5113 486.503 55.916 486.503 55.2355C486.545 54.5551 485.952 53.9597 485.231 53.9597Z" fill="#725EFE"/>
<path d="M499.173 53.9597C498.453 53.9597 497.902 54.5551 497.902 55.2355C497.902 55.9585 498.495 56.5113 499.173 56.5113C499.894 56.5113 500.445 55.916 500.445 55.2355C500.445 54.5551 499.894 53.9597 499.173 53.9597Z" fill="#725EFE"/>
<path d="M513.116 56.5538C513.836 56.5538 514.387 55.9584 514.387 55.278C514.387 54.555 513.794 54.0022 513.116 54.0022C512.395 54.0022 511.844 54.5976 511.844 55.278C511.844 55.9584 512.395 56.5538 513.116 56.5538Z" fill="#725EFE"/>
<path d="M485.231 63.6558C484.511 63.6558 483.96 64.2511 483.96 64.9316C483.96 65.6545 484.553 66.2074 485.231 66.2074C485.952 66.2074 486.503 65.612 486.503 64.9316C486.545 64.2086 485.952 63.6558 485.231 63.6558Z" fill="#725EFE"/>
<path d="M499.173 63.6558C498.453 63.6558 497.902 64.2511 497.902 64.9316C497.902 65.6545 498.495 66.2074 499.173 66.2074C499.894 66.2074 500.445 65.612 500.445 64.9316C500.445 64.2086 499.894 63.6558 499.173 63.6558Z" fill="#725EFE"/>
<path d="M513.116 63.6558C512.395 63.6558 511.844 64.2511 511.844 64.9316C511.844 65.6545 512.438 66.2074 513.116 66.2074C513.836 66.2074 514.387 65.612 514.387 64.9316C514.387 64.2086 513.836 63.6558 513.116 63.6558Z" fill="#725EFE"/>
<path d="M485.231 73.3096C484.511 73.3096 483.96 73.9049 483.96 74.5854C483.96 75.3083 484.553 75.8612 485.231 75.8612C485.952 75.8612 486.503 75.2658 486.503 74.5854C486.545 73.9049 485.952 73.3096 485.231 73.3096Z" fill="#725EFE"/>
<path d="M499.173 73.3096C498.453 73.3096 497.902 73.9049 497.902 74.5854C497.902 75.3083 498.495 75.8612 499.173 75.8612C499.894 75.8612 500.445 75.2658 500.445 74.5854C500.445 73.9049 499.894 73.3096 499.173 73.3096Z" fill="#725EFE"/>
<path d="M513.116 73.3096C512.395 73.3096 511.844 73.9049 511.844 74.5854C511.844 75.3083 512.438 75.8612 513.116 75.8612C513.836 75.8612 514.387 75.2658 514.387 74.5854C514.387 73.9049 513.836 73.3096 513.116 73.3096Z" fill="#725EFE"/>
<path d="M485.231 83.0056C484.511 83.0056 483.96 83.601 483.96 84.2814C483.96 85.0044 484.553 85.5572 485.231 85.5572C485.952 85.5572 486.503 84.9619 486.503 84.2814C486.545 83.5585 485.952 83.0056 485.231 83.0056Z" fill="#725EFE"/>
<path d="M499.173 83.0056C498.453 83.0056 497.902 83.601 497.902 84.2814C497.902 85.0044 498.495 85.5572 499.173 85.5572C499.894 85.5572 500.445 84.9619 500.445 84.2814C500.445 83.5585 499.894 83.0056 499.173 83.0056Z" fill="#725EFE"/>
<path d="M513.116 83.0056C512.395 83.0056 511.844 83.601 511.844 84.2814C511.844 85.0044 512.438 85.5572 513.116 85.5572C513.836 85.5572 514.387 84.9619 514.387 84.2814C514.387 83.5585 513.836 83.0056 513.116 83.0056Z" fill="#725EFE"/>
</g>
<path d="M59.8015 369.526H59.7375C59.4175 369.494 52.1543 368.597 44.7951 365.589C34.7802 361.492 29.5327 355.378 29.6607 347.953C29.8527 337.39 34.4602 334.606 38.2038 332.365C40.6995 330.861 42.6833 329.676 43.1313 326.444C43.3232 325.163 43.1632 324.267 42.7153 323.691C41.8834 322.603 39.7396 322.411 37.2439 322.155C33.3723 321.771 28.5408 321.29 25.5651 317.033C23.0374 313.449 22.1735 309.576 23.1014 305.799C24.0293 301.894 26.813 298.405 30.5246 296.453C32.1564 295.589 32.3164 295.076 32.3164 294.98C32.3804 294.372 30.8446 293.06 29.5007 291.908C28.2849 290.883 26.941 289.699 25.5971 288.259C22.6855 285.058 23.3254 280.097 25.2452 276.576C27.101 273.183 30.8126 269.823 35.7081 270.687C44.7631 272.255 46.4269 280.161 46.8748 287.683C46.9708 289.219 47.2588 290.211 47.7708 290.659C48.3787 291.204 49.5626 291.108 51.0664 290.979C53.1142 290.819 55.6739 290.627 58.3936 291.94C61.5293 293.444 63.865 296.645 64.6969 300.518C65.5608 304.615 64.6009 308.776 62.1372 311.656C60.8893 313.129 59.5455 315.241 60.2174 317.066C60.9213 318.954 63.705 320.394 68.0886 321.066C70.7123 321.483 75.0958 323.019 79.6073 326.06C83.0949 328.428 87.7984 332.525 90.2302 338.575C91.926 342.735 92.3419 347.249 91.414 351.986C90.3902 357.363 87.6704 363.028 83.3189 368.886L82.9669 369.334L59.8015 369.526ZM34.2042 272.767C31.0366 272.767 28.5728 275.168 27.229 277.6C25.4052 280.929 25.4372 284.674 27.261 286.658C28.5088 288.003 29.8207 289.123 30.9726 290.115C33.0843 291.94 34.7802 293.38 34.5882 295.172C34.3962 296.741 32.7964 297.765 31.5805 298.405C28.4768 300.038 26.0771 303.046 25.3092 306.247C24.5733 309.352 25.2772 312.616 27.4209 315.657C29.8207 319.05 33.8842 319.466 37.4679 319.818C40.3476 320.106 43.0353 320.362 44.5071 322.219C45.371 323.307 45.659 324.779 45.371 326.668C44.7631 330.989 42.0114 332.653 39.3557 334.222C35.772 336.366 32.0604 338.574 31.9325 347.889C31.6765 363.252 58.3616 366.965 59.9294 367.189L81.8471 366.965C89.3023 356.723 91.414 347.409 88.1184 339.311C83.9268 329.004 72.3441 323.915 67.7046 323.179C62.3292 322.315 59.0975 320.49 58.0736 317.706C57.4977 316.137 57.4337 313.513 60.4094 310.024C62.4252 307.655 63.1931 304.231 62.4892 300.838C61.8172 297.669 59.9294 295.044 57.4337 293.828C55.2899 292.804 53.1462 292.964 51.2584 293.092C49.3706 293.22 47.6108 293.38 46.2989 292.228C45.307 291.364 44.7631 289.891 44.6351 287.683C44.1551 279.617 42.3953 274.016 35.3241 272.799C34.9401 272.799 34.5562 272.767 34.2042 272.767Z" fill="#A9C5ED"/>
<path d="M106.101 367.669C109.428 363.7 114.708 355.539 108.564 348.817C100.085 339.567 104.597 335.758 108.468 332.685C112.34 329.613 114.836 320.779 105.397 317.642C95.9576 314.505 104.821 307.239 103.061 302.214C101.333 297.189 90.4862 298.853 92.31 308.136C94.1338 317.418 90.6782 317.066 86.3266 320.554C81.9751 324.043 82.935 331.789 87.3505 335.662C91.0301 338.927 89.0783 342.544 84.6308 346.448C80.4713 350.097 77.7836 355.411 77.3676 361.172C77.1756 363.861 77.4956 365.941 77.9755 366.709L106.101 367.669Z" fill="#E6EBFE"/>
<path d="M95.2537 367.445C95.2217 367.445 95.1897 367.445 95.1577 367.445C94.7737 367.381 94.4858 367.029 94.5498 366.613C100.053 328.204 97.0775 300.294 97.0455 300.006C97.0135 299.622 97.3015 299.238 97.6854 299.206C98.0694 299.174 98.4533 299.462 98.4853 299.846C98.5173 300.134 101.493 328.204 95.9896 366.805C95.9256 367.189 95.6056 367.445 95.2537 367.445Z" fill="white"/>
<path d="M719.666 369.43H299.807C298.944 369.43 298.272 368.725 298.272 367.893C298.272 367.061 298.976 366.357 299.807 366.357H719.634C720.498 366.357 721.17 367.061 721.17 367.893C721.17 368.725 720.498 369.43 719.666 369.43Z" fill="#A9C5ED"/>
<path d="M120.659 369.43H51.3863C50.5224 369.43 49.8505 368.725 49.8505 367.893C49.8505 367.061 50.5544 366.357 51.3863 366.357H120.627C121.491 366.357 122.163 367.061 122.163 367.893C122.163 368.725 121.523 369.43 120.659 369.43Z" fill="#A9C5ED"/>
<path d="M39.5476 369.43H21.2775C20.4136 369.43 19.7417 368.725 19.7417 367.893C19.7417 367.061 20.4456 366.357 21.2775 366.357H39.5476C40.4115 366.357 41.0834 367.061 41.0834 367.893C41.0834 368.725 40.4115 369.43 39.5476 369.43Z" fill="#A9C5ED"/>
<path d="M427.41 302.694H420.723V374.967H427.41V302.694Z" fill="#EAB53F"/>
<path d="M450.831 310.28H397.301C393.782 310.28 390.87 307.399 390.87 303.847C390.87 300.326 393.75 297.413 397.301 297.413H450.831C454.351 297.413 457.263 300.294 457.263 303.847C457.263 307.399 454.351 310.28 450.831 310.28Z" fill="#FFCE58"/>
<path d="M469.006 257.532H435.025C427.25 257.532 421.395 250.426 422.867 242.776L428.402 214.034C429.522 208.208 434.641 203.983 440.561 203.983H473.517C481.132 203.983 486.924 210.801 485.772 218.323L481.228 247.033C480.3 253.083 475.085 257.532 469.006 257.532Z" fill="#FFCE58"/>
<path d="M453.648 229.238L423.668 301.175L430.903 304.192L460.884 232.255L453.648 229.238Z" fill="#FFCE58"/>
<path d="M449.552 377.656H398.581C397.333 377.656 396.277 376.631 396.277 375.351C396.277 374.103 397.301 373.047 398.581 373.047H449.552C450.8 373.047 451.855 374.071 451.855 375.351C451.855 376.599 450.8 377.656 449.552 377.656Z" fill="#EAB53F"/>
<path d="M406.772 388.058C409.653 388.058 411.988 385.722 411.988 382.841C411.988 379.96 409.653 377.624 406.772 377.624C403.892 377.624 401.557 379.96 401.557 382.841C401.557 385.722 403.892 388.058 406.772 388.058Z" fill="#EAB53F"/>
<path d="M442.352 388.058C445.233 388.058 447.568 385.722 447.568 382.841C447.568 379.96 445.233 377.624 442.352 377.624C439.472 377.624 437.137 379.96 437.137 382.841C437.137 385.722 439.472 388.058 442.352 388.058Z" fill="#EAB53F"/>
<path d="M469.102 258.14C469.038 258.14 469.006 258.14 469.006 258.14H443.344C442.992 258.14 442.736 257.852 442.736 257.532C442.736 257.18 443.024 256.924 443.344 256.924H469.038C469.07 256.924 471.405 256.988 473.997 255.771C477.421 254.171 479.66 251.194 480.684 246.937L483.148 231.35C483.212 230.998 483.532 230.774 483.852 230.838C484.204 230.902 484.428 231.222 484.364 231.542L481.9 247.161V247.193C480.524 253.019 477.101 255.675 474.477 256.892C471.885 258.076 469.613 258.14 469.102 258.14Z" fill="#CE8D19"/>
<path d="M484.332 228.053C484.3 228.053 484.268 228.053 484.236 228.053C483.884 227.989 483.66 227.669 483.724 227.349L484.652 221.395C484.716 221.043 485.036 220.819 485.356 220.883C485.708 220.947 485.932 221.267 485.868 221.587L484.94 227.541C484.876 227.829 484.62 228.053 484.332 228.053Z" fill="#CE8D19"/>
<path d="M432.177 207.856C432.017 207.856 431.826 207.792 431.698 207.632C431.474 207.376 431.506 206.992 431.762 206.768C431.922 206.64 435.825 203.343 440.529 203.343H457.231C457.583 203.343 457.839 203.631 457.839 203.951C457.839 204.303 457.551 204.56 457.231 204.56H440.529C436.273 204.56 432.593 207.664 432.561 207.664C432.465 207.824 432.337 207.856 432.177 207.856Z" fill="#CE8D19"/>
<path d="M468.142 204.592H460.238C459.887 204.592 459.631 204.303 459.631 203.983C459.631 203.631 459.919 203.375 460.238 203.375H468.142C468.494 203.375 468.75 203.663 468.75 203.983C468.75 204.335 468.494 204.592 468.142 204.592Z" fill="#CE8D19"/>
<path d="M452.431 310.888H395.701C394.134 310.888 392.854 310.408 391.926 309.416C390.198 307.624 390.262 304.903 390.262 304.775C390.262 304.423 390.55 304.167 390.902 304.167C391.254 304.167 391.51 304.455 391.51 304.807C391.51 304.871 391.478 307.175 392.822 308.552C393.526 309.256 394.486 309.64 395.701 309.64H452.399C452.783 309.608 456.751 309.064 456.623 305.447C456.623 305.447 456.623 305.447 456.623 305.415V304.775C456.623 304.423 456.911 304.167 457.231 304.167C457.583 304.167 457.839 304.455 457.839 304.775V305.415C457.967 309.32 454.383 310.696 452.463 310.856C452.463 310.888 452.463 310.888 452.431 310.888Z" fill="#CE8D19"/>
<path d="M396.277 375.959C396.213 375.959 396.181 375.959 396.117 375.927C395.797 375.831 395.573 375.511 395.669 375.191C395.893 374.231 396.885 372.406 398.933 372.406H449.2C450.192 372.439 452.143 373.047 452.463 375.223C452.527 375.575 452.271 375.863 451.951 375.927C451.599 375.991 451.311 375.735 451.247 375.415C450.992 373.719 449.264 373.655 449.2 373.655H398.933C397.333 373.655 396.885 375.447 396.885 375.479C396.821 375.767 396.565 375.959 396.277 375.959Z" fill="#CE8D19"/>
<path d="M733.457 228.053C733.169 228.053 732.881 227.829 732.849 227.541L731.921 221.587C731.857 221.235 732.113 220.947 732.433 220.883C732.785 220.819 733.073 221.075 733.137 221.395L734.065 227.349C734.129 227.701 733.873 227.989 733.553 228.053C733.521 228.021 733.489 228.053 733.457 228.053Z" fill="#CE8D19"/>
<path d="M757.518 204.591H749.615C749.263 204.591 749.007 204.303 749.007 203.983C749.007 203.631 749.295 203.375 749.615 203.375H757.518C757.87 203.375 758.126 203.663 758.126 203.983C758.158 204.335 757.87 204.591 757.518 204.591Z" fill="#CE8D19"/>
<path d="M261.86 297.413H255.525V365.973H261.86V297.413Z" fill="#EAB53F"/>
<path d="M284.097 304.583H233.287C229.927 304.583 227.208 301.83 227.208 298.501C227.208 295.141 229.959 292.42 233.287 292.42H284.065C287.425 292.42 290.145 295.173 290.145 298.501C290.177 301.862 287.425 304.583 284.097 304.583Z" fill="#FFCE58"/>
<path d="M301.312 254.555H269.091C261.7 254.555 256.165 247.833 257.54 240.568L262.788 213.329C263.844 207.792 268.707 203.791 274.339 203.791H305.599C312.83 203.791 318.334 210.257 317.214 217.394L312.926 244.601C312.03 250.33 307.103 254.555 301.312 254.555Z" fill="#FFCE58"/>
<path d="M286.557 227.635L258.116 295.879L265.351 298.896L293.793 230.652L286.557 227.635Z" fill="#FFCE58"/>
<path d="M282.882 368.501H234.503C233.319 368.501 232.327 367.509 232.327 366.325C232.327 365.141 233.319 364.148 234.503 364.148H282.85C284.033 364.148 285.025 365.141 285.025 366.325C285.057 367.509 284.065 368.501 282.882 368.501Z" fill="#EAB53F"/>
<path d="M242.278 378.36C244.999 378.36 247.205 376.153 247.205 373.431C247.205 370.708 244.999 368.501 242.278 368.501C239.557 368.501 237.351 370.708 237.351 373.431C237.351 376.153 239.557 378.36 242.278 378.36Z" fill="#EAB53F"/>
<path d="M276.034 378.36C278.756 378.36 280.962 376.153 280.962 373.431C280.962 370.708 278.756 368.501 276.034 368.501C273.313 368.501 271.107 370.708 271.107 373.431C271.107 376.153 273.313 378.36 276.034 378.36Z" fill="#EAB53F"/>
<path d="M301.408 255.163C301.344 255.163 301.312 255.163 301.312 255.163H276.962C276.61 255.163 276.354 254.875 276.354 254.555C276.354 254.203 276.642 253.947 276.962 253.947H301.312C301.696 253.947 310.015 254.075 312.318 244.505L314.654 229.717C314.718 229.365 315.038 229.141 315.358 229.205C315.71 229.269 315.934 229.589 315.87 229.909L313.534 244.729V244.761C312.222 250.298 308.959 252.827 306.463 253.979C304.063 255.099 301.888 255.163 301.408 255.163Z" fill="#CE8D19"/>
<path d="M315.838 226.612C315.806 226.612 315.774 226.612 315.742 226.612C315.39 226.548 315.166 226.228 315.23 225.908L316.126 220.275C316.19 219.923 316.51 219.699 316.83 219.763C317.182 219.827 317.406 220.147 317.342 220.467L316.446 226.1C316.414 226.42 316.126 226.612 315.838 226.612Z" fill="#CE8D19"/>
<path d="M266.403 207.504C266.243 207.504 266.051 207.44 265.923 207.28C265.699 207.024 265.731 206.64 265.987 206.416C266.147 206.288 269.859 203.183 274.339 203.183H290.177C290.529 203.183 290.785 203.471 290.785 203.791C290.785 204.143 290.497 204.399 290.177 204.399H274.339C270.307 204.399 266.819 207.312 266.787 207.344C266.691 207.44 266.531 207.504 266.403 207.504Z" fill="#CE8D19"/>
<path d="M300.512 204.399H293.025C292.673 204.399 292.417 204.111 292.417 203.791C292.417 203.439 292.705 203.183 293.025 203.183H300.512C300.864 203.183 301.12 203.471 301.12 203.791C301.12 204.111 300.832 204.399 300.512 204.399Z" fill="#CE8D19"/>
<path d="M285.601 305.223H231.783C230.279 305.223 229.063 304.743 228.168 303.814C226.536 302.118 226.568 299.493 226.6 299.397C226.6 299.045 226.888 298.789 227.24 298.789C227.592 298.789 227.848 299.077 227.848 299.429C227.848 299.461 227.816 301.638 229.095 302.95C229.735 303.622 230.663 303.975 231.815 303.975H285.601C285.985 303.943 289.697 303.43 289.569 300.038C289.569 300.038 289.569 300.038 289.569 300.006V299.397C289.569 299.045 289.857 298.789 290.177 298.789C290.529 298.789 290.785 299.077 290.785 299.397V300.006C290.913 303.718 287.489 305.031 285.665 305.191C285.633 305.223 285.633 305.223 285.601 305.223Z" fill="#CE8D19"/>
<path d="M232.359 366.933C232.327 366.933 232.263 366.933 232.199 366.901C231.879 366.805 231.655 366.485 231.751 366.165C231.975 365.237 232.903 363.508 234.855 363.508H282.53C283.49 363.54 285.345 364.148 285.665 366.197C285.729 366.549 285.473 366.837 285.153 366.901C284.801 366.965 284.513 366.709 284.449 366.389C284.225 364.821 282.594 364.757 282.53 364.757H234.855C233.383 364.757 232.967 366.453 232.935 366.453C232.871 366.741 232.615 366.933 232.359 366.933Z" fill="#CE8D19"/>
<path d="M342.491 174.056C342.491 174.056 343.643 171.432 343.835 169.959C344.027 168.487 344.123 167.014 344.986 165.702C345.85 164.39 347.098 163.43 348.506 162.181C349.946 160.933 350.618 164.486 351.738 166.758C352.89 169.031 351.994 172.104 351.098 173.064C350.202 174.024 348.954 173.352 347.386 174.024C345.818 174.696 342.971 176.937 342.491 174.056Z" fill="#AACFE5"/>
<path d="M362.265 184.042C362.265 184.042 353.722 190.092 346.97 210.481C340.443 230.101 340.891 230.901 339.323 226.132C339.259 218.354 343.515 193.389 345.562 186.507C347.61 179.625 350.202 174.056 350.202 174.056L341.307 171.88C341.307 171.88 316.126 227.893 329.308 245.433C342.491 262.973 372.568 213.297 376.567 205.583C380.567 197.838 387.446 173.896 362.265 184.042Z" fill="#EFF1F4"/>
<path d="M349.882 384.249V394.267H323.037C323.037 394.267 325.469 388.122 332.06 387.45C338.651 386.777 342.299 387.514 344.027 384.249C345.754 380.984 349.882 384.249 349.882 384.249Z" fill="#222663"/>
<path d="M397.461 386.938V394.267H368.728C368.728 394.267 371.352 388.122 378.391 387.45C385.43 386.778 389.366 387.514 391.19 384.249C393.013 380.984 397.461 386.938 397.461 386.938Z" fill="#222663"/>
<path d="M347.578 289.699L386.966 386.586H397.429L374.775 286.658C374.807 286.658 358.489 263.933 347.578 289.699Z" fill="#1E2354"/>
<path d="M437.489 268.254C437.489 268.254 443.152 284.386 434.161 297.157H348.73L349.818 386.265L340.123 386.586C340.123 386.586 318.621 296.709 321.821 283.362C325.053 270.014 336.731 266.59 355.737 265.181C374.743 263.773 387.094 261.853 401.14 260.124C415.187 258.364 429.969 260.22 437.489 268.254Z" fill="#222663"/>
<path d="M358.873 197.806C357.657 191.02 360.409 184.075 365.56 181.098C371.064 177.929 378.359 174.696 384.47 175.465C395.957 176.905 411.891 188.652 423.378 216.466C434.865 244.281 438.736 272.479 438.736 272.479C431.025 268.03 413.971 261.244 395.253 261.02C395.221 261.052 365.848 236.631 358.873 197.806Z" fill="#EFF1F4"/>
<path d="M381.367 182.698C381.367 182.698 368.92 228.533 365.944 231.83C362.969 235.126 318.717 240.248 318.717 240.248V248.73C318.717 248.73 378.135 250.394 379.479 248.73C380.823 247.065 399.221 208.272 402.196 201.999C405.172 195.693 403.828 173.832 381.367 182.698Z" fill="#EFF1F4"/>
<path d="M372.664 160.549C373.047 170.663 364.024 178.889 357.177 178.889C349.946 178.281 346.106 170.183 346.426 160.549C346.746 150.435 353.754 142.817 360.537 142.209C367.032 141.633 372.28 149.795 372.664 160.549Z" fill="#BBD4EA"/>
<path d="M362.745 171.4L369.432 184.619C369.432 184.619 375.735 184.587 378.743 180.042L371.64 166.118L362.745 170.791V171.4Z" fill="#BBD4EA"/>
<path d="M321.085 241.656C321.085 241.656 316.382 241.688 314.654 241.08C312.926 240.44 307.295 240.92 305.567 242.36C303.839 243.8 300.575 247.161 299.999 248.217C299.391 249.274 300.735 250.074 301.279 249.53C301.823 248.986 304.575 245.401 306.111 245.241C307.647 245.113 311.742 245.145 311.774 245.817C311.806 246.489 308.414 247.161 307.423 247.801C306.431 248.409 306.463 249.402 307.007 249.402C307.551 249.402 310.398 248.569 311.326 248.665C312.254 248.761 314.974 249.21 316.126 249.178C317.278 249.146 320.381 246.297 321.693 246.041C322.973 245.785 325.053 242.616 321.085 241.656Z" fill="#BBD4EA"/>
<path d="M391.094 249.466C390.262 249.562 389.398 249.178 388.95 248.409C377.815 229.653 371.64 214.258 369.048 201.487C367.064 191.724 368.6 188.235 368.792 187.755L369.56 188.203L370.168 188.107C370.168 188.139 370.328 192.364 372.28 201.391C374.071 209.744 379.511 223.796 392.757 246.137C393.365 247.193 393.045 248.537 391.989 249.146C391.701 249.338 391.413 249.434 391.094 249.466Z" fill="#FFCE58"/>
<path d="M376.663 199.502C376.663 199.502 367.992 230.773 365.944 231.83C363.896 232.854 347.002 236.823 318.717 240.248V248.73C318.717 248.73 377.655 250.01 379.479 248.73C381.303 247.449 398.165 210.513 398.165 210.513L376.663 199.502Z" fill="#EFF1F4"/>
<path d="M362.841 249.69C359.001 249.69 354.234 249.658 348.41 249.594C333.628 249.434 318.845 249.114 318.717 249.114H318.301V239.863L318.653 239.831C346.874 236.407 363.768 232.438 365.752 231.446C366.04 231.285 367.256 229.589 371.704 215.058C374.071 207.248 376.247 199.47 376.247 199.406C376.311 199.182 376.535 199.054 376.759 199.118C376.983 199.182 377.111 199.406 377.047 199.63C377.015 199.694 374.839 207.536 372.472 215.41C367.576 231.478 366.552 231.99 366.136 232.214C364.056 233.27 347.61 237.175 319.133 240.632V248.313C342.523 248.826 377.559 249.242 379.255 248.377C380.535 247.417 391.062 225.108 397.781 210.321C397.877 210.129 398.133 210.033 398.325 210.129C398.517 210.225 398.613 210.481 398.517 210.673C396.789 214.45 381.559 247.769 379.703 249.082C379.447 249.242 378.775 249.69 362.841 249.69Z" fill="#222663"/>
<path d="M434.417 297.573H348.666L344.379 295.076C344.187 294.948 344.123 294.724 344.219 294.5C344.347 294.308 344.571 294.244 344.795 294.34L348.89 296.709H434.001C441.616 285.09 438.352 273.535 438.32 273.407C438.256 273.183 438.384 272.959 438.608 272.895C438.832 272.831 439.056 272.959 439.12 273.183C439.152 273.311 440.016 276.256 439.888 280.705C439.76 284.834 438.768 291.043 434.577 297.317L434.417 297.573Z" fill="#0F6FD5"/>
<path d="M350.17 387.002C349.946 387.002 349.754 386.809 349.754 386.585L348.698 296.357L345.082 297.253C344.859 297.317 344.635 297.189 344.571 296.965C344.507 296.741 344.635 296.517 344.859 296.453L349.466 295.3L350.522 386.585C350.586 386.809 350.394 387.002 350.17 387.002Z" fill="#0F6FD5"/>
<path d="M366.36 159.237C365.848 159.685 365.08 159.461 365.016 158.789C364.888 157.38 364.408 155.62 363.033 154.244C360.377 151.555 348.378 151.363 345.978 143.745C343.579 136.095 349.114 130.942 349.498 132.286C349.882 133.631 348.346 135.679 351.226 136.928C354.106 138.208 365.368 135.519 369.944 141.057C374.519 146.594 378.647 152.355 375.671 159.397C372.696 166.438 372.056 169.927 368.216 171.432C364.408 172.936 364.376 170.471 365.848 168.903C367.32 167.335 370.872 164.966 371.384 162.149C371.896 159.333 370.136 155.876 366.36 159.237Z" fill="#222663"/>
<path d="M372.152 186.539C372.152 187.595 371.032 188.46 369.688 188.46C368.312 188.46 367.224 187.595 367.224 186.539C367.224 185.483 368.344 184.587 369.688 184.587C371.032 184.619 372.152 185.483 372.152 186.539Z" fill="#FFCE58"/>
<path d="M370.296 165.414C368.984 169.063 365.496 171.144 362.489 170.087C359.481 169.031 358.073 165.19 359.385 161.541C360.697 157.893 364.184 155.812 367.192 156.868C370.2 157.925 371.608 161.765 370.296 165.414Z" fill="#1D2256"/>
<path d="M369.022 164.986C370.335 161.344 369.108 157.565 366.282 156.546C363.456 155.527 360.101 157.652 358.788 161.294C357.476 164.936 358.702 168.715 361.528 169.734C364.354 170.753 367.709 168.627 369.022 164.986Z" fill="#222663"/>
<path d="M364.28 163.462C363.768 163.462 363.289 163.142 363.097 162.63C362.873 161.989 363.225 161.285 363.864 161.061C363.992 160.997 369.88 158.597 371.672 144.225C371.768 143.553 372.376 143.073 373.047 143.137C373.719 143.233 374.199 143.841 374.135 144.513C372.12 160.709 364.984 163.302 364.664 163.398C364.536 163.43 364.408 163.462 364.28 163.462Z" fill="#222663"/>
<path d="M351.514 171.72C351.386 171.72 351.258 171.72 351.098 171.72C350.874 171.72 350.682 171.528 350.682 171.304C350.682 171.079 350.874 170.887 351.098 170.887C359.097 171.047 363.001 166.598 363.065 166.534C363.225 166.374 363.481 166.342 363.64 166.502C363.8 166.662 363.832 166.919 363.672 167.079C363.544 167.271 359.641 171.72 351.514 171.72Z" fill="#222663"/>
<path d="M351.962 171.336C351.93 171.976 351.034 172.456 349.978 172.392C348.922 172.328 348.09 171.752 348.122 171.08C348.154 170.439 349.05 169.959 350.106 170.023C351.162 170.119 351.994 170.695 351.962 171.336Z" fill="#222663"/>
<path d="M362.713 170.119C362.425 170.119 362.233 170.087 362.233 170.087C362.105 170.087 362.041 169.959 362.041 169.863C362.041 169.735 362.169 169.671 362.265 169.671C362.297 169.671 365.624 170.055 367.512 167.271C367.576 167.175 367.704 167.143 367.8 167.207C367.896 167.271 367.928 167.399 367.864 167.495C366.264 169.863 363.768 170.119 362.713 170.119Z" fill="#0F6FD5"/>
<path d="M368.408 166.535C368.376 166.535 368.344 166.535 368.312 166.503C368.216 166.439 368.184 166.31 368.216 166.214C368.216 166.214 368.856 164.998 369.016 164.262C369.048 164.166 369.144 164.07 369.272 164.102C369.368 164.134 369.464 164.23 369.432 164.358C369.24 165.158 368.6 166.374 368.6 166.407C368.536 166.503 368.472 166.535 368.408 166.535Z" fill="#0F6FD5"/>
<path d="M369.496 163.174H369.464C369.368 163.142 369.272 163.046 369.304 162.918C369.56 161.637 368.984 159.781 368.984 159.749C368.952 159.653 369.016 159.525 369.112 159.493C369.208 159.461 369.336 159.525 369.368 159.621C369.4 159.717 369.944 161.605 369.688 162.982C369.688 163.11 369.592 163.174 369.496 163.174Z" fill="#0F6FD5"/>
<path d="M164.846 227.445C164.846 227.445 160.751 227.861 159.183 227.445C157.647 227.029 152.751 227.893 151.376 229.301C149.968 230.709 147.408 233.878 146.992 234.87C146.576 235.831 147.792 236.439 148.208 235.927C148.624 235.415 150.736 232.054 152.08 231.798C153.423 231.542 156.975 231.254 157.039 231.83C157.103 232.406 154.223 233.27 153.391 233.91C152.591 234.518 152.687 235.383 153.135 235.319C153.615 235.254 156.015 234.326 156.847 234.326C157.679 234.326 160.079 234.518 161.071 234.39C162.094 234.262 164.558 231.542 165.678 231.222C166.83 230.901 168.398 227.957 164.846 227.445Z" fill="#BBD4EA"/>
<path d="M223.208 168.519C220.008 169.447 216.425 171.784 214.985 174.952C209.865 186.155 201.93 217.266 199.498 219.699C196.427 222.772 164.046 226.773 164.046 226.773L163.918 233.622C163.918 233.622 207.21 236.727 209.353 236.023C212.041 235.671 228.167 206.768 232.135 198.67C235.846 191.116 248.261 161.253 223.208 168.519Z" fill="white"/>
<path d="M163.246 363.156V370.774H141.681C141.681 370.774 143.632 366.101 148.944 365.589C154.255 365.077 157.167 365.653 158.543 363.156C159.919 360.692 163.246 363.156 163.246 363.156Z" fill="#222663"/>
<path d="M214.601 363.412V370.742H193.035C193.035 370.742 194.987 366.229 200.298 365.749C205.61 365.237 208.521 365.813 209.897 363.412C211.273 361.044 214.601 363.412 214.601 363.412Z" fill="#222663"/>
<path d="M263.172 292.516H231.623C231.623 292.516 213.513 283.074 203.21 278.593C192.907 274.144 197.099 278.145 197.099 278.145L163.214 365.237L155.855 365.045C153.999 365.045 175.885 276.672 178.349 269.663C180.812 262.653 183.628 254.267 197.099 254.043C210.569 253.819 263.172 292.516 263.172 292.516Z" fill="#5642E0"/>
<path d="M281.698 257.756C281.698 257.756 284.833 263.965 282.977 272.607C281.122 281.249 271.971 296.389 254.596 291.844C237.222 287.299 209.321 275.776 209.321 275.776L214.665 365.333L207.274 365.269C207.274 365.269 186.892 274.816 186.956 269.599C187.02 264.381 185.228 250.298 200.362 248.442C215.497 246.617 281.698 257.756 281.698 257.756Z" fill="#725EFE"/>
<path d="M221.032 156.932L226.312 167.111L235.591 162.854L228.295 149.091L221.032 156.932Z" fill="#A1C6E1"/>
<path d="M211.785 192.461C211.049 183.275 214.697 169.639 224.168 166.439C225.352 166.055 227.495 165.574 228.839 165.254C241.222 162.63 251.333 161.221 260.996 178.441C270.659 195.661 281.922 250.586 283.905 264.189C264.291 256.7 258.02 253.115 244.966 251.354C244.966 251.354 231.111 228.597 224.296 220.499C218.984 214.13 212.905 206.448 211.785 192.461Z" fill="#EFF1F4"/>
<path d="M232.871 144.225C229.927 153.636 223.432 161.285 217.448 161.285C210.601 161.285 208.042 155.556 208.042 144.225C208.042 134.815 215.561 127.166 222.44 127.166C229.319 127.166 235.655 135.327 232.871 144.225Z" fill="#BBD4EA"/>
<path d="M207.242 236.503C197.995 236.503 165.422 234.134 163.886 234.006C163.662 233.974 163.502 233.782 163.502 233.558C163.534 233.334 163.726 233.174 163.95 233.174C164.366 233.206 205.866 236.215 209.257 235.574C209.961 235.446 212.041 233.654 218.152 223.252C222.152 216.434 226.535 208.208 229.767 202.191C230.503 200.814 231.175 199.534 231.783 198.446C231.879 198.254 232.135 198.158 232.327 198.286C232.519 198.382 232.615 198.638 232.487 198.83C231.879 199.918 231.207 201.198 230.471 202.575C221.512 219.347 212.489 235.799 209.417 236.375C209.065 236.471 208.329 236.503 207.242 236.503Z" fill="#222663"/>
<path d="M259.3 189.74C264.259 184.779 261.476 178.089 257.252 174.953C253.061 171.816 256.548 165.606 256.42 160.645C256.292 155.684 250.117 153.764 246.181 156.132C242.246 158.501 234.791 155.204 236.006 149.475C237.222 143.713 234.791 133.535 234.791 133.535L234.983 133.631C232.007 128.158 225.832 124.061 212.841 126.397C212.841 126.397 206.666 127.39 207.274 134.623C207.882 141.889 215.689 143.585 218.568 143.713C221.448 143.841 227.175 148.739 223.336 155.204C219.528 161.67 215.401 167.559 220.232 174.44C225.064 181.29 234.567 180.01 237.254 185.835C238.022 188.332 235.559 189.516 236.134 194.445L241.126 200.27C248.421 207.632 254.341 194.701 259.3 189.74Z" fill="#FFCE58"/>
<path d="M236.806 196.109C239.366 202.255 245.477 206.032 251.973 205.328C256.708 204.815 261.764 203.055 264.803 199.95C271.107 193.453 274.146 181.098 271.107 174.44C268.067 167.783 260.068 167.015 260.228 163.654C260.388 160.293 260.42 154.692 255.876 151.939C251.365 149.187 238.598 155.204 238.022 149.123C237.734 146.05 237.99 139.136 234.983 133.599L234.791 133.503C234.791 133.503 237.19 143.713 236.006 149.443C234.791 155.204 242.246 158.469 246.181 156.1C250.117 153.732 256.292 155.652 256.42 160.613C256.548 165.574 253.029 171.784 257.252 174.921C261.444 178.057 264.259 184.715 259.3 189.708C254.341 194.669 247.909 206 240.614 198.638L236.134 194.413C236.39 195.053 236.614 195.597 236.806 196.109Z" fill="#EAB53F"/>
<path d="M230.19 150.577C231.141 146.769 229.424 143.061 226.355 142.294C223.286 141.528 220.027 143.993 219.077 147.8C218.126 151.608 219.844 155.316 222.913 156.082C225.981 156.849 229.24 154.384 230.19 150.577Z" fill="#1D2256"/>
<path d="M228.898 150.22C229.875 146.42 228.337 142.739 225.462 141.999C222.587 141.258 219.463 143.74 218.486 147.54C217.508 151.341 219.046 155.022 221.922 155.762C224.797 156.502 227.92 154.021 228.898 150.22Z" fill="#222663"/>
<path d="M224.488 149.091L223.496 146.818H223.464C223.528 146.786 229.255 143.873 230.087 128.414C230.119 127.742 230.727 127.198 231.399 127.23C232.071 127.262 232.615 127.838 232.551 128.542C231.623 145.762 224.776 148.963 224.488 149.091Z" fill="#222663"/>
<path d="M211.625 158.437C211.401 158.437 211.209 158.277 211.209 158.053C211.209 157.829 211.369 157.637 211.593 157.605C219.464 157.221 223.048 152.451 223.08 152.419C223.208 152.227 223.464 152.195 223.656 152.323C223.848 152.451 223.88 152.707 223.752 152.9C223.592 153.124 219.944 158.053 211.625 158.437Z" fill="#222663"/>
<path d="M212.457 158.021C212.457 158.693 211.593 159.237 210.569 159.237C209.545 159.237 208.681 158.693 208.681 158.021C208.681 157.349 209.545 156.804 210.569 156.804C211.593 156.804 212.457 157.349 212.457 158.021Z" fill="#222663"/>
<path d="M222.6 156.1C222.504 156.1 222.472 156.1 222.472 156.1C222.344 156.1 222.28 156.004 222.28 155.876C222.28 155.748 222.376 155.684 222.504 155.684C222.536 155.684 225.832 155.844 227.495 152.9C227.559 152.804 227.687 152.772 227.783 152.836C227.879 152.9 227.911 153.028 227.847 153.124C226.248 155.94 223.272 156.1 222.6 156.1Z" fill="#0F6FD5"/>
<path d="M228.295 152.067C228.263 152.067 228.231 152.067 228.199 152.035C228.103 152.003 228.039 151.875 228.103 151.779C228.103 151.779 228.647 150.499 228.775 149.731C228.807 149.603 228.903 149.539 228.999 149.571C229.127 149.603 229.191 149.699 229.159 149.795C229.031 150.627 228.487 151.875 228.455 151.939C228.455 152.003 228.391 152.067 228.295 152.067Z" fill="#0F6FD5"/>
<path d="M229.159 148.579C229.031 148.579 228.935 148.451 228.967 148.355C229.127 147.042 228.455 145.186 228.455 145.154C228.423 145.058 228.487 144.93 228.583 144.898C228.679 144.866 228.807 144.93 228.839 145.026C228.871 145.09 229.543 147.01 229.351 148.419C229.351 148.515 229.287 148.579 229.159 148.579Z" fill="#0F6FD5"/>
<path d="M261.252 292.932C256.804 292.932 243.846 290.915 209.161 275.936L209.033 275.872L206.026 270.527C205.93 270.335 205.994 270.079 206.186 269.951C206.378 269.855 206.634 269.919 206.762 270.111L209.641 275.232C255.492 295.076 262.948 291.972 263.012 291.94L263.076 291.908H263.14C272.099 290.307 278.21 285.186 281.282 276.672C283.329 271.007 283.265 265.662 283.233 264.477C267.075 257.084 239.846 251.226 239.59 251.194C239.366 251.162 239.238 250.938 239.27 250.714C239.302 250.49 239.526 250.362 239.75 250.394C240.038 250.458 267.587 256.379 283.809 263.869L284.033 263.965L284.065 264.221C284.097 264.477 284.449 270.431 282.082 276.992C279.906 283.042 274.882 290.723 263.332 292.772C263.108 292.772 262.532 292.932 261.252 292.932Z" fill="#222663"/>
<path d="M214.697 358.131C214.473 358.131 214.313 357.971 214.281 357.747L208.937 274.304L203.722 273.248C203.498 273.216 203.338 272.991 203.402 272.767C203.434 272.543 203.658 272.383 203.882 272.447L209.705 273.632L215.081 357.715C215.113 357.939 214.953 358.131 214.697 358.131Z" fill="#222663"/>
<path d="M46.523 196.75H44.4432V222.131H46.523V196.75Z" fill="#97B6ED"/>
<path d="M45.5951 213.585H38.2999C36.0601 213.585 33.9803 212.465 32.4445 210.417C30.9727 208.464 30.1727 205.871 30.1727 203.119V198.83H32.2525V203.119C32.2525 205.423 32.9244 207.568 34.1083 209.168C35.2602 210.673 36.732 211.505 38.2999 211.505H45.5951V213.585Z" fill="#97B6ED"/>
<path d="M51.4824 207.568H45.4671V205.487H51.4824C52.6983 205.487 53.8822 204.815 54.7781 203.631C55.738 202.351 56.2819 200.622 56.2819 198.766V195.245H58.3617V198.766C58.3617 201.07 57.6898 203.247 56.4419 204.879C55.13 206.608 53.3702 207.568 51.4824 207.568Z" fill="#97B6ED"/>
<path d="M56.4419 173.128C56.4099 171.24 56.4099 169.063 56.4099 167.911C56.4099 167.847 56.4099 167.783 56.4099 167.719C56.4099 167.687 56.4099 167.623 56.4099 167.591C56.4099 167.303 56.4099 167.111 56.4099 167.111V167.143C56.0899 160.709 50.7145 155.588 44.1232 155.588C37.308 155.588 31.8046 161.029 31.8046 167.719C31.8046 168.519 31.9006 169.319 32.0285 170.087C27.805 172.712 24.9573 177.289 24.7333 182.506C21.0217 184.587 18.526 188.524 18.526 193.037C18.526 199.726 24.0294 205.167 30.8447 205.167C34.3643 205.167 37.5319 203.695 39.7717 201.359C47.6429 201.615 50.7785 201.711 52.0264 201.743C52.3143 201.743 52.6023 201.775 52.8583 201.775C60.8254 201.775 67.2887 195.405 67.2887 187.563C67.2887 181.258 63.1292 175.945 57.4018 174.056L56.4419 173.128Z" fill="#DCF5FF"/>
<path d="M31.7406 220.659H58.3617L55.0021 236.727H35.5162L31.7406 220.659Z" fill="#F18B26"/>
<path d="M30.8447 205.488C23.8694 205.488 18.206 199.918 18.206 193.037C18.206 188.652 20.5738 184.555 24.4134 182.314C24.6693 177.289 27.357 172.68 31.6446 169.927C31.5166 169.191 31.4526 168.455 31.4526 167.719C31.4526 167.559 31.5806 167.399 31.7726 167.399C31.9645 167.399 32.0925 167.527 32.0925 167.719C32.0925 168.487 32.1565 169.255 32.3165 170.023L32.3485 170.247L32.1565 170.375C27.869 173.032 25.2133 177.577 25.0213 182.538V182.698L24.8613 182.794C21.1177 184.907 18.814 188.844 18.814 193.069C18.814 199.598 24.1894 204.911 30.8127 204.911C34.1403 204.911 37.244 203.599 39.5157 201.199L39.6117 201.102L52.0264 201.487C52.3463 201.519 52.6023 201.519 52.8583 201.519C60.6334 201.519 66.9688 195.277 66.9688 187.627C66.9688 187.467 67.0967 187.307 67.2887 187.307C67.4807 187.307 67.6087 187.435 67.6087 187.627C67.6087 195.629 61.0174 202.159 52.8903 202.159C52.6343 202.159 52.3463 202.159 52.0264 202.127L39.8997 201.743C37.4999 204.143 34.3003 205.488 30.8447 205.488Z" fill="#0F6FD5"/>
<path d="M7.07124 248.505H222.056C224.232 248.505 225.992 246.745 225.992 244.569C225.992 242.392 224.232 240.632 222.056 240.632H7.07124C4.89547 240.632 3.13566 242.392 3.13566 244.569C3.13566 246.745 4.89547 248.505 7.07124 248.505Z" fill="#F18B26"/>
<path d="M7.51919 382.968L27.933 245.145L15.1024 243.576L2.14377 382.328C1.91979 384.281 2.91169 386.041 4.41552 386.201C5.88736 386.393 7.29521 384.953 7.51919 382.968Z" fill="#F18B26"/>
<path d="M224.776 382.968L204.362 245.145L217.193 243.576L230.183 382.296C230.407 384.249 229.415 386.009 227.911 386.169C226.408 386.393 225.032 384.953 224.776 382.968Z" fill="#F18B26"/>
<path d="M3.90358 244.6H225.896C228.071 244.6 229.799 242.84 229.799 240.663C229.799 238.487 228.039 236.727 225.896 236.727H3.90358C1.72781 236.727 0 238.487 0 240.663C0 242.84 1.75981 244.6 3.90358 244.6Z" fill="#E9B03F"/>
<path d="M143.473 261.436H358.457C360.633 261.436 362.393 259.676 362.393 257.499C362.393 255.323 360.633 253.562 358.457 253.562H143.473C141.297 253.562 139.537 255.323 139.537 257.499C139.537 259.676 141.297 261.436 143.473 261.436Z" fill="#F18B26"/>
<path d="M143.92 395.9L164.334 258.076L151.504 256.507L138.545 395.259C138.321 397.212 139.313 398.972 140.817 399.132C142.289 399.324 143.696 397.852 143.92 395.9Z" fill="#F18B26"/>
<path d="M361.177 395.9L340.763 258.076L353.594 256.507L366.584 395.227C366.808 397.18 365.816 398.94 364.313 399.1C362.809 399.324 361.433 397.852 361.177 395.9Z" fill="#F18B26"/>
<path d="M140.337 257.532H362.297C364.473 257.532 366.232 255.771 366.232 253.595C366.232 251.418 364.473 249.658 362.297 249.658H140.337C138.161 249.658 136.401 251.418 136.401 253.595C136.401 255.771 138.161 257.532 140.337 257.532Z" fill="#E9B03F"/>
<path d="M123.059 223.668C121.171 223.668 119.603 222.1 119.603 220.211V128.286C119.603 126.397 121.171 124.829 123.059 124.829C124.947 124.829 126.515 126.397 126.515 128.286V220.243C126.515 222.132 124.947 223.668 123.059 223.668Z" fill="#A9C5EC"/>
<path d="M119.603 210.193L111.316 206.128C108.052 204.528 105.973 201.103 105.973 197.294V168.679C105.973 165.254 107.669 162.086 110.452 160.325L119.603 154.564V210.193Z" fill="#9AB5EC"/>
<path d="M106.181 192.326L88.0215 233.605L94.2595 236.351L112.419 195.072L106.181 192.326Z" fill="#9AB5EC"/>
<path d="M125.075 236.407H81.2714C80.4715 236.407 79.8315 235.767 79.8315 234.967C79.8315 234.167 80.4715 233.526 81.2714 233.526H125.075C125.875 233.526 126.515 234.167 126.515 234.967C126.515 235.767 125.875 236.407 125.075 236.407Z" fill="#A9C5EC"/>
<path d="M119.603 153.06C119.379 153.06 119.187 152.868 119.187 152.644V127.134C119.187 125.309 120.915 124.573 121.843 124.445C122.067 124.413 122.291 124.573 122.323 124.797C122.355 125.021 122.195 125.245 121.971 125.277C121.875 125.277 120.019 125.597 120.019 127.166V152.676C120.019 152.868 119.827 153.06 119.603 153.06Z" fill="#222663"/>
<path d="M119.603 169.511C119.379 169.511 119.187 169.319 119.187 169.095V157.509C119.187 157.285 119.379 157.093 119.603 157.093C119.827 157.093 120.019 157.285 120.019 157.509V169.095C120.019 169.319 119.827 169.511 119.603 169.511Z" fill="#222663"/>
<path d="M126.515 235.383C126.323 235.383 126.163 235.255 126.099 235.063C126.099 235.031 125.939 234.454 124.979 233.942H101.365C101.141 233.942 100.949 233.75 100.949 233.526C100.949 233.302 101.141 233.11 101.365 233.11H125.171L125.267 233.142C126.674 233.814 126.898 234.774 126.93 234.871C126.962 235.095 126.834 235.319 126.61 235.351C126.547 235.383 126.546 235.383 126.515 235.383Z" fill="#222663"/>
<path d="M99.0935 233.974H94.614C94.39 233.974 94.198 233.782 94.198 233.558C94.198 233.334 94.39 233.142 94.614 233.142H99.0935C99.3174 233.142 99.5094 233.334 99.5094 233.558C99.4774 233.782 99.3174 233.974 99.0935 233.974Z" fill="#222663"/>
<path d="M276.738 236.759C274.85 236.759 273.282 235.19 273.282 233.302V141.345C273.282 139.456 274.85 137.888 276.738 137.888C278.626 137.888 280.194 139.456 280.194 141.345V233.302C280.194 235.19 278.658 236.759 276.738 236.759Z" fill="#A9C5EC"/>
<path d="M273.282 223.284L264.995 219.219C261.732 217.618 259.652 214.194 259.652 210.385V181.77C259.652 178.345 261.348 175.177 264.131 173.416L273.282 167.655V223.284Z" fill="#9AB5EC"/>
<path d="M259.891 205.421L241.732 246.699L247.97 249.445L266.129 208.167L259.891 205.421Z" fill="#9AB5EC"/>
<path d="M278.786 249.498H234.951C234.151 249.498 233.511 248.858 233.511 248.058C233.511 247.257 234.151 246.617 234.951 246.617H278.754C279.554 246.617 280.194 247.257 280.194 248.058C280.194 248.858 279.554 249.498 278.786 249.498Z" fill="#A9C5EC"/>
<path d="M273.282 166.118C273.058 166.118 272.866 165.926 272.866 165.702V140.192C272.866 138.368 274.594 137.632 275.522 137.504C275.746 137.472 275.97 137.632 276.002 137.856C276.034 138.08 275.874 138.304 275.65 138.336C275.554 138.336 273.698 138.656 273.698 140.224V165.734C273.698 165.958 273.538 166.118 273.282 166.118Z" fill="#222663"/>
<path d="M273.282 182.57C273.058 182.57 272.866 182.378 272.866 182.154V170.567C272.866 170.343 273.058 170.151 273.282 170.151C273.506 170.151 273.698 170.343 273.698 170.567V182.154C273.698 182.378 273.538 182.57 273.282 182.57Z" fill="#222663"/>
<path d="M280.194 248.473C280.002 248.473 279.842 248.345 279.778 248.153C279.778 248.121 279.618 247.545 278.658 247.033H255.044C254.82 247.033 254.628 246.841 254.628 246.617C254.628 246.393 254.82 246.201 255.044 246.201H278.85L278.946 246.233C280.354 246.905 280.578 247.865 280.61 247.961C280.642 248.185 280.514 248.409 280.29 248.441C280.258 248.473 280.226 248.473 280.194 248.473Z" fill="#222663"/>
<path d="M252.773 247.033H248.293C248.069 247.033 247.877 246.841 247.877 246.617C247.877 246.393 248.069 246.201 248.293 246.201H252.773C252.997 246.201 253.189 246.393 253.189 246.617C253.189 246.841 252.997 247.033 252.773 247.033Z" fill="#222663"/>
<path d="M577.57 463.019C666.279 463.019 738.193 459.136 738.193 454.345C738.193 449.555 666.279 445.671 577.57 445.671C488.86 445.671 416.947 449.555 416.947 454.345C416.947 459.136 488.86 463.019 577.57 463.019Z" fill="#CED3EA" fill-opacity="0.4"/>
<path d="M671.415 455.978H483.724C472.301 455.978 463.022 446.696 463.022 435.269V22.5013C463.022 11.0746 472.301 1.79248 483.724 1.79248H671.415C682.838 1.79248 692.117 11.0746 692.117 22.5013V435.269C692.149 446.728 682.87 455.978 671.415 455.978Z" fill="#E6EBFE"/>
<path d="M667.448 439.942H487.691C477.868 439.942 469.901 431.972 469.901 422.114V26.5022C469.901 16.6439 477.868 8.67407 487.691 8.67407H571.778H577.57H582.945H667.448C677.271 8.67407 685.238 16.6439 685.238 26.5022V422.114C685.27 431.94 677.303 439.942 667.448 439.942Z" fill="white"/>
<path d="M469.901 416.353V437.958C469.901 443.687 477.9 448.328 487.787 448.328H668.504C678.391 448.328 686.39 443.687 686.39 437.958V416.353H469.901Z" fill="#E6EBFE"/>
<path d="M586.881 443.047H575.138C572.482 443.047 570.338 440.902 570.338 438.246V426.467C570.338 423.81 572.482 421.666 575.138 421.666H586.881C589.536 421.666 591.68 423.81 591.68 426.467V438.246C591.68 440.902 589.536 443.047 586.881 443.047ZM575.138 423.938C573.73 423.938 572.61 425.091 572.61 426.467V438.246C572.61 439.654 573.762 440.774 575.138 440.774H586.881C588.288 440.774 589.408 439.622 589.408 438.246V426.467C589.408 425.059 588.256 423.938 586.881 423.938H575.138Z" fill="white"/>
<path d="M638.523 130.302H527.655C516.008 130.302 506.537 120.86 506.537 109.177V84.4037C506.537 72.753 515.976 63.2788 527.655 63.2788H638.523C650.17 63.2788 659.641 72.721 659.641 84.4037V109.177C659.641 120.86 650.202 130.302 638.523 130.302Z" fill="#F18B26"/>
<path d="M636.219 128.35H527.655C516.008 128.35 506.537 118.908 506.537 107.225V84.4037C506.537 72.753 515.976 63.2788 527.655 63.2788H636.219C647.866 63.2788 657.337 72.721 657.337 84.4037V107.225C657.337 118.876 647.898 128.35 636.219 128.35Z" fill="#FFC95D"/>
<path d="M521.512 82.9954H523.655V95.1262H540.325V82.9954H542.469V110.81H540.325V97.1106H523.655V110.81H521.512V82.9954Z" fill="white"/>
<path d="M570.946 97.1426H556.772V108.825H572.29L571.97 110.81H554.628V82.9954H571.65V84.9798H556.772V95.1582H570.946V97.1426Z" fill="white"/>
<path d="M581.729 82.9954H583.873V108.825H598.815L598.431 110.81H581.761V82.9954H581.729Z" fill="white"/>
<path d="M607.07 82.9954H616.989C622.077 82.9954 625.564 85.812 625.564 90.7412C625.564 95.7343 622.109 98.679 616.701 98.679H609.246V110.81H607.07V82.9954ZM609.246 96.6945H616.893C621.373 96.6945 623.261 94.294 623.261 90.8052C623.261 87.0603 620.797 84.9478 617.053 84.9478H609.246V96.6945Z" fill="white"/>
<path d="M637.499 101.912L637.307 87.9245V82.9954H639.483V87.9245L639.291 101.912H637.499ZM637.339 110.842V106.105H639.355V110.842H637.339Z" fill="white"/>
<path d="M664.056 329.356C664.056 333.549 661.145 336.91 657.561 336.91H504.425C500.842 336.91 497.93 333.517 497.93 329.356V288.771C497.93 284.578 500.842 281.217 504.425 281.217H644.73L664.056 256.54V288.579C664.056 288.643 664.056 288.707 664.056 288.771V329.356Z" fill="#E6EBFE"/>
<path d="M535.686 291.107H505.161V293.604H535.686V291.107Z" fill="white"/>
<path d="M654.745 319.882H615.677V322.379H654.745V319.882Z" fill="white"/>
<path d="M602.495 291.107H544.453V293.604H602.495V291.107Z" fill="white"/>
<path d="M654.745 291.107H611.294V293.604H654.745V291.107Z" fill="white"/>
<path d="M576.61 305.479H505.161V307.975H576.61V305.479Z" fill="white"/>
<path d="M654.745 305.479H585.409V307.975H654.745V305.479Z" fill="white"/>
<path d="M519.816 319.882H505.161V322.379H519.816V319.882Z" fill="white"/>
<path d="M606.91 319.882H528.615V322.379H606.91V319.882Z" fill="white"/>
<path d="M664.088 349.841H497.962V354.13H664.088V349.841Z" fill="#CFE1F9"/>
<path d="M664.088 357.875H497.962V362.164H664.088V357.875Z" fill="#CFE1F9"/>
<path d="M648.314 367.221H513.704V371.51H648.314V367.221Z" fill="#CFE1F9"/>
<path d="M621.341 378.968H540.677V383.257H621.341V378.968Z" fill="#CFE1F9"/>
<path d="M585.633 270.911C621.311 270.911 650.234 241.964 650.234 206.256C650.234 170.548 621.311 141.601 585.633 141.601C549.955 141.601 521.032 170.548 521.032 206.256C521.032 241.964 549.955 270.911 585.633 270.911Z" fill="#E6EBFE"/>
<path d="M606.079 192.493C605.279 192.493 604.607 191.82 604.607 191.02V174.376C604.607 173.576 605.279 172.904 606.079 172.904C607.262 172.904 608.254 173.864 608.254 175.081V190.348C608.254 191.532 607.294 192.493 606.079 192.493Z" fill="white"/>
<path d="M608.798 189.9H607.71C607.39 189.9 607.166 189.644 607.166 189.356V175.337C607.166 175.017 607.422 174.792 607.71 174.792H608.254C608.862 174.792 609.342 175.273 609.342 175.881V189.388C609.342 189.676 609.086 189.9 608.798 189.9Z" fill="white"/>
<path d="M565.155 192.493C565.955 192.493 566.627 191.82 566.627 191.02V174.376C566.627 173.576 565.955 172.904 565.155 172.904C563.971 172.904 562.979 173.864 562.979 175.081V190.348C562.979 191.532 563.971 192.493 565.155 192.493Z" fill="white"/>
<path d="M562.467 189.9H563.555C563.875 189.9 564.099 189.644 564.099 189.356V175.337C564.099 175.017 563.843 174.792 563.555 174.792H563.011C562.403 174.792 561.923 175.273 561.923 175.881V189.388C561.891 189.676 562.147 189.9 562.467 189.9Z" fill="white"/>
<path d="M607.454 174.793H605.375C605.375 165.734 596.512 158.341 585.601 158.341C574.69 158.341 565.827 165.702 565.827 174.793H563.747C563.747 164.582 573.538 156.292 585.601 156.292C597.663 156.292 607.454 164.582 607.454 174.793Z" fill="white"/>
<path d="M603.231 182.282C603.231 192.013 595.36 203.439 585.633 203.439C575.906 203.439 568.035 192.013 568.035 182.282C568.035 172.552 575.906 164.678 585.633 164.678C595.36 164.678 603.231 172.552 603.231 182.282Z" fill="white"/>
<path d="M551.812 248.602C551.812 224.724 554.276 203.471 585.633 203.471C616.989 203.471 619.453 224.756 619.453 248.602H551.812Z" fill="white"/>
<path d="M594.848 196.558H576.418V213.618H594.848V196.558Z" fill="white"/>
<path d="M583.361 195.79C576.226 195.245 570.498 192.493 566.435 187.628L568.163 186.155C571.842 190.54 577.026 193.005 583.553 193.485L583.361 195.79Z" fill="white"/>
<path d="M581.441 194.189C581.601 193.069 582.657 192.3 583.809 192.461C584.929 192.621 585.697 193.709 585.537 194.829C585.377 195.949 584.321 196.718 583.169 196.557C582.017 196.365 581.249 195.309 581.441 194.189Z" fill="white"/>
<path d="M546.245 218.035C540.198 222.036 538.502 230.197 542.501 236.247C546.501 242.296 554.628 243.993 560.707 239.992C566.755 235.991 568.451 227.829 564.451 221.779C560.451 215.73 552.292 214.034 546.245 218.035ZM557.668 235.415C554.148 237.751 549.413 236.759 547.077 233.238C544.741 229.717 545.733 224.948 549.253 222.644C552.772 220.339 557.508 221.299 559.844 224.82C562.179 228.341 561.219 233.078 557.668 235.415Z" fill="#725EFE"/>
<path d="M542.981 223.732L539.462 222.996C538.79 222.868 538.118 223.284 537.958 223.988L537.222 227.509C537.094 228.181 537.51 228.853 538.214 229.013L541.734 229.749C542.405 229.878 543.077 229.461 543.237 228.757L543.973 225.236C544.101 224.532 543.653 223.86 542.981 223.732Z" fill="#725EFE"/>
<path d="M568.707 229.013L565.187 228.277C564.515 228.149 563.843 228.565 563.683 229.269L562.947 232.79C562.819 233.462 563.235 234.135 563.939 234.295L567.459 235.031C568.131 235.159 568.803 234.743 568.963 234.039L569.698 230.518C569.826 229.846 569.379 229.173 568.707 229.013Z" fill="#725EFE"/>
<path d="M549.797 217.875L547.813 214.866C547.429 214.29 546.661 214.13 546.053 214.514L543.045 216.498C542.469 216.882 542.309 217.651 542.693 218.259L544.677 221.267C545.061 221.843 545.829 222.004 546.437 221.619L549.445 219.635C550.021 219.219 550.181 218.451 549.797 217.875Z" fill="#725EFE"/>
<path d="M564.227 239.8L562.243 236.791C561.859 236.215 561.091 236.055 560.483 236.439L557.476 238.423C556.9 238.807 556.74 239.576 557.124 240.184L559.108 243.192C559.492 243.769 560.26 243.929 560.867 243.544L563.875 241.56C564.451 241.144 564.611 240.376 564.227 239.8Z" fill="#725EFE"/>
<path d="M558.788 213.554L555.268 212.817C554.596 212.689 553.924 213.106 553.764 213.81L553.028 217.331C552.9 218.003 553.316 218.675 554.02 218.835L557.54 219.571C558.212 219.699 558.884 219.283 559.044 218.579L559.78 215.058C559.908 214.354 559.46 213.714 558.788 213.554Z" fill="#725EFE"/>
<path d="M553.476 239.32L549.957 238.583C549.285 238.455 548.613 238.871 548.453 239.576L547.717 243.096C547.589 243.769 548.005 244.441 548.709 244.601L552.228 245.337C552.9 245.465 553.572 245.049 553.732 244.345L554.468 240.824C554.596 240.12 554.18 239.448 553.476 239.32Z" fill="#725EFE"/>
<path d="M564.611 225.332L567.619 223.348C568.195 222.964 568.355 222.196 567.971 221.587L565.987 218.579C565.603 218.003 564.835 217.843 564.227 218.227L561.219 220.211C560.643 220.595 560.483 221.363 560.867 221.972L562.851 224.98C563.235 225.556 564.035 225.716 564.611 225.332Z" fill="#725EFE"/>
<path d="M542.725 239.768L545.733 237.783C546.309 237.399 546.469 236.631 546.085 236.023L544.101 233.014C543.717 232.438 542.949 232.278 542.341 232.662L539.334 234.646C538.758 235.031 538.598 235.799 538.982 236.407L540.966 239.416C541.35 239.992 542.117 240.152 542.725 239.768Z" fill="#725EFE"/>
<path d="M574.114 234.166C568.899 235.447 565.699 240.728 566.947 245.945C568.227 251.162 573.474 254.395 578.721 253.115C583.937 251.835 587.137 246.553 585.889 241.336C584.609 236.087 579.329 232.886 574.114 234.166ZM577.762 249.146C574.722 249.882 571.65 248.026 570.914 244.985C570.178 241.944 572.034 238.872 575.074 238.135C578.114 237.399 581.185 239.256 581.921 242.296C582.657 245.337 580.801 248.41 577.762 249.146Z" fill="#725EFE"/>
<path d="M570.114 237.143L568.387 236.087C567.779 235.735 567.011 235.927 566.659 236.503L565.603 238.231C565.251 238.84 565.443 239.608 566.019 239.96L567.747 241.016C568.355 241.368 569.123 241.176 569.474 240.6L570.53 238.872C570.914 238.295 570.722 237.495 570.114 237.143Z" fill="#725EFE"/>
<path d="M586.753 247.29L585.025 246.233C584.417 245.881 583.649 246.073 583.297 246.649L582.241 248.378C581.889 248.986 582.081 249.754 582.657 250.106L584.385 251.163C584.993 251.515 585.761 251.323 586.113 250.746L587.169 249.018C587.553 248.41 587.361 247.642 586.753 247.29Z" fill="#725EFE"/>
<path d="M576.546 234.615L576.066 232.662C575.906 231.99 575.234 231.574 574.53 231.734L572.578 232.214C571.906 232.374 571.49 233.046 571.65 233.75L572.13 235.703C572.29 236.375 572.962 236.791 573.666 236.631L575.618 236.151C576.29 235.959 576.706 235.287 576.546 234.615Z" fill="#725EFE"/>
<path d="M581.153 253.531L580.673 251.578C580.513 250.906 579.841 250.49 579.137 250.65L577.186 251.13C576.514 251.29 576.098 251.963 576.258 252.667L576.738 254.619C576.898 255.291 577.57 255.707 578.274 255.547L580.225 255.067C580.897 254.875 581.313 254.203 581.153 253.531Z" fill="#725EFE"/>
<path d="M583.681 234.006L581.953 232.95C581.345 232.598 580.577 232.79 580.225 233.366L579.169 235.095C578.817 235.703 579.009 236.471 579.585 236.823L581.313 237.879C581.921 238.231 582.689 238.039 583.041 237.463L584.097 235.735C584.481 235.127 584.289 234.358 583.681 234.006Z" fill="#725EFE"/>
<path d="M573.57 250.65L571.842 249.594C571.234 249.242 570.466 249.434 570.114 250.01L569.059 251.738C568.707 252.347 568.899 253.115 569.475 253.467L571.202 254.523C571.81 254.875 572.578 254.683 572.93 254.107L573.986 252.379C574.37 251.802 574.178 251.002 573.57 250.65Z" fill="#725EFE"/>
<path d="M585.409 243.769L587.361 243.289C588.032 243.129 588.448 242.456 588.288 241.752L587.809 239.8C587.649 239.128 586.977 238.712 586.273 238.872L584.321 239.352C583.649 239.512 583.233 240.184 583.393 240.888L583.873 242.841C584.065 243.513 584.737 243.929 585.409 243.769Z" fill="#725EFE"/>
<path d="M566.531 248.378L568.483 247.898C569.155 247.738 569.57 247.065 569.41 246.361L568.931 244.409C568.771 243.737 568.099 243.321 567.395 243.481L565.443 243.961C564.771 244.121 564.355 244.793 564.515 245.497L564.995 247.449C565.155 248.122 565.859 248.538 566.531 248.378Z" fill="#725EFE"/>
<path d="M692.149 134.847C691.189 134.847 690.389 134.047 690.389 133.087V22.0211C690.389 9.25014 673.719 4.09695 671.671 3.52082H598.879C597.919 3.52082 597.12 2.72063 597.12 1.76041C597.12 0.800186 597.919 0 598.879 0H672.119L672.343 0.0640139C672.567 0.128029 677.719 1.47234 682.966 4.7371C690.133 9.21814 693.909 15.2035 693.909 21.9891V133.055C693.877 134.079 693.109 134.847 692.149 134.847Z" fill="#222663"/>
<path d="M585.857 3.5528H553.476C552.516 3.5528 551.716 2.75261 551.716 1.79239C551.716 0.832168 552.516 0.0319824 553.476 0.0319824H585.857C586.817 0.0319824 587.617 0.832168 587.617 1.79239C587.617 2.75261 586.817 3.5528 585.857 3.5528Z" fill="#222663"/>
<path d="M528.615 457.738H483.244C483.212 457.738 483.148 457.738 483.116 457.738C471.821 456.938 466.446 450.985 463.95 446.12C461.262 440.902 461.262 435.941 461.262 435.717V412.384C461.262 411.423 462.062 410.623 463.022 410.623C463.982 410.623 464.782 411.423 464.782 412.384V435.717C464.782 435.781 464.814 440.166 467.15 444.615C470.189 450.409 475.629 453.641 483.34 454.217H528.647C529.607 454.217 530.407 455.018 530.407 455.978C530.375 456.97 529.575 457.738 528.615 457.738Z" fill="#222663"/>
<path d="M557.412 457.738H535.654C534.694 457.738 533.894 456.938 533.894 455.978C533.894 455.017 534.694 454.217 535.654 454.217H557.412C558.372 454.217 559.172 455.017 559.172 455.978C559.172 456.97 558.404 457.738 557.412 457.738Z" fill="#222663"/>
<path d="M463.022 400.893C462.062 400.893 461.262 400.093 461.262 399.133V306.727C461.262 305.767 462.062 304.967 463.022 304.967C463.982 304.967 464.782 305.767 464.782 306.727V399.133C464.782 400.125 463.982 400.893 463.022 400.893Z" fill="#222663"/>
<path d="M463.022 162.278C462.062 162.278 461.262 161.478 461.262 160.517V36.7126C461.262 35.7523 462.062 34.9521 463.022 34.9521C463.982 34.9521 464.782 35.7523 464.782 36.7126V160.517C464.782 161.51 463.982 162.278 463.022 162.278Z" fill="#222663"/>
<path d="M463.022 204.944C462.062 204.944 461.262 204.143 461.262 203.183V174.793C461.262 173.832 462.062 173.032 463.022 173.032C463.982 173.032 464.782 173.832 464.782 174.793V203.183C464.782 204.143 463.982 204.944 463.022 204.944Z" fill="#222663"/>
<path d="M689.014 417.601H593.344C592.672 417.601 592.096 417.057 592.096 416.353C592.096 415.68 592.64 415.104 593.344 415.104H689.014C689.686 415.104 690.261 415.648 690.261 416.353C690.229 417.057 689.686 417.601 689.014 417.601Z" fill="#725EFE"/>
<path d="M579.745 417.601H560.228C559.556 417.601 558.98 417.057 558.98 416.353C558.98 415.68 559.524 415.104 560.228 415.104H579.745C580.417 415.104 580.993 415.648 580.993 416.353C580.961 417.057 580.417 417.601 579.745 417.601Z" fill="#725EFE"/>
<path d="M707.955 473.518V481.808H678.39C678.39 481.808 681.078 474.862 688.341 474.062C695.605 473.262 699.636 474.126 701.492 470.445C703.38 466.796 707.955 473.518 707.955 473.518Z" fill="#222663"/>
<path d="M824.999 414.624L832.23 418.689L817.703 444.455C817.703 444.455 812.968 438.694 815.848 431.972C818.727 425.251 821.447 422.178 819.175 418.721C816.903 415.264 824.999 414.624 824.999 414.624Z" fill="#222663"/>
<path d="M692.181 273.439C687.318 288.323 674.263 369.366 676.759 372.854C678.263 379.64 696.501 474.19 696.501 474.19H708.019C708.019 474.19 703.188 376.983 705.78 368.598C708.339 360.212 730.385 287.587 731.185 273.439C732.017 259.292 729.681 248.73 713.907 242.072C697.748 235.287 720.274 94.0378 692.181 273.439Z" fill="#222663"/>
<path d="M693.013 273.184C693.013 273.184 729.169 368.63 733.808 376.536C738.448 384.441 821.255 423.458 821.255 423.458L825.287 414.816C825.287 414.816 757.582 369.142 754.862 361.364C752.142 353.522 749.295 279.841 736.56 262.589C734.16 256.796 725.649 240.632 709.651 246.809C693.653 252.987 696.724 261.789 693.013 273.184Z" fill="#222663"/>
<path d="M707.219 140.801C705.267 152.356 702.772 156.357 694.805 159.141C683.734 162.982 675.319 154.436 676.631 140.801C677.75 129.118 683.542 120.572 691.925 119.58C704.308 118.108 709.331 128.286 707.219 140.801Z" fill="#BBD4EA"/>
<path d="M701.62 146.338L706.067 169.511C706.067 169.511 701.812 174.729 695.829 171.432L692.085 149.603L701.62 146.338Z" fill="#BBD4EA"/>
<path d="M783.819 278.849C783.819 278.849 785.547 276.64 787.147 276.768C788.747 276.896 790.634 279.169 790.986 280.961C791.338 282.754 793.29 285.154 794.122 285.794C794.954 286.403 796.106 289.027 796.906 291.492C797.706 293.956 798.506 297.381 798.346 298.085C798.186 298.789 797.322 298.309 796.906 296.869C796.458 295.429 795.178 292.26 794.794 291.972C794.41 291.684 796.234 296.645 796.682 298.405C797.13 300.166 796.97 300.774 796.458 300.934C795.946 301.062 792.682 292.068 792.202 291.78C791.69 291.492 795.466 300.166 795.978 301.062C796.49 301.958 794.954 301.83 794.122 300.646C793.29 299.462 791.05 293.348 790.442 293.06C789.834 292.772 791.178 297.733 791.562 299.045C791.946 300.358 790.474 299.814 790.122 299.045C789.77 298.277 788.395 293.988 787.723 292.644C787.083 291.3 786.507 292.548 786.283 293.892C786.059 295.237 785.259 296.549 784.747 296.357C784.235 296.165 783.883 296.293 784.235 293.476C784.587 290.66 783.723 288.803 783.787 287.203C783.851 285.634 784.811 284.034 784.523 283.01C784.267 282.018 783.467 280.001 783.819 278.849Z" fill="#BBD4EA"/>
<path d="M733.553 172.552C733.553 172.552 771.821 218.515 774.764 223.348C777.74 228.181 791.402 280.833 791.402 280.833L783.531 282.722C783.531 282.722 766.285 240.056 762.446 235.895C758.606 231.766 722.898 199.118 716.787 192.717C710.675 186.315 707.124 168.519 733.553 172.552Z" fill="#725EFE"/>
<path d="M708.051 474.83C707.731 474.83 707.443 474.574 707.443 474.222C707.283 470.157 703.38 374.423 705.204 368.438C705.364 367.957 705.588 367.221 705.876 366.261C715.954 333.357 721.202 314.281 721.458 309.608C721.49 309.256 721.778 309 722.098 309.032C722.45 309.064 722.706 309.352 722.674 309.704C722.386 314.473 717.106 333.645 707.027 366.645C706.739 367.605 706.515 368.342 706.355 368.822C704.948 373.463 707.219 439.782 708.627 474.19C708.691 474.542 708.403 474.83 708.051 474.83Z" fill="#0F6FD5"/>
<path d="M595.615 131.647C595.615 131.647 593.408 127.39 593.6 125.053C593.792 122.717 593.632 122.012 592.352 119.836C590.656 118.076 589.152 113.755 588.832 112.89C588.544 112.058 588.704 111.482 588.32 111.066C587.904 110.65 587.136 110.426 587.136 112.442C587.136 114.459 589.088 118.268 589.408 119.164C589.696 120.06 588.544 121.052 587.904 120.508C587.296 119.964 585.76 120.988 585.888 121.98C585.984 123.005 585.312 123.005 584.641 123.005C583.969 123.005 583.361 123.421 583.585 124.125C583.777 124.829 583.169 125.437 582.689 125.533C582.177 125.629 581.985 127.358 583.393 128.382C584.801 129.406 587.616 132.415 589.632 133.311C591.648 134.207 590.944 135.424 592.032 135.936C593.088 136.512 596.703 135.936 595.615 131.647Z" fill="#BBD4EA"/>
<path d="M721.266 166.567C710.995 163.558 693.237 168.903 677.974 172.136C677.303 172.264 676.663 172.456 676.055 172.648C673.591 173 623.292 179.786 595.583 129.342L588.704 134.015C588.704 134.015 604.83 168.839 630.044 185.963C630.044 185.963 651.129 192.941 663.672 196.43C667.416 197.486 670.423 198.19 671.863 198.318C672.951 198.798 674.231 200.687 675.575 203.567C683.67 220.755 695.093 273.279 694.933 272.991C718.322 272.863 739.216 267.198 739.216 267.198C739.216 267.198 738.672 252.091 740.656 211.633C742.672 171.176 731.537 169.575 721.266 166.567Z" fill="#5642E0"/>
<path d="M675.607 203.599C674.263 200.719 672.983 198.83 671.895 198.35C670.455 198.222 667.48 197.486 663.704 196.462C651.161 192.973 630.076 185.995 630.076 185.995C632.283 187.499 634.587 188.876 636.923 190.06C649.05 196.237 657.593 199.79 664.28 201.711C671.575 224.34 692.373 272.799 692.373 272.799C695.445 272.991 696.565 272.959 699.604 272.959C699.764 273.183 683.702 220.755 675.607 203.599Z" fill="#725EFE"/>
<path d="M791.434 281.409C791.178 281.409 790.922 281.217 790.826 280.961C785.419 261.853 774.956 225.268 774.22 223.572C773.548 222.036 755.918 200.463 744.207 186.347C743.983 186.091 744.015 185.707 744.303 185.483C744.559 185.259 744.943 185.291 745.167 185.579C748.143 189.196 774.38 220.915 775.34 223.092C776.3 225.268 791.37 278.369 792.01 280.641C792.106 280.961 791.914 281.313 791.594 281.409C791.562 281.409 791.498 281.409 791.434 281.409Z" fill="#222663"/>
<path d="M731.633 195.853C734.896 175.849 718.61 175.145 713.907 168.167C709.203 161.189 710.835 150.051 711.347 143.265C711.763 137.696 711.603 133.535 710.163 130.302C709.811 129.63 709.427 128.99 709.011 128.318C708.979 128.254 708.947 128.19 708.915 128.126C707.699 126.205 706.163 124.253 704.212 122.236C704.212 122.236 689.493 109.721 681.11 119.42C672.695 129.118 686.198 136.384 690.261 139.744C694.293 143.073 693.141 153.22 686.486 158.565C679.798 163.91 683.03 175.017 691.349 178.057C699.668 181.098 703.284 187.019 698.516 195.053C696.756 197.998 696.692 201.935 698.132 205.584C698.1 205.616 728.369 215.858 731.633 195.853Z" fill="#FFCE58"/>
<path d="M708.915 128.126C708.947 128.19 708.979 128.254 709.011 128.318C708.979 128.254 708.947 128.19 708.915 128.126Z" fill="#0868BF"/>
<path d="M718.706 215.602C736.144 212.785 751.727 194.125 743.151 177.897C734.544 161.637 718.322 168.871 715.282 157.316C712.883 148.258 715.058 139.744 710.163 130.334C711.603 133.535 711.763 137.696 711.347 143.297C710.835 150.083 709.171 161.221 713.907 168.199C718.61 175.177 734.896 175.881 731.633 195.885C728.369 215.89 698.1 205.648 698.1 205.648C700.596 211.921 707.667 217.362 718.706 215.602Z" fill="#EAB53F"/>
<path d="M739.248 267.838C738.896 267.838 738.608 267.55 738.64 267.198C738.64 266.622 740.176 210.001 740.24 207.248C740.24 206.896 740.528 206.64 740.848 206.64C741.2 206.64 741.456 206.928 741.456 207.28C741.392 210.065 739.888 266.686 739.856 267.262C739.856 267.582 739.6 267.838 739.248 267.838Z" fill="#222663"/>
<path d="M692.405 273.375C692.149 273.375 691.925 273.247 691.829 272.991C690.709 270.303 664.312 207.024 663.704 201.743C663.672 201.391 663.896 201.103 664.248 201.071C664.6 201.039 664.888 201.263 664.92 201.615C665.4 205.68 683.478 249.786 692.949 272.511C693.077 272.831 692.917 273.183 692.629 273.311C692.565 273.375 692.469 273.375 692.405 273.375Z" fill="#222663"/>
<path d="M380.669 85.0436C382.21 85.0436 383.516 83.8035 383.516 82.2282V82.1947C383.516 73.8158 376.751 67.0457 368.379 67.0457C365.197 67.0457 362.217 68.0511 359.806 69.7269C358.734 57.6613 348.62 48.2099 336.263 48.2099C332.78 48.2099 329.498 48.9472 326.517 50.2879C322.8 37.753 311.212 28.6033 297.482 28.6033C281.976 28.6033 269.183 40.3002 267.408 55.3487C265.667 54.9801 263.825 54.8125 261.95 54.846C248.855 55.0806 238.105 65.6715 237.67 78.7761C237.636 80.0162 237.67 81.2563 237.837 82.4629C238.005 83.904 239.21 85.01 240.684 85.01H380.669V85.0436Z" fill="white"/>
<path d="M326.517 50.9247C326.216 50.9247 325.948 50.7236 325.881 50.4555C322.163 38.0212 310.509 29.3406 297.515 29.3406C291.99 29.3406 286.564 30.8823 281.909 33.7982C281.608 33.9993 281.172 33.8987 280.972 33.5971C280.771 33.2955 280.871 32.8598 281.172 32.6587C286.062 29.6087 291.722 28 297.482 28C304.28 28 310.71 30.1785 316.135 34.2674C321.36 38.2223 325.278 43.8529 327.153 50.0868C327.254 50.4555 327.053 50.8241 326.718 50.9247C326.651 50.8912 326.584 50.9247 326.517 50.9247Z" fill="#436EC9"/>
<path d="M252.673 85.714H240.684C239.009 85.714 237.569 84.5074 237.234 82.8651C237.234 82.8316 237.201 82.7981 237.201 82.7311C237.067 81.6921 237 80.6531 237 79.6141C237 65.6046 248.386 54.1758 262.385 54.1758C267.978 54.1758 273.302 55.9521 277.757 59.3707C278.058 59.6053 278.091 60.0075 277.891 60.3091C277.656 60.6108 277.254 60.6443 276.953 60.4432C272.733 57.2257 267.71 55.5499 262.385 55.5499C249.123 55.5499 238.34 66.3419 238.34 79.6476C238.34 80.5526 238.407 81.491 238.507 82.3959V82.4294C238.641 83.5355 239.579 84.3733 240.684 84.3733H252.673C253.041 84.3733 253.343 84.675 253.343 85.0437C253.343 85.4123 253.041 85.714 252.673 85.714Z" fill="#436EC9"/>
<path d="M261.045 85.7139H256.993C256.625 85.7139 256.323 85.4123 256.323 85.0436C256.323 84.6749 256.625 84.3733 256.993 84.3733H261.045C261.414 84.3733 261.715 84.6749 261.715 85.0436C261.715 85.4123 261.414 85.7139 261.045 85.7139Z" fill="#436EC9"/>
<path d="M284.053 85.7139H266.94C266.571 85.7139 266.27 85.4123 266.27 85.0436C266.27 84.6749 266.571 84.3733 266.94 84.3733H284.053C284.421 84.3733 284.722 84.6749 284.722 85.0436C284.722 85.4123 284.421 85.7139 284.053 85.7139Z" fill="#436EC9"/>
<path d="M380.669 85.7138H288.976C288.607 85.7138 288.306 85.4121 288.306 85.0435C288.306 84.6748 288.607 84.3731 288.976 84.3731H380.669C381.875 84.3731 382.846 83.4012 382.846 82.2281C382.846 74.2179 376.349 67.7159 368.379 67.7159C365.465 67.7159 362.686 68.5873 360.308 70.196C360.04 70.3636 359.672 70.3301 359.471 70.129L359.337 69.9949C359.236 69.8944 359.169 69.7268 359.136 69.5928C357.964 57.7953 348.151 48.9136 336.296 48.9136C323.637 48.9136 313.356 59.2029 313.356 71.8718C313.356 72.2405 313.054 72.5421 312.686 72.5421C312.318 72.5421 312.016 72.2405 312.016 71.8718C312.016 58.4656 322.9 47.573 336.296 47.573C342.358 47.573 348.185 49.8185 352.639 53.9074C356.892 57.7617 359.605 62.9567 360.375 68.6208C362.82 67.1796 365.566 66.4088 368.412 66.4088C377.119 66.4088 384.219 73.5141 384.219 82.2281C384.186 84.1385 382.612 85.7138 380.669 85.7138Z" fill="#436EC9"/>
<defs>
<clipPath id="clip0_2_369">
<rect width="30.4272" height="31.5975" fill="white" transform="translate(443 13)"/>
</clipPath>
<clipPath id="clip1_2_369">
<rect width="30.4272" height="31.5975" fill="white" transform="translate(483.96 13)"/>
</clipPath>
<clipPath id="clip2_2_369">
<rect width="30.4272" height="31.5975" fill="white" transform="translate(443 53.9597)"/>
</clipPath>
<clipPath id="clip3_2_369">
<rect width="30.4272" height="31.5975" fill="white" transform="translate(483.96 53.9597)"/>
</clipPath>
</defs>
</svg>
