<svg width="45" height="51" viewBox="0 0 45 51" fill="none" xmlns="http://www.w3.org/2000/svg">
<path d="M24.8011 45.3407H1.05713C1.05713 47.9796 3.13349 50.1324 5.67868 50.1324H5.84612H29.1882C26.7435 49.9935 24.8011 47.9102 24.8011 45.3407Z" fill="white"/>
<path d="M36.5893 1.06907C32.1352 0.93018 14.8213 1.03435 14.8883 1.1038C12.4435 1.1038 10.4342 3.08298 10.2667 5.58302V5.89552V45.0627C10.2667 45.0627 25.3369 49.5766 29.9585 49.8544C31.2645 49.9238 33.9772 46.5557 33.9772 46.5557C33.9772 46.5557 32.3361 0.478786 36.5893 1.06907Z" fill="white"/>
<path d="M34.0104 25.6876L29.4224 50.1324H29.188C29.255 50.1324 29.3219 50.1324 29.4224 50.1324C31.9676 50.1324 34.0439 47.9796 34.0439 45.3406H34.0104V25.6876V25.6876Z" fill="white"/>
<path d="M34.0444 10.0277H43.5554C43.5554 10.0277 44.761 6.0693 42.4502 3.56927C40.1394 1.06924 36.2882 1.4859 35.451 2.42341C34.6137 3.36093 34.0444 10.0277 34.0444 10.0277Z" fill="#C7DBFB"/>
<path d="M43.2537 11.1735C42.7849 11.1735 42.4165 10.7916 42.4165 10.3055V5.93042C42.4165 3.77761 40.7085 2.00676 38.6322 2.00676C38.1633 2.00676 37.7949 1.62481 37.7949 1.1387C37.7949 0.652579 38.1633 0.27063 38.6322 0.27063C41.6462 0.27063 44.0909 2.80538 44.0909 5.93042V10.3055C44.0909 10.7916 43.6891 11.1735 43.2537 11.1735Z" fill="#98B1F7"/>
<path d="M10.2669 45.9656C9.79807 45.9656 9.42969 45.5836 9.42969 45.0975V5.93035V5.58313C9.63062 2.59698 12.0084 0.270565 14.8885 0.270565C15.1229 0.235842 15.4578 0.23584 15.8932 0.23584C16.5294 0.23584 17.4672 0.23584 18.5723 0.23584C20.7826 0.23584 23.7296 0.23584 26.6767 0.23584C32.5708 0.23584 38.4649 0.23584 38.4649 0.23584C38.9338 0.23584 39.3022 0.617789 39.3022 1.10391C39.3022 1.59002 38.9338 1.97197 38.4649 1.97197C29.5233 1.97197 16.0271 1.97197 15.0224 2.0067C14.9889 2.0067 14.9554 2.0067 14.8885 2.0067C12.9126 2.0067 11.2381 3.60394 11.1042 5.65258V5.93035V45.0628C11.1042 45.5836 10.7358 45.9656 10.2669 45.9656Z" fill="#98B1F7"/>
<path d="M43.1198 11.1392H34.513C34.0442 11.1392 33.6758 10.7571 33.6758 10.2709C33.6758 9.78463 34.0442 9.40259 34.513 9.40259H43.1198C43.5886 9.40259 43.957 9.78463 43.957 10.2709C43.957 10.7571 43.5886 11.1392 43.1198 11.1392Z" fill="#98B1F7"/>
<path d="M29.3892 51.0002C29.2553 51.0002 29.1549 51.0002 29.0209 51.0002H5.84628H5.71227C5.67878 51.0002 5.6788 51.0002 5.64531 51.0002C2.63126 51.0002 0.186523 48.4654 0.186523 45.3404C0.186523 44.8543 0.554906 44.4723 1.02376 44.4723H24.7678C25.2366 44.4723 25.605 44.8543 25.605 45.3404C25.605 47.389 27.1455 49.0904 29.0879 49.264H29.3892C29.4227 49.264 29.4897 49.264 29.5232 49.264C31.4991 49.1946 33.1066 47.5626 33.1735 45.514C33.1735 45.4793 33.1735 45.4098 33.1735 45.3751V5.93017C33.1735 2.80513 35.6183 0.270386 38.6323 0.270386C39.1012 0.270386 39.4696 0.652335 39.4696 1.13845C39.4696 1.62457 39.1012 2.00652 38.6323 2.00652C36.556 2.00652 34.848 3.77737 34.848 5.93017V45.1668C34.848 45.2362 34.8815 45.2709 34.8815 45.3404C34.848 48.4654 32.4033 51.0002 29.3892 51.0002ZM1.96148 46.2084C2.32986 47.9446 3.83685 49.264 5.61178 49.264H5.74579C5.77928 49.264 5.77926 49.264 5.81275 49.264H25.4376C24.6673 48.4307 24.1649 47.389 23.9975 46.2084H1.96148Z" fill="#98B1F7"/>
<path d="M28.3846 15.6877H14.721C14.2522 15.6877 13.8838 15.3057 13.8838 14.8195C13.8838 14.3332 14.2522 13.9512 14.721 13.9512H28.3846C28.8535 13.9512 29.2219 14.3332 29.2219 14.8195C29.2219 15.3057 28.8535 15.6877 28.3846 15.6877Z" fill="#98B1F7"/>
<path d="M28.3846 20.6184H14.721C14.2522 20.6184 13.8838 20.2364 13.8838 19.7501C13.8838 19.2639 14.2522 18.8818 14.721 18.8818H28.3846C28.8535 18.8818 29.2219 19.2639 29.2219 19.7501C29.2219 20.2016 28.8535 20.6184 28.3846 20.6184Z" fill="#98B1F7"/>
<path d="M28.3846 25.7574H14.721C14.2522 25.7574 13.8838 25.3754 13.8838 24.8892C13.8838 24.4029 14.2522 24.0209 14.721 24.0209H28.3846C28.8535 24.0209 29.2219 24.4029 29.2219 24.8892C29.2219 25.3754 28.8535 25.7574 28.3846 25.7574Z" fill="#98B1F7"/>
</svg>
