<svg width="33" height="32" viewBox="0 0 33 32" fill="none" xmlns="http://www.w3.org/2000/svg">
<path d="M25.1138 22.7934L20.4923 21.6466C20.3533 19.7701 19.8669 16.0867 18.4421 13.4109C18.2684 13.0635 18.2338 12.6465 18.4075 12.2641C18.6508 11.8471 18.8245 11.43 18.9635 10.9436C19.7626 8.02466 19.2762 4.89731 17.643 2.36086L16.9133 1.21407C16.5309 0.623337 15.7318 0.310667 15.0714 0.623336C14.2374 1.00569 13.9593 2.01315 14.446 2.74294L15.2104 3.92444C16.3919 5.76632 16.7393 8.0249 16.1835 10.1445C15.9055 11.187 15.1064 12.0557 14.1334 12.4031C13.9597 12.4724 12.3612 12.9245 11.8398 13.1328C10.276 13.7236 7.496 16.1212 6.94025 16.5729C6.62755 16.8509 6.45385 17.268 6.45385 17.685C6.45385 18.102 6.66222 18.519 6.97522 18.7971L10.936 22.0984C11.2141 22.3068 11.5268 22.4111 11.8395 22.4111C11.9088 22.4111 11.9785 22.4111 12.0478 22.3764L0.928457 28.5271C0.164028 28.9441 -0.218332 29.8822 0.129322 30.6816C0.40735 31.307 0.998091 31.6197 1.62347 31.6197C1.9015 31.6197 2.14484 31.5503 2.42261 31.4113L15.0022 24.4963H18.5815L21.9522 25.3303L19.3113 28.9444C18.8249 29.6045 18.8249 30.5429 19.4156 31.0989C20.1454 31.8286 21.3268 31.7243 21.8829 30.9252L25.9833 25.261C26.296 24.8092 26.3657 24.2532 26.1917 23.7321C26.0524 23.2798 25.6357 22.8978 25.1143 22.7934L25.1138 22.7934ZM10.1019 17.6852C10.9359 17.0251 11.8047 16.3994 12.3955 16.052L12.6038 19.7007L10.1019 17.6852Z" fill="white"/>
<path d="M15.0718 8.44188C15.0718 10.4379 13.4538 12.0559 11.4578 12.0559C9.46176 12.0559 7.84375 10.4379 7.84375 8.44188C7.84375 6.44613 9.46176 4.82812 11.4578 4.82812C13.4538 4.82812 15.0718 6.44613 15.0718 8.44188Z" fill="white"/>
<path d="M31.6466 10.7011C30.3608 9.86703 28.6233 10.2147 27.6504 11.4308L27.3377 11.8479C27.2684 11.9522 27.1294 11.9522 27.0597 11.8479L26.6427 11.3265C25.5655 9.97133 23.55 9.83235 22.2989 11.0485C21.2564 12.0562 21.1868 13.6201 21.9515 14.8362H23.7584L24.5924 13.4114C24.6968 13.2377 24.8705 13.1334 25.0442 13.1334C25.2525 13.1334 25.4265 13.2377 25.4959 13.4114L27.0597 16.0177L27.6157 15.1143C27.72 14.9406 27.8937 14.8363 28.0674 14.8363H29.5963C29.909 14.8363 30.1523 15.0796 30.1523 15.3923C30.1523 15.705 29.909 15.9484 29.5963 15.9484H28.3802L27.5461 17.3732C27.4418 17.5469 27.2681 17.6512 27.0944 17.6512C26.886 17.6512 26.712 17.5469 26.6427 17.3732L25.0789 14.7669L24.5228 15.6703C24.4185 15.844 24.2448 15.9483 24.0711 15.9483H22.7854L26.3644 20.3961C26.8161 20.9522 27.6502 20.9522 28.1019 20.3961L32.3761 15.0099C33.4188 13.6547 33.1408 11.6392 31.6466 10.7011L31.6466 10.7011Z" fill="white"/>
</svg>
