<svg width="47" height="37" viewBox="0 0 47 37" fill="none" xmlns="http://www.w3.org/2000/svg">
<g clip-path="url(#clip0_300_2391)">
<path fill-rule="evenodd" clip-rule="evenodd" d="M22.0051 0L24.0111 3.44831C24.0111 3.44831 15.1848 7.68934 12.878 10.9593C8.2241 17.5388 9.68846 25.8227 19.5177 27.5865C24.5728 28.4981 25.1144 34.8597 17.6321 36.6829C13.8609 37.6144 8.96631 36.7225 4.19209 31.4906C-2.12673 24.594 -1.06357 15.2796 5.59627 9.03696C14.7034 0.515265 22.0051 0 22.0051 0ZM44.9736 0L46.9795 3.44831C46.9795 3.44831 38.1533 7.68934 35.8464 10.9593C31.1925 17.5388 32.6569 25.8425 42.4862 27.5865C47.5412 28.4981 48.0828 34.8597 40.6005 36.6829C36.8293 37.6144 31.9347 36.7225 27.1605 31.4906C20.8417 24.594 21.9049 15.2796 28.5647 9.03696C37.6718 0.515265 44.9736 0 44.9736 0Z" fill="#111013"/>
</g>
<defs>
<clipPath id="clip0_300_2391">
<rect width="47" height="37" fill="white"/>
</clipPath>
</defs>
</svg>
