<svg width="283" height="284" viewBox="0 0 283 284" fill="none" xmlns="http://www.w3.org/2000/svg">
<path d="M226.628 127.906L226.628 126.264L225.845 127.43C207.661 128.766 188.138 123.137 174.186 109.184C148.935 83.9335 148.95 43.274 174.175 19.4496L174.181 19.4447L174.186 19.4397C199.436 -5.81101 240.096 -5.79605 263.92 19.4294L263.925 19.4346L263.93 19.4397C276.543 32.0527 282.156 48.8797 282.156 64.312L282.156 156.175C282.156 226.394 226.118 282.602 155.962 282.867L155.962 227.335C195.574 227.075 226.628 195.852 226.628 156.172L226.628 127.906Z" stroke="#132742" stroke-opacity="0.15"/>
<path d="M18.7266 109.174L18.6129 109.06C-5.11386 83.7976 -5.05958 43.2197 18.7237 19.4336C43.9744 -5.81712 84.634 -5.80216 108.458 19.4233L108.463 19.4285L108.468 19.4336C121.081 32.0466 126.694 48.8736 126.694 64.3059L126.694 156.168C126.694 226.388 70.6561 282.595 0.500511 282.861L0.500516 227.329C40.1124 227.069 71.1658 195.846 71.1658 156.166L71.1658 127.9L71.1658 127.36L70.6275 127.401C52.3751 128.805 32.741 123.188 18.7266 109.174Z" stroke="#132742" stroke-opacity="0.15"/>
</svg>
