<svg width="17" height="17" viewBox="0 0 17 17" fill="none" xmlns="http://www.w3.org/2000/svg">
<g clip-path="url(#clip0_2_1192)">
<path fill-rule="evenodd" clip-rule="evenodd" d="M8.5 0C13.2036 0 17 3.79644 17 8.5C17 13.2036 13.2036 17 8.5 17C3.79644 17 0 13.2036 0 8.5C0 3.79644 3.79644 0 8.5 0ZM4.73715 8.73518C4.83794 8.06324 5.61067 7.69368 6.21542 8.06324C6.28261 8.09684 6.31621 8.13043 6.3834 8.16403C6.65217 8.43281 6.95455 8.70158 7.25692 8.93676L7.52569 9.17194L10.5494 6.01383C10.7174 5.84585 10.8518 5.71146 11.1206 5.64427C12.0613 5.44269 12.6996 6.58498 12.0277 7.25692L8.23123 11.2213C7.86166 11.5909 7.25692 11.6245 6.85375 11.2885C6.65217 11.087 6.3834 10.8854 6.14822 10.6838C5.74506 10.3142 5.3083 9.94466 4.97233 9.5751C4.77075 9.37352 4.70356 9.00395 4.73715 8.73518Z" fill="#3EDBB4"/>
</g>
<defs>
<clipPath id="clip0_2_1192">
<rect width="17" height="17" fill="white"/>
</clipPath>
</defs>
</svg>
