<svg width="25" height="24" viewBox="0 0 25 24" fill="none" xmlns="http://www.w3.org/2000/svg">
<path fill-rule="evenodd" clip-rule="evenodd" d="M12.2449 0C19.0084 0 24.4898 5.37179 24.4898 12C24.4898 18.6282 19.0084 24 12.2449 24C5.48142 24 0 18.6282 0 12C0 5.37179 5.48142 0 12.2449 0ZM6.82637 12.3177C6.99086 11.3836 8.07941 10.8669 8.93573 11.3694C9.01313 11.4168 9.0857 11.469 9.15827 11.5306L9.16311 11.5354C9.55015 11.8957 9.98073 12.275 10.4065 12.6448L10.7742 12.9672L15.1283 8.49151C15.3847 8.23074 15.5783 8.06006 15.9653 7.97471C17.3006 7.6855 18.2391 9.28329 17.2909 10.2647L11.8724 15.8404C11.3596 16.3761 10.45 16.4235 9.89848 15.9115C9.58401 15.627 9.24052 15.3331 8.89702 15.0391C8.29712 14.5271 7.68753 14.0055 7.18922 13.4935C6.88443 13.2043 6.75864 12.7207 6.82637 12.3177Z" fill="#2DA771"/>
</svg>
