<svg width="28" height="29" viewBox="0 0 28 29" fill="none" xmlns="http://www.w3.org/2000/svg">
<path d="M13.9611 0.00878906C14.3016 1.29603 14.6129 2.48649 14.934 3.66728C15.1967 4.62545 15.401 5.60298 15.7707 6.51276C17.0646 9.697 19.419 11.7198 22.7561 12.6006C24.4003 13.0361 26.0445 13.462 27.6887 13.8975C27.7665 13.9168 27.8443 13.9459 28 14.004C26.5893 14.3717 25.2662 14.6911 23.9527 15.0783C22.8339 15.4073 21.6859 15.6783 20.6546 16.1816C17.8138 17.5657 16.082 19.8788 15.3037 22.9276C14.8853 24.5923 14.4281 26.2473 13.9611 28.0088C13.7373 27.1764 13.5427 26.4409 13.3482 25.7053C13.0466 24.5632 12.7839 23.4018 12.4239 22.2791C11.2662 18.6496 8.795 16.3655 5.10771 15.3686C3.41487 14.9137 1.70257 14.4782 0 13.9652C0.145935 13.9265 0.291869 13.8781 0.437804 13.8394C2.082 13.4039 3.73593 13.0071 5.36067 12.5328C9.08687 11.4682 11.4705 9.04854 12.5309 5.35134C13.0076 3.68663 13.4163 2.01225 13.8638 0.347538C13.8735 0.279788 13.9027 0.192681 13.9611 0.00878906Z" fill="#FF5C46"/>
</svg>
