<svg width="251" height="214" viewBox="0 0 251 214" fill="none" xmlns="http://www.w3.org/2000/svg">
<g opacity="0.15">
<path d="M140.885 212.347C137.615 214.187 132.293 214.187 129.023 212.347L21.7523 151.06C18.4822 149.22 18.4822 146.175 21.7523 144.271L128.895 83.0481C132.165 81.2082 137.487 81.2082 140.757 83.0481L248.027 144.335C251.297 146.238 251.297 149.22 248.027 151.123L140.885 212.347Z" fill="#1A50B2"/>
</g>
<path d="M231.228 111.471C231.228 110.265 230.395 108.997 228.792 108.108L121.457 46.8216C118.187 44.9817 112.865 44.9817 109.595 46.8216L2.45256 108.045C0.785477 108.997 0.0160522 110.202 0.0160522 111.471V128.41C0.0160522 129.616 0.849596 130.821 2.45256 131.773L109.723 193.06C112.993 194.9 118.315 194.963 121.585 193.06L228.728 131.836C230.395 130.885 231.164 129.679 231.164 128.41V111.471H231.228Z" fill="url(#paint0_linear_53_4114)"/>
<g opacity="0.1">
<path d="M231.228 111.471C231.228 110.265 230.395 108.997 228.792 108.108L121.457 46.8216C118.187 44.9817 112.865 44.9817 109.595 46.8216L2.45256 108.045C0.785477 108.997 0.0160522 110.202 0.0160522 111.471V128.41C0.0160522 129.616 0.849596 130.821 2.45256 131.773L109.723 193.06C112.993 194.9 118.315 194.963 121.585 193.06L228.728 131.836C230.395 130.885 231.164 129.679 231.164 128.41V111.471H231.228Z" fill="#1A50B2"/>
</g>
<path d="M121.585 176.12C118.315 177.96 112.993 177.96 109.723 176.12L2.45254 114.77C-0.817514 112.93 -0.817514 109.885 2.45254 107.981L109.659 46.8216C112.929 44.9817 118.251 44.9817 121.521 46.8216L228.792 108.108C232.062 109.948 232.062 112.994 228.792 114.897L121.585 176.12Z" fill="white"/>
<g opacity="0.1">
<path d="M100.234 100.559C108.697 95.7369 122.483 95.7369 130.946 100.559C139.41 105.38 139.41 113.247 130.946 118.069C122.483 122.891 108.697 122.891 100.234 118.069C91.7699 113.247 91.7699 105.38 100.234 100.559Z" fill="#1A50B2"/>
</g>
<path d="M107.864 96.5615C112.16 94.0872 119.085 94.0872 123.381 96.5615C127.677 99.0359 127.677 102.969 123.381 105.444C119.085 107.918 112.16 107.918 107.8 105.444C103.568 103.033 103.568 99.0359 107.864 96.5615Z" fill="url(#paint1_linear_53_4114)"/>
<path d="M103.311 47.7097C110.108 43.8396 121.136 43.8396 127.933 47.7097C131.203 49.5496 132.87 52.0239 132.998 54.4347C132.998 54.6885 132.998 55.0057 132.998 55.323C132.614 69.9785 131.78 89.3289 129.921 96.9422C129.856 97.7035 129.6 98.4648 129.215 99.2261C129.023 99.6068 128.831 99.924 128.638 100.051C127.933 100.876 127.035 101.7 125.817 102.398C120.239 105.571 111.134 105.571 105.555 102.398C104.337 101.7 103.44 100.939 102.734 100.114C102.734 100.114 102.734 100.114 102.67 100.114C102.478 99.924 102.221 99.6068 102.029 99.1627C101.644 98.4648 101.388 97.7035 101.324 97.0056C99.4642 89.3923 98.6306 69.9785 98.2459 55.323C98.2459 55.0692 98.2459 54.8154 98.2459 54.4982C98.31 52.0239 100.041 49.613 103.311 47.7097Z" fill="url(#paint2_linear_53_4114)"/>
<path opacity="0.15" d="M103.311 47.7097C110.108 43.8396 121.136 43.8396 127.933 47.7097C131.203 49.5496 132.87 52.0239 132.998 54.4347C132.998 54.6885 132.998 55.0057 132.998 55.323C132.614 69.9785 131.78 89.3289 129.921 96.9422C129.857 97.7035 129.6 98.4648 129.215 99.2261C129.023 99.6068 128.831 99.924 128.638 100.051C127.933 100.876 127.035 101.7 125.817 102.398C120.239 105.571 111.134 105.571 105.556 102.398C105.299 102.271 105.043 102.081 104.786 101.954C104.722 101.891 104.658 101.827 104.53 101.764C104.337 101.637 104.209 101.51 104.081 101.383C104.017 101.32 103.953 101.256 103.888 101.193C103.696 101.066 103.568 100.876 103.375 100.749L103.311 100.685C112.096 106.776 119.213 103.223 119.726 99.7337C119.726 99.5433 119.726 99.4165 119.726 99.2261C120.175 92.6914 120.431 77.8455 120.559 64.332C114.66 65.2836 107.992 64.4589 103.375 61.7942C100.17 59.9544 98.5025 57.6704 98.3101 55.2595C98.3101 55.0057 98.3101 54.752 98.3101 54.4347C98.3101 52.0239 100.041 49.613 103.311 47.7097Z" fill="black"/>
<path d="M92.0905 110.646L90.4876 109.885C90.1029 90.9151 94.5912 66.5526 98.8871 64.459L100.49 65.2203L103.696 99.9876C99.2718 103.35 95.3606 106.966 92.0905 110.646Z" fill="url(#paint3_linear_53_4114)"/>
<g opacity="0.05">
<path d="M103.632 99.9877L100.426 65.2205C96.1301 67.3141 91.6417 91.6766 92.0265 110.646C95.3606 106.967 99.2719 103.35 103.632 99.9877Z" fill="#1A50B2"/>
</g>
<path d="M139.154 110.646L140.757 109.885C141.141 90.9151 136.653 66.5526 132.357 64.459L130.754 65.2203L127.548 99.9876C131.972 103.35 135.884 106.966 139.154 110.646Z" fill="url(#paint4_linear_53_4114)"/>
<g opacity="0.05">
<path d="M130.754 65.2203L132.357 64.459C136.653 66.5526 141.141 90.9151 140.757 109.885L139.154 110.646C139.538 91.6764 135.05 67.314 130.754 65.2203Z" fill="#1A50B2"/>
</g>
<path d="M137.679 111.281C139.538 110.519 142.231 110.963 143.834 112.105C145.373 113.311 145.181 114.897 143.321 115.595C141.462 116.356 138.769 115.975 137.166 114.77C135.627 113.565 135.82 111.978 137.679 111.281Z" fill="url(#paint5_linear_53_4114)"/>
<path d="M135.05 111.027C134.601 106.649 136.268 93.1991 136.91 88.6946C137.615 83.4922 139.346 81.5254 139.859 81.1447C140.18 80.8275 140.564 80.5737 141.077 80.3834C143.45 79.4318 147.04 79.9393 149.092 81.5254C149.541 81.8426 149.862 82.2233 150.054 82.604C150.439 83.1115 151.465 85.4589 150.759 90.6613C150.118 95.1658 147.938 108.553 146.335 112.613C146.271 112.93 146.143 113.184 145.95 113.438C145.822 113.565 145.758 113.691 145.694 113.755C145.373 114.072 144.989 114.326 144.476 114.516C142.103 115.468 138.513 114.96 136.461 113.374C136.012 113.057 135.691 112.676 135.499 112.296C135.435 112.232 135.371 112.105 135.307 111.915C135.114 111.661 135.05 111.344 135.05 111.027Z" fill="url(#paint6_linear_53_4114)"/>
<path opacity="0.15" d="M142.167 113.184C142.167 113.12 142.167 113.057 142.231 112.994C143.129 108.679 145.181 94.8486 145.822 90.2807C146.591 84.9514 145.245 84.3169 145.053 81.9695L141.462 80.32C143.834 79.4952 147.233 80.0662 149.156 81.5254C149.605 81.8426 149.926 82.2233 150.118 82.604C150.503 83.1115 151.529 85.4589 150.823 90.6613C150.182 95.1659 148.002 108.553 146.399 112.613C146.335 112.93 146.207 113.184 146.014 113.438C145.886 113.565 145.822 113.691 145.758 113.755C145.437 114.072 145.053 114.326 144.54 114.516C144.476 114.516 144.476 114.516 144.411 114.58C144.283 114.643 144.091 114.707 143.963 114.707C143.898 114.707 143.77 114.77 143.706 114.77C143.578 114.77 143.45 114.833 143.321 114.833C143.257 114.833 143.129 114.833 143.065 114.897C142.873 114.897 142.68 114.96 142.424 114.96C142.36 114.96 142.295 114.96 142.231 114.96C142.039 114.96 141.847 114.96 141.718 114.96C141.654 114.96 141.654 114.96 141.59 114.96C139.731 114.96 137.807 114.389 136.525 113.374C136.204 113.12 135.948 112.867 135.755 112.613C138.769 115.531 141.718 114.516 142.167 113.184Z" fill="black"/>
<path d="M139.09 82.4771C138.833 84.2535 141.141 86.0934 144.283 86.4741C147.425 86.9182 150.118 85.8396 150.374 83.9997C150.631 82.2233 148.836 76.7037 145.694 76.2596C142.616 75.8789 139.346 80.7007 139.09 82.4771Z" fill="url(#paint7_linear_53_4114)"/>
<path d="M150.439 84.0632C150.182 85.8396 147.425 86.9182 144.347 86.5375C141.59 86.1568 139.41 84.6976 139.154 83.1115C139.603 85.5224 145.181 86.5375 145.95 84.8245C146.079 84.4438 146.207 83.9997 146.271 83.4922C146.527 81.8427 146.591 77.1478 146.014 76.3865C146.079 76.3865 146.143 76.4499 146.207 76.4499C149.028 77.2112 150.695 82.3502 150.439 84.0632Z" fill="black"/>
<path d="M87.4099 112.105C88.9488 110.9 91.7059 110.519 93.5653 111.281C95.4247 112.042 95.6171 113.564 94.0783 114.77C92.5394 115.975 89.7823 116.356 87.9229 115.595C86.1275 114.897 85.8711 113.311 87.4099 112.105Z" fill="url(#paint8_linear_53_4114)"/>
<path d="M84.9093 112.613C83.3063 108.553 81.1263 95.1025 80.4851 90.598C79.7798 85.3956 80.8057 83.0481 81.1904 82.5406C81.4469 82.1599 81.7675 81.8427 82.1522 81.462C84.204 79.8759 87.7946 79.3684 90.167 80.3835C90.68 80.5738 91.0647 80.8276 91.3853 81.1448C91.8982 81.5255 93.5653 83.4922 94.3347 88.6946C94.9759 93.1992 96.5789 106.649 96.1942 111.027C96.1942 111.344 96.13 111.661 96.0018 111.979C95.9377 112.169 95.8736 112.296 95.8094 112.359C95.6171 112.74 95.2324 113.121 94.8477 113.438C92.7959 115.024 89.2052 115.531 86.8328 114.58C86.3199 114.389 85.9352 114.136 85.6146 113.818C85.4863 113.755 85.4222 113.628 85.294 113.501C85.1016 113.184 84.9734 112.93 84.9093 112.613Z" fill="url(#paint9_linear_53_4114)"/>
<path opacity="0.15" d="M92.2829 112.74C92.2829 112.676 92.2829 112.613 92.2829 112.549C91.9623 108.172 90.0388 94.3411 89.3976 89.7097C88.6281 84.3804 87.1534 84.1266 86.3199 81.9695L82.4086 81.3985C84.4604 80.0028 87.8587 79.5587 90.167 80.4469C90.68 80.6372 91.0647 80.891 91.3853 81.2082C91.8982 81.5889 93.5653 83.5556 94.3347 88.758C94.9759 93.2625 96.5789 106.713 96.1942 111.09C96.1942 111.407 96.13 111.725 96.0018 112.042C95.9377 112.232 95.8736 112.359 95.8094 112.423C95.6171 112.803 95.2324 113.184 94.8477 113.501C94.7835 113.501 94.7835 113.565 94.7194 113.565C94.5912 113.691 94.463 113.755 94.3347 113.818C94.2706 113.882 94.2065 113.882 94.0782 113.945C93.95 114.009 93.8859 114.072 93.7576 114.136C93.6935 114.199 93.6294 114.199 93.5012 114.262C93.3088 114.326 93.1165 114.453 92.9241 114.516C92.86 114.516 92.7959 114.58 92.7318 114.58C92.5394 114.643 92.4112 114.707 92.2188 114.77C92.1547 114.77 92.1547 114.77 92.0906 114.833C90.2952 115.278 88.3076 115.278 86.7687 114.707C86.384 114.58 86.0634 114.389 85.8069 114.136C89.654 115.912 92.2829 114.136 92.2829 112.74Z" fill="black"/>
<path d="M80.8056 84.0631C81.0621 85.8396 83.8192 86.9181 86.8969 86.5374C90.0387 86.0933 92.347 84.3169 92.0905 82.5405C91.834 80.764 88.564 75.9423 85.4222 76.3864C82.3445 76.7671 80.5491 82.2233 80.8056 84.0631Z" fill="url(#paint10_linear_53_4114)"/>
<path d="M92.0905 82.477C92.347 84.2535 90.0387 86.0933 86.8969 86.474C84.1398 86.8547 81.6391 86.0299 80.9338 84.5707C82.0239 86.7278 87.7304 86.2202 87.9228 84.3803C87.9228 83.9362 87.9228 83.4921 87.8587 83.048C87.6022 81.3985 86.3839 76.8305 85.6145 76.2595C85.6786 76.2595 85.7427 76.2595 85.8069 76.2595C88.8846 76.2595 91.8981 80.764 92.0905 82.477Z" fill="black"/>
<path d="M101.452 15.4168C102.221 14.5286 103.247 13.6403 104.53 12.879C110.621 9.38961 120.559 9.38961 126.715 12.879C128.061 13.6403 129.023 14.4651 129.792 15.4168C131.011 16.6222 134.794 22.7128 134.794 37.0511C134.794 40.4771 134.73 45.8064 134.601 51.9605C134.601 52.2777 134.601 52.5949 134.601 52.9121C134.345 55.5133 132.55 58.0511 129.087 60.0178C121.649 64.2686 109.595 64.2686 102.157 60.0178C98.6948 58.0511 96.8354 55.5133 96.643 52.9121C96.643 52.5949 96.643 52.3411 96.643 52.0239C96.5148 45.8698 96.4507 40.5406 96.4507 37.1146C96.3866 22.7128 100.234 16.6222 101.452 15.4168Z" fill="url(#paint11_linear_53_4114)"/>
<g opacity="0.05">
<path d="M115.75 15.5437L115.558 10.2778C119.597 10.2778 123.637 11.166 126.651 12.879C127.997 13.6404 128.959 14.4651 129.728 15.4168C130.946 16.6222 134.729 22.7128 134.729 37.0512C134.729 40.4771 134.665 45.8064 134.537 51.9605C134.537 52.2777 134.537 52.5949 134.537 52.9121C134.281 55.5133 132.485 58.0511 129.023 60.0178C126.651 61.3502 123.893 62.3018 120.88 62.7459C121.008 52.5315 121.008 43.0149 121.008 37.8125C121.072 23.0301 117.161 21.8246 115.75 15.5437Z" fill="#1A50B2"/>
</g>
<path d="M99.9772 19.2235C99.9772 24.1721 106.966 28.1691 115.622 28.1691C124.278 28.1691 131.267 24.1721 131.267 19.2235C131.267 14.2749 124.278 0 115.622 0C106.966 0 99.9772 14.2749 99.9772 19.2235Z" fill="url(#paint12_linear_53_4114)"/>
<path opacity="0.15" d="M131.267 19.2235C131.267 24.1721 124.278 28.1691 115.622 28.1691C107.928 28.1691 101.516 24.9969 100.234 20.8096C102.35 27.154 117.995 27.7884 119.277 22.9032C119.469 21.7613 119.598 20.4924 119.598 19.2235C119.598 14.6555 118.059 1.90332 116.071 0C116.263 0 116.456 0.0634439 116.648 0.0634439C124.855 1.20543 131.267 14.4652 131.267 19.2235Z" fill="black"/>
<g opacity="0.15">
<path d="M97.733 40.4138C96.7712 43.5225 97.7971 48.0271 100.041 50.4379C102.285 52.8488 104.914 52.2778 105.876 49.169C106.838 46.0603 105.812 41.5558 103.632 39.1449C101.324 36.7975 98.6947 37.305 97.733 40.4138Z" fill="#1A50B2"/>
</g>
<path d="M99.6565 41.5557C98.9512 43.9031 99.6565 47.2022 101.388 49.0421C103.055 50.8185 105.042 50.4378 105.748 48.0904C106.453 45.743 105.748 42.4439 104.081 40.604C102.35 38.8276 100.362 39.2083 99.6565 41.5557Z" fill="#788BF1"/>
<g opacity="0.05">
<path d="M131.139 135.072C126.266 132.281 127.292 125.175 137.23 119.465C147.168 113.755 158.069 114.072 163.006 116.864C167.879 119.655 167.558 126.761 157.556 132.408C147.617 138.118 136.012 137.864 131.139 135.072Z" fill="#1A50B2"/>
</g>
<path d="M154.478 112.994C154.606 115.087 154.414 115.468 153.644 117.815C152.619 121.051 152.683 120.353 151.4 120.734C150.118 121.114 150.631 122.13 151.336 123.525C152.042 124.921 154.799 123.716 156.53 123.272C158.261 122.827 157.427 121.305 158.197 119.846C158.902 118.386 157.363 118.704 157.556 113.818C157.556 113.755 157.556 113.628 157.556 113.565C156.722 114.072 155.055 113.692 154.478 112.994Z" fill="#F7B6B2"/>
<path d="M151.272 123.525C151.977 124.921 154.734 123.716 156.466 123.271C158.197 122.827 157.363 121.305 158.133 119.846C158.518 119.084 158.325 118.894 158.133 118.45C157.62 118.323 157.171 118.323 156.337 118.513C155.247 118.767 154.606 119.148 153.901 120.29C153.26 121.432 152.362 122.447 151.849 121.876C151.464 121.432 152.042 120.988 152.426 120.543C152.17 120.67 151.913 120.67 151.4 120.797C150.118 121.114 150.631 122.13 151.272 123.525Z" fill="#3E4357"/>
<path d="M158.325 118.83C158.261 118.45 158.133 118.133 158.005 117.942C157.62 117.562 156.209 117.752 155.44 118.259C154.991 118.513 154.542 119.084 154.029 120.163C154.029 120.163 154.029 120.226 153.965 120.226C153.324 121.368 152.426 122.383 151.913 121.812C151.529 121.368 152.106 120.924 152.49 120.48C152.234 120.607 151.977 120.607 151.464 120.734C150.182 121.114 150.695 122.129 151.4 123.525C152.106 124.921 154.863 123.716 156.594 123.271C157.812 122.954 157.748 122.066 157.876 121.051C157.94 120.67 158.005 120.226 158.197 119.845C158.325 119.592 158.389 119.401 158.389 119.211C158.325 119.084 158.325 118.957 158.325 118.83Z" fill="#3E4357"/>
<path d="M158.71 98.1478C158.71 98.0209 158.646 97.8306 158.646 97.7037C158.582 97.5133 158.582 97.2596 158.518 97.0692C158.518 96.9423 158.453 96.8155 158.453 96.6886C158.389 96.3713 158.197 95.1025 158.197 95.1025C157.427 89.456 157.556 83.1116 158.261 79.4953C158.261 79.4318 158.261 79.3684 158.261 79.3049C158.582 78.0361 158.774 76.6403 158.774 75.1176C158.774 74.8004 158.774 74.5467 158.774 74.2294C158.774 72.1992 159.095 70.74 158.582 69.598C158.389 69.1539 158.197 68.7098 158.005 68.3291C157.812 67.885 157.556 67.5044 157.427 67.0603C157.363 67.1237 157.299 67.1872 157.235 67.2506C156.915 66.9334 156.53 66.6796 156.209 66.5527C155.953 65.728 155.76 65.0935 155.632 64.9666C153.452 62.5558 152.939 64.2053 151.529 65.4742C150.118 68.456 148.579 73.7219 148.323 75.308C147.81 78.163 153.965 104.302 154.35 109.758C154.478 111.217 154.542 112.296 154.542 113.057C155.119 113.755 156.786 114.136 157.556 113.565C157.556 113.121 159.543 104.048 158.838 98.7822C158.774 98.5284 158.71 98.3381 158.71 98.1478Z" fill="#F7B6B2"/>
<path opacity="0.3" d="M154.286 109.695C154.67 115.151 154.735 114.58 153.644 117.815C152.619 121.051 152.683 120.353 151.4 120.734C150.118 121.114 150.631 122.13 151.336 123.525C152.042 124.921 154.799 123.716 156.53 123.272C158.261 122.827 157.427 121.305 158.197 119.846C158.325 119.592 158.389 119.401 158.389 119.211C157.427 119.084 155.76 119.592 155.376 119.782C154.799 120.036 155.696 117.625 155.825 117.118C155.889 116.61 155.568 102.462 155.312 97.9574C155.119 93.4529 152.811 83.8729 153.709 81.7158C156.402 75.1811 154.029 73.2778 150.503 67.9485C149.733 70.5497 148.579 74.2294 148.387 75.308C147.681 78.163 153.901 104.238 154.286 109.695Z" fill="black"/>
<path d="M154.542 120.543C153.58 122.003 152.49 124.096 151.593 123.145C151.208 122.764 150.887 122.383 150.631 122.003C150.759 122.447 151.016 122.891 151.272 123.462C151.977 124.858 154.734 123.652 156.466 123.208C158.197 122.764 157.363 121.241 158.133 119.782C158.197 119.592 158.261 119.465 158.325 119.338C156.914 119.401 155.183 119.592 154.542 120.543Z" fill="#3E4357"/>
<path opacity="0.3" d="M154.542 120.543C153.58 122.003 152.49 124.096 151.593 123.145C151.208 122.764 150.887 122.383 150.631 122.003C150.759 122.447 151.016 122.891 151.272 123.462C151.977 124.858 154.734 123.652 156.466 123.208C158.197 122.764 157.363 121.241 158.133 119.782C158.197 119.592 158.261 119.465 158.325 119.338C156.914 119.401 155.183 119.592 154.542 120.543Z" fill="black"/>
<path d="M144.988 116.483C145.117 117.942 144.988 119.401 144.411 121.051C143.257 124.54 142.231 126.888 141.141 127.015C140.051 127.141 138.064 128.347 139.474 129.425C140.949 130.504 141.911 130.567 143.77 129.552C145.565 128.537 146.078 125.682 148.579 125.428C149.926 125.238 150.503 124.35 149.99 123.081C149.477 121.876 148.771 120.797 148.836 117.435C148.836 117.371 148.836 117.371 148.836 117.308C148.066 118.132 145.63 117.371 144.988 116.483Z" fill="#F7B6B2"/>
<path fill-rule="evenodd" clip-rule="evenodd" d="M151.785 82.2233C152.426 81.0178 156.594 75.752 153.644 69.6614C150.118 62.3653 147.361 62.0481 144.86 66.3623C143.193 69.3442 142.616 72.5164 142.424 78.9242C142.167 86.2202 144.86 114.833 144.924 116.42C145.566 117.308 148.002 118.069 148.707 117.244V117.181V117.244C149.541 112.994 150.759 105.507 149.861 99.3531C149.926 98.2111 149.99 97.1326 149.99 96.2444C150.182 93.9604 151.4 82.9846 151.785 82.2233Z" fill="#F7B6B2"/>
<path opacity="0.3" d="M144.924 66.3623C143.257 69.3442 142.68 72.5164 142.488 78.9242C142.231 86.2202 144.924 114.833 144.988 116.42C145.117 117.879 144.988 119.338 144.411 120.987C143.257 124.477 142.231 126.824 141.141 126.951C140.051 127.078 138.064 128.284 139.474 129.362C140.949 130.441 141.911 130.504 143.77 129.489C145.565 128.474 146.078 125.619 148.579 125.365C149.477 125.238 150.054 124.731 150.118 124.033C149.605 123.842 148.323 124.54 147.489 124.794C146.335 125.175 146.784 122.827 146.463 119.782C146.143 116.737 146.784 103.731 145.694 82.2233C145.309 74.4197 147.745 72.5798 147.745 70.4862C147.745 68.456 148.002 66.0451 148.387 63.5708C148.13 63.5073 147.874 63.5073 147.617 63.5708C146.655 63.888 145.758 64.8397 144.924 66.3623Z" fill="black"/>
<path d="M158.902 79.4319C158.902 79.3684 158.902 79.305 158.902 79.2416C159.223 77.9727 159.415 76.5769 159.415 75.0543C159.415 74.737 159.415 74.4833 159.415 74.166C159.415 72.1358 159.03 70.6766 158.517 69.5346C158.325 69.0905 158.133 68.6464 157.94 68.2658C157.748 67.8217 157.492 67.441 157.363 66.9969C157.299 67.0603 157.235 67.1238 157.171 67.1872C156.85 66.87 156.466 66.6162 156.145 66.4893C155.889 65.6646 155.696 65.0301 155.568 64.9032C153.388 62.4924 152.875 64.1419 151.464 65.4108C151.4 65.4742 151.4 65.6011 151.336 65.6646C148.835 62.4289 146.784 62.9365 144.924 66.299C143.257 69.2809 141.975 72.4531 141.782 78.8609C141.718 81.589 142.103 87.2989 142.68 93.453C146.912 97.0693 154.478 92.8186 157.876 89.9636C157.876 85.9032 158.389 81.9696 158.902 79.4319Z" fill="#3E4357"/>
<path opacity="0.2" d="M147.81 70.4862C147.81 68.456 148.066 66.0451 148.451 63.5708C148.451 63.5708 148.387 63.5073 148.387 63.4439C147.168 63.3804 146.014 64.3321 144.924 66.2989C143.257 69.2807 141.975 72.4529 141.782 78.8608C141.718 81.5888 142.103 87.2988 142.68 93.4529C143.706 94.3411 144.924 94.7217 146.207 94.8486C146.078 91.042 145.95 86.8547 145.694 82.2233C145.309 74.4197 147.81 72.5164 147.81 70.4862Z" fill="black"/>
<path fill-rule="evenodd" clip-rule="evenodd" d="M150.118 123.906C150.118 123.271 149.733 122.256 149.477 121.749C147.425 121.685 145.245 124.16 144.219 125.936L143.963 126.317C143.898 126.444 143.77 126.57 143.706 126.697C142.873 127.966 142.103 128.981 140.885 128.283C139.795 127.649 140.436 127.395 141.141 126.951H141.077C139.987 127.078 137.999 128.283 139.41 129.362C140.885 130.441 141.847 130.504 143.706 129.489C145.501 128.474 146.014 125.619 148.515 125.365C149.541 125.238 150.054 124.731 150.118 123.906Z" fill="#3E4357"/>
<path d="M144.988 126.761C143.45 128.664 142.744 130.821 140.436 129.426C139.859 129.045 139.346 128.728 138.961 128.41C138.897 128.728 139.025 129.045 139.474 129.362C140.949 130.441 141.911 130.504 143.77 129.489C145.565 128.474 146.078 125.619 148.579 125.365C149.413 125.238 149.99 124.858 150.118 124.223C148.707 124.667 146.335 125.111 144.988 126.761Z" fill="#3E4357"/>
<path opacity="0.3" d="M144.988 126.761C143.45 128.664 142.744 130.821 140.436 129.426C139.859 129.045 139.346 128.728 138.961 128.41C138.897 128.728 139.025 129.045 139.474 129.362C140.949 130.441 141.911 130.504 143.77 129.489C145.565 128.474 146.078 125.619 148.579 125.365C149.413 125.238 149.99 124.858 150.118 124.223C148.707 124.667 146.335 125.111 144.988 126.761Z" fill="black"/>
<path d="M148.707 124.984C147.874 125.365 147.553 124.921 147.874 125.873C148.13 126.824 147.681 130.568 147.874 130.758C148.066 130.948 148.258 131.012 148.515 130.758C148.771 130.568 148.836 126.444 149.413 125.555C150.054 124.667 149.541 124.667 148.707 124.984Z" fill="#3E4357"/>
<path d="M156.722 119.972C155.889 120.353 155.568 119.909 155.889 120.861C156.145 121.812 155.696 125.556 155.889 125.746C156.081 125.936 156.273 126 156.53 125.746C156.786 125.556 156.85 121.432 157.427 120.543C158.005 119.655 157.492 119.655 156.722 119.972Z" fill="#3E4357"/>
<path d="M148.643 41.3019C149.156 41.1116 149.669 44.1569 148.066 44.9816C146.527 45.8064 156.017 45.6161 155.376 44.7913C154.67 43.9665 154.927 43.0783 154.35 43.1418C153.773 43.1418 151.4 40.9212 152.747 38.5738C154.093 36.2264 149.99 36.5436 149.477 37.1146C149.028 37.749 147.233 38.1932 147.617 38.9545C148.066 39.7158 147.874 41.5557 148.643 41.3019Z" fill="#F7B6B2"/>
<path opacity="0.2" d="M148.643 41.3019C149.156 41.1116 149.669 44.1569 148.066 44.9816C146.527 45.8064 156.017 45.6161 155.376 44.7913C154.67 43.9665 154.927 43.0783 154.35 43.1418C153.773 43.1418 151.4 40.9212 152.747 38.5738C154.093 36.2264 149.99 36.5436 149.477 37.1146C149.028 37.749 147.233 38.1932 147.617 38.9545C148.066 39.7158 147.874 41.5557 148.643 41.3019Z" fill="black"/>
<path d="M145.501 32.5468C145.694 31.6586 147.297 30.9607 148.194 32.1662C149.477 33.7523 149.541 34.4501 151.08 36.1631C151.208 36.29 151.336 36.4803 151.464 36.5438C151.464 36.4169 151.529 36.29 151.529 36.0997C151.785 35.2115 152.49 34.577 153.131 34.7674C153.773 34.9577 154.029 35.7825 153.773 36.7341C153.644 37.2417 153.388 37.6223 153.067 37.8761C152.041 39.5257 151.785 40.0966 149.99 40.858C148.579 41.429 146.72 41.6827 146.335 40.5408C146.014 39.5891 145.117 38.8912 145.117 37.4954C145.117 36.6072 145.63 34.9577 145.437 34.1329C145.437 33.6888 145.437 32.9909 145.501 32.5468Z" fill="#F7B6B2"/>
<path opacity="0.2" d="M145.501 32.5468C145.694 31.6586 147.297 30.9607 148.194 32.1662C149.477 33.7523 149.541 34.4501 151.08 36.1631C151.208 36.29 151.336 36.4803 151.464 36.5438C151.464 36.4169 151.529 36.29 151.529 36.0997C151.785 35.2115 152.49 34.577 153.131 34.7674C153.773 34.9577 154.029 35.7825 153.773 36.7341C153.644 37.2417 153.388 37.6223 153.067 37.8761C152.041 39.5257 151.785 40.0966 149.99 40.858C148.579 41.429 146.72 41.6827 146.335 40.5408C146.014 39.5891 145.117 38.8912 145.117 37.4954C145.117 36.6072 145.63 34.9577 145.437 34.1329C145.437 33.6888 145.437 32.9909 145.501 32.5468Z" fill="black"/>
<path opacity="0.2" d="M148.9 40.5407C147.938 40.1601 148.002 40.9848 146.912 39.2719C145.886 37.5589 146.271 35.9093 146.143 34.5136C146.014 33.1178 146.014 33.1178 146.912 31.9124C146.976 31.7855 147.04 31.722 147.104 31.5951C146.335 31.5317 145.63 31.9758 145.501 32.6102C145.373 32.9909 145.437 33.6888 145.501 34.1963C145.63 34.9577 145.181 36.6072 145.181 37.5589C145.181 38.9546 146.143 39.6525 146.399 40.6042C146.655 41.3655 147.489 41.4924 148.451 41.3655C148.515 41.3655 148.579 41.3655 148.643 41.3655C149.156 41.1752 149.669 44.2205 148.066 45.0452C147.553 45.299 148.323 45.4259 149.477 45.4893C149.541 44.4742 149.605 43.586 149.669 43.1419C149.861 41.9365 149.861 40.9214 148.9 40.5407Z" fill="black"/>
<path d="M137.422 45.172C136.397 44.4107 134.345 42.7611 133.832 42.6342C133.383 42.5073 132.87 42.1267 132.549 41.6826C132.229 41.2385 132.101 40.7309 131.908 40.0965C131.716 39.462 131.267 38.4469 131.908 38.4469C132.549 38.4469 132.806 39.1448 132.806 39.1448C132.806 39.1448 132.742 38.0028 132.87 37.2415C132.998 36.4802 133.255 35.1478 133.447 34.9575C133.639 34.7672 133.768 34.8306 133.768 34.8306C133.768 34.8306 133.832 34.0059 134.281 34.0059C134.729 34.0059 134.665 34.5769 134.665 34.5769C134.665 34.5769 135.05 34.5769 135.05 35.2113C135.05 35.8457 135.242 35.8457 135.371 36.3533C135.499 36.8608 135.563 38.4469 135.819 39.3986C136.14 40.4137 135.819 40.9212 136.589 41.3654C137.358 41.8095 138.769 42.5073 138.384 43.0783C137.935 43.7128 138.192 45.8064 137.422 45.172Z" fill="#F7B6B2"/>
<path opacity="0.3" d="M137.422 45.1722C136.397 44.4108 134.345 42.7613 133.832 42.6344C133.383 42.5075 132.87 42.1269 132.549 41.6827C132.229 41.2386 132.101 40.7311 131.908 40.0967C131.716 39.4622 131.267 38.4471 131.908 38.4471C132.549 38.4471 132.806 39.145 132.806 39.145C132.806 39.145 132.742 38.003 132.87 37.2417C132.998 36.4804 133.255 35.148 133.447 34.9577C133.511 34.8308 133.639 34.8308 133.704 34.8308C133.639 35.0846 133.511 35.3384 133.447 35.7825C133.255 36.7341 133.062 38.6374 133.126 39.2719C133.191 39.9063 133.191 41.3655 134.281 41.7462C135.242 42.0634 137.422 43.3323 138.32 44.284C137.999 44.7915 138.064 45.6797 137.422 45.1722Z" fill="black"/>
<path d="M144.668 46.8217C144.86 46.6948 145.053 46.6314 145.245 46.6314C145.053 46.5679 144.86 46.5045 144.732 46.3776L137.551 41.9365L137.102 44.9184L141.975 49.3595C142.36 49.6767 142.808 49.9939 143.321 50.1842C143.193 49.9939 143.129 49.7401 143.129 49.4863C143.065 48.4712 143.77 47.2658 144.668 46.8217Z" fill="#F7B6B2"/>
<path d="M159.287 46.6314C159.03 45.299 157.748 44.4108 156.401 44.728L145.886 46.6314C145.63 46.6948 145.437 46.6948 145.181 46.6314C144.988 46.6314 144.796 46.6948 144.604 46.8217C143.706 47.3292 143.001 48.5347 143.001 49.5498C143.001 49.867 143.065 50.1208 143.193 50.2477C144.027 50.5649 144.924 50.7552 145.822 50.6283L156.914 49.6767C158.453 49.5498 159.543 48.0906 159.287 46.6314Z" fill="#915DC2"/>
<path opacity="0.3" d="M142.167 47.0753C142.937 47.7097 143.642 47.456 143.898 47.456C143.642 47.7732 143.45 48.0904 143.321 48.4076V48.4711C143.257 48.5979 143.193 48.7248 143.193 48.9152C143.193 48.9786 143.193 48.9786 143.193 49.042C143.129 49.2324 143.129 49.3593 143.129 49.5496C143.129 49.8668 143.193 50.1206 143.321 50.2475C142.808 50.0571 142.36 49.7399 141.975 49.4227L137.102 44.9816L137.358 43.459C137.551 43.6493 142.167 47.0753 142.167 47.0753Z" fill="black"/>
<path opacity="0.1" d="M156.658 44.6645C155.44 45.6161 145.437 47.9636 143.834 47.456C143.321 48.027 143.001 48.8518 143.001 49.4862C143.001 49.8034 143.065 50.0572 143.193 50.1841C144.027 50.5013 144.924 50.6916 145.822 50.5648L156.914 49.6131C158.453 49.4862 159.543 48.027 159.223 46.5678C159.03 45.3624 157.94 44.5376 156.658 44.6645Z" fill="black"/>
<path d="M127.548 59.0663C127.163 58.7491 125.24 56.9092 124.47 56.7823C123.701 56.6554 123.252 56.592 122.803 56.021C122.354 55.45 122.418 55.6403 122.226 55.6403C122.098 55.6403 121.777 55.7672 121.521 55.7038C121.264 55.6403 121.008 55.3865 120.815 55.1328C120.623 54.879 120.623 54.5618 120.431 54.3714C120.238 54.1811 120.559 53.737 120.431 53.5467C120.303 53.3563 120.238 53.1025 120.815 52.7219C121.393 52.2778 121.521 52.2143 121.521 52.2143C121.521 52.2143 121.264 51.8337 121.008 51.5799C120.751 51.3261 120.495 51.0723 120.11 50.8186C119.725 50.5648 119.213 50.0572 119.533 49.8035C119.854 49.6131 120.623 49.9938 121.136 50.311C121.713 50.6917 122.483 51.1358 122.867 51.3261C123.252 51.453 123.701 51.7702 124.47 52.4047C125.176 53.0391 126.073 54.0542 127.227 54.9424C128.51 55.9575 128.894 56.7189 128.382 57.4167C127.869 58.1781 128.125 59.6373 127.548 59.0663Z" fill="#F7B6B2"/>
<path opacity="0.3" d="M124.47 56.8459C123.701 56.719 123.252 56.6555 122.803 56.0845C122.354 55.5135 122.418 55.7039 122.226 55.7039C122.098 55.7039 121.777 55.8308 121.521 55.7673C121.264 55.7039 121.008 55.4501 120.816 55.1963C120.623 54.9426 120.623 54.6253 120.431 54.435C120.238 54.2447 120.559 53.8006 120.431 53.6102C120.303 53.4199 120.238 53.1661 120.816 52.7855C121.393 52.3414 121.521 52.2779 121.521 52.2779C121.521 52.2779 121.264 51.8972 121.008 51.6435C120.751 51.3897 120.495 51.1359 120.11 50.8821C120.046 50.8187 119.982 50.7553 119.854 50.6918C119.854 50.6918 119.854 50.6918 119.79 50.6918C119.726 50.6284 119.661 50.5649 119.597 50.5015C119.469 50.3746 119.405 50.1843 119.405 50.0574C120.367 50.6918 122.162 52.151 121.841 52.4682C121.521 52.7855 121.264 53.293 121.328 53.8006C121.393 54.3716 121.97 54.6253 122.611 54.9426C123.252 55.2598 124.021 55.006 127.869 57.7975C127.676 57.9879 127.548 58.8126 127.484 59.2567L127.42 59.1933C127.163 58.7492 125.24 56.9093 124.47 56.8459Z" fill="black"/>
<path d="M136.076 61.8579C136.268 61.731 136.461 61.6675 136.653 61.6675C136.461 61.6041 136.268 61.5406 136.14 61.4137L127.805 55.5769L127.292 58.876L133.383 64.459C133.768 64.7763 134.216 65.0935 134.729 65.2838C134.601 65.0935 134.537 64.8397 134.537 64.5859C134.473 63.5074 135.242 62.302 136.076 61.8579Z" fill="#F7B6B2"/>
<path opacity="0.3" d="M133.639 62.1116C134.409 62.746 135.114 62.4922 135.37 62.4922C135.114 62.8094 134.922 63.1267 134.793 63.4439V63.5073C134.729 63.6342 134.665 63.7611 134.665 63.9514C134.665 64.0149 134.665 64.0149 134.665 64.0783C134.601 64.2687 134.601 64.3955 134.601 64.5859C134.601 64.9031 134.665 65.1569 134.793 65.2838C134.28 65.0934 133.832 64.7762 133.447 64.459L127.356 58.8759L127.612 57.3533C127.74 57.5436 133.639 62.1116 133.639 62.1116Z" fill="black"/>
<path d="M155.632 43.0784C152.811 43.1419 150.631 43.6494 148.579 44.5376C147.233 45.1721 145.565 46.0603 144.219 46.9485C144.219 46.9485 144.155 46.9485 144.155 47.012L144.091 47.0754C143.898 47.2023 143.706 47.3926 143.514 47.5195C143.257 47.6464 141.782 48.9787 141.334 49.5497C141.205 49.6766 141.077 49.8035 141.013 49.9938L133.96 60.9696C132.613 62.6192 133.447 64.2687 134.216 64.9666C134.473 65.1569 134.665 65.2838 134.922 65.2838C135.755 64.9031 136.461 64.3956 136.974 63.6343L141.718 57.3533C142.231 57.8609 142.744 58.3684 142.937 59.6373C143.321 62.0482 143.193 69.1539 143.45 69.4711C143.77 69.7883 148.194 71.5013 152.426 69.7883C152.49 69.7883 152.554 69.7249 152.619 69.7249C155.183 68.6463 156.722 67.7581 157.299 66.9333C156.979 66.172 156.786 65.4107 156.786 64.459C156.786 61.2234 157.171 60.7158 157.876 57.5436C157.876 57.4802 157.94 57.3533 157.94 57.2899C158.004 57.0995 158.069 56.9726 158.069 56.8458C158.325 56.2748 158.582 55.7672 158.838 55.2597C160.697 51.8971 161.018 48.7884 161.018 45.87C161.082 43.2053 156.914 43.015 155.632 43.0784Z" fill="#915DC2"/>
<path opacity="0.2" d="M161.018 45.2989C160.633 43.9666 159.095 43.459 157.684 43.2053C157.556 43.2053 157.427 43.1418 157.299 43.1418C157.299 43.1418 157.299 43.1418 157.235 43.1418C157.107 43.1418 156.979 43.1418 156.914 43.0784H156.85C156.722 43.0784 156.658 43.0784 156.53 43.0784C156.466 43.0784 156.466 43.0784 156.402 43.0784C156.337 43.0784 156.209 43.0784 156.145 43.0784C156.081 43.0784 156.017 43.0784 156.017 43.0784C155.953 43.0784 155.889 43.0784 155.889 43.0784C155.824 43.0784 155.696 43.0784 155.632 43.0784C152.811 43.1418 150.631 43.6494 148.579 44.5376C148.323 44.6645 148.002 44.7914 147.746 44.9182C147.617 44.9817 147.425 45.1086 147.168 45.172C146.976 45.2989 146.784 45.3623 146.591 45.4892C145.886 45.8699 145.309 46.314 144.668 46.6312C143.321 47.5194 142.103 48.6614 141.462 49.3593C141.526 49.2959 141.654 49.2324 141.718 49.169C141.59 49.2324 141.526 49.2959 141.398 49.4228C141.27 49.5496 141.205 49.6131 141.077 49.74C140.564 50.5647 140.051 51.2626 139.602 51.9605L133.832 60.9695C132.742 62.3019 133.126 63.6342 133.639 64.459C133.832 64.7127 133.96 64.9031 134.088 64.9665C134.345 65.1568 134.537 65.2837 134.794 65.2837C134.986 65.2203 135.114 65.0934 135.306 65.03C135.371 64.9665 135.499 64.9031 135.563 64.9031C135.627 64.8396 135.691 64.7762 135.755 64.7762C135.884 64.7127 135.948 64.6493 136.076 64.5224C136.14 64.459 136.14 64.459 136.204 64.3955C136.332 64.2686 136.396 64.2052 136.525 64.0783C135.755 64.7127 134.216 64.2052 135.371 62.746C136.14 61.7943 138.192 59.32 139.923 57.036C142.039 54.3079 143.963 53.7369 143.385 54.9424L141.526 57.3532C142.039 57.8608 142.552 58.3683 142.744 59.6372C142.744 60.0813 142.808 60.462 142.872 60.7792C143.129 63.7611 143.001 69.2173 143.257 69.471C143.257 69.471 143.321 69.5345 143.385 69.5345C143.385 69.5345 143.45 69.5345 143.45 69.5979C143.514 69.5979 143.578 69.6614 143.642 69.6614C143.642 69.6614 143.706 69.6614 143.706 69.7248C143.77 69.7882 143.898 69.7882 143.963 69.8517C143.963 69.8517 144.027 69.8517 144.027 69.9151C144.347 70.042 144.668 70.1055 145.117 70.2324C145.309 70.2958 145.565 70.2958 145.758 70.3592C145.822 70.3592 145.822 70.3592 145.886 70.3592C146.078 70.4227 146.335 70.4227 146.527 70.4861C146.591 70.4861 146.591 70.4861 146.655 70.4861C146.912 70.4861 147.168 70.5496 147.425 70.5496C147.425 67.8849 146.271 67.8849 146.271 64.1417C146.271 61.4771 146.976 58.3683 146.976 56.5919C146.976 53.8638 146.271 52.9122 145.181 50.5647C145.117 50.3744 144.988 50.1841 144.924 49.9938C144.54 49.1055 144.411 48.5345 144.924 48.1539C144.924 48.1539 144.988 48.1539 144.988 48.0904C145.053 48.027 145.117 48.027 145.181 47.9635C145.309 47.8367 145.501 47.7732 145.63 47.6463L145.694 47.5829C145.886 47.456 146.078 47.3926 146.207 47.2657C147.168 46.6947 148.194 46.1871 149.092 45.743C151.08 44.7914 153.26 44.3472 156.145 44.2838C157.427 44.2838 159.672 44.3472 161.018 45.2989Z" fill="black"/>
<path d="M156.979 29.7552C156.722 29.3746 156.402 29.0573 156.081 28.7401C156.017 28.6767 156.017 28.6767 155.953 28.6132C155.889 28.6132 155.889 28.5498 155.824 28.5498C155.76 28.4863 155.76 28.4863 155.696 28.4229C154.606 27.5981 153.131 27.0906 151.593 27.0906C148.194 27.0906 145.437 29.3111 145.437 32.1026C145.437 32.7371 145.565 33.3081 145.822 33.8156C145.822 33.8156 145.822 33.8156 145.822 33.8791C146.72 36.6072 147.104 35.9727 147.425 38.5739C148.258 44.7914 144.924 43.8398 144.54 46.8216C145.437 46.2506 146.399 45.6796 147.297 45.1721C148.579 44.5376 149.092 45.2355 151.593 44.728C154.093 44.157 155.824 43.586 157.684 39.3352C158.902 36.6072 158.902 32.4199 156.979 29.7552Z" fill="#3E4357"/>
<path opacity="0.2" d="M145.437 32.1026C145.437 32.7371 145.565 33.3081 145.822 33.8156C145.822 33.8156 145.822 33.8156 145.822 33.8791C146.72 36.6072 147.104 35.9727 147.425 38.5739C148.258 44.7914 144.924 43.8398 144.54 46.8216C145.437 46.2506 146.399 45.6796 147.297 45.1721C148.579 44.5376 149.092 45.2355 151.593 44.728C154.093 44.157 155.824 43.586 157.684 39.3352C157.748 39.2718 157.748 39.1449 157.812 39.0815C155.824 42.3806 150.823 43.586 151.208 40.4138C151.913 34.7038 149.477 32.8005 148.836 30.3897C148.258 28.2326 151.977 27.5981 153.965 27.4712C153.26 27.2175 152.426 27.0906 151.593 27.0906C148.194 27.0906 145.437 29.3111 145.437 32.1026Z" fill="black"/>
<g opacity="0.05">
<path d="M85.2939 131.709C90.167 128.918 89.1411 121.812 79.2027 116.102C69.2643 110.392 58.3641 110.71 53.4269 113.501C48.5539 116.293 48.8745 123.398 58.877 129.045C68.8154 134.755 80.4209 134.501 85.2939 131.709Z" fill="#1A50B2"/>
</g>
<path d="M58.3641 125.492C59.5823 125.619 60.6723 124.731 60.7365 123.525L61.3777 116.483C61.5059 115.278 60.6082 114.199 59.39 114.136C58.1717 114.009 57.0817 114.897 57.0176 116.102L56.3764 123.145C56.2482 124.287 57.1458 125.365 58.3641 125.492Z" fill="#3E4357"/>
<path opacity="0.3" d="M61.3136 116.864L60.7365 123.462C60.6724 124.477 59.8388 125.302 58.8129 125.428L59.39 118.83C59.5182 117.815 60.3518 116.99 61.3136 116.864Z" fill="black"/>
<path opacity="0.3" d="M58.4282 124.795C59.39 124.858 60.2235 124.414 60.7365 123.716C60.5441 124.795 59.5182 125.62 58.3641 125.493C57.2099 125.366 56.3764 124.414 56.3764 123.335C56.697 124.096 57.4664 124.731 58.4282 124.795Z" fill="black"/>
<path opacity="0.3" d="M59.39 114.072C60.6082 114.199 61.5059 115.278 61.3776 116.42L60.9288 121.051C60.4159 121.622 59.6464 121.939 58.8129 121.876C57.8511 121.812 57.0176 121.305 56.5687 120.543L56.9534 116.039C57.0817 114.833 58.1717 113.945 59.39 114.072Z" fill="black"/>
<path d="M70.4825 122.827C70.4825 122.827 68.2384 127.269 69.8413 128.284C71.4443 129.299 73.0473 128.474 74.9708 127.903C76.8944 127.332 80.1003 126.19 80.6774 125.936C81.3186 125.746 82.7292 125.111 82.6651 123.525C82.601 121.939 80.1645 121.685 76.8303 122.13C73.5602 122.701 70.4825 122.827 70.4825 122.827Z" fill="#3E4357"/>
<path opacity="0.3" d="M75.2273 122.383L75.1632 123.462C75.099 124.794 74.0731 125.809 72.7908 125.936C71.5725 126.063 70.4184 125.365 69.8413 124.35C70.1619 123.462 70.4825 122.764 70.4825 122.764C70.4825 122.764 72.5984 122.701 75.2273 122.383Z" fill="black"/>
<path opacity="0.3" d="M73.3679 123.462C73.3679 123.462 73.7526 123.081 74.3297 122.51C75.0991 122.447 75.9968 122.32 76.8303 122.193C80.1645 121.685 82.601 122.003 82.6651 123.589C82.7292 125.175 81.2545 125.746 80.6774 126C80.0363 126.19 76.8944 127.395 74.9709 127.966C74.0732 128.22 73.2397 128.537 72.4702 128.728C71.4443 127.268 73.3679 123.462 73.3679 123.462Z" fill="black"/>
<path opacity="0.3" d="M69.9055 127.839C71.5085 128.855 73.1114 128.03 75.035 127.459C76.9585 126.888 80.1645 125.746 80.7416 125.492C81.2545 125.302 82.4728 124.794 82.7292 123.652C82.7292 125.175 81.3186 125.746 80.7416 125.936C80.1004 126.126 76.9585 127.332 75.035 127.903C73.1114 128.474 71.5085 129.299 69.9055 128.284C69.3284 127.903 69.2643 127.142 69.3925 126.317C69.3284 126.951 69.4567 127.522 69.9055 127.839Z" fill="black"/>
<path d="M63.0448 67.187C66.3789 63.3804 72.5985 69.4075 70.2261 73.4679C70.1619 73.5948 70.0337 73.7852 69.9696 73.912L71.7649 74.3562L61.6983 119.148C61.4418 120.416 60.2877 121.305 58.9412 121.241C57.2741 121.114 56.0558 119.719 56.1841 118.069L59.2618 78.7972C59.2618 78.6069 59.2618 78.4166 59.3259 78.2262C59.5182 75.6885 59.903 70.6764 63.0448 67.187Z" fill="#3E4357"/>
<path opacity="0.2" d="M65.2889 84.317C64.9684 83.3654 64.8401 82.2234 64.9684 81.1448C65.0966 79.4953 65.7378 78.0995 66.5713 76.9575L67.2125 73.2144L71.7649 74.4198L71.7008 74.8005C74.7144 75.308 76.8303 78.5436 76.5097 82.2234C76.1891 86.0935 73.3038 88.9484 70.0979 88.6947C69.5849 88.6312 69.072 88.5043 68.6231 88.314L61.6983 119.211C61.4418 120.48 60.2877 121.368 58.9412 121.305C58.9412 121.305 58.9412 121.305 58.8771 121.305L65.2889 84.317Z" fill="black"/>
<path d="M64.7119 78.6704C64.8401 77.3381 65.2889 76.0692 65.9301 75.0541L65.7378 72.3261L68.6872 72.5798C69.4566 72.2626 70.2902 72.0723 71.1237 72.1992C71.9573 72.2626 72.7908 72.5798 73.432 73.0239L77.9844 73.468L75.2273 122.764C75.1632 124.096 74.1373 125.111 72.8549 125.238C71.1879 125.365 69.7772 124.16 69.649 122.574L66.6995 84.6342C65.2889 83.2384 64.5195 81.0813 64.7119 78.6704Z" fill="#3E4357"/>
<path opacity="0.2" d="M72.7908 124.731L73.432 75.3713L65.9301 74.9906L65.7377 72.3894L77.9844 73.5314L75.2273 122.827C75.1632 124.16 74.1373 125.175 72.8549 125.302H72.7908C72.7908 125.111 72.7908 124.921 72.7908 124.731Z" fill="black"/>
<path opacity="0.3" d="M67.469 72.7068C70.2902 70.0422 72.7267 74.6102 76.9586 76.1328C77.5356 76.3231 77.9204 76.5135 78.4974 76.7673L78.3051 77.4651C77.3433 78.9243 75.4838 79.4953 73.4962 79.2416C69.7773 78.734 61.9548 74.6736 60.8007 70.6132L61.3777 69.0271L67.469 72.7068Z" fill="black"/>
<path d="M73.5602 44.0935C74.0732 46.4409 72.2137 49.0421 70.9955 52.9756C69.7131 56.8457 68.1743 60.3351 66.8919 61.4771C64.3913 63.7611 63.1089 62.5557 62.7242 60.0179C61.9547 55.2596 64.6477 43.9032 70.2902 42.5708C71.7008 42.2536 72.9832 42.6343 73.5602 44.0935Z" fill="#F96969"/>
<path opacity="0.2" d="M73.5602 44.0935C74.0732 46.4409 72.2137 49.0421 70.9955 52.9756C69.7131 56.8457 68.1743 60.3351 66.8919 61.4771C64.3913 63.7611 63.1089 62.5557 62.7242 60.0179C61.9547 55.2596 64.6477 43.9032 70.2902 42.5708C71.7008 42.2536 72.9832 42.6343 73.5602 44.0935Z" fill="black"/>
<path d="M83.3704 41.8731C82.4087 43.5226 81.3828 47.3927 82.9216 48.725C84.3963 50.0573 80.2286 49.7401 78.6898 49.0422C77.1509 48.3444 71.9573 45.2356 73.1756 44.3474C74.3938 43.5226 73.7526 42.8247 74.3938 43.142C75.035 43.4592 76.9586 42.4441 78.818 37.5589C80.6775 32.7372 84.3963 40.0332 83.3704 41.8731Z" fill="#F7B6B2"/>
<path d="M85.9993 31.4047C87.8588 32.0392 88.0511 31.8488 88.5641 33.7522C88.7564 34.45 88.6923 35.9727 88.1793 36.6706C87.2176 38.0029 87.7946 39.1449 87.2176 40.4772C86.384 42.3171 84.1399 46.7582 79.331 41.1116C76.9586 38.3201 81.6392 38.9546 83.6269 37.1781C85.5505 35.3382 84.8452 30.9606 85.9993 31.4047Z" fill="#F7B6B2"/>
<path d="M85.0375 38.9546C84.9092 39.9063 84.8451 42.9516 86.1275 41.302C87.4098 39.589 87.4098 40.3504 87.1534 40.8579C86.8969 41.3655 87.0251 40.9214 86.6404 41.4923C86.3198 42.0633 86.3839 42.1268 86.0633 42.5074C85.8069 42.8881 86.1916 45.1721 85.1657 45.1086C84.1398 45.0452 82.3445 44.5377 82.7292 43.3322C83.1139 42.1268 84.2039 40.3504 84.3321 39.0815C84.4604 37.7492 84.6527 37.2416 84.9092 37.305C85.2939 37.3685 85.1016 38.5105 85.0375 38.9546Z" fill="#3E4357"/>
<path opacity="0.2" d="M78.1769 48.7883C78.1769 48.7883 78.1769 48.7249 78.1769 48.7883C78.0486 48.7249 77.9845 48.6614 77.9204 48.6614C77.9204 48.6614 77.8563 48.6614 77.8563 48.598C77.728 48.5345 77.6639 48.4711 77.5357 48.4077C77.4074 48.3442 77.3433 48.2808 77.2151 48.2173C77.2151 48.2173 77.151 48.2173 77.151 48.1539C77.0227 48.0904 76.8945 48.027 76.7662 47.9635C76.638 47.9001 76.5098 47.7732 76.3815 47.7098C76.2533 47.6463 76.1251 47.5194 75.9968 47.456C79.1386 45.8065 80.0363 42.2536 80.934 39.589C81.1904 38.7642 81.511 37.7491 81.7675 36.6071C81.8958 36.734 82.0881 36.9243 82.2163 37.1146C82.3446 37.305 82.4728 37.4953 82.6011 37.6856C82.7934 37.6222 82.9217 37.4953 83.0499 37.4319C83.3064 37.305 83.4987 37.1781 83.6911 36.9878C85.6146 35.2113 84.8452 30.8971 86.0635 31.2778C87.9229 31.9122 88.1153 31.7219 88.6282 33.6252C88.8206 34.3231 88.7565 35.8458 88.2435 36.5436C87.2817 37.8125 87.7947 38.8911 87.3458 40.1599C87.41 40.2234 87.41 40.4772 87.2817 40.7309C87.0253 41.2385 87.1535 40.7944 86.7688 41.3654C86.7047 41.4288 86.7047 41.4923 86.6405 41.6192C86.4482 41.9998 86.4482 42.0633 86.1917 42.3805C85.9352 42.7612 86.3199 45.0451 85.294 44.9817C84.3964 44.9817 82.8575 44.5376 82.7934 43.5859C82.7293 43.5859 82.7293 43.5859 82.6652 43.5225C82.2805 44.7914 82.024 46.1871 82.2805 47.3291C82.2805 47.3926 82.2805 47.3926 82.3446 47.456C82.4728 47.9001 82.6652 48.2808 82.9858 48.5345C84.4605 49.8669 80.2928 49.5496 78.7539 48.8518C78.6898 48.8518 78.6257 48.7883 78.5616 48.7249H78.4975C78.3692 48.8518 78.241 48.7883 78.1769 48.7883Z" fill="black"/>
<path opacity="0.2" d="M82.0239 42.6343C82.5369 41.0482 83.9475 43.3322 85.6787 41.4923C87.4099 39.6524 86.5763 38.1298 87.3458 36.7974C88.1152 35.4651 87.7305 34.3866 87.474 32.8005C87.4099 32.5467 87.2816 32.166 87.0893 31.7219C87.2175 31.7854 87.2816 31.7854 87.4099 31.8488C87.474 31.9123 87.6022 31.9123 87.6663 31.9757C87.7305 32.0391 87.7946 32.0391 87.8587 32.1026C87.9228 32.166 87.9869 32.2295 88.0511 32.2929C88.1152 32.3564 88.1793 32.4198 88.1793 32.4833C88.1793 32.4833 88.1793 32.4833 88.1793 32.5467C88.2434 32.6101 88.2434 32.737 88.3075 32.8005C88.3717 32.9274 88.3717 33.0542 88.4358 33.1811V33.2446C88.4999 33.3715 88.4999 33.4984 88.564 33.6887C88.7564 34.3866 88.6923 35.9092 88.1793 36.6071C88.1152 36.734 88.0511 36.7974 87.9869 36.9243C87.3458 38.0663 87.7305 39.0814 87.2816 40.2234C87.3458 40.2869 87.3458 40.5406 87.2175 40.7944C86.961 41.302 87.0893 40.8578 86.7046 41.4288C86.6405 41.4923 86.6405 41.5557 86.5763 41.6826C86.384 42.0633 86.384 42.1267 86.1275 42.4439C85.871 42.8246 86.2557 45.1086 85.2298 45.0451C84.3322 45.0451 82.7933 44.601 82.7292 43.6494C82.6651 43.6494 82.6651 43.6494 82.601 43.5859C82.2163 44.8548 81.9598 46.2506 82.2163 47.3926C82.2163 47.456 82.2163 47.456 82.2804 47.5195C82.4086 47.9636 82.601 48.3442 82.9216 48.598C82.9857 48.6614 83.0498 48.7249 83.1139 48.7883C83.1139 48.7883 83.1139 48.8518 83.178 48.8518C83.178 48.9152 83.2422 48.9152 83.2422 48.9787V49.0421C83.2422 49.1056 83.2422 49.1056 83.2422 49.169C83.2422 49.2324 83.178 49.2324 83.1139 49.2959C83.1139 49.2959 83.1139 49.2959 83.0498 49.2959C82.9857 49.2959 82.9857 49.3593 82.9216 49.3593H82.8574C82.7933 49.3593 82.7292 49.3593 82.6651 49.4228H82.601C82.5369 49.4228 82.4086 49.4228 82.3445 49.4228C82.2804 49.4228 82.2804 49.4228 82.2163 49.4228C82.1521 49.4228 82.088 49.4228 82.0239 49.4228C81.9598 49.4228 81.8957 49.4228 81.8315 49.4228C81.7674 49.4228 81.7033 49.4228 81.6392 49.4228C81.5751 49.4228 81.511 49.4228 81.4468 49.4228C81.3827 49.4228 81.3186 49.4228 81.3186 49.4228C81.1904 49.4228 81.0621 49.4228 80.8698 49.3593C80.8056 49.3593 80.8056 49.3593 80.7415 49.3593C80.6774 49.3593 80.5492 49.3593 80.4851 49.2959C80.4209 49.2959 80.4209 49.2959 80.3568 49.2959C80.2927 49.2959 80.1645 49.2959 80.1003 49.2324C80.6133 46.6947 81.7033 43.5225 82.0239 42.6343Z" fill="black"/>
<path d="M85.2939 29.5649C81.8956 28.3595 78.4332 28.4229 76.7661 32.9274C75.0991 37.4319 77.4715 38.1933 77.215 39.5256C76.8303 41.873 80.3568 42.2537 81.1262 41.1117C81.8956 39.9697 82.4727 38.1298 83.4986 38.0029C85.2939 37.8126 83.8833 39.3987 84.5245 39.5256C85.1657 39.6525 84.7169 37.9395 85.8069 37.4954C87.4099 36.7975 87.1534 35.0211 87.474 34.4501C87.6022 34.1963 87.9869 34.006 88.3716 33.8791C89.654 33.6253 88.8205 30.8338 85.2939 29.5649Z" fill="#3E4357"/>
<path opacity="0.2" d="M88.4358 34.006C88.0511 34.1329 87.6664 34.3232 87.5381 34.577C87.2175 35.148 87.474 36.9244 85.871 37.6223C84.781 38.0664 85.2299 39.8429 84.5887 39.6525C83.9475 39.5256 85.294 37.9395 83.5628 38.1299C82.5369 38.2568 81.9598 40.0966 81.1904 41.2386C80.421 42.3806 76.8303 42 77.2791 39.6525C77.4715 38.7009 76.2532 38.003 76.2532 35.9728C76.5738 38.6374 79.7156 40.4773 80.998 38.3837C83.4345 34.4501 81.8957 34.3232 86.2558 32.293C87.474 31.722 85.5505 30.0725 83.5628 29.1208C84.1398 29.2477 84.7169 29.4381 85.3581 29.6284C88.8205 30.8338 89.654 33.6254 88.4358 34.006Z" fill="black"/>
<path d="M66.2507 47.0753C67.1484 44.601 68.3666 43.2052 69.7772 42.6976C73.3679 41.3653 79.3309 45.8064 82.0239 47.9635C84.3963 49.8668 86.5764 52.0239 87.0252 53.8638L81.7033 68.3924L78.8821 76.1326C78.1768 78.0993 75.9968 78.9875 73.6885 78.6703C69.3284 78.0993 59.3259 72.6432 61.0571 68.0118C62.5318 65.2837 65.1607 61.5405 65.2889 56.0209C65.3531 51.9605 65.5454 48.9786 66.2507 47.0753Z" fill="#F96969"/>
<path d="M66.2507 47.0753C67.1484 44.601 68.3666 43.2052 69.7773 42.6976C73.3679 41.3653 79.3309 45.8064 82.0239 47.9635C82.9216 48.6614 83.7551 49.3593 84.5246 50.1206C84.6528 50.184 84.7169 50.3109 84.8452 50.3744C86.2558 51.6432 87.6664 53.1659 89.7182 54.3079C94.7836 57.1629 91.9623 63.2535 89.2052 61.8577C86.4481 60.4619 84.4604 63.1266 83.0498 66.045C82.088 68.0752 81.1263 70.1688 80.3568 72.1356C79.7157 73.7851 79.1386 76.0057 78.4333 76.8939C77.4715 78.4166 75.6121 78.9875 73.5603 78.7338C69.2002 78.1628 59.1977 72.7066 60.9289 68.0752C62.4036 65.3471 65.0325 61.6039 65.1607 56.0843C65.3531 51.9605 65.5454 48.9786 66.2507 47.0753Z" fill="#F96969"/>
<path opacity="0.2" d="M69.7772 42.6344C73.3679 41.3021 79.3309 45.7432 82.0239 47.9003C82.9216 48.5981 83.7551 49.296 84.5245 50.0574C84.6528 50.1208 84.7169 50.2477 84.8451 50.3111C86.2557 51.58 87.6663 53.1027 89.7181 54.2446C94.7835 57.0996 91.9623 63.1902 89.2052 61.7945C86.4481 60.3987 84.4604 63.0633 83.0498 65.9818C82.088 68.012 81.1262 70.1056 80.3568 72.0724C79.7156 73.7219 79.1386 75.9425 78.4333 76.8307C77.4715 78.3533 75.612 78.9243 73.5602 78.6705C73.3037 78.6071 73.0473 78.6071 72.7267 78.5437C74.2655 75.8156 76.6379 72.1993 76.7662 66.9334C76.8303 64.2053 78.6256 58.4319 81.1904 55.4501C81.5109 55.0694 81.8315 54.7522 82.2163 54.4984C83.3704 53.3564 84.3322 52.2144 83.3704 51.3262C82.5368 50.5015 81.5751 49.6132 80.5492 48.8519C77.8562 46.7583 72.0214 42.3806 68.4307 43.5226C68.8796 43.0785 69.3284 42.8247 69.7772 42.6344Z" fill="black"/>
<path d="M76.5098 41.8096C75.9327 42.3806 74.9709 43.0784 74.3297 43.0784C73.6244 45.3624 79.1386 48.4712 82.8575 48.4712C82.4087 47.6464 82.2163 46.5044 82.4087 45.1721C78.7539 45.0452 76.3174 42.5075 76.5098 41.8096Z" fill="#F96969"/>
<path d="M102.221 55.006C103.311 54.3715 105.171 53.8005 105.491 53.1661C106.004 52.0241 105.748 52.5317 106.068 51.9607C106.389 51.3897 106.774 50.8821 107.479 50.3746C108.184 49.867 108.633 49.0422 109.018 49.2326C109.403 49.4229 109.21 49.9305 109.146 50.1208C109.082 50.3746 108.12 51.3897 108.184 51.4531C108.248 51.5165 108.826 51.4531 109.338 51.3897C109.787 51.3262 110.364 51.1359 110.813 50.9456C111.262 50.6918 113.057 49.9305 113.314 50.1208C113.57 50.3746 113.186 50.8187 113.186 50.8187C113.186 50.8187 113.763 50.9456 113.25 51.6434C112.737 52.2779 112.288 52.722 112.288 52.722C112.288 52.722 112.416 53.0392 111.967 53.4833C111.583 53.9274 111.454 53.864 111.454 53.864C111.454 53.864 111.583 54.1812 110.557 55.006C109.467 55.8307 107.03 56.148 106.197 56.8458C105.363 57.6072 104.658 58.0513 104.017 58.305C103.504 58.5588 100.939 55.7038 102.221 55.006Z" fill="#F7B6B2"/>
<path opacity="0.3" d="M104.145 58.3052C104.786 58.0514 105.427 57.5439 106.325 56.846C107.158 56.1481 109.595 55.7674 110.685 55.0061C111.775 54.2448 111.583 53.8641 111.583 53.8641C111.583 53.8641 111.647 53.8641 112.096 53.4835C112.48 53.0394 112.416 52.7221 112.416 52.7221C112.416 52.7221 112.865 52.278 113.378 51.6436C113.891 51.0091 113.314 50.8188 113.314 50.8188L113.378 50.7554C112.48 51.7705 110.877 52.849 110.364 53.4835C109.595 54.3717 107.479 54.7523 105.876 55.5771C105.043 56.0212 103.953 56.5288 102.606 57.2266C102.927 57.8611 103.824 58.4321 104.145 58.3052Z" fill="black"/>
<path d="M81.5751 53.8006C80.8057 55.3867 81.3828 57.3535 82.9216 58.2417L91.8982 63.3172C93.6935 64.3958 96.0018 64.3323 97.733 63.1269L104.722 58.5589C106.068 57.6073 106.389 55.7674 105.427 54.4351C104.914 53.8006 104.017 53.6103 103.311 53.991L96.7712 57.5438C96.3865 57.7342 96.0018 57.7342 95.6171 57.5438L86.3199 52.4049C84.5887 51.3898 82.4086 52.0242 81.5751 53.8006Z" fill="#F96969"/>
<path opacity="0.2" d="M82.2162 54.435C83.0498 53.6102 83.8192 52.7855 83.7551 52.0241C83.8192 52.0241 83.9474 52.0241 84.0116 51.9607C84.0757 51.9607 84.0757 51.9607 84.1398 51.9607C84.2039 51.9607 84.3322 51.9607 84.3963 51.9607C84.4604 51.9607 84.5886 51.9607 84.6528 51.9607C84.7169 51.9607 84.8451 51.9607 84.9092 51.9607C85.0375 51.9607 85.1016 51.9607 85.2298 52.0241C85.2939 52.0241 85.3581 52.0876 85.4222 52.0876C85.5504 52.0876 85.6145 52.151 85.7428 52.2145C85.871 52.2779 86.0634 52.3414 86.1916 52.4048L95.04 57.29C96.2582 57.9244 98.3742 59.5105 100.811 58.0513C102.991 56.719 103.76 56.0845 105.748 55.3867C106.068 56.5287 105.62 57.7975 104.594 58.4954L97.6047 63.0634C95.8735 64.2688 93.5653 64.3322 91.7699 63.2537L82.7933 58.1782C81.7674 57.5438 81.1262 56.4652 81.1262 55.3232C81.5751 55.0694 81.8956 54.7522 82.2162 54.435Z" fill="black"/>
<g opacity="0.1">
<path d="M93.1805 142.749C93.1805 141.86 93.7576 141.036 94.9117 140.401L98.7589 138.181C98.823 138.117 98.8871 138.117 98.9512 138.054C101.26 136.721 104.978 136.721 107.287 138.054C108.441 138.688 109.018 139.576 109.018 140.401C109.018 141.289 108.441 142.114 107.287 142.749L103.311 145.033C103.311 145.033 103.311 145.033 103.247 145.096C100.939 146.428 97.22 146.428 94.9117 145.096C93.7576 144.462 93.1805 143.637 93.1805 142.749ZM105.235 151.06C107.543 152.392 111.262 152.392 113.57 151.06C113.57 151.06 113.57 151.06 113.634 150.996L125.753 144.081C126.907 143.446 127.484 142.558 127.484 141.733C127.484 140.845 126.907 140.02 125.753 139.386C123.445 138.054 119.726 138.054 117.417 139.386C117.353 139.449 117.289 139.449 117.225 139.513L105.235 146.365C104.081 146.999 103.504 147.887 103.504 148.712C103.504 149.537 104.081 150.362 105.235 151.06ZM115.558 156.96C117.866 158.292 121.585 158.292 123.893 156.96C123.893 156.96 123.893 156.96 123.958 156.897L132.036 152.265C133.191 151.631 133.768 150.742 133.768 149.918C133.768 149.029 133.191 148.205 132.036 147.57C129.728 146.238 126.009 146.238 123.701 147.57C123.637 147.634 123.573 147.634 123.509 147.697L115.558 152.202C114.404 152.836 113.827 153.724 113.827 154.613C113.891 155.437 114.468 156.262 115.558 156.96Z" fill="#1A50B2"/>
</g>
<path d="M93.1805 135.58C93.1805 134.691 93.7576 133.867 94.9117 133.232C97.22 131.9 100.939 131.9 103.247 133.232C104.401 133.867 104.978 134.755 104.978 135.58V142.749C104.978 143.637 104.401 144.462 103.247 145.096C100.939 146.428 97.22 146.428 94.9117 145.096C93.7576 144.462 93.1805 143.574 93.1805 142.685V135.58Z" fill="#F96969"/>
<path opacity="0.2" d="M94.9117 137.927C97.22 139.26 100.939 139.26 103.247 137.927C104.401 137.293 104.978 136.405 104.978 135.58V142.749C104.978 143.637 104.401 144.462 103.247 145.096C100.939 146.429 97.22 146.429 94.9117 145.096C93.7576 144.462 93.1805 143.574 93.1805 142.686V135.516C93.1805 136.468 93.7576 137.293 94.9117 137.927Z" fill="black"/>
<path d="M103.504 132.217C103.504 131.329 104.081 130.504 105.235 129.87C107.543 128.537 111.262 128.537 113.57 129.87C114.724 130.504 115.301 131.392 115.301 132.217V148.649C115.301 149.537 114.724 150.362 113.57 150.996C111.262 152.329 107.543 152.329 105.235 150.996C104.081 150.362 103.504 149.474 103.504 148.649V132.217Z" fill="#788BF1"/>
<path opacity="0.2" d="M105.235 134.628C107.543 135.96 111.262 135.96 113.57 134.628C114.724 133.994 115.301 133.105 115.301 132.281V148.712C115.301 149.601 114.724 150.425 113.57 151.06C111.262 152.392 107.543 152.392 105.235 151.06C104.081 150.425 103.504 149.537 103.504 148.712V132.281C103.504 133.105 104.081 133.93 105.235 134.628Z" fill="black"/>
<path d="M113.891 142.749C113.891 141.861 114.468 141.036 115.622 140.338C117.93 139.006 121.649 139.006 123.957 140.338C125.112 140.972 125.689 141.861 125.689 142.685V154.486C125.689 155.374 125.112 156.199 123.957 156.833C121.649 158.166 117.93 158.166 115.622 156.833C114.468 156.199 113.891 155.311 113.891 154.422V142.749Z" fill="#E3E7FA"/>
<g opacity="0.1">
<path d="M115.558 145.16C117.866 146.492 121.585 146.492 123.893 145.16C125.047 144.525 125.625 143.637 125.625 142.812V154.613C125.625 155.501 125.047 156.326 123.893 156.96C121.585 158.293 117.866 158.293 115.558 156.96C114.404 156.326 113.827 155.438 113.827 154.549V142.749C113.891 143.637 114.468 144.462 115.558 145.16Z" fill="#1A50B2"/>
</g>
<g opacity="0.1">
<path d="M184.165 111.027L195.129 104.683C198.528 102.716 204.042 102.716 207.44 104.683C210.838 106.649 210.838 109.758 207.44 111.725L196.476 118.069C193.078 120.036 187.563 120.036 184.165 118.069C180.767 116.102 180.767 112.93 184.165 111.027Z" fill="#1A50B2"/>
</g>
<path d="M199.233 99.9878C199.233 98.7189 198.399 97.3866 196.668 96.4349C193.27 94.4682 187.692 94.5316 184.229 96.4984C182.498 97.45 181.664 98.7824 181.6 100.051V114.516C181.6 115.785 182.434 117.118 184.165 118.069C187.563 120.036 193.142 119.973 196.604 118.006C198.335 117.054 199.169 115.722 199.233 114.453V99.9878Z" fill="url(#paint13_linear_53_4114)"/>
<path d="M196.732 96.4349C193.334 94.4682 187.756 94.5316 184.293 96.4984C180.831 98.4651 180.831 101.637 184.229 103.604C187.628 105.571 193.206 105.507 196.668 103.541C200.067 101.574 200.131 98.4017 196.732 96.4349Z" fill="white"/>
<path d="M196.027 96.8157C193.013 95.1028 188.012 95.1027 184.935 96.8792C181.857 98.6556 181.857 101.447 184.87 103.224C187.884 104.937 192.885 104.937 195.963 103.16C199.041 101.384 199.041 98.5287 196.027 96.8157Z" fill="#BBEDA4"/>
<path opacity="0.4" d="M196.027 96.8157C193.013 95.1028 188.012 95.1027 184.935 96.8792C181.857 98.6556 181.857 101.447 184.87 103.224C187.884 104.937 192.885 104.937 195.963 103.16C199.041 101.384 199.041 98.5287 196.027 96.8157Z" fill="black"/>
<path d="M193.142 88.885C191.731 86.601 188.076 77.9092 187.948 85.9666C187.82 94.0239 181.793 84.5074 185.063 89.6463C188.333 94.7853 188.653 96.2445 191.282 94.468C193.975 92.7551 193.975 90.3442 193.142 88.885Z" fill="#BBEDA4"/>
<path opacity="0.2" d="M193.142 88.885C191.731 86.601 188.076 77.9092 187.948 85.9666C187.82 94.0239 181.793 84.5074 185.063 89.6463C188.333 94.7853 188.653 96.2445 191.282 94.468C193.975 92.7551 193.975 90.3442 193.142 88.885Z" fill="black"/>
<path d="M196.155 86.3474C194.745 84.0634 191.09 75.3716 190.962 83.429C190.833 91.4863 184.806 81.9698 188.076 87.1087C191.346 92.2477 191.667 93.7069 194.296 91.9305C196.989 90.2175 197.053 87.8066 196.155 86.3474Z" fill="#F5F7FF"/>
<path opacity="0.7" d="M196.155 86.3474C194.745 84.0634 191.09 75.3716 190.962 83.429C190.833 91.4863 184.806 81.9698 188.076 87.1087C191.346 92.2477 191.667 93.7069 194.296 91.9305C196.989 90.2175 197.053 87.8066 196.155 86.3474Z" fill="black"/>
<path d="M191.475 85.5227C190.898 84.3807 186.602 83.3022 188.333 80.7644C190.064 78.2267 192.885 76.133 195.707 75.8792C198.528 75.6255 197.63 77.275 202.183 75.6255C206.735 73.9759 207.633 75.6255 207.633 75.6255C207.633 75.6255 205.837 76.5771 205.901 78.7342C205.966 80.8913 204.876 82.8581 200.003 83.8097C195.13 84.6979 197.181 88.5046 192.565 88.7583C187.884 89.0121 192.18 86.9819 191.475 85.5227Z" fill="#BBEDA4"/>
<path opacity="0.3" d="M205.901 78.7342C205.837 76.5771 207.632 75.6255 207.632 75.6255C207.632 75.6255 206.799 73.9759 202.182 75.6255C197.63 77.275 198.528 75.6255 195.706 75.8792C192.885 76.133 190 78.2267 188.333 80.7644C187.243 82.3505 188.525 83.3656 189.743 84.1904C188.91 82.8581 187.243 82.7312 189.743 80.8913C192.244 79.0514 190.192 78.988 193.078 78.1632C195.963 77.3384 197.886 78.3536 198.72 78.1632C199.554 77.9729 198.784 78.2267 201.413 78.2267C203.978 78.2267 202.054 78.7977 201.413 79.9397C200.772 81.1451 201.99 80.5106 200.387 81.843C198.784 83.1753 198.72 83.3022 197.438 84.9517C198.015 84.4442 198.784 84.0635 200.002 83.8097C204.875 82.9215 205.965 80.8913 205.901 78.7342Z" fill="black"/>
<path d="M194.616 85.5225C195.835 83.4923 193.398 85.2688 194.616 83.2386C195.835 81.2084 192.629 83.4289 193.078 81.8428C193.526 80.1933 191.667 84.0633 191.731 82.0966C191.795 80.1298 190.897 84.1902 190.385 82.7945C190 81.7794 190.128 83.302 189.743 84.1902C190.513 84.6978 191.218 85.0784 191.475 85.5225C191.731 85.9667 191.475 86.4742 191.09 86.9818C192.565 87.1086 193.719 86.9818 194.616 85.5225Z" fill="#F5F7FF"/>
<g opacity="0.1">
<path d="M193.142 84.9515C193.911 84.7612 193.911 82.3503 193.142 83.3654C192.372 84.3171 191.475 85.3322 190.641 84.7612C191.026 85.015 191.41 85.2687 191.539 85.5859C191.795 86.0301 191.539 86.5376 191.154 87.0452C191.859 86.1569 192.372 85.1418 193.142 84.9515Z" fill="#1A50B2"/>
</g>
<path d="M189.23 88.8851C189.23 88.8851 193.847 86.8549 190.962 83.3021C188.076 79.7492 187.563 81.2084 185.319 79.3051C183.075 77.3383 183.396 79.1148 181.151 77.6556C178.843 76.1964 176.214 77.0211 174.483 78.1631C172.752 79.2417 172.624 80.1299 172.624 80.1299C172.624 80.1299 174.098 78.9879 174.74 81.7794C175.06 83.3021 178.587 84.5075 179.036 87.4259C179.42 89.7733 182.626 91.0422 183.652 91.3594C189.743 93.009 189.23 88.8851 189.23 88.8851Z" fill="#BBEDA4"/>
<path opacity="0.3" d="M189.23 88.885C189.23 88.885 191.475 87.9333 191.859 86.0935C191.859 85.9666 191.859 85.8397 191.923 85.7128C191.987 85.0149 191.731 84.1902 190.962 83.3019C188.076 79.7491 187.563 81.2083 185.319 79.305C183.075 77.3382 183.396 79.1146 181.151 77.6554C181.087 77.6554 181.087 77.592 181.023 77.592C180.638 77.592 180.254 77.5285 179.869 77.4017C177.689 76.6403 177.176 78.4802 175.958 78.6705C174.74 78.9243 173.906 79.305 174.419 79.305C174.996 79.305 176.407 80.9545 176.407 80.9545C176.407 80.9545 176.663 82.3503 177.689 83.3654C178.779 84.3805 179.228 84.3805 179.997 86.4107C180.767 88.4409 182.049 87.8699 182.626 89.0753C183.203 90.2808 184.999 91.2959 186.281 91.6765C189.615 91.6765 189.23 88.885 189.23 88.885Z" fill="black"/>
<path d="M189.23 88.8851C189.23 88.8851 193.975 86.8549 191.026 83.302C188.653 80.3836 187.884 80.8277 186.473 80.0664C186.794 80.574 187.307 81.0181 188.012 81.4622C189.359 82.3504 186.73 81.0815 188.012 82.9848C189.295 84.8881 186.217 82.6042 186.666 84.5709C187.05 86.4742 183.139 85.1419 184.806 85.586C189.679 86.7915 189.23 88.8851 189.23 88.8851Z" fill="#F5F7FF"/>
<g opacity="0.1">
<path d="M187.756 85.0783C187.499 85.1418 187.05 85.2687 186.537 85.3956C186.153 85.7128 185.383 85.7128 184.934 85.6493C189.679 86.8548 189.295 88.9484 189.295 88.9484C189.295 88.9484 189.936 88.6946 190.513 88.2505C190.192 87.3623 189.679 87.172 189.359 86.2203C188.846 85.0149 188.589 84.888 187.756 85.0783Z" fill="#1A50B2"/>
</g>
<path d="M190.513 91.5498C191.475 90.5982 189.487 85.142 195.322 85.5227C201.156 85.9033 203.914 93.3897 199.554 97.3232C195.193 101.257 195.386 105 195.386 105C195.386 105 191.795 101.891 187.243 101.764C185.127 101.701 180.446 99.4169 181.087 96.1812C181.793 92.438 179.356 89.0121 182.819 87.4894C189.359 84.6979 188.782 93.2628 190.513 91.5498Z" fill="#BBEDA4"/>
<path opacity="0.3" d="M199.554 97.3233C203.914 93.3898 201.157 85.9034 195.322 85.5227C191.218 85.2689 190.962 87.9336 190.898 89.8369C191.282 88.7584 194.039 86.9819 195.386 89.139C196.732 91.3596 198.143 90.1541 197.117 92.565C196.155 94.9759 197.694 93.8973 196.861 95.991C196.027 98.0846 195.065 98.6556 195.322 100.242C195.578 101.828 194.616 104.048 195.386 105C195.386 105 195.193 101.257 199.554 97.3233Z" fill="black"/>
<path d="M184.229 88.124C186.473 87.4261 183.973 91.1059 185.063 89.7101C186.153 88.3143 185.127 93.3899 186.089 91.6769C186.986 89.9639 187.756 95.8642 188.14 93.7705C188.525 91.6769 190.449 99.0998 190.256 97.0062C190.064 94.9125 193.847 97.6406 193.078 95.2297C192.308 92.7554 196.283 92.5651 194.809 90.5983C193.334 88.695 196.476 89.0122 194.232 88.1875C191.988 87.3627 196.348 87.1089 195.129 86.4745C194.36 86.0304 193.078 85.9669 192.052 86.2207C190.32 87.6799 191.154 90.7887 190.449 91.4865C188.717 93.1995 189.359 84.698 182.883 87.4261C182.819 87.9337 183.267 88.3778 184.229 88.124Z" fill="#F5F7FF"/>
<g opacity="0.1">
<path d="M186.794 89.2659C187.756 90.7886 186.089 89.2025 187.499 91.2961C188.846 93.3898 188.653 90.0907 190.064 93.0726C191.474 96.0544 192.308 97.0695 191.667 94.2146C191.154 91.8671 190.705 92.4381 190.769 90.7251C190.705 91.0424 190.641 91.2961 190.513 91.423C189.679 92.2478 189.359 90.5348 188.461 88.9487C187.371 87.3626 185.832 87.7433 186.794 89.2659Z" fill="#1A50B2"/>
</g>
<g opacity="0.1">
<path d="M26.3047 105.19L39.1284 97.64C42.142 95.927 47.0151 95.927 50.0286 97.64C53.0422 99.3529 53.0422 102.144 50.0286 103.857L37.2049 111.407C34.1913 113.12 29.3183 113.12 26.2406 111.407C23.2911 109.758 23.2911 106.966 26.3047 105.19Z" fill="#1A50B2"/>
</g>
<path d="M23.9965 106.395C23.9965 105.317 24.7018 104.175 26.1765 103.35C29.126 101.7 33.8707 101.7 36.8202 103.35C38.2949 104.175 39.0644 105.317 39.0002 106.395V108.362C39.0002 109.441 38.2949 110.583 36.8202 111.407C33.8707 113.12 29.126 113.12 26.1765 111.407C24.7018 110.583 23.9965 109.441 23.9965 108.362V106.395Z" fill="#788BF1"/>
<path opacity="0.2" d="M23.9965 106.395C23.9965 107.474 24.7659 108.616 26.1765 109.441C29.126 111.154 33.9349 111.154 36.8202 109.441C38.2949 108.616 39.0002 107.537 39.0002 106.395V108.362C39.0002 109.441 38.2949 110.583 36.8202 111.407C33.8707 113.12 29.126 113.12 26.1765 111.407C24.7018 110.583 23.9965 109.441 23.9965 108.362V106.395Z" fill="black"/>
<path d="M25.0223 103.413C25.0223 98.7819 28.0359 98.084 28.0359 96.0538C28.0359 94.0236 25.0223 93.3257 25.0223 88.6943V85.7759C24.9582 84.7608 25.5994 83.8091 26.9459 83.0478C29.5106 81.5886 33.6142 81.5886 36.179 83.0478C37.5255 83.8091 38.1025 84.7608 38.1025 85.7759V88.6943C38.1025 93.3257 35.089 94.0236 35.089 96.0538C35.089 98.084 38.1025 98.7819 38.1025 103.413V106.332C38.1667 107.347 37.5255 108.298 36.179 109.06C33.6142 110.519 29.5106 110.519 26.9459 109.06C25.5994 108.298 25.0223 107.347 25.0223 106.332V103.413Z" fill="url(#paint14_linear_53_4114)"/>
<g opacity="0.15">
<path d="M27.3947 94.4678C26.497 93.2624 25.0223 91.9935 25.0223 88.6944V85.776C24.9582 84.7609 25.5994 83.8092 26.9459 83.0479C28.613 82.0963 30.9854 81.779 33.1654 82.0963C33.2936 82.0963 33.3578 82.1597 33.486 82.1597C33.5501 82.1597 33.6142 82.1597 33.6783 82.2231C34.576 82.4135 35.4737 82.6673 36.2431 83.1114C37.5896 83.8727 38.1667 84.8243 38.1667 85.8394V88.7579C38.1667 93.3893 35.1531 94.0872 35.1531 96.1174C35.1531 98.1476 38.1667 98.8454 38.1667 103.477V104.873V106.395C38.2308 107.41 37.5896 108.362 36.2431 109.123C35.9866 109.25 35.666 109.441 35.3454 109.504C35.2172 109.567 35.089 109.567 34.9607 109.631C34.7684 109.694 34.6401 109.758 34.4478 109.758C34.0631 109.885 33.6142 109.948 33.1654 110.012C30.9854 110.329 28.6771 110.012 26.9459 109.06C25.5994 108.299 25.0223 107.347 25.0223 106.332V103.413C25.0223 102.462 25.2147 101.7 25.3429 101.066C23.9964 108.045 33.0372 109.25 33.0372 101.32C33.1013 94.4678 30.7289 98.0841 27.3947 94.4678Z" fill="#1A50B2"/>
</g>
<path d="M23.9965 83.6824C23.9965 82.6038 24.7018 81.4618 26.1765 80.6371C29.126 78.9875 33.8707 78.9875 36.8202 80.6371C38.2949 81.4618 39.0644 82.6038 39.0002 83.6824V85.6491C39.0002 86.7277 38.2949 87.8697 36.8202 88.6944C33.8707 90.4074 29.126 90.4074 26.1765 88.6944C24.7018 87.8697 23.9965 86.7277 23.9965 85.6491V83.6824Z" fill="#788BF1"/>
<path opacity="0.2" d="M23.9965 83.6824C23.9965 84.7609 24.7659 85.9029 26.1765 86.7277C29.126 88.4407 33.9349 88.4407 36.8202 86.7277C38.2949 85.9029 39.0002 84.8244 39.0002 83.6824V85.6491C39.0002 86.7277 38.2949 87.8697 36.8202 88.6944C33.8707 90.4074 29.126 90.4074 26.1765 88.6944C24.7018 87.8697 23.9965 86.7277 23.9965 85.6491V83.6824Z" fill="black"/>
<path d="M27.523 104.111C28.613 103.477 30.0878 100.685 31.5625 100.685C33.0372 100.685 34.512 103.477 35.602 104.111C37.8461 105.38 37.8461 107.474 35.602 108.743C33.3578 110.012 29.7672 110.012 27.523 108.743C25.2789 107.474 25.2789 105.38 27.523 104.111Z" fill="#788BF1"/>
<path opacity="0.2" d="M35.602 104.111C37.8461 105.38 37.8461 107.474 35.602 108.743C33.3578 110.011 29.7672 110.011 27.523 108.743C25.9201 107.854 25.4712 106.522 26.1765 105.317C28.2283 107.918 32.9731 107.093 33.1014 101.447C33.999 102.335 34.8967 103.667 35.602 104.111Z" fill="black"/>
<path d="M28.6771 91.2321C30.2801 90.3439 32.909 90.3439 34.5119 91.2321C35.4096 91.7396 35.7943 92.4375 35.6661 93.1354C35.602 93.4526 35.4096 93.7698 35.1531 94.0871C35.089 94.1505 35.089 94.1505 35.0249 94.2139C33.5502 95.7366 32.5884 95.5463 32.396 96.0538C32.2678 96.3076 32.0113 96.5614 31.5625 96.5614C31.1136 96.5614 30.8572 96.3076 30.7289 96.0538C30.5366 95.5463 29.6389 95.6731 28.1001 94.2139C27.7153 93.8967 27.523 93.5161 27.4589 93.1988C27.3948 92.501 27.7795 91.8031 28.6771 91.2321Z" fill="#788BF1"/>
<path opacity="0.2" d="M28.6771 91.2321C30.2801 90.3439 32.909 90.3439 34.5119 91.2321C35.4096 91.7396 35.7943 92.4375 35.6661 93.1354C35.602 93.4526 35.4096 93.7698 35.1531 94.0871C35.089 94.1505 35.089 94.1505 35.0249 94.2139C33.5502 95.7366 32.5884 95.5463 32.396 96.0538C32.2678 96.3076 32.0113 96.5614 31.5625 96.5614C31.1136 96.5614 30.8572 96.3076 30.7289 96.0538C30.5366 95.5463 29.6389 95.6731 28.1001 94.2139C27.7153 93.8967 27.523 93.5161 27.4589 93.1988C27.3948 92.501 27.7795 91.8031 28.6771 91.2321Z" fill="black"/>
<path opacity="0.1" d="M29.3824 91.5493C30.6007 90.8514 32.5884 90.8514 33.8066 91.5493C35.0249 92.2472 35.0249 93.3892 33.8066 94.087C32.5884 94.7849 30.6007 94.7849 29.3824 94.087C28.1642 93.3892 28.1642 92.2472 29.3824 91.5493Z" fill="black"/>
<defs>
<linearGradient id="paint0_linear_53_4114" x1="0.0160522" y1="119.92" x2="231.228" y2="119.92" gradientUnits="userSpaceOnUse">
<stop offset="0.48" stop-color="white"/>
<stop offset="0.52" stop-color="#DEE4F7"/>
</linearGradient>
<linearGradient id="paint1_linear_53_4114" x1="104.627" y1="101.032" x2="126.618" y2="101.032" gradientUnits="userSpaceOnUse">
<stop offset="0.3" stop-color="#7E92FD"/>
<stop offset="0.7" stop-color="#6177EC"/>
</linearGradient>
<linearGradient id="paint2_linear_53_4114" x1="98.2147" y1="74.8099" x2="133.03" y2="74.8099" gradientUnits="userSpaceOnUse">
<stop offset="0.3" stop-color="#7E92FD"/>
<stop offset="0.7" stop-color="#6177EC"/>
</linearGradient>
<linearGradient id="paint3_linear_53_4114" x1="90.4364" y1="87.5187" x2="103.662" y2="87.5187" gradientUnits="userSpaceOnUse">
<stop offset="0.25" stop-color="white"/>
<stop offset="0.7" stop-color="#DEE4F7"/>
</linearGradient>
<linearGradient id="paint4_linear_53_4114" x1="127.584" y1="87.5187" x2="140.807" y2="87.5187" gradientUnits="userSpaceOnUse">
<stop offset="0.25" stop-color="white"/>
<stop offset="0.7" stop-color="#DEE4F7"/>
</linearGradient>
<linearGradient id="paint5_linear_53_4114" x1="136.143" y1="113.438" x2="144.844" y2="113.438" gradientUnits="userSpaceOnUse">
<stop offset="0.3" stop-color="#7E92FD"/>
<stop offset="0.7" stop-color="#6177EC"/>
</linearGradient>
<linearGradient id="paint6_linear_53_4114" x1="135.006" y1="97.4723" x2="151.058" y2="97.4723" gradientUnits="userSpaceOnUse">
<stop offset="0.3" stop-color="#7E92FD"/>
<stop offset="0.7" stop-color="#6177EC"/>
</linearGradient>
<linearGradient id="paint7_linear_53_4114" x1="139.102" y1="81.4281" x2="150.463" y2="81.4281" gradientUnits="userSpaceOnUse">
<stop offset="0.25" stop-color="white"/>
<stop offset="0.7" stop-color="#DEE4F7"/>
</linearGradient>
<linearGradient id="paint8_linear_53_4114" x1="86.3999" y1="113.438" x2="95.102" y2="113.438" gradientUnits="userSpaceOnUse">
<stop offset="0.3" stop-color="#7E92FD"/>
<stop offset="0.7" stop-color="#6177EC"/>
</linearGradient>
<linearGradient id="paint9_linear_53_4114" x1="80.1858" y1="97.4729" x2="96.2389" y2="97.4729" gradientUnits="userSpaceOnUse">
<stop offset="0.3" stop-color="#7E92FD"/>
<stop offset="0.7" stop-color="#6177EC"/>
</linearGradient>
<linearGradient id="paint10_linear_53_4114" x1="80.7799" y1="81.4279" x2="92.141" y2="81.4279" gradientUnits="userSpaceOnUse">
<stop offset="0.25" stop-color="white"/>
<stop offset="0.7" stop-color="#DEE4F7"/>
</linearGradient>
<linearGradient id="paint11_linear_53_4114" x1="96.4118" y1="36.7157" x2="134.832" y2="36.7157" gradientUnits="userSpaceOnUse">
<stop offset="0.25" stop-color="white"/>
<stop offset="0.7" stop-color="#DEE4F7"/>
</linearGradient>
<linearGradient id="paint12_linear_53_4114" x1="99.9555" y1="14.0873" x2="131.291" y2="14.0873" gradientUnits="userSpaceOnUse">
<stop offset="0.3" stop-color="#7E92FD"/>
<stop offset="0.7" stop-color="#6177EC"/>
</linearGradient>
<linearGradient id="paint13_linear_53_4114" x1="181.646" y1="107.236" x2="199.245" y2="107.236" gradientUnits="userSpaceOnUse">
<stop offset="0.25" stop-color="white"/>
<stop offset="0.7" stop-color="#DEE4F7"/>
</linearGradient>
<linearGradient id="paint14_linear_53_4114" x1="25.0403" y1="96.0757" x2="38.1074" y2="96.0757" gradientUnits="userSpaceOnUse">
<stop offset="0.25" stop-color="white"/>
<stop offset="0.7" stop-color="#DEE4F7"/>
</linearGradient>
</defs>
</svg>
