<svg width="209" height="240" viewBox="0 0 209 240" fill="none" xmlns="http://www.w3.org/2000/svg">
<g opacity="0.15">
<path d="M114.236 238.785C111.438 240.427 106.919 240.383 104.079 238.785L12.2749 185.556C9.47733 183.914 9.47733 181.322 12.2749 179.68L103.992 126.495C106.79 124.853 111.352 124.853 114.15 126.495L205.997 179.724C208.794 181.365 208.794 184.001 205.997 185.599L114.236 238.785Z" fill="#1A50B2"/>
</g>
<path d="M197.939 153.387C197.939 152.307 197.251 151.27 195.831 150.449L103.984 97.2206C101.186 95.5788 96.6241 95.5788 93.8265 97.2206L2.10894 150.406C0.688635 151.227 0 152.307 0 153.387V168.077C0 169.114 0.731675 170.194 2.10894 170.972L93.9556 224.2C96.7532 225.842 101.315 225.842 104.113 224.2L195.831 171.058C197.251 170.237 197.939 169.157 197.939 168.077V153.387Z" fill="url(#paint0_linear_53_4912)"/>
<g opacity="0.1">
<path d="M197.939 153.387C197.939 152.307 197.251 151.27 195.831 150.449L103.984 97.2206C101.186 95.5788 96.6241 95.5788 93.8265 97.2206L2.10894 150.406C0.688635 151.227 0 152.307 0 153.387V168.077C0 169.114 0.731675 170.194 2.10894 170.972L93.9556 224.2C96.7532 225.842 101.315 225.842 104.113 224.2L195.831 171.058C197.251 170.237 197.939 169.157 197.939 168.077V153.387Z" fill="#1A50B2"/>
</g>
<path d="M104.07 209.51C101.273 211.152 96.7534 211.152 93.9128 209.51L2.10914 156.282C-0.688439 154.64 -0.688439 152.048 2.10914 150.406L93.8267 97.2206C96.6243 95.5788 101.186 95.5788 103.984 97.2206L195.831 150.449C198.628 152.091 198.628 154.683 195.831 156.325L104.07 209.51Z" fill="white"/>
<path d="M106.308 70.2175C106.308 69.1373 106.997 68.1004 108.417 67.2795L119.091 61.1012C121.888 59.4594 126.451 59.4594 129.248 61.1012L180.379 90.7398C181.8 91.5607 182.488 92.6409 182.488 93.721V98.4303C182.488 99.4673 181.757 100.547 180.379 101.325L169.706 107.503C166.908 109.145 162.346 109.145 159.548 107.503L108.417 77.8648C106.997 77.0439 106.308 75.9637 106.308 74.8836V70.2175Z" fill="url(#paint1_linear_53_4912)"/>
<g opacity="0.1">
<path d="M106.308 70.2175C106.308 69.1373 106.997 68.1004 108.417 67.2795L119.091 61.1012C121.888 59.4594 126.451 59.4594 129.248 61.1012L180.379 90.7398C181.8 91.5607 182.488 92.6409 182.488 93.721V98.4303C182.488 99.4673 181.757 100.547 180.379 101.325L169.706 107.503C166.908 109.145 162.346 109.145 159.548 107.503L108.417 77.8648C106.997 77.0439 106.308 75.9637 106.308 74.8836V70.2175Z" fill="#1A50B2"/>
</g>
<path d="M159.548 102.794C162.346 104.436 166.865 104.436 169.706 102.794L180.38 96.6157C183.177 94.9739 183.177 92.3816 180.38 90.7398L129.249 61.1012C126.451 59.4594 121.889 59.4594 119.091 61.1012L108.417 67.2795C105.62 68.9213 105.62 71.5568 108.417 73.1554L159.548 102.794Z" fill="#F5F7FF"/>
<path d="M80.9576 93.7211C80.9576 92.641 81.6463 91.6041 83.0666 90.7832L93.7404 84.6049C96.538 82.9631 101.1 82.9631 103.898 84.6049L155.029 114.244C156.449 115.064 157.138 116.145 157.138 117.225V121.934C157.138 122.971 156.406 124.051 155.029 124.829L144.355 131.007C141.558 132.649 136.995 132.649 134.198 131.007L83.0666 101.368C81.6463 100.548 80.9576 99.4674 80.9576 98.3873V93.7211Z" fill="url(#paint2_linear_53_4912)"/>
<g opacity="0.1">
<path d="M80.9576 93.7211C80.9576 92.641 81.6463 91.6041 83.0666 90.7832L93.7404 84.6049C96.538 82.9631 101.1 82.9631 103.898 84.6049L155.029 114.244C156.449 115.064 157.138 116.145 157.138 117.225V121.934C157.138 122.971 156.406 124.051 155.029 124.829L144.355 131.007C141.558 132.649 136.995 132.649 134.198 131.007L83.0666 101.368C81.6463 100.548 80.9576 99.4674 80.9576 98.3873V93.7211Z" fill="#1A50B2"/>
</g>
<path d="M134.198 126.341C136.995 127.983 141.514 127.983 144.355 126.341L155.029 120.163C157.826 118.521 157.826 115.929 155.029 114.287L103.898 84.6481C101.1 83.0063 96.5379 83.0063 93.7403 84.6481L83.0665 90.7832C80.2689 92.425 80.2689 95.0605 83.0665 96.6591L134.198 126.341Z" fill="#F5F7FF"/>
<g opacity="0.1">
<path d="M124.514 78.1094L110.741 70.1597C110.569 67.2649 113.926 67.3945 114.529 64.9319C116.207 57.9327 126.795 55.9884 131.099 59.0128C135.79 62.2964 124.815 66.6169 124.342 73.3136C124.342 73.3136 125.116 75.085 124.514 78.1094ZM105.361 80.6585C96.4519 80.8313 93.1378 79.5352 90.2972 83.51C88.6617 85.7567 86.6819 90.034 85.3477 93.62L89.7807 96.2123C89.6516 94.3545 89.5655 92.1942 89.7377 91.4597C89.7377 91.4597 94.9885 87.7441 96.0645 89.2563C97.1405 90.7685 97.0975 89.9476 95.5481 92.6695C94.8594 93.8792 94.0417 96.0827 93.3961 98.2861L99.2064 101.656C98.6039 97.5948 97.7 96.6875 98.1304 95.7802C99.5938 92.6695 107.298 92.1942 113.84 88.6514C116.637 87.1392 118.359 85.7999 119.693 84.7198L109.536 78.8439C108.761 79.924 107.427 80.6153 105.361 80.6585Z" fill="#1A50B2"/>
</g>
<g opacity="0.05">
<path d="M97.7431 118.42C101.918 116 101.057 109.822 92.5353 104.853C84.0135 99.928 74.6739 100.187 70.499 102.607C66.3242 105.026 66.6254 111.204 75.1473 116.13C83.6692 121.098 93.5683 120.839 97.7431 118.42Z" fill="#1A50B2"/>
</g>
<path d="M98.7329 71.3697C97.8721 71.7153 97.4848 72.1905 96.5379 72.277C95.6341 72.3634 94.5581 72.6226 94.2998 73.0547C94.0416 73.4867 93.7403 73.6595 93.439 74.3508C93.1378 75.0421 93.0086 75.2149 93.0947 75.3445C93.2238 75.4741 93.2238 75.4309 93.2669 75.6902C93.3099 75.9926 93.439 75.863 93.5251 76.1654C93.6112 76.4678 93.7403 76.5111 93.8694 76.6407C93.9555 76.7703 94.4289 77.2455 94.6872 76.9431C94.9024 76.6407 94.9024 76.4678 94.6872 76.2518C94.472 76.0358 94.6011 75.9062 94.7733 75.863C94.9454 75.8198 95.2037 75.6902 95.8062 75.5605C96.4088 75.4309 97.3556 75.2581 98.0012 74.6532C98.6468 74.0916 98.6468 73.6163 99.7228 73.4003C107.298 71.9745 100.885 70.4191 98.7329 71.3697Z" fill="#F7B6B2"/>
<path d="M96.882 73.0979C97.3984 71.8017 97.958 71.5857 99.7656 71.0672C101.573 70.5056 106.695 68.6045 108.158 68.2589C109.665 67.9133 110.612 68.0861 110.956 67.8701C111.645 67.438 111.86 67.6108 112.032 67.9565C112.075 69.5119 111.515 71.1104 109.105 71.5857H109.062C108.761 71.6289 108.503 71.7153 108.287 71.7585C107.728 71.8881 107.125 71.9745 106.351 72.1474C104.887 72.4066 101.53 73.0547 100.282 73.3139C100.153 73.3571 99.3352 73.0979 98.5605 73.1411C97.7858 73.1411 96.7098 73.5299 96.882 73.0979Z" fill="#F7B6B2"/>
<path opacity="0.4" d="M96.8821 74.4373C97.872 74.0484 97.6568 73.6164 98.4745 73.1411C98.6467 73.0547 98.9049 72.9251 99.1632 72.8387C99.2062 72.8387 99.2062 72.8387 99.2492 72.7955C99.5936 72.6658 100.024 72.5362 100.411 72.4066C100.454 72.4066 100.497 72.4066 100.497 72.3634C100.54 72.3634 100.54 72.3634 100.583 72.3202C101.961 71.9314 103.725 71.5857 105.103 71.2833C107.642 70.7648 109.148 70.2464 110.526 69.9007C111.042 69.7711 111.473 69.4687 111.903 69.0798C111.645 70.2032 110.87 71.1537 109.105 71.4993H109.062C108.761 71.5425 108.503 71.6289 108.288 71.6721C107.728 71.8017 107.126 71.8882 106.351 72.061C105.017 72.3202 102.176 72.8387 100.713 73.1411C100.411 73.2275 100.067 73.2707 99.7227 73.3571C98.8188 73.5299 98.6467 73.8756 98.2593 74.3076C98.1732 74.394 98.0872 74.4805 98.0011 74.6101C97.3555 75.1717 96.4086 75.3446 95.8061 75.5174C95.2035 75.647 94.9453 75.7766 94.7731 75.8198C94.5579 75.863 94.4718 75.9926 94.687 76.2087C94.8592 76.3815 94.9022 76.5111 94.7731 76.7271C94.5149 76.5543 94.2136 76.3383 94.2136 76.0358C94.0845 75.2581 95.8921 74.8261 96.8821 74.4373Z" fill="black"/>
<path opacity="0.4" d="M94.687 76.9001C94.73 76.8569 94.7731 76.8137 94.7731 76.7705C94.73 76.8137 94.687 76.8569 94.687 76.9001Z" fill="black"/>
<path d="M76.3523 106.02C78.117 104.119 79.5373 102.175 81.1728 99.1503C81.9475 97.7245 82.3779 96.8604 82.7653 96.0396C82.9805 97.0333 84.616 97.7678 86.1223 96.4716C84.9603 98.3726 84.7881 98.8479 84.8742 99.712C84.9603 100.706 85.6059 101.872 84.5729 102.693C83.54 103.514 83.2817 103.6 82.8083 103.687C82.3779 103.773 81.6032 104.681 80.9145 105.588C80.2259 106.495 79.5373 108.137 77.084 108.526C74.7168 108.958 74.5877 107.964 76.3523 106.02Z" fill="#F7B6B2"/>
<path opacity="0.2" d="M75.1901 108.094C75.1901 108.094 75.1901 108.051 75.1901 108.094C75.1901 108.007 75.1901 107.921 75.1901 107.835C75.5344 109.001 78.2889 107.921 79.0636 107.359C79.9244 106.711 80.8713 105.069 81.9043 103.946C82.9372 102.823 83.1954 101.699 83.4106 100.749C83.5828 99.9713 83.798 99.1072 84.7018 97.163C85.1753 97.1198 85.6917 96.9037 86.2082 96.4717C85.5626 97.5086 85.2183 98.1567 85.0462 98.6319V98.6751C85.0462 98.7183 85.0031 98.7615 85.0031 98.8048V98.848C85.0031 98.8912 85.0031 98.9344 84.9601 98.9344V98.9776C84.9601 99.0208 84.9601 99.0208 84.9601 99.064C84.9601 99.1072 84.9601 99.1072 84.9601 99.1504C84.9601 99.1936 84.9601 99.1936 84.9601 99.2368C84.9601 99.28 84.9601 99.28 84.9601 99.3232C84.9601 99.3664 84.9601 99.3664 84.9601 99.4096C84.9601 99.4528 84.9601 99.496 84.9601 99.496V99.5392C84.9601 99.5824 84.9601 99.6688 84.9601 99.7121C85.0461 100.706 85.6917 101.872 84.6588 102.693C83.6258 103.514 83.3676 103.601 82.8942 103.687C82.4638 103.773 81.6891 104.681 81.0004 105.588C80.3118 106.495 79.6232 108.137 77.1699 108.526C76.9977 108.569 76.8256 108.569 76.6965 108.569C76.6534 108.569 76.6104 108.569 76.5673 108.569C76.4813 108.569 76.3521 108.569 76.2661 108.569C76.223 108.569 76.18 108.569 76.1369 108.569C76.0509 108.569 75.9648 108.569 75.8787 108.569C75.8357 108.569 75.8357 108.569 75.7926 108.569C75.7065 108.569 75.6205 108.526 75.5344 108.483C75.3622 108.439 75.2761 108.31 75.1901 108.223C75.1901 108.223 75.1901 108.223 75.1901 108.18C75.1901 108.223 75.1901 108.137 75.1901 108.094Z" fill="black"/>
<path d="M82.5069 96.1259C82.9804 95.089 83.3247 94.1817 83.9272 92.4967C85.0463 89.4292 85.3906 86.1024 88.9629 80.7882C92.5352 75.5172 94.0846 77.2022 99.1202 77.5478C104.156 77.9366 109.235 83.5965 103.639 84.2014C102.047 84.3742 98.9481 84.6334 97.0543 83.9421C95.1606 83.2509 94.2568 83.6829 94.1276 83.7693C93.9985 83.8557 92.9656 86.5776 91.8465 88.3922C90.7275 90.2501 88.3603 92.972 86.5957 95.7371C86.4235 96.0395 86.2514 96.2988 86.0792 96.558C84.4868 97.9838 82.7221 97.1629 82.5069 96.1259Z" fill="#915DC2"/>
<path opacity="0.2" d="M85.2614 95.7805C86.8538 92.5401 92.492 83.6831 92.7072 82.1277C92.9224 80.5723 93.4819 80.0538 93.7832 79.1897C93.9984 78.5417 93.0085 77.5911 92.0186 77.5911C93.4819 76.7703 94.8592 77.0295 96.9251 77.3319C97.0542 77.3319 97.1834 77.3751 97.3125 77.3751H97.3555C97.5277 77.4183 97.6998 77.4183 97.872 77.4183C97.915 77.4183 97.9581 77.4183 98.0011 77.4183C98.1302 77.4183 98.2593 77.4615 98.4315 77.4615C98.4745 77.4615 98.5176 77.4615 98.5606 77.4615C98.7328 77.4615 98.948 77.5047 99.1201 77.5047C104.156 77.8936 109.234 83.5534 103.639 84.1583C102.047 84.3311 98.948 84.5904 97.0542 83.8991C95.1605 83.2078 94.2566 83.6398 94.1275 83.7263C93.9984 83.8127 92.9655 86.5346 91.8464 88.3492C90.7274 90.207 88.3602 92.9289 86.5956 95.694C86.4234 95.9965 86.2513 96.2557 86.0791 96.5149C85.5196 96.9902 84.9601 97.2062 84.4436 97.2494C84.7449 96.8606 85.0031 96.3421 85.2614 95.7805Z" fill="black"/>
<path d="M86.6385 111.766C88.7475 108.266 89.7804 106.538 90.9855 102.736C91.2007 102.131 91.3729 101.527 91.502 100.922C91.8463 101.743 93.2666 102.304 94.6439 101.181C94.5578 101.354 94.4287 101.57 94.3426 101.743C93.0084 104.378 93.0514 104.853 93.0945 105.631C93.1806 106.409 93.2666 106.495 92.4919 107.921C91.7172 109.303 91.502 110.686 91.1146 112.025C90.7273 113.365 90.383 114.315 87.9297 114.618C85.4765 114.963 84.5296 115.266 86.6385 111.766Z" fill="#F7B6B2"/>
<path opacity="0.2" d="M85.4765 114.358C85.4765 114.272 85.4765 114.186 85.5195 114.056C85.6917 114.834 87.1981 114.186 87.8867 114.099C88.7475 113.97 89.8235 113.581 90.2539 112.673C90.7273 111.766 91.4159 109.217 91.7603 108.31C92.1046 107.402 91.8463 107.402 92.0185 106.538C92.2337 105.674 92.2337 104.205 92.7502 102.65C92.7932 102.477 92.8793 102.218 93.0084 101.829C93.5249 101.829 94.1274 101.656 94.687 101.181C94.6009 101.354 94.4718 101.57 94.3857 101.743C93.0515 104.378 93.0945 104.853 93.1375 105.631C93.2236 106.409 93.3097 106.495 92.535 107.921C91.7603 109.303 91.5451 110.686 91.1577 112.025C90.7703 113.365 90.426 114.315 87.9728 114.618C87.8006 114.661 87.6285 114.661 87.4993 114.704C87.4563 114.704 87.4133 114.704 87.3702 114.704C87.1981 114.704 87.0689 114.747 86.9398 114.747C86.8968 114.747 86.8968 114.747 86.8537 114.747C86.6816 114.747 86.5525 114.79 86.4233 114.79C86.2942 114.79 86.2081 114.79 86.079 114.79H86.036C85.9499 114.79 85.8638 114.747 85.8208 114.747C85.8208 114.747 85.8208 114.747 85.7777 114.747C85.6917 114.704 85.6486 114.661 85.6056 114.618C85.5625 114.574 85.5625 114.488 85.5195 114.445C85.4765 114.402 85.4765 114.358 85.4765 114.358Z" fill="black"/>
<path d="M91.244 100.879C92.1479 97.5086 92.6643 94.3978 93.7834 90.3798C95.1176 85.5408 94.9885 82.6029 97.3557 81.1339C99.6798 79.6649 101.789 79.7081 105.404 80.2698C109.019 80.7883 105.103 77.6343 108.159 76.2085C111.171 74.7828 113.237 74.6531 113.754 75.6901C114.959 78.1095 116.078 80.2266 116.078 83.0349C116.078 85.8432 114.916 89.2996 110.827 89.2996C106.738 89.2996 103.209 88.2627 101.746 87.7443C100.282 87.2258 100.282 87.8307 100.282 87.8739C100.239 87.9171 100.368 90.7686 99.5076 93.2745C98.6899 95.6076 96.3657 98.4591 94.8593 101.267C93.2238 102.477 91.6314 101.829 91.244 100.879Z" fill="#915DC2"/>
<path opacity="0.2" d="M92.8796 101.915C94.1708 98.2863 98.5608 86.7937 98.6039 85.3248C98.6469 83.683 100.239 82.8621 99.809 82.0844C99.4646 81.4363 98.3456 80.8747 97.4418 81.0475C98.5178 80.3994 99.5507 80.0538 100.756 79.9241C101.057 79.8809 101.315 79.8809 101.617 79.8809H101.66C101.961 79.8809 102.262 79.8809 102.564 79.9241H102.607C102.908 79.9241 103.252 79.9674 103.596 80.0106H103.639C103.984 80.0538 104.371 80.097 104.759 80.1402C106.566 80.3994 107.556 80.8747 110.138 81.1771C112.721 81.5227 111.989 80.4858 111.903 79.0168C111.86 78.2392 111.43 76.6406 110.999 75.0852C111.171 75.042 111.301 75.042 111.473 74.9988C111.516 74.9988 111.516 74.9988 111.559 74.9988C111.688 74.9988 111.774 74.9556 111.903 74.9556C111.946 74.9556 111.989 74.9556 111.989 74.9556C112.075 74.9556 112.204 74.9556 112.29 74.9556C112.334 74.9556 112.334 74.9556 112.377 74.9556C112.506 74.9556 112.592 74.9988 112.721 74.9988C112.807 74.9988 112.893 75.042 112.979 75.0852C113.022 75.0852 113.022 75.0852 113.065 75.1284C113.108 75.1716 113.194 75.1716 113.237 75.2148C113.28 75.2148 113.28 75.258 113.323 75.258C113.366 75.3012 113.41 75.3444 113.453 75.3876L113.496 75.4308C113.539 75.474 113.582 75.5604 113.625 75.6468C114.83 78.0663 115.949 80.1834 115.949 82.9917C115.949 85.8 114.787 89.2564 110.698 89.2564C106.609 89.2564 103.08 88.2195 101.617 87.701C100.153 87.1826 100.153 87.7875 100.153 87.8307C100.11 87.8739 100.239 90.7254 99.3786 93.2313C99.3355 93.3609 99.2494 93.5337 99.2064 93.7065C99.1634 93.7497 99.1634 93.7929 99.1203 93.8794C99.0773 93.9658 99.0343 94.0954 98.9912 94.1818C98.9482 94.225 98.9482 94.3114 98.9051 94.3546C98.8621 94.441 98.819 94.5706 98.733 94.6571C98.6899 94.7003 98.6469 94.7867 98.6469 94.8299C98.6039 94.9595 98.5178 95.0459 98.4747 95.1755C98.4317 95.2187 98.4317 95.3051 98.3887 95.3483C98.3026 95.4779 98.2595 95.6076 98.1735 95.694C98.1304 95.7372 98.1304 95.7804 98.0874 95.8236C98.0013 95.9532 97.9152 96.126 97.8291 96.2556L97.7861 96.2988C96.7962 97.8974 95.6341 99.5392 94.7303 101.224C94.1277 101.743 93.4821 101.915 92.8796 101.915Z" fill="black"/>
<path d="M118.918 50.0694C118.66 46.613 116.078 44.0207 113.151 44.2367C110.224 44.4527 108.115 47.4339 108.374 50.8471C108.632 54.3035 111.214 56.8958 114.141 56.6797C117.025 56.4637 119.177 53.5258 118.918 50.0694Z" fill="#3E4357"/>
<path opacity="0.2" d="M114.012 53.4826C114.313 51.6679 114.184 50.8039 115.518 49.5077C116.81 48.2548 114.959 43.4158 110.181 45.7057C110.268 45.6192 110.311 45.5328 110.397 45.4464C111.171 44.7551 112.118 44.2799 113.194 44.1935C116.121 43.9775 118.66 46.5698 118.962 50.0262C119.22 53.4826 117.068 56.4205 114.184 56.6365C113.28 56.7229 112.376 56.5069 111.602 56.0749C112.979 55.0811 113.926 54.0442 114.012 53.4826Z" fill="black"/>
<path d="M115.992 53.6554C114.485 54.9515 115.561 58.7968 116.939 59.6609C118.445 60.5682 114.614 64.8023 110.827 62.1668C107.039 59.5313 109.32 55.9885 111.042 56.5501C111.86 56.8093 111.602 56.2045 111.817 53.6986C112.032 51.1927 113.151 54.0874 114.098 54.5195C115.131 54.9515 116.121 53.569 115.992 53.6554Z" fill="#F7B6B2"/>
<path opacity="0.3" d="M114.744 58.84C114.184 57.4574 113.883 56.0749 114.571 53.8282C114.571 53.8282 116.121 53.6122 116.035 53.6554C114.528 54.9515 115.604 58.7968 116.982 59.6609C118.187 60.3954 115.949 63.2901 113.065 62.9877C113.581 62.3396 116.078 62.2964 116.336 61.8211C117.154 59.9201 115.26 60.0929 114.744 58.84Z" fill="black"/>
<path d="M103.209 63.9383C104.715 61.2164 105.404 61.5189 105.963 59.3154C106.523 57.1984 107.857 55.7294 108.847 55.9022C109.708 56.075 110.569 56.2911 111.386 56.5935C110.267 56.1614 108.374 58.9698 110.913 60.5252C113.452 62.0805 116.422 59.2722 117.326 59.8339C120.597 61.7781 122.06 62.599 118.703 66.7467C118.66 66.8331 118.617 66.8763 118.531 66.9627C118.445 67.0491 118.402 67.1787 118.316 67.2651C118.058 67.5676 117.799 67.9132 117.369 68.5181C116.68 69.5118 114.399 74.6964 114.873 77.9368C114.657 78.2392 114.313 78.5416 113.711 78.8873C112.893 79.3193 111.602 79.8378 110.224 80.1402C108.503 80.5291 106.738 80.5723 105.791 79.7514C104.887 78.9737 104.371 78.5848 104.113 78.0232C104.758 76.079 103.984 73.7891 103.898 72.4929C103.811 71.1536 103.811 69.339 103.811 68.6045C103.768 67.8268 101.703 66.7035 103.209 63.9383Z" fill="#788BF1"/>
<path opacity="0.2" d="M103.639 68.1291L103.596 68.0859C103.467 67.8699 103.295 67.6538 103.123 67.3514C103.123 67.3082 103.08 67.3082 103.08 67.265C103.037 67.1786 102.994 67.0922 102.951 67.049C102.951 67.0058 102.908 66.9626 102.908 66.9194C102.865 66.8329 102.821 66.7465 102.821 66.6601C102.821 66.6169 102.778 66.5737 102.778 66.4873C102.735 66.2713 102.692 66.0121 102.692 65.7096C102.735 65.9688 102.908 66.2713 103.166 66.5737C103.984 67.1786 105.017 67.7835 106.394 68.4747C110.827 70.6782 112.29 69.6845 113.495 67.9563C114.356 66.7033 115.088 65.4072 116.336 64.0246C117.498 62.3828 118.918 62.2532 117.24 61.0003C116.939 60.7842 116.551 60.4818 116.078 60.1362C116.68 59.9201 117.111 59.7473 117.412 59.9201C118.23 60.3954 118.961 60.8274 119.521 61.2595C119.607 61.3459 119.736 61.4323 119.822 61.4755C119.865 61.5187 119.908 61.5619 119.951 61.6051C119.994 61.6483 120.037 61.6915 120.123 61.778C120.166 61.8212 120.21 61.8644 120.253 61.9076C120.339 61.994 120.382 62.0804 120.425 62.1668C121.07 63.2037 120.726 64.4999 118.832 66.8329C118.789 66.9194 118.746 66.9626 118.66 67.049C118.574 67.1354 118.531 67.265 118.445 67.3514C118.187 67.6538 117.928 67.9995 117.498 68.6043C116.809 69.5981 114.528 74.7827 115.002 78.023C114.787 78.3255 114.442 78.6279 113.84 78.9735C113.323 79.276 112.548 79.5784 111.731 79.8376C111.774 79.0168 111.86 78.7575 111.86 78.7143C111.86 78.5847 111.903 78.4551 111.903 78.3255V78.2823C112.204 75.6036 112.419 73.4433 110.353 72.32C108.374 71.2399 105.361 70.0301 103.897 69.5981C103.897 69.2092 103.897 68.9068 103.854 68.6908C103.854 68.6476 103.811 68.5611 103.811 68.5179C103.811 68.4747 103.768 68.4747 103.768 68.4315C103.725 68.2587 103.682 68.1723 103.639 68.1291Z" fill="black"/>
<path opacity="0.2" d="M111.301 56.6367C111.257 56.6367 111.214 56.6367 111.214 56.6367C111.171 56.6367 111.128 56.6367 111.128 56.6367C111.085 56.6367 111.042 56.6367 110.999 56.6799C110.827 56.7231 110.698 56.8095 110.526 56.9391C109.665 56.5935 108.804 56.3774 107.943 56.2478C108.288 56.0318 108.589 55.9454 108.89 55.9886C109.105 56.0318 109.321 56.075 109.536 56.1182C110.181 56.2478 110.827 56.4638 111.43 56.6799C111.387 56.6367 111.344 56.6367 111.301 56.6367Z" fill="black"/>
<path d="M112.075 54.6491C109.277 56.3773 107.082 57.6302 106.695 60.6978C106.265 63.7653 105.877 64.1974 105.447 64.9319C105.016 65.6664 107.427 65.0183 109.923 63.1173C112.419 61.2163 108.675 58.7104 112.032 56.3341C115.389 54.001 113.581 53.7418 112.075 54.6491Z" fill="#3E4357"/>
<path opacity="0.2" d="M112.032 56.3775C108.675 58.7537 112.462 61.2596 109.923 63.1607C107.427 65.0617 105.016 65.7098 105.447 64.9753C105.662 64.5432 105.92 64.2408 106.135 63.4631C106.308 63.8087 106.91 63.2471 107.427 63.0742C108.201 62.815 109.148 61.5621 109.363 59.8339C109.579 58.1057 109.88 57.8032 111.3 56.7231C112.075 56.1182 111.946 55.5566 113.366 54.174C114.184 54.0876 114.399 54.6925 112.032 56.3775Z" fill="black"/>
<path d="M109.234 49.8966C109.364 49.1189 110.655 48.4276 111.559 49.3782C112.764 50.6743 112.893 51.2792 114.313 52.6617C114.442 52.7914 114.571 52.8778 114.7 52.9642C114.7 52.8346 114.7 52.7049 114.744 52.5753C114.916 51.7544 115.475 51.1928 115.992 51.3224C116.551 51.4088 116.852 52.1865 116.68 52.9642C116.594 53.3962 116.379 53.7419 116.164 53.9579C115.389 55.4701 114.356 56.507 112.893 57.2415C110.698 58.3216 109.45 55.7293 109.234 53.0938C109.062 51.7544 109.105 50.7175 109.234 49.8966Z" fill="#F7B6B2"/>
<path opacity="0.3" d="M113.883 54.6493C113.969 53.4828 114.227 52.5755 114.313 52.6619C114.442 52.7915 114.571 52.8779 114.701 52.9643C114.701 52.8347 114.701 52.7051 114.744 52.5755C114.916 51.7546 115.475 51.1929 115.992 51.3226C116.379 51.409 116.68 51.841 116.723 52.3595C116.723 52.5323 116.723 52.7051 116.68 52.8779C116.594 53.31 116.379 53.6556 116.164 53.8717C116.121 54.0013 116.078 54.0877 116.035 54.2173C115.26 55.5566 114.27 56.5504 112.893 57.2416C112.376 57.5009 111.903 57.5441 111.473 57.4577C112.678 57.7601 113.797 55.7727 113.883 54.6493Z" fill="black"/>
<path d="M87.8869 74.7396L97.3556 72.8818L112.247 81.5228L112.032 82.0845L102.563 83.9423L87.6717 75.3013L87.8869 74.7396Z" fill="#3E4357"/>
<path opacity="0.2" d="M87.8869 74.7396L97.3556 72.8818L112.247 81.5228L112.032 82.0845L102.563 83.9423L87.6717 75.3013L87.8869 74.7396Z" fill="black"/>
<path d="M97.3557 72.8818L112.247 81.5228L102.779 83.3374L87.8869 74.7396L97.3557 72.8818Z" fill="#3E4357"/>
<path d="M85.4337 66.0122L100.282 74.61L102.779 83.3374L102.52 83.7695L87.6287 75.1717L85.1324 66.4443L85.4337 66.0122Z" fill="#3E4357"/>
<path opacity="0.2" d="M85.4337 66.0122L100.282 74.61L102.779 83.3374L102.52 83.7695L87.6287 75.1717L85.1324 66.4443L85.4337 66.0122Z" fill="black"/>
<path d="M87.6288 75.1717L102.521 83.7695L99.9812 74.9989L85.1325 66.4443L87.6288 75.1717Z" fill="#3E4357"/>
<path d="M108.288 76.1653C107.384 76.2949 106.867 76.5973 105.963 76.4677C105.06 76.3381 103.984 76.2517 103.596 76.5973C103.252 76.9429 102.908 77.0294 102.434 77.591C101.961 78.1527 101.789 78.2823 101.875 78.4551C101.961 78.6279 101.961 78.5415 101.918 78.844C101.875 79.1464 102.047 79.06 102.047 79.3624C102.047 79.6649 102.176 79.7513 102.262 79.9241C102.348 80.0537 102.649 80.6586 102.951 80.4426C103.252 80.2265 103.252 80.0537 103.123 79.7945C102.994 79.5352 103.123 79.4488 103.338 79.4488C103.553 79.4488 103.768 79.4056 104.414 79.4488C105.06 79.492 106.006 79.5784 106.781 79.1896C107.556 78.8008 107.685 78.3687 108.804 78.4551C116.379 79.06 110.655 75.8628 108.288 76.1653Z" fill="#F7B6B2"/>
<path d="M106.05 77.3318C106.911 76.2085 107.47 76.1653 109.364 76.1221C111.129 76.0789 115.949 75.6468 117.843 75.69C117.929 75.7332 118.058 75.7765 118.144 75.8629C118.23 75.9493 118.316 76.0357 118.445 76.1221C118.531 76.2085 118.617 76.3381 118.66 76.4677C118.747 76.5973 118.79 76.7702 118.79 76.8998C118.919 77.4614 118.79 78.1959 118.23 79.1464C118.445 79.1464 118.66 79.1464 118.833 79.1464C118.617 79.1464 118.445 79.1464 118.187 79.1464H118.144C117.843 79.1032 117.584 79.1032 117.369 79.1032C116.81 79.06 116.207 79.0168 115.432 78.9304C113.969 78.8008 110.526 78.4984 109.278 78.412C109.149 78.412 108.417 77.9367 107.685 77.7639C106.911 77.6343 105.792 77.6775 106.05 77.3318Z" fill="#F7B6B2"/>
<path opacity="0.3" d="M105.705 78.628C106.738 78.5416 106.652 78.0663 107.599 77.8071C107.771 77.7639 108.072 77.7207 108.374 77.6775C108.417 77.6775 108.417 77.6775 108.46 77.6775C108.847 77.6343 109.277 77.6343 109.708 77.6343C109.751 77.6343 109.794 77.6343 109.794 77.6343C109.837 77.6343 109.837 77.6343 109.88 77.6343C111.3 77.6343 113.108 77.7639 114.528 77.8503C116.379 77.9799 117.713 77.9799 118.832 77.9799C118.746 78.3256 118.574 78.7144 118.316 79.1897C118.531 79.1897 118.746 79.1897 118.918 79.1897C118.703 79.1897 118.531 79.1897 118.273 79.1897H118.23C117.928 79.1464 117.67 79.1465 117.455 79.1465C116.896 79.1032 116.293 79.06 115.518 78.9736C114.184 78.844 111.3 78.628 109.794 78.4984C109.493 78.4984 109.148 78.4552 108.761 78.4552C107.642 78.3688 107.513 78.8008 106.738 79.1897C105.963 79.5785 105.017 79.4921 104.371 79.4489C103.725 79.4057 103.467 79.4489 103.295 79.4489C103.08 79.4489 102.951 79.5353 103.08 79.7945C103.209 80.0106 103.209 80.1402 103.037 80.313C102.822 80.097 102.606 79.7945 102.649 79.4921C102.778 78.6712 104.629 78.7144 105.705 78.628Z" fill="black"/>
<path d="M118.703 74.7395C118.703 74.6531 118.703 74.6099 118.66 74.5235C118.66 74.4802 118.66 74.437 118.66 74.3938C118.488 73.1841 118.316 71.9744 118.273 71.4127C118.187 70.2894 118.101 68.9068 118.144 67.5675C117.541 67.0922 117.24 65.796 117.498 64.4135C117.799 62.7285 118.789 61.4755 119.65 61.6052C119.908 61.6484 120.123 61.8212 120.296 62.0804C121.458 63.0309 121.63 63.7654 121.802 65.6664C121.974 67.1786 122.103 71.5855 122.232 74.4803C122.232 75.0851 122.189 75.7764 122.017 76.4677C121.974 76.5541 121.974 76.6837 121.931 76.7701C121.931 76.8133 121.888 76.8133 121.888 76.8565C121.845 77.0293 121.759 77.2022 121.673 77.375V77.4182C121.156 78.4983 120.123 79.3192 118.23 79.1896C118.789 78.2391 118.918 77.5046 118.789 76.9429C118.746 76.7701 118.703 76.6405 118.66 76.5109C118.574 76.3813 118.531 76.2517 118.445 76.1652C118.359 76.0788 118.273 75.9924 118.144 75.906C118.057 75.8196 117.928 75.7764 117.842 75.7332C118.703 75.69 118.746 75.1715 118.703 74.7395Z" fill="#788BF1"/>
<path opacity="0.2" d="M117.498 64.4136C117.627 63.5495 117.972 62.815 118.359 62.3397C118.66 61.9509 119.005 61.6916 119.349 61.6484C119.392 61.6484 119.435 61.6484 119.478 61.6484C119.521 61.6484 119.607 61.6484 119.65 61.6484C119.909 61.6916 120.124 61.8645 120.296 62.1237C121.458 63.0742 121.63 63.8087 121.802 65.7097C121.802 65.7961 121.802 65.8825 121.845 66.0121C121.845 66.0553 121.845 66.0985 121.845 66.0985C121.845 66.185 121.845 66.2714 121.845 66.3146C121.845 66.3578 121.845 66.401 121.845 66.4442C121.845 66.5306 121.845 66.617 121.845 66.7034C121.845 66.7466 121.845 66.833 121.845 66.8762C121.845 66.9626 121.845 67.0491 121.845 67.1787C121.845 67.2219 121.845 67.2651 121.845 67.3515C121.845 67.4811 121.845 67.6539 121.888 67.8267C121.888 67.87 121.888 67.9564 121.888 67.9996C121.888 68.1292 121.888 68.2156 121.888 68.3452C121.888 68.3884 121.888 68.4748 121.888 68.518C121.888 68.5612 121.888 68.6476 121.888 68.6908C121.974 70.5487 122.061 72.7953 122.104 74.4803C122.104 75.3876 121.974 76.6406 121.415 77.6343C121.372 77.6775 121.372 77.7207 121.329 77.7639C121.243 77.8503 121.2 77.9799 121.114 78.0663C121.028 78.1527 120.941 78.2824 120.855 78.3688C120.812 78.412 120.769 78.4552 120.726 78.4984C120.124 79.0168 119.306 79.3193 118.101 79.2329C118.359 78.8008 118.531 78.412 118.617 78.0231C120.64 78.0231 120.726 75.6037 120.726 75.258C120.64 73.9187 120.597 71.0239 120.511 68.518C120.511 68.4748 120.511 68.3884 120.511 68.3452C120.511 68.1292 120.511 67.87 120.468 67.6539C120.425 66.7898 120.382 66.0121 120.339 65.4073C120.296 64.9752 120.253 64.6296 120.167 64.3271C120.124 64.1975 120.081 64.0679 120.038 63.9815C120.038 63.9383 119.995 63.8951 119.995 63.8519C119.952 63.7655 119.909 63.6791 119.865 63.5927C119.865 63.5495 119.822 63.5495 119.822 63.5062C118.876 62.5125 116.896 63.7223 117.412 66.3578C117.369 65.8393 117.369 65.148 117.498 64.4136Z" fill="black"/>
<g opacity="0.1">
<path d="M100.282 153.416L127.656 137.516L149.993 150.478L122.62 166.334L100.282 153.416Z" fill="#1A50B2"/>
</g>
<g opacity="0.05">
<path d="M80.0108 148.534L96.3659 153.891L97.0975 144.948L80.0108 148.534Z" fill="#1A50B2"/>
</g>
<path d="M94.3431 156.829L121.716 140.973L144.054 153.891L116.681 169.747L94.3431 156.829Z" fill="#F96969"/>
<path d="M95.1178 156.397L100.541 153.243L95.1178 151.99V156.397Z" fill="#F96969"/>
<path d="M144.054 153.891L121.716 140.973V134.751L144.054 147.713V148.62L122.534 136.134V140.497L144.054 152.984V153.891Z" fill="#F96969"/>
<path d="M116.595 167.371L96.3661 155.663V151.256L116.595 162.964V167.371Z" fill="white"/>
<path d="M116.594 162.964L141.471 148.577V152.941L116.594 167.371V162.964Z" fill="white"/>
<g opacity="0.1">
<path d="M116.594 162.964L141.471 148.577V152.941L116.594 167.371V162.964Z" fill="#1A50B2"/>
</g>
<path opacity="0.3" d="M116.681 168.84L144.054 152.984V153.891L116.681 169.747V168.84Z" fill="black"/>
<path d="M116.681 169.747L94.3431 156.829V150.651L116.681 163.569V164.476L95.1179 151.99V156.397L116.681 168.84V169.747Z" fill="#F96969"/>
<path opacity="0.3" d="M116.681 169.747L94.3431 156.829V150.651L116.681 163.569V164.476L95.1179 151.99V156.397L116.681 168.84V169.747Z" fill="white"/>
<path d="M116.681 164.476V163.569L144.054 147.713V148.62L116.681 164.476Z" fill="#F96969"/>
<path opacity="0.3" d="M116.681 164.476V163.569L144.054 147.713V148.62L116.681 164.476Z" fill="black"/>
<path d="M94.3431 150.651L121.716 134.751L144.054 147.713L116.681 163.569L94.3431 150.651Z" fill="#F96969"/>
<path opacity="0.2" d="M127.613 138.164L121.716 134.751L95.9356 149.743L105.318 151.083L127.613 138.164Z" fill="black"/>
<path d="M80.0108 148.534L107.384 132.634L128.301 135.702L100.928 151.601L80.0108 148.534Z" fill="#E3E7FA"/>
<path d="M80.0107 148.534L78.1169 141.621L88.3173 135.745L91.6314 141.794L80.0107 148.534Z" fill="#E3E7FA"/>
<g opacity="0.15">
<path d="M80.4842 147.626L89.6947 142.269L79.15 142.744L80.4842 147.626Z" fill="#1A50B2"/>
</g>
<path d="M128.301 135.702L107.384 132.634L105.533 125.765L126.45 128.832L126.709 129.826L106.523 126.888L107.857 131.727L128.043 134.708L128.301 135.702Z" fill="#E3E7FA"/>
<path d="M125.547 135.27L106.609 132.461L105.275 127.622L124.212 130.387L125.547 135.27Z" fill="url(#paint3_linear_53_4912)"/>
<path d="M100.67 149.657L81.7325 146.892L80.3983 142.01L99.3357 144.775L100.67 149.657Z" fill="white"/>
<g opacity="0.15">
<path d="M100.627 150.564L128.043 134.708L128.301 135.702L100.928 151.601L100.627 150.564Z" fill="#1A50B2"/>
</g>
<path d="M99.3355 144.775L124.212 130.387L125.547 135.27L100.67 149.657L99.3355 144.775Z" fill="white"/>
<g opacity="0.15">
<path d="M99.3355 144.775L124.212 130.387L125.547 135.27L100.67 149.657L99.3355 144.775Z" fill="#1A50B2"/>
</g>
<path d="M99.0344 144.689L126.451 128.832L126.709 129.826L99.2926 145.725L99.0344 144.689Z" fill="#E3E7FA"/>
<g opacity="0.15">
<path d="M99.0344 144.689L126.451 128.832L126.709 129.826L99.2926 145.725L99.0344 144.689Z" fill="#1A50B2"/>
</g>
<path d="M78.1169 141.621L105.533 125.765L126.451 128.832L99.0342 144.688L78.1169 141.621Z" fill="#E3E7FA"/>
<path d="M100.928 151.601L80.0107 148.534L78.1169 141.621L99.0342 144.688L99.2925 145.725L79.1499 142.744L80.4841 147.626L100.627 150.564L100.928 151.601Z" fill="white"/>
<path d="M55.0048 44.928C54.7466 44.5391 54.2301 44.4527 53.6706 44.7551L17.9907 65.4503C17.1299 65.9256 16.4843 67.1353 16.4843 68.0858V78.0662C16.4843 78.5415 16.6564 78.8871 16.9147 79.0599L16.3982 78.7575C16.14 78.5847 15.9678 78.239 15.9678 77.7638V67.7834C15.9678 66.7897 16.6564 65.6232 17.4742 65.1479L53.1541 44.4527C53.5845 44.1935 53.9718 44.1935 54.2301 44.3663L54.7466 44.6687C54.8757 44.7119 54.9618 44.7983 55.0048 44.928Z" fill="#788BF1"/>
<path opacity="0.4" d="M55.0048 44.928C54.7466 44.5391 54.2301 44.4527 53.6706 44.7551L17.9907 65.4503C17.1299 65.9256 16.4843 67.1353 16.4843 68.0858V78.0662C16.4843 78.5415 16.6564 78.8871 16.9147 79.0599L16.3982 78.7575C16.14 78.5847 15.9678 78.239 15.9678 77.7638V67.7834C15.9678 66.7897 16.6564 65.6232 17.4742 65.1479L53.1541 44.4527C53.5845 44.1935 53.9718 44.1935 54.2301 44.3663L54.7466 44.6687C54.8757 44.7119 54.9618 44.7983 55.0048 44.928Z" fill="black"/>
<path d="M17.9906 65.4503L53.6705 44.7551C54.5313 44.2798 55.1769 44.6687 55.1769 45.6192V55.5995C55.1769 56.5933 54.4883 57.7598 53.6705 58.235L17.9906 78.9302C17.1298 79.4055 16.4842 79.0167 16.4842 78.0661V68.0858C16.4842 67.1353 17.1298 65.9255 17.9906 65.4503Z" fill="#788BF1"/>
<path d="M47.731 53.5688C47.7741 53.5688 47.7741 53.5688 47.7741 53.612C47.8171 53.612 47.8171 53.612 47.8171 53.6553C47.8601 53.6553 47.8601 53.6553 47.8601 53.6985C47.9032 53.6985 47.9032 53.6985 47.9032 53.7417C47.9462 53.7417 47.9462 53.7417 47.9462 53.7849C47.9893 53.7849 47.9893 53.7849 47.9893 53.8281C48.0323 53.8281 48.0323 53.8281 48.0323 53.8713C47.9893 53.8713 47.9032 53.8713 47.8171 53.9145C47.6019 54.0441 47.4728 54.3033 47.4728 54.5626V56.8092C47.4728 56.8956 47.5158 56.982 47.5589 57.0252C47.5158 57.0252 47.5158 57.0252 47.5158 56.982C47.4728 56.982 47.4728 56.982 47.4728 56.9388C47.4298 56.9388 47.4297 56.9388 47.4297 56.8956C47.3867 56.8956 47.3867 56.8956 47.3867 56.8524C47.3437 56.8524 47.3437 56.8524 47.3437 56.8092C47.3006 56.8092 47.3006 56.8092 47.3006 56.766C47.2576 56.766 47.2576 56.766 47.2576 56.7228C47.1715 56.6796 47.1285 56.5932 47.1285 56.4636V54.2169C47.1285 54.0009 47.3006 53.6985 47.4728 53.5688C47.5589 53.4824 47.688 53.5256 47.731 53.5688ZM50.8729 52.7479C50.959 52.7047 51.0451 52.7047 51.0881 52.7047L51.0451 52.6615L51.002 52.6183L50.959 52.5751L50.916 52.5319L50.8729 52.4887L50.8299 52.4455L50.7868 52.4023C50.7008 52.3591 50.6147 52.3159 50.4856 52.4023C50.2704 52.5319 50.0982 52.7912 50.1412 53.0504V54.1305C50.1412 54.2601 50.1843 54.3465 50.2704 54.3897L50.3134 54.4329L50.3564 54.4761L50.3995 54.5194L50.4425 54.5626L50.4856 54.6058L50.5286 54.649L50.5716 54.6922C50.5286 54.649 50.4856 54.5626 50.4856 54.4761V53.396C50.5286 53.1368 50.7008 52.8776 50.8729 52.7479ZM21.7781 71.931C21.7781 72.0174 21.8211 72.0606 21.8642 72.0606C21.9072 72.0606 21.9503 72.0606 21.9503 72.0174C21.9933 72.0174 22.0363 71.9742 22.0363 71.931L24.1022 69.3819C24.1453 69.2955 24.1883 69.2091 24.1883 69.1226C24.1883 69.0362 24.1453 68.993 24.1022 68.993L22.0363 68.8202L23.6718 68.9498C23.6718 68.993 23.6288 69.0362 23.5858 69.1226L21.7351 71.4125V69.2091L21.7781 71.931ZM34.3026 61.7778C34.0874 61.9074 33.9583 62.1666 33.9583 62.4259V63.506C33.9583 63.6356 34.0014 63.722 34.0874 63.7652L34.1305 63.8084L34.1735 63.8516L34.2166 63.8948L34.2596 63.938L34.3026 63.9813L34.3457 64.0245L34.3887 64.0677C34.3457 64.0245 34.3026 63.938 34.3026 63.8516V62.6851C34.3026 62.4691 34.4748 62.1666 34.647 62.037C34.733 61.9938 34.8191 61.9938 34.8622 61.9938L34.8191 61.9506L34.7761 61.9074L34.733 61.8642L34.69 61.821L34.647 61.7778L34.6039 61.7346L34.5609 61.6914C34.5178 61.7346 34.4318 61.6914 34.3026 61.7778ZM30.0848 66.876V64.6293C30.0848 64.4133 30.2569 64.1109 30.4291 63.9813C30.5152 63.938 30.6012 63.938 30.6443 63.938L30.6012 63.8948L30.5582 63.8516L30.5152 63.8084L30.4721 63.7652L30.4291 63.722L30.386 63.6788L30.343 63.6356C30.2569 63.5924 30.1708 63.5492 30.0417 63.6356C29.8265 63.7652 29.6974 64.0245 29.6974 64.2837V66.5303C29.6974 66.66 29.7404 66.7464 29.8265 66.7896L29.8696 66.8328L29.9126 66.876L29.9556 66.9192L29.9987 66.9624L30.0417 67.0056L30.0848 67.0488L30.1278 67.092C30.1278 67.0488 30.0848 67.0056 30.0848 66.876ZM35.5508 64.0677L35.5938 64.1109L35.6369 64.1541L35.6799 64.1973L35.723 64.2405L35.766 64.2837L35.809 64.3269L35.8521 64.3701C35.809 64.3269 35.766 64.2405 35.766 64.1541V60.7409C35.766 60.5249 35.9382 60.2224 36.1103 60.0928C36.1964 60.0496 36.2825 60.0496 36.3255 60.0496L36.2825 60.0064L36.2394 59.9632L36.1964 59.92L36.1534 59.8768L36.1103 59.8336L36.0673 59.7904L36.0242 59.7472C35.9382 59.704 35.8521 59.6607 35.723 59.7472C35.5078 59.8768 35.3786 60.136 35.3786 60.3952V63.8084C35.4217 63.938 35.4647 64.0245 35.5508 64.0677ZM38.4775 61.1729L38.5205 61.2161L38.5636 61.2593L38.6066 61.3025L38.6497 61.3457L38.6927 61.389L38.7357 61.4322L38.7788 61.4754C38.7357 61.4322 38.6927 61.3457 38.6927 61.2593V60.1792C38.6927 59.9632 38.8649 59.6607 39.037 59.5311C39.1231 59.4879 39.2092 59.4879 39.2522 59.4879L39.2092 59.4447L39.1661 59.4015L39.1231 59.3583L39.0801 59.3151L39.037 59.2719L38.994 59.2287L38.9509 59.1855C38.8649 59.1423 38.7788 59.0991 38.6497 59.1855C38.4345 59.3151 38.3053 59.5743 38.3053 59.8336V60.9137C38.3484 61.0865 38.3914 61.1729 38.4775 61.1729ZM32.6241 66.9192L32.6671 66.9624L32.7102 67.0056L32.7532 67.0488L32.7963 67.092L32.8393 67.1352L32.8823 67.1784L32.9254 67.2216C32.8823 67.1784 32.8393 67.092 32.8393 67.0056V61.2593C32.8393 61.0433 33.0115 60.7409 33.1836 60.6113C33.2697 60.5681 33.3558 60.5681 33.3988 60.5681L33.3558 60.5249L33.3127 60.4816L33.2697 60.4384L33.2267 60.3952L33.1836 60.352L33.1406 60.3088L33.0975 60.2656C33.0115 60.2224 32.9254 60.1792 32.7963 60.2656C32.5811 60.3952 32.4519 60.6545 32.4519 60.9137V66.66C32.495 66.7896 32.538 66.876 32.6241 66.9192ZM36.885 60.6977V61.7778C36.885 61.9074 36.9281 61.9938 37.0141 62.037L37.0572 62.0802L37.1002 62.1234L37.1433 62.1666L37.1863 62.2098L37.2293 62.2531L37.2724 62.2963L37.3154 62.3395C37.2724 62.2963 37.2293 62.2098 37.2293 62.1234V61.0433C37.2293 60.8273 37.4015 60.5248 37.5737 60.3952C37.6597 60.352 37.7458 60.352 37.7889 60.352L37.7458 60.3088L37.7028 60.2656L37.6597 60.2224L37.6167 60.1792L37.5737 60.136L37.5306 60.0928L37.4876 60.0496C37.4015 60.0064 37.3154 59.9632 37.1863 60.0496C37.0141 60.1792 36.885 60.4816 36.885 60.6977ZM31.1608 66.5736L31.2038 66.6168L31.2468 66.66L31.2899 66.7032L31.3329 66.7464L31.376 66.7896L31.419 66.8328L31.462 66.876C31.419 66.8328 31.376 66.7464 31.376 66.66V63.2468C31.376 63.0307 31.5481 62.7283 31.7203 62.5987C31.8063 62.5555 31.8924 62.5555 31.9355 62.5555L31.8924 62.5123L31.8494 62.4691L31.8063 62.4259L31.7633 62.3827L31.7203 62.3395L31.6772 62.2963L31.6342 62.2531C31.5481 62.2098 31.462 62.1666 31.3329 62.2531C31.1177 62.3827 30.9886 62.6419 30.9886 62.9011V66.3143C31.0316 66.4871 31.0747 66.5736 31.1608 66.5736ZM19.9274 71.6285C19.9274 69.8139 21.2186 67.5673 22.768 66.66C23.5427 66.2279 24.2314 66.1847 24.7478 66.4439L24.7048 66.4007L24.6618 66.3575L24.6187 66.3143L24.5757 66.2711L24.5326 66.2279L24.4896 66.1847L24.4466 66.1415C23.9301 65.8391 23.1984 65.8391 22.3807 66.3143C20.7882 67.2216 19.54 69.4683 19.54 71.2829C19.54 72.2334 19.8844 72.8383 20.4008 73.1407L20.4439 73.1839L20.4869 73.2271L20.53 73.2703L20.573 73.3135L20.616 73.3567L20.6591 73.3999L20.7021 73.4431C20.2287 73.1839 19.9274 72.5358 19.9274 71.6285ZM28.2341 69.4683L28.2771 69.5115L28.3201 69.5547L28.3632 69.5979L28.4062 69.6411L28.4493 69.6843L28.4923 69.7275L28.5353 69.7707C28.4923 69.7275 28.4493 69.6411 28.4493 69.5547V63.8084C28.4493 63.5924 28.6214 63.29 28.7936 63.1604C28.8796 63.1172 28.9657 63.1172 29.0088 63.1172L28.9657 63.0739L28.9227 63.0307L28.8796 62.9875L28.8366 62.9443L28.7936 62.9011L28.7505 62.8579L28.7075 62.8147C28.6214 62.7715 28.5353 62.7283 28.4062 62.8147C28.191 62.9443 28.0619 63.2036 28.0619 63.4628V69.2091C28.1049 69.3387 28.148 69.4251 28.2341 69.4683ZM45.7942 59.3151L45.8373 59.3583L45.8803 59.4015L45.9234 59.4447L45.9664 59.4879L46.0094 59.5311L46.0525 59.5743L46.0955 59.6175C46.0525 59.5743 46.0094 59.4879 46.0094 59.4015V53.6553C46.0094 53.4392 46.1816 53.1368 46.3538 53.0072C46.4398 52.964 46.5259 52.964 46.569 52.964L46.5259 52.9208L46.4829 52.8776L46.4398 52.8344L46.3968 52.7912L46.3538 52.7479L46.3107 52.7047L46.2677 52.6615C46.1816 52.6183 46.0955 52.5751 45.9664 52.6615C45.7512 52.7912 45.6221 53.0504 45.6221 53.3096V59.0559C45.6221 59.1855 45.7082 59.2719 45.7942 59.3151ZM51.6046 54.7354L51.6476 54.7786L51.6907 54.8218L51.7337 54.865L51.7768 54.9082L51.8198 54.9514L51.8628 54.9946L51.9059 55.0378C51.8628 54.9946 51.8198 54.9082 51.8198 54.8218V51.4086C51.8198 51.1926 51.992 50.8901 52.1641 50.7605C52.2502 50.7173 52.3363 50.7173 52.3793 50.7173L52.3363 50.6741L52.2932 50.6309L52.2502 50.5877L52.2072 50.5445L52.1641 50.5013L52.1211 50.4581L52.078 50.4149C51.992 50.3717 51.9059 50.3285 51.7768 50.4149C51.5616 50.5445 51.4324 50.8037 51.4324 51.063V54.4761C51.4755 54.649 51.5185 54.6922 51.6046 54.7354ZM48.6779 57.0252L48.7209 57.0684L48.764 57.1117L48.807 57.1549L48.8501 57.1981L48.8931 57.2413L48.9361 57.2845L48.9792 57.3277C48.9361 57.2845 48.8931 57.1981 48.8931 57.1117V52.5319C48.8931 52.3159 49.0653 52.0135 49.2374 51.8838C49.3235 51.8406 49.4096 51.8406 49.4526 51.8406L49.4096 51.7974L49.3665 51.7542L49.3235 51.711L49.2805 51.6678L49.2374 51.6246L49.1944 51.5814L49.1513 51.5382C49.0653 51.495 48.9792 51.4518 48.8501 51.5382C48.6349 51.6678 48.5057 51.9271 48.5057 52.1863V56.766C48.5488 56.8956 48.5918 56.982 48.6779 57.0252ZM39.9408 60.9137L39.9839 60.9569L40.0269 61.0001L40.07 61.0433L40.113 61.0865L40.156 61.1297L40.1991 61.1729L40.2421 61.2161C40.1991 61.1729 40.156 61.0865 40.156 61.0001V58.7534C40.156 58.5374 40.3282 58.235 40.5004 58.1054C40.5864 58.0622 40.6725 58.0622 40.7156 58.0622L40.6725 58.019L40.6295 57.9758L40.5864 57.9326L40.5434 57.8893L40.5004 57.8461L40.4573 57.8029L40.4143 57.7597C40.3282 57.7165 40.2421 57.6733 40.113 57.7597C39.8978 57.8893 39.7687 58.1486 39.7687 58.4078V60.6545C39.8117 60.8273 39.8548 60.9137 39.9408 60.9137ZM41.4042 61.2593L41.4472 61.3025L41.4903 61.3457L41.5333 61.389L41.5764 61.4322L41.6194 61.4754L41.6624 61.5186L41.7055 61.5618C41.6624 61.5186 41.6194 61.4322 41.6194 61.3457V56.766C41.6194 56.55 41.7916 56.2476 41.9637 56.1179C42.0498 56.0747 42.1359 56.0747 42.1789 56.0747L42.1359 56.0315L42.0928 55.9883L42.0498 55.9451L42.0067 55.9019L41.9637 55.8587L41.9207 55.8155L41.8776 55.7723C41.7916 55.7291 41.7055 55.6859 41.5764 55.7723C41.3612 55.9019 41.232 56.1611 41.232 56.4204V61.0001C41.232 61.1297 41.3181 61.2161 41.4042 61.2593ZM42.8675 59.8336L42.9106 59.8768L42.9536 59.92L42.9967 59.9632L43.0397 60.0064L43.0827 60.0496L43.1258 60.0928L43.1688 60.136C43.1258 60.0928 43.0827 60.0064 43.0827 59.92V56.5068C43.0827 56.2908 43.2549 55.9883 43.4271 55.8587C43.5131 55.8155 43.5992 55.8155 43.6423 55.8155L43.5992 55.7723L43.5562 55.7291L43.5131 55.6859L43.4701 55.6427L43.4271 55.5995L43.384 55.5563L43.341 55.5131C43.2549 55.4699 43.1688 55.4267 43.0397 55.5131C42.8245 55.6427 42.6954 55.9019 42.6954 56.1611V59.5743C42.6954 59.704 42.7815 59.7904 42.8675 59.8336ZM44.1587 56.4636V57.5437C44.1587 57.6733 44.2018 57.7597 44.2879 57.8029L44.3309 57.8461L44.3739 57.8893L44.417 57.9326L44.46 57.9758L44.5031 58.019L44.5461 58.0622L44.5891 58.1054C44.5461 58.0622 44.5031 57.9758 44.5031 57.8893V56.8092C44.5031 56.5932 44.6752 56.2908 44.8474 56.1611C44.9334 56.1179 45.0195 56.1179 45.0626 56.1179L45.0195 56.0747L44.9765 56.0315L44.9334 55.9883L44.8904 55.9451L44.8474 55.9019L44.8043 55.8587L44.7613 55.8155C44.6752 55.7723 44.5891 55.7291 44.46 55.8155C44.3309 55.9883 44.1587 56.2476 44.1587 56.4636Z" fill="#788BF1"/>
<path opacity="0.4" d="M47.731 53.5688C47.7741 53.5688 47.7741 53.5688 47.7741 53.612C47.8171 53.612 47.8171 53.612 47.8171 53.6553C47.8601 53.6553 47.8601 53.6553 47.8601 53.6985C47.9032 53.6985 47.9032 53.6985 47.9032 53.7417C47.9462 53.7417 47.9462 53.7417 47.9462 53.7849C47.9893 53.7849 47.9893 53.7849 47.9893 53.8281C48.0323 53.8281 48.0323 53.8281 48.0323 53.8713C47.9893 53.8713 47.9032 53.8713 47.8171 53.9145C47.6019 54.0441 47.4728 54.3033 47.4728 54.5626V56.8092C47.4728 56.8956 47.5158 56.982 47.5589 57.0252C47.5158 57.0252 47.5158 57.0252 47.5158 56.982C47.4728 56.982 47.4728 56.982 47.4728 56.9388C47.4298 56.9388 47.4297 56.9388 47.4297 56.8956C47.3867 56.8956 47.3867 56.8956 47.3867 56.8524C47.3437 56.8524 47.3437 56.8524 47.3437 56.8092C47.3006 56.8092 47.3006 56.8092 47.3006 56.766C47.2576 56.766 47.2576 56.766 47.2576 56.7228C47.1715 56.6796 47.1285 56.5932 47.1285 56.4636V54.2169C47.1285 54.0009 47.3006 53.6985 47.4728 53.5688C47.5589 53.4824 47.688 53.5256 47.731 53.5688ZM50.8729 52.7479C50.959 52.7047 51.0451 52.7047 51.0881 52.7047L51.0451 52.6615L51.002 52.6183L50.959 52.5751L50.916 52.5319L50.8729 52.4887L50.8299 52.4455L50.7868 52.4023C50.7008 52.3591 50.6147 52.3159 50.4856 52.4023C50.2704 52.5319 50.0982 52.7912 50.1412 53.0504V54.1305C50.1412 54.2601 50.1843 54.3465 50.2704 54.3897L50.3134 54.4329L50.3564 54.4761L50.3995 54.5194L50.4425 54.5626L50.4856 54.6058L50.5286 54.649L50.5716 54.6922C50.5286 54.649 50.4856 54.5626 50.4856 54.4761V53.396C50.5286 53.1368 50.7008 52.8776 50.8729 52.7479ZM21.7781 71.931C21.7781 72.0174 21.8211 72.0606 21.8642 72.0606C21.9072 72.0606 21.9503 72.0606 21.9503 72.0174C21.9933 72.0174 22.0363 71.9742 22.0363 71.931L24.1022 69.3819C24.1453 69.2955 24.1883 69.2091 24.1883 69.1226C24.1883 69.0362 24.1453 68.993 24.1022 68.993L22.0363 68.8202L23.6718 68.9498C23.6718 68.993 23.6288 69.0362 23.5858 69.1226L21.7351 71.4125V69.2091L21.7781 71.931ZM34.3026 61.7778C34.0874 61.9074 33.9583 62.1666 33.9583 62.4259V63.506C33.9583 63.6356 34.0014 63.722 34.0874 63.7652L34.1305 63.8084L34.1735 63.8516L34.2166 63.8948L34.2596 63.938L34.3026 63.9813L34.3457 64.0245L34.3887 64.0677C34.3457 64.0245 34.3026 63.938 34.3026 63.8516V62.6851C34.3026 62.4691 34.4748 62.1666 34.647 62.037C34.733 61.9938 34.8191 61.9938 34.8622 61.9938L34.8191 61.9506L34.7761 61.9074L34.733 61.8642L34.69 61.821L34.647 61.7778L34.6039 61.7346L34.5609 61.6914C34.5178 61.7346 34.4318 61.6914 34.3026 61.7778ZM30.0848 66.876V64.6293C30.0848 64.4133 30.2569 64.1109 30.4291 63.9813C30.5152 63.938 30.6012 63.938 30.6443 63.938L30.6012 63.8948L30.5582 63.8516L30.5152 63.8084L30.4721 63.7652L30.4291 63.722L30.386 63.6788L30.343 63.6356C30.2569 63.5924 30.1708 63.5492 30.0417 63.6356C29.8265 63.7652 29.6974 64.0245 29.6974 64.2837V66.5303C29.6974 66.66 29.7404 66.7464 29.8265 66.7896L29.8696 66.8328L29.9126 66.876L29.9556 66.9192L29.9987 66.9624L30.0417 67.0056L30.0848 67.0488L30.1278 67.092C30.1278 67.0488 30.0848 67.0056 30.0848 66.876ZM35.5508 64.0677L35.5938 64.1109L35.6369 64.1541L35.6799 64.1973L35.723 64.2405L35.766 64.2837L35.809 64.3269L35.8521 64.3701C35.809 64.3269 35.766 64.2405 35.766 64.1541V60.7409C35.766 60.5249 35.9382 60.2224 36.1103 60.0928C36.1964 60.0496 36.2825 60.0496 36.3255 60.0496L36.2825 60.0064L36.2394 59.9632L36.1964 59.92L36.1534 59.8768L36.1103 59.8336L36.0673 59.7904L36.0242 59.7472C35.9382 59.704 35.8521 59.6607 35.723 59.7472C35.5078 59.8768 35.3786 60.136 35.3786 60.3952V63.8084C35.4217 63.938 35.4647 64.0245 35.5508 64.0677ZM38.4775 61.1729L38.5205 61.2161L38.5636 61.2593L38.6066 61.3025L38.6497 61.3457L38.6927 61.389L38.7357 61.4322L38.7788 61.4754C38.7357 61.4322 38.6927 61.3457 38.6927 61.2593V60.1792C38.6927 59.9632 38.8649 59.6607 39.037 59.5311C39.1231 59.4879 39.2092 59.4879 39.2522 59.4879L39.2092 59.4447L39.1661 59.4015L39.1231 59.3583L39.0801 59.3151L39.037 59.2719L38.994 59.2287L38.9509 59.1855C38.8649 59.1423 38.7788 59.0991 38.6497 59.1855C38.4345 59.3151 38.3053 59.5743 38.3053 59.8336V60.9137C38.3484 61.0865 38.3914 61.1729 38.4775 61.1729ZM32.6241 66.9192L32.6671 66.9624L32.7102 67.0056L32.7532 67.0488L32.7963 67.092L32.8393 67.1352L32.8823 67.1784L32.9254 67.2216C32.8823 67.1784 32.8393 67.092 32.8393 67.0056V61.2593C32.8393 61.0433 33.0115 60.7409 33.1836 60.6113C33.2697 60.5681 33.3558 60.5681 33.3988 60.5681L33.3558 60.5249L33.3127 60.4816L33.2697 60.4384L33.2267 60.3952L33.1836 60.352L33.1406 60.3088L33.0975 60.2656C33.0115 60.2224 32.9254 60.1792 32.7963 60.2656C32.5811 60.3952 32.4519 60.6545 32.4519 60.9137V66.66C32.495 66.7896 32.538 66.876 32.6241 66.9192ZM36.885 60.6977V61.7778C36.885 61.9074 36.9281 61.9938 37.0141 62.037L37.0572 62.0802L37.1002 62.1234L37.1433 62.1666L37.1863 62.2098L37.2293 62.2531L37.2724 62.2963L37.3154 62.3395C37.2724 62.2963 37.2293 62.2098 37.2293 62.1234V61.0433C37.2293 60.8273 37.4015 60.5248 37.5737 60.3952C37.6597 60.352 37.7458 60.352 37.7889 60.352L37.7458 60.3088L37.7028 60.2656L37.6597 60.2224L37.6167 60.1792L37.5737 60.136L37.5306 60.0928L37.4876 60.0496C37.4015 60.0064 37.3154 59.9632 37.1863 60.0496C37.0141 60.1792 36.885 60.4816 36.885 60.6977ZM31.1608 66.5736L31.2038 66.6168L31.2468 66.66L31.2899 66.7032L31.3329 66.7464L31.376 66.7896L31.419 66.8328L31.462 66.876C31.419 66.8328 31.376 66.7464 31.376 66.66V63.2468C31.376 63.0307 31.5481 62.7283 31.7203 62.5987C31.8063 62.5555 31.8924 62.5555 31.9355 62.5555L31.8924 62.5123L31.8494 62.4691L31.8063 62.4259L31.7633 62.3827L31.7203 62.3395L31.6772 62.2963L31.6342 62.2531C31.5481 62.2098 31.462 62.1666 31.3329 62.2531C31.1177 62.3827 30.9886 62.6419 30.9886 62.9011V66.3143C31.0316 66.4871 31.0747 66.5736 31.1608 66.5736ZM19.9274 71.6285C19.9274 69.8139 21.2186 67.5673 22.768 66.66C23.5427 66.2279 24.2314 66.1847 24.7478 66.4439L24.7048 66.4007L24.6618 66.3575L24.6187 66.3143L24.5757 66.2711L24.5326 66.2279L24.4896 66.1847L24.4466 66.1415C23.9301 65.8391 23.1984 65.8391 22.3807 66.3143C20.7882 67.2216 19.54 69.4683 19.54 71.2829C19.54 72.2334 19.8844 72.8383 20.4008 73.1407L20.4439 73.1839L20.4869 73.2271L20.53 73.2703L20.573 73.3135L20.616 73.3567L20.6591 73.3999L20.7021 73.4431C20.2287 73.1839 19.9274 72.5358 19.9274 71.6285ZM28.2341 69.4683L28.2771 69.5115L28.3201 69.5547L28.3632 69.5979L28.4062 69.6411L28.4493 69.6843L28.4923 69.7275L28.5353 69.7707C28.4923 69.7275 28.4493 69.6411 28.4493 69.5547V63.8084C28.4493 63.5924 28.6214 63.29 28.7936 63.1604C28.8796 63.1172 28.9657 63.1172 29.0088 63.1172L28.9657 63.0739L28.9227 63.0307L28.8796 62.9875L28.8366 62.9443L28.7936 62.9011L28.7505 62.8579L28.7075 62.8147C28.6214 62.7715 28.5353 62.7283 28.4062 62.8147C28.191 62.9443 28.0619 63.2036 28.0619 63.4628V69.2091C28.1049 69.3387 28.148 69.4251 28.2341 69.4683ZM45.7942 59.3151L45.8373 59.3583L45.8803 59.4015L45.9234 59.4447L45.9664 59.4879L46.0094 59.5311L46.0525 59.5743L46.0955 59.6175C46.0525 59.5743 46.0094 59.4879 46.0094 59.4015V53.6553C46.0094 53.4392 46.1816 53.1368 46.3538 53.0072C46.4398 52.964 46.5259 52.964 46.569 52.964L46.5259 52.9208L46.4829 52.8776L46.4398 52.8344L46.3968 52.7912L46.3538 52.7479L46.3107 52.7047L46.2677 52.6615C46.1816 52.6183 46.0955 52.5751 45.9664 52.6615C45.7512 52.7912 45.6221 53.0504 45.6221 53.3096V59.0559C45.6221 59.1855 45.7082 59.2719 45.7942 59.3151ZM51.6046 54.7354L51.6476 54.7786L51.6907 54.8218L51.7337 54.865L51.7768 54.9082L51.8198 54.9514L51.8628 54.9946L51.9059 55.0378C51.8628 54.9946 51.8198 54.9082 51.8198 54.8218V51.4086C51.8198 51.1926 51.992 50.8901 52.1641 50.7605C52.2502 50.7173 52.3363 50.7173 52.3793 50.7173L52.3363 50.6741L52.2932 50.6309L52.2502 50.5877L52.2072 50.5445L52.1641 50.5013L52.1211 50.4581L52.078 50.4149C51.992 50.3717 51.9059 50.3285 51.7768 50.4149C51.5616 50.5445 51.4324 50.8037 51.4324 51.063V54.4761C51.4755 54.649 51.5185 54.6922 51.6046 54.7354ZM48.6779 57.0252L48.7209 57.0684L48.764 57.1117L48.807 57.1549L48.8501 57.1981L48.8931 57.2413L48.9361 57.2845L48.9792 57.3277C48.9361 57.2845 48.8931 57.1981 48.8931 57.1117V52.5319C48.8931 52.3159 49.0653 52.0135 49.2374 51.8838C49.3235 51.8406 49.4096 51.8406 49.4526 51.8406L49.4096 51.7974L49.3665 51.7542L49.3235 51.711L49.2805 51.6678L49.2374 51.6246L49.1944 51.5814L49.1513 51.5382C49.0653 51.495 48.9792 51.4518 48.8501 51.5382C48.6349 51.6678 48.5057 51.9271 48.5057 52.1863V56.766C48.5488 56.8956 48.5918 56.982 48.6779 57.0252ZM39.9408 60.9137L39.9839 60.9569L40.0269 61.0001L40.07 61.0433L40.113 61.0865L40.156 61.1297L40.1991 61.1729L40.2421 61.2161C40.1991 61.1729 40.156 61.0865 40.156 61.0001V58.7534C40.156 58.5374 40.3282 58.235 40.5004 58.1054C40.5864 58.0622 40.6725 58.0622 40.7156 58.0622L40.6725 58.019L40.6295 57.9758L40.5864 57.9326L40.5434 57.8893L40.5004 57.8461L40.4573 57.8029L40.4143 57.7597C40.3282 57.7165 40.2421 57.6733 40.113 57.7597C39.8978 57.8893 39.7687 58.1486 39.7687 58.4078V60.6545C39.8117 60.8273 39.8548 60.9137 39.9408 60.9137ZM41.4042 61.2593L41.4472 61.3025L41.4903 61.3457L41.5333 61.389L41.5764 61.4322L41.6194 61.4754L41.6624 61.5186L41.7055 61.5618C41.6624 61.5186 41.6194 61.4322 41.6194 61.3457V56.766C41.6194 56.55 41.7916 56.2476 41.9637 56.1179C42.0498 56.0747 42.1359 56.0747 42.1789 56.0747L42.1359 56.0315L42.0928 55.9883L42.0498 55.9451L42.0067 55.9019L41.9637 55.8587L41.9207 55.8155L41.8776 55.7723C41.7916 55.7291 41.7055 55.6859 41.5764 55.7723C41.3612 55.9019 41.232 56.1611 41.232 56.4204V61.0001C41.232 61.1297 41.3181 61.2161 41.4042 61.2593ZM42.8675 59.8336L42.9106 59.8768L42.9536 59.92L42.9967 59.9632L43.0397 60.0064L43.0827 60.0496L43.1258 60.0928L43.1688 60.136C43.1258 60.0928 43.0827 60.0064 43.0827 59.92V56.5068C43.0827 56.2908 43.2549 55.9883 43.4271 55.8587C43.5131 55.8155 43.5992 55.8155 43.6423 55.8155L43.5992 55.7723L43.5562 55.7291L43.5131 55.6859L43.4701 55.6427L43.4271 55.5995L43.384 55.5563L43.341 55.5131C43.2549 55.4699 43.1688 55.4267 43.0397 55.5131C42.8245 55.6427 42.6954 55.9019 42.6954 56.1611V59.5743C42.6954 59.704 42.7815 59.7904 42.8675 59.8336ZM44.1587 56.4636V57.5437C44.1587 57.6733 44.2018 57.7597 44.2879 57.8029L44.3309 57.8461L44.3739 57.8893L44.417 57.9326L44.46 57.9758L44.5031 58.019L44.5461 58.0622L44.5891 58.1054C44.5461 58.0622 44.5031 57.9758 44.5031 57.8893V56.8092C44.5031 56.5932 44.6752 56.2908 44.8474 56.1611C44.9334 56.1179 45.0195 56.1179 45.0626 56.1179L45.0195 56.0747L44.9765 56.0315L44.9334 55.9883L44.8904 55.9451L44.8474 55.9019L44.8043 55.8587L44.7613 55.8155C44.6752 55.7723 44.5891 55.7291 44.46 55.8155C44.3309 55.9883 44.1587 56.2476 44.1587 56.4636Z" fill="black"/>
<path d="M28.9658 63.1173C28.7506 63.2469 28.6215 63.5061 28.6215 63.7653V69.5116C28.6215 69.7276 28.7937 69.8573 28.9658 69.7276C29.181 69.598 29.3532 69.3388 29.3532 69.0796V63.3333C29.3532 63.0741 29.181 62.9877 28.9658 63.1173ZM31.8925 62.5988C31.6773 62.7284 31.5482 62.9877 31.5482 63.2469V66.6601C31.5482 66.8761 31.7204 67.0057 31.8925 66.8761C32.1077 66.7465 32.2799 66.4873 32.2369 66.228V62.8148C32.2799 62.5556 32.1077 62.4692 31.8925 62.5988ZM30.4292 64.0246C30.214 64.1542 30.0849 64.4134 30.0849 64.6727V66.9193C30.0849 67.1353 30.257 67.265 30.4292 67.1353C30.6444 67.0057 30.7735 66.7465 30.7735 66.4873V64.2406C30.8165 63.9814 30.6444 63.895 30.4292 64.0246ZM33.3559 60.5682C33.1407 60.6978 33.0116 60.957 33.0116 61.2163V66.9625C33.0116 67.1785 33.1837 67.3082 33.3559 67.1785C33.5711 67.0489 33.7432 66.7897 33.7432 66.5305V60.7842C33.7432 60.525 33.5711 60.4386 33.3559 60.5682ZM36.2826 60.0497C36.0674 60.1793 35.9383 60.4386 35.9383 60.6978V64.111C35.9383 64.327 36.1104 64.4566 36.2826 64.327C36.4978 64.1974 36.6269 63.9382 36.6269 63.6789V60.2657C36.6269 60.0065 36.4978 59.9201 36.2826 60.0497ZM34.8192 62.0804C34.604 62.21 34.4749 62.4692 34.4749 62.7284V63.8086C34.4749 64.0246 34.6471 64.1542 34.8192 64.0246C35.0344 63.895 35.2066 63.6357 35.1636 63.3765V62.2964C35.2066 62.0371 35.0344 61.9507 34.8192 62.0804ZM37.7459 60.3954C37.5307 60.525 37.4016 60.7842 37.4016 61.0434V62.1236C37.4016 62.3396 37.5738 62.4692 37.7459 62.3396C37.9611 62.21 38.0903 61.9507 38.0903 61.6915V60.6114C38.0903 60.3521 37.9611 60.2657 37.7459 60.3954ZM40.6726 58.1055C40.4574 58.2351 40.3283 58.4943 40.3283 58.7536V61.0002C40.3283 61.2163 40.5005 61.3459 40.6726 61.2163C40.8878 61.0866 41.017 60.8274 41.06 60.5682V58.3215C41.017 58.0623 40.8448 57.9759 40.6726 58.1055ZM39.2093 59.5313C38.9941 59.6609 38.865 59.9201 38.865 60.1793V61.2595C38.865 61.4755 39.0371 61.6051 39.2093 61.4755C39.4245 61.3459 39.5536 61.0866 39.5536 60.8274V59.7473C39.5536 59.488 39.4245 59.4016 39.2093 59.5313ZM42.136 56.0749C41.9208 56.2045 41.7917 56.4637 41.7917 56.7229V61.3027C41.7917 61.5187 41.9638 61.6483 42.136 61.5187C42.3512 61.3891 42.4803 61.1298 42.5233 60.8706V56.2909C42.4803 56.0317 42.3081 55.9452 42.136 56.0749ZM45.0627 56.1613C44.8475 56.2909 44.7184 56.5501 44.7184 56.8093V57.8895C44.7184 58.1055 44.8905 58.2351 45.0627 58.1055C45.2779 57.9759 45.407 57.7166 45.407 57.4574V56.3773C45.407 56.1181 45.2348 56.0316 45.0627 56.1613ZM43.5993 55.8156C43.3841 55.9452 43.255 56.2045 43.255 56.4637V59.8769C43.255 60.0929 43.4272 60.2225 43.5993 60.0929C43.8145 59.9633 43.9867 59.7041 43.9437 59.4448V56.0317C43.9437 55.8156 43.7715 55.686 43.5993 55.8156ZM47.9463 53.8714C47.7311 54.001 47.602 54.2602 47.602 54.5195V56.7661C47.602 56.9822 47.7742 57.1118 47.9463 56.9822C48.1615 56.8525 48.3337 56.5933 48.2907 56.3341V54.0874C48.3337 53.8282 48.1615 53.7418 47.9463 53.8714ZM46.526 52.9641C46.3108 53.0937 46.1817 53.3529 46.1817 53.6122V59.3584C46.1817 59.5745 46.3539 59.7041 46.526 59.5745C46.7412 59.4448 46.9134 59.1856 46.8704 58.9264V53.1801C46.8704 52.9209 46.6982 52.8345 46.526 52.9641ZM49.4097 51.8408C49.1945 51.9704 49.0654 52.2296 49.0654 52.4888V57.0686C49.0654 57.2846 49.2375 57.4142 49.4097 57.2846C49.6249 57.155 49.754 56.8958 49.754 56.6365V52.0568C49.797 51.8408 49.6249 51.7112 49.4097 51.8408ZM52.3364 50.7174C52.1212 50.8471 51.9921 51.1063 51.9921 51.3655V54.7787C51.9921 54.9947 52.1642 55.1243 52.3364 54.9947C52.5516 54.8651 52.6807 54.6059 52.7237 54.3467V50.9335C52.7237 50.7174 52.5516 50.631 52.3364 50.7174ZM50.873 52.7481C50.6578 52.8777 50.4857 53.1369 50.5287 53.3961V54.4763C50.5287 54.6923 50.7009 54.8219 50.873 54.6923C51.0882 54.5627 51.2174 54.3035 51.2174 54.0442V52.9641C51.2604 52.7481 51.0882 52.6617 50.873 52.7481ZM22.8112 66.7033C21.2187 67.6106 19.9706 69.8573 19.9706 71.6719C19.9706 73.4865 21.2617 74.221 22.8112 73.3137C24.4036 72.4063 25.6518 70.1597 25.6518 68.3451C25.6518 66.5305 24.3606 65.796 22.8112 66.7033ZM24.1454 69.4252L22.0795 71.9743C22.0365 72.0175 21.9934 72.0607 21.9934 72.0607C21.9504 72.0607 21.9073 72.1039 21.9073 72.1039C21.8643 72.1039 21.8213 72.0607 21.8213 71.9743V69.2524C21.8213 69.166 21.8643 69.0796 21.9073 68.9932C21.9504 68.9067 22.0365 68.8635 22.1225 68.8635L24.1884 69.0364C24.2315 69.0364 24.2745 69.0796 24.2745 69.166C24.2315 69.2524 24.2315 69.3388 24.1454 69.4252Z" fill="white"/>
<g opacity="0.05">
<path d="M39.037 146.33C34.8622 143.911 35.723 137.732 44.2448 132.764C52.7667 127.838 62.1063 128.098 66.2811 130.517C70.456 132.937 70.1547 139.115 61.6328 144.04C53.111 149.009 43.2119 148.75 39.037 146.33Z" fill="#1A50B2"/>
</g>
<path d="M47.0853 72.536C47.0853 72.536 45.9663 70.2462 45.2777 70.0734C44.589 69.8573 42.6092 69.4685 41.5763 69.166C40.5003 68.8636 40.0268 69.2957 39.7686 68.7772C39.5104 68.3019 40.6724 67.7835 41.5332 68.0427C42.394 68.3019 42.5231 67.9995 42.6522 67.5243C42.7814 67.0922 40.5863 64.1111 41.1889 63.7654C41.7915 63.4198 42.5231 65.364 43.1687 65.58C43.513 65.6664 43.6422 65.2776 43.9434 65.364C44.2447 65.4504 44.2017 65.58 44.3308 65.6232C44.4599 65.6664 44.4169 65.58 44.6751 65.6232C44.9334 65.7096 44.9334 65.8825 45.0194 65.8825C45.1055 65.9257 45.1916 65.8825 45.3207 65.9257C45.4498 65.9689 46.0954 66.4441 46.4397 67.049C46.7841 67.6539 47.5588 68.3019 48.0752 69.0364C48.6348 69.8141 48.6778 71.0239 48.4196 71.9744C48.1613 72.9249 47.4727 73.2705 47.0853 72.536Z" fill="#F7B6B2"/>
<path opacity="0.3" d="M47.0853 72.536C47.0853 72.536 45.9663 70.2461 45.2777 70.0733C44.589 69.8573 42.6092 69.4684 41.5763 69.166C40.5003 68.8636 40.0268 69.2956 39.7686 68.7772C39.5104 68.3019 40.6724 67.7834 41.5332 68.0427C42.394 68.3019 42.5231 67.9995 42.6522 67.5242C42.7814 67.0922 40.5863 64.111 41.1889 63.7654C41.2319 63.7222 41.275 63.7222 41.318 63.7222C41.9206 64.8023 43.1257 67.049 44.2017 67.5674C45.4498 68.1723 46.4397 68.6475 47.7309 70.851C47.9892 71.283 48.2044 71.6719 48.4196 72.0175C48.1183 72.968 47.4727 73.2705 47.0853 72.536Z" fill="black"/>
<path d="M45.7513 68.0428C46.2677 67.5244 47.0425 67.4812 47.602 67.9132L52.7237 71.7585C52.9819 71.9745 53.3693 72.0177 53.7136 71.8881L55.263 71.2832V77.5479C53.8427 77.8504 52.3363 77.4615 51.2173 76.4246L45.8804 71.6289C44.8044 70.7216 44.7614 69.0798 45.7513 68.0428Z" fill="#F5F7FF"/>
<g opacity="0.05">
<path d="M45.2347 68.8638C46.8271 69.6847 47.3867 70.3327 49.1082 71.7153C50.959 73.2707 52.9818 72.1473 54.1008 71.7153L55.2629 71.2832V77.548C53.8426 77.8504 52.3362 77.4616 51.2172 76.4246L45.8803 71.6289C45.0625 70.9376 44.8473 69.8143 45.2347 68.8638Z" fill="#1A50B2"/>
</g>
<path d="M61.6329 142.139C60.6 142.139 59.7392 141.275 59.7392 140.238V134.103C59.7392 133.066 60.6 132.202 61.6329 132.202C62.6659 132.202 63.5267 133.066 63.5267 134.103V140.238C63.5267 141.275 62.6659 142.139 61.6329 142.139Z" fill="#3E4357"/>
<path opacity="0.3" d="M59.7392 134.449V140.195C59.7392 141.102 60.3848 141.88 61.2456 142.053V136.307C61.2456 135.399 60.6 134.665 59.7392 134.449Z" fill="black"/>
<path opacity="0.3" d="M61.6329 141.534C60.8152 141.534 60.1266 141.059 59.7392 140.411C59.8253 141.362 60.643 142.139 61.6329 142.139C62.6229 142.139 63.3976 141.362 63.5267 140.411C63.1393 141.059 62.4507 141.534 61.6329 141.534Z" fill="black"/>
<path opacity="0.3" d="M61.6329 132.159C60.6 132.159 59.7392 133.023 59.7392 134.06V138.121C60.1266 138.64 60.7721 138.985 61.5038 138.985C62.3216 138.985 63.0533 138.596 63.5267 137.992V134.06C63.5267 133.023 62.6659 132.159 61.6329 132.159Z" fill="black"/>
<path d="M51.4753 138.899C51.4753 138.899 53.0678 142.917 51.6045 143.695C50.1411 144.472 48.893 143.651 47.2575 142.96C45.665 142.312 43.0396 141.059 42.5231 140.843C42.0066 140.627 40.8445 139.979 40.9737 138.596C41.1458 137.257 43.2548 137.171 46.0523 137.862C48.893 138.553 51.4753 138.899 51.4753 138.899Z" fill="#3E4357"/>
<path opacity="0.3" d="M47.516 138.208L47.4729 139.115C47.4299 140.238 48.2046 141.232 49.3236 141.448C50.3996 141.621 51.3895 141.145 51.9491 140.281C51.7339 139.504 51.5187 138.899 51.5187 138.899C51.5187 138.899 49.711 138.64 47.516 138.208Z" fill="black"/>
<path opacity="0.3" d="M48.9792 139.245C48.9792 139.245 48.6779 138.899 48.2476 138.381C47.5589 138.251 46.8703 138.078 46.1386 137.905C43.341 137.214 41.2321 137.3 41.0599 138.64C40.8878 139.979 42.0929 140.627 42.6094 140.887C43.1258 141.103 45.7513 142.355 47.3437 143.004C48.0754 143.306 48.764 143.652 49.4096 143.868C50.3565 142.701 48.9792 139.245 48.9792 139.245Z" fill="black"/>
<path opacity="0.3" d="M51.6046 143.263C50.1412 144.04 48.8931 143.219 47.2576 142.528C45.6651 141.88 43.0397 140.627 42.5232 140.411C42.0928 140.195 41.1029 139.677 40.9738 138.683C40.8877 139.979 42.0067 140.584 42.5232 140.843C43.0397 141.059 45.6651 142.312 47.2576 142.96C48.85 143.608 50.1412 144.472 51.6046 143.695C52.1211 143.435 52.2502 142.744 52.2071 142.01C52.1641 142.571 52.035 143.047 51.6046 143.263Z" fill="black"/>
<path d="M64.5165 95.0891L64.0431 135.875C64.0431 137.3 62.881 138.424 61.4607 138.424C60.3417 138.424 59.3948 137.56 59.2657 136.436L54.144 96.9037L64.5165 95.0891Z" fill="#3E4357"/>
<path opacity="0.2" d="M58.9212 106.02C59.2655 105.199 59.4376 104.249 59.4376 103.298C59.4376 101.872 59.0503 100.576 58.3617 99.5392L58.1034 96.2124L54.1438 96.9037L54.1868 97.2061C51.6044 97.3789 49.5385 100.014 49.5385 103.255C49.5385 106.625 51.7766 109.347 54.4881 109.347C54.9185 109.347 55.3489 109.26 55.7362 109.131L59.2655 136.393C59.3946 137.516 60.3415 138.38 61.4605 138.38H61.5035L58.9212 106.02Z" fill="black"/>
<path d="M59.8253 101.181C59.8253 100.014 59.524 98.8912 59.0506 97.9406L59.438 95.6076H56.8986C56.2961 95.2619 55.6074 95.0891 54.8757 95.0891C54.1441 95.0891 53.4554 95.3051 52.8098 95.6508H48.9363L47.516 138.51C47.4729 139.633 48.2476 140.627 49.3667 140.843C50.7439 141.102 52.0782 140.152 52.3364 138.769L57.7594 106.15C58.9645 105.069 59.8253 103.255 59.8253 101.181Z" fill="#3E4357"/>
<path opacity="0.2" d="M49.3666 140.368L52.6377 97.6381L59.0506 97.8973L59.4379 95.6506L48.8932 95.6938L47.4729 138.553C47.4299 139.677 48.2046 140.67 49.3236 140.886C49.3666 140.886 49.3666 140.886 49.4097 140.886C49.3666 140.713 49.3666 140.541 49.3666 140.368Z" fill="black"/>
<path opacity="0.3" d="M58.4912 96.2555C56.9848 93.2743 53.7138 96.2987 49.8402 96.2987C49.3237 96.2987 48.9363 96.3419 48.4199 96.3851L48.3768 97.0332C48.7211 98.5022 50.0554 99.5391 51.7339 99.9279C54.8758 100.619 62.3647 99.6255 64.5167 96.6443V95.1754L58.4912 96.2555Z" fill="black"/>
<path d="M54.8324 66.4009C55.0907 68.0427 54.7894 71.4559 53.1969 72.1472C51.6044 72.7953 55.0476 73.7458 56.511 73.6594C57.9313 73.5298 63.053 72.4928 62.3213 71.4559C61.5897 70.419 62.3213 70.0734 61.7188 70.1166C61.1162 70.1598 59.9111 68.7772 59.825 64.2839C59.6959 59.7906 54.5311 64.6295 54.8324 66.4009Z" fill="#F7B6B2"/>
<path d="M55.8223 57.0686C54.1438 57.0686 54.0577 56.8526 53.0678 58.2352C52.7235 58.7536 52.2931 60.0498 52.5083 60.6979C52.8956 62.0804 52.0779 62.8149 52.164 64.0679C52.2931 65.7961 52.7665 70.1166 58.3186 66.8762C61.0732 65.2776 57.1135 64.4567 56.0375 62.3829C55.0046 60.4386 56.8983 57.0686 55.8223 57.0686Z" fill="#F7B6B2"/>
<path opacity="0.15" d="M52.2933 65.2344C52.2072 64.7591 52.1642 64.3703 52.1642 64.0679C52.1642 64.0246 52.1642 63.9382 52.1642 63.895C52.1642 63.0741 52.5515 62.4693 52.6376 61.6916C52.6376 61.6484 52.6376 61.6484 52.6376 61.6052C52.6376 61.5188 52.6376 61.3891 52.6376 61.3027C52.6376 61.2595 52.6376 61.2163 52.6376 61.1731C52.6376 61.0003 52.5946 60.8707 52.5515 60.6979C52.3363 60.0066 52.7667 58.7104 53.1111 58.2352C54.0579 56.8526 54.144 57.0686 55.8656 57.0686C56.9416 57.0686 55.0478 60.3954 56.0808 62.3829C56.1669 62.5125 56.253 62.6421 56.339 62.7717C56.3821 62.8149 56.4251 62.9013 56.4682 62.9445C56.5542 63.0741 56.6833 63.1605 56.7694 63.2902C56.9416 63.1605 57.0707 63.0309 57.2429 62.9445C57.415 62.8149 57.5872 62.7285 57.7593 62.6421C57.6733 63.6358 57.5872 64.5431 57.5441 65.3208C57.4581 67.7403 57.1568 70.8942 59.1797 73.1841C59.0505 73.2273 58.9214 73.2273 58.7923 73.2705C58.6632 73.3137 58.5771 73.3137 58.448 73.3569H58.4049C58.2758 73.4001 58.1897 73.4001 58.0606 73.4433C58.0176 73.4433 58.0176 73.4433 57.9745 73.4433C57.8885 73.4433 57.7593 73.4865 57.6733 73.4865C57.6733 73.4865 57.6733 73.4865 57.6302 73.4865C57.5441 73.4865 57.415 73.5298 57.3289 73.5298C57.2859 73.5298 57.2859 73.5298 57.2429 73.5298C57.1568 73.5298 57.0707 73.573 57.0277 73.573H56.9846C56.8985 73.573 56.8125 73.573 56.7694 73.6162C56.7694 73.6162 56.7694 73.6162 56.7264 73.6162H56.6834C56.5973 73.6162 56.5542 73.6162 56.4682 73.6162C55.0478 73.7026 51.5616 72.7521 53.1541 72.104C53.2402 72.0608 53.3263 72.0176 53.3693 71.9744C53.3693 71.9744 53.4123 71.9744 53.4123 71.9312C53.4554 71.888 53.5415 71.8448 53.5845 71.8016L53.6275 71.7583C53.6706 71.7151 53.7567 71.6287 53.7997 71.5855C53.7997 71.5855 53.7997 71.5855 53.7997 71.5423C53.8427 71.4559 53.9288 71.4127 53.9719 71.3263C53.9719 71.3263 53.9719 71.3263 53.9719 71.2831C53.9719 71.2399 54.0149 71.2399 54.0149 71.1967C54.0579 71.1103 54.101 71.0239 54.1871 70.8942C54.1871 70.851 54.2301 70.851 54.2301 70.8078C54.2731 70.7214 54.3162 70.635 54.3592 70.5486C54.3592 70.5054 54.3592 70.5054 54.4022 70.4622C54.4453 70.3326 54.4883 70.2462 54.5314 70.1166C54.5314 70.0733 54.5314 70.0733 54.5314 70.0301C54.5744 69.9437 54.5744 69.8141 54.6174 69.7277C54.6174 69.6845 54.6174 69.6413 54.6605 69.6413C54.7035 69.5117 54.7035 69.4253 54.7466 69.2957V69.2525C54.7896 69.1228 54.7896 68.9932 54.7896 68.8636C54.7896 68.8204 54.7896 68.8204 54.7896 68.7772C54.7896 68.6476 54.8326 68.5612 54.8326 68.4316C54.8326 68.3884 54.8326 68.3884 54.8326 68.3452C54.8326 68.2155 54.8326 68.0859 54.8757 67.9563C54.8757 67.9563 54.8757 67.9563 54.8326 67.9563C53.1111 67.9995 52.5085 66.5305 52.2933 65.2344Z" fill="black"/>
<path opacity="0.15" d="M52.2933 65.2344C52.2072 64.7591 52.1642 64.3703 52.1642 64.0678C52.1642 64.0246 52.1642 63.9382 52.1642 63.895C52.1642 63.3766 52.3363 62.9445 52.4655 62.5125C52.5946 62.0372 52.7237 61.6051 52.5946 61.0435C52.5946 60.9571 52.5515 60.8275 52.5515 60.741C52.3363 60.0498 52.7667 58.7536 53.1111 58.2784C53.1971 58.1487 53.2832 58.0623 53.3263 57.9759L53.3693 57.9327C53.4554 57.8463 53.4984 57.7599 53.5845 57.6735C53.6275 57.5871 53.7136 57.5439 53.7567 57.5007C53.7567 57.5007 53.7567 57.5007 53.7997 57.4575C53.8427 57.4143 53.9288 57.3711 53.9719 57.3279C54.0149 57.2846 54.101 57.2414 54.144 57.2414C54.1871 57.1982 54.2731 57.1982 54.3592 57.1982C54.4453 57.1982 54.4883 57.1982 54.5744 57.155C54.6605 57.155 54.7466 57.155 54.8757 57.155C54.5744 57.4143 54.3592 57.6735 54.2301 57.8895C53.5415 59.1425 52.8959 59.9202 53.1111 61.2163C53.3263 62.5125 52.2072 63.5062 53.068 65.5368C53.9288 67.5674 55.7365 66.0985 55.6504 67.5242C55.6074 68.3451 55.5643 71.2831 55.1339 73.6593C55.0909 73.6593 55.0048 73.6593 54.9618 73.6161C54.9187 73.6161 54.8757 73.6161 54.8326 73.5729C54.8326 73.5729 54.8326 73.5729 54.7896 73.5729C54.7035 73.5729 54.6605 73.5297 54.5744 73.5297C54.5314 73.5297 54.4883 73.5297 54.4453 73.4865C54.3162 73.4433 54.2301 73.4433 54.144 73.4001C54.101 73.4001 54.0579 73.3569 53.9719 73.3569C53.9288 73.3569 53.8858 73.3137 53.8427 73.3137C53.7997 73.3137 53.7567 73.2705 53.6706 73.2705C53.6275 73.2705 53.5845 73.2273 53.5415 73.2273C53.4984 73.2273 53.4554 73.1841 53.3693 73.1841C53.3263 73.1841 53.2832 73.1409 53.2832 73.1409C53.1971 73.0977 53.1541 73.0977 53.1111 73.0545C53.1111 73.0545 53.1111 73.0545 53.068 73.0545C53.068 73.0545 53.025 73.0545 53.025 73.0113C53.025 73.0113 53.025 73.0113 52.9819 73.0113C52.9389 72.9681 52.8959 72.9681 52.8528 72.9249L52.8098 72.8817C52.7667 72.8384 52.7667 72.8384 52.7237 72.7952C52.7237 72.7952 52.7237 72.752 52.6807 72.752C52.6807 72.752 52.6807 72.7088 52.6376 72.7088C52.6376 72.6656 52.5946 72.6656 52.5946 72.6224C52.5946 72.5792 52.5946 72.5792 52.6376 72.536C52.6376 72.536 52.6376 72.536 52.6376 72.4928C52.6376 72.4928 52.6376 72.4928 52.6807 72.4496C52.6807 72.4064 52.7237 72.4064 52.7667 72.3632C52.7667 72.3632 52.7667 72.3632 52.8098 72.32L52.8528 72.2768C52.8959 72.2336 52.9819 72.1904 53.068 72.1472C53.1541 72.104 53.2402 72.0608 53.2832 72.0176C53.2832 72.0176 53.3263 72.0176 53.3263 71.9743C53.3693 71.9311 53.4554 71.8879 53.4984 71.8447L53.5415 71.8015C53.5845 71.7583 53.6706 71.6719 53.7136 71.6287C53.7136 71.6287 53.7136 71.6287 53.7136 71.5855C53.7567 71.4991 53.8427 71.4559 53.8858 71.3695C53.8858 71.3695 53.8858 71.3695 53.8858 71.3263C53.8858 71.2831 53.9288 71.2831 53.9288 71.2399C53.9719 71.1535 54.0149 71.067 54.101 70.9374C54.101 70.8942 54.144 70.8942 54.144 70.851C54.1871 70.7646 54.2301 70.6782 54.2731 70.5918C54.2731 70.5486 54.2731 70.5486 54.3162 70.5054C54.3592 70.3758 54.4022 70.2894 54.4453 70.1597C54.4453 70.1165 54.4453 70.1165 54.4453 70.0733C54.4883 69.9869 54.4883 69.8573 54.5314 69.7709C54.5314 69.7277 54.5314 69.6845 54.5744 69.6845C54.6174 69.5549 54.6174 69.4685 54.6605 69.3388V69.2956C54.7035 69.166 54.7035 69.0364 54.7035 68.9068C54.7035 68.8636 54.7035 68.8636 54.7035 68.8204C54.7035 68.6908 54.7466 68.6044 54.7466 68.4747C54.7466 68.4315 54.7466 68.4315 54.7466 68.3883C54.7466 68.2587 54.7466 68.1291 54.7896 67.9995C54.7896 67.9995 54.7896 67.9995 54.7466 67.9995C53.1111 67.9995 52.5085 66.5305 52.2933 65.2344Z" fill="black"/>
<path d="M56.9414 55.8157C60.0833 55.8157 62.7948 56.8958 62.7948 61.0867C62.7948 65.2776 60.6859 65.1912 60.4707 66.3577C60.0833 68.3883 57.1136 67.6538 56.8553 66.4873C56.5541 65.3208 56.6401 63.6358 55.8654 63.2469C54.4882 62.5989 55.1338 64.2839 54.5742 64.1974C54.0147 64.111 54.8755 62.8581 54.1438 62.1668C53.0678 61.1299 53.7995 59.7905 53.7134 59.2289C53.6704 59.0128 53.4122 58.7104 53.1539 58.5376C52.2501 57.8031 53.7134 55.8157 56.9414 55.8157Z" fill="#3E4357"/>
<path opacity="0.2" d="M53.1109 58.4944C53.3691 58.7104 53.6273 58.9696 53.6704 59.1857C53.7565 59.7473 53.0248 61.0867 54.1008 62.1236C54.8324 62.8149 53.9286 64.111 54.5312 64.1542C55.0907 64.2406 54.4451 62.5556 55.8224 63.2037C56.5971 63.5926 56.511 65.2776 56.8123 66.4441C57.1135 67.6106 60.0833 68.3451 60.4276 66.3145C60.5998 65.4504 61.7188 65.2776 62.3644 63.6358C61.2884 65.7096 58.2326 66.2713 57.8022 64.1974C56.9844 60.309 58.2756 60.6114 55.392 57.7167C54.5742 56.8958 56.6401 56.0749 58.4908 55.9453C57.9743 55.8589 57.4579 55.8157 56.9414 55.8157C53.7134 55.8157 52.2501 57.8031 53.1109 58.4944Z" fill="black"/>
<path d="M67.0561 75.6467C67.0561 73.3568 66.4965 71.8446 65.5497 71.0237C63.0534 68.9067 56.9417 70.7645 54.1011 71.715C51.6048 72.5359 49.2376 73.6592 48.3338 75.0418V88.4353V95.6506C48.3338 97.5084 49.8402 98.8477 51.777 99.2798C55.4353 100.101 65.1193 98.5885 65.1193 94.268C64.7319 91.5893 63.742 87.7873 65.2914 83.2075C66.3674 79.924 67.0561 77.4613 67.0561 75.6467Z" fill="#F5F7FF"/>
<path d="M36.3686 71.8449C35.766 71.4128 34.7761 70.4191 34.4748 70.1167C34.1736 69.8143 34.3888 69.1662 34.3888 68.6045C34.3888 67.9996 34.0875 67.6108 34.0875 67.1787C34.0875 66.7467 34.7331 66.185 34.5609 65.969C34.1736 65.5802 33.7001 66.2282 33.7001 66.2282C33.7001 66.2282 33.4849 65.1481 33.4849 64.3272C33.4849 63.5063 33.4419 62.9447 33.2697 62.7718C33.0976 62.599 32.8393 62.7718 32.8393 62.7718C32.8393 62.7718 32.9254 62.0374 32.452 62.0374C31.9785 62.0374 32.0216 62.7286 32.0216 62.7286C32.0216 62.7286 31.5481 62.6422 31.4621 63.2039C31.376 63.7656 31.333 64.1112 31.333 64.1112C31.333 64.1112 30.8595 64.284 30.7734 64.8457C30.7304 65.4073 30.7304 66.8763 30.6013 67.3516C30.4722 67.7836 30.4722 68.6477 30.7734 69.555C31.0747 70.4623 31.2038 71.1536 31.7203 71.4128C32.2368 71.6289 33.1837 73.0546 33.6141 73.7459C34.0014 74.4372 35.2065 74.0051 35.723 73.5731C36.2395 73.0978 36.8851 72.2337 36.3686 71.8449Z" fill="#F7B6B2"/>
<path opacity="0.3" d="M33.571 73.7028C33.1836 73.0116 32.1937 71.5858 31.6772 71.3698C31.1608 71.1537 31.0317 70.4625 30.7304 69.512C30.4291 68.6046 30.4291 67.7405 30.5582 67.3085C30.6873 66.8764 30.6873 65.4075 30.7304 64.8026C30.7734 64.4138 31.0317 64.1977 31.1608 64.1113C31.0747 65.6667 30.7734 69.4687 31.7203 70.3328C32.6241 71.2401 34.2596 71.629 35.5939 73.6164C34.9913 74.0053 33.9584 74.3509 33.571 73.7028Z" fill="black"/>
<path d="M33.442 70.16C34.0445 69.7712 34.8192 69.8576 35.2927 70.4192L39.5106 75.2582C39.7258 75.5174 40.0701 75.647 40.4144 75.6038L46.0956 74.6965C48.0324 74.3509 49.6679 73.53 51.1313 72.9251C51.2604 72.8819 51.3895 72.8387 51.4756 72.7955C52.2933 72.4067 53.1972 72.061 54.101 71.7586C56.9416 70.8081 63.0102 68.9503 65.5496 71.0673C66.5395 71.8882 67.0559 73.4004 67.0559 75.6902C67.0559 77.4616 66.3673 79.9675 65.2483 83.2511C63.6989 87.8308 64.6888 91.6329 65.0761 94.3116C65.0761 98.5889 55.3922 100.101 51.7338 99.3234C50.0553 98.9345 48.678 97.8976 48.3767 96.3854C48.0754 95.4781 48.2476 93.4907 48.2476 91.9785C48.2476 90.1639 48.0754 88.2197 47.9033 86.2323C47.6451 83.4239 46.8273 80.702 44.2019 81.0044C44.1588 81.0044 44.1158 81.0044 44.1158 81.0044L41.6625 81.4365C39.8979 81.7821 38.0902 81.0477 37.0573 79.5787L32.7964 73.7892C31.9356 72.5795 32.2368 70.9809 33.442 70.16Z" fill="#F5F7FF"/>
<g opacity="0.05">
<path d="M32.7532 70.8509C34.1735 71.9742 34.5609 72.7087 35.9382 74.4801C37.4446 76.3811 39.6396 75.7331 40.8017 75.517L46.0525 74.6529C47.9893 74.3073 49.6248 73.4864 51.0881 72.8815C51.2173 72.8383 51.3464 72.7951 51.4325 72.7519C52.2502 72.3631 53.154 72.0174 54.0579 71.715C56.8985 70.7645 62.9671 68.9067 65.5064 71.0237C65.8077 71.283 66.066 71.6286 66.3242 72.0606C63.7418 70.0732 57.8023 71.8878 55.0048 72.8383C53.9718 73.184 52.9389 73.616 52.035 74.0481C51.7768 74.1777 51.6046 74.3505 51.4755 74.5665C51.2173 75.1714 51.5616 76.0787 51.992 77.0292C52.035 77.0724 52.035 77.1588 52.0781 77.202C52.1211 77.2885 52.2072 77.4181 52.2502 77.5477C52.2502 77.5477 52.2502 77.5477 52.2502 77.5909C52.3363 77.7637 52.4224 77.9365 52.4654 78.1093C53.6275 81.2633 53.3692 86.4911 52.5945 88.7378C51.1312 93.1015 51.9489 96.7739 52.3793 99.4094C52.1211 99.3662 51.8629 99.323 51.6477 99.2798C49.9691 98.8909 48.5918 97.854 48.2906 96.3419C47.9893 95.4345 48.1614 93.4471 48.1614 91.9349C48.1614 90.1203 47.9893 88.1761 47.8171 86.1887C47.5589 83.3804 46.7411 80.6584 44.1157 80.9609C44.0727 80.9609 44.0296 80.9609 44.0296 80.9609L41.5764 81.3929C39.8117 81.7386 38.0041 81.0041 36.9711 79.5351L32.7102 73.7456C32.1507 72.8383 32.1937 71.715 32.7532 70.8509Z" fill="#1A50B2"/>
</g>
<path d="M60.3845 68.3884C60.6858 68.9933 61.2453 69.8574 61.8048 70.0734C61.7187 72.1473 56.3388 73.0546 53.369 71.9744C53.9716 71.4128 54.488 70.5487 54.7032 69.4254C57.6299 70.3327 60.2984 69.0365 60.3845 68.3884Z" fill="white"/>
<path d="M23.6718 105.588C23.5427 104.983 23.2845 104.421 22.8971 103.903C21.4768 103.989 20.0135 103.687 18.9375 103.082C17.8615 102.434 17.388 101.613 17.4741 100.792C17.0007 100.662 16.5272 100.576 16.0538 100.489C15.5373 100.403 15.0639 100.36 14.5474 100.317C13.9449 101.051 12.7828 101.656 11.3194 101.872C9.8561 102.088 8.34971 101.915 7.1446 101.44C6.32684 101.786 5.59517 102.218 4.99261 102.693V105.631C5.07869 105.674 5.12173 105.76 5.20781 105.804C4.69133 106.322 3.91662 106.711 3.01279 106.97V109.908C3.14191 110.513 3.40014 111.075 3.7875 111.593C5.20781 111.507 6.67116 111.809 7.74715 112.414C8.82314 113.062 9.29658 113.883 9.2105 114.704C9.68394 114.834 10.1574 114.92 10.6308 115.006C11.1473 115.093 11.6207 115.136 12.1372 115.179C12.7398 114.445 13.9018 113.84 15.3652 113.624C16.8285 113.408 18.3349 113.581 19.54 114.056C20.3578 113.71 21.0895 113.278 21.692 112.803V109.865C21.6059 109.822 21.5629 109.735 21.4768 109.692C21.9933 109.174 22.768 108.785 23.6718 108.526V105.588V105.588ZM9.03834 107.748C10.1574 106.625 12.4385 106.063 14.6765 106.409C16.0108 106.625 17.0437 107.1 17.6893 107.748C16.5703 108.871 14.2892 109.433 12.0511 109.087C10.7169 108.914 9.68394 108.396 9.03834 107.748Z" fill="#F5F7FF"/>
<g opacity="0.15">
<path d="M16.0108 108.742C16.6995 108.482 17.259 108.137 17.6894 107.748C17.0438 107.1 15.9678 106.625 14.6766 106.408C12.4385 106.063 10.1574 106.668 9.03839 107.748C9.29663 108.007 9.59791 108.223 9.94223 108.396C8.65104 107.705 8.04848 106.581 8.52192 105.501C9.25359 103.946 12.0081 103.039 14.6766 103.427C17.3451 103.859 18.9375 105.458 18.2058 106.97C17.8615 107.791 17.0438 108.396 16.0108 108.742ZM15.4083 110.686C13.9449 110.902 12.7828 111.507 12.1803 112.241C11.6638 112.198 11.1904 112.155 10.6739 112.068C10.1574 111.982 9.68399 111.896 9.25359 111.766C9.38271 110.945 8.90927 110.081 7.79024 109.476C6.71425 108.828 5.2509 108.569 3.83059 108.655C3.44323 108.137 3.185 107.532 3.05588 106.97V109.908C3.185 110.513 3.44323 111.075 3.83059 111.593C5.2509 111.507 6.71425 111.809 7.79024 112.414C8.86623 113.062 9.33967 113.883 9.25359 114.704C9.72703 114.833 10.2005 114.92 10.6739 115.006C11.1904 115.093 11.6638 115.136 12.1803 115.179C12.7828 114.445 13.9449 113.84 15.4083 113.624C16.8716 113.408 18.378 113.581 19.5831 114.056C20.4009 113.71 21.1325 113.278 21.7351 112.803V109.865C21.1325 110.34 20.4009 110.772 19.5831 111.118C18.378 110.643 16.8716 110.47 15.4083 110.686ZM23.6719 105.588C22.3807 105.933 21.3477 106.625 20.9604 107.445C20.573 108.31 20.8743 109.174 21.6921 109.865C21.606 109.822 21.5629 109.735 21.4769 109.692C21.9933 109.174 22.7681 108.785 23.6719 108.526V105.588V105.588ZM5.72434 105.112C6.1117 104.248 5.81042 103.384 4.99266 102.693V105.631C5.07874 105.674 5.12178 105.76 5.20786 105.804C5.42306 105.588 5.63826 105.372 5.72434 105.112Z" fill="#1A50B2"/>
</g>
<path d="M12.9118 102.477C13.6435 102.693 14.2891 102.995 14.7195 103.428C14.6764 103.471 14.6334 103.514 14.5473 103.6V106.02C15.0638 106.409 15.6663 106.754 16.3119 107.057C17.3019 106.668 18.55 106.538 19.7551 106.711C21.0033 106.884 21.9501 107.402 22.4236 108.007C22.854 107.964 23.2413 107.921 23.6717 107.878C24.1021 107.834 24.4895 107.748 24.8768 107.618C24.7908 106.927 25.1781 106.236 26.0819 105.717C26.9858 105.199 28.1909 104.983 29.353 105.026C29.6973 104.594 29.9125 104.119 29.9986 103.6V101.181C29.2669 100.965 28.6213 100.662 28.1909 100.23C28.2339 100.187 28.277 100.144 28.363 100.058V97.6381C27.8466 97.2492 27.244 96.9036 26.5984 96.6011C25.6085 96.99 24.3604 97.1196 23.1552 96.9468C21.9071 96.774 20.9602 96.2555 20.4868 95.6506C20.0564 95.6938 19.669 95.737 19.2386 95.7803C18.8082 95.8235 18.4209 95.9099 18.0335 96.0395C18.1196 96.7308 17.7322 97.422 16.8284 97.9405C15.9246 98.459 14.7195 98.675 13.5574 98.6318C13.2131 99.0638 12.9979 99.5391 12.9118 100.058V102.477V102.477ZM22.5527 102.952C20.702 103.255 18.8082 102.736 17.8614 101.829C18.3778 101.31 19.2817 100.878 20.3577 100.706C22.2084 100.403 24.1021 100.922 25.049 101.829C24.5325 102.347 23.6287 102.779 22.5527 102.952Z" fill="#F96969"/>
<path opacity="0.2" d="M17.4309 101.224C16.8283 99.928 18.1626 98.6319 20.3576 98.2863C22.5956 97.9406 24.8767 98.7183 25.4793 100.014C25.9097 100.922 25.3932 101.829 24.3172 102.391C24.6185 102.218 24.8767 102.045 25.0489 101.872C24.1451 100.965 22.2083 100.447 20.3576 100.749C19.2385 100.922 18.3778 101.311 17.8613 101.872C18.2056 102.218 18.679 102.477 19.2385 102.693C18.3778 102.348 17.7322 101.829 17.4309 101.224ZM16.3118 104.594C15.6232 104.292 15.0207 103.946 14.5472 103.557V105.977C15.0637 106.366 15.6663 106.711 16.3118 107.014C17.3018 106.625 18.5499 106.495 19.755 106.668C21.0032 106.841 21.95 107.359 22.4235 107.964C22.8539 107.921 23.2412 107.878 23.6716 107.835C24.102 107.791 24.4894 107.705 24.8767 107.575C24.7907 106.884 25.178 106.193 26.0819 105.674C26.9857 105.156 28.1908 104.94 29.3529 104.983C29.6972 104.551 29.9124 104.076 29.9985 103.557V101.138C29.9124 101.613 29.6972 102.088 29.3529 102.564C28.1908 102.52 26.9857 102.736 26.0819 103.255C25.178 103.773 24.7907 104.465 24.8767 105.156C24.4894 105.242 24.102 105.329 23.6716 105.415C23.2412 105.458 22.8539 105.501 22.4235 105.545C21.907 104.94 20.9601 104.421 19.755 104.249C18.5499 104.076 17.3018 104.205 16.3118 104.594ZM12.9117 102.477C13.6434 102.693 14.289 102.996 14.7194 103.428C14.6763 103.471 14.6333 103.514 14.5472 103.6C15.2359 103.039 15.4941 102.304 15.1498 101.613C14.8055 100.879 13.9877 100.36 12.9117 100.058V102.477V102.477ZM28.1908 100.23C28.2338 100.187 28.2769 100.144 28.363 100.058V97.6382C27.6743 98.1998 27.4161 98.9343 27.7604 99.6256C27.8895 99.8416 28.0186 100.014 28.1908 100.23Z" fill="black"/>
<g opacity="0.1">
<path d="M155.803 131.64L148.831 135.702C148.272 136.047 148.272 136.566 148.831 136.911L163.12 145.207C163.68 145.552 164.627 145.552 165.186 145.207L167.596 143.824L171.771 146.244L175.946 143.824L171.771 141.405L172.159 141.189C172.718 140.843 172.718 140.325 172.159 139.979L157.869 131.684C157.31 131.338 156.406 131.338 155.803 131.64Z" fill="#1A50B2"/>
</g>
<path d="M155.933 130.388C155.761 130.301 155.545 130.258 155.287 130.344C153.436 131.122 151.586 132.202 149.735 133.541C149.175 133.974 148.745 134.838 148.745 135.486C148.745 135.529 148.745 135.572 148.745 135.615C148.745 135.961 148.874 136.22 149.089 136.35L148.056 135.745C147.841 135.615 147.712 135.356 147.712 135.01C147.712 134.967 147.712 134.924 147.712 134.881C147.712 134.233 148.142 133.369 148.702 132.937C150.553 131.597 152.403 130.517 154.254 129.739C154.512 129.653 154.728 129.653 154.9 129.783L155.933 130.388Z" fill="#788BF1"/>
<path opacity="0.2" d="M148.702 135.529C148.702 135.572 148.702 135.615 148.702 135.659C148.702 136.004 148.831 136.263 149.046 136.393L148.013 135.788C147.798 135.659 147.669 135.399 147.669 135.054C147.669 135.01 147.669 134.967 147.669 134.924C147.669 134.838 147.669 134.751 147.712 134.665L148.745 135.27C148.745 135.356 148.702 135.442 148.702 135.529Z" fill="black"/>
<path d="M170.093 138.64C170.308 138.769 170.48 139.029 170.48 139.374C170.48 139.417 170.48 139.461 170.48 139.504C170.48 140.152 170.05 141.016 169.49 141.448C167.64 142.787 165.789 143.868 163.938 144.645C163.68 144.732 163.465 144.732 163.293 144.602L149.133 136.393C148.874 136.263 148.745 136.004 148.745 135.615C148.745 135.572 148.745 135.529 148.745 135.486C148.745 134.838 149.176 133.974 149.735 133.542C151.586 132.202 153.436 131.122 155.287 130.344C155.545 130.258 155.761 130.258 155.933 130.388L170.093 138.64Z" fill="url(#paint4_linear_53_4912)"/>
<g opacity="0.1">
<path d="M163.938 144.645C163.68 144.732 163.465 144.732 163.293 144.602L149.133 136.393C148.874 136.263 148.745 136.004 148.745 135.615C148.745 135.572 148.745 135.529 148.745 135.486C148.745 135.399 148.745 135.313 148.788 135.227L164.541 144.343C164.282 144.472 164.11 144.559 163.938 144.645Z" fill="#1A50B2"/>
</g>
<path d="M171.169 139.245C170.997 139.158 170.781 139.115 170.523 139.201C168.673 139.979 166.822 141.059 164.971 142.399C164.412 142.831 163.981 143.695 163.981 144.343C163.981 144.386 163.981 144.429 163.981 144.472C163.981 144.818 164.11 145.077 164.326 145.207L163.293 144.602C163.077 144.472 162.948 144.213 162.948 143.868C162.948 143.824 162.948 143.781 162.948 143.738C162.948 143.09 163.379 142.226 163.938 141.794C165.789 140.454 167.64 139.374 169.49 138.597C169.749 138.51 169.964 138.51 170.136 138.64L171.169 139.245Z" fill="#788BF1"/>
<path d="M170.48 142.01C171.04 141.578 171.47 140.713 171.47 140.065C171.47 140.022 171.47 139.979 171.47 139.936C171.47 139.288 171.04 138.942 170.48 139.158C168.629 139.936 166.779 141.016 164.928 142.355C164.368 142.787 163.938 143.651 163.938 144.299C163.938 144.343 163.938 144.386 163.938 144.429C163.938 145.077 164.368 145.423 164.928 145.207C166.779 144.429 168.672 143.349 170.48 142.01Z" fill="#788BF1"/>
<path opacity="0.2" d="M170.48 142.01C171.04 141.578 171.47 140.713 171.47 140.065C171.47 140.022 171.47 139.979 171.47 139.936C171.47 139.288 171.04 138.942 170.48 139.158C168.629 139.936 166.779 141.016 164.928 142.355C164.368 142.787 163.938 143.651 163.938 144.299C163.938 144.343 163.938 144.386 163.938 144.429C163.938 145.077 164.368 145.423 164.928 145.207C166.779 144.429 168.672 143.349 170.48 142.01Z" fill="black"/>
<path opacity="0.2" d="M163.938 144.472C163.938 144.429 163.938 144.386 163.938 144.343C163.938 144.256 163.938 144.17 163.981 144.084L162.948 143.479C162.948 143.565 162.905 143.652 162.905 143.738C162.905 143.781 162.905 143.824 162.905 143.868C162.905 144.213 163.034 144.472 163.25 144.602L164.282 145.207C164.067 145.077 163.938 144.818 163.938 144.472Z" fill="black"/>
<path opacity="0.6" d="M153.566 133.714C153.092 133.412 153.092 132.98 153.566 132.677C154.039 132.375 154.857 132.375 155.33 132.677L165.014 138.294C165.488 138.596 165.488 139.028 165.014 139.331C164.541 139.633 163.723 139.633 163.249 139.331L153.566 133.714Z" fill="white"/>
<g opacity="0.1">
<path d="M165.014 138.899L155.33 133.282C154.857 132.98 154.039 132.98 153.565 133.282C153.436 133.369 153.35 133.412 153.307 133.498C153.092 133.239 153.178 132.893 153.565 132.677C154.039 132.375 154.857 132.375 155.33 132.677L165.014 138.294C165.401 138.51 165.487 138.856 165.272 139.115C165.229 139.028 165.143 138.942 165.014 138.899Z" fill="#1A50B2"/>
</g>
<path d="M169.834 140.281L165.617 142.701V144.17L169.791 146.589L174.009 144.17V142.701L169.834 140.281Z" fill="white"/>
<g opacity="0.05">
<path d="M165.617 142.701V144.17L169.791 146.589V145.12L165.617 142.701Z" fill="#1A50B2"/>
</g>
<g opacity="0.15">
<path d="M169.792 145.12V146.589L174.009 144.17V142.701L169.792 145.12Z" fill="#1A50B2"/>
</g>
<path d="M173.751 143.133V143.997L170.05 146.157V145.25L173.751 143.133Z" fill="#788BF1"/>
<g opacity="0.15">
<path d="M171.685 142.096L170.911 142.571L170.136 142.096L170.911 141.621L171.685 142.096ZM168.759 142.831L167.984 143.306L168.759 143.781L169.533 143.306L168.759 142.831Z" fill="#1A50B2"/>
</g>
<path opacity="0.2" d="M170.05 145.25L172.977 143.565L173.751 143.133V143.652V143.997L173.45 143.824L170.05 145.769V145.25Z" fill="black"/>
<g opacity="0.1">
<path d="M79.1067 173.031L84.4437 176.142C87.5856 177.956 93.6541 180.462 95.7201 180.332L97.0973 181.11C97.3125 181.24 97.6138 181.24 97.829 181.11C98.0442 180.98 98.0442 180.808 97.829 180.678L96.4517 179.9C96.71 178.691 92.406 175.191 89.2641 173.376L85.4766 171.173L75.5344 165.427L67.8734 160.977C67.6582 160.847 67.443 160.804 67.1417 160.761L66.6252 160.458C66.367 160.285 65.9796 160.242 65.5492 160.242L65.1188 159.983C64.5163 159.637 63.2251 159.853 62.2352 160.415C61.2022 161.02 60.8579 161.754 61.4605 162.1L61.8909 162.359C61.8478 162.618 61.9769 162.834 62.2352 162.964L62.7517 163.266C62.7947 163.439 62.9238 163.569 63.096 163.698L70.9292 168.235L79.1067 173.031Z" fill="#1A50B2"/>
</g>
<path d="M69.7675 163.266C70.37 162.229 70.37 161.149 69.7675 160.804L63.7419 157.304C63.1394 156.958 62.1925 157.52 61.633 158.557C61.0304 159.594 61.0304 160.674 61.633 161.02L67.6585 164.519C68.218 164.865 69.1649 164.303 69.7675 163.266Z" fill="url(#paint5_linear_53_4912)"/>
<path d="M72.3498 164.779C73.0384 163.569 73.0384 162.23 72.3498 161.841L65.1191 157.65C64.4304 157.261 63.2684 157.909 62.5797 159.119C61.8911 160.329 61.8911 161.668 62.5797 162.057L69.8104 166.248C70.499 166.636 71.6181 165.988 72.3498 164.779Z" fill="url(#paint6_linear_53_4912)"/>
<path d="M74.1143 165.816C74.889 164.476 74.889 163.05 74.1143 162.618L66.2811 158.039C65.5064 157.607 64.2582 158.298 63.5265 159.637C62.7518 160.977 62.7518 162.402 63.5265 162.834L71.3598 167.371C72.1345 167.846 73.3396 167.112 74.1143 165.816Z" fill="url(#paint7_linear_53_4912)"/>
<path opacity="0.7" d="M73.3826 166.766L63.053 160.76C62.8809 161.365 62.9239 161.927 63.0961 162.316C63.1391 162.359 63.1391 162.402 63.1822 162.489C63.2252 162.532 63.2252 162.575 63.2682 162.618C63.3113 162.662 63.3543 162.705 63.3543 162.705C63.3974 162.748 63.4404 162.791 63.4834 162.791L71.3167 167.328C71.8762 167.717 72.6939 167.457 73.3826 166.766Z" fill="black"/>
<path d="M83.8414 171.432C84.6161 170.093 84.6161 168.667 83.8414 168.235L73.8992 162.489C73.1245 162.057 71.8764 162.748 71.1017 164.087C70.327 165.427 70.327 166.853 71.1017 167.285L81.0438 173.031C81.8185 173.506 83.0667 172.772 83.8414 171.432Z" fill="url(#paint8_linear_53_4912)"/>
<path d="M95.6342 178.259C96.4089 176.919 91.1151 172.426 87.6289 170.395L82.2919 167.285C81.5172 166.853 80.2691 167.544 79.5374 168.883C78.7627 170.223 78.7627 171.648 79.5374 172.08L84.8743 175.191C88.3175 177.222 94.8595 179.598 95.6342 178.259Z" fill="url(#paint9_linear_53_4912)"/>
<path d="M80.226 169.315C81.0007 167.976 82.2489 167.241 82.9806 167.717L82.2919 167.328C81.5172 166.896 80.2691 167.587 79.5374 168.926C78.7627 170.266 78.7627 171.691 79.5374 172.123L80.226 172.512C79.4513 172.08 79.4513 170.654 80.226 169.315Z" fill="url(#paint10_linear_53_4912)"/>
<path d="M96.667 179.339C96.8822 179.468 97.0974 179.382 97.2265 179.166C97.3556 178.95 97.2695 178.734 97.0543 178.604L95.6771 177.783C95.4619 177.654 95.2467 177.74 95.1176 177.913C94.9884 178.129 95.0745 178.345 95.2897 178.475L96.667 179.339Z" fill="url(#paint11_linear_53_4912)"/>
<path opacity="0.2" d="M73.5118 166.852L62.2354 160.328C61.805 160.069 61.4177 160.156 61.2455 160.544C61.3316 160.76 61.4177 160.933 61.6329 161.02L62.0633 161.279C62.1493 161.625 62.2785 161.927 62.5367 162.057L63.0532 162.359C63.1393 162.575 63.3114 162.748 63.4836 162.877L71.3168 167.414L74.3726 169.185C74.4587 169.056 74.5017 168.883 74.5017 168.667C74.5448 167.976 74.0713 167.155 73.5118 166.852Z" fill="black"/>
<path d="M62.4936 162.921C62.2354 162.446 62.2354 161.97 62.4936 161.797L63.7418 161.02C64 160.847 64.4304 161.106 64.6886 161.581C64.9469 162.057 64.9469 162.532 64.6886 162.705L63.4405 163.482C63.1822 163.612 62.7518 163.396 62.4936 162.921Z" fill="url(#paint12_linear_53_4912)"/>
<path d="M60.5999 160.761C60.4277 160.89 60.2986 161.106 60.2986 161.409C60.2986 162.057 60.772 162.878 61.3315 163.223L72.6079 169.747C72.9092 169.92 73.1674 169.92 73.3396 169.834L73.5978 169.661C73.77 169.574 73.8991 169.315 73.8991 168.97C73.8991 168.321 73.4257 167.501 72.8662 167.155L61.5898 160.631C61.2885 160.458 61.0303 160.458 60.8581 160.545L60.5999 160.761Z" fill="#788BF1"/>
<path opacity="0.2" d="M73.8992 169.013C73.8992 168.365 73.4258 167.544 72.8663 167.198L61.5899 160.674C61.2886 160.501 61.0303 160.501 60.8582 160.588L60.5999 160.761C60.7721 160.631 61.0734 160.674 61.3316 160.804L72.608 167.328C73.1675 167.673 73.641 168.494 73.641 169.142C73.641 169.488 73.5118 169.704 73.3397 169.834L73.5979 169.661C73.7701 169.574 73.8992 169.358 73.8992 169.013Z" fill="black"/>
<path d="M101.488 2.28467C103.984 3.75364 105.533 6.8644 105.533 11.2713C105.533 20.1715 99.3356 30.9728 91.6315 35.3797C87.801 37.5832 84.3578 37.7992 81.8185 36.3734C81.8185 36.3734 81.7755 36.3734 81.7755 36.3302L79.5804 35.0341C77.0411 33.5651 75.4917 30.4543 75.4917 26.0042C75.4917 17.104 81.6894 6.30273 89.3935 1.89582C93.224 -0.307633 96.7102 -0.523658 99.2065 0.902107L101.488 2.28467Z" fill="#F5F7FF"/>
<g opacity="0.1">
<path d="M89.3935 1.93903C93.224 -0.26442 96.7102 -0.480445 99.2065 0.94532L101.445 2.24147C101.488 2.24147 101.488 2.28467 101.531 2.28467C98.9913 0.7725 95.5051 0.94532 91.6315 3.19198C83.9705 7.64209 77.7297 18.4433 77.7297 27.3004C77.7297 31.7073 79.2791 34.818 81.7754 36.287L79.5804 35.0341C77.0411 33.5651 75.4916 30.4543 75.4916 26.0042C75.5347 17.1904 81.7324 6.38915 89.3935 1.93903Z" fill="#1A50B2"/>
</g>
<g opacity="0.15">
<path d="M79.8385 26.177C79.8385 18.6161 85.1324 9.45666 91.6314 5.65462C98.1734 1.89579 103.424 4.92014 103.424 12.481C103.424 20.0419 98.1304 29.2013 91.6314 33.0034C85.1324 36.7622 79.8385 33.6947 79.8385 26.177Z" fill="#1A50B2"/>
</g>
<path d="M80.3121 25.356C80.3121 18.4 85.1756 9.93182 91.2012 6.47542C97.1837 2.97581 102.09 5.82734 102.09 12.7401C102.09 19.6961 97.2267 28.1643 91.2012 31.6207C85.2187 35.1203 80.3121 32.312 80.3121 25.356Z" fill="#BBEDA4"/>
<path opacity="0.5" d="M90.8998 7.21014L91.5024 6.8645V9.4568L90.8998 9.80244V7.21014ZM90.8998 31.2753L91.5024 30.9297V28.3374L90.8998 28.683V31.2753ZM83.0666 24.1465V23.412L80.8285 24.7082V25.4427L83.0666 24.1465ZM101.574 13.3885V12.654L99.3356 13.9501V14.6846L101.574 13.3885Z" fill="white"/>
<path opacity="0.8" d="M90.943 18.7025V11.4008L91.4594 11.0984V18.3568C91.6316 18.3568 91.7177 18.4864 91.7177 18.7025C91.7177 18.7889 91.6746 18.9185 91.6316 19.0481L97.1407 23.6278L96.8394 24.1031L91.3303 19.5234C91.2873 19.5666 91.2442 19.6098 91.1582 19.653C90.8569 19.8258 90.6417 19.6962 90.6417 19.3505C90.6847 19.1345 90.7708 18.8753 90.943 18.7025Z" fill="white"/>
<path opacity="0.8" d="M91.0721 7.72851L91.3304 7.59889V8.98145L91.0721 9.11107V7.72851ZM91.0721 30.6272L91.3304 30.4975V29.115L91.0721 29.2446V30.6272ZM81.3021 24.9673L82.5072 24.276V23.9736L81.3021 24.6649V24.9673ZM99.8953 14.2093L101.1 13.518V13.2155L99.8953 13.9068V14.2093ZM84.9605 15.7214L85.1327 15.419L84.2719 14.9437L84.0997 15.2462L84.9605 15.7214ZM98.0876 23.2823L98.2598 22.9799L97.399 22.5046L97.2268 22.8071L98.0876 23.2823ZM84.3149 31.2752L85.1757 29.8063L85.0035 29.7199L84.1427 31.1888L84.3149 31.2752ZM97.442 8.5062L98.3028 7.03723L98.1306 6.95082L97.2698 8.41979L97.442 8.5062ZM95.6343 7.90133L96.2369 6.34595H96.0217L95.4191 7.90133H95.6343ZM86.3808 31.8801L86.9834 30.3247H86.7682L86.1656 31.8801H86.3808ZM83.6263 18.6162L83.7554 18.2705L82.7224 18.1841L82.5933 18.5298L83.6263 18.6162ZM99.6801 20.0419L99.8092 19.6963L98.7762 19.6099L98.6471 19.9555L99.6801 20.0419ZM88.8341 10.7961L89.0923 10.58L88.791 9.4135L88.5328 9.62953L88.8341 10.7961ZM93.6545 28.7693L93.9127 28.5533L93.6115 27.3868L93.3532 27.6028L93.6545 28.7693ZM81.6895 27.7324L82.8516 26.6955L82.7655 26.4363L81.6034 27.4732L81.6895 27.7324ZM99.594 11.7898L100.756 10.7529L100.67 10.4936L99.5079 11.5305L99.594 11.7898ZM98.7762 9.80235L99.8092 8.5062L99.6801 8.33338L98.6471 9.62953L98.7762 9.80235ZM82.7224 29.8927L83.7554 28.5965L83.6263 28.4237L82.5933 29.7199L82.7224 29.8927ZM86.7682 13.0427L86.9834 12.7835L86.3808 11.9194L86.1656 12.1786L86.7682 13.0427ZM96.0217 26.2635L96.2369 26.0042L95.6343 25.1401L95.4191 25.3994L96.0217 26.2635ZM93.5684 8.07415L93.8697 6.51877L93.6115 6.60518L93.3102 8.16056L93.5684 8.07415ZM88.748 31.6209L89.0493 30.0655L88.791 30.1519L88.4898 31.7073L88.748 31.6209ZM82.8085 21.5109L82.8946 21.1653L81.7325 21.4677L81.6464 21.8133L82.8085 21.5109ZM100.713 16.6719L100.799 16.3263L99.637 16.6287L99.5509 16.9744L100.713 16.6719Z" fill="white"/>
<defs>
<linearGradient id="paint0_linear_53_4912" x1="0" y1="160.719" x2="197.927" y2="160.719" gradientUnits="userSpaceOnUse">
<stop offset="0.48" stop-color="white"/>
<stop offset="0.52" stop-color="#DEE4F7"/>
</linearGradient>
<linearGradient id="paint1_linear_53_4912" x1="182.478" y1="84.294" x2="106.307" y2="84.294" gradientUnits="userSpaceOnUse">
<stop offset="0.2243" stop-color="#DEE4F7"/>
<stop offset="0.2703" stop-color="white"/>
</linearGradient>
<linearGradient id="paint2_linear_53_4912" x1="157.112" y1="107.816" x2="80.9415" y2="107.816" gradientUnits="userSpaceOnUse">
<stop offset="0.2243" stop-color="#DEE4F7"/>
<stop offset="0.2703" stop-color="white"/>
</linearGradient>
<linearGradient id="paint3_linear_53_4912" x1="106.015" y1="130.685" x2="123.424" y2="126.498" gradientUnits="userSpaceOnUse">
<stop offset="0.25" stop-color="white"/>
<stop offset="0.7" stop-color="#DEE4F7"/>
</linearGradient>
<linearGradient id="paint4_linear_53_4912" x1="157.454" y1="141.254" x2="161.779" y2="133.792" gradientUnits="userSpaceOnUse">
<stop offset="0.25" stop-color="white"/>
<stop offset="1" stop-color="#DEE4F7"/>
</linearGradient>
<linearGradient id="paint5_linear_53_4912" x1="64.6385" y1="162.762" x2="66.7767" y2="159.073" gradientUnits="userSpaceOnUse">
<stop offset="0.25" stop-color="white"/>
<stop offset="0.7" stop-color="#DEE4F7"/>
</linearGradient>
<linearGradient id="paint6_linear_53_4912" x1="66.1743" y1="164.147" x2="68.741" y2="159.718" gradientUnits="userSpaceOnUse">
<stop offset="0.00537634" stop-color="#6177EC"/>
<stop offset="0.3" stop-color="#7E92FD"/>
<stop offset="0.7" stop-color="#7E92FD"/>
<stop offset="1" stop-color="#6177EC"/>
</linearGradient>
<linearGradient id="paint7_linear_53_4912" x1="67.4228" y1="165.13" x2="70.2146" y2="160.313" gradientUnits="userSpaceOnUse">
<stop offset="0.25" stop-color="white"/>
<stop offset="0.7" stop-color="#DEE4F7"/>
</linearGradient>
<linearGradient id="paint8_linear_53_4912" x1="76.1082" y1="170.163" x2="78.8998" y2="165.346" gradientUnits="userSpaceOnUse">
<stop offset="0.00537634" stop-color="#6177EC"/>
<stop offset="0.3" stop-color="#7E92FD"/>
<stop offset="0.7" stop-color="#7E92FD"/>
<stop offset="1" stop-color="#6177EC"/>
</linearGradient>
<linearGradient id="paint9_linear_53_4912" x1="86.1854" y1="176.004" x2="88.9769" y2="171.187" gradientUnits="userSpaceOnUse">
<stop offset="0.00537634" stop-color="#6177EC"/>
<stop offset="0.3" stop-color="#7E92FD"/>
<stop offset="0.7" stop-color="#7E92FD"/>
<stop offset="1" stop-color="#6177EC"/>
</linearGradient>
<linearGradient id="paint10_linear_53_4912" x1="79.1741" y1="171.94" x2="81.9656" y2="167.124" gradientUnits="userSpaceOnUse">
<stop offset="0.25" stop-color="white"/>
<stop offset="0.7" stop-color="#DEE4F7"/>
</linearGradient>
<linearGradient id="paint11_linear_53_4912" x1="95.9613" y1="178.93" x2="96.3756" y2="178.215" gradientUnits="userSpaceOnUse">
<stop offset="0.25" stop-color="white"/>
<stop offset="0.7" stop-color="#DEE4F7"/>
</linearGradient>
<linearGradient id="paint12_linear_53_4912" x1="63.1176" y1="161.46" x2="64.1005" y2="163.156" gradientUnits="userSpaceOnUse">
<stop offset="0.25" stop-color="white"/>
<stop offset="0.7" stop-color="#DEE4F7"/>
</linearGradient>
</defs>
</svg>
