<svg width="227" height="218" viewBox="0 0 227 218" fill="none" xmlns="http://www.w3.org/2000/svg">
<g opacity="0.15">
<path d="M127.704 216.75C124.741 218.417 119.919 218.417 116.957 216.75L19.7082 161.222C16.7454 159.555 16.7454 156.796 19.7082 155.072L116.782 99.6016C119.745 97.9346 124.567 97.9346 127.53 99.6016L224.778 155.187C227.741 156.911 227.741 159.613 224.778 161.337L127.704 216.75Z" fill="#1A50B2"/>
</g>
<path d="M209.499 125.246C209.499 124.154 208.744 123.005 207.292 122.2L110.101 66.6724C107.139 65.0054 102.317 65.0054 99.3542 66.6724L2.22198 122.085C0.711556 122.947 0.0144348 124.039 0.0144348 125.189V140.537C0.0144348 141.629 0.769649 142.721 2.22198 143.583L99.4123 199.111C102.375 200.835 107.197 200.835 110.16 199.111L207.234 143.641C208.744 142.779 209.441 141.686 209.441 140.537L209.499 125.246Z" fill="url(#paint0_linear_53_4317)"/>
<g opacity="0.1">
<path d="M209.499 125.246C209.499 124.154 208.744 123.005 207.292 122.2L110.101 66.6724C107.139 65.0054 102.317 65.0054 99.3542 66.6724L2.22198 122.085C0.711556 122.947 0.0144348 124.039 0.0144348 125.189V140.537C0.0144348 141.629 0.769649 142.721 2.22198 143.583L99.4123 199.111C102.375 200.835 107.197 200.835 110.16 199.111L207.234 143.641C208.744 142.779 209.441 141.686 209.441 140.537L209.499 125.246Z" fill="#1A50B2"/>
</g>
<path d="M110.16 183.763C107.197 185.43 102.375 185.43 99.4124 183.763L2.22207 128.235C-0.740691 126.568 -0.740691 123.809 2.22207 122.085L99.3543 66.6147C102.317 64.9478 107.139 64.9478 110.102 66.6147L207.292 122.142C210.255 123.809 210.255 126.568 207.292 128.293L110.16 183.763Z" fill="white"/>
<g opacity="0.1">
<path d="M107.72 65.6948L104.408 67.5917C102.898 68.454 102.956 69.8335 104.408 70.6383L193.407 121.51C194.918 122.372 197.3 122.372 198.752 121.51L202.47 119.383L110.043 66.6145C109.346 66.2122 108.591 65.9248 107.72 65.6948Z" fill="#1A50B2"/>
</g>
<path d="M166.336 103.863C166.336 103.461 166.046 103.116 165.581 102.828L143.041 89.9524C142.111 89.435 140.717 89.3776 139.671 89.7799L116.027 98.977C115.388 99.207 114.923 99.6668 114.865 100.069C114.865 100.127 114.865 100.184 114.865 100.184V102.598C114.865 103.001 115.098 103.403 115.62 103.691L145.713 120.878C146.294 121.223 147.049 121.338 147.862 121.338C148.676 121.28 149.373 121.05 149.779 120.705L165.871 107.197C166.162 106.91 166.336 106.622 166.336 106.335V103.863Z" fill="#E3E7FA"/>
<g opacity="0.1">
<path d="M165.581 102.771L143.04 89.8948C142.111 89.3774 140.717 89.3199 139.671 89.7223L125.09 95.413L155.995 113.06L165.929 104.725C166.626 104.15 166.452 103.288 165.581 102.771Z" fill="#1A50B2"/>
</g>
<path d="M166.336 103.863C166.336 104.15 166.22 104.495 165.871 104.725L149.779 118.234C149.315 118.636 148.618 118.866 147.804 118.866C146.991 118.923 146.236 118.751 145.655 118.406L115.62 101.219C115.098 100.931 114.865 100.529 114.865 100.127V102.541C114.865 102.943 115.098 103.346 115.62 103.633L145.713 120.82C146.294 121.165 147.049 121.28 147.862 121.28C148.676 121.223 149.373 120.993 149.779 120.648L165.871 107.14C166.162 106.852 166.336 106.565 166.336 106.277V103.863Z" fill="url(#paint1_linear_53_4317)"/>
<g opacity="0.1">
<path d="M166.336 103.863C166.336 104.15 166.22 104.495 165.871 104.725L155.937 113.06V115.532L165.871 107.197C166.162 106.91 166.336 106.622 166.336 106.335V103.863Z" fill="#1A50B2"/>
</g>
<path d="M98.6571 3.72919L95.9848 5.28121C95.5201 5.56862 95.2296 6.14344 95.2296 7.00567V70.0059C95.2296 71.6729 96.4496 73.7423 97.9019 74.6045L186.901 125.476C187.656 125.878 188.295 125.936 188.76 125.649L191.432 124.096C191.897 123.809 192.246 123.234 192.246 122.372V59.3718C192.246 57.7048 191.026 55.6354 189.573 54.7732L100.574 3.90164C99.819 3.49926 99.18 3.44178 98.6571 3.72919Z" fill="url(#paint2_linear_53_4317)"/>
<path opacity="0.3" d="M98.6571 3.72919L98.1342 4.0166C98.599 3.72919 99.2961 3.78667 99.9932 4.18905L188.992 55.0606C190.503 55.9228 191.665 57.9922 191.665 59.6592V122.659C191.665 123.522 191.374 124.096 190.851 124.384L191.374 124.096C191.839 123.809 192.187 123.234 192.187 122.372V59.3718C192.187 57.7048 190.968 55.6354 189.515 54.7732L100.574 3.90164C99.8189 3.49926 99.1799 3.44178 98.6571 3.72919Z" fill="black"/>
<path d="M187.366 56.0379L98.3667 5.16629C97.6114 4.76391 96.9724 4.70643 96.5077 4.99384L96.0429 5.28125C96.0429 5.28125 96.0429 5.28125 95.9848 5.28125C95.5201 5.56866 95.2296 6.14348 95.2296 7.00571V70.006C95.2296 71.673 96.4496 73.7423 97.9019 74.6045L186.901 125.476C187.598 125.878 188.295 125.936 188.76 125.706H188.818L189.283 125.419C189.748 125.131 190.096 124.556 190.096 123.694V60.6939C190.038 58.9119 188.876 56.8426 187.366 56.0379Z" fill="#915DC2"/>
<path opacity="0.2" d="M119.048 34.7121V24.3079C119.048 23.2732 118.351 22.0661 117.421 21.5487L95.2296 8.84521V22.9283L117.421 35.6318C118.293 36.1492 119.048 35.7468 119.048 34.7121Z" fill="black"/>
<path opacity="0.2" d="M153.904 64.7751C153.904 65.8098 153.207 66.2122 152.277 65.6948L133.862 55.1756C132.99 54.6583 132.235 53.4512 132.235 52.4165V40.9776C132.235 39.9429 132.932 39.5405 133.862 40.0579L152.277 50.5771C153.149 51.0944 153.904 52.3015 153.904 53.3362V64.7751Z" fill="black"/>
<path opacity="0.2" d="M181.905 96.9076C181.905 97.9423 181.208 98.3447 180.278 97.8274L161.863 87.3081C160.991 86.7908 160.236 85.5837 160.236 84.549V58.9695C160.236 57.9349 160.933 57.5325 161.863 58.0498L180.278 68.569C181.15 69.0864 181.905 70.2935 181.905 71.3282V96.9076Z" fill="black"/>
<path opacity="0.2" d="M96.4495 4.99384L95.9267 5.28125C96.3914 4.99384 97.0886 5.05132 97.7857 5.4537L186.785 56.3253C188.295 57.1875 189.457 59.2568 189.457 60.9238V123.924C189.457 124.786 189.167 125.361 188.644 125.649L189.167 125.361C189.631 125.074 189.98 124.499 189.98 123.637V60.6364C189.98 58.9694 188.76 56.9001 187.308 56.0379L98.3666 5.16629C97.6114 4.76391 96.9724 4.70643 96.4495 4.99384Z" fill="black"/>
<g opacity="0.1">
<path d="M91.686 94.0331C86.3414 90.9865 79.5444 89.8944 76.2912 91.5614L57.4108 97.8844C56.7137 98.0568 56.1328 98.3442 55.6099 98.6316C51.1368 101.161 53.751 106.794 61.4193 111.22L57.4108 113.519C53.2281 111.738 47.2445 111.91 43.4103 114.094L40.1571 115.819C35.9744 118.233 35.9744 122.084 40.1571 124.499C44.3398 126.913 51.1368 126.913 55.3195 124.499L58.5727 122.774C62.4069 120.59 62.6973 117.198 59.5603 114.784L63.6268 112.427C71.0047 115.991 79.5444 117.026 83.611 114.727C84.1338 114.439 84.5405 114.094 84.889 113.692L95.9849 102.885C98.9476 100.931 97.0887 97.0796 91.686 94.0331Z" fill="#1A50B2"/>
</g>
<path d="M47.7673 112.427C41.8418 112.427 37.0201 115.187 37.0201 118.578V120.13C37.0201 123.522 41.8418 126.281 47.7673 126.281C53.6929 126.281 58.5146 123.522 58.5146 120.13V118.578C58.5146 115.187 53.6929 112.427 47.7673 112.427Z" fill="#788BF1"/>
<path opacity="0.2" d="M47.7673 124.671C41.8418 124.671 37.0201 121.912 37.0201 118.521V120.073C37.0201 123.464 41.8418 126.223 47.7673 126.223C53.6929 126.223 58.5146 123.464 58.5146 120.073V118.521C58.5146 121.912 53.6929 124.671 47.7673 124.671Z" fill="black"/>
<path d="M47.7673 110.99C42.1903 110.99 37.7171 113.577 37.7171 116.739V118.233C37.7171 121.395 42.2484 123.981 47.7673 123.981C53.3443 123.981 57.8175 121.395 57.8175 118.233V116.739C57.8175 113.577 53.3443 110.99 47.7673 110.99Z" fill="#788BF1"/>
<path opacity="0.2" d="M47.7673 122.487C42.1903 122.487 37.7171 119.9 37.7171 116.739V118.233C37.7171 121.395 42.2484 123.982 47.7673 123.982C53.3443 123.982 57.8175 121.395 57.8175 118.233V116.739C57.8175 119.9 53.3443 122.487 47.7673 122.487Z" fill="black"/>
<path opacity="0.2" d="M46.7217 117.199C47.3026 117.543 48.2902 117.543 48.8712 117.199L55.7843 113.232C55.1452 112.772 54.4481 112.37 53.5767 112.025L46.7217 115.991C46.0827 116.336 46.0827 116.854 46.7217 117.199Z" fill="black"/>
<path d="M49.2777 98.4596C49.2777 98.2296 49.1615 97.9997 48.813 97.8273C48.232 97.4824 47.2444 97.4824 46.6635 97.8273C46.373 97.9997 46.1988 98.2296 46.1988 98.4596V116.624C46.1988 116.854 46.3149 117.084 46.6635 117.256C47.2444 117.601 48.232 117.601 48.813 117.256C49.1034 117.084 49.2777 116.854 49.2777 116.624V98.4596Z" fill="url(#paint3_linear_53_4317)"/>
<g opacity="0.1">
<path d="M49.2777 88.515C49.2777 88.2851 49.1615 88.0551 48.813 87.8827C48.232 87.5378 47.2444 87.5378 46.6635 87.8827C46.373 88.0551 46.1988 88.2851 46.1988 88.515V106.679C46.1988 106.909 46.3149 107.139 46.6635 107.312C47.2444 107.656 48.232 107.656 48.813 107.312C49.1034 107.139 49.2777 106.909 49.2777 106.679V88.515Z" fill="#1A50B2"/>
</g>
<path d="M67.0543 90.9869L61.5935 70.2359C61.3612 65.9823 55.2613 62.5908 47.7673 62.5908C40.2732 62.5908 34.2315 65.9823 33.9411 70.2359L28.4803 90.9869C28.2479 91.6767 28.1317 92.424 28.1317 93.1138C28.1317 99.3218 36.9038 104.323 47.7673 104.323C58.6308 104.323 67.4029 99.3218 67.4029 93.1138C67.4029 92.424 67.2867 91.6767 67.0543 90.9869Z" fill="url(#paint4_linear_53_4317)"/>
<path d="M47.7673 78.3406C55.3775 78.3406 61.5935 74.8342 61.5935 70.4656C61.5935 66.097 55.4356 62.5906 47.7673 62.5906C40.157 62.5906 33.941 66.097 33.941 70.4656C33.941 74.8342 40.157 78.3406 47.7673 78.3406Z" fill="white"/>
<path d="M47.7674 63.0508C40.6219 63.0508 34.8125 66.3847 34.8125 70.466C34.8125 74.5472 40.6219 77.8811 47.7674 77.8811C54.9129 77.8811 60.7222 74.5472 60.7222 70.466C60.7222 66.3847 54.9129 63.0508 47.7674 63.0508Z" fill="url(#paint5_linear_53_4317)"/>
<path d="M47.7674 77.8809C48.7549 77.8809 49.6844 77.8234 50.6139 77.7085C51.6015 76.3289 51.4853 74.4895 50.2073 73.2249C48.813 71.8453 46.6055 71.8453 45.2113 73.2249C43.9913 74.432 43.8751 76.3289 44.8046 77.7085C45.8503 77.8234 46.7798 77.8809 47.7674 77.8809Z" fill="url(#paint6_radial_53_4317)"/>
<g opacity="0.1">
<path d="M127.762 138.64C128.11 138.467 131.538 136.513 131.712 136.398C135.43 134.271 141.472 134.271 145.19 136.398C148.908 138.525 148.908 141.974 145.19 144.1C144.841 144.273 140.833 146.572 140.659 146.687L140.426 146.802C136.708 148.527 131.189 148.354 127.762 146.4C124.044 144.215 124.044 140.766 127.762 138.64Z" fill="#1A50B2"/>
</g>
<path d="M124.973 142.549V137.835C124.973 136.456 125.903 135.076 127.762 133.984C131.48 131.857 137.463 131.857 141.123 133.984C142.982 135.018 143.912 136.398 143.912 137.778V142.491C143.912 143.871 142.982 145.25 141.123 146.285C137.405 148.412 131.422 148.412 127.762 146.285C125.903 145.308 124.973 143.928 124.973 142.549Z" fill="#788BF1"/>
<path opacity="0.2" d="M124.973 142.549V137.835C124.973 136.456 125.903 135.076 127.762 133.984C131.48 131.857 137.463 131.857 141.123 133.984C142.982 135.018 143.912 136.398 143.912 137.778V142.491C143.912 143.871 142.982 145.25 141.123 146.285C137.405 148.412 131.422 148.412 127.762 146.285C125.903 145.308 124.973 143.928 124.973 142.549Z" fill="black"/>
<path d="M127.762 133.984C131.48 131.857 137.463 131.857 141.123 133.984C144.841 136.111 144.841 139.502 141.123 141.629C137.405 143.756 131.422 143.756 127.762 141.629C124.044 139.502 124.044 136.111 127.762 133.984Z" fill="#788BF1"/>
<path opacity="0.2" d="M132.584 141.169C128.691 140.652 128.227 138.582 131.596 136.57C133.92 135.133 137.522 134.156 140.775 133.811C140.891 133.869 141.007 133.926 141.123 133.984C143.738 135.478 144.493 137.605 143.389 139.502C140.078 140.882 135.721 141.571 132.584 141.169Z" fill="black"/>
<g opacity="0.05">
<path d="M120.849 142.433C120.094 138.64 123.173 134.501 120.268 133.869C117.712 133.006 116.55 133.236 112.309 135.938C107.894 138.697 111.089 139.789 110.043 143.641C108.998 147.434 122.185 148.986 120.849 142.433Z" fill="#1A50B2"/>
</g>
<path d="M115.679 143.698C116.782 143.698 117.712 142.779 117.712 141.686V135.248C117.712 134.156 116.782 133.237 115.679 133.237C114.575 133.237 113.645 134.156 113.645 135.248V141.686C113.645 142.779 114.575 143.698 115.679 143.698Z" fill="#3E4357"/>
<path opacity="0.3" d="M117.712 135.651V141.686C117.712 142.606 117.015 143.411 116.143 143.641V137.605C116.085 136.686 116.782 135.881 117.712 135.651Z" fill="black"/>
<path opacity="0.3" d="M115.678 143.066C116.55 143.066 117.305 142.606 117.654 141.859C117.537 142.836 116.724 143.641 115.678 143.641C114.633 143.641 113.761 142.836 113.703 141.859C114.052 142.606 114.807 143.066 115.678 143.066Z" fill="black"/>
<path opacity="0.3" d="M115.679 133.294C116.782 133.294 117.712 134.214 117.712 135.306V139.502C117.305 140.077 116.608 140.422 115.853 140.422C114.981 140.422 114.168 140.02 113.703 139.387V135.306C113.645 134.214 114.575 133.294 115.679 133.294Z" fill="black"/>
<path d="M130.144 135.248C130.144 135.248 128.459 139.445 129.97 140.249C131.48 141.054 132.874 140.192 134.559 139.502C136.244 138.812 139.032 137.548 139.555 137.26C140.078 137.03 141.356 136.341 141.182 134.961C141.007 133.581 138.742 133.466 135.837 134.214C132.932 134.904 130.144 135.248 130.144 135.248Z" fill="#3E4357"/>
<path opacity="0.3" d="M132.816 135.651C132.816 135.651 133.107 135.249 133.629 134.731C134.327 134.616 135.082 134.444 135.895 134.271C138.858 133.582 141.065 133.639 141.24 135.019C141.414 136.456 140.136 137.088 139.613 137.318C139.09 137.548 136.302 138.87 134.617 139.56C133.804 139.905 133.107 140.25 132.41 140.422C131.364 139.272 132.816 135.651 132.816 135.651Z" fill="black"/>
<path opacity="0.3" d="M130.028 139.847C131.538 140.652 132.932 139.79 134.617 139.1C136.302 138.41 139.09 137.145 139.613 136.858C140.078 136.628 141.123 136.111 141.24 135.019C141.356 136.341 140.136 137.03 139.613 137.26C139.09 137.49 136.302 138.812 134.617 139.502C132.932 140.192 131.538 141.054 130.028 140.249C129.505 139.962 129.331 139.272 129.389 138.525C129.389 139.1 129.563 139.617 130.028 139.847Z" fill="black"/>
<path opacity="0.3" d="M135.082 134.501L134.675 135.593C134.21 136.858 132.642 138.353 131.306 138.353C130.492 138.353 129.795 137.72 129.737 136.915L130.318 135.191L135.082 134.501Z" fill="black"/>
<path d="M112.6 94.6089L113.064 137.146C113.064 138.64 114.284 139.79 115.795 139.79C117.015 139.79 118.002 138.87 118.118 137.72L123.579 96.5058L112.6 94.6089Z" fill="#3E4357"/>
<path opacity="0.2" d="M121.023 97.0232L123.463 97.713L118.177 137.663C118.06 138.755 117.189 139.56 116.143 139.732C116.143 139.617 116.143 139.445 116.143 139.33L121.023 97.0232Z" fill="black"/>
<path d="M129.04 96.2183C128.517 96.1608 128.691 95.8159 128.169 95.8159C122.65 95.8159 118.467 89.9528 118.467 102.081C118.467 105.128 119.861 107.887 124.276 108.577C124.741 108.634 125.148 108.922 125.438 109.324L132.642 117.084C133.223 117.889 133.455 118.924 133.223 119.901L129.737 135.823C129.505 136.801 130.318 137.72 131.306 137.72C132.642 137.72 134.559 136.398 135.024 135.134L140.02 120.246C140.775 118.004 140.484 115.532 139.206 113.463L129.04 96.2183Z" fill="#3E4357"/>
<path opacity="0.2" d="M118.641 103.978C118.758 104.151 118.932 104.323 119.048 104.496C120.907 106.45 123.928 106.565 125.787 104.841C127.646 103.059 126.484 100.07 124.625 98.1152C122.766 96.1608 120.907 96.0458 119.048 97.7703C118.874 97.9428 118.758 98.0577 118.641 98.2302C119.513 91.3323 123.347 95.8159 128.169 95.8159C128.691 95.8159 128.517 96.1608 129.04 96.2183L139.206 113.463C140.484 115.475 140.775 117.946 140.02 120.246L135.024 135.134C134.675 136.053 133.629 136.916 132.584 137.375L136.534 119.326C136.766 118.349 136.534 117.314 135.953 116.509L131.248 110.071C130.957 109.669 130.55 109.439 130.086 109.324C128.982 109.152 126.135 108.979 124.799 108.749C124.625 108.692 124.451 108.577 124.276 108.577C120.733 108.06 119.164 106.22 118.641 103.978Z" fill="black"/>
<path opacity="0.3" d="M118.99 95.816C120.558 92.712 124.044 95.8735 128.111 95.8735C128.633 95.8735 129.098 95.8735 129.621 95.931L129.679 96.6207C129.331 98.1728 127.936 99.2649 126.135 99.6098C122.824 100.357 114.865 99.2649 112.6 96.1609V94.6089L118.99 95.816Z" fill="black"/>
<path d="M126.368 65.6377C127.065 64.7755 128.517 63.6833 128.517 63.051C128.575 61.9589 128.517 62.4187 128.634 61.8439C128.75 61.2691 128.924 60.7517 129.331 60.062C129.737 59.4296 129.912 58.5674 130.26 58.6249C130.667 58.6824 130.609 59.1422 130.609 59.3722C130.609 59.6021 130.144 60.7517 130.202 60.8092C130.26 60.8667 130.725 60.5793 131.132 60.4068C131.538 60.1769 131.887 59.8895 132.235 59.5446C132.526 59.1997 133.804 57.9926 134.094 58.0501C134.385 58.165 134.211 58.6249 134.211 58.6249C134.211 58.6249 134.733 58.5674 134.559 59.2572C134.327 59.947 134.094 60.4643 134.094 60.4643C134.094 60.4643 134.269 60.6943 134.094 61.2116C133.92 61.7289 133.804 61.7289 133.804 61.7289C133.804 61.7289 134.036 61.9589 133.397 62.9935C132.758 64.0282 130.783 65.0629 130.318 65.9251C129.795 66.8448 129.389 67.4196 128.982 67.8795C128.634 68.2819 125.497 66.6724 126.368 65.6377Z" fill="#F7B6B2"/>
<path opacity="0.3" d="M129.098 67.8222C129.563 67.4198 129.97 66.7875 130.434 65.8678C130.899 65.0056 132.874 63.9709 133.513 62.9362C134.152 61.959 133.92 61.6716 133.92 61.6716C133.92 61.6716 133.978 61.6716 134.21 61.1543C134.385 60.637 134.21 60.407 134.21 60.407C134.21 60.407 134.443 59.8897 134.675 59.1999C134.908 58.5101 134.327 58.5676 134.327 58.5676C134.327 58.5676 134.327 58.5101 134.327 58.4526C133.862 59.6023 132.874 60.9818 132.642 61.7291C132.293 62.7638 130.609 63.741 129.505 64.9481C128.924 65.5804 128.227 66.3852 127.239 67.4198C127.936 67.8222 128.866 68.0521 129.098 67.8222Z" fill="black"/>
<path d="M111.38 71.6159C111.205 73.2254 112.367 74.6624 113.936 74.9499L120.268 75.927C122.127 76.2719 124.044 75.4672 125.148 73.9152L129.563 67.8221C130.434 66.615 130.086 64.948 128.808 64.1432C128.169 63.7409 127.355 63.8558 126.891 64.4307L122.475 69.4891C122.243 69.7765 121.836 69.8914 121.488 69.834L114.865 68.8568C113.181 68.6268 111.554 69.834 111.38 71.6159Z" fill="#F96969"/>
<path opacity="0.1" d="M112.135 71.9609C112.6 70.9837 112.948 70.0065 112.658 69.4317C112.716 69.3742 112.774 69.3742 112.89 69.3167C112.948 69.3167 112.948 69.3167 113.006 69.2593C113.064 69.2018 113.181 69.2018 113.239 69.1443C113.297 69.0868 113.413 69.0868 113.471 69.0293C113.529 69.0293 113.645 68.9718 113.703 68.9718C113.762 68.9718 113.878 68.9144 113.936 68.9144C113.994 68.9144 114.052 68.9144 114.11 68.9144C114.226 68.9144 114.343 68.9144 114.401 68.9144C114.517 68.9144 114.691 68.9144 114.807 68.9718L121.023 69.8341C122.243 70.0065 124.625 70.6963 126.194 68.6844C127.646 66.845 128.053 66.0977 129.563 64.8906C130.202 65.7529 130.202 66.96 129.563 67.8797L125.148 73.9728C124.044 75.5248 122.127 76.2721 120.268 75.9847L113.936 75.0075C112.832 74.835 112.019 74.0877 111.612 73.1106C111.728 72.6507 111.961 72.3058 112.135 71.9609Z" fill="black"/>
<path d="M122.882 64.6605C122.592 66.385 122.94 69.9488 124.625 70.6386C126.31 71.3284 122.65 72.3056 121.139 72.1906C119.629 72.0757 114.226 70.9835 114.981 69.8914C115.737 68.7992 114.981 68.4543 115.62 68.5118C116.26 68.5693 117.538 67.1322 117.654 62.4187C117.712 57.7627 123.231 62.8211 122.882 64.6605Z" fill="#F7B6B2"/>
<path d="M121.837 54.9461C123.637 54.9461 123.696 54.7162 124.741 56.1533C125.09 56.6706 125.555 58.0502 125.322 58.7399C124.916 60.177 125.787 60.9243 125.729 62.2463C125.613 64.0283 125.09 68.5694 119.222 65.1779C116.318 63.5109 120.5 62.6487 121.604 60.5219C122.708 58.4525 120.675 54.9461 121.837 54.9461Z" fill="#F7B6B2"/>
<path d="M123.405 61.6714C123.579 62.4762 124.509 65.1203 125.09 63.2809C125.671 61.4415 125.903 62.0738 125.845 62.5911C125.787 63.1085 125.729 62.7061 125.613 63.2809C125.496 63.8557 125.554 63.9132 125.438 64.3156C125.322 64.7755 126.368 66.4999 125.496 66.7873C124.625 67.0747 122.94 67.1897 122.882 66.0401C122.824 64.8904 123.231 63.051 122.94 61.9014C122.65 60.7517 122.65 60.2344 122.882 60.2344C123.115 60.2919 123.289 61.2691 123.405 61.6714Z" fill="#3E4357"/>
<path opacity="0.2" d="M120.617 72.1331C120.5 72.1331 120.384 72.0757 120.326 72.0757H120.268C120.152 72.0757 120.036 72.0182 119.978 72.0182C119.861 72.0182 119.745 71.9607 119.629 71.9607H119.571C119.455 71.9607 119.338 71.9032 119.164 71.9032C119.048 71.9032 118.874 71.8457 118.758 71.8457C118.641 71.7882 118.467 71.7882 118.351 71.7308C120.5 69.374 120.152 66.04 120.094 63.5683C120.094 62.7636 119.978 61.8439 119.861 60.8092C120.036 60.8667 120.21 60.9816 120.384 61.0966C120.558 61.2116 120.733 61.3265 120.907 61.499C121.023 61.384 121.139 61.269 121.256 61.1541C121.43 60.9816 121.546 60.7517 121.662 60.5793C122.766 58.5099 120.733 55.0035 121.895 55.0035C123.695 55.0035 123.754 54.7736 124.799 56.2106C125.148 56.728 125.613 58.1075 125.38 58.7973C124.974 60.1769 125.729 60.9241 125.787 62.1313C125.903 62.1888 125.903 62.4187 125.903 62.6486C125.845 63.1659 125.787 62.7636 125.671 63.3384C125.671 63.3959 125.671 63.5108 125.613 63.5683C125.554 63.9132 125.613 64.0282 125.496 64.3731C125.38 64.8329 126.426 66.5574 125.554 66.8448C124.799 67.0747 123.347 67.1897 122.998 66.4424C122.94 66.4424 122.94 66.4424 122.882 66.4424C122.94 67.5921 123.173 68.9141 123.754 69.7764C123.754 69.8339 123.812 69.8339 123.812 69.8913C124.044 70.2362 124.335 70.5236 124.683 70.6386C126.368 71.3284 122.708 72.3056 121.197 72.1906C121.139 72.1906 121.081 72.1906 120.965 72.1906H120.907C120.791 72.1906 120.733 72.1906 120.617 72.1331Z" fill="black"/>
<path opacity="0.1" d="M121.953 65.7525C121.895 64.258 123.812 65.7526 124.683 63.6832C125.613 61.5564 124.393 60.5217 124.625 59.1996C124.857 57.82 124.16 57.0153 123.463 55.7507C123.347 55.5208 123.115 55.2333 122.824 55.0034C122.94 55.0034 123.057 55.0034 123.115 55.0034C123.173 55.0034 123.289 55.0034 123.347 55.0034C123.405 55.0034 123.463 55.0609 123.579 55.0609C123.637 55.0609 123.696 55.1184 123.754 55.1759C123.812 55.2333 123.87 55.2908 123.928 55.3483C123.986 55.4058 124.044 55.4633 124.102 55.5782C124.16 55.6357 124.218 55.7507 124.335 55.8656L124.393 55.9231C124.451 56.0381 124.567 56.1531 124.625 56.268C124.974 56.7854 125.438 58.1649 125.206 58.8547C125.148 58.9697 125.148 59.0846 125.148 59.1421C124.916 60.2918 125.613 61.0965 125.613 62.1887C125.729 62.2461 125.729 62.4761 125.729 62.706C125.671 63.2233 125.613 62.821 125.496 63.3958C125.496 63.4533 125.496 63.5682 125.438 63.6257C125.38 63.9706 125.438 64.0856 125.322 64.4305C125.206 64.8903 126.252 66.6148 125.38 66.9022C124.625 67.1321 123.173 67.2471 122.824 66.4998C122.766 66.4998 122.766 66.4998 122.708 66.4998C122.766 67.6495 122.998 68.9715 123.579 69.8338C123.579 69.8913 123.637 69.8913 123.637 69.9487C123.87 70.2936 124.16 70.581 124.509 70.696C124.625 70.7535 124.683 70.7535 124.741 70.811C124.741 70.811 124.799 70.811 124.799 70.8684C124.857 70.9259 124.857 70.9259 124.916 70.9834C124.916 70.9834 124.916 70.9834 124.916 71.0409C124.916 71.0984 124.974 71.0984 124.974 71.1559C124.974 71.2133 124.974 71.2708 124.916 71.2708C124.916 71.2708 124.916 71.2708 124.857 71.3283C124.857 71.3858 124.799 71.3858 124.741 71.4433C124.741 71.4433 124.683 71.4433 124.683 71.5007C124.625 71.5582 124.567 71.5582 124.567 71.6157C124.567 71.6157 124.509 71.6157 124.509 71.6732C124.451 71.7307 124.335 71.7307 124.276 71.7882C124.218 71.7882 124.218 71.8456 124.16 71.8456C124.102 71.8456 124.044 71.9031 123.986 71.9031C123.928 71.9031 123.87 71.9606 123.87 71.9606C123.812 71.9606 123.754 72.0181 123.696 72.0181C123.637 72.0181 123.579 72.0756 123.521 72.0756C123.463 72.0756 123.405 72.0756 123.405 72.1331C123.289 72.1905 123.173 72.1905 123.057 72.248C122.998 72.248 122.998 72.248 122.94 72.248C122.882 72.248 122.766 72.3055 122.708 72.3055C122.65 72.3055 122.65 72.3055 122.592 72.3055C122.534 72.3055 122.417 72.3055 122.359 72.363C122.069 69.6613 122.011 66.6148 121.953 65.7525Z" fill="black"/>
<path d="M120.675 53.624C117.363 53.624 114.517 54.7737 114.517 59.0848C114.517 63.4534 116.724 63.3385 116.957 64.5456C117.363 66.6724 120.5 65.8677 120.791 64.6606C121.081 63.4534 121.023 61.6715 121.837 61.2691C123.289 60.5793 122.592 62.3613 123.231 62.2463C123.812 62.1888 122.882 60.8668 123.696 60.1195C124.857 59.0273 124.044 57.6478 124.16 57.0155C124.218 56.7855 124.451 56.4981 124.741 56.2682C125.613 55.7509 124.044 53.624 120.675 53.624Z" fill="#3E4357"/>
<path opacity="0.2" d="M124.741 56.4408C124.451 56.6707 124.218 56.9581 124.16 57.188C124.044 57.7628 124.857 59.1999 123.696 60.292C122.94 61.0393 123.87 62.3614 123.231 62.4189C122.65 62.4764 123.289 60.7519 121.837 61.4417C121.023 61.8441 121.081 63.626 120.791 64.8331C120.5 66.0402 117.363 66.845 116.957 64.7182C116.783 63.8559 115.563 63.626 114.924 61.9015C116.027 64.0859 119.281 64.6607 119.745 62.4764C120.617 58.3951 119.222 58.74 122.301 55.6935C123.173 54.8313 120.965 54.0265 118.99 53.8541C119.513 53.7966 120.094 53.7391 120.675 53.7391C124.044 53.6241 125.613 55.751 124.741 56.4408Z" fill="black"/>
<path d="M109.927 74.3176C109.927 71.9034 110.508 70.3514 111.554 69.4891C114.226 67.2473 120.675 69.2017 123.637 70.2364C126.252 71.0986 128.75 72.2483 129.737 73.6853V87.6535V95.1836C129.737 97.0805 128.169 98.5175 126.135 98.9199C122.243 99.7821 112.019 98.1727 112.019 93.6891C112.425 90.8724 113.471 86.9062 111.844 82.1352C110.682 78.8012 109.927 76.2145 109.927 74.3176Z" fill="#F96969"/>
<path d="M109.927 74.3176C109.927 71.9034 110.508 70.3514 111.554 69.4891C114.226 67.2473 120.675 69.2017 123.637 70.2364C124.625 70.5813 125.554 70.9262 126.426 71.3286C126.542 71.386 126.658 71.386 126.774 71.4435C128.343 72.0758 130.086 72.9381 132.177 73.283C137.347 74.1452 136.883 80.1808 134.094 79.8359C131.306 79.491 130.434 82.3651 130.144 85.2967C129.97 87.366 129.795 89.4354 129.795 91.2748C129.795 92.8843 129.97 94.9537 129.679 95.8734C129.33 97.4254 127.936 98.575 126.135 98.9199C122.243 99.7821 112.019 98.1727 112.019 93.6891C112.425 90.8724 113.471 86.9062 111.844 82.1352C110.682 78.8012 109.927 76.2145 109.927 74.3176Z" fill="#F96969"/>
<path opacity="0.1" d="M111.554 69.5465C114.226 67.3047 120.675 69.2591 123.637 70.2938C124.625 70.6387 125.554 70.9836 126.426 71.3859C126.542 71.4434 126.658 71.4434 126.774 71.5009C128.343 72.1332 130.086 72.9954 132.177 73.3403C137.347 74.2026 136.883 80.2382 134.094 79.8933C131.306 79.5484 130.434 82.4225 130.144 85.3541C129.969 87.4234 129.795 89.4928 129.795 91.3322C129.795 92.9417 129.969 95.011 129.679 95.9307C129.33 97.4828 127.936 98.6324 126.135 98.9773C125.903 99.0348 125.671 99.0923 125.38 99.0923C125.845 96.3331 126.716 92.4818 125.148 87.9408C124.334 85.584 124.044 80.1232 125.322 76.8467C125.496 76.4444 125.671 76.042 125.845 75.6971C126.484 74.375 126.949 73.1104 125.845 72.5931C124.857 72.1332 123.812 71.6733 122.708 71.3285C119.745 70.3513 113.471 68.4544 110.741 70.5237C110.973 70.1788 111.205 69.7764 111.554 69.5465Z" fill="black"/>
<path d="M117.015 66.7876C116.666 67.4199 116.085 68.3396 115.504 68.5121C115.621 70.6964 121.314 71.6161 124.451 70.5239C123.812 69.9491 123.289 69.0294 123.056 67.8798C119.919 68.7995 117.073 67.4199 117.015 66.7876Z" fill="white"/>
<path d="M149.605 67.8223C149.896 67.4774 149.838 66.2703 149.605 65.0632C149.373 63.856 148.443 62.7639 147.398 63.856C146.352 64.9482 147.456 68.1672 148.211 68.0522C149.024 68.0522 149.14 68.3396 149.605 67.8223Z" fill="#F7B6B2"/>
<path opacity="0.3" d="M149.605 67.8223C149.896 67.4774 149.838 66.2703 149.605 65.0632C149.373 63.856 148.443 62.7639 147.398 63.856C146.352 64.9482 147.456 68.1672 148.211 68.0522C149.024 68.0522 149.14 68.3396 149.605 67.8223Z" fill="black"/>
<path opacity="0.3" d="M147.688 68.4546C147.688 69.4893 146.991 69.8916 146.061 69.3743L127.646 58.8551C126.774 58.3377 126.019 57.1306 126.019 56.0959V44.657C126.019 43.6224 126.716 43.22 127.646 43.7373L146.061 54.2565C146.933 54.7739 147.688 55.981 147.688 57.0157V68.4546Z" fill="white"/>
<path d="M144.551 59.1426C144.551 59.3725 144.377 59.4875 144.144 59.3725L139.613 56.7858C139.381 56.6709 139.206 56.3834 139.206 56.096C139.206 55.8661 139.381 55.7511 139.613 55.8661L144.144 58.4528C144.377 58.6252 144.551 58.9126 144.551 59.1426ZM143.215 56.6134C143.215 56.3834 143.041 56.096 142.808 55.9236L139.613 54.0842C139.381 53.9692 139.206 54.0842 139.206 54.3141C139.206 54.544 139.381 54.8314 139.613 55.0039L142.808 56.8433C143.041 56.9583 143.215 56.8433 143.215 56.6134ZM144.551 60.9245C144.551 61.1544 144.377 61.2694 144.144 61.1544L139.613 58.5678C139.381 58.4528 139.206 58.1654 139.206 57.878C139.206 57.648 139.381 57.5331 139.613 57.648L144.144 60.2347C144.377 60.3497 144.551 60.6371 144.551 60.9245ZM144.551 64.4309C144.551 64.6609 144.377 64.7758 144.144 64.6609L139.613 62.0742C139.381 61.9592 139.206 61.6718 139.206 61.3844C139.206 61.1544 139.381 61.0395 139.613 61.1544L144.144 63.7411C144.377 63.9136 144.551 64.201 144.551 64.4309ZM142.402 61.4419C142.402 61.2119 142.227 60.9245 141.995 60.7521L139.671 59.43C139.439 59.315 139.265 59.43 139.265 59.6599C139.265 59.8898 139.439 60.1773 139.671 60.3497L141.995 61.6718C142.227 61.7867 142.402 61.6718 142.402 61.4419Z" fill="white"/>
<path opacity="0.2" d="M129.156 52.1298C129.156 53.0495 129.447 54.0267 129.911 55.0039C130.028 54.774 130.144 54.5441 130.318 54.3716C130.26 54.3716 130.202 54.4291 130.144 54.4291C130.144 54.4291 130.202 54.4291 130.202 54.3716L130.26 54.3141C130.26 54.3141 130.318 54.3141 130.318 54.2567C130.318 54.2567 130.376 54.2567 130.376 54.1992C130.376 54.1992 130.434 54.1992 130.434 54.1417C130.434 54.1417 130.492 54.1417 130.492 54.0842C130.492 54.0842 130.551 54.0842 130.551 54.0267C130.609 53.9693 130.725 53.9693 130.783 53.9118C130.841 53.9118 130.957 53.8543 131.015 53.8543C131.248 53.7968 131.48 53.8543 131.77 53.9118C131.422 53.4519 131.19 52.8771 131.19 52.3598C131.19 52.0723 131.248 51.8999 131.364 51.7275C131.248 51.7275 131.19 51.7275 131.073 51.7849C131.073 51.7849 131.131 51.7849 131.131 51.7275C131.131 51.7275 131.19 51.7275 131.19 51.67C131.19 51.67 131.248 51.67 131.248 51.6125C131.248 51.6125 131.306 51.6125 131.306 51.555C131.306 51.555 131.364 51.555 131.364 51.4975C131.364 51.4975 131.422 51.4975 131.422 51.44C131.422 51.44 131.48 51.44 131.48 51.3826C131.48 51.3826 131.538 51.3826 131.538 51.3251L132.061 51.0377C132.293 50.9227 132.642 50.9227 132.99 51.1526C133.746 51.555 134.327 52.6472 134.327 53.5094C134.327 54.0267 134.094 54.3716 133.746 54.4291C134.559 55.1764 135.256 56.2111 135.605 57.3032C135.547 57.4182 135.488 57.5331 135.43 57.5906C135.721 57.1882 135.895 56.6134 135.895 55.8662C135.895 53.6818 134.327 50.9802 132.41 49.888C130.725 49.0258 129.156 49.9455 129.156 52.1298Z" fill="black"/>
<path d="M132.642 58.0503C133.746 58.6826 134.733 58.6251 135.372 58.1078C135.024 56.9582 134.327 55.751 133.455 54.9463C133.804 54.8313 134.036 54.5439 134.036 54.0266C134.036 53.1643 133.397 52.1297 132.7 51.6698C131.945 51.2674 131.364 51.6123 131.364 52.4171C131.364 52.9344 131.596 53.5092 131.945 53.9691C131.015 53.7392 130.318 54.0841 130.028 54.8888C130.551 56.2684 131.538 57.418 132.642 58.0503Z" fill="white"/>
<path d="M143.331 70.1213C144.493 68.7417 145.248 68.2818 145.248 67.1897C145.19 66.0975 145.248 66.5574 145.422 66.04C145.539 65.4652 145.713 64.9479 146.178 64.3156C146.642 63.6833 146.759 62.8785 147.165 62.936C147.572 62.9935 147.514 63.4534 147.514 63.6833C147.514 63.9132 147.049 65.0054 147.107 65.0629C147.165 65.1203 147.63 64.8904 148.037 64.6605C148.385 64.488 148.792 64.2006 149.14 63.8557C149.431 64.1431 149.605 64.603 149.721 65.0629C149.954 66.27 150.07 67.5346 149.721 67.822C148.792 68.5693 147.281 69.259 146.875 70.0063C146.352 70.8685 146.468 70.8111 145.422 72.1331C144.9 72.593 142.46 71.0985 143.331 70.1213Z" fill="#F7B6B2"/>
<path opacity="0.3" d="M143.563 71.4435C143.68 71.271 143.796 71.1561 143.912 71.0411C145.016 69.6616 145.655 69.0867 145.829 68.8568C146.294 68.1095 146.468 66.8449 147.398 66.2126C147.63 66.0402 148.559 65.3504 149.431 64.5457V64.6031C149.489 64.7756 149.547 64.8905 149.547 65.063C149.779 66.2701 149.896 67.5347 149.547 67.8221C148.618 68.5694 147.107 69.2592 146.7 70.0064C146.178 70.8687 146.294 70.8112 145.364 72.0183C145.364 72.0758 145.306 72.0758 145.306 72.0758C145.074 72.4207 144.144 72.0183 143.563 71.4435Z" fill="black"/>
<path d="M125.09 75.4096C124.915 77.0191 126.019 78.4562 127.646 78.8011L136.883 80.3531C138.742 80.698 140.659 79.9507 141.762 78.3987L146.236 72.3631C147.107 71.156 146.758 69.489 145.538 68.6843C144.899 68.2819 144.086 68.3968 143.563 68.9717L139.148 74.0301C138.916 74.3175 138.509 74.4325 138.161 74.375L128.633 72.8804C126.89 72.4206 125.264 73.6277 125.09 75.4096Z" fill="#F96969"/>
<path opacity="0.1" d="M125.845 75.7545C126.31 74.7773 126.658 73.8576 126.426 73.2253C126.484 73.1678 126.6 73.1678 126.658 73.1104C126.716 73.1104 126.716 73.0529 126.774 73.0529C126.833 72.9954 126.949 72.9954 127.007 72.9379C127.065 72.8804 127.181 72.8804 127.239 72.8804C127.297 72.8804 127.413 72.8229 127.472 72.8229C127.53 72.8229 127.646 72.7655 127.704 72.7655C127.762 72.7655 127.82 72.7655 127.878 72.7655C127.994 72.7655 128.111 72.7655 128.169 72.7655C128.285 72.7655 128.459 72.7655 128.575 72.8229L137.638 74.26C138.858 74.4324 141.182 75.1222 142.808 73.1678C144.261 71.3859 144.725 70.5811 146.178 69.374C146.759 70.2363 146.817 71.4434 146.178 72.3631L141.704 78.3987C140.601 79.9507 138.684 80.698 136.825 80.3531L127.588 78.8011C126.484 78.5711 125.671 77.8814 125.264 76.9042C125.496 76.4443 125.671 76.0994 125.845 75.7545Z" fill="black"/>
<path d="M129.389 60.0625C129.795 59.43 129.97 58.5675 130.318 58.625C130.725 58.6825 130.667 59.1425 130.667 59.3725C130.667 59.545 130.376 60.35 130.318 60.6949L129.272 60.1775C129.331 60.12 129.331 60.12 129.389 60.0625Z" fill="#F7B6B2"/>
<g opacity="0.05">
<path d="M77.1043 124.154C72.6892 121.625 73.6187 115.187 82.6232 110.013C91.6277 104.84 101.504 105.127 105.977 107.657C110.392 110.186 110.101 116.624 101.039 121.74C91.9762 126.913 81.5194 126.683 77.1043 124.154Z" fill="#1A50B2"/>
</g>
<path d="M92.7316 110.646C92.7316 112.6 92.7316 115.704 92.6735 115.819C92.5573 115.934 92.4411 115.934 92.325 115.819C92.2088 115.704 91.6278 109.553 91.6278 109.553L92.7316 110.646Z" fill="#3E4357"/>
<path opacity="0.3" d="M92.7316 110.646C92.7316 112.6 92.7316 115.704 92.6735 115.819C92.5573 115.934 92.4411 115.934 92.325 115.819C92.2088 115.704 91.6278 109.553 91.6278 109.553L92.7316 110.646Z" fill="black"/>
<path d="M96.5077 111.336C95.9848 110.128 95.6944 109.094 95.5201 108.117C95.3458 107.197 95.462 106.392 95.5201 105.415L95.3458 105.3C95.1134 106.565 92.1507 105.587 92.1507 104.725C92.1507 104.898 92.1507 105.07 92.1507 105.242C92.1507 105.875 92.0926 106.45 91.9764 106.852C91.8021 107.772 91.4536 108.289 91.2212 108.749C91.0469 109.094 91.0469 109.439 91.2793 110.013C92.0926 111.623 93.4868 111.048 94.242 114.037C94.9973 116.969 95.9848 117.429 97.2048 117.831C98.1343 118.118 99.2381 118.233 99.7028 117.774C99.7028 117.716 99.7028 117.659 99.7028 117.544C99.819 116.451 98.1343 115.072 96.5077 111.336ZM95.5201 108.117C95.462 107.944 95.462 107.772 95.462 107.599C95.462 107.772 95.5201 107.944 95.5201 108.117Z" fill="#F7B6B2"/>
<path d="M99.7609 117.314C99.7609 117.199 99.7029 117.141 99.7029 117.084C99.6448 117.026 99.6448 116.911 99.5867 116.854C99.5286 116.739 99.4705 116.681 99.4124 116.566C99.3543 116.452 99.2962 116.394 99.2381 116.279C99.2381 116.279 99.2381 116.279 99.2381 116.222C99.18 116.107 99.1219 116.049 99.0638 115.934L99.0057 115.877C98.9476 115.819 98.8896 115.704 98.8315 115.647C98.7153 115.474 98.5991 115.302 98.4829 115.129C99.7609 117.889 95.6944 115.647 94.8811 113.75C94.1259 111.853 93.6031 111.163 92.7316 110.243C91.8602 109.324 91.3955 108.864 91.5698 108.289C91.4536 108.519 91.3374 108.749 91.2212 108.921C91.0469 109.266 91.0469 109.266 91.2212 108.921C90.8727 109.496 90.6984 109.841 91.105 110.588C91.9764 112.198 93.3126 111.623 94.0678 114.612C94.823 117.544 95.8106 118.004 97.0306 118.406C98.1924 118.751 99.5867 118.866 99.7609 117.946C99.7609 117.889 99.7609 117.831 99.7609 117.716C99.819 117.486 99.819 117.429 99.7609 117.314Z" fill="#3E4357"/>
<path opacity="0.3" d="M97.2628 117.831C96.0429 117.429 95.0553 116.969 94.3001 114.037C93.5448 111.106 92.1506 111.623 91.3373 110.013C91.0468 109.496 91.1049 109.151 91.2792 108.749C90.9306 109.324 90.7564 109.668 91.163 110.416C92.0344 112.025 93.3706 111.45 94.1258 114.439C94.881 117.371 95.8686 117.831 97.0885 118.233C98.2504 118.578 99.6447 118.693 99.8189 117.773C99.2961 118.233 98.1923 118.118 97.2628 117.831Z" fill="black"/>
<path d="M98.1343 66.9596C97.4372 63.6257 95.9848 64.8328 92.7316 66.0399C89.4784 67.247 89.7688 73.685 89.7688 76.5016C89.7688 79.3182 91.6278 82.8246 91.6278 86.7909C91.6278 87.2508 91.6278 87.7681 91.6278 88.3429C91.3955 91.3895 90.466 92.9415 90.466 95.7006C90.466 98.3448 91.6859 100.759 92.0926 103.806C92.0926 104.208 92.1507 104.553 92.1507 104.898C92.2088 105.817 95.3458 106.852 95.5782 105.53C95.6363 104.208 95.8106 102.771 95.9848 101.046C96.4496 96.5628 97.321 87.4807 98.1924 80.4104C99.0638 73.6275 99.0057 71.5007 98.1343 66.9596Z" fill="#3E4357"/>
<path opacity="0.2" d="M99.8191 117.314C99.3543 117.601 98.2505 117.889 96.9144 117.084C95.4621 116.222 95.1135 113.118 93.4869 111.623C91.8022 110.186 93.6031 108.979 93.545 106.507C93.4869 104.093 92.7898 79.8355 94.3002 73.7424C94.3002 73.7424 93.2545 76.3866 89.827 75.9267C89.827 76.0992 89.827 76.3291 89.827 76.5016C89.827 79.3182 91.686 82.8246 91.686 86.7908C91.686 87.2507 91.686 87.768 91.686 88.3429C91.4536 91.3894 90.5241 92.9414 90.5241 95.7006C90.5241 98.3447 91.7441 100.759 92.1507 103.806C92.1507 104.208 92.2088 104.553 92.2088 104.898C92.2088 104.898 92.2088 104.955 92.2088 105.013C92.2088 105.128 92.2088 105.185 92.2088 105.3C92.2088 105.932 92.1507 106.507 92.0345 106.91C91.9764 107.197 91.9184 107.427 91.8603 107.599C91.8022 107.829 91.686 108.002 91.6279 108.174C91.5117 108.404 91.3955 108.634 91.2793 108.806C91.1051 109.151 91.1051 109.151 91.2793 108.806C90.9308 109.381 90.7565 109.726 91.1631 110.473C92.0345 112.083 93.3707 111.508 94.1259 114.497C94.8811 117.429 95.8687 117.889 97.0887 118.291C98.2505 118.636 99.6448 118.751 99.8191 117.831C99.8191 117.774 99.8191 117.716 99.8191 117.601C99.8191 117.486 99.8191 117.429 99.8191 117.314Z" fill="black"/>
<path d="M86.5737 111.048C86.5737 110.531 86.5156 110.014 86.5156 109.381C86.5156 109.266 86.5156 109.151 86.5156 109.094C86.109 109.784 83.9014 109.669 83.669 108.806C83.7271 109.669 83.8433 110.416 83.7271 111.048C83.6109 111.68 83.4948 112.14 83.3786 112.6C83.4367 114.095 84.0757 114.67 84.0757 117.141C84.0757 119.67 83.8433 121.567 87.7356 121.567C88.4327 121.567 88.8974 121.51 89.1298 121.337C89.1298 120.763 88.7813 119.843 88.3165 118.578C87.5032 116.279 86.748 114.899 86.5737 111.048Z" fill="#F7B6B2"/>
<path d="M88.3746 118.521C89.246 121.74 85.0052 118.981 84.7147 117.774C84.4823 116.566 84.2499 115.072 84.0176 114.095C83.7852 113.175 83.669 112.025 83.6109 111.623C83.5528 111.968 83.4366 112.255 83.3785 112.543C83.3785 113.29 83.3785 113.29 83.3785 112.543C83.3205 112.83 83.2624 113.118 83.2624 113.405C83.2624 114.957 83.9595 115.474 83.9595 117.889C83.9595 120.303 83.7271 122.085 87.4451 122.085C88.665 122.085 89.1298 121.797 89.1879 121.223C89.1879 120.705 88.8393 119.785 88.3746 118.521Z" fill="#3E4357"/>
<path opacity="0.3" d="M87.7356 121.51C83.8433 121.51 84.0757 119.671 84.0757 117.084C84.0757 114.612 83.4366 114.038 83.3785 112.543C83.3205 112.83 83.2624 113.118 83.2624 113.405C83.2624 114.957 83.9595 115.475 83.9595 117.889C83.9595 120.303 83.7271 122.085 87.4451 122.085C88.665 122.085 89.1298 121.798 89.1879 121.223C88.8974 121.453 88.4327 121.51 87.7356 121.51Z" fill="black"/>
<path d="M92.1507 68.3392C92.0926 61.1539 88.7813 62.591 86.8642 64.6029C86.8061 64.4879 86.748 64.4304 86.748 64.3154C86.5737 64.7753 86.3995 65.1777 86.1671 65.4651C84.5405 67.5344 82.4491 69.8337 82.9139 77.8812C83.0881 81.1577 83.2624 86.5035 83.3786 91.7918C83.1462 95.0683 82.1586 96.6778 82.1006 99.5519C82.0425 102.311 83.3205 104.783 83.6691 107.944C83.6691 108.404 83.6691 108.749 83.6691 108.864C83.9595 109.784 86.1671 109.956 86.6318 109.209C86.6318 103.806 89.246 92.3667 90.0593 86.2736C91.105 78.3985 92.2669 76.2142 92.1507 68.3392Z" fill="#3E4357"/>
<path d="M85.7024 36.494C85.7024 32.8726 88.2004 29.9985 91.2794 29.9985C94.3583 29.9985 96.8564 32.9301 96.8564 36.494C96.8564 40.1154 94.3583 42.9895 91.2794 42.9895C88.2004 42.9895 85.7024 40.1154 85.7024 36.494Z" fill="#3E4357"/>
<path opacity="0.2" d="M91.1632 39.6555C90.6985 37.8161 90.7566 36.8964 89.2461 35.6318C87.7938 34.4246 89.3623 29.2513 94.5907 31.2631C94.5326 31.2057 94.4164 31.0907 94.3583 31.0332C93.4869 30.3434 92.4413 29.9985 91.2794 29.9985C88.2004 29.9985 85.7024 32.9301 85.7024 36.494C85.7024 40.1154 88.2004 42.9895 91.2794 42.9895C92.267 42.9895 93.1384 42.7021 93.9517 42.1847C92.3832 41.265 91.2794 40.2303 91.1632 39.6555Z" fill="black"/>
<path d="M102.84 67.0171C103.363 67.8218 104.757 69.7762 105.338 70.4085C105.919 71.0408 106.093 71.9605 106.093 72.7653C106.093 73.57 106.035 73.8 105.745 74.3173C105.454 74.8346 105.338 75.122 105.164 75.122C104.989 75.122 104.815 74.8921 104.815 74.8921C104.815 74.8921 104.699 75.2945 104.408 75.2945C104.06 75.2945 104.06 74.8346 104.06 74.8346C104.06 74.8346 103.827 74.9496 103.653 74.7772C103.479 74.6047 103.653 74.1449 103.653 74.1449C103.653 74.1449 103.363 74.2023 103.363 73.8574C103.363 73.5126 103.653 72.9377 103.595 72.5354C103.479 72.133 103.711 72.2479 103.188 71.6731C102.666 71.1558 101.969 70.466 101.736 69.7762C101.504 69.0864 101.678 69.0864 101.097 68.5691C96.6239 64.3729 100.69 67.247 101.155 66.7872C101.446 66.2698 102.259 66.1549 102.84 67.0171Z" fill="#F7B6B2"/>
<path opacity="0.3" d="M104.873 74.2598C105.28 74.6621 105.454 74.4897 105.628 74.2598C105.745 74.0873 105.57 73.7999 105.512 73.7424C105.454 73.6849 105.57 73.57 105.628 73.3401C105.628 73.1101 105.57 73.0526 105.57 72.8227C105.57 72.5928 105.454 72.018 105.28 71.788C105.106 71.5581 104.931 71.0983 104.815 70.8108C104.699 70.5234 104.583 70.6384 104.583 70.9833C104.583 71.3857 104.873 71.6731 105.222 72.4778C105.628 73.2251 105.686 73.5125 105.338 73.7424C104.931 73.9724 104.35 73.0526 104.176 72.6503C104.002 72.2479 103.653 72.1904 103.247 71.788C103.595 72.1329 103.421 72.1329 103.479 72.4778C103.479 72.5928 103.479 72.7078 103.479 72.8227C103.711 72.9952 103.944 73.1676 104.118 73.2826C104.525 73.6275 104.408 73.8574 104.873 74.2598Z" fill="black"/>
<path d="M90.5822 55.923C91.8602 58.3372 92.6155 59.0845 94.6487 61.4412C95.8106 62.8208 98.4829 65.9823 99.5286 67.0745C100.865 68.5115 100.574 67.5918 101.271 68.1666C102.027 68.7989 102.782 69.9486 102.956 69.4312C103.421 67.8217 103.072 67.2469 101.794 65.35C100.516 63.4531 97.0887 57.8774 95.9268 56.4403C94.7649 55.0033 93.7192 54.4284 93.545 53.9686C93.0221 52.4166 92.3831 53.5662 91.5698 53.6237C90.7565 53.7387 90.0013 54.8308 90.5822 55.923Z" fill="#F7B6B2"/>
<path opacity="0.3" d="M103.479 70.5236C102.491 69.8338 101.504 67.9944 100.865 67.3621C100.284 66.7298 98.483 63.7407 95.9269 61.6714C93.3127 59.602 92.4993 57.0154 92.0927 56.3831C91.7441 55.8657 91.6279 54.831 91.5699 53.6814C90.7565 53.7389 90.0013 54.831 90.5823 55.9232C91.8603 58.3374 92.6155 59.0847 94.6488 61.4415C95.8107 62.821 98.483 65.9825 99.5286 67.0747C99.8772 67.4196 100.11 67.6495 100.284 67.7645C100.516 67.9944 100.749 68.1669 100.981 68.4543C101.562 68.9716 101.33 68.9716 101.62 69.6614C101.852 70.3512 102.55 70.9835 103.072 71.5583C103.595 72.0756 103.363 72.0182 103.479 72.4205C103.595 72.8229 103.247 73.3977 103.247 73.7426C103.247 74.0875 103.537 74.03 103.537 74.03C103.537 74.03 103.305 74.4899 103.537 74.6623C103.711 74.8348 103.944 74.7198 103.944 74.7198C103.944 74.7198 104.002 75.1797 104.292 75.1797C104.641 75.1797 104.699 74.7773 104.699 74.7773C104.699 74.7773 104.757 74.8923 104.873 74.9497C104.931 74.8348 105.048 74.7773 105.048 74.6623C105.803 73.3977 104.525 71.2709 103.479 70.5236Z" fill="black"/>
<path d="M88.8393 39.0233C90.1755 40.6328 89.5946 44.5991 87.9679 45.2314C86.2251 45.8637 89.4203 50.9221 93.8935 48.9102C98.3086 46.8983 96.6239 42.8171 94.7068 43.1045C93.8354 43.2195 94.1839 42.6447 94.4163 40.058C94.6487 37.4713 92.964 40.2304 91.8602 40.4604C90.7564 40.6903 88.7232 38.9083 88.8393 39.0233Z" fill="#F7B6B2"/>
<path opacity="0.3" d="M90.524 44.1967C90.6983 42.8171 91.0468 41.9549 90.7564 39.5407C90.7564 39.5407 88.7231 38.9658 88.7812 39.0233C90.1174 40.6328 89.5364 44.5991 87.9098 45.2314C86.5156 45.7487 88.3165 49.1402 91.3954 49.3701C90.9888 48.6228 88.3745 48.1055 88.2003 47.5881C87.7355 45.4613 90.3497 45.5763 90.524 44.1967Z" fill="black"/>
<path d="M101.504 52.1291C100.458 49.0251 99.6447 49.255 99.4704 46.8983C99.2961 44.599 98.1343 42.8745 97.0886 42.8745C96.1591 42.8745 95.2296 42.932 94.3001 43.1044C95.5201 42.8745 96.9724 46.0935 94.0677 47.2431C91.1049 48.3928 88.5488 44.9439 87.5032 45.3462C83.7271 46.7258 82.1005 47.3006 84.8309 52.1866C84.889 52.2441 84.889 52.359 84.947 52.4165C85.0051 52.5315 85.0632 52.6464 85.1213 52.7614C85.2956 53.1063 85.5861 53.5087 85.8765 54.1985C86.3994 55.3481 87.8517 61.0963 86.7479 64.3153C86.9222 64.6602 87.2127 65.0626 87.7936 65.4649C88.5488 66.0398 89.8269 66.8445 91.2211 67.3618C92.9639 68.0516 94.7648 68.454 95.9267 67.7642C96.9724 67.1319 97.6114 66.8445 98.0181 66.3272C97.7276 64.2003 98.9476 62.016 99.238 60.6939C99.5866 59.3144 99.8771 57.4749 100.051 56.7277C100.226 56.0379 102.549 55.1757 101.504 52.1291Z" fill="#F5F7FF"/>
<g opacity="0.1">
<path d="M100.284 56.3255C100.342 56.3255 100.342 56.3255 100.284 56.3255C100.516 56.0956 100.748 55.8656 100.981 55.5782L101.039 55.5207C101.097 55.4633 101.155 55.3483 101.213 55.2908C101.213 55.2333 101.271 55.2333 101.271 55.1758C101.329 55.1184 101.387 55.0034 101.446 54.9459C101.446 54.8884 101.504 54.8309 101.504 54.7735C101.62 54.5435 101.678 54.3136 101.736 53.9687C101.62 54.1986 101.387 54.4861 101.097 54.7735C100.168 55.2333 98.9475 55.6932 97.379 56.153C92.3249 57.5901 91.0468 56.3255 90.1173 54.3136C89.4783 52.8766 88.8974 51.382 87.8517 49.7151C86.9222 47.8181 85.4699 47.4733 87.445 46.4386C87.7936 46.2661 88.2584 46.0362 88.7812 45.7488C88.2003 45.4039 87.7355 45.174 87.445 45.2889C86.4575 45.6338 85.6442 45.9212 85.0051 46.2661C84.8889 46.3236 84.7727 46.3811 84.6566 46.4386C84.5985 46.4961 84.5404 46.4961 84.4823 46.5535C84.4242 46.611 84.3661 46.6685 84.308 46.6685C84.2499 46.726 84.1918 46.726 84.1918 46.7835C84.1337 46.841 84.0175 46.9559 83.9594 47.0134C83.088 47.9331 83.2042 49.3127 84.7727 52.1293C84.8308 52.1868 84.8308 52.3017 84.8889 52.3592C84.947 52.4742 85.0051 52.5892 85.0632 52.7041C85.2375 53.049 85.528 53.4514 85.8184 54.1412C86.3413 55.2908 87.7936 61.039 86.6898 64.258C86.8641 64.6029 87.1546 65.0053 87.7355 65.4076C88.2584 65.81 88.9555 66.2699 89.7688 66.6722C89.885 65.81 89.8269 65.5226 89.8269 65.4651C89.8269 65.3502 89.8269 65.1777 89.8269 65.0627V65.0053C90.0012 62.2461 90.1754 59.9468 92.5573 59.1421C94.8229 58.3948 98.1923 57.7051 99.7609 57.4751C99.8189 57.0728 99.877 56.7853 99.9351 56.5554C99.9351 56.4979 99.9932 56.4404 100.051 56.383L100.109 56.3255C100.226 56.4404 100.226 56.383 100.284 56.3255Z" fill="#1A50B2"/>
</g>
<path opacity="0.3" d="M94.4163 43.1048C94.4744 43.1048 94.4744 43.1048 94.5325 43.1048C94.5906 43.1048 94.5906 43.1048 94.6487 43.1048C94.7068 43.1048 94.7068 43.1048 94.7649 43.1624C94.9392 43.2199 95.0554 43.335 95.2296 43.5076C96.1591 43.335 97.1467 43.2199 98.0762 43.2774C97.7858 42.9897 97.4372 42.8171 97.1467 42.8171C96.9144 42.8171 96.682 42.8171 96.4496 42.8171C95.7525 42.8747 95.0554 42.9322 94.3582 43.0473C94.3582 43.1048 94.3582 43.1048 94.4163 43.1048Z" fill="black"/>
<path d="M93.9514 40.9202C96.5656 43.2195 98.5989 44.8865 98.4827 48.1054C98.3665 51.3244 98.7151 51.8418 99.0055 52.704C99.296 53.5662 96.9142 52.4166 94.6485 50.0024C92.3829 47.5881 96.798 45.6912 93.719 42.6447C90.6401 39.6556 92.5572 39.7131 93.9514 40.9202Z" fill="#3E4357"/>
<path opacity="0.2" d="M93.7192 42.7021C96.7981 45.7487 92.383 47.6456 94.6487 50.0598C96.9143 52.4741 99.2962 53.5662 99.0057 52.7615C98.8314 52.3016 98.6571 51.8992 98.541 51.0945C98.2505 51.4394 97.7857 50.7496 97.2629 50.4622C96.5077 50.0598 95.7525 48.6228 95.8106 46.7833C95.9267 45.0014 95.6363 44.599 94.3582 43.2195C93.6611 42.4722 93.8935 41.8974 92.6735 40.2304C91.8602 40.0005 91.5697 40.5753 93.7192 42.7021Z" fill="black"/>
<path opacity="0.2" d="M87.0966 121.108C84.3662 121.05 85.2376 118.521 84.9471 117.026C84.7148 115.589 84.5986 113.405 84.9471 111.278C85.2957 109.151 85.0633 82.4223 85.8766 77.9387C86.6899 73.4551 89.4784 68.6266 89.7108 67.247C89.7689 67.0746 89.7689 66.9596 89.7689 66.7872C88.9556 66.3848 88.2004 65.9249 87.7356 65.5226C87.329 65.1777 87.0385 64.8902 86.8642 64.6028C86.8061 64.4879 86.748 64.4304 86.748 64.3154C86.5737 64.7753 86.3995 65.1777 86.1671 65.4651C84.5405 67.5344 82.4491 69.8337 82.9139 77.8812C83.0881 81.1577 83.2624 86.5035 83.3786 91.7918C83.1462 95.0683 82.1586 96.6778 82.1006 99.5519C82.0425 102.311 83.3205 104.783 83.6691 107.944C83.6691 108.404 83.6691 108.749 83.6691 108.864C83.6691 108.921 83.7272 108.979 83.7272 109.036C83.7853 109.554 83.8434 110.071 83.7853 110.531V110.588C83.7853 110.761 83.7853 110.876 83.7272 111.048C83.6691 111.278 83.611 111.508 83.5529 111.738C83.5529 111.796 83.4948 111.853 83.4948 111.911C83.4948 111.968 83.4367 112.083 83.4367 112.14C83.3786 112.313 83.3786 112.428 83.3205 112.543C83.3205 113.29 83.3205 113.29 83.3205 112.543C83.2624 112.83 83.2043 113.118 83.2043 113.405C83.2043 114.957 83.9014 115.474 83.9014 117.889C83.9014 120.303 83.6691 122.085 87.387 122.085C88.607 122.085 89.0718 121.797 89.1299 121.223C89.1299 121.165 89.1299 121.05 89.1299 120.993C88.7813 121.165 88.2004 121.108 87.0966 121.108Z" fill="black"/>
<path d="M95.8685 35.5167C95.6943 34.712 94.2419 34.0797 93.3705 35.1718C92.2086 36.6089 92.1506 37.2412 90.7563 38.7932C90.6401 38.9082 90.5239 39.0806 90.4078 39.1381C90.4078 39.0231 90.3497 38.9082 90.3497 38.7357C90.1173 37.931 89.4783 37.3561 88.8973 37.5286C88.3164 37.701 88.084 38.4483 88.2583 39.3105C88.3745 39.7704 88.6069 40.1153 88.8973 40.3452C89.8268 41.8397 90.9887 42.8169 92.6153 43.5067C94.9971 44.4839 96.159 41.6673 96.159 38.9082C96.2171 37.4711 96.1009 36.379 95.8685 35.5167Z" fill="#F7B6B2"/>
<path opacity="0.3" d="M91.3954 40.8628C91.2211 39.6557 90.8725 38.736 90.8144 38.851C90.6982 38.9659 90.582 39.1384 90.4659 39.1959C90.4659 39.0809 90.4078 38.9659 90.4078 38.7935C90.1754 37.9887 89.5364 37.4139 88.9554 37.5864C88.5488 37.7013 88.2583 38.1612 88.2583 38.736C88.2583 38.9084 88.2583 39.0809 88.3164 39.3108C88.4326 39.7707 88.665 40.1156 88.9554 40.3455C89.0135 40.4605 89.0716 40.5754 89.1297 40.6904C90.0592 42.0125 91.163 42.9897 92.6734 43.5645C93.2543 43.7944 93.7191 43.7944 94.1838 43.6794C92.9058 43.9669 91.5696 42.0125 91.3954 40.8628Z" fill="black"/>
<path d="M86.5156 50.0026C86.5156 48.2206 85.7604 46.7261 84.7728 46.7261C83.7852 46.7261 83.03 48.1631 83.03 50.0026C83.03 51.7845 83.7852 53.279 84.7728 53.279C85.7604 53.279 86.5156 51.7845 86.5156 50.0026Z" fill="#F5F7FF"/>
<path d="M83.7851 79.4332C83.8432 79.7781 84.7727 80.3529 85.7022 80.7553C86.6317 81.1577 87.8517 81.0427 87.6193 79.8356C87.3869 78.6285 84.5984 77.7662 84.2499 78.3411C83.9594 78.9734 83.6689 78.8584 83.7851 79.4332Z" fill="#F7B6B2"/>
<path opacity="0.3" d="M83.7851 79.4332C83.8432 79.7781 84.7727 80.3529 85.7022 80.7553C86.6317 81.1577 87.8517 81.0427 87.6193 79.8356C87.3869 78.6285 84.5984 77.7662 84.2499 78.3411C83.9594 78.9734 83.6689 78.8584 83.7851 79.4332Z" fill="black"/>
<path opacity="0.3" d="M96.4496 83.8018C96.4496 84.8365 95.7525 85.2389 94.823 84.7215L76.4073 74.2023C75.5359 73.685 74.7807 72.4779 74.7807 71.4432V63.5682C74.7807 62.5335 75.4779 62.1311 76.4073 62.6484L94.823 73.1677C95.6944 73.685 96.4496 74.8921 96.4496 75.9268V83.8018Z" fill="white"/>
<path d="M93.3706 76.6167C93.3706 76.8466 93.1963 76.9615 92.9639 76.8466L78.3825 68.5117C78.1501 68.3967 77.9758 68.1093 77.9758 67.8219C77.9758 67.592 78.1501 67.477 78.3825 67.592L92.9639 75.9269C93.1963 76.0993 93.3706 76.3867 93.3706 76.6167ZM90.6983 78.6285C90.6983 78.8584 90.524 78.9734 90.2916 78.8584L78.3825 72.0181C78.1501 71.9031 77.9758 71.6157 77.9758 71.3283C77.9758 71.0984 78.1501 70.9834 78.3825 71.0984L90.2916 77.9387C90.524 78.0537 90.6983 78.3411 90.6983 78.6285ZM88.026 75.2946C88.026 75.0646 87.8517 74.7772 87.6193 74.6623L78.3825 69.3739C78.1501 69.259 77.9758 69.3739 77.9758 69.6038C77.9758 69.8338 78.1501 70.1212 78.3825 70.2936L87.6193 75.582C87.8517 75.6395 88.026 75.582 88.026 75.2946Z" fill="white"/>
<path d="M85.2957 74.0297C85.6442 75.4667 85.5861 76.214 86.3995 76.7313C87.2128 77.2487 86.8061 77.0762 87.1547 77.4211C87.5032 77.766 87.7937 78.1684 87.968 78.8007C88.2003 79.433 88.6651 79.8928 88.4327 80.1802C88.2004 80.4102 87.9099 80.1802 87.7356 80.0653C87.5613 79.9503 87.0385 79.0881 86.9804 79.0881C86.9223 79.0881 86.8642 79.5479 86.8061 79.8928C86.748 80.2377 86.748 80.6401 86.8061 81.0425C86.4575 81.0999 86.0509 80.985 85.7023 80.8125C84.7728 80.4102 83.8433 79.8353 83.7853 79.4905C83.7272 78.5133 83.9595 77.0762 83.6691 76.5014C83.3205 75.6966 83.3205 75.8691 82.9138 74.4895C82.7977 73.9147 85.0052 72.9375 85.2957 74.0297Z" fill="#F7B6B2"/>
<path opacity="0.3" d="M83.8432 73.6274C83.4365 73.7424 83.8432 73.6274 83.8432 73.6274C83.9013 73.7999 84.8308 76.0992 84.9469 76.3291C85.2374 77.0189 85.9926 77.0764 86.0507 78.6859C86.0507 78.9733 86.1088 79.893 86.225 80.9277H86.1669C86.0507 80.8702 85.8764 80.8702 85.7603 80.8127C84.8308 80.4103 83.9013 79.8355 83.8432 79.4906C83.7851 78.5134 84.0174 77.0764 83.727 76.5015C83.3784 75.7543 83.3784 75.8118 82.9718 74.5472C82.9718 74.4897 82.9718 74.4897 82.9718 74.4897C82.8556 74.0873 83.146 73.7424 83.8432 73.6274Z" fill="black"/>
<path d="M79.1959 63.5105C79.5445 65.8673 79.893 66.7295 80.8806 69.2587C81.4035 70.6958 82.6815 73.9723 83.2044 75.2369C83.6691 76.3865 83.9015 76.0416 84.2501 76.7889C84.6567 77.5361 84.9472 78.7433 85.2376 78.3409C86.109 77.1913 85.9929 76.5589 85.47 74.662C85.0053 72.7651 83.9015 67.1319 83.3786 65.6374C82.8558 64.1428 82.1587 63.3381 82.1587 62.8782C82.2168 61.4412 81.3454 62.1884 80.6483 62.016C80.0092 61.7286 79.0216 62.3609 79.1959 63.5105Z" fill="#F7B6B2"/>
<path opacity="0.3" d="M84.25 76.674C84.6566 77.4213 84.9471 78.6284 85.2376 78.226C85.4699 77.9386 85.6442 77.6512 85.7604 77.3638C85.47 76.7315 84.889 76.1567 84.6566 75.6393C84.3662 74.9495 80.4739 64.8902 80.2996 64.2579C80.1834 63.7405 80.4158 62.8208 80.6482 61.9011C80.5901 61.9011 80.5901 61.9011 80.532 61.9011C80.4739 61.9011 80.4158 61.9011 80.3577 61.9011C80.2996 61.9011 80.2996 61.9011 80.2415 61.9011C80.1835 61.9011 80.1254 61.9011 80.0673 61.9011C80.0092 61.9011 79.9511 61.9586 79.893 61.9586C79.8349 61.9586 79.8349 61.9586 79.7768 62.0161C79.7187 62.0736 79.6025 62.1311 79.5444 62.1885C79.2539 62.4759 79.0216 62.8783 79.1378 63.4531C79.4863 65.8099 79.8349 66.6721 80.8225 69.2013C81.3453 70.6384 82.6234 73.9149 83.1462 75.1795C83.2043 75.2944 83.2624 75.4094 83.2624 75.4669C83.3205 75.5244 83.3205 75.6393 83.3786 75.6968C83.7271 76.2141 83.9595 76.1567 84.25 76.674Z" fill="black"/>
<path d="M84.3661 46.8983C82.6814 47.7606 82.3328 48.4503 81.81 50.5197C81.2291 52.589 79.7767 60.0617 79.3701 61.8437C78.9634 63.6256 79.1377 64.2579 80.59 64.3154C81.3453 64.3729 82.3909 63.9705 82.7395 62.9933C83.0881 62.0736 84.308 58.2223 84.5985 57.0726C85.2375 54.6584 85.8185 51.267 85.4118 48.9102C84.947 46.6109 84.5985 46.7834 84.3661 46.8983Z" fill="#F5F7FF"/>
<g opacity="0.1">
<path d="M86.5155 50.0026C86.5155 49.0828 86.3413 48.2781 85.9927 47.7033C85.9927 47.6458 85.9346 47.6458 85.9346 47.5883C85.8765 47.4733 85.8184 47.4159 85.7603 47.3009C85.7603 47.3009 85.7603 47.3009 85.7022 47.2434C85.6441 47.1284 85.528 47.071 85.4699 46.956C85.4699 46.956 85.4699 46.956 85.4118 46.956C85.2956 46.8985 85.2375 46.841 85.1213 46.7836C85.0051 46.7261 84.8889 46.7261 84.7727 46.7261C84.4823 46.7261 84.2499 46.841 84.0175 47.071C83.8433 47.1859 83.7271 47.2434 83.6109 47.3584C83.5528 47.3584 83.5528 47.4159 83.4947 47.4159C83.3785 47.4733 83.3204 47.5308 83.2623 47.5883C83.2042 47.6458 83.2042 47.6458 83.1461 47.7033C83.088 47.7608 82.9718 47.8757 82.9138 47.9332L82.8557 47.9907C82.7976 48.1056 82.6814 48.2206 82.6233 48.2781C82.5652 48.3356 82.5652 48.3931 82.5071 48.4505C82.449 48.508 82.449 48.5655 82.3909 48.6805C82.3328 48.7379 82.3328 48.7954 82.2747 48.8529C82.2166 48.9104 82.2166 49.0254 82.1585 49.0828C81.9843 49.4852 81.8681 49.9451 81.6938 50.4624C81.1129 52.5318 79.6605 60.0044 79.2539 61.7864C79.1958 62.0163 79.1377 62.1887 79.1377 62.3612C79.1377 62.4761 79.0796 62.6486 79.0796 62.7636C79.0796 62.821 79.0796 62.821 79.0796 62.8785C79.0796 62.9935 79.0796 63.1084 79.0796 63.2234V63.2809C79.0796 63.3959 79.1377 63.5108 79.1377 63.5683C79.1377 63.5683 79.1377 63.5683 79.1377 63.6258C79.1958 63.7407 79.1958 63.7982 79.2539 63.8557C79.312 63.9132 79.3701 63.9707 79.4862 64.0282C79.5443 64.0856 79.6605 64.1431 79.7767 64.1431C79.8929 64.2006 80.0091 64.2006 80.1834 64.2006C80.5319 63.2234 80.7643 61.6714 80.9967 60.4643C81.4614 58.4524 82.3909 52.9916 83.088 50.4049C83.3204 49.5427 83.6109 49.0254 84.0175 48.623C85.1794 47.7033 87.0384 49.3702 86.0508 52.0144C86.3994 51.4971 86.5155 50.7498 86.5155 50.0026Z" fill="#1A50B2"/>
</g>
<path opacity="0.3" d="M115.562 22.7558L77.8016 1.14259C76.9302 0.625251 76.175 1.02763 76.175 2.0623V12.4665C76.175 13.5012 76.8721 14.7083 77.8016 15.2257L115.562 36.7814C116.434 37.2988 117.189 36.8964 117.189 35.8617V25.515C117.189 24.5378 116.434 23.2732 115.562 22.7558Z" fill="white"/>
<path d="M88.8392 11.0871C88.6069 10.9721 88.4326 11.0871 88.4326 11.317V17.3526C88.4326 17.5825 88.6069 17.87 88.8392 18.0424C89.0716 18.1574 89.2459 18.0424 89.2459 17.8125V11.7769C89.2459 11.5469 89.0716 11.202 88.8392 11.0871ZM91.9763 14.0761C91.7439 13.9612 91.5696 14.0761 91.5696 14.3061V17.87C91.5696 18.0999 91.7439 18.3873 91.9763 18.5023C92.2087 18.6172 92.3829 18.5023 92.3829 18.2723V14.7659C92.3248 14.536 92.1506 14.2486 91.9763 14.0761ZM90.4078 13.8462C90.1754 13.7312 90.0011 13.8462 90.0011 14.0761V16.4329C90.0011 16.6628 90.1754 16.9502 90.4078 17.1227C90.6401 17.2377 90.8144 17.1227 90.8144 16.8928V14.536C90.8144 14.2486 90.6401 13.9612 90.4078 13.8462ZM93.4867 13.7313C93.2543 13.6163 93.0801 13.7312 93.0801 13.9612V19.9968C93.0801 20.2267 93.2543 20.5141 93.4867 20.6866C93.7191 20.8015 93.8934 20.6866 93.8934 20.4566V14.421C93.8934 14.1911 93.7191 13.9037 93.4867 13.7313ZM96.5657 16.7203C96.3333 16.6053 96.159 16.7203 96.159 16.9502V20.5141C96.159 20.7441 96.3333 21.0315 96.5657 21.1464C96.798 21.2614 96.9723 21.1464 96.9723 20.9165V17.3526C96.9723 17.1802 96.798 16.8928 96.5657 16.7203ZM95.0552 17.0652C94.8229 16.9502 94.6486 17.0652 94.6486 17.2951V18.3873C94.6486 18.6172 94.8229 18.9046 95.0552 19.0771C95.2876 19.192 95.4619 19.0771 95.4619 18.8471V17.755C95.4619 17.5251 95.2876 17.2377 95.0552 17.0652ZM98.1342 18.8471C97.9018 18.7322 97.7275 18.8471 97.7275 19.0771V20.1692C97.7275 20.3992 97.9018 20.6866 98.1342 20.859C98.3666 20.974 98.5408 20.859 98.5408 20.6291V19.5369C98.5408 19.2495 98.3666 18.9621 98.1342 18.8471ZM101.213 19.9968C100.981 19.8818 100.806 19.9968 100.806 20.2267V22.5835C100.806 22.8134 100.981 23.1008 101.213 23.2158C101.446 23.3307 101.62 23.2158 101.62 22.9859V20.6291C101.62 20.3992 101.446 20.1117 101.213 19.9968ZM99.7027 19.7669C99.4703 19.6519 99.2961 19.7669 99.2961 19.9968V21.0889C99.2961 21.3189 99.4703 21.6063 99.7027 21.7787C99.9351 21.8937 100.109 21.7787 100.109 21.5488V20.4566C100.051 20.1692 99.877 19.8818 99.7027 19.7669ZM102.782 19.6519C102.549 19.5369 102.375 19.6519 102.375 19.8818V24.6528C102.375 24.8828 102.549 25.1702 102.782 25.2851C103.014 25.4001 103.188 25.2851 103.188 25.0552V20.2842C103.188 20.1117 103.014 19.7669 102.782 19.6519ZM105.861 23.2733C105.628 23.1583 105.454 23.2733 105.454 23.5032V24.5953C105.454 24.8253 105.628 25.1127 105.861 25.2851C106.093 25.4001 106.267 25.2851 106.267 25.0552V23.963C106.267 23.6756 106.093 23.3882 105.861 23.2733ZM104.292 21.1464C104.06 21.0315 103.885 21.1464 103.885 21.3764V24.9402C103.885 25.1702 104.06 25.4576 104.292 25.63C104.524 25.745 104.699 25.63 104.699 25.4001V21.8362C104.699 21.6063 104.524 21.2614 104.292 21.1464ZM108.94 24.4229C108.707 24.3079 108.533 24.4229 108.533 24.6528V27.0096C108.533 27.2395 108.707 27.5269 108.94 27.6994C109.172 27.8143 109.346 27.6994 109.346 27.4694V25.1127C109.346 24.8253 109.172 24.5379 108.94 24.4229ZM107.429 21.7212C107.197 21.6063 107.022 21.7212 107.022 21.9512V27.9868C107.022 28.2167 107.197 28.5041 107.429 28.6766C107.662 28.7915 107.836 28.6766 107.836 28.4466V22.3535C107.778 22.1236 107.603 21.8362 107.429 21.7212ZM110.508 24.078C110.276 23.963 110.101 24.078 110.101 24.3079V29.0789C110.101 29.3089 110.276 29.5963 110.508 29.7687C110.74 29.8837 110.915 29.7687 110.915 29.5388V24.7678C110.915 24.4804 110.74 24.193 110.508 24.078ZM113.587 26.4348C113.355 26.3198 113.18 26.4348 113.18 26.6647V30.2286C113.18 30.4585 113.355 30.7459 113.587 30.9184C113.819 31.0333 113.994 30.9184 113.994 30.6884V27.1246C113.994 26.8946 113.819 26.6072 113.587 26.4348ZM112.077 26.7797C111.844 26.6647 111.67 26.7797 111.67 27.0096V28.1017C111.67 28.3317 111.844 28.6191 112.077 28.7915C112.309 28.9065 112.483 28.7915 112.483 28.5616V27.4694C112.425 27.2395 112.251 26.9521 112.077 26.7797ZM82.3328 7.35075C80.6481 6.37355 79.3119 7.1783 79.3119 9.07521C79.3119 10.9721 80.6481 13.2714 82.3328 14.2486C84.0175 15.2258 85.3536 14.421 85.3536 12.5241C85.3536 10.6272 83.9594 8.32794 82.3328 7.35075ZM83.727 11.8343L81.5776 12.0068C81.5195 12.0068 81.5195 12.0068 81.4614 12.0068C81.4033 12.0068 81.4033 11.9493 81.3452 11.8918C81.2871 11.8343 81.229 11.7194 81.229 11.6044V8.73032C81.229 8.61535 81.2871 8.55787 81.3452 8.55787C81.4033 8.55787 81.5195 8.61535 81.5776 8.67283L83.727 11.317C83.7851 11.3745 83.8432 11.4895 83.8432 11.6044C83.8432 11.7769 83.8432 11.8343 83.727 11.8343Z" fill="white"/>
<path opacity="0.3" d="M177.606 99.3796C177.606 100.414 176.909 100.817 175.979 100.299L157.564 89.7801C156.692 89.2627 155.937 88.0556 155.937 87.0209V61.4415C155.937 60.4068 156.634 60.0044 157.564 60.5217L175.979 71.0409C176.851 71.5583 177.606 72.7654 177.606 73.8001V99.3796Z" fill="white"/>
<path opacity="0.2" d="M159.597 68.6266C159.597 69.5464 159.888 70.5236 160.352 71.5007C160.468 71.2708 160.585 71.0409 160.759 70.8684C160.701 70.8684 160.643 70.9259 160.585 70.9259L160.643 70.8684C160.643 70.8684 160.701 70.8684 160.701 70.811C160.701 70.811 160.759 70.811 160.759 70.7535C160.759 70.7535 160.817 70.7535 160.817 70.696C160.817 70.696 160.875 70.696 160.875 70.6385C160.875 70.6385 160.933 70.6385 160.933 70.581C160.933 70.581 160.991 70.581 160.991 70.5236C161.049 70.4661 161.166 70.4661 161.224 70.4086C161.282 70.4086 161.398 70.3511 161.456 70.3511C161.688 70.2936 161.921 70.3511 162.211 70.4086C161.863 69.9487 161.63 69.3739 161.63 68.8566C161.63 68.5692 161.688 68.3967 161.805 68.2243C161.688 68.2243 161.63 68.2243 161.514 68.2818C161.514 68.2818 161.572 68.2818 161.572 68.2243C161.572 68.2243 161.63 68.2243 161.63 68.1668C161.63 68.1668 161.688 68.1668 161.688 68.1093C161.688 68.1093 161.746 68.1093 161.746 68.0518C161.746 68.0518 161.805 68.0518 161.805 67.9943C161.805 67.9943 161.863 67.9943 161.863 67.9369C161.863 67.9369 161.921 67.9369 161.921 67.8794C161.921 67.8794 161.979 67.8794 161.979 67.8219L162.502 67.5345C162.734 67.4195 163.083 67.4195 163.431 67.6495C164.186 68.0518 164.767 69.144 164.767 70.0062C164.767 70.5236 164.535 70.8684 164.186 70.9259C165 71.6732 165.697 72.7079 166.045 73.8C165.987 73.915 165.929 74.03 165.871 74.1449C166.162 73.7426 166.336 73.1677 166.336 72.4205C166.336 70.2361 164.767 67.5345 162.85 66.4423C161.166 65.5226 159.597 66.4423 159.597 68.6266Z" fill="black"/>
<path d="M162.56 74.8923C163.664 75.5246 164.651 75.4671 165.29 74.9498C164.942 73.8001 164.245 72.593 163.373 71.7882C163.722 71.6733 163.954 71.3859 163.954 70.8685C163.954 70.0063 163.315 68.9716 162.618 68.5118C161.863 68.1094 161.282 68.4543 161.282 69.3165C161.282 69.8339 161.514 70.4087 161.863 70.8685C160.933 70.6386 160.236 70.9835 159.946 71.7882C160.468 73.0528 161.456 74.26 162.56 74.8923Z" fill="white"/>
<path d="M174.469 75.927C174.469 76.1569 174.295 76.2719 174.062 76.1569L169.531 73.5702C169.299 73.4553 169.124 73.1679 169.124 72.8805C169.124 72.6505 169.299 72.5356 169.531 72.6505L174.062 75.2372C174.295 75.4097 174.469 75.6971 174.469 75.927ZM173.133 73.3978C173.133 73.1679 172.959 72.8805 172.726 72.708L169.531 70.8686C169.299 70.7536 169.124 70.8686 169.124 71.0985C169.124 71.3284 169.299 71.6159 169.531 71.7883L172.726 73.6277C172.959 73.7427 173.133 73.6852 173.133 73.3978ZM174.469 77.7089C174.469 77.9389 174.295 78.0538 174.062 77.9389L169.531 75.3522C169.299 75.2372 169.124 74.9498 169.124 74.6624C169.124 74.4325 169.299 74.3175 169.531 74.4325L174.062 77.0192C174.295 77.1916 174.469 77.479 174.469 77.7089ZM174.469 81.2154C174.469 81.4453 174.295 81.5602 174.062 81.4453L169.531 78.8586C169.299 78.7436 169.124 78.4562 169.124 78.1688C169.124 77.9389 169.299 77.8239 169.531 77.9389L174.062 80.5256C174.295 80.698 174.469 80.9854 174.469 81.2154ZM172.261 78.2263C172.261 77.9964 172.087 77.7089 171.855 77.5365L169.531 76.2144C169.299 76.0994 169.124 76.2144 169.124 76.4443C169.124 76.6743 169.299 76.9617 169.531 77.1341L171.855 78.4562C172.145 78.5712 172.32 78.4562 172.261 78.2263ZM174.469 85.6989C174.469 85.9289 174.295 86.0438 174.062 85.9289L159.481 77.594C159.249 77.479 159.074 77.1916 159.074 76.9042C159.074 76.6743 159.249 76.5593 159.481 76.6743L174.062 85.0092C174.295 85.1241 174.469 85.4115 174.469 85.6989ZM171.797 87.6533C171.797 87.8833 171.622 87.9982 171.39 87.8833L159.481 81.1004C159.249 80.9854 159.074 80.698 159.074 80.4106C159.074 80.1807 159.249 80.0657 159.481 80.1807L171.39 87.021C171.622 87.136 171.797 87.4234 171.797 87.6533ZM169.066 84.3769C169.066 84.1469 168.892 83.8595 168.66 83.7446L159.423 78.4562C159.19 78.3412 159.016 78.4562 159.016 78.6861C159.016 78.9161 159.19 79.2035 159.423 79.3759L168.66 84.6643C168.892 84.7218 169.066 84.6068 169.066 84.3769ZM174.469 91.8495C174.469 92.0794 174.295 92.1944 174.062 92.0794L159.481 83.7446C159.249 83.6296 159.074 83.3422 159.074 83.0548C159.074 82.8248 159.249 82.7099 159.481 82.8248L174.062 91.1597C174.295 91.3322 174.469 91.6196 174.469 91.8495ZM171.797 93.8614C171.797 94.0913 171.622 94.2063 171.39 94.0913L159.481 87.251C159.249 87.136 159.074 86.8486 159.074 86.5612C159.074 86.3312 159.249 86.2163 159.481 86.3312L171.39 93.1141C171.622 93.2866 171.797 93.574 171.797 93.8614ZM169.066 90.5274C169.066 90.2975 168.892 90.0101 168.66 89.8951L159.423 84.6068C159.19 84.4918 159.016 84.6068 159.016 84.8367C159.016 85.0666 159.19 85.3541 159.423 85.5265L168.66 90.8148C168.892 90.8723 169.066 90.8148 169.066 90.5274Z" fill="white"/>
<path d="M114.4 154.217L97.3209 144.445L98.0181 142.663C98.1923 142.146 98.3666 141.744 97.4952 141.226L84.5404 133.811C84.0175 133.524 83.1461 133.524 82.6233 133.811L79.7186 135.478L74.7807 138.295L59.6764 146.917C59.1536 147.205 59.1536 147.722 59.6764 148.009L92.4411 166.748C92.9639 167.036 93.8353 167.036 94.3582 166.748L114.4 155.31C114.981 155.022 114.981 154.562 114.4 154.217Z" fill="#BBEDA4"/>
<path opacity="0.2" d="M114.4 154.217L97.3209 144.445L98.0181 142.663C98.1923 142.146 98.3666 141.744 97.4952 141.226L84.5404 133.811C84.0175 133.524 83.1461 133.524 82.6233 133.811L79.7186 135.478L74.7807 138.295L59.6764 146.917C59.1536 147.205 59.1536 147.722 59.6764 148.009L92.4411 166.748C92.9639 167.036 93.8353 167.036 94.3582 166.748L114.4 155.31C114.981 155.022 114.981 154.562 114.4 154.217Z" fill="black"/>
<path d="M96.682 163.932L64.6725 145.652L83.2043 135.076L115.214 153.355L96.682 163.932Z" fill="#E3E7FA"/>
<path d="M94.4162 166.806C93.8933 167.093 93.0219 167.093 92.4991 166.806L59.7344 148.067C59.2116 147.779 59.2116 147.262 59.7344 146.975L79.7766 135.536C80.2995 135.248 81.1709 135.248 81.6937 135.536L114.458 154.275C114.981 154.562 114.981 155.08 114.458 155.367L94.4162 166.806Z" fill="#BBEDA4"/>
<path d="M107.778 153.47L89.1878 144.618L89.5945 142.778C89.7107 142.261 89.7688 141.859 88.8393 141.399L74.7226 134.673C74.1416 134.386 73.2702 134.443 72.8055 134.788L70.1913 136.57L65.7762 139.617L52.1242 148.986C51.6595 149.331 51.7176 149.791 52.2985 150.078L87.9679 167.036C88.5488 167.323 89.4202 167.266 89.885 166.921L108.01 154.505C108.417 154.275 108.359 153.757 107.778 153.47Z" fill="#E3E7FA"/>
<g opacity="0.1">
<path d="M107.778 153.47L89.1878 144.618L89.5945 142.778C89.7107 142.261 89.7688 141.859 88.8393 141.399L74.7226 134.673C74.1416 134.386 73.2702 134.443 72.8055 134.788L70.1913 136.57L65.7762 139.617L52.1242 148.986C51.6595 149.331 51.7176 149.791 52.2985 150.078L87.9679 167.036C88.5488 167.323 89.4202 167.266 89.885 166.921L108.01 154.505C108.417 154.275 108.359 153.757 107.778 153.47Z" fill="#1A50B2"/>
</g>
<path d="M91.6278 164.047L56.888 147.549L73.6189 135.996L108.359 152.55L91.6278 164.047Z" fill="white"/>
<path d="M89.8269 167.036C89.3621 167.381 88.4907 167.438 87.9098 167.151L52.2404 150.193C51.6595 149.906 51.6014 149.446 52.0661 149.101L70.1913 136.685C70.656 136.34 71.5274 136.283 72.1084 136.57L107.778 153.527C108.359 153.815 108.417 154.275 107.952 154.62L89.8269 167.036Z" fill="#E3E7FA"/>
<g opacity="0.1">
<path d="M170.054 133.524L168.079 132.431C167.265 131.972 165.987 131.857 165 132.144C161.979 130.535 159.423 129.73 159.365 129.845C159.307 129.902 161.049 131.512 163.664 133.179C163.489 133.639 163.722 134.156 164.361 134.558L166.336 135.65C167.382 136.225 169.008 136.225 170.054 135.65C171.1 135.076 171.1 134.156 170.054 133.524Z" fill="#1A50B2"/>
</g>
<path d="M157.564 127.718C157.622 127.603 160.817 128.638 164.303 130.65L163.489 132.029C160.004 130.075 157.506 127.833 157.564 127.718Z" fill="url(#paint7_linear_53_4317)"/>
<path d="M162.967 134.271L162.211 133.869C161.805 133.639 161.572 133.179 161.572 132.489C161.572 131.167 162.56 129.5 163.722 128.81C164.303 128.465 164.826 128.408 165.232 128.638L165.987 129.098C166.394 129.327 166.626 129.787 166.626 130.477C166.626 131.799 165.639 133.466 164.477 134.156C163.896 134.501 163.373 134.501 162.967 134.271Z" fill="url(#paint8_linear_53_4317)"/>
<path d="M165.987 129.098C165.581 128.868 165.058 128.925 164.477 129.27C163.257 129.96 162.328 131.569 162.328 132.949C162.328 133.639 162.56 134.099 162.967 134.329C163.373 134.558 163.896 134.501 164.477 134.156C165.697 133.466 166.626 131.857 166.626 130.477C166.626 129.787 166.394 129.328 165.987 129.098Z" fill="#E3E7FA"/>
<g opacity="0.1">
<path d="M165.987 129.098C165.581 128.868 165.058 128.925 164.477 129.27C163.257 129.96 162.328 131.569 162.328 132.949C162.328 133.639 162.56 134.099 162.967 134.329C163.373 134.558 163.896 134.501 164.477 134.156C165.697 133.466 166.626 131.857 166.626 130.477C166.626 129.787 166.394 129.328 165.987 129.098Z" fill="#1A50B2"/>
</g>
<path d="M163.722 133.524C163.431 133.409 163.257 133.064 163.257 132.604C163.257 131.742 163.896 130.65 164.651 130.19C165.058 129.96 165.406 129.96 165.639 130.075L168.95 132.547C169.124 132.661 169.241 132.891 169.241 133.179C169.241 133.811 168.776 134.616 168.195 134.903C167.904 135.076 167.672 135.076 167.498 135.018L163.722 133.524Z" fill="url(#paint9_linear_53_4317)"/>
<path d="M169.008 132.661C168.834 132.546 168.543 132.546 168.253 132.719C167.672 133.064 167.207 133.811 167.207 134.443C167.207 134.788 167.323 135.018 167.556 135.133C167.73 135.191 167.962 135.191 168.253 135.018C168.834 134.673 169.299 133.926 169.299 133.294C169.299 132.949 169.182 132.719 169.008 132.661Z" fill="#E3E7FA"/>
<g opacity="0.1">
<path d="M169.008 132.661C168.834 132.546 168.543 132.546 168.253 132.719C167.672 133.064 167.207 133.811 167.207 134.443C167.207 134.788 167.323 135.018 167.556 135.133C167.73 135.191 167.962 135.191 168.253 135.018C168.834 134.673 169.299 133.926 169.299 133.294C169.299 132.949 169.182 132.719 169.008 132.661Z" fill="#1A50B2"/>
</g>
<defs>
<linearGradient id="paint0_linear_53_4317" x1="0.0144348" y1="132.858" x2="209.5" y2="132.858" gradientUnits="userSpaceOnUse">
<stop offset="0.48" stop-color="white"/>
<stop offset="0.52" stop-color="#DEE4F7"/>
</linearGradient>
<linearGradient id="paint1_linear_53_4317" x1="114.84" y1="110.748" x2="166.342" y2="110.748" gradientUnits="userSpaceOnUse">
<stop offset="0.6129" stop-color="#F0F2FE"/>
<stop offset="0.6667" stop-color="#C8CDF0"/>
</linearGradient>
<linearGradient id="paint2_linear_53_4317" x1="105.799" y1="-0.353755" x2="180.46" y2="130.339" gradientUnits="userSpaceOnUse">
<stop offset="0.586" stop-color="#F0F2FE"/>
<stop offset="0.6129" stop-color="#C8CDF0"/>
</linearGradient>
<linearGradient id="paint3_linear_53_4317" x1="46.2508" y1="107.515" x2="49.3032" y2="107.515" gradientUnits="userSpaceOnUse">
<stop offset="0.25" stop-color="white"/>
<stop offset="0.7" stop-color="#DEE4F7"/>
</linearGradient>
<linearGradient id="paint4_linear_53_4317" x1="28.1512" y1="83.4583" x2="67.4017" y2="83.4583" gradientUnits="userSpaceOnUse">
<stop offset="0.25" stop-color="white"/>
<stop offset="0.7" stop-color="#DEE4F7"/>
</linearGradient>
<linearGradient id="paint5_linear_53_4317" x1="60.7335" y1="70.4659" x2="34.8206" y2="70.4659" gradientUnits="userSpaceOnUse">
<stop offset="0.25" stop-color="white"/>
<stop offset="0.7" stop-color="#DEE4F7"/>
</linearGradient>
<radialGradient id="paint6_radial_53_4317" cx="0" cy="0" r="1" gradientUnits="userSpaceOnUse" gradientTransform="translate(46.5416 74.1311) scale(4.19574 4.15158)">
<stop offset="0.25" stop-color="white"/>
<stop offset="0.7" stop-color="#DEE4F7"/>
</radialGradient>
<linearGradient id="paint7_linear_53_4317" x1="161.115" y1="128.858" x2="160.324" y2="130.244" gradientUnits="userSpaceOnUse">
<stop stop-color="#FFA1A1"/>
<stop offset="0.7" stop-color="#F96161"/>
</linearGradient>
<linearGradient id="paint8_linear_53_4317" x1="165.614" y1="128.878" x2="162.626" y2="134.108" gradientUnits="userSpaceOnUse">
<stop offset="0.25" stop-color="white"/>
<stop offset="0.7" stop-color="#DEE4F7"/>
</linearGradient>
<linearGradient id="paint9_linear_53_4317" x1="167.332" y1="131.066" x2="165.383" y2="134.477" gradientUnits="userSpaceOnUse">
<stop offset="0.25" stop-color="white"/>
<stop offset="0.7" stop-color="#DEE4F7"/>
</linearGradient>
</defs>
</svg>
