<svg width="27" height="27" viewBox="0 0 27 27" fill="none" xmlns="http://www.w3.org/2000/svg">
<path d="M20.825 17.7982C20.8305 17.7797 20.8357 17.7617 20.839 17.7429C20.8421 17.7249 20.8433 17.7066 20.8447 17.6885C20.8462 17.6698 20.8483 17.6508 20.8476 17.6318C20.8473 17.6142 20.845 17.5974 20.8431 17.5801C20.8407 17.5606 20.8388 17.5407 20.8348 17.5214C20.8307 17.5039 20.8253 17.4875 20.8198 17.4702C20.8139 17.4521 20.8086 17.4338 20.801 17.416C20.7927 17.3968 20.7821 17.3783 20.7711 17.36C20.7647 17.3486 20.7602 17.3365 20.7531 17.3251L13.9712 7.11646L13.9705 7.11575C13.9703 7.11527 13.9696 7.1148 13.9691 7.11432C13.9572 7.09652 13.9425 7.08085 13.9287 7.06471C13.9183 7.0526 13.9097 7.03931 13.8986 7.02792C13.8808 7.01011 13.8608 6.99563 13.8416 6.98068C13.8317 6.97284 13.8226 6.96335 13.8117 6.95646C13.7927 6.94388 13.7716 6.93391 13.7512 6.92371C13.7381 6.91706 13.7265 6.90899 13.713 6.90329C13.7115 6.90282 13.7101 6.9021 13.7087 6.90163C13.6892 6.89356 13.6686 6.88929 13.6486 6.88359C13.6463 6.88311 13.6441 6.88216 13.6417 6.88169C13.6296 6.87813 13.6182 6.87338 13.6057 6.87077C13.6047 6.87077 13.6038 6.87053 13.6028 6.87053C13.5786 6.86555 13.5542 6.8646 13.5299 6.86294C13.5176 6.86199 13.5053 6.85938 13.4924 6.85938H13.491H13.4908C13.4677 6.85938 13.4452 6.86317 13.4229 6.86578C13.4091 6.86745 13.3949 6.86745 13.3811 6.87006C13.3792 6.87029 13.3771 6.87053 13.3752 6.87101C13.3726 6.87148 13.3702 6.87267 13.3676 6.87338C13.3455 6.87837 13.3241 6.88572 13.3025 6.89332C13.293 6.89641 13.2835 6.89831 13.274 6.90187C13.2721 6.90282 13.2702 6.90329 13.2683 6.90424C13.2579 6.90851 13.2491 6.91492 13.2389 6.91967C13.2154 6.93106 13.1917 6.94246 13.1696 6.95718C13.1601 6.96359 13.1523 6.97189 13.1435 6.97878C13.1231 6.99421 13.1019 7.00964 13.0837 7.02792C13.0685 7.04287 13.0566 7.0602 13.0433 7.07658C13.0329 7.08916 13.0217 7.10079 13.0125 7.11432C13.0115 7.11551 13.0108 7.11693 13.0098 7.11812L6.22919 17.325C6.22231 17.3356 6.21803 17.347 6.21163 17.3579C6.20071 17.3772 6.18955 17.3962 6.18077 17.4163C6.17364 17.4334 6.16842 17.4505 6.16272 17.4681C6.15703 17.4859 6.15086 17.5032 6.1473 17.5217C6.14326 17.5405 6.14136 17.5595 6.13922 17.5782C6.13733 17.5963 6.13495 17.6143 6.13424 17.6324C6.134 17.6509 6.13566 17.6694 6.13709 17.6877C6.13851 17.7062 6.1397 17.7245 6.14278 17.743C6.14635 17.762 6.15181 17.7805 6.15679 17.7988C6.16178 17.8161 6.16581 17.8327 6.17222 17.8493C6.18029 17.8705 6.19097 17.8904 6.20166 17.9103C6.20735 17.921 6.21091 17.9324 6.21756 17.9431L8.70339 22.0168V23.0684C8.08999 23.0902 7.59672 23.5925 7.59672 24.2112V25.8531C7.59672 26.4855 8.11137 26.9999 8.74326 26.9999H18.2385C18.8708 26.9999 19.3853 26.4853 19.3853 25.8531V24.2112C19.3853 23.5928 18.8917 23.09 18.2781 23.0684V22.0168L20.7644 17.9431C20.7711 17.9319 20.7751 17.9198 20.781 17.9082C20.791 17.889 20.8015 17.87 20.8093 17.8498C20.8159 17.8329 20.8202 17.8154 20.8247 17.7983L20.825 17.7982ZM9.85432 23.0645V22.4307H17.1272V23.0645H9.85432ZM17.38 21.2796H9.60152L7.3903 17.6563L12.9153 9.34057V13.3623C11.971 13.6168 11.2732 14.478 11.2732 15.5018C11.2732 16.7245 12.268 17.7196 13.491 17.7196C14.7137 17.7196 15.7084 16.7248 15.7084 15.5018C15.7084 14.4782 15.0105 13.617 14.0664 13.3623V9.34057L19.5909 17.6569L17.38 21.2796ZM13.4908 14.4346C14.0788 14.4346 14.5571 14.9129 14.5571 15.5011C14.5571 16.0894 14.0788 16.5677 13.4908 16.5677C12.9028 16.5677 12.4242 16.0894 12.4242 15.5011C12.4242 14.9129 12.9028 14.4346 13.4908 14.4346ZM18.2344 25.8489L8.74765 25.8532L8.74314 24.216L9.27606 24.2157C9.27701 24.2157 9.27772 24.216 9.27867 24.216H17.7025C17.7172 24.216 17.7308 24.2129 17.7448 24.2117L18.2338 24.2115L18.2335 25.8489L18.2344 25.8489ZM18.2386 26.4245V25.8489H18.2389L18.2386 26.4245Z" fill="#2477FF"/>
<path d="M25.0387 5.40803C24.5291 5.40803 24.0657 5.60696 23.7186 5.92956C21.5509 3.45606 18.6214 1.87891 15.3671 1.43213V0.575651C15.3671 0.258033 15.1093 0 14.7914 0H12.1898C11.8722 0 11.6141 0.257796 11.6141 0.575651V1.43238C8.36011 1.87913 5.43084 3.45582 3.26259 5.9298C2.91554 5.6072 2.45241 5.40828 1.94249 5.40828C0.871433 5.40828 0 6.27971 0 7.35077C0 8.42183 0.871433 9.29326 1.94249 9.29326C3.01356 9.29326 3.88499 8.42183 3.88499 7.35077C3.88499 7.23564 3.87288 7.12336 3.85389 7.01416C5.82841 4.60478 8.55927 3.0506 11.6141 2.59222V3.17665C11.6141 3.49426 11.8719 3.7523 12.1898 3.7523H14.7913C15.1089 3.7523 15.3669 3.4945 15.3669 3.17665V2.59222C18.4213 3.05036 21.1524 4.60447 23.1272 7.01392C23.1082 7.12359 23.0961 7.23587 23.0961 7.35053C23.0961 8.42159 23.9675 9.29302 25.0386 9.29302C26.1096 9.29302 26.9811 8.42159 26.9811 7.35053C26.9815 6.27947 26.1101 5.40803 25.0391 5.40803H25.0387ZM1.94331 8.14217C1.50677 8.14217 1.15191 7.78729 1.15191 7.35077C1.15191 6.91425 1.50679 6.55937 1.94331 6.55937C2.37985 6.55937 2.73471 6.91425 2.73471 7.35077C2.73471 7.78729 2.37983 8.14217 1.94331 8.14217ZM14.2163 2.60122H12.7657V1.15132H14.2158V2.60122H14.2163ZM25.0387 8.14217C24.6022 8.14217 24.2473 7.78729 24.2473 7.35077C24.2473 6.91425 24.6022 6.55937 25.0387 6.55937C25.4752 6.55937 25.8301 6.91425 25.8301 7.35077C25.8301 7.78729 25.4752 8.14217 25.0387 8.14217Z" fill="#2477FF"/>
</svg>
