<svg width="25" height="25" viewBox="0 0 25 25" fill="none" xmlns="http://www.w3.org/2000/svg">
<path d="M16.5201 5.2616C16.3175 5.05933 16.0135 5.1098 15.8109 5.31226C15.6084 5.51453 15.6589 5.81812 15.8617 6.02036L18.7492 8.54946L15.8617 11.0786C15.6591 11.2808 15.6084 11.5844 15.8109 11.7867C15.9122 11.8878 16.0642 11.9385 16.2163 11.9385C16.3176 11.9385 16.4696 11.8878 16.5709 11.8373L19.9143 8.95417C20.0156 8.85304 20.0664 8.70124 20.0664 8.54945C20.0664 8.39765 20.0156 8.24605 19.9143 8.14472L16.5201 5.2616Z" fill="#2477FF" stroke="#2477FF" stroke-width="0.3"/>
<path d="M9.21804 5.3122C9.01244 5.10994 8.70384 5.05927 8.49827 5.26153L5.10492 8.1447C5.00212 8.24583 4.95062 8.39763 4.95062 8.54943C4.95062 8.70123 5.00212 8.85283 5.10492 8.95416L8.49827 11.8373C8.60108 11.9385 8.70387 11.9385 8.85817 11.9385C9.01246 11.9385 9.16656 11.8878 9.26956 11.7867C9.47516 11.5844 9.42386 11.2808 9.21806 11.0786L6.28741 8.54944L9.21806 6.02033C9.37236 5.81807 9.42366 5.51467 9.21806 5.31223L9.21804 5.3122Z" fill="#2477FF" stroke="#2477FF" stroke-width="0.3"/>
<path d="M14.3177 5.20424C14.0634 5.05225 13.7585 5.15351 13.606 5.40676L10.4538 11.1805C10.3012 11.4338 10.4029 11.7376 10.6571 11.8895C10.9113 11.9908 11.1655 11.9403 11.3688 11.687L14.521 5.86293C14.6228 5.60968 14.5719 5.30573 14.3177 5.20445V5.20424Z" fill="#2477FF" stroke="#2477FF" stroke-width="0.3"/>
<path d="M24.6447 20.9862L22.663 16.1079V0.812882C22.663 0.508084 22.4598 0.304688 22.1548 0.304688H2.79409C2.4893 0.304688 2.2859 0.507884 2.2859 0.812882V16.1084L0.304199 21.0374V21.2406V22.6634C0.304199 23.7814 1.16807 24.696 2.23517 24.696H22.7135C23.7806 24.696 24.6444 23.7814 24.6444 22.6634V21.2406C24.6953 21.1897 24.6953 21.0881 24.6444 20.9865L24.6447 20.9862ZM3.30265 1.32117H21.6466V15.7015H3.30265V1.32117ZM3.15015 16.7181H21.85L23.4253 20.7326H1.57497L3.15015 16.7181ZM23.6794 22.6637C23.6794 23.2226 23.2728 23.6801 22.7648 23.6801L2.23555 23.6799C1.72736 23.6799 1.32096 23.2226 1.32096 22.6635V21.7489H23.6796L23.6794 22.6637Z" fill="#2477FF" stroke="#2477FF" stroke-width="0.3"/>
<path d="M13.8695 18.4824H11.1477C10.8453 18.4824 10.6436 18.6917 10.6436 19.0059C10.6436 19.3199 10.8451 19.5294 11.1477 19.5294H13.8695C14.1718 19.5294 14.3736 19.3201 14.3736 19.0059C14.3736 18.6919 14.1718 18.4824 13.8695 18.4824Z" fill="#2477FF" stroke="#2477FF" stroke-width="0.3"/>
</svg>
