<svg width="25" height="25" viewBox="0 0 25 25" fill="none" xmlns="http://www.w3.org/2000/svg">
<path d="M0.357747 6.90162L12.2327 12.5978C12.3172 12.6383 12.4085 12.6584 12.5 12.6584C12.5915 12.6584 12.6827 12.638 12.7675 12.5976L24.6425 6.90136C24.8611 6.79695 25 6.57404 25 6.32946C25 6.08488 24.8608 5.86197 24.6425 5.7573L12.7675 0.0610811C12.5979 -0.0203604 12.402 -0.0203604 12.2322 0.0610811L0.357231 5.7573C0.139165 5.86197 0.000231581 6.08488 0.000231581 6.32946C0.000231581 6.57404 0.139166 6.79695 0.357747 6.90161V6.90162ZM12.4999 1.33355L22.9153 6.32949L12.4999 11.3254L2.08527 6.32949L12.4999 1.33355ZM24.9998 10.4433C24.9998 10.6878 24.8606 10.9107 24.6423 11.0154L12.7673 16.7116C12.6828 16.7521 12.5915 16.7722 12.4998 16.7722C12.4083 16.7722 12.317 16.7518 12.2322 16.7114L0.357258 11.0152C0.138935 10.9105 0 10.6878 0 10.4433C0 10.1987 0.139192 9.97578 0.357515 9.87111L2.33658 8.92178C2.64744 8.77248 3.02093 8.9069 3.16914 9.22274C3.31684 9.53883 3.18383 9.91601 2.87194 10.0658L2.08498 10.4432L12.4996 15.4389L22.915 10.4432L22.128 10.0661C21.8161 9.91651 21.6831 9.53882 21.8308 9.223C21.9785 8.90716 22.352 8.77274 22.6634 8.92204L24.6424 9.87137C24.861 9.97578 24.9999 10.1987 24.9999 10.4433H24.9998ZM24.9998 14.5572C24.9998 14.8017 24.8606 15.0247 24.6423 15.1293L12.7673 20.8255C12.6828 20.8657 12.5915 20.8861 12.4998 20.8861C12.4083 20.8861 12.317 20.8657 12.2322 20.8253L0.357258 15.1291C0.138935 15.0244 0 14.8017 0 14.5572C0 14.3126 0.139192 14.0897 0.357515 13.985L2.33658 13.0357C2.64744 12.8866 3.02093 13.0208 3.16914 13.3366C3.31684 13.6527 3.18383 14.0299 2.87194 14.1797L2.08498 14.5572L12.4996 19.5528L22.915 14.5572L22.128 14.18C21.8161 14.0304 21.6831 13.6527 21.8308 13.3369C21.9785 13.0211 22.352 12.8869 22.6634 13.0359L24.6424 13.9853C24.861 14.0897 24.9999 14.3123 24.9999 14.5572H24.9998ZM24.9998 18.6708C24.9998 18.9154 24.8606 19.1383 24.6423 19.243L12.7673 24.9392C12.6828 24.9796 12.5915 25 12.4998 25C12.4083 25 12.317 24.9796 12.2322 24.9392L0.357258 19.243C0.138935 19.1383 0 18.9154 0 18.6708C0 18.4262 0.139192 18.2033 0.357515 18.0986L2.33658 17.1493C2.64744 17 3.02093 17.1342 3.16914 17.4503C3.31684 17.7664 3.18383 18.1435 2.87194 18.2934L2.08498 18.6708L12.4996 23.6667L22.915 18.6708L22.128 18.2936C21.8161 18.1441 21.6831 17.7664 21.8308 17.4505C21.9785 17.1344 22.352 17.0003 22.6634 17.1496L24.6424 18.0989C24.861 18.2036 24.9999 18.4262 24.9999 18.6708H24.9998Z" fill="#2477FF"/>
</svg>
