<svg width="150" height="269" viewBox="0 0 150 269" fill="none" xmlns="http://www.w3.org/2000/svg">
<g clip-path="url(#clip0_30_1489)">
<path d="M98.98 114.287C89.3528 114.287 81.5485 106.482 81.5485 96.8553C81.5485 87.2282 89.3528 79.4238 98.98 79.4238C108.607 79.4238 116.411 87.2282 116.412 96.8553C116.412 106.482 108.607 114.287 98.98 114.287Z" fill="#05C4CE"/>
<path d="M151.599 68.7362L151.599 0L82.8632 6.00911e-06C82.8632 37.9424 113.657 68.7362 151.599 68.7362Z" fill="#2477FF"/>
<path d="M64.117 268.696L132.853 268.696L132.853 165.592C132.853 146.621 117.456 131.224 98.4851 131.224C79.5139 131.224 64.117 146.621 64.117 165.592L64.117 268.696Z" fill="#FFAA21"/>
<path d="M-0.000120106 199.96L-0.000123111 165.592C-0.000127861 111.263 44.211 67.1065 98.4851 67.1065L201.589 67.1064" stroke="#050E12" stroke-miterlimit="10"/>
<path d="M8.24822 199.96L8.24822 165.592C8.24822 115.827 48.7201 75.355 98.4851 75.355L201.589 75.355" stroke="#050E12" stroke-miterlimit="10"/>
<path d="M16.4966 199.96L16.4966 165.592C16.4966 120.391 53.2842 83.603 98.4851 83.603L201.589 83.603" stroke="#050E12" stroke-miterlimit="10"/>
<path d="M24.7449 199.96L24.7449 165.592C24.7449 124.9 57.8483 91.8516 98.4851 91.8516L201.589 91.8516" stroke="#050E12" stroke-miterlimit="10"/>
<path d="M32.9933 199.96L32.9932 165.591C32.9932 129.464 62.3573 100.1 98.4851 100.1L201.589 100.1" stroke="#050E12" stroke-miterlimit="10"/>
<path d="M41.2416 199.96L41.2416 165.592C41.2416 134.028 66.9214 108.348 98.4851 108.348L201.589 108.348" stroke="#050E12" stroke-miterlimit="10"/>
<path d="M49.4899 199.96L49.4899 165.592C49.4899 138.537 71.4855 116.597 98.4851 116.597L201.589 116.597" stroke="#050E12" stroke-miterlimit="10"/>
<path d="M57.7383 199.96L57.7383 165.592C57.7383 143.101 75.9946 124.845 98.4851 124.845L201.589 124.845" stroke="#050E12" stroke-miterlimit="10"/>
<path d="M98.485 189.677C85.1528 189.677 74.3449 178.869 74.3449 165.537C74.3449 152.204 85.1528 141.396 98.485 141.396C111.817 141.396 122.625 152.204 122.625 165.537C122.625 178.869 111.817 189.677 98.485 189.677Z" fill="#FF4927"/>
</g>
<defs>
<clipPath id="clip0_30_1489">
<rect width="150" height="269" fill="white"/>
</clipPath>
</defs>
</svg>
