<svg width="20" height="20" viewBox="0 0 20 20" fill="none" xmlns="http://www.w3.org/2000/svg">
<path d="M9.98256 3.6338C7.71334 3.63452 5.61678 4.84558 4.48245 6.81098C3.34812 8.77638 3.3483 11.1976 4.48299 13.1629C4.59761 13.382 4.79684 13.5448 5.03433 13.6138C5.27184 13.6826 5.52713 13.6517 5.74127 13.5279C5.9554 13.4041 6.10974 13.1982 6.16866 12.958C6.22741 12.7178 6.18573 12.464 6.05297 12.2552C5.51956 11.3315 5.3286 10.249 5.51381 9.19842C5.69903 8.14779 6.24862 7.196 7.06584 6.51027C7.8831 5.82453 8.91575 5.44869 9.98252 5.44869C11.0495 5.44869 12.0821 5.82453 12.8994 6.51027C13.7167 7.196 14.266 8.14779 14.4512 9.19842C14.6364 10.249 14.4457 11.3315 13.9121 12.2552C13.791 12.4645 13.7583 12.7133 13.8213 12.9467C13.8844 13.1803 14.0378 13.3788 14.248 13.4986C14.4562 13.6168 14.7031 13.6479 14.9343 13.585C15.1655 13.5221 15.3624 13.3703 15.4822 13.1628C16.6168 11.1976 16.6169 8.77641 15.4826 6.81097C14.3483 4.84557 12.2519 3.63452 9.98249 3.63379L9.98256 3.6338Z" fill="white"/>
<path d="M17.0431 2.92548C15.6471 1.52886 13.8679 0.577391 11.9312 0.192029C9.99436 -0.193507 7.98651 0.00429187 6.16203 0.760114C4.33764 1.51594 2.77826 2.79597 1.68127 4.43818C0.58447 6.08058 -0.00063244 8.0113 5.74313e-05 9.98613C-0.00730855 12.1474 0.694067 14.2513 1.99654 15.9756C2.19111 16.235 2.50926 16.371 2.83106 16.3322C3.153 16.2934 3.42987 16.0859 3.55722 15.7877C3.68459 15.4894 3.64309 15.1459 3.44852 14.8867C2.27036 13.3136 1.69887 11.3685 1.83883 9.40819C1.97896 7.44781 2.82097 5.60365 4.21097 4.21439C5.74253 2.68444 7.81895 1.82536 9.98381 1.82568C12.1486 1.82586 14.2247 2.68549 15.7562 4.21563C17.2876 5.7459 18.1488 7.82144 18.1506 9.98617C18.1572 11.7545 17.5834 13.4761 16.517 14.887C16.3727 15.0794 16.3106 15.3216 16.3447 15.5598C16.3786 15.798 16.506 16.0131 16.6986 16.1575C16.8556 16.2754 17.0468 16.339 17.2431 16.339C17.5288 16.339 17.7978 16.2044 17.9691 15.9759C19.4139 14.0558 20.1176 11.6787 19.9509 9.28139C19.7842 6.88404 18.7582 4.62752 17.0615 2.92538L17.0431 2.92548Z" fill="white"/>
<path d="M11.8615 11.9461C12.3979 11.4348 12.7026 10.7268 12.7055 9.98571C12.7055 9.01309 12.1867 8.11428 11.3443 7.62792C10.5019 7.14161 9.46401 7.14161 8.62163 7.62792C7.77925 8.11423 7.26038 9.01304 7.26038 9.98571C7.26325 10.7268 7.56795 11.4348 8.10441 11.9461L6.35278 18.843C6.28757 19.0841 6.32458 19.3415 6.45501 19.5544C6.58562 19.7673 6.79815 19.9171 7.04246 19.9683C7.28355 20.0335 7.541 19.9967 7.7539 19.8661C7.96679 19.7357 8.11662 19.5231 8.16782 19.2787L8.42203 18.1533H11.5439L11.7979 19.2787C11.8759 19.6029 12.1207 19.8609 12.4404 19.9558C12.7601 20.0505 13.106 19.9675 13.348 19.7379C13.5898 19.5084 13.6909 19.1673 13.6129 18.843L11.8615 11.9461ZM9.98284 9.0783C10.2236 9.0783 10.4544 9.17388 10.6246 9.34401C10.7949 9.51432 10.8904 9.74518 10.8904 9.98573C10.8904 10.2265 10.7949 10.4573 10.6246 10.6274C10.4544 10.7978 10.2236 10.8933 9.98284 10.8933C9.74228 10.8933 9.51143 10.7978 9.34112 10.6274C9.17099 10.4573 9.07542 10.2265 9.07542 9.98573C9.07542 9.74517 9.17099 9.51431 9.34112 9.34401C9.51143 9.17388 9.74229 9.0783 9.98284 9.0783ZM8.87564 16.3385L9.78324 12.7084H10.1734L11.081 16.3385H8.87564Z" fill="white"/>
</svg>
