<svg width="33" height="16" viewBox="0 0 33 16" fill="none" xmlns="http://www.w3.org/2000/svg">
<path d="M14.3421 2.60527C14.7053 2.60527 15 5.49178 15 9.05264L14.9986 9.53372C14.9726 12.8698 14.6889 15.5 14.3421 15.5C13.9912 15.5 13.7048 12.8067 13.6842 9.41448V8.93202C13.6911 5.42599 13.983 2.60527 14.3421 2.60527ZM12.0614 3.92106C12.4164 3.92106 12.7056 6.38816 12.7193 9.47753V9.94353C12.7056 13.0329 12.4164 15.5 12.0614 15.5C11.7119 15.5 11.4254 13.0946 11.4035 10.0587V9.59266L11.4062 9.12665C11.4405 6.20313 11.7215 3.92106 12.0614 3.92106ZM9.7807 3.92106C10.1302 3.92106 10.4167 6.32649 10.4386 9.3624V9.8284L10.4358 10.2944C10.4016 13.2179 10.1206 15.5 9.7807 15.5C9.42571 15.5 9.13651 13.0329 9.1228 9.94353V9.47753C9.13651 6.38816 9.42571 3.92106 9.7807 3.92106ZM7.5 4.71053C7.86321 4.71053 8.15789 7.12555 8.15789 10.1053L8.15515 10.5644C8.12774 13.3289 7.84402 15.5 7.5 15.5C7.14089 15.5 6.85033 13.1467 6.8421 10.2204V9.99014C6.85033 7.06388 7.14089 4.71053 7.5 4.71053ZM5.2193 7.07895C5.58251 7.07895 5.87719 8.96355 5.87719 11.2895V11.506C5.85937 13.7305 5.57154 15.5 5.2193 15.5C4.85608 15.5 4.5614 13.6154 4.5614 11.2895V11.0729C4.57922 8.84842 4.86705 7.07895 5.2193 7.07895ZM20 0.500009C23.5362 0.500009 26.4693 3.08499 27.0148 6.46766C27.6445 6.28695 28.3055 6.24268 28.9537 6.33781C29.6019 6.43293 30.2224 6.66526 30.7736 7.01928C31.3249 7.3733 31.7942 7.84086 32.1504 8.39074C32.5065 8.94061 32.7413 9.56015 32.8389 10.208C32.9365 10.8558 32.8948 11.517 32.7165 12.1474C32.5383 12.7778 32.2275 13.363 31.8051 13.8637C31.3827 14.3645 30.8583 14.7693 30.2669 15.0513C29.6755 15.3332 29.0308 15.4857 28.3758 15.4986L28.2895 15.5H17.1053C16.8261 15.5 16.5583 15.3891 16.3609 15.1917C16.1635 14.9943 16.0526 14.7265 16.0526 14.4474V1.69655C17.2203 0.914347 18.5945 0.497778 20 0.500009ZM2.93859 6.8158C3.30181 6.8158 3.59649 8.64145 3.59649 10.8947V11.1086C3.5773 13.2604 3.29084 14.9737 2.93859 14.9737C2.58224 14.9737 2.29029 13.2056 2.2807 11.0016V10.8947C2.2807 8.64145 2.57538 6.8158 2.93859 6.8158ZM0.657894 8.13158C1.02111 8.13158 1.31579 9.42818 1.31579 11.0263V11.2059C1.29386 12.7204 1.0074 13.9211 0.657894 13.9211C0.294682 13.9211 0 12.6245 0 11.0263V10.8468C0.0219298 9.33224 0.308388 8.13158 0.657894 8.13158Z" fill="#132742"/>
</svg>
