<svg width="791" height="391" viewBox="0 0 791 391" fill="none" xmlns="http://www.w3.org/2000/svg">
<path d="M3.55247 1C-31.3653 44.996 -14.7104 132.557 58.2263 136.295C91.6653 138.006 93.2877 99.0852 62.4331 116.08C38.1113 129.494 16.1728 172.886 32.3826 222.418C47.9032 269.836 97.8534 291 135.226 288.728C171.149 286.543 174.739 281.654 175.586 275.342C176.347 269.634 177.94 259.34 173.935 258.635C170.23 257.974 160.122 254.811 152.369 245.983C144.616 237.155 144.903 219.844 145.492 205.035C146.138 188.86 137.452 200.089 131.924 200.089C126.396 200.089 126.526 190.211 131.106 189.033C135.686 187.854 133.518 199.615 133.575 216.566C133.633 235.329 141.946 272.107 180.108 272.107C213.188 272.107 226.584 243.337 226.584 222.504C226.584 213.547 225.177 186.847 229.872 188.975C234.567 191.089 230.461 200.621 227.058 200.032C223.655 199.442 226.799 188.544 226.354 184.849C225.88 180.967 221.889 180.737 222.119 186.847C222.162 188.026 222.234 208.27 222.004 221.914C221.616 244.401 209.585 267.276 179.591 267.219C151.092 267.161 138.342 239.915 137.351 216.322C136.734 201.857 138.17 181.369 134.652 181.484C131.12 181.599 133.475 190.657 140.18 190.312C146.87 189.953 146.87 193.49 146.87 165.597C146.87 137.704 161.271 123.887 181.128 123.887C202.635 123.887 213.03 144.418 213.03 160.665C213.03 176.912 216.002 200.118 212.47 203.655C208.938 207.192 148.694 206.918 144.817 202.677C140.941 198.436 143.338 186.79 144.401 183.972C145.463 181.153 210.776 183.08 214.193 183.972C215.127 184.216 215.988 185.107 216.132 187.911C216.505 195.229 223.87 189.953 223.77 194.036C223.655 198.421 216.246 191.089 215.773 202.274C215.385 211.519 215.801 221.009 214.193 231.979C211.437 250.742 195.514 255.745 185.579 259.225C180.912 260.864 182.406 274.753 185.866 280.116C189.57 285.824 224.057 288.584 224.646 289.993C225.234 291.402 226.527 298.002 225.349 299.526C224.172 301.05 134.523 300.115 134.049 299.526C133.575 298.936 132.757 291.992 135.111 291.517C137.466 291.043 226.067 291 243.44 293.185C289.628 299.008 321.933 311.459 334.582 347.993C347.317 384.786 305.852 390.106 311.093 361.408C316.75 330.366 363.182 318.749 394.453 336.75C432.214 358.489 451.654 408.222 512.215 372.234C534.972 358.705 566.142 336.865 597.068 355.987C620.155 370.264 612.819 396.259 599.796 388.625C577.255 375.397 632.532 343.047 669 344.197" stroke="#596576" stroke-miterlimit="10" stroke-linecap="round" stroke-linejoin="round"/>
<path d="M669 343.482C676.582 343.657 684.812 344.822 691.718 348.114C694.797 349.585 698.092 351.755 699.243 355.177C701.905 363.115 694.121 368.504 687.172 366.625C682.395 365.329 673.662 359.386 678.208 353.532C686.582 342.769 705.991 335.225 718.81 340.992C724.508 343.555 728.968 348.23 734.047 351.871C741.226 357.013 752.952 362.241 761.498 357.624C763.498 356.546 765.239 355.017 767.152 353.765C770.606 351.507 774.274 351.245 778.145 352.541C782.619 354.041 786.734 357.114 790 360.522" stroke="#596576" stroke-miterlimit="10" stroke-linecap="round" stroke-linejoin="round"/>
</svg>
