<svg width="175" height="456" viewBox="0 0 175 456" fill="none" xmlns="http://www.w3.org/2000/svg">
<path fill-rule="evenodd" clip-rule="evenodd" d="M90.2203 77.3629C90.1653 75.4035 88.6996 73.0907 86.5107 73.4222C83.9242 73.8674 82.4028 76.433 81.8838 78.8032C80.3512 77.4152 77.4486 76.3844 76.0942 78.5518C75.0609 80.332 75.3166 82.5279 75.6245 84.4638C76.1138 87.2503 77.0814 89.9667 78.4371 92.4683C79.6146 94.4253 81.6594 98.5721 84.1254 98.7505C84.6384 98.7793 84.8236 98.3028 84.9124 97.8863C85.8085 95.4554 86.6769 93.0017 87.4671 90.5297C88.0039 88.8978 88.4601 87.2224 88.8658 85.5517C89.5336 82.8615 90.3278 80.1595 90.2203 77.3629ZM88.29 76.0885C88.9862 77.8096 88.3995 79.7268 88.1298 81.4869C88.1321 81.5122 88.1115 81.5652 88.1139 81.5905C88.0562 81.5193 87.9986 81.4481 87.918 81.4046C87.9495 80.1005 89.0521 77.4208 87.9483 76.5286C87.9059 76.0733 87.6335 75.6139 87.2099 75.4492C87.1705 75.2998 87.0828 75.1804 86.9445 75.0657C86.8892 75.0199 86.8616 74.9969 86.8086 74.9764C87.4204 74.9704 88.024 75.4244 88.29 76.0885ZM84.0343 77.7863C83.9655 77.8693 83.9243 77.9752 83.8555 78.0581C83.8967 77.9522 83.9378 77.8463 83.979 77.7404C84.0043 77.7381 84.0066 77.7634 84.0343 77.7863ZM81.0452 80.2081C80.9534 80.3187 80.8364 80.4316 80.7446 80.5423C80.511 79.9517 79.6574 79.8271 79.2122 80.2513C79.2787 80.1431 79.3198 80.0372 79.3886 79.9542C79.5951 79.7054 79.5644 79.3765 79.4144 79.1354C79.9462 79.3665 80.4116 79.7058 80.8493 80.0222C80.9299 80.0657 80.9875 80.1369 81.0452 80.2081ZM77.8961 78.9962C77.9214 78.9938 77.9443 78.9662 77.9443 78.9662L77.9696 78.9638C77.9443 78.9662 77.9467 78.9915 77.9214 78.9938C78.119 78.9244 78.3214 78.9055 78.5284 78.9373C78.1884 79.122 77.9938 79.4974 77.7944 79.8221C77.508 80.3081 77.2746 80.8146 77.0158 81.3235C77.0251 80.3276 77.2485 79.4393 77.9237 79.0191C77.9214 78.9938 77.8961 78.9962 77.8961 78.9962ZM78.4334 87.7741C78.4128 87.827 78.3923 87.8799 78.3717 87.9329C78.3393 87.8594 78.3046 87.7605 78.2722 87.687C78.3252 87.7076 78.3805 87.7535 78.4334 87.7741ZM77.9503 86.6965C77.9108 86.547 77.8438 86.3747 77.8043 86.2253C77.9102 86.2664 78.0414 86.3052 78.1426 86.2958C78.0761 86.4041 78.0144 86.5629 77.9503 86.6965ZM78.7513 88.9946C78.9401 89.1046 79.1496 89.1616 79.3749 89.1151C79.3543 89.1681 79.3108 89.2487 79.2902 89.3016C79.1414 89.6216 79.2297 90.0216 79.4809 90.2534C79.4104 90.5916 79.5699 90.934 79.8693 91.1357C79.8601 92.1316 81.1008 92.5773 81.8078 91.9501C81.8125 92.0007 81.8148 92.026 81.8195 92.0766C81.8313 92.2031 81.866 92.3019 81.9261 92.3983C81.892 92.5801 81.9085 92.7572 81.9756 92.9295C82.0174 93.1042 82.135 93.2719 82.2733 93.3866C82.1475 93.6789 81.8904 93.9325 81.8452 94.2684C81.8364 94.4478 81.83 94.6525 81.8465 94.8296C81.7888 94.7584 81.7564 94.6849 81.7011 94.639C80.5379 92.8339 79.5469 90.9616 78.7513 88.9946ZM83.6845 97.0311C83.1915 96.6689 82.8179 96.2189 82.4672 95.7413C82.9967 95.9471 83.5384 95.4629 83.8524 94.9999C84.0319 95.0087 84.2066 94.9669 84.3536 94.9021C84.1414 95.6363 83.9268 96.3452 83.6845 97.0311ZM86.0434 89.4887C86.041 89.4634 86.0157 89.4658 86.0134 89.4405C86.5637 87.6798 87.0081 85.8779 87.4272 84.0783C87.4731 84.023 87.5166 83.9424 87.5372 83.8895C87.0998 85.7673 86.5843 87.6268 86.0434 89.4887Z" fill="#596576"/>
<path fill-rule="evenodd" clip-rule="evenodd" d="M25.6204 128.033C25.7269 128.355 25.8864 128.697 25.9929 129.019C26.6109 130.722 27.4241 132.33 28.3109 133.906C30.6687 138.125 33.1507 142.308 36.1585 146.11C35.4744 146.71 34.788 147.284 34.0487 147.838C33.7387 148.071 33.4034 148.306 33.2317 148.654C33.11 148.716 33.0182 148.827 32.9518 148.935C32.7307 149.848 32.9744 150.821 33.0593 151.731C33.2584 153.32 33.5816 154.872 33.9807 156.417C35.9384 163.735 39.7667 170.319 43.875 176.62C45.8879 179.877 48.0915 182.989 50.6761 185.81C54.4693 190.1 59.1665 193.413 64.1248 196.242C68.6642 198.957 74.7936 200.937 80.0996 200.928C81.9967 200.751 83.8278 199.866 85.2994 198.683C86.3417 197.82 87.2409 196.792 88.0296 195.673C88.4172 195.177 88.9788 194.359 88.6211 193.806C91.4533 192.164 93.2587 189.087 93.9876 185.958C95.403 179.243 93.6671 172.388 90.8266 166.275C88.2103 160.65 85.3693 155.353 81.3289 150.601C77.3163 145.872 72.8742 141.464 67.9322 137.715C64.444 135.054 60.4182 132.649 56.0322 132.675C51.4667 132.692 47.3235 135.323 43.9633 138.417C42.0124 140.207 40.2297 142.159 38.3617 144.017C38.3499 143.89 38.3358 143.738 38.2205 143.596C36.6047 141.042 35.0854 138.428 33.5914 135.812C32.358 133.529 31.2717 131.18 30.0866 128.867C29.747 128.235 29.4581 127.599 29.1439 126.965C32.0423 124.118 31.551 116.382 31.0746 113.186C30.8361 111.447 30.471 109.721 30.0807 107.997C29.6287 106.432 29.0616 102.81 26.9939 102.799C26.5133 102.844 26.0398 102.964 25.5963 103.133C25.5915 103.083 25.5868 103.032 25.5821 102.982C25.2771 101.352 25.0251 99.7421 24.7707 98.1074C24.2135 93.7709 24.0057 89.3508 24.3638 84.98C25.6909 63.6285 39.2922 43.9397 58.4365 34.4503C92.3866 17.1005 135.556 33.7951 148.145 70.0513C150.048 75.4106 151.16 81.0476 151.511 86.7301C151.59 87.8454 151.618 88.9655 151.645 90.0855C151.158 90.0544 150.67 90.0233 150.203 89.9393C149.092 89.7877 147.978 89.6108 146.867 89.4592C145.986 89.3117 145.733 89.6159 145.501 90.403C144.979 91.6508 144.614 92.935 144.431 94.2533C143.848 98.1347 143.811 102.118 144.275 106.004C144.643 108.853 146.508 111.614 149.105 112.928C149.084 112.981 149.039 113.036 149.043 113.087C148.372 118.201 147.291 123.303 145.446 128.144C145.013 129.256 144.584 130.393 144.151 131.505C143.539 131.23 142.95 130.928 142.378 130.547C140.357 126.653 136.653 124.141 133.335 121.388C132.519 120.571 131.937 119.529 131.052 118.795C129.568 117.657 127.603 118.478 126.149 119.302C121.684 122.04 118.089 125.896 114.429 129.605C111.804 132.376 109.126 135.126 106.891 138.243C99.8662 148.287 93.7828 160.488 96.2814 173.063C97.221 177.67 99.0095 182.351 102.384 185.711C104.134 187.513 106.26 188.973 108.805 189.169C109.16 192.708 111.463 194.969 115.065 195.016C118.886 194.685 121.946 191.925 124.931 189.733C128.609 186.763 132.104 183.477 134.994 179.712C135.904 178.531 136.762 177.328 137.617 176.1C137.821 176.923 138.127 177.737 138.301 178.511C142.118 191.55 140.667 205.821 135.29 218.211C134.117 220.949 132.814 223.673 131.346 226.259C130.969 227.417 128.15 230.026 129.636 230.909C131.651 232.277 136.792 220.087 137.59 218.252C143.101 205.109 144.187 189.929 139.655 176.344C139.484 175.875 139.348 174.969 139.06 174.333C139.103 174.252 139.149 174.197 139.192 174.116C139.394 173.817 139.573 173.545 139.775 173.246C139.91 173.054 140.068 172.835 140.203 172.644C140.146 172.573 140.113 172.5 140.058 172.454C142.094 169.381 144.048 166.265 146.001 163.123C149.632 156.916 154.469 148.862 153.806 141.474C153.481 138.8 152.529 135.98 150.28 134.301C149.591 133.753 148.841 133.364 148.042 133.005C148.548 132.141 148.83 130.507 149.109 129.945C150.706 125.179 151.884 120.298 152.855 115.385C152.984 114.582 153.217 113.795 153.293 112.971C157.902 110.679 158.823 100.847 159.299 96.6439C159.476 94.9944 159.551 93.329 159.446 91.6548C159.382 90.6913 159.203 89.0495 157.815 89.485C157.739 89.4921 157.663 89.4992 157.59 89.5316C157.745 89.0068 157.679 88.2986 157.71 87.8109C157.869 85.1425 157.824 82.4677 157.625 79.7818C154.691 41.4522 117.159 14.894 79.9792 17.5679C35.6363 20.0418 2.471 61.9652 19.7352 104.853C19.0016 104.922 18.2934 104.988 17.5598 105.056C16.9828 105.161 16.3616 105.066 15.7916 105.246C15.4975 105.376 15.3487 105.696 15.2181 105.938C13.1859 110.413 15.5098 115.912 17.4029 120.073C19.053 123.542 21.5231 127.598 25.6204 128.033ZM75.7426 198.527C73.6072 198.063 71.6093 197.432 69.4962 196.66C64.6127 194.359 59.9327 191.504 55.8514 187.955C50.8622 183.7 47.2642 178.218 43.8155 172.697C39.2595 165.697 35.7045 157.94 34.3955 149.642C34.3931 149.617 34.3884 149.566 34.386 149.541C34.4343 149.511 34.4572 149.483 34.5054 149.453C36.2576 148.27 37.8116 146.875 39.3308 145.381C40.3254 147.839 41.4946 150.256 42.6845 152.62C44.1815 155.543 46.1655 158.215 47.9772 160.955C48.4803 161.699 49.7067 160.896 49.2289 160.15C47.6684 157.642 45.9885 155.221 44.5728 152.623C43.3647 150.337 42.2807 148.014 41.1691 145.669C40.9244 145.232 40.7713 144.685 40.4301 144.309C40.8041 143.942 41.1758 143.55 41.5476 143.159C41.5546 143.234 41.5593 143.285 41.5664 143.361C42.1605 146.724 43.897 149.752 45.7434 152.59C48.1971 156.47 50.9836 160.088 53.7726 163.732C60.8496 172.87 68.726 181.551 78.0016 188.545C80.6097 190.521 83.0872 192.74 86.0528 194.173C86.2393 194.258 86.4282 194.367 86.6399 194.45C86.4106 194.726 86.133 195.033 85.8577 195.365C85.6665 195.229 85.4753 195.094 85.2865 194.984C83.7386 193.98 82.2366 192.921 80.7322 191.837C77.2582 189.328 74.057 186.463 70.7641 183.708C70.0728 183.135 69.1253 184.192 69.7684 184.796C71.9976 187.088 74.5069 189.1 76.9908 191.114C78.2857 192.141 79.6012 193.116 80.965 194.06C82.241 194.885 83.4554 195.869 84.839 196.48C83.8568 197.439 82.6169 198.371 80.9687 198.754C79.1987 199.2 77.4292 198.829 75.7426 198.527ZM52.2842 135.167C57.2276 133.456 61.2269 135.303 65.2604 138.066C69.8147 141.213 73.7543 145.158 77.4274 149.255C81.5295 153.848 85.0211 159.008 87.7268 164.497C91.068 171.329 93.7587 178.299 91.9546 186.045C91.3432 188.245 90.1311 190.297 88.3519 191.739C88.0719 192.02 87.509 192.277 87.0267 192.577C86.2484 192.165 85.493 191.725 84.7858 191.255C81.0076 188.494 77.3852 185.489 73.8134 182.48C65.3736 174.872 58.1249 166.082 51.2872 157.049C48.2347 152.767 44.7315 148.577 43.3077 143.428C43.2029 142.851 43.0728 142.276 43.0438 141.692C45.7035 139.021 48.6784 136.447 52.2842 135.167ZM37.3313 145.006C37.2712 144.909 37.2112 144.813 37.1259 144.719C37.2618 144.808 37.3906 144.822 37.5195 144.835C37.4712 144.865 37.4024 144.948 37.3313 145.006ZM36.0321 143.111C35.446 142.298 34.8576 141.46 34.3222 140.643C31.7461 136.545 29.1471 132.476 27.274 127.981C27.5246 127.932 27.7475 127.86 27.9704 127.788C29.9767 133.164 32.9482 138.219 36.0321 143.111ZM98.1466 171.997C97.4906 167.695 97.6669 163.29 98.7292 159.083C100.836 151.845 104.526 145.173 108.854 139.055C111.604 135.431 114.823 132.197 117.96 128.894C120.821 125.922 123.761 122.969 127.307 120.776C130.337 119.065 130.028 120.676 131.838 122.574C134.991 125.469 138.954 127.754 140.978 131.673C139.443 136.281 137.617 140.788 135.5 145.17C131.878 153.392 127.585 161.267 122.807 168.856C120.302 172.917 117.828 177.026 115.134 180.976C113.412 183.306 111.822 185.954 109.339 187.512C102.586 186.509 99.1376 177.977 98.1466 171.997ZM152.026 141.257C152.771 147.337 149.366 153.242 146.611 158.448C142.643 165.145 138.493 171.809 133.9 178.105C130.786 182.197 127.033 185.736 123.046 188.939C120.777 190.605 118.479 192.503 115.681 193.147C115.031 193.284 114.336 193.221 113.68 193.027C115.942 191.566 119.77 186.642 120.354 185.797C120.895 185.032 121.464 184.29 122.005 183.525C122.255 183.196 122.185 182.718 121.858 182.493C121.528 182.243 121.078 182.336 120.826 182.64C120.05 183.631 119.275 184.622 118.472 185.59C117.741 186.5 117.009 187.41 116.25 188.297C115.328 189.353 114.378 190.385 113.368 191.321C113.093 191.653 112.532 191.935 112.234 192.294C112.126 192.228 112.015 192.136 111.905 192.044C111.734 191.856 111.589 191.666 111.443 191.475C111.705 191.272 111.937 191.021 112.127 190.875C113.75 189.397 115.315 187.848 116.88 186.299C120.713 182.523 123.851 178.148 126.695 173.622C127.72 172.022 128.691 170.4 129.716 168.799C130.225 167.961 128.926 167.164 128.387 167.954C125.854 171.711 123.485 175.58 120.758 179.177C118.694 181.946 116.301 184.465 113.878 186.936C112.877 187.973 111.849 188.988 110.819 189.977C110.71 189.63 110.624 189.255 110.54 188.906C112.738 187.578 114.3 185.443 115.848 183.436C118.588 179.71 120.999 175.735 123.464 171.806C128.557 163.754 133.269 155.456 137.072 146.707C139.249 142.142 141.106 137.427 142.491 132.578C142.869 132.798 143.267 132.965 143.642 133.159C143.546 133.219 143.454 133.33 143.39 133.464C142.159 138.324 140.539 143.119 138.357 147.634C136.771 150.869 135.085 154.139 133.398 157.383C133.203 157.758 133.324 158.232 133.701 158.452C134.077 158.647 134.55 158.526 134.77 158.148C135.707 156.428 136.671 154.731 137.611 153.036C138.829 150.779 140.018 148.474 141.047 146.107C142.656 142.283 143.992 138.281 144.76 134.203C144.817 133.994 144.801 133.817 144.759 133.642C145.21 133.83 145.659 133.992 146.11 134.18C146.092 134.258 146.071 134.311 146.051 134.364C145.667 135.446 145.283 136.528 144.927 137.632C144.422 139.057 143.967 140.477 143.487 141.9C143.346 142.296 143.514 142.739 143.91 142.881C144.281 143.025 144.747 142.828 144.892 142.458C145.422 141.031 146.005 139.624 146.485 138.202C146.864 137.069 147.218 135.939 147.519 134.788L147.517 134.763C148.129 135.038 148.721 135.365 149.269 135.773C150.967 137.018 151.681 139.197 152.026 141.257ZM147.574 129.629C147.277 130.55 146.983 131.496 146.711 132.414C146.69 132.467 146.668 132.495 146.672 132.545C146.329 132.424 145.984 132.278 145.641 132.157C145.895 131.597 146.089 130.941 146.309 130.564C147.263 128.204 148.164 125.824 148.802 123.366C149.484 120.827 150.009 118.253 150.328 115.646C150.363 114.928 150.55 114.196 150.482 113.463C150.585 113.479 150.691 113.52 150.795 113.536C151.13 113.581 151.459 113.55 151.763 113.522C151.422 114.523 151.324 115.655 151.009 116.654C149.99 121.061 148.991 125.389 147.574 129.629ZM157.428 99.2931C157.025 102.367 156.583 105.291 155.348 108.187C154.604 109.787 153.62 111.818 151.619 111.979C149.97 112.082 148.453 110.59 147.45 109.408C146.009 107.629 145.789 105.276 145.711 103.064C145.665 99.0115 145.511 94.8926 146.882 90.9887C147.195 91.0616 147.505 91.1092 147.816 91.1568C147.734 91.3685 147.674 91.5527 147.592 91.7645C146.957 93.7117 146.663 95.7548 146.699 97.7925C146.708 98.7101 146.74 99.6002 146.749 100.518C146.739 100.953 147.08 101.329 147.515 101.34C147.949 101.35 148.326 101.009 148.336 100.574C148.378 99.6517 148.417 98.704 148.459 97.7816C148.506 96.3739 148.604 94.9615 148.831 93.5626C148.968 92.8355 149.079 92.1107 149.268 91.4042C149.475 91.4359 149.657 91.47 149.861 91.4764C149.523 92.503 149.497 94.1383 149.395 94.6837C149.311 95.4314 149.256 96.202 149.182 97.0508C149.148 97.5132 149.568 97.9079 150.003 97.9184C150.465 97.9518 150.862 97.5576 150.87 97.0976C150.996 95.7081 151.068 94.2981 151.194 92.9086C151.159 92.5292 151.344 92.0527 151.38 91.6156C151.817 91.6514 152.252 91.6619 152.686 91.6724C152.689 91.6977 152.693 91.7483 152.67 91.776C152.608 92.4707 152.57 93.1631 152.533 93.8555C152.486 94.7273 152.442 95.6244 152.421 96.4938C152.413 96.9538 152.78 97.3279 153.217 97.3637C153.651 97.3742 154.076 97.003 154.087 96.5683C154.108 95.6988 154.152 94.8017 154.147 93.9346C154.152 93.1687 154.135 92.4305 154.165 91.6622C155.384 91.5996 156.619 91.4335 157.839 91.1157C158.197 93.8634 157.762 96.5829 157.428 99.2931ZM19.0994 98.3042C17.6408 93.0567 16.821 87.5454 16.7695 82.0647C16.455 54.8703 35.9076 31.1663 61.3753 23.0012C97.1563 10.7878 140.248 28.8418 152.861 65.3509C154.614 70.4691 155.748 75.7979 156.076 81.2274C156.198 83.3592 156.262 85.4199 156.182 87.5705C156.266 88.2006 155.905 89.2548 156.167 89.8683C155.235 90.0061 154.297 90.068 153.357 90.1046C153.352 90.054 153.345 89.9782 153.34 89.9276C153.342 85.8451 152.912 81.7774 152.13 77.7679C144.468 38.8073 102.093 16.1195 65.0518 29.5984C44.9888 36.622 28.8823 54.0694 24.1362 74.872C22.6437 81.0325 22.1453 87.4575 22.5576 93.7976C22.7498 96.4077 23.0684 99.006 23.6124 101.558C23.8278 102.227 23.9032 103.036 24.0957 103.732C23.2087 104.07 22.3675 104.353 21.4205 104.594C21.3446 104.601 21.2434 104.611 21.1699 104.643C20.4383 102.542 19.6839 100.47 19.0994 98.3042ZM16.5812 106.601C18.4419 106.581 20.3208 106.483 22.146 106.083C22.9207 105.909 23.6607 105.636 24.3984 105.337C24.3767 105.926 24.5368 106.549 24.5681 107.158C24.7653 107.905 24.5766 108.893 25.1161 109.48C25.6439 109.941 26.5168 109.452 26.4278 108.771C26.2947 107.89 26.164 107.035 26.0056 106.157C25.9149 105.732 25.8772 105.327 25.8119 104.899C25.8071 104.849 25.7795 104.826 25.7495 104.777C26.1677 104.611 26.5883 104.47 27.0112 104.354C27.4654 104.847 27.5844 105.576 27.8204 106.192C28.1264 107.286 28.3543 108.362 28.5845 109.463C28.9983 111.44 29.2692 113.252 29.4878 115.324C29.6346 117.173 29.8666 122.126 28.6811 124.737C28.6788 124.712 28.6741 124.661 28.6464 124.638C28.0248 122.349 27.3527 120.064 26.7793 117.745C26.7474 116.855 25.5509 116.609 25.3298 117.523C25.5473 120.13 26.3742 122.707 27.3159 125.145C27.48 125.538 27.8483 125.657 28.1701 125.55C27.826 125.965 27.3943 126.26 26.8907 126.333C23.7107 126.706 21.7014 124.035 20.2744 121.591C17.9601 117.291 14.9526 111.575 16.5812 106.601Z" fill="#596576"/>
<path fill-rule="evenodd" clip-rule="evenodd" d="M122.136 133.735C122.824 132.905 121.579 131.873 120.889 132.677C119.423 134.472 117.905 136.247 116.55 138.134C114.394 141.013 112.485 144.074 110.657 147.179C109.291 149.5 107.953 151.845 107.042 154.379C106.758 155.171 106.477 155.988 106.249 156.826C106.155 157.192 106.446 157.573 106.812 157.666C107.564 157.8 107.712 156.919 107.943 156.387C108.732 154.451 109.739 152.393 110.816 150.532C114.115 144.586 117.886 139.055 122.136 133.735Z" fill="#596576"/>
<path fill-rule="evenodd" clip-rule="evenodd" d="M107.589 147.388C108.489 147.738 108.861 146.53 109.348 146C110.623 144.35 111.815 142.631 113.007 140.913C113.63 139.936 112.191 138.999 111.537 139.927C110.501 141.402 109.442 142.904 108.459 144.399C108.122 145.17 106.488 146.802 107.589 147.388Z" fill="#596576"/>
<path fill-rule="evenodd" clip-rule="evenodd" d="M80.412 166.225C81.308 166.804 82.1537 165.475 81.3083 164.891C79.5898 163.699 77.8689 162.481 76.1963 161.234C70.5689 156.426 65.2272 150.851 62.263 143.958C62.1983 143.811 62.1312 143.639 62.0917 143.489C61.8116 142.673 60.5681 143.019 60.7217 143.847C62.4793 150.112 67.0997 155.065 71.5788 159.598C74.1011 162.297 77.181 164.408 80.412 166.225Z" fill="#596576"/>
<path fill-rule="evenodd" clip-rule="evenodd" d="M75.2734 156.268C74.2638 155.29 73.2542 154.313 72.2446 153.335C71.9081 153.01 71.4862 152.59 71.1379 152.137C70.9484 151.747 70.5154 151.481 70.1019 151.698C68.3285 152.654 73.3723 156.675 74.1219 157.6C74.9561 158.339 76.1124 157.057 75.2734 156.268Z" fill="#596576"/>
<path fill-rule="evenodd" clip-rule="evenodd" d="M72.684 334.089C72.134 333.936 71.584 333.783 71.0616 333.653C72.8355 331.88 72.636 328.097 71.6286 326.048C70.7782 324.316 69.1174 323.195 67.5419 322.168C64.8539 320.428 61.893 319.046 58.7134 318.602C56.7509 318.351 54.669 318.188 52.7732 318.926C48.6669 320.584 48.0288 325.236 51.2023 328.079C50.8135 328.013 50.4364 328.074 50.2765 328.548C50.1807 328.889 50.3425 329.256 50.6625 329.405C54.1512 331.249 58.0356 332.137 61.7847 333.216C65.315 334.137 68.7953 335.344 72.4437 335.616C73.3131 335.637 73.5012 334.37 72.684 334.089ZM54.8564 326.769C54.445 325.914 53.7443 325.24 54.2871 324.22C55.3669 322.665 59.1355 324.227 60.5492 324.886C63.1442 326.175 66.2787 328.052 67.9792 330.419C63.5289 329.482 59.1926 328.125 54.8564 326.769Z" fill="#FF6853"/>
<path fill-rule="evenodd" clip-rule="evenodd" d="M54.4951 340.146C51.6955 339.948 49.3178 340.17 47.3564 342.394C44.7803 345.415 45.31 346.718 48.3257 348.963C49.2312 349.644 50.226 350.189 51.2185 350.709C54.7924 352.646 58.9156 353.359 62.9422 353.035C65.7411 352.953 69.7591 350.894 68.1738 347.572C66.0743 343.66 58.8082 340.433 54.4951 340.146ZM62.2315 348.968C60.7715 349.18 59.2785 349.039 57.8701 348.711C55.4305 347.994 52.4439 347.431 50.4759 345.751C51.4933 344.075 54.9865 344.872 56.673 345.174C58.5879 345.735 62.1053 347.066 63.2774 348.692C62.935 348.851 62.5556 348.887 62.2315 348.968Z" fill="#FF6853"/>
<path fill-rule="evenodd" clip-rule="evenodd" d="M70.6174 370.231C70.8637 369.315 70.0736 368.776 69.2459 368.93C64.3476 369.208 59.4539 369.536 54.5243 369.205C54.0845 366.949 53.3024 364.853 51.8791 362.996C49.342 359.865 45.7991 357.439 41.8159 356.586C38.8569 356.045 35.1103 356.088 33.2489 358.838C29.9361 363.535 33.8606 368.962 38.1624 371.316C39.376 372.02 42.7076 373.546 43.9522 372.665C47.8441 372.812 51.7272 373.139 55.6279 373.107C60.3175 373.053 65.0141 373.075 69.673 372.692C71.1219 372.633 70.5528 371.181 70.6174 370.231ZM41.2737 368.016C39.917 367.147 38.6221 366.119 37.7771 364.718C37.3664 364.144 37.2586 363.261 37.768 362.704C38.5879 362.193 39.635 362.479 40.5392 362.598C41.7911 362.89 42.94 363.446 44.0684 364.056C45.9316 365.158 47.756 366.391 49.1833 368.018C46.5868 368.082 43.8908 367.899 41.2737 368.016ZM68.8733 370.955C68.1351 370.972 67.3968 370.99 66.6332 371.01C65.7938 371.037 64.9773 371.037 64.1355 371.039C65.7109 370.969 67.2997 370.77 68.8798 370.75C68.8868 370.826 68.8915 370.876 68.8733 370.955Z" fill="#FF6853"/>
<path fill-rule="evenodd" clip-rule="evenodd" d="M81.6327 309.373C81.6709 305.951 79.9386 302.693 77.5481 300.314C76.8426 299.588 76.1166 298.916 75.3859 298.193C75.0217 297.845 74.4811 297.793 74.1047 298.134C73.7282 298.475 73.7319 299.062 74.0455 299.415C75.284 300.933 76.759 302.25 77.9034 303.853C78.603 305.063 79.4233 306.747 79.5971 308.338C78.0235 308.153 76.484 307.786 74.9991 307.185C71.2882 305.694 63.4174 302.549 62.3637 298.361C62.299 298.214 62.2848 298.062 62.2707 297.91C62.5466 297.859 62.8225 297.808 63.0754 297.784C63.126 297.78 63.1537 297.802 63.2042 297.798C63.9468 298.647 64.8087 299.409 65.8312 299.977C66.7248 300.531 67.6258 299.248 66.7986 298.585C66.2567 297.973 65.7148 297.36 65.1018 296.804C64.1222 295.875 63.3585 294.798 62.473 293.784C62.0811 293.412 61.4305 293.549 61.1947 294.03C60.9225 294.668 61.5126 295.251 61.7944 295.811C61.8845 295.956 61.9721 296.076 62.0369 296.223C61.2575 296.346 60.4693 296.649 60.1387 296.935C57.5301 298.786 58.8702 302.488 60.3012 304.702C63.5827 309.525 70.6866 314.297 76.6639 314.097C79.4516 314.169 81.5078 312.14 81.6327 309.373Z" fill="#FF6853"/>
<path fill-rule="evenodd" clip-rule="evenodd" d="M95.7364 286.04C98.2924 286.363 101.022 284.986 101.941 282.528C103.829 277.326 100.36 272.138 98.0064 267.688C97.3044 266.452 96.5289 265.249 95.6569 264.105C95.1474 263.566 94.6177 262.263 93.7337 262.907C93.449 263.137 93.3626 263.579 93.5703 263.892C94.2929 265.074 94.9166 266.292 95.6139 267.477C96.852 269.811 98.7679 272.847 99.8372 275.835C99.8396 275.86 99.8419 275.886 99.8443 275.911C99.9126 276.644 100.011 277.426 99.8241 278.158C99.4748 279.339 98.6543 279.568 97.6112 279.053C95.9075 278.293 94.4419 277.078 93.004 275.885C90.4577 273.749 87.8325 271.315 85.215 269.237C81.9386 266.659 80.8441 264.771 78.942 269.822C78.8985 269.902 78.8779 269.955 78.8597 270.034C78.5332 270.09 78.2485 270.32 78.1874 270.76C73.9851 268.651 71.0474 272.446 71.114 276.445C71.5222 283.015 77.7621 292.206 84.085 294.346C86.7965 295.242 88.8775 294.027 88.857 291.07C88.7757 286.638 86.2819 282.329 84.3871 278.423C87.4972 281.68 91.0291 285.356 95.7364 286.04ZM86.8314 289.319C85.4929 288.373 84.2645 287.237 83.1072 286.043C80.1947 282.717 77.0517 279.107 75.855 274.753C75.7037 273.951 75.4159 272.778 76.2358 272.268C76.2105 272.271 76.1852 272.273 76.137 272.303C76.1623 272.301 76.2105 272.271 76.2358 272.268C76.8035 272.062 77.3882 272.314 77.9588 272.414C78.1659 272.446 78.3383 272.378 78.4782 272.238C78.5035 272.235 78.5265 272.208 78.5518 272.205C80.33 275.408 82.2024 278.524 83.7853 281.821C84.555 283.51 86.2527 286.669 86.8314 289.319Z" fill="#FF6853"/>
<path fill-rule="evenodd" clip-rule="evenodd" d="M115.478 269.275C116.057 268.914 116.583 268.534 117.071 268.029C119.467 265.535 120.763 261.919 120.212 258.475C119.735 254.998 116.763 251.856 113.394 251.022C110.605 250.389 107.792 251.416 105.007 251.37C103.135 251.264 101.281 250.543 99.8412 249.325C98.3298 248.165 96.5546 245.269 98.6973 243.895C98.6973 243.895 98.7226 243.893 98.7203 243.868C99.4227 244.287 99.8088 245.144 100.53 244.669C101.496 243.813 99.5542 242.412 98.7947 242.202C94.7285 241.28 93.2598 245.78 94.5251 248.953C95.5898 251.89 98.0308 254.265 100.831 255.561C102.615 256.364 104.546 256.822 106.506 257.047C108.031 257.262 109.639 257.266 111.08 257.948C112.63 258.696 113.735 260.15 114.513 261.659C115.372 263.212 115.418 265.07 114.886 266.753C113.652 270.21 111.575 269.281 108.941 268.123C108.916 268.126 108.888 268.103 108.863 268.105C108.616 267.643 108.396 267.205 108.172 266.715C108.038 266.37 107.589 266.208 107.244 266.342C106.392 266.779 107.096 267.759 107.334 268.401C107.755 269.356 108.176 270.312 108.622 271.266C108.945 272.001 110.058 271.897 110.218 271.143C110.275 270.933 110.228 270.708 110.133 270.513C110.106 270.49 110.101 270.439 110.073 270.416C110.872 270.775 111.712 271.029 112.595 270.921C113.784 270.81 114.769 270.157 115.478 269.275Z" fill="#FF6853"/>
<path fill-rule="evenodd" clip-rule="evenodd" d="M130.684 251.197C131.571 251.675 132.122 250.476 132.553 249.9C132.807 249.34 133.645 248.471 133.356 247.835C133.342 247.683 133.302 247.534 133.187 247.391C131.651 245.698 130.022 244.089 128.415 242.453C124.247 238.249 119.937 234.16 115.934 229.813C115.876 229.741 115.821 229.696 115.768 229.675C116.75 228.435 117.706 227.198 118.632 225.913C118.874 226.043 119.137 226.121 119.374 226.201C119.742 226.319 120.178 226.075 120.297 225.706C120.496 225.101 119.879 224.776 119.4 224.565C119.16 224.46 118.944 224.327 118.693 224.376C118.617 224.383 118.542 224.39 118.493 224.42C118.311 224.386 118.134 224.403 117.944 224.548C117.707 224.749 117.499 224.972 117.29 225.196C115.048 227.701 112.948 230.346 110.844 232.966C109.932 234.123 109.047 235.302 108.272 236.574C107.761 237.387 108.839 238.001 109.433 238.353C109.755 238.527 110.16 238.49 110.387 238.188C110.777 237.718 110.394 237.167 109.984 236.873C110.782 235.855 111.58 234.836 112.406 233.841C114.004 235.937 115.888 237.803 117.698 239.701C121.589 243.676 125.646 247.507 129.955 251.035C130.178 251.244 130.461 251.269 130.684 251.197Z" fill="#FF6853"/>
<path fill-rule="evenodd" clip-rule="evenodd" d="M261.949 373.245C260.732 371.956 259.281 370.892 257.811 369.906C250.25 365.431 237.985 362.773 229.283 364.119C229.159 364.157 229.062 364.217 228.936 364.228C228.344 362.804 228.383 360.759 228.214 359.218C228.01 357.579 227.831 355.937 227.678 354.293C227.353 351.083 227.105 347.866 226.856 344.649C226.493 339.937 226.03 335.234 226.226 330.496C226.38 328.593 226.758 326.619 227.013 324.707C227.242 323.053 227.721 321.35 228.917 320.218C229.573 319.596 230.428 319.184 231.227 318.727C234.454 316.946 238.726 314.048 239.414 310.208C239.932 307.276 239.861 304.323 240.096 301.367C240.632 294.531 240.86 287.671 241.013 280.819C241.243 281.104 241.52 281.333 241.865 281.48C242.102 281.56 242.335 281.589 242.535 281.545C242.202 288.924 241.768 296.313 242.254 303.718C242.51 307.291 242.693 310.897 243.352 314.408C243.667 315.603 243.741 317.765 245.313 317.925C245.899 317.921 246.487 317.662 246.997 317.385C249.054 316.453 249.055 314.004 249.334 312.064C249.91 307.571 249.909 303.183 249.871 298.67C249.889 293.387 250.443 288.105 249.849 282.828C249.63 280.476 249.434 278.096 248.612 275.85C248.173 274.692 247.602 273.495 246.632 272.667C246.274 272.394 245.759 272.06 245.298 272.051C245.017 271.491 244.638 270.99 244.095 270.633C243.141 269.982 241.96 270.449 241.272 271.278C241.433 264.247 241.672 257.234 242.192 250.22C243.154 233.163 246.05 215.773 241.375 199.012C240.225 193.787 237.916 188.721 233.669 185.315C228.369 181.012 220.976 178.614 214.344 181.095C200.723 185.783 197.438 201.729 195.345 214.324C193.368 225.684 193.53 237.278 193.197 248.765C193.029 256.001 193.349 263.268 193.667 270.51C192.159 269.936 190.854 271.257 190.057 272.836C188.699 272.504 186.977 272.919 186.61 274.459C186.072 276.346 186.233 278.347 186.184 280.29C186.062 284.18 186.473 288.045 186.68 291.904C186.787 294.701 186.718 297.514 186.8 300.313C186.971 304.889 187.474 309.46 188.176 313.988C188.492 316.28 188.909 318.563 189.45 320.809C189.935 323.545 191.488 323.783 193.951 323.655C196.242 323.875 196.161 317.81 196.243 316.221C196.248 315.174 196.277 314.126 196.307 313.077C197.224 314.701 199.199 316.456 200.164 317.233C200.653 317.545 201.141 317.857 201.627 318.143C201.528 318.178 201.457 318.235 201.363 318.321C192.85 332.381 187.389 347.969 180.587 362.866C175.798 373.084 169.543 382.622 162.398 391.376C158.939 371.772 145.521 355.647 124.037 360.022C104.12 363.409 94.4442 382.783 105.358 400.238C118.333 419.823 147.384 411.503 160.786 396.527C162.156 413.137 152.615 430.126 138.332 438.396C122.82 446.348 102.669 449.961 87.2434 439.943C67.9672 427.757 63.2919 403.597 60.0359 382.622C59.6769 381.507 59.7503 377.367 58.2097 377.536C57.8074 377.599 57.5115 377.984 57.524 378.391C57.8903 384.786 59.2179 391.092 60.2649 397.399C61.5943 404.546 63.7997 411.51 66.5956 418.241C73.5018 436.222 91.5811 450.076 111.282 448.469C123.632 447.395 136.394 443.884 146.109 435.886C157.74 425.719 165.166 409.846 162.872 394.266C169.692 386.41 175.438 377.71 180.319 368.478C185.208 359.067 188.739 349.043 192.91 339.316C195.358 333.832 198.11 328.319 200.771 322.917C201.384 321.559 202.209 320.283 202.666 318.888C202.684 318.81 202.68 318.759 202.672 318.684C204.305 319.501 205.999 320.159 207.755 320.659C209.065 321.022 210.688 320.922 211.764 321.791C212.453 322.339 212.934 323.111 213.338 323.89C216.269 329.332 216.403 335.978 217.142 341.982C217.927 348.491 218.661 355.006 219.601 361.526C219.75 362.584 219.875 363.644 219.999 364.704C218.913 364.55 217.578 365.006 216.568 365.126C213.067 365.886 209.657 367.071 206.373 368.525C203.242 369.965 200.186 371.679 197.42 373.748C195.432 375.413 193.746 377.586 192.797 379.996C192.567 380.808 192.263 381.653 192.242 382.523C189.272 383.514 186.961 388.832 187.205 391.718C187.517 400.823 207.983 401.952 214.871 401.948C222.468 401.878 229.998 400.538 237.458 399.282C246.626 397.458 256.035 395.203 264.002 390.072C267.252 387.983 271.068 384.847 270.798 380.585C270.225 376.352 265.875 374.028 261.949 373.245ZM244.166 280.985C244.155 280.858 244.143 280.732 244.083 280.635C244.108 280.633 244.106 280.608 244.131 280.605C245.517 279.047 246.078 276.852 245.937 274.798C245.921 274.621 245.879 274.447 245.865 274.295C246.524 275.075 246.826 276.119 247.145 277.084C248.078 280.799 248.085 284.702 248.208 288.492C248.17 291.914 247.849 295.312 247.887 298.728C247.928 302.73 247.921 306.761 247.58 310.773C247.511 311.673 247.416 312.575 247.322 313.477C247.176 314.919 247.11 315.588 245.605 316.137C245.219 314.999 245.082 313.813 244.896 312.631C244.232 306.876 243.92 301.062 243.865 295.275C243.801 290.485 244.329 285.741 244.166 280.985ZM129.559 409.694C121.6 410.257 112.973 407.208 108.128 400.669C103.811 394.591 101.504 386.539 103.579 379.227C107.505 365.237 124.052 359.357 137.281 362.232C151.408 365.432 158.533 380.561 160.423 393.729C152.615 402.749 141.485 408.71 129.559 409.694ZM197.334 214.037C198.42 207.889 199.496 201.64 201.969 195.872C205.17 188.609 211.467 182.256 219.818 182.064C225.796 182.145 231.634 185.377 235.285 190.063C237.982 193.537 238.877 197.944 239.83 202.142C241.536 209.229 241.874 216.418 241.654 223.633C240.013 222.179 237.982 221.194 236.032 220.253C224.985 215.338 209.899 215.8 198.828 220.48C198.044 220.834 197.318 221.259 196.57 221.711C196.476 221.797 196.354 221.859 196.257 221.919C196.548 219.289 196.889 216.655 197.334 214.037ZM196.046 224.031C196.119 223.998 196.165 223.943 196.239 223.911C201.903 220.347 208.745 219.301 215.278 218.769C224.233 218.215 234.157 220.122 241.518 225.457C241.545 225.48 241.571 225.478 241.573 225.503C241.555 225.862 241.54 226.246 241.523 226.605C240.824 225.956 239.979 225.371 239.626 225.149C238.323 224.301 236.934 223.639 235.5 223.033C224.079 218.204 209.984 220.002 198.824 224.818C197.769 225.274 196.752 225.853 195.819 226.527C195.919 225.676 195.995 224.852 196.046 224.031ZM194.134 287.842C194.258 292.729 194.156 297.662 194.485 302.556C194.467 302.634 194.448 302.713 194.455 302.788C194.342 306.499 194.61 310.199 194.345 313.923C194.213 316.614 194.396 319.404 193.618 322.002C192.971 321.909 192.222 322.081 191.656 321.751C191.228 321 191.268 320.053 191.038 319.232C190.51 316.577 190.152 313.829 189.768 311.084C188.844 304.995 188.807 298.85 188.719 292.709C188.449 287.887 187.98 283.134 187.985 278.26C188.062 277.436 187.669 274.59 188.701 274.443C188.954 274.419 189.179 274.372 189.435 274.374C189.339 274.715 189.268 275.053 189.221 275.364C188.729 277.757 189.382 281.472 191.873 282.465C192.83 282.605 193.537 282.259 194.044 281.675C194.111 283.761 194.148 285.799 194.134 287.842ZM210.283 319.582C208.157 319.219 206.127 318.515 204.179 317.599C201.409 316.352 198.78 314.428 197.351 311.678C197.329 311.451 197.262 311.278 197.145 311.111C196.119 305.312 196.065 299.526 196.077 293.631C196.153 281.581 195.441 269.554 195.084 257.519C195.207 247.888 195.071 238.206 195.707 228.604C195.755 228.574 195.803 228.544 195.851 228.514C196.405 228.156 197.002 227.718 197.583 227.383C198.529 226.861 199.511 226.438 200.492 226.015C204.991 224.192 209.761 223.084 214.573 222.432C223.056 221.463 232.17 222.348 239.495 227.024C240.177 227.496 240.792 228.076 241.382 228.659C241.382 228.659 241.385 228.685 241.41 228.682C240.989 235.661 240.236 242.646 239.861 249.57C238.754 262.328 239.003 275.138 238.538 287.939C238.105 294.792 238.157 301.65 237.545 308.494C237.443 309.32 237.33 310.3 237.132 311.186C236.701 311.762 236.22 312.342 235.761 312.895C233.674 315.412 231.055 317.161 228.156 318.35C227.953 318.369 227.73 318.441 227.565 318.583C225.249 319.463 222.773 320 220.273 320.284C217.01 320.588 213.573 320.117 210.283 319.582ZM195.561 378.718C196.838 376.813 198.421 375.186 200.403 374.006C203.293 372.155 206.58 370.47 209.827 369.173C212.633 368.069 215.531 367.136 218.515 366.577C218.991 366.482 219.596 366.4 220.154 366.373L220.18 366.371C220.506 369.326 220.86 372.303 221.462 375.207C221.784 377.014 222.049 379.311 223.891 380.186C225.922 381.17 230.233 381.432 230.778 378.523C230.962 377.485 230.686 376.44 230.44 375.442C230.048 373.973 230.038 372.494 229.823 371.009C229.582 369.245 229.343 367.507 229.102 365.744C240.098 364.642 251.469 367.563 260.552 373.86C260.506 373.916 260.461 373.971 260.389 374.029C258.717 375.792 256.903 377.415 254.975 378.896C250.022 382.7 244.288 385.505 238.263 387.113C235.351 387.895 232.334 388.099 229.41 388.754C225.936 389.537 222.183 389.785 218.632 389.733C214.312 389.651 210.024 389.081 205.788 388.251C202.271 387.482 198.638 386.825 195.547 384.868C194.886 384.343 193.93 383.667 193.896 382.751C194.118 381.302 194.756 379.941 195.561 378.718ZM268.394 383.539C266.658 386.533 263.513 388.383 260.582 390.059C251.131 395.15 240.378 396.943 229.89 398.558C221.652 399.964 213.325 400.689 205.004 399.551C201.233 399.06 197.423 398.42 193.868 396.965C189.453 395.31 187.668 392.313 189.781 387.88C190.353 386.628 191.057 385.414 192.092 384.476C192.232 384.335 192.399 384.217 192.595 384.123C193.479 385.673 194.928 386.712 196.581 387.476C195.815 387.471 195.28 388.848 194.9 389.419C194.563 390.19 193.37 391.347 194.402 392.017C195.523 392.55 195.807 390.942 196.277 390.235C196.513 389.753 196.749 389.272 197.037 388.812C197.315 388.505 197.477 388.056 197.164 387.703L197.136 387.68C198.49 388.242 199.958 388.667 201.293 389.027C204.059 389.688 206.871 390.293 209.717 390.717C209.332 391.518 209.134 392.404 208.853 393.221C208.714 393.643 209.037 394.097 209.456 394.211C209.875 394.325 210.334 394.053 210.446 393.609C210.72 392.716 210.994 391.823 211.242 390.932C213.568 391.251 215.908 391.441 218.233 391.48C218.174 391.664 218.117 391.873 218.085 392.08C217.946 392.782 217.487 393.871 218.458 394.163C219.447 394.377 219.521 393.248 219.634 392.548C219.654 392.215 219.798 391.844 219.793 391.513C220.66 391.509 221.499 391.482 222.362 391.427C226.924 391.104 231.444 390.325 235.932 389.473C238.369 389.068 240.702 388.365 242.991 387.463C243.023 387.537 243.03 387.613 243.06 387.661C243.274 388.866 243.364 390.107 243.531 391.342C243.671 392.299 245.135 392.137 245.099 391.196C244.959 390.52 244.961 388.071 244.392 386.899C245.645 386.374 246.892 385.798 248.14 385.223C249.139 384.722 250.138 384.22 251.133 383.668C251.23 383.889 251.3 384.086 251.346 384.312C251.668 385.302 253.155 384.832 252.861 383.864C252.754 383.543 252.648 383.221 252.541 382.899C256.074 380.835 259.334 378.311 261.594 374.911C262.83 375.307 264.085 375.623 265.238 376.23C267.859 377.517 270.173 380.72 268.394 383.539Z" fill="#596576"/>
<path fill-rule="evenodd" clip-rule="evenodd" d="M133.392 161.16C132.37 160.872 132.199 162.317 131.772 162.944C131.578 163.319 131.728 163.841 132.149 163.98C132.654 164.188 133.074 163.766 133.211 163.32C133.437 162.737 134.35 161.581 133.392 161.16Z" fill="#596576"/>
<path fill-rule="evenodd" clip-rule="evenodd" d="M63.8013 177.442C63.0429 176.697 61.8978 177.824 62.6309 178.572C63.3292 179.221 64.03 179.896 64.7536 180.543C65.4473 181.142 66.0974 181.821 66.8369 182.364C67.4982 182.89 68.3793 181.94 67.7615 181.334C66.4406 180.029 65.1222 178.748 63.8013 177.442Z" fill="#596576"/>
<path fill-rule="evenodd" clip-rule="evenodd" d="M58.2706 171.758C57.9846 171.427 57.4511 171.452 57.1458 171.735C56.3177 172.705 57.9803 173.571 58.481 174.29C58.9605 174.781 59.44 175.272 59.9425 175.735C60.6155 176.387 61.5978 175.428 60.9729 174.746C60.0898 173.757 59.179 172.745 58.2706 171.758Z" fill="#596576"/>
<path fill-rule="evenodd" clip-rule="evenodd" d="M51.3512 164.034C50.6458 163.309 49.5212 164.383 50.2267 165.108C51.3128 166.359 52.4266 167.633 53.6297 168.771C54.2246 169.405 55.2392 168.519 54.7179 167.854C53.6041 166.58 52.465 165.308 51.3512 164.034Z" fill="#596576"/>
<path fill-rule="evenodd" clip-rule="evenodd" d="M149.26 104.468C149.084 103.668 147.847 103.809 147.846 104.625C147.848 105.467 148.045 106.214 148.176 107.07C148.313 107.72 149.27 107.861 149.6 107.294C149.71 107.105 149.742 106.898 149.698 106.698C149.528 105.974 149.382 105.222 149.26 104.468Z" fill="#596576"/>
<path fill-rule="evenodd" clip-rule="evenodd" d="M25.0154 112.781C24.6369 111.183 24.2101 109.616 23.8569 108.016C23.6439 107.372 23.7914 106.491 23.213 106.034C20.6305 105.152 23.3188 112.097 23.4936 113.152C23.7626 114.122 25.2338 113.756 25.0154 112.781Z" fill="#596576"/>
</svg>
