<svg width="525" height="176" viewBox="0 0 525 176" fill="none" xmlns="http://www.w3.org/2000/svg">
<path d="M-5.18945 145.671C-5.18945 145.671 78.4509 145.678 83.7945 145.678C85.697 145.678 88.1225 138.422 86.5914 138.422C85.4241 138.422 89.1533 175.264 81.9072 174.999C74.6612 174.733 87.1447 143.396 91.7379 141.986C94.5727 141.114 95.7172 145.042 94.8455 147.983C94.0345 150.728 91.5029 153.678 88.2058 149.492C89.5702 152.025 91.556 153.526 95.3306 152.305C100.189 150.728 101.22 142.721 104.517 142.6C101.811 143.07 98.8172 148.264 102.759 151.486C104.79 153.147 108.83 152.563 109.936 147.635C111.589 140.272 104.547 140.917 106.844 145.686C108.944 150.038 113.294 149.583 115.144 147.195C117.001 144.806 118.38 141.425 121.328 141.986C116.561 141.455 113.613 151.085 118.388 151.85C122.617 152.533 128.112 134.176 128.044 127.11C127.961 118.337 122.951 122.257 122.397 131.56C121.844 140.818 123.693 151.85 127.847 152.025C132.001 152.199 133.183 143.305 136.154 141.713C138.769 140.31 140.353 142.274 139.974 144.101C140.33 140.037 134.236 139.863 133.789 146.664C133.35 153.465 140.944 154.557 144.476 149.257C148.009 143.957 149.926 140.598 154.777 142.926C149.805 140.272 145.151 146.02 146.917 149.818C148.683 153.617 152.685 151.35 153.837 146.224C154.012 148.817 154.481 152.267 157.839 151.759C160.575 151.35 164.418 143.783 164.934 140.068C165.517 135.882 161.462 140.447 166.321 144.397C170.709 147.961 166.199 154.496 162.637 150.523C166.199 153.852 170.065 152.609 172.293 150.023C174.499 147.46 179.623 139.863 179.449 130.582C179.236 119.626 173.673 127.428 174.203 137.414C174.704 146.861 176.887 152.313 180.419 151.79C183.951 151.266 183.776 145.701 185.808 145.701C203.733 145.701 205.575 145.807 205.575 145.807C205.575 145.807 267.205 145.8 271.229 145.557C295.673 144.101 297.902 140.53 298.478 136.239C299.001 132.357 300.077 125.358 297.356 124.881C294.84 124.433 287.957 122.28 282.682 116.282C277.407 110.285 277.475 98.5174 277.877 88.4407C278.316 77.439 272.525 85.0818 268.766 85.0818C265.007 85.0818 265.09 78.364 268.205 77.5603C271.32 76.7566 269.85 84.7558 269.888 96.2806C269.926 109.041 275.58 134.04 301.555 134.04C324.066 134.04 333.185 114.478 333.185 100.322C333.185 94.2335 332.374 76.0818 335.572 77.5224C338.771 78.963 337.126 86.257 333.503 85.0439C331.275 84.2933 333.473 77.2342 333.17 74.7246C332.851 72.086 329.979 71.9267 330.145 76.0818C330.176 76.8779 330.229 90.6395 330.062 99.9201C329.797 115.206 321.611 130.764 301.191 130.719C281.795 130.681 273.124 112.158 272.442 96.1214C272.025 86.2874 273.003 72.3589 270.6 72.4423C268.198 72.5257 269.797 78.6824 274.36 78.4398C278.915 78.1972 278.915 80.6007 278.915 61.6377C278.915 42.6748 288.708 33.2805 302.23 33.2805C316.866 33.2805 323.945 47.2392 323.945 58.2788C323.945 69.3185 325.969 85.1045 323.566 87.5005C321.163 89.9041 280.363 89.7145 277.717 86.8333C275.08 83.9521 276.52 76.0363 277.24 74.1104C277.96 72.1921 322.407 73.5038 324.741 74.1104C325.378 74.2772 325.961 74.8838 326.06 76.7869C326.318 81.7684 331.479 78.1744 331.403 80.9495C331.328 83.9369 326.136 78.9478 325.817 86.5527C325.552 92.8384 325.832 99.2908 324.741 106.752C322.861 119.512 312.023 122.909 305.269 125.275C302.093 126.382 303.109 135.837 305.466 139.476C307.983 143.358 331.457 145.239 331.858 146.194C332.26 147.157 333.139 151.63 332.336 152.677C331.532 153.716 270.517 153.079 270.199 152.677C269.88 152.275 269.319 147.559 270.919 147.24C271.836 147.058 327.303 147.9 343.356 147.9C377.76 147.9 376.168 140.879 372.924 130.651C364.375 103.643 358.425 71.4187 369.718 43.7893C380.299 17.9114 408.738 -4.76684 446.56 2.43621C485.943 9.94255 506.317 41.037 503.308 80.1761C501.216 107.358 485.625 139.56 483.192 142.683C480.759 145.8 479.493 145.307 488.573 120.202C505.673 72.9048 498.404 60.7127 497.638 59.6285C496.835 58.4987 500.011 56.9747 498.897 55.8146C497.077 53.9115 495.986 48.5509 494.281 43.5315C490.195 31.4911 476.317 5.60556 433.22 4.37725C390.122 3.14894 373.553 41.818 371.598 49.5669C369.642 57.3159 368.081 56.0421 366.936 57.8315C366.557 58.4153 370.825 59.9697 369.248 60.4928C367.672 61.016 365.132 70.1298 367.111 93.9757C369.127 118.36 379.579 144.063 381.982 143.093C384.385 142.122 373.167 106.251 375.789 101.687C378.435 97.0844 383.24 93.6117 392.161 92.6791C400.878 91.7693 411.512 131.682 410.436 136.868C409.852 139.681 393.192 92.2924 398.073 92.2697C402.954 92.2469 413.657 124.418 414.051 134.343C414.445 144.268 408.7 148.681 404.19 149.212C399.68 149.742 393.859 139.309 388.735 120.195C385.067 106.517 385.196 97.1526 383.983 97.3725C382.77 97.5924 380.853 101.262 385.772 120.142C393.124 148.378 400.029 149.727 397.247 149.841C394.465 149.955 391.305 149.386 388.174 149.507C385.044 149.629 363.488 93.4904 371.257 58.1348C377.813 28.3141 406.449 5.81028 439.708 9.35873C472.967 12.9072 491.946 31.3167 497.04 65.6335C500.996 92.2697 474.172 148.522 473.111 149.189C470.936 150.546 466.858 149.94 464.068 149.788C460.809 149.606 469.367 147.9 476.749 119.672C481.683 100.8 479.864 100.496 478.659 100.269C477.446 100.041 477.477 106.046 473.785 119.725C468.639 138.832 462.803 149.257 458.293 148.719C453.783 148.181 447.78 147.847 448.189 137.929C448.599 128.012 459.612 92.0195 464.485 91.792C467.161 91.6707 452.434 137.239 450.501 136.967C449.349 136.807 461.567 91.3674 467.153 91.6631C476.105 92.1408 484.109 96.6294 486.746 101.232C488.96 105.099 480.986 123.592 476.469 139.385C474.217 147.24 476.074 147.938 495.66 147.938C512.934 147.938 524 147.938 524 147.938" stroke="#596576" stroke-miterlimit="10" stroke-linecap="round" stroke-linejoin="round"/>
<path d="M163.6 131.25H190.363" stroke="#596576" stroke-miterlimit="10" stroke-linecap="round" stroke-linejoin="round"/>
</svg>
