<svg width="1400" height="176" viewBox="0 0 1400 176" fill="none" xmlns="http://www.w3.org/2000/svg">
<mask id="mask0_330_10618" style="mask-type:alpha" maskUnits="userSpaceOnUse" x="0" y="0" width="1400" height="176">
<rect width="1400" height="176" rx="20" fill="url(#paint0_linear_330_10618)"/>
</mask>
<g mask="url(#mask0_330_10618)">
<g style="mix-blend-mode:color-dodge" opacity="0.3">
<path d="M168.781 231.283C167.875 231.019 166.992 230.723 166.103 230.4C161.612 228.732 157.16 224.919 152.502 218.749C148.341 213.234 144.073 205.901 139.473 196.34C130.879 178.505 122.425 155.682 113.478 131.528C103.089 103.482 92.3537 74.4804 80.2889 50.2978C66.6113 22.8498 53.3538 6.16855 39.7344 -0.739739C-1.15093 -21.4597 -68.9233 -9.11743 -123.38 0.804222C-143.584 4.4827 -162.684 7.96028 -177.37 9.12623C-193.672 10.4078 -203.203 8.73774 -207.355 3.8509L-206.983 3.53822C-202.945 8.2898 -193.554 9.91868 -177.407 8.643C-162.749 7.48195 -143.673 3.99751 -123.468 0.319031C-75.2416 -8.45895 -16.5649 -19.1533 24.7436 -7.10358C30.1307 -5.53217 35.2261 -3.5736 39.9623 -1.17101C47.2244 2.50442 54.4908 9.05278 61.5841 18.2947C67.9271 26.5647 74.1994 36.9583 80.7261 50.068C92.7958 74.2775 103.54 103.295 113.929 131.341C122.875 155.494 131.321 178.302 139.91 196.11C144.506 205.645 148.757 212.947 152.897 218.443C157.502 224.534 161.867 228.296 166.276 229.94C180.127 235.09 195.9 232.123 214.492 220.891C230.87 210.991 247.009 196.312 262.623 182.117L262.867 181.895C280.426 165.933 301.293 147.515 322.908 131.957C345.331 115.818 365.979 104.624 386.018 97.7064C407.202 90.4082 428.472 87.1933 449.24 88.1463C469.375 89.0805 488.491 93.9036 506.066 102.476C513.438 106.082 520.443 110.422 526.912 115.372C533.126 120.146 539.042 125.637 544.471 131.7C554.715 143.138 563.496 156.701 571.308 173.146C586.983 206.129 596.094 245.863 602.94 280.367L602.467 280.459C588.596 210.62 568.557 133.532 505.847 102.923C470.229 85.5391 427.724 83.8484 386.176 98.1735C340.85 113.809 298.924 149.772 263.195 182.259L262.951 182.481C247.321 196.684 231.164 211.383 214.74 221.308C205.833 226.686 197.789 230.109 190.148 231.76C182.626 233.394 175.45 233.228 168.781 231.283Z" fill="url(#paint1_linear_330_10618)"/>
<path d="M169.801 226.297C168.049 225.786 166.33 225.157 164.62 224.415C159.782 222.315 154.931 218.296 149.789 212.164C145.188 206.673 140.436 199.557 135.245 190.398C125.575 173.32 115.932 151.861 105.729 129.128C94.5901 104.309 83.0585 78.6484 70.481 56.486C60.6253 39.1251 47.3435 18.0208 32.0265 8.88157C-1.80841 -11.2878 -53.849 -8.51064 -100.293 -3.13091C-108.206 -2.21028 -116.001 -1.21663 -123.529 -0.260206C-141.981 2.09165 -159.414 4.31954 -173.178 4.64404C-188.496 5.00033 -197.82 2.96958 -202.516 -1.75702L-202.191 -2.08342C-197.587 2.56526 -188.377 4.54994 -173.187 4.19462C-159.439 3.87846 -142.029 1.64371 -123.577 -0.708149C-116.034 -1.6729 -108.251 -2.66999 -100.326 -3.58719C-80.2866 -5.91008 -54.1087 -8.40773 -29.1954 -7.13906C-17.0088 -6.51969 -5.88568 -5.01083 3.84601 -2.66984C14.6618 -0.0636694 24.2341 3.69859 32.2828 8.48411C38.9038 12.432 45.4601 18.6584 52.3333 27.517C58.077 34.9102 63.9759 44.0462 70.9064 56.2527C83.4923 78.4303 95.0204 104.103 106.171 128.925C116.369 151.631 126.012 173.091 135.674 190.152C146.516 209.294 155.776 220.036 164.824 223.977C190.576 235.19 217.744 217.615 240.916 198.951C247.932 193.276 254.758 187.29 261.154 181.638C286.008 159.661 308.531 140.246 332.276 125.22C340.955 119.749 349.756 115.041 358.419 111.2C367.068 107.367 375.895 104.275 384.649 102.004C397.282 98.7331 410.162 96.8873 422.924 96.5388C436.472 96.1256 449.94 97.5144 462.974 100.653C475.711 103.717 488.094 108.478 499.779 114.797C507.438 118.907 514.782 123.832 521.628 129.415C528.122 134.717 534.378 140.792 540.223 147.487C552.163 161.117 562.554 177.166 571.98 196.571C579.954 212.987 587.339 232.078 594.554 254.948C597.718 264.971 600.694 274.939 603.405 284.549L602.96 284.674C600.249 275.065 597.282 265.112 594.118 255.089C578.639 206.031 561.909 172.945 539.878 147.795C527.786 133.943 514.595 123.292 499.558 115.204C475.7 102.31 449.917 96.1931 422.927 97.0117C410.188 97.3671 397.35 99.1997 384.745 102.466C367.056 107.057 349.965 114.63 332.489 125.626C308.763 140.632 286.266 160.043 261.413 182.02C255.017 187.672 248.176 193.666 241.16 199.341C225.93 211.605 213.569 219.371 202.274 223.747C190.429 228.345 179.74 229.196 169.801 226.297Z" fill="url(#paint2_linear_330_10618)"/>
<path d="M170.993 221.514C168.334 220.738 165.725 219.709 163.148 218.434C157.841 215.801 152.451 211.485 146.665 205.241C141.491 199.66 136.094 192.61 130.156 183.693C119.088 167.076 107.928 146.616 96.1071 124.968C85.2855 105.143 74.0973 84.6494 62.2754 65.8471C49.4592 45.4657 37.7637 27.849 24.3276 18.5182C-8.73283 -4.43737 -58.6688 -5.15597 -98.4928 -3.21843C-107.243 -2.79723 -115.875 -2.21381 -124.221 -1.649C-157.625 0.591613 -186.46 2.53097 -197.672 -7.33789L-197.386 -7.66281C-186.303 2.07912 -157.548 0.154456 -124.246 -2.09008C-115.9 -2.65489 -107.271 -3.22656 -98.5056 -3.65609C-71.9253 -4.95154 -50.9852 -4.36962 -32.6107 -1.81761C-21.3734 -0.262677 -11.0678 2.07981 -1.97967 5.13925C8.06271 8.51533 16.9803 12.9034 24.5702 18.1677C30.7349 22.4548 37.0829 28.9139 43.9655 37.9157C49.8738 45.6632 55.7066 54.5885 62.6469 65.6236C74.4771 84.4411 85.6653 104.935 96.4835 124.772C108.293 146.416 119.456 166.864 130.516 183.466C142.933 202.11 153.361 213.09 163.335 218.055C184.082 228.357 207.367 222.258 238.871 198.265C246.17 192.711 253.299 186.647 259.409 181.41C261.11 179.953 262.8 178.493 264.489 177.034C285.861 158.635 307.956 139.593 331.069 125.812C347.884 115.772 364.973 109.385 383.297 106.293C395.298 104.268 407.311 103.599 420.026 104.245C432.854 104.898 445.679 107.222 458.165 111.145C470.24 114.948 482.141 120.309 493.545 127.069C507.983 135.632 521.039 146.486 533.469 160.271C545.76 173.837 556.794 189.257 567.184 207.412C576.07 222.933 584.542 240.618 593.096 261.479C596.592 270.016 600.326 279.222 603.923 288.682L603.521 288.833C599.936 279.377 596.202 270.17 592.707 261.633C574.385 216.94 556.014 185.762 533.17 160.554C520.768 146.803 507.744 135.971 493.338 127.429C470.03 113.611 445.359 105.955 420.019 104.664C407.343 104.016 395.356 104.68 383.394 106.705C365.124 109.786 348.092 116.152 331.311 126.164C308.237 139.943 286.152 158.95 264.792 177.352C263.102 178.812 261.401 180.268 259.712 181.728C253.602 186.965 246.461 193.025 239.158 198.591C224.111 210.053 211.721 217.045 200.174 220.62C189.693 223.867 180.085 224.166 170.993 221.514Z" fill="url(#paint3_linear_330_10618)"/>
<path d="M172.481 217.022C168.823 215.954 165.222 214.432 161.677 212.453C155.517 209.023 149.188 204.075 142.325 197.325C136.178 191.269 129.697 183.865 122.525 174.677C109.145 157.539 95.4753 136.934 80.9992 115.111C72.2931 101.991 63.2866 88.4133 54.0811 75.2114C52.3012 72.6501 50.5247 70.0771 48.8016 67.5834C37.974 51.8918 27.7492 37.0652 16.6317 28.1427C-7.83161 8.48625 -44.8936 -1.80149 -96.6865 -3.32978C-106.43 -3.61924 -116.08 -3.61368 -125.409 -3.61642C-155.163 -3.60414 -180.854 -3.60643 -192.833 -12.946L-192.585 -13.2695C-180.722 -4.01467 -155.093 -4.01777 -125.417 -4.02712C-116.084 -4.03613 -106.426 -4.02651 -96.6791 -3.74881C-73.1797 -3.0585 -53.3467 -0.693659 -36.0265 3.50356C-25.7385 5.99405 -16.2504 9.17015 -7.79401 12.9515C1.45145 17.0906 9.75639 22.0913 16.8675 27.8158C28.0251 36.7755 38.27 51.6208 49.1143 67.3428C50.8256 69.833 52.6139 72.4095 54.3972 74.959C63.6145 88.1644 72.621 101.742 81.3271 114.862C95.7949 136.67 109.465 157.275 122.833 174.409C137.858 193.648 150.255 205.624 161.864 212.074C183.189 223.936 206.31 219.449 236.853 197.523C244.165 192.279 251.182 186.553 257.689 181.138C261.026 178.359 264.396 175.513 267.661 172.764C287.551 155.989 308.129 138.648 329.869 126.381C338.684 121.409 347.41 117.701 356.53 115.052C364.687 112.683 373.003 111.216 381.947 110.571C393.145 109.766 404.642 110.21 417.116 111.947C440.799 115.243 464.413 124.467 487.295 139.348C500.983 148.255 513.874 159.277 526.712 173.067C550.307 198.239 570.927 228.401 591.626 268.005C592.374 269.423 593.118 270.853 593.866 272.271C597.365 278.958 600.989 285.874 604.428 292.811L604.07 292.988C600.631 286.05 597.007 279.135 593.508 272.447C592.764 271.018 592.016 269.6 591.268 268.182C570.597 228.611 549.982 198.476 526.419 173.326C513.614 159.559 500.742 148.555 487.087 139.67C464.26 124.818 440.701 115.623 417.068 112.328C404.618 110.598 393.148 110.15 381.988 110.953C363.227 112.309 346.733 117.312 330.08 126.71C308.37 138.96 287.819 156.296 267.932 173.06C264.667 175.809 261.297 178.655 257.956 181.445C251.45 186.861 244.417 192.595 237.102 197.851C222.397 208.404 209.612 214.822 198.022 217.452C189.028 219.538 180.597 219.389 172.481 217.022Z" fill="url(#paint4_linear_330_10618)"/>
<path d="M174.368 212.875C169.581 211.479 164.878 209.354 160.194 206.469C125.322 185.04 86.2111 136.58 45.8522 84.5656C41.5675 79.0402 37.5004 73.4251 33.572 67.9908C25.2006 56.4361 17.307 45.5186 8.92472 37.7641C-14.7034 15.9008 -49.625 2.03837 -94.8913 -3.44428C-105.763 -4.76493 -116.611 -5.55531 -127.108 -6.32019C-139.931 -7.25276 -152.042 -8.1309 -162.499 -9.86665C-174.224 -11.8063 -182.313 -14.5741 -187.993 -18.5539L-187.776 -18.8607C-175.455 -10.2126 -153.033 -8.58574 -127.076 -6.69364C-116.578 -5.92876 -105.719 -5.13496 -94.8437 -3.82606C-49.5035 1.6654 -14.503 15.5636 9.18889 37.471C17.603 45.2476 25.5049 56.1803 33.8847 67.7502C37.8131 73.1845 41.8802 78.7996 46.1683 84.3133C86.4988 136.294 125.578 184.731 160.409 206.123C182.391 219.631 205.348 216.756 234.85 196.823C242.482 191.66 249.812 185.872 255.974 180.893C260.408 177.285 264.882 173.587 269.22 170.003C288.167 154.317 307.764 138.107 328.667 126.962C345.244 118.128 361.732 114.285 380.594 114.86C391.067 115.184 401.741 116.702 414.202 119.661C425.529 122.352 437.072 126.536 448.519 132.096C459.204 137.293 470.14 143.865 481.046 151.629C493.842 160.747 506.201 171.627 519.94 185.871C533.158 199.579 545.467 213.738 557.584 229.167C568.694 243.32 579.346 258.17 590.138 274.553C591.817 277.11 593.548 279.708 595.229 282.215C598.435 287.018 601.745 291.991 604.924 296.976L604.61 297.178C601.439 292.208 598.13 287.235 594.923 282.432C593.254 279.929 591.523 277.331 589.832 274.77C567.643 241.061 544.69 212.069 519.671 186.137C505.952 171.912 493.602 161.047 480.826 151.947C458.043 135.717 436.225 125.281 414.119 120.032C401.681 117.08 391.023 115.554 380.585 115.24C361.801 114.662 345.367 118.496 328.85 127.296C307.966 138.421 288.396 154.627 269.464 170.304C265.138 173.892 260.664 177.59 256.218 181.194C250.041 186.182 242.711 191.969 235.064 197.141C220.468 207.012 207.653 212.616 195.891 214.303C188.456 215.376 181.331 214.906 174.368 212.875Z" fill="url(#paint5_linear_330_10618)"/>
<path d="M176.701 209.165C170.702 207.415 164.738 204.54 158.731 200.503C137.6 186.311 118.784 172.143 101.231 157.196C78.5882 137.904 57.7962 117.213 37.6546 93.9417C31.1092 86.3657 25.2376 78.3608 19.5734 70.6078C13.3162 62.0438 7.3912 53.9595 1.23389 47.4156C-27.7825 16.5908 -66.0784 2.70131 -93.0951 -3.5203C-105.197 -6.31029 -117.458 -8.16372 -129.317 -9.95098C-140.208 -11.5966 -150.503 -13.1446 -159.692 -15.2891C-170.016 -17.7006 -177.47 -20.5003 -183.152 -24.1232L-182.965 -24.4134C-170.576 -16.524 -150.501 -13.5014 -129.256 -10.2906C-117.397 -8.50336 -105.125 -6.6465 -93.0108 -3.85307C-75.0608 0.285355 -58.2072 6.38853 -42.9185 14.2687C-25.6009 23.2002 -10.6681 34.2694 1.4809 47.1813C7.65831 53.7439 13.5798 61.8399 19.8606 70.4108C25.5283 78.152 31.3763 86.15 37.9251 93.7143C84.6733 147.758 129.376 180.376 158.929 200.216C181.941 215.658 204.043 214.448 232.812 196.152C240.77 191.097 248.442 185.23 254.236 180.679C259.477 176.541 264.746 172.258 269.85 168.106C288.144 153.213 307.056 137.824 327.453 127.578C336.516 123.023 345.408 120.193 354.619 118.936C362.407 117.876 370.452 117.951 379.218 119.181C391.641 120.916 402.877 124.487 411.266 127.406C431.383 134.398 452.158 146.354 474.771 163.952C489.646 175.528 503.096 188.615 513.145 198.706C542.333 228.024 567.016 254.981 588.627 281.132C591.062 284.075 593.558 287.024 595.977 289.887C599.079 293.561 602.286 297.356 605.377 301.154L605.11 301.37C602.019 297.571 598.812 293.777 595.707 290.114C593.287 287.251 590.791 284.303 588.357 281.359C566.757 255.212 542.075 228.255 512.895 198.952C502.846 188.861 489.404 175.789 474.553 164.22C451.971 146.644 431.232 134.698 411.147 127.729C402.758 124.81 391.545 121.245 379.158 119.521C360.517 116.917 344.136 119.566 327.596 127.875C307.241 138.108 288.333 153.485 270.058 168.358C264.954 172.51 259.684 176.793 254.444 180.931C248.649 185.482 240.966 191.345 232.989 196.421C218.466 205.649 205.628 210.456 193.734 211.109C187.97 211.444 182.311 210.802 176.701 209.165Z" fill="url(#paint6_linear_330_10618)"/>
<path d="M179.366 205.935C177.661 205.437 175.956 204.851 174.243 204.16C168.708 201.958 163.16 198.795 157.262 194.51C145.237 185.769 132.32 178.07 118.654 169.923C104.63 161.557 90.1265 152.91 75.1609 142.303C58.1634 130.262 43.213 117.503 29.4556 103.279C20.7269 94.2623 13.4302 84.0549 6.36731 74.1837C1.96648 68.0501 -2.18541 62.2443 -6.46179 57.0404C-29.0071 29.5837 -59.1368 8.04463 -91.2885 -3.63139C-104.711 -8.50383 -118.628 -11.7212 -132.08 -14.8284C-149.702 -18.9094 -166.358 -22.7596 -178.328 -29.7228L-178.171 -29.9962C-166.249 -23.0468 -149.616 -19.2035 -132.018 -15.1293C-118.554 -12.0187 -104.625 -8.79788 -91.191 -3.92201C-75.7483 1.68024 -60.6905 9.60797 -46.4134 19.6436C-31.288 30.2712 -17.7619 42.7935 -6.22507 56.8414C-1.94036 62.0605 2.21153 67.8663 6.60893 74.0117C13.6635 83.8677 20.9518 94.0599 29.6688 103.073C60.4353 134.855 91.4419 153.345 118.807 169.661C132.485 177.812 145.398 185.522 157.435 194.267C181.559 211.807 202.812 212.149 230.769 195.455C239.005 190.544 246.702 184.85 252.491 180.451C258.357 175.959 264.235 171.254 269.929 166.7C287.747 152.434 306.181 137.671 326.231 128.179C335.456 123.812 344.423 121.424 353.642 120.884C361.318 120.43 369.225 121.282 377.843 123.502C389.018 126.366 399.534 131.004 408.342 135.156C418.192 139.803 428.171 145.675 438.828 153.11C447.917 159.45 457.626 167.03 468.508 176.279C481.281 187.14 493.64 199.156 505.578 210.781L506.374 211.549C522.051 226.805 537.292 240.976 552.018 254.678C564.268 266.062 575.82 276.821 587.152 287.721C590.262 290.709 593.462 293.697 596.557 296.565C599.627 299.426 602.81 302.384 605.889 305.35L605.669 305.579C602.59 302.613 599.419 299.659 596.345 296.809C593.254 293.93 590.051 290.953 586.944 287.954C575.623 277.058 564.06 266.295 551.822 254.914C537.095 241.212 521.855 227.041 506.178 211.785L505.381 211.017C493.444 199.392 481.096 187.379 468.32 176.531C445.022 156.729 426.485 144.06 408.229 135.455C399.433 131.306 388.937 126.687 377.789 123.818C359.171 119.038 343.321 120.477 326.398 128.482C306.378 137.958 287.962 152.701 270.16 166.958C264.478 171.517 258.588 176.218 252.722 180.71C246.93 185.121 239.217 190.822 230.97 195.73C223.596 200.139 216.816 203.254 210.251 205.283C203.771 207.285 197.674 208.148 191.636 207.932C187.47 207.776 183.424 207.119 179.366 205.935Z" fill="url(#paint7_linear_330_10618)"/>
<path d="M182.059 203.134C178.895 202.211 175.714 200.952 172.466 199.353C167.223 196.764 161.761 193.218 155.772 188.549C139.58 175.887 121.311 168.248 101.974 160.157C89.1107 154.771 75.8137 149.207 62.254 141.831C46.9124 133.476 33.4911 123.92 21.2185 112.657C10.2756 102.611 1.81353 90.0983 -6.37309 77.9977C-9.05916 74.0362 -11.5899 70.2859 -14.1735 66.6733C-36.9775 34.8529 -63.7338 9.84357 -89.5098 -3.73772C-104.22 -11.5003 -120.109 -16.4032 -135.484 -21.1434C-149.455 -25.4483 -162.652 -29.515 -173.489 -35.3308L-173.351 -35.5842C-162.538 -29.7752 -149.352 -25.712 -135.394 -21.4105C-120.007 -16.6668 -104.091 -11.7688 -89.3485 -3.98423C-76.328 2.87699 -63.0541 12.6327 -49.9093 25.0183C-37.1511 37.023 -25.0433 50.9949 -13.9 66.5234C-11.3046 70.1394 -8.77392 73.8896 -6.08784 77.8511C2.09043 89.9366 10.5476 102.422 21.4552 112.458C48.8536 137.629 75.9362 148.962 102.121 159.919C121.481 168.017 139.762 175.659 155.985 188.343C177.094 204.839 197.561 212.251 228.77 194.782C235.391 191.072 242.188 186.584 250.78 180.233C257.149 175.505 263.515 170.483 269.663 165.639C287.131 151.871 305.195 137.639 325.029 128.798C334.443 124.614 343.488 122.658 352.692 122.828C360.281 122.974 368.063 124.606 376.479 127.827C387.043 131.866 396.569 137.491 405.417 142.905C423.808 154.153 441.443 169.304 462.248 188.595C469.22 195.057 476.212 201.845 482.975 208.412C488.386 213.666 493.977 219.088 499.603 224.392C525.315 248.65 550.922 268.015 575.68 286.749C578.962 289.237 582.362 291.799 585.664 294.307C589.433 297.18 593.312 299.984 597.06 302.711C600.126 304.932 603.285 307.232 606.365 309.535L606.196 309.766C603.115 307.463 599.957 305.164 596.891 302.942C593.143 300.215 589.267 297.4 585.483 294.535C582.181 292.027 578.784 289.454 575.499 286.977C550.728 268.2 525.123 248.824 499.4 224.562C493.774 219.258 488.186 213.825 482.772 208.583C476.009 202.015 469.017 195.228 462.045 188.765C441.248 169.489 423.637 154.346 405.255 143.113C396.418 137.702 386.9 132.092 376.36 128.06C358.112 121.091 342.316 121.384 325.139 129.034C305.338 137.846 287.287 152.083 269.837 165.831C263.686 170.686 257.323 175.696 250.938 180.432C242.332 186.792 235.531 191.292 228.898 194.998C221.426 199.174 214.581 201.989 207.941 203.575C201.547 205.105 195.516 205.477 189.492 204.69C187.007 204.373 184.54 203.858 182.059 203.134Z" fill="url(#paint8_linear_330_10618)"/>
<path d="M184.679 200.759C173.129 197.389 162.893 189.732 154.312 182.571C136.069 167.32 114.735 162.092 92.1561 156.54C79.4716 153.427 66.3485 150.198 53.0711 145.049C38.0386 139.222 24.9343 131.685 13.02 121.994C-0.258265 111.204 -9.6597 96.0045 -18.7475 81.3054C-19.7717 79.6537 -20.8293 77.9413 -21.8536 76.2897C-46.5304 36.8011 -68.0593 10.5854 -87.6876 -3.85727C-103.563 -15.546 -121.902 -22.376 -139.628 -28.9889C-149.952 -32.8428 -159.713 -36.4816 -168.649 -40.9388L-168.53 -41.1721C-159.603 -36.7301 -149.853 -33.0947 -139.529 -29.2408C-121.779 -22.6211 -103.432 -15.7758 -87.5249 -4.06506C-76.8073 3.82185 -65.341 15.3987 -53.4405 30.344C-43.4455 42.8956 -33.0364 57.878 -21.6139 76.1681C-20.5779 77.8232 -19.5321 79.5322 -18.5079 81.1838C-9.42838 95.8678 -0.0435975 111.036 13.2028 121.805C39.8028 143.412 66.4558 149.962 92.2399 156.296C114.846 161.844 136.211 167.093 154.495 182.382C177.575 201.66 196.796 209.756 226.734 194.06C233.467 190.536 240.556 186.057 249.045 179.969C255.831 175.082 262.595 169.831 269.13 164.756C286.323 151.406 304.108 137.602 323.818 129.364C333.425 125.35 342.548 123.826 351.733 124.718C359.279 125.451 366.923 127.86 375.106 132.097C384.712 137.056 393.185 143.408 402.487 150.589C418.82 163.202 434.316 178.903 450.732 195.522C452.477 197.282 454.228 199.069 455.994 200.848C458.082 202.963 460.211 205.116 462.268 207.209C472.067 217.151 482.197 227.444 492.837 237.172C522.79 264.569 554.001 283.015 584.176 300.854C588.63 303.48 593.185 306.022 597.598 308.483C600.64 310.174 603.789 311.935 606.861 313.699L606.73 313.929C603.658 312.165 600.517 310.419 597.479 308.716C593.066 306.255 588.499 303.71 584.045 301.084C569.231 292.321 553.902 283.267 538.465 272.919C521.04 261.25 506.054 249.617 492.666 237.365C482.018 227.622 471.884 217.34 462.085 207.398C460.028 205.305 457.899 203.152 455.822 201.04C454.057 199.262 452.303 197.487 450.56 195.715C434.157 179.099 418.661 163.398 402.348 150.803C393.057 143.626 384.593 137.29 375.01 132.338C357.21 123.137 341.451 122.293 323.951 129.607C304.283 137.832 286.514 151.627 269.324 164.966C262.789 170.041 256.025 175.292 249.227 180.175C240.723 186.271 233.623 190.748 226.886 194.283C219.321 198.254 212.393 200.739 205.706 201.876C199.392 202.957 193.419 202.823 187.435 201.461C186.486 201.26 185.585 201.023 184.679 200.759Z" fill="url(#paint9_linear_330_10618)"/>
<path d="M186.803 198.685C186.309 198.541 185.807 198.382 185.316 198.226C174.578 194.698 164.946 187.332 152.864 176.597C133.242 159.157 109.599 157.123 84.5627 154.963C71.7292 153.849 58.4683 152.712 45.081 149.47C29.929 145.803 16.7618 139.882 4.82246 131.371C-2.00388 126.508 -8.35234 119.832 -14.5944 110.953C-20.1317 103.071 -25.021 94.2806 -29.536 85.9567C-31.7584 81.8497 -34.0308 77.6515 -36.2131 73.5817C-52.0691 44.107 -68.4715 13.6178 -85.8844 -3.95651C-102.544 -20.7878 -123.947 -29.6729 -144.644 -38.2629C-151.006 -40.9101 -157.6 -43.6377 -163.825 -46.5382L-163.724 -46.7514C-157.496 -43.8626 -150.918 -41.1267 -144.54 -38.4879C-123.819 -29.891 -102.397 -20.9873 -85.7051 -4.13391C-77.8874 3.76222 -69.5963 14.9361 -60.3659 30.0215C-52.1362 43.462 -43.9385 58.7184 -36.0004 73.465C-33.8147 77.5231 -31.5457 81.733 -29.3233 85.8401C-19.1937 104.493 -9.62317 120.775 4.96998 131.171C31.6064 150.16 58.5487 152.48 84.5926 154.729C109.668 156.887 133.346 158.932 153.028 176.428C175.134 196.073 193.212 208.787 224.719 193.358C231.639 189.978 238.814 185.638 247.326 179.736C254.476 174.738 261.568 169.328 268.422 164.078C285.408 151.088 302.97 137.653 322.608 129.968C332.419 126.129 341.633 125.039 350.775 126.647C358.289 127.971 365.796 131.156 373.719 136.415C383.272 142.737 391.891 150.995 399.491 158.279L399.551 158.335C410.974 169.273 421.867 181.678 433.404 194.807C438.672 200.811 444.138 207.013 449.722 213.16C460.805 225.352 472.868 238.252 486.058 250C516.138 276.566 548.925 292.32 582.689 307.44C587.86 309.752 593.154 311.948 598.264 314.076C601.246 315.316 604.331 316.599 607.35 317.888L607.261 318.105C604.242 316.815 601.157 315.533 598.175 314.293C593.065 312.164 587.771 309.969 582.6 307.656C567.778 301.023 550.558 293.154 533.804 283.735C515.44 273.401 499.775 262.437 485.902 250.184C472.712 238.436 460.629 225.518 449.546 213.326C443.962 207.179 438.511 200.968 433.231 194.961C421.695 181.832 410.798 169.439 399.387 158.504L399.327 158.448C391.735 151.179 383.128 142.925 373.587 136.606C362.848 129.492 345.884 121.098 322.686 130.182C303.087 137.866 285.531 151.277 268.56 164.259C261.695 169.505 254.611 174.931 247.45 179.925C238.935 185.839 231.732 190.184 224.808 193.575C210.697 200.474 198.565 202.116 186.803 198.685Z" fill="url(#paint10_linear_330_10618)"/>
<path d="M19.2934 150.805C11.1893 148.441 3.6797 145.089 -3.3917 140.716C-10.495 136.321 -16.8772 129.98 -22.9169 121.326C-28.9031 112.752 -33.7101 103.066 -37.2316 95.581C-42.9207 83.4941 -48.2775 70.6619 -53.4633 58.2496C-63.6006 33.9784 -73.1713 11.0467 -84.0779 -4.06812C-100.833 -27.3088 -125.055 -37.6417 -150.708 -48.5834C-153.431 -49.7479 -156.237 -50.9365 -159.001 -52.1383L-158.919 -52.3314C-156.155 -51.1296 -153.341 -49.9258 -150.626 -48.7765C-138.31 -43.5248 -125.576 -38.0873 -114.136 -31.1893C-107.982 -27.4796 -102.668 -23.645 -97.8759 -19.4648C-92.5027 -14.7833 -87.9357 -9.78811 -83.9039 -4.18328C-72.9807 10.9619 -63.3982 33.8971 -53.2643 58.18C-48.0786 70.5923 -42.7218 83.4245 -37.0444 95.508C-28.7271 113.199 -18.8901 130.886 -3.29318 140.553C23.7545 157.301 51.2992 155.674 77.9348 154.101C91.7535 153.282 104.806 152.508 117.191 154.372C123.832 155.365 129.7 157.038 135.116 159.473C141.163 162.194 146.518 165.798 151.516 170.498C173.354 191.061 190.62 207.303 222.657 192.68C229.766 189.444 237.039 185.248 245.565 179.515C253.035 174.471 260.412 168.914 267.544 163.541C284.36 150.871 301.761 137.773 321.367 130.588C326.499 128.703 331.58 127.607 336.435 127.326C340.954 127.061 345.448 127.492 349.786 128.591C357.295 130.501 364.662 134.475 372.302 140.749C381.253 148.083 389.134 157.337 396.082 165.503L396.577 166.081C404.495 175.385 412.067 185.303 420.081 195.809C427.523 205.561 435.214 215.641 443.412 225.473C456.658 241.36 467.708 252.879 479.237 262.84C510.653 289.77 546.81 302.896 581.16 314.038C587.142 315.975 593.24 317.779 599.129 319.51C601.972 320.352 604.909 321.221 607.796 322.089L607.738 322.289C604.851 321.421 601.914 320.552 599.071 319.71C593.173 317.964 587.072 316.171 581.09 314.235C564.382 308.813 546.504 302.678 529.054 294.551C509.658 285.524 493.323 275.194 479.088 263.001C467.547 253.036 456.489 241.502 443.243 225.615C435.037 215.768 427.346 205.688 419.903 195.936C411.89 185.43 404.317 175.512 396.411 166.212L395.916 165.633C388.969 157.468 381.108 148.232 372.168 140.902C355.682 127.325 339.555 124.113 321.463 130.744C301.883 137.923 284.501 151.002 267.685 163.671C260.553 169.044 253.176 174.601 245.703 179.658C237.173 185.402 229.888 189.594 222.764 192.838C190.581 207.521 173.291 191.234 151.393 170.615C130.725 151.16 105.103 152.671 77.9608 154.275C64.8425 155.055 51.2713 155.857 37.6017 154.371C31.1579 153.666 25.0686 152.49 19.2934 150.805Z" fill="url(#paint11_linear_330_10618)"/>
<path d="M3.2398 156.09C-1.93552 154.581 -6.86236 152.569 -11.6029 150.051C-18.9513 146.146 -25.3674 140.139 -31.2365 131.688C-36.0803 124.71 -40.4164 116.298 -44.9043 105.213C-51.7415 88.3113 -57.2829 69.5925 -62.6459 51.4874C-68.9787 30.1 -74.9562 9.90114 -82.2449 -4.18386C-96.9286 -32.6019 -122.399 -44.7795 -154.174 -57.7493L-154.099 -57.9189C-139.306 -51.881 -125.016 -45.7853 -112.706 -37.6253C-106.084 -33.2432 -100.499 -28.5891 -95.6061 -23.3969C-90.1883 -17.643 -85.7713 -11.3898 -82.0846 -4.25198C-74.8028 9.85655 -68.8135 30.0588 -62.4841 51.458C-57.1211 69.5631 -51.5881 88.2667 -44.7509 105.168C-38.2439 121.233 -28.5976 140.843 -11.5265 149.92C16.1299 164.624 44.4683 159.183 71.8597 153.925C86.664 151.083 100.656 148.401 113.837 149.067C120.904 149.431 127.126 150.723 132.835 153.027C139.218 155.603 144.847 159.364 150.053 164.533C151.556 166.03 153.047 167.525 154.49 168.967C174.424 189.012 190.165 204.835 220.656 191.969C227.917 188.867 235.51 184.713 243.853 179.259C251.598 174.192 259.219 168.541 266.596 163.073C283.299 150.702 300.56 137.908 320.179 131.161C325.423 129.373 330.568 128.448 335.486 128.39C340.044 128.341 344.561 129.046 348.873 130.495C356.386 133.006 363.603 137.753 370.955 145.015C379.495 153.454 386.757 163.868 393.169 173.039L393.673 173.76C399.113 181.537 404.31 189.537 409.834 197.989C418.414 211.149 427.282 224.763 437.196 237.725C449.28 253.528 460.5 265.556 472.513 275.608C494.682 294.072 520.309 304.751 545.41 312.072C557.101 315.483 568.66 318.165 579.728 320.564C586.691 322.072 593.76 323.432 600.615 324.743C603.153 325.228 605.778 325.725 608.348 326.233L608.309 326.412C605.735 325.917 603.114 325.408 600.575 324.922C593.732 323.616 586.648 322.264 579.688 320.744C562.045 316.912 543.134 312.391 524.413 305.297C503.98 297.55 486.964 287.889 472.394 275.752C460.369 265.697 449.133 253.638 437.048 237.835C427.126 224.858 418.255 211.256 409.679 198.084C404.17 189.624 398.958 181.632 393.529 173.859L393.025 173.137C386.625 163.97 379.359 153.568 370.843 145.136C354.926 129.389 338.851 124.993 320.247 131.321C300.658 138.051 283.409 150.849 266.721 163.212C259.345 168.679 251.723 174.331 243.975 179.409C235.617 184.872 228.021 189.037 220.748 192.136C206.704 198.058 194.856 198.291 183.445 192.869C173.135 187.96 164.025 178.806 154.375 169.099C152.935 167.645 151.444 166.151 149.937 164.665C128.397 143.257 100.964 148.528 71.9092 154.105C58.4174 156.692 44.4638 159.373 30.4197 159.565C20.5988 159.674 11.6027 158.53 3.2398 156.09Z" fill="url(#paint12_linear_330_10618)"/>
<path d="M-10.7871 162.745C-13.8688 161.846 -16.8652 160.742 -19.8317 159.405C-27.4167 156.005 -33.8784 150.33 -39.5936 142.051C-44.484 134.971 -48.7417 126.071 -52.618 114.858C-59.6747 94.4205 -64.0867 70.8238 -68.3684 48.0055C-72.089 28.1204 -75.6004 9.35558 -80.4529 -4.28679C-91.6162 -35.6727 -115.097 -50.1669 -149.372 -63.3559L-149.319 -63.4936C-135.756 -58.2737 -120.188 -51.6138 -107.471 -41.8292C-101.229 -37.0217 -96.0521 -31.7977 -91.6518 -25.8811C-86.8873 -19.4627 -83.1731 -12.419 -80.3078 -4.34658C-75.4554 9.29579 -71.9356 28.0758 -68.215 47.9609C-63.945 70.7758 -59.533 94.3724 -52.4729 114.798C-44.174 138.852 -33.782 152.974 -19.7788 159.267C8.60551 172.001 37.8227 162.847 66.0822 154.001C81.8271 149.072 96.6868 144.422 110.612 143.851C118.076 143.552 124.616 144.452 130.611 146.609C137.298 149.019 143.165 152.925 148.555 158.556C151.187 161.302 153.731 164.087 156.202 166.773C173.926 186.084 189.238 202.765 218.61 191.244C226.021 188.326 233.701 184.312 242.106 178.992C250.107 173.923 257.958 168.185 265.549 162.639C282.138 150.529 299.296 137.998 318.945 131.72C324.289 130.024 329.517 129.252 334.48 129.436C339.089 129.606 343.6 130.59 347.917 132.373C355.433 135.484 362.51 141.02 369.543 149.287C377.907 159.117 384.705 170.991 390.701 181.457C394.487 188.037 398.293 194.941 401.973 201.618C410.865 217.779 420.064 234.501 430.9 249.991C442.105 265.92 453.485 278.493 465.717 288.405C499.154 315.452 541.326 322.572 578.237 327.123C586.553 328.145 594.996 329 603.166 329.826C605.049 330.018 606.949 330.202 608.832 330.394L608.815 330.542C606.931 330.35 605.035 330.154 603.148 329.974C594.978 329.148 586.521 328.302 578.215 327.283C560.97 325.149 540.817 322.219 521.397 316.554C520.821 316.386 520.257 316.222 519.684 316.042C498.21 309.586 480.53 300.587 465.617 288.529C453.376 278.602 441.984 266.026 430.771 250.081C419.927 234.576 410.736 217.869 401.837 201.693C398.156 195.016 394.365 188.103 390.576 181.536C384.58 171.069 377.794 159.199 369.427 149.381C354.103 131.382 338.076 125.814 318.993 131.861C299.375 138.123 282.219 150.643 265.642 162.756C258.051 168.302 250.201 174.04 242.188 179.105C233.779 184.437 226.076 188.444 218.661 191.374C205.159 196.663 193.842 196.476 183.037 190.771C173.315 185.638 164.947 176.522 156.086 166.866C153.627 164.184 151.067 161.408 148.438 158.65C126.139 135.336 96.9912 144.472 66.1219 154.127C52.2046 158.478 37.8202 162.987 23.3649 164.807C15.5587 165.797 8.45575 165.908 1.6773 165.168C-2.6355 164.727 -6.77626 163.915 -10.7871 162.745Z" fill="url(#paint13_linear_330_10618)"/>
<path d="M-23.7194 170.191C-25.178 169.766 -26.611 169.297 -28.0503 168.762C-43.1867 163.16 -54.004 147.739 -61.1085 121.647C-67.304 98.8702 -69.8908 70.854 -72.1626 46.1332C-73.9204 27.0886 -75.5764 9.09479 -78.6155 -4.37599C-86.8934 -41.0592 -110.953 -56.7179 -144.537 -68.9522L-144.491 -69.0664C-125.328 -62.0854 -112.279 -54.9732 -102.187 -45.9925C-90.1449 -35.2943 -82.3975 -21.6881 -78.4959 -4.39216C-75.4602 9.09038 -73.7925 27.0876 -72.0347 46.1322C-69.7629 70.853 -67.1761 98.8692 -60.9737 121.622C-53.8859 147.684 -43.097 163.071 -27.9959 168.663C1.17156 179.456 31.3445 166.675 60.5324 154.296C77.1776 147.244 92.9069 140.575 107.529 138.753C115.37 137.773 122.233 138.268 128.477 140.269C135.444 142.505 141.541 146.543 147.089 152.641C150.58 156.467 153.877 160.39 157.069 164.193C173.672 183.93 187.998 200.974 216.594 190.58C234.038 184.245 249.501 173.108 264.474 162.339C272.728 156.4 281.258 150.26 290.015 145.004C299.838 139.114 308.908 134.97 317.747 132.366C326.627 129.749 335.047 129.806 342.774 132.545C349.585 134.966 355.85 139.346 361.937 145.958C373.082 158.067 381.24 175.341 387.784 189.222C390.273 194.517 392.787 199.985 395.213 205.275C411.382 240.546 428.097 277.01 458.962 301.278C472.886 312.218 488.512 319.38 504.755 324.118C528.515 331.049 553.614 332.819 576.785 333.758C587.507 334.192 598.407 334.411 608.949 334.627L609.357 334.631L609.358 334.759L608.95 334.755C598.408 334.539 587.496 334.317 576.774 333.882C558.03 333.124 536.022 331.695 514.983 326.859C492.473 321.684 474.123 313.358 458.893 301.385C428.004 277.11 411.284 240.619 395.104 205.345C392.677 200.055 390.175 194.59 387.674 189.292C381.127 175.423 372.992 158.156 361.855 146.062C348.918 132.002 334.513 127.57 317.798 132.496C298.109 138.303 281.049 150.582 264.556 162.452C249.583 173.221 234.105 184.367 216.646 190.709C206.453 194.411 198.064 194.644 190.736 192.507C177.468 188.637 167.699 177.019 156.991 164.285C153.796 160.494 150.502 156.559 147.011 152.733C136.529 141.239 123.989 136.841 107.553 138.887C92.9431 140.714 77.2173 147.37 60.5838 154.426C46.2092 160.52 31.3538 166.818 16.4471 170.23C8.39038 172.079 1.08651 172.922 -5.90417 172.823C-12.1827 172.689 -18.0501 171.845 -23.7194 170.191Z" fill="url(#paint14_linear_330_10618)"/>
</g>
<g style="mix-blend-mode:color-dodge" opacity="0.3">
<path d="M1288.96 198.737C1289.73 198.196 1290.47 197.631 1291.21 197.039C1294.92 194.014 1297.91 188.971 1300.33 181.629C1302.49 175.069 1304.17 166.752 1305.45 156.218C1307.85 136.566 1308.5 112.236 1309.19 86.4885C1310 56.5911 1310.82 25.6769 1314.46 -1.1025C1318.57 -31.4928 1325.75 -51.5543 1336.42 -62.48C1368.46 -95.2609 1436.6 -105.398 1491.35 -113.538C1511.66 -116.561 1530.86 -119.419 1545.14 -123.043C1560.99 -127.079 1569.47 -131.729 1571.83 -137.693L1571.38 -137.869C1569.08 -132.07 1560.72 -127.504 1545.02 -123.513C1530.77 -119.892 1511.59 -117.049 1491.27 -114.026C1442.79 -106.809 1383.79 -98.0404 1348.57 -73.3317C1343.97 -70.1094 1339.78 -66.6145 1336.07 -62.8149C1330.38 -56.9969 1325.6 -48.4576 1321.86 -37.424C1318.52 -27.552 1315.93 -15.6923 1313.97 -1.17933C1310.34 25.6271 1309.51 56.5584 1308.71 86.4558C1308.01 112.204 1307.36 136.516 1304.96 156.142C1303.68 166.648 1302.01 174.93 1299.86 181.467C1297.46 188.716 1294.54 193.683 1290.89 196.659C1279.44 205.995 1263.55 208.264 1242.33 203.617C1223.64 199.518 1203.63 190.816 1184.28 182.406L1183.98 182.274C1162.21 172.815 1136.53 162.097 1111.05 154.327C1084.63 146.268 1061.48 142.318 1040.28 142.221C1017.87 142.133 996.7 145.937 977.345 153.527C958.582 160.894 942.037 171.616 928.158 185.391C922.34 191.178 917.106 197.542 912.575 204.312C908.229 210.832 904.396 217.935 901.208 225.424C895.193 239.551 891.247 255.219 889.146 273.304C884.925 309.578 889.093 350.129 893.721 385L894.199 384.935C884.844 314.348 878.995 234.913 928.51 185.743C956.633 157.817 996.33 142.53 1040.28 142.714C1088.23 142.923 1139.5 163.471 1183.78 182.724L1184.09 182.856C1203.46 191.269 1223.49 199.983 1242.23 204.091C1252.4 206.315 1261.11 206.966 1268.88 206.068C1276.53 205.194 1283.27 202.727 1288.96 198.737Z" fill="url(#paint15_linear_330_10618)"/>
<path d="M1286.38 194.345C1287.88 193.297 1289.3 192.149 1290.68 190.896C1294.59 187.35 1297.89 181.983 1300.78 174.521C1303.37 167.842 1305.58 159.574 1307.54 149.231C1311.2 129.95 1313.42 106.528 1315.76 81.7207C1318.31 54.6371 1320.97 26.6301 1325.74 1.59819C1329.48 -18.0115 1335.26 -42.2684 1346.82 -55.8528C1372.36 -85.8423 1422.52 -99.9693 1468.22 -109.83C1476.01 -111.507 1483.71 -113.076 1491.14 -114.594C1509.37 -118.309 1526.59 -121.813 1539.73 -125.937C1554.35 -130.532 1562.52 -135.457 1565.44 -141.444L1565.03 -141.648C1562.17 -135.765 1554.09 -130.92 1539.59 -126.366C1526.47 -122.238 1509.27 -118.748 1491.05 -115.034C1483.59 -113.518 1475.9 -111.956 1468.11 -110.273C1448.39 -106.02 1422.8 -99.9555 1399.62 -90.7327C1388.28 -86.2224 1378.24 -81.2125 1369.78 -75.8627C1360.38 -69.9128 1352.53 -63.2688 1346.45 -56.1466C1341.45 -50.277 1337.25 -42.2713 1333.59 -31.6713C1330.53 -22.8224 1327.89 -12.2736 1325.26 1.51432C1320.49 26.5633 1317.84 54.5804 1315.27 81.6709C1312.93 106.452 1310.71 129.873 1307.06 149.138C1302.95 170.751 1297.65 183.902 1290.35 190.547C1269.58 209.454 1238.2 201.563 1210.25 191.353C1201.78 188.24 1193.39 184.77 1185.52 181.479C1154.91 168.675 1127.33 157.545 1100.02 150.965C1090.04 148.58 1080.19 146.957 1070.75 146.11C1061.33 145.265 1051.98 145.181 1042.96 145.849C1029.94 146.82 1017.16 149.22 1004.96 152.999C992.002 156.97 979.698 162.621 968.368 169.79C957.296 176.792 947.106 185.286 938.077 195.031C932.15 201.388 926.782 208.415 922.099 215.905C917.658 223.016 913.691 230.782 910.313 239.003C903.398 255.751 898.727 274.291 896.052 295.698C893.788 313.807 892.943 334.259 893.476 358.234C893.708 368.743 894.1 379.138 894.628 389.109L895.09 389.084C894.561 379.113 894.166 368.735 893.935 358.227C892.793 306.798 897.979 270.087 910.739 239.183C917.726 222.175 926.786 207.844 938.418 195.346C956.853 175.456 979.294 161.363 1005.11 153.448C1017.29 149.682 1030.03 147.284 1043.02 146.317C1061.24 144.968 1079.86 146.635 1099.95 151.419C1127.24 157.986 1154.79 169.119 1185.39 181.924C1193.27 185.215 1201.68 188.687 1210.15 191.801C1228.51 198.508 1242.72 201.881 1254.82 202.387C1267.51 202.926 1277.91 200.29 1286.38 194.345Z" fill="url(#paint16_linear_330_10618)"/>
<path d="M1283.72 190.2C1285.98 188.61 1288.12 186.796 1290.15 184.759C1294.33 180.558 1298.04 174.736 1301.51 166.961C1304.61 160.011 1307.45 151.599 1310.2 141.245C1315.33 121.949 1319.31 98.986 1323.53 74.6843C1327.39 52.4306 1331.38 29.426 1336.52 7.8186C1342.09 -15.604 1347.49 -36.0484 1357.21 -49.2085C1381.12 -81.5864 1428.16 -98.3453 1466.49 -109.334C1474.91 -111.752 1483.27 -113.98 1491.35 -116.132C1523.7 -124.766 1551.62 -132.215 1559.06 -145.168L1558.68 -145.383C1551.33 -132.592 1523.49 -125.155 1491.23 -116.557C1483.15 -114.405 1474.8 -112.168 1466.36 -109.752C1440.78 -102.42 1421.14 -95.1269 1404.57 -86.7945C1394.43 -81.7041 1385.43 -76.1682 1377.81 -70.3454C1369.39 -63.9156 1362.36 -56.8899 1356.87 -49.4621C1352.41 -43.4184 1348.48 -35.2593 1344.86 -24.5209C1341.76 -15.2835 1339.11 -4.95551 1336.1 7.72664C1330.96 29.3511 1326.96 52.3558 1323.11 74.6195C1318.9 98.9141 1314.91 121.867 1309.79 141.146C1304.03 162.795 1297.7 176.549 1289.85 184.46C1273.53 200.894 1249.52 202.617 1211.97 190.045C1203.27 187.137 1194.57 183.692 1187.1 180.701C1185.02 179.87 1182.95 179.032 1180.88 178.193C1154.72 167.656 1127.67 156.742 1101.35 151.138C1082.2 147.046 1063.96 146.502 1045.62 149.475C1033.6 151.421 1022.02 154.656 1010.19 159.361C998.252 164.11 986.858 170.44 976.299 178.175C966.092 185.663 956.551 194.57 947.931 204.642C937.019 217.398 928.153 231.878 920.823 248.931C913.556 265.732 908.074 283.883 904.083 304.417C900.667 321.972 898.341 341.443 896.959 363.948C896.399 373.156 895.828 383.074 895.469 393.188L895.897 393.202C896.246 383.095 896.817 373.176 897.378 363.968C900.333 315.757 907.687 280.323 921.198 249.102C928.512 232.09 937.354 217.642 948.243 204.916C965.86 184.329 986.752 169.137 1010.33 159.756C1022.12 155.061 1033.68 151.83 1045.66 149.895C1063.95 146.93 1082.12 147.473 1101.23 151.548C1127.52 157.164 1154.54 168.048 1180.69 178.592C1182.76 179.43 1184.84 180.261 1186.91 181.1C1194.38 184.091 1203.09 187.529 1211.8 190.447C1229.74 196.454 1243.72 199.083 1255.8 198.75C1266.77 198.45 1275.96 195.639 1283.72 190.2Z" fill="url(#paint17_linear_330_10618)"/>
<path d="M1280.86 186.427C1283.98 184.239 1286.9 181.638 1289.62 178.623C1294.34 173.392 1298.74 166.67 1303.07 158.07C1306.94 150.357 1310.69 141.261 1314.52 130.252C1321.67 109.719 1327.98 85.8098 1334.66 60.4881C1338.67 45.2635 1342.83 29.5088 1347.29 14.046C1348.15 11.048 1349.01 8.03994 1349.84 5.12429C1355.03 -13.218 1359.94 -30.5473 1367.59 -42.5742C1384.42 -69.0607 1416.2 -90.7339 1464.74 -108.857C1473.87 -112.268 1483.01 -115.37 1491.84 -118.377C1520.02 -127.946 1544.34 -136.22 1552.67 -148.919L1552.33 -149.145C1544.08 -136.564 1519.82 -128.315 1491.72 -118.768C1482.88 -115.772 1473.74 -112.653 1464.6 -109.252C1442.58 -101.032 1424.56 -92.4068 1409.51 -82.8563C1400.58 -77.1859 1392.62 -71.1239 1385.83 -64.8211C1378.41 -57.9255 1372.15 -50.5171 1367.27 -42.8078C1359.59 -30.7326 1354.67 -13.3793 1349.46 4.99717C1348.64 7.90579 1347.78 10.9208 1346.91 13.9088C1342.44 29.3787 1338.28 45.1334 1334.27 60.3579C1327.59 85.6626 1321.28 109.572 1314.14 130.098C1306.11 153.15 1298.23 168.48 1289.32 178.324C1272.95 196.421 1249.61 199.617 1213.64 188.693C1205.03 186.083 1196.54 182.922 1188.64 179.89C1184.58 178.333 1180.47 176.724 1176.5 175.173C1152.27 165.695 1127.2 155.904 1102.67 151.29C1092.72 149.421 1083.27 148.72 1073.78 149.148C1065.29 149.533 1056.95 150.821 1048.27 153.09C1037.41 155.933 1026.67 160.056 1015.42 165.716C994.06 176.463 974.674 192.799 957.801 214.256C947.711 227.095 939.055 241.681 931.341 258.87C917.108 290.298 907.297 325.494 900.452 369.654C900.201 371.237 899.956 372.83 899.705 374.413C898.546 381.871 897.341 389.585 896.319 397.261L896.715 397.313C897.737 389.637 898.941 381.923 900.101 374.465C900.345 372.872 900.596 371.289 900.848 369.706C907.677 325.587 917.491 290.418 931.701 259.021C939.392 241.864 948.035 227.301 958.103 214.493C974.932 193.082 994.275 176.791 1015.59 166.062C1026.82 160.416 1037.53 156.298 1048.36 153.465C1066.56 148.708 1083.78 148.134 1102.58 151.669C1127.07 156.277 1152.11 166.073 1176.34 175.541C1180.31 177.092 1184.42 178.701 1188.48 180.267C1196.39 183.299 1204.89 186.463 1213.51 189.084C1230.83 194.341 1245 196.3 1256.82 195.058C1266 194.137 1273.94 191.282 1280.86 186.427Z" fill="url(#paint18_linear_330_10618)"/>
<path d="M1277.74 183.109C1281.82 180.245 1285.59 176.719 1289.1 172.479C1315.21 140.964 1336.64 82.4915 1358.1 20.2522C1360.37 13.6414 1362.42 7.01583 1364.39 0.606073C1368.59 -13.0287 1372.55 -25.9065 1377.99 -35.947C1393.32 -64.2538 1421.92 -88.6222 1463.01 -108.388C1472.88 -113.139 1482.89 -117.38 1492.58 -121.484C1504.42 -126.496 1515.61 -131.227 1524.95 -136.237C1535.42 -141.849 1542.19 -147.073 1546.29 -152.67L1545.98 -152.891C1537.1 -140.736 1516.4 -131.976 1492.43 -121.827C1482.74 -117.723 1472.71 -113.475 1462.84 -108.734C1421.68 -88.9362 1393.02 -64.5085 1377.64 -36.1394C1372.18 -26.0677 1368.22 -13.1729 1364.01 0.478938C1362.04 6.88869 1360 13.5143 1357.72 20.1151C1336.27 82.3132 1314.87 140.754 1288.78 172.222C1272.32 192.088 1249.66 196.757 1215.31 187.386C1206.42 184.955 1197.62 181.836 1190.18 179.105C1184.82 177.118 1179.4 175.057 1174.13 173.06C1151.15 164.311 1127.37 155.274 1104 151.452C1085.46 148.427 1068.61 150.097 1050.94 156.715C1041.13 160.394 1031.51 165.268 1020.66 172.081C1010.81 178.276 1001.23 185.954 992.179 194.904C983.736 203.265 975.499 213.008 967.673 223.869C958.494 236.622 950.297 250.902 941.876 268.811C933.775 286.046 926.681 303.413 920.178 321.922C914.216 338.899 908.912 356.388 903.97 375.373C903.204 378.335 902.402 381.352 901.618 384.266C900.128 389.846 898.596 395.62 897.192 401.363L897.554 401.453C898.955 395.727 900.488 389.953 901.977 384.373C902.751 381.466 903.554 378.449 904.33 375.48C914.484 336.422 926.879 301.583 942.216 268.976C950.624 251.092 958.819 236.829 967.984 224.1C984.327 201.398 1001.62 184.493 1020.86 172.406C1031.69 165.607 1041.29 160.73 1051.07 157.072C1068.67 150.476 1085.46 148.815 1103.93 151.828C1127.28 155.637 1151.03 164.677 1174 173.424C1179.25 175.428 1184.68 177.488 1190.05 179.469C1197.5 182.202 1206.3 185.322 1215.21 187.756C1232.21 192.401 1246.14 193.581 1257.82 191.391C1265.21 190.013 1271.8 187.274 1277.74 183.109Z" fill="url(#paint19_linear_330_10618)"/>
<path d="M1274.34 180.347C1279.45 176.759 1284.17 172.116 1288.56 166.36C1304 146.12 1317.25 126.649 1329.05 106.845C1344.28 81.2908 1357.3 55.0066 1368.88 26.4894C1372.63 17.2093 1375.62 7.74018 1378.48 -1.42369C1381.65 -11.5464 1384.66 -21.1079 1388.38 -29.2859C1405.92 -67.8119 1437.71 -93.2924 1461.28 -107.882C1471.84 -114.42 1482.85 -120.122 1493.5 -125.633C1503.29 -130.697 1512.53 -135.478 1520.54 -140.467C1529.54 -146.074 1535.7 -151.125 1539.91 -156.384L1539.64 -156.599C1530.45 -145.14 1512.42 -135.815 1493.34 -125.935C1482.69 -120.424 1471.66 -114.715 1461.1 -108.169C1445.43 -98.4718 1431.44 -87.2671 1419.51 -74.8839C1405.99 -60.852 1395.41 -45.5642 1388.07 -29.4281C1384.33 -21.226 1381.33 -11.6545 1378.15 -1.51773C1375.27 7.63611 1372.31 17.0912 1368.55 26.3612C1341.69 92.5793 1309.87 137.854 1288.28 166.152C1271.47 188.182 1250.15 194.152 1217.02 186.094C1207.86 183.871 1198.71 180.786 1191.76 178.344C1185.46 176.113 1179.1 173.755 1172.93 171.467C1150.81 163.258 1127.95 154.777 1105.34 151.645C1095.3 150.251 1085.97 150.434 1076.84 152.21C1069.13 153.715 1061.53 156.376 1053.63 160.363C1042.43 166.005 1032.94 173.004 1025.94 178.469C1009.14 191.565 993.324 209.574 977.581 233.516C967.226 249.264 958.706 265.986 952.441 278.775C934.247 315.93 919.559 349.398 907.518 381.115C906.162 384.686 904.748 388.281 903.379 391.771C901.625 396.248 899.811 400.873 898.108 405.465L898.43 405.583C900.133 400.991 901.948 396.366 903.708 391.899C905.077 388.409 906.491 384.814 907.848 381.243C919.878 349.534 934.566 316.065 952.757 278.928C959.022 266.138 967.539 249.434 977.874 233.7C993.594 209.789 1009.38 191.801 1026.15 178.736C1033.16 173.271 1042.62 166.286 1053.8 160.665C1070.61 152.198 1086.97 149.431 1105.3 151.972C1127.87 155.106 1150.72 163.576 1172.81 171.773C1178.98 174.061 1185.35 176.418 1191.64 178.649C1198.59 181.092 1207.76 184.169 1216.94 186.406C1233.66 190.466 1247.36 190.883 1258.84 187.672C1264.4 186.133 1269.55 183.703 1274.34 180.347Z" fill="url(#paint20_linear_330_10618)"/>
<path d="M1270.77 178.147C1272.23 177.127 1273.65 176.023 1275.05 174.817C1279.58 170.95 1283.82 166.17 1288.02 160.214C1296.59 148.066 1306.34 136.618 1316.66 124.505C1327.24 112.069 1338.19 99.2124 1348.94 84.352C1361.16 67.4788 1371.2 50.5854 1379.65 32.6898C1385.01 21.3425 1388.63 9.32926 1392.14 -2.29037C1394.33 -9.51437 1396.39 -16.3478 1398.76 -22.6515C1411.27 -55.9053 1432.86 -85.9985 1459.54 -107.405C1470.67 -116.34 1482.82 -123.867 1494.55 -131.14C1509.92 -140.678 1524.45 -149.686 1533.54 -160.132L1533.3 -160.341C1524.25 -149.922 1509.74 -140.929 1494.39 -131.405C1482.65 -124.125 1470.5 -116.59 1459.35 -107.649C1446.53 -97.3726 1434.83 -85.0187 1424.55 -70.9206C1413.65 -55.9888 1404.87 -39.7781 1398.47 -22.7637C1396.1 -16.4429 1394.04 -9.60946 1391.85 -2.37543C1388.35 9.22714 1384.73 21.2233 1379.38 32.5636C1360.48 72.5593 1337.08 100.048 1316.43 124.306C1306.1 136.427 1296.36 147.885 1287.78 160.039C1270.59 184.413 1250.58 191.579 1218.73 184.776C1209.35 182.778 1200.23 179.867 1193.34 177.566C1186.34 175.202 1179.26 172.64 1172.4 170.161C1150.94 162.392 1128.73 154.351 1106.69 151.82C1096.55 150.656 1087.29 151.283 1078.39 153.74C1070.98 155.782 1063.77 159.134 1056.32 164.011C1046.67 170.321 1038.2 178.097 1031.2 184.864C1023.37 192.436 1015.82 201.207 1008.12 211.679C1001.56 220.607 994.804 230.91 987.48 243.17C978.884 257.565 971.052 272.92 963.494 287.77L962.987 288.754C953.057 308.245 943.191 326.568 933.66 344.282C925.728 359.005 918.256 372.91 911.037 386.878C909.054 390.708 906.987 394.568 904.981 398.279C902.995 401.977 900.934 405.802 898.974 409.601L899.256 409.748C901.216 405.949 903.267 402.13 905.26 398.443C907.259 394.721 909.333 390.872 911.309 387.032C918.518 373.071 926 359.158 933.922 344.443C943.453 326.729 953.319 308.405 963.249 288.914L963.756 287.93C971.314 273.081 979.136 257.732 987.739 243.348C1003.42 217.099 1016.89 199.136 1031.4 185.111C1038.4 178.351 1046.85 170.598 1056.48 164.293C1072.56 153.773 1088.03 150.032 1106.63 152.161C1128.64 154.687 1150.82 162.714 1172.26 170.48C1179.11 172.966 1186.2 175.521 1193.2 177.885C1200.11 180.196 1209.24 183.111 1218.63 185.101C1227.03 186.901 1234.45 187.667 1241.32 187.474C1248.1 187.283 1254.15 186.138 1259.8 183.988C1263.69 182.499 1267.31 180.575 1270.77 178.147Z" fill="url(#paint21_linear_330_10618)"/>
<path d="M1267.32 176.363C1270.02 174.47 1272.62 172.254 1275.19 169.695C1279.32 165.555 1283.35 160.44 1287.51 154.09C1298.76 136.89 1313.6 123.775 1329.3 109.889C1339.75 100.647 1350.54 91.0988 1361.01 79.7498C1372.84 66.8999 1382.47 53.531 1390.46 38.9161C1397.59 25.8818 1401.57 11.3107 1405.43 -2.78144C1406.69 -7.39685 1407.88 -11.7623 1409.16 -16.0143C1420.51 -53.4827 1437.79 -85.7752 1457.82 -106.933C1469.25 -119.018 1482.71 -128.776 1495.74 -138.214C1507.58 -146.788 1518.77 -154.888 1527.15 -163.883L1526.94 -164.079C1518.57 -155.098 1507.4 -147.005 1495.57 -138.438C1482.53 -128.993 1469.04 -119.231 1457.59 -107.114C1447.47 -96.4259 1438.04 -82.9158 1429.58 -66.9574C1421.37 -51.484 1414.41 -34.3577 1408.86 -16.0682C1407.56 -11.8091 1406.38 -7.44373 1405.11 -2.82832C1401.26 11.2468 1397.27 25.7908 1390.18 38.8039C1372.34 71.4563 1350.35 90.9062 1329.09 109.71C1313.37 123.61 1298.52 136.732 1287.24 153.964C1272.57 176.378 1255.58 189.986 1220.41 183.496C1212.95 182.115 1205.06 180.055 1194.89 176.808C1187.33 174.383 1179.69 171.678 1172.31 169.072C1151.34 161.662 1129.65 154.003 1108.03 152.02C1097.77 151.09 1088.58 152.15 1079.92 155.275C1072.78 157.857 1065.94 161.907 1059.01 167.666C1050.31 174.891 1043.1 183.284 1036.46 191.259C1022.68 207.83 1010.86 227.851 997.372 252.814C992.852 261.178 988.417 269.855 984.129 278.25C980.698 284.967 977.15 291.9 973.532 298.733C957 329.978 938.992 356.556 921.584 382.264C919.279 385.677 916.884 389.198 914.566 392.635C911.922 396.569 909.153 400.472 906.482 404.261C904.295 407.351 902.045 410.545 899.87 413.717L900.105 413.881C902.28 410.709 904.53 407.515 906.717 404.425C909.388 400.636 912.15 396.723 914.811 392.792C917.129 389.355 919.517 385.825 921.829 382.422C939.236 356.67 957.237 330.081 973.779 298.829C977.397 291.996 980.938 285.053 984.376 278.346C988.664 269.951 993.099 261.274 997.619 252.91C1011.1 227.965 1022.9 207.957 1036.69 191.404C1043.31 183.436 1050.51 175.06 1059.19 167.849C1074.23 155.375 1089.28 150.567 1108 152.279C1129.59 154.246 1151.26 161.912 1172.21 169.309C1179.59 171.925 1187.23 174.62 1194.8 177.048C1205 180.298 1212.88 182.368 1220.36 183.742C1228.78 185.29 1236.16 185.751 1242.96 185.114C1249.5 184.504 1255.33 182.914 1260.78 180.229C1263.04 179.129 1265.2 177.847 1267.32 176.363Z" fill="url(#paint22_linear_330_10618)"/>
<path d="M1264.08 174.958C1273.93 168.049 1281.15 157.504 1286.97 147.961C1299.33 127.647 1317.85 115.829 1337.43 103.302C1348.44 96.271 1359.83 88.9893 1370.74 79.8391C1383.09 69.482 1393.07 58.1274 1401.23 45.1163C1410.33 30.6248 1414.34 13.2081 1418.21 -3.63441C1418.64 -5.52789 1419.09 -7.48963 1419.53 -9.38311C1430.18 -54.7142 1442.12 -86.4658 1456.05 -106.459C1467.32 -122.637 1482.48 -135.008 1497.14 -146.977C1505.67 -153.949 1513.74 -160.537 1520.76 -167.634L1520.58 -167.817C1513.56 -160.737 1505.5 -154.156 1496.96 -147.183C1482.29 -135.201 1467.12 -122.813 1455.83 -106.604C1448.23 -95.6859 1441.1 -81.0336 1434.64 -63.0525C1429.22 -47.9511 1424.19 -30.415 1419.27 -9.42101C1418.82 -7.52049 1418.38 -5.56579 1417.94 -3.67231C1414.07 13.1531 1410.07 30.5357 1401 44.9961C1382.77 74.0173 1359.65 88.7998 1337.28 103.099C1317.66 115.63 1299.12 127.479 1286.74 147.84C1271.09 173.524 1255.5 187.377 1222.1 182.157C1214.59 180.989 1206.44 179.03 1196.44 176C1188.45 173.558 1180.35 170.765 1172.53 168.064C1151.95 160.961 1130.67 153.619 1109.36 152.165C1098.97 151.459 1089.84 152.953 1081.43 156.755C1074.53 159.879 1068.07 164.621 1061.68 171.267C1054.18 179.055 1048.21 187.796 1041.71 197.59C1030.31 214.791 1020.7 234.645 1010.51 255.665C1009.42 257.893 1008.34 260.148 1007.24 262.401C1005.94 265.076 1004.62 267.799 1003.35 270.443C997.271 283.011 990.994 296.018 984.053 308.654C964.517 344.236 940.908 371.749 918.083 398.354C914.712 402.275 911.218 406.147 907.832 409.898C905.497 412.479 903.083 415.16 900.742 417.819L900.94 417.995C903.28 415.336 905.692 412.672 908.02 410.081C911.406 406.33 914.91 402.45 918.281 398.529C929.485 385.463 941.083 371.956 952.365 357.188C965.106 340.53 975.547 324.692 984.277 308.781C991.221 296.129 997.505 283.131 1003.58 270.564C1004.85 267.92 1006.18 265.196 1007.46 262.528C1008.56 260.276 1009.65 258.03 1010.73 255.792C1020.91 234.779 1030.53 214.925 1041.91 197.748C1048.4 187.962 1054.37 179.238 1061.85 171.464C1075.74 157.022 1090.39 151.149 1109.31 152.438C1130.58 153.893 1151.84 161.232 1172.41 168.325C1180.23 171.026 1188.33 173.819 1196.34 176.254C1206.35 179.287 1214.52 181.239 1222.03 182.417C1230.47 183.74 1237.83 183.862 1244.53 182.786C1250.85 181.776 1256.47 179.726 1261.69 176.51C1262.53 176.014 1263.3 175.499 1264.08 174.958Z" fill="url(#paint23_linear_330_10618)"/>
<path d="M1261.4 173.679C1261.82 173.383 1262.24 173.07 1262.66 172.765C1271.69 165.967 1278.43 155.892 1286.42 141.839C1299.38 119.009 1321.11 109.471 1344.11 99.3647C1355.91 94.1775 1368.09 88.8313 1379.73 81.452C1392.89 73.1017 1403.45 63.2562 1412.01 51.3539C1416.91 44.5519 1420.77 36.1871 1423.82 25.7714C1426.53 16.5264 1428.32 6.62979 1429.92 -2.70455C1430.7 -7.30846 1431.5 -12.0148 1432.26 -16.5705C1437.78 -49.5809 1443.49 -83.7277 1454.32 -105.973C1464.67 -127.272 1482.07 -142.575 1498.9 -157.372C1504.07 -161.927 1509.44 -166.632 1514.39 -171.382L1514.23 -171.552C1509.26 -166.812 1503.92 -162.103 1498.73 -157.551C1481.88 -142.74 1464.46 -127.413 1454.09 -106.083C1449.23 -96.0902 1444.98 -82.8418 1441.1 -65.5877C1437.63 -50.2131 1434.78 -33.1297 1432.02 -16.6124C1431.25 -12.0668 1430.46 -7.3504 1429.68 -2.74648C1426.1 18.175 1422.28 36.6716 1411.81 51.2125C1392.7 77.7663 1367.94 88.6377 1344.01 99.1531C1320.97 109.27 1299.21 118.83 1286.21 141.731C1271.6 167.448 1258.58 185.306 1223.79 180.843C1216.14 179.871 1207.95 178.073 1198 175.226C1189.62 172.796 1181.16 169.958 1172.98 167.194C1152.72 160.365 1131.77 153.301 1110.7 152.348C1100.17 151.873 1091.1 153.807 1082.96 158.272C1076.27 161.945 1070.19 167.378 1064.39 174.909C1057.38 183.97 1051.88 194.562 1047.03 203.906L1046.99 203.978C1039.69 218.012 1033.38 233.264 1026.68 249.409C1023.63 256.789 1020.45 264.42 1017.14 272.038C1010.57 287.149 1003.31 303.246 994.601 318.616C974.677 353.452 948.708 378.924 921.611 404.11C917.46 407.964 913.155 411.748 909.003 415.408C906.579 417.542 904.071 419.75 901.628 421.942L901.782 422.119C904.225 419.926 906.732 417.719 909.156 415.585C913.309 411.924 917.614 408.141 921.765 404.287C933.662 393.233 947.431 380.239 960.261 365.928C974.319 350.231 985.62 334.807 994.808 318.74C1003.51 303.37 1010.79 287.25 1017.36 272.138C1020.67 264.521 1023.83 256.886 1026.89 249.499C1033.59 233.354 1039.91 218.112 1047.2 204.085L1047.24 204.013C1052.08 194.687 1057.57 184.101 1064.57 175.047C1072.45 164.854 1085.81 151.444 1110.69 152.575C1131.72 153.54 1152.66 160.584 1172.91 167.41C1181.1 170.166 1189.55 173.022 1197.94 175.445C1207.91 178.302 1216.12 180.096 1223.77 181.078C1239.35 183.065 1251.37 180.714 1261.4 173.679Z" fill="url(#paint24_linear_330_10618)"/>
<path d="M1404.57 74.4125C1411.48 69.565 1417.51 63.9736 1422.8 57.5568C1428.11 51.1088 1432.11 43.05 1435.04 32.9124C1437.95 22.8672 1439.38 12.1499 1440.3 3.92933C1441.8 -9.34563 1442.74 -23.2193 1443.65 -36.6403C1445.43 -62.8829 1447.11 -87.6751 1452.57 -105.497C1460.95 -132.895 1480.55 -150.476 1501.32 -169.095C1503.52 -171.075 1505.79 -173.103 1508.02 -175.131L1507.88 -175.287C1505.65 -173.26 1503.38 -171.214 1501.18 -169.252C1491.21 -160.314 1480.9 -151.066 1472.29 -140.852C1467.66 -135.358 1463.87 -130.017 1460.67 -124.516C1457.09 -118.354 1454.38 -112.154 1452.37 -105.55C1446.9 -87.694 1445.21 -62.8948 1443.44 -36.6421C1442.53 -23.2211 1441.59 -9.34743 1440.1 3.92049C1437.92 23.3471 1434.31 43.2598 1422.65 57.4344C1402.44 81.9988 1375.84 89.3277 1350.11 96.4149C1336.77 100.089 1324.16 103.558 1313.03 109.311C1307.07 112.389 1302.05 115.863 1297.71 119.912C1292.86 124.435 1288.95 129.572 1285.73 135.631C1271.67 162.13 1260.56 183.066 1225.52 179.537C1217.75 178.762 1209.51 177.132 1199.59 174.45C1190.9 172.079 1182.12 169.193 1173.64 166.403C1153.64 159.823 1132.95 153.024 1112.07 152.536C1106.61 152.403 1101.44 153.001 1096.76 154.298C1092.39 155.503 1088.28 157.358 1084.52 159.795C1078.03 164.021 1072.34 170.155 1067.12 178.555C1061.01 188.381 1056.53 199.68 1052.58 209.648L1052.3 210.355C1047.8 221.712 1043.82 233.54 1039.62 246.067C1035.71 257.696 1031.67 269.715 1027.08 281.663C1019.65 300.969 1012.9 315.433 1005.19 328.576C984.122 364.187 954.116 388.256 925.184 409.865C920.143 413.625 914.951 417.296 909.933 420.831C907.512 422.544 905.012 424.313 902.558 426.063L902.678 426.234C905.131 424.483 907.632 422.714 910.052 421.002C915.074 417.45 920.273 413.788 925.313 410.029C939.385 399.515 954.336 387.951 968.24 374.638C983.696 359.846 995.836 344.807 1005.39 328.68C1013.1 315.53 1019.86 301.049 1027.29 281.743C1031.88 269.779 1035.92 257.759 1039.83 246.13C1044.03 233.603 1048.01 221.775 1052.5 210.425L1052.78 209.718C1056.73 199.75 1061.19 188.475 1067.3 178.657C1078.53 160.494 1092.77 152.261 1112.03 152.713C1132.88 153.206 1153.55 159.991 1173.55 166.572C1182.03 169.362 1190.8 172.248 1199.51 174.629C1209.43 177.321 1217.68 178.944 1225.47 179.722C1260.67 183.261 1271.79 162.273 1285.88 135.702C1299.19 110.628 1323.93 103.809 1350.14 96.5875C1362.81 93.1028 1375.92 89.4922 1388.38 83.6841C1394.26 80.9414 1399.64 77.867 1404.57 74.4125Z" fill="url(#paint25_linear_330_10618)"/>
<path d="M1421.47 74.2475C1425.88 71.1519 1429.9 67.6611 1433.58 63.7501C1439.28 57.6872 1443.42 49.9345 1446.25 40.0439C1448.59 31.8783 1449.99 22.518 1450.67 10.5778C1451.7 -7.62514 1450.92 -27.1313 1450.17 -45.9991C1449.28 -68.2865 1448.43 -89.3343 1450.8 -105.016C1455.55 -136.649 1475.74 -156.379 1501.65 -178.889L1501.52 -179.025C1489.46 -168.546 1477.89 -158.174 1468.87 -146.485C1464.01 -140.204 1460.22 -133.999 1457.26 -127.508C1453.98 -120.316 1451.82 -112.974 1450.62 -105.029C1448.27 -89.3272 1449.11 -68.2723 1450 -45.9748C1450.76 -27.1071 1451.54 -7.61799 1450.51 10.5849C1449.52 27.8895 1446.7 49.5611 1433.46 63.6509C1412.01 86.4769 1383.43 90.45 1355.81 94.2918C1340.88 96.3683 1326.77 98.3337 1314.5 103.209C1307.93 105.829 1302.45 109.055 1297.79 113.074C1292.58 117.569 1288.46 122.942 1285.19 129.511C1284.25 131.413 1283.32 133.308 1282.42 135.138C1270 160.534 1260.19 180.583 1227.18 178.22C1219.31 177.621 1210.79 176.133 1201.13 173.656C1192.17 171.352 1183.13 168.456 1174.39 165.654C1154.59 159.321 1134.13 152.765 1113.38 152.695C1107.84 152.69 1102.67 153.472 1098 155C1093.67 156.421 1089.62 158.543 1086 161.304C1079.7 166.099 1074.39 172.918 1069.77 182.16C1064.4 192.9 1060.88 205.097 1057.76 215.844L1057.52 216.69C1054.87 225.804 1052.53 235.051 1050.02 244.832C1046.13 260.053 1042.12 275.798 1036.91 291.261C1030.56 310.114 1023.81 325.114 1015.67 338.498C1000.63 363.117 979.804 381.479 958.397 396.493C948.427 403.486 938.347 409.748 928.641 415.582C922.534 419.252 916.279 422.816 910.212 426.263C907.965 427.54 905.64 428.856 903.37 430.164L903.465 430.322C905.743 429.024 908.06 427.698 910.307 426.421C916.365 422.98 922.637 419.419 928.736 415.74C944.207 406.431 960.654 396.062 976.094 383.317C992.945 369.404 1005.94 354.779 1015.83 338.596C1023.98 325.205 1030.73 310.171 1037.08 291.318C1042.3 275.838 1046.32 260.103 1050.2 244.872C1052.69 235.088 1055.05 225.844 1057.69 216.737L1057.93 215.891C1061.04 205.151 1064.57 192.964 1069.92 182.239C1079.92 162.206 1093.72 152.868 1113.37 152.869C1134.08 152.933 1154.53 159.496 1174.31 165.826C1183.06 168.628 1192.09 171.524 1201.06 173.837C1210.74 176.318 1219.27 177.816 1227.15 178.408C1242.35 179.493 1253.65 175.898 1262.7 167.091C1270.88 159.123 1276.56 147.524 1282.57 135.226C1283.47 133.386 1284.4 131.492 1285.35 129.6C1298.85 102.397 1326.52 98.5537 1355.82 94.4785C1369.42 92.5829 1383.5 90.6287 1396.86 86.2881C1406.19 83.2291 1414.34 79.2497 1421.47 74.2475Z" fill="url(#paint26_linear_330_10618)"/>
<path d="M1436.89 76.031C1439.52 74.1877 1442 72.1779 1444.38 69.9564C1450.47 64.2957 1454.76 56.8419 1457.5 47.1642C1459.85 38.8861 1461.02 29.0895 1461.08 17.2251C1461.18 -4.39577 1457.76 -28.1564 1454.46 -51.1382C1451.58 -71.1623 1448.87 -90.0584 1449.07 -104.537C1449.53 -137.845 1467.09 -159.128 1495.3 -182.651L1495.2 -182.764C1484.04 -173.455 1471.45 -162.137 1462.56 -148.779C1458.2 -142.218 1454.98 -135.605 1452.72 -128.587C1450.27 -120.976 1449.02 -113.112 1448.91 -104.547C1448.71 -90.0683 1451.42 -71.1551 1454.3 -51.131C1457.61 -28.1562 1461.03 -4.39563 1460.92 17.2152C1460.81 42.6603 1455.52 59.3767 1444.29 69.8431C1421.51 91.0382 1390.9 91.7792 1361.3 92.5032C1344.81 92.9069 1329.24 93.2886 1315.87 97.2317C1308.71 99.3522 1302.81 102.31 1297.83 106.282C1292.27 110.717 1287.98 116.305 1284.69 123.371C1283.08 126.818 1281.57 130.274 1280.09 133.613C1269.53 157.602 1260.41 178.325 1228.89 176.874C1220.93 176.498 1212.37 175.171 1202.7 172.84C1193.49 170.618 1184.21 167.713 1175.24 164.907C1155.63 158.783 1135.35 152.444 1114.73 152.827C1109.13 152.942 1103.93 153.895 1099.29 155.666C1094.98 157.312 1091.02 159.696 1087.51 162.774C1081.4 168.139 1076.48 175.659 1072.48 185.75C1067.73 197.75 1065.12 211.18 1062.81 223.02C1061.35 230.468 1059.96 238.23 1058.63 245.736C1055.42 263.899 1052.09 282.693 1046.82 300.847C1041.34 319.536 1034.61 335.103 1026.22 348.426C1003.28 384.799 965.643 405.118 932.164 421.312C924.619 424.957 916.902 428.484 909.433 431.897C907.711 432.686 905.973 433.471 904.251 434.26L904.315 434.394C906.037 433.606 907.769 432.81 909.498 432.031C916.966 428.619 924.701 425.095 932.236 421.456C947.876 413.883 966.012 404.62 982.573 393.004C983.065 392.66 983.547 392.322 984.031 391.967C1002.28 378.942 1016.12 364.729 1026.36 348.511C1034.75 335.171 1041.49 319.597 1046.97 300.891C1052.24 282.72 1055.57 263.943 1058.78 245.763C1060.12 238.257 1061.48 230.492 1062.95 223.054C1065.26 211.214 1067.86 197.791 1072.62 185.802C1081.34 163.827 1094.72 153.395 1114.73 152.976C1135.32 152.588 1155.59 158.917 1175.19 165.048C1184.16 167.854 1193.44 170.758 1202.66 172.974C1212.34 175.315 1220.92 176.628 1228.88 177.014C1243.37 177.674 1254.02 173.853 1262.41 164.973C1269.97 156.983 1274.95 145.658 1280.23 133.664C1281.7 130.332 1283.23 126.879 1284.83 123.422C1298.43 94.1703 1328.97 93.4344 1361.3 92.6357C1375.88 92.2739 1390.95 91.9106 1405.22 88.9796C1412.93 87.4036 1419.69 85.2212 1425.87 82.3387C1429.81 80.5323 1433.47 78.4301 1436.89 76.031Z" fill="url(#paint27_linear_330_10618)"/>
<path d="M1451.53 78.9173C1452.78 78.0449 1453.98 77.1394 1455.17 76.1697C1467.7 65.9921 1472.98 47.9097 1471.3 20.9194C1469.83 -2.6392 1463.26 -29.9963 1457.45 -54.1321C1452.98 -72.7285 1448.76 -90.2972 1447.3 -104.029C1443.32 -141.424 1461.06 -163.996 1488.92 -186.392L1488.84 -186.485C1472.94 -173.706 1462.88 -162.771 1456.21 -151.019C1448.26 -137.013 1445.3 -121.637 1447.18 -104.006C1448.65 -90.264 1452.86 -72.6882 1457.33 -54.0919C1463.14 -29.9561 1469.71 -2.59894 1471.16 20.9396C1472.85 47.8958 1467.59 65.937 1455.09 76.0935C1430.95 95.7029 1398.27 93.3181 1366.65 90.9966C1348.62 89.6793 1331.58 88.4303 1317.15 91.4127C1309.41 93.0098 1303.07 95.6886 1297.81 99.5931C1291.93 103.954 1287.46 109.74 1284.17 117.299C1282.1 122.045 1280.24 126.821 1278.44 131.449C1269.08 155.481 1261 176.23 1230.58 175.597C1212.03 175.217 1193.8 169.652 1176.16 164.277C1166.43 161.312 1156.38 158.245 1146.4 156.089C1135.2 153.675 1125.28 152.672 1116.07 153.053C1106.82 153.435 1098.87 156.2 1092.44 161.281C1086.77 165.766 1082.25 171.93 1078.61 180.15C1071.96 195.202 1069.8 214.183 1068.07 229.432C1067.42 235.246 1066.8 241.233 1066.21 247.022C1062.26 285.621 1058.17 325.525 1036.76 358.438C1027.1 373.28 1014.62 385.091 1000.76 394.807C980.502 409.019 957.309 418.776 935.674 427.126C925.663 430.99 915.414 434.706 905.502 438.306L905.118 438.44L905.158 438.562L905.543 438.427C915.454 434.827 925.713 431.104 935.724 427.24C953.226 420.487 973.602 412.048 991.964 400.695C1011.61 388.548 1026.3 374.757 1036.86 358.518C1058.29 325.59 1062.37 285.659 1066.33 247.053C1066.93 241.264 1067.54 235.284 1068.2 229.463C1069.93 214.224 1072.07 195.257 1078.72 180.222C1086.44 162.745 1098.65 153.91 1116.07 153.193C1136.58 152.351 1156.68 158.483 1176.12 164.41C1193.76 169.785 1212 175.353 1230.57 175.736C1241.42 175.959 1249.43 173.479 1255.68 169.095C1267 161.159 1272.51 147.014 1278.54 131.511C1280.35 126.893 1282.2 122.108 1284.27 117.361C1290.5 103.104 1300.95 94.9027 1317.17 91.5482C1331.59 88.5728 1348.62 89.8117 1366.64 91.1361C1382.21 92.277 1398.31 93.4566 1413.52 91.8867C1421.74 91.043 1428.93 89.4896 1435.51 87.1448C1441.41 84.9963 1446.7 82.3084 1451.53 78.9173Z" fill="url(#paint28_linear_330_10618)"/>
</g>
</g>
<defs>
<linearGradient id="paint0_linear_330_10618" x1="493.646" y1="176" x2="700" y2="176" gradientUnits="userSpaceOnUse">
<stop stop-color="#365783"/>
<stop offset="1" stop-color="#2A4C78"/>
</linearGradient>
<linearGradient id="paint1_linear_330_10618" x1="-166.095" y1="36.3035" x2="440.827" y2="191.906" gradientUnits="userSpaceOnUse">
<stop stop-color="#5995BA"/>
<stop offset="0.5" stop-color="#C5DFF0"/>
<stop offset="1" stop-color="#5995BA"/>
</linearGradient>
<linearGradient id="paint2_linear_330_10618" x1="-166.929" y1="39.5545" x2="439.993" y2="195.157" gradientUnits="userSpaceOnUse">
<stop stop-color="#5995BA"/>
<stop offset="0.5" stop-color="#C5DFF0"/>
<stop offset="1" stop-color="#5995BA"/>
</linearGradient>
<linearGradient id="paint3_linear_330_10618" x1="-167.705" y1="42.5834" x2="439.216" y2="198.186" gradientUnits="userSpaceOnUse">
<stop stop-color="#5995BA"/>
<stop offset="0.5" stop-color="#C5DFF0"/>
<stop offset="1" stop-color="#5995BA"/>
</linearGradient>
<linearGradient id="paint4_linear_330_10618" x1="-168.395" y1="45.2702" x2="438.527" y2="200.873" gradientUnits="userSpaceOnUse">
<stop stop-color="#5995BA"/>
<stop offset="0.5" stop-color="#C5DFF0"/>
<stop offset="1" stop-color="#5995BA"/>
</linearGradient>
<linearGradient id="paint5_linear_330_10618" x1="-168.971" y1="47.5202" x2="437.951" y2="203.123" gradientUnits="userSpaceOnUse">
<stop stop-color="#5995BA"/>
<stop offset="0.5" stop-color="#C5DFF0"/>
<stop offset="1" stop-color="#5995BA"/>
</linearGradient>
<linearGradient id="paint6_linear_330_10618" x1="-169.225" y1="48.5118" x2="437.697" y2="204.114" gradientUnits="userSpaceOnUse">
<stop stop-color="#5995BA"/>
<stop offset="0.5" stop-color="#C5DFF0"/>
<stop offset="1" stop-color="#5995BA"/>
</linearGradient>
<linearGradient id="paint7_linear_330_10618" x1="-168.245" y1="44.6886" x2="438.677" y2="200.291" gradientUnits="userSpaceOnUse">
<stop stop-color="#5995BA"/>
<stop offset="0.5" stop-color="#C5DFF0"/>
<stop offset="1" stop-color="#5995BA"/>
</linearGradient>
<linearGradient id="paint8_linear_330_10618" x1="-167.005" y1="39.8515" x2="439.917" y2="195.454" gradientUnits="userSpaceOnUse">
<stop stop-color="#5995BA"/>
<stop offset="0.5" stop-color="#C5DFF0"/>
<stop offset="1" stop-color="#5995BA"/>
</linearGradient>
<linearGradient id="paint9_linear_330_10618" x1="-166.411" y1="37.5354" x2="440.511" y2="193.138" gradientUnits="userSpaceOnUse">
<stop stop-color="#5995BA"/>
<stop offset="0.5" stop-color="#C5DFF0"/>
<stop offset="1" stop-color="#5995BA"/>
</linearGradient>
<linearGradient id="paint10_linear_330_10618" x1="-166.076" y1="36.2288" x2="440.845" y2="191.831" gradientUnits="userSpaceOnUse">
<stop stop-color="#5995BA"/>
<stop offset="0.5" stop-color="#C5DFF0"/>
<stop offset="1" stop-color="#5995BA"/>
</linearGradient>
<linearGradient id="paint11_linear_330_10618" x1="-165.74" y1="34.9209" x2="441.182" y2="190.523" gradientUnits="userSpaceOnUse">
<stop stop-color="#5995BA"/>
<stop offset="0.5" stop-color="#C5DFF0"/>
<stop offset="1" stop-color="#5995BA"/>
</linearGradient>
<linearGradient id="paint12_linear_330_10618" x1="-165.669" y1="34.6381" x2="441.253" y2="190.241" gradientUnits="userSpaceOnUse">
<stop stop-color="#5995BA"/>
<stop offset="0.5" stop-color="#C5DFF0"/>
<stop offset="1" stop-color="#5995BA"/>
</linearGradient>
<linearGradient id="paint13_linear_330_10618" x1="-166.097" y1="36.3113" x2="440.825" y2="191.914" gradientUnits="userSpaceOnUse">
<stop stop-color="#5995BA"/>
<stop offset="0.5" stop-color="#C5DFF0"/>
<stop offset="1" stop-color="#5995BA"/>
</linearGradient>
<linearGradient id="paint14_linear_330_10618" x1="-166.702" y1="38.6701" x2="440.22" y2="194.273" gradientUnits="userSpaceOnUse">
<stop stop-color="#5995BA"/>
<stop offset="0.5" stop-color="#C5DFF0"/>
<stop offset="1" stop-color="#5995BA"/>
</linearGradient>
<linearGradient id="paint15_linear_330_10618" x1="1543.22" y1="-93.6833" x2="1018.72" y2="249.052" gradientUnits="userSpaceOnUse">
<stop stop-color="#5995BA"/>
<stop offset="0.5" stop-color="#C5DFF0"/>
<stop offset="1" stop-color="#5995BA"/>
</linearGradient>
<linearGradient id="paint16_linear_330_10618" x1="1545.05" y1="-90.8739" x2="1020.55" y2="251.861" gradientUnits="userSpaceOnUse">
<stop stop-color="#5995BA"/>
<stop offset="0.5" stop-color="#C5DFF0"/>
<stop offset="1" stop-color="#5995BA"/>
</linearGradient>
<linearGradient id="paint17_linear_330_10618" x1="1546.76" y1="-88.2564" x2="1022.26" y2="254.479" gradientUnits="userSpaceOnUse">
<stop stop-color="#5995BA"/>
<stop offset="0.5" stop-color="#C5DFF0"/>
<stop offset="1" stop-color="#5995BA"/>
</linearGradient>
<linearGradient id="paint18_linear_330_10618" x1="1548.28" y1="-85.9344" x2="1023.78" y2="256.801" gradientUnits="userSpaceOnUse">
<stop stop-color="#5995BA"/>
<stop offset="0.5" stop-color="#C5DFF0"/>
<stop offset="1" stop-color="#5995BA"/>
</linearGradient>
<linearGradient id="paint19_linear_330_10618" x1="1549.55" y1="-83.99" x2="1025.05" y2="258.745" gradientUnits="userSpaceOnUse">
<stop stop-color="#5995BA"/>
<stop offset="0.5" stop-color="#C5DFF0"/>
<stop offset="1" stop-color="#5995BA"/>
</linearGradient>
<linearGradient id="paint20_linear_330_10618" x1="1550.11" y1="-83.1331" x2="1025.61" y2="259.602" gradientUnits="userSpaceOnUse">
<stop stop-color="#5995BA"/>
<stop offset="0.5" stop-color="#C5DFF0"/>
<stop offset="1" stop-color="#5995BA"/>
</linearGradient>
<linearGradient id="paint21_linear_330_10618" x1="1547.95" y1="-86.4369" x2="1023.45" y2="256.298" gradientUnits="userSpaceOnUse">
<stop stop-color="#5995BA"/>
<stop offset="0.5" stop-color="#C5DFF0"/>
<stop offset="1" stop-color="#5995BA"/>
</linearGradient>
<linearGradient id="paint22_linear_330_10618" x1="1545.22" y1="-90.6172" x2="1020.72" y2="252.118" gradientUnits="userSpaceOnUse">
<stop stop-color="#5995BA"/>
<stop offset="0.5" stop-color="#C5DFF0"/>
<stop offset="1" stop-color="#5995BA"/>
</linearGradient>
<linearGradient id="paint23_linear_330_10618" x1="1543.91" y1="-92.6187" x2="1019.41" y2="250.116" gradientUnits="userSpaceOnUse">
<stop stop-color="#5995BA"/>
<stop offset="0.5" stop-color="#C5DFF0"/>
<stop offset="1" stop-color="#5995BA"/>
</linearGradient>
<linearGradient id="paint24_linear_330_10618" x1="1543.18" y1="-93.748" x2="1018.68" y2="248.987" gradientUnits="userSpaceOnUse">
<stop stop-color="#5995BA"/>
<stop offset="0.5" stop-color="#C5DFF0"/>
<stop offset="1" stop-color="#5995BA"/>
</linearGradient>
<linearGradient id="paint25_linear_330_10618" x1="1542.44" y1="-94.8781" x2="1017.94" y2="247.857" gradientUnits="userSpaceOnUse">
<stop stop-color="#5995BA"/>
<stop offset="0.5" stop-color="#C5DFF0"/>
<stop offset="1" stop-color="#5995BA"/>
</linearGradient>
<linearGradient id="paint26_linear_330_10618" x1="1542.28" y1="-95.1228" x2="1017.78" y2="247.612" gradientUnits="userSpaceOnUse">
<stop stop-color="#5995BA"/>
<stop offset="0.5" stop-color="#C5DFF0"/>
<stop offset="1" stop-color="#5995BA"/>
</linearGradient>
<linearGradient id="paint27_linear_330_10618" x1="1543.22" y1="-93.6767" x2="1018.72" y2="249.058" gradientUnits="userSpaceOnUse">
<stop stop-color="#5995BA"/>
<stop offset="0.5" stop-color="#C5DFF0"/>
<stop offset="1" stop-color="#5995BA"/>
</linearGradient>
<linearGradient id="paint28_linear_330_10618" x1="1544.55" y1="-91.6381" x2="1020.05" y2="251.097" gradientUnits="userSpaceOnUse">
<stop stop-color="#5995BA"/>
<stop offset="0.5" stop-color="#C5DFF0"/>
<stop offset="1" stop-color="#5995BA"/>
</linearGradient>
</defs>
</svg>
