<svg width="23" height="26" viewBox="0 0 23 26" fill="none" xmlns="http://www.w3.org/2000/svg">
<path d="M13.2642 0C13.6639 0.0954073 14.0635 0.190815 14.4632 0.283643C16.1367 0.670429 17.8102 1.04432 19.4786 1.444C20.149 1.60387 20.5822 2.05255 20.7395 2.72297C21.2114 4.72395 21.6703 6.72492 22.1216 8.73105C22.2686 9.38859 22.1035 9.98424 21.6265 10.4639C17.8695 14.2286 14.1022 17.9933 10.3375 21.758C9.78053 22.315 9.00438 22.3124 8.44483 21.7529C5.77085 19.0789 3.09687 16.4049 0.425465 13.7309C-0.141822 13.1636 -0.141822 12.3978 0.425465 11.8305C4.17729 8.0761 7.9317 4.32427 11.6809 0.569865C11.9826 0.265593 12.3462 0.0902501 12.7639 0.0232072C12.7923 0.01805 12.8207 0.00773572 12.8516 0C12.9909 0 13.1275 0 13.2642 0ZM9.40664 20.8813C9.435 20.8529 9.47368 20.8194 9.50978 20.7833C12.8387 17.4569 16.1651 14.128 19.494 10.8016C19.9014 10.3942 20.3089 9.9894 20.7163 9.5794C20.8736 9.42211 20.9354 9.22872 20.8839 9.01212C20.43 7.03435 19.9711 5.05658 19.5198 3.07882C19.4657 2.84159 19.3316 2.71008 19.0943 2.65593C17.1372 2.20726 15.1801 1.75859 13.2229 1.30734C12.9651 1.24803 12.7536 1.30476 12.5654 1.49299C8.8342 5.22419 5.103 8.95539 1.36922 12.6866C1.34086 12.715 1.31249 12.7485 1.29187 12.7691C3.99937 15.474 6.70171 18.1738 9.40664 20.8813Z" fill="#2477FF"/>
<path d="M9.24147 25.2699C8.94751 25.2029 8.73865 25.0146 8.53236 24.8083C5.77844 22.0493 3.02195 19.2954 0.26545 16.5414C0.22935 16.5053 0.182936 16.4821 0.149414 16.4589C0.3196 16.2887 0.461422 16.1443 0.639343 15.9664C0.66255 16.0025 0.685758 16.0567 0.724436 16.0953C3.5093 18.8828 6.29674 21.6676 9.08418 24.4525C9.32914 24.6975 9.46581 24.6975 9.71335 24.4499C13.5812 20.5821 17.4491 16.7142 21.3169 12.8463C21.353 12.8102 21.384 12.7664 21.4072 12.738C21.5645 12.8953 21.7089 13.0397 21.8636 13.197C21.8559 13.2073 21.8301 13.2383 21.7991 13.2666C17.9055 17.1577 14.0118 21.0488 10.1208 24.9424C9.95831 25.1049 9.7675 25.2054 9.5509 25.2699C9.44775 25.2699 9.34461 25.2699 9.24147 25.2699Z" fill="#2477FF"/>
<path d="M17.0546 3.9402C17.7096 3.93762 18.2382 4.46107 18.2382 5.11345C18.2382 5.75809 17.7122 6.2867 17.0675 6.29186C16.4151 6.29443 15.8891 5.77098 15.8865 5.11602C15.8891 4.46365 16.4048 3.94277 17.0546 3.9402Z" fill="#2477FF"/>
</svg>
