<svg width="22" height="27" viewBox="0 0 22 27" fill="none" xmlns="http://www.w3.org/2000/svg">
<path d="M7.40294 25.8282C7.42526 25.3081 7.41038 24.3559 7.3583 23.4622C7.31366 22.7078 7.2467 22.0119 7.16486 21.6749C6.73334 19.9023 5.78847 18.43 4.87335 16.9943C3.66064 15.0971 2.5 13.2805 2.5 10.8852C2.5 8.54119 3.4672 6.42427 5.02215 4.88601C6.57711 3.34776 8.7347 2.39551 11.1155 2.38818H11.1304C13.5037 2.39551 15.6539 3.34776 17.2163 4.88601C18.7712 6.41694 19.7384 8.53387 19.731 10.8779V10.8925C19.7235 13.2292 18.5555 15.0751 17.3427 16.9869C16.4202 18.4446 15.4679 19.9462 15.0438 21.6896C14.962 22.0339 14.895 22.7517 14.8504 23.5208C14.8057 24.4145 14.7908 25.3594 14.828 25.8575L14.404 25.8868L14.828 25.8575C14.8429 26.0919 14.6644 26.2897 14.4263 26.3044C14.4188 26.3044 14.404 26.3044 14.3965 26.3044H14.3891H7.82702C7.58894 26.3044 7.3955 26.1139 7.3955 25.8795C7.3955 25.8575 7.3955 25.8429 7.40294 25.8282ZM8.20646 23.411C8.2511 24.1288 8.26598 24.8979 8.25854 25.4546H13.9427C13.9352 24.9126 13.9501 24.1728 13.9873 23.4622C14.032 22.6565 14.0989 21.8874 14.2031 21.4772C14.6644 19.5946 15.6464 18.0344 16.6062 16.5255C17.7519 14.7162 18.8605 12.9655 18.8679 10.8705V10.8559C18.8754 8.75362 18.0049 6.84179 16.5987 5.46469C15.1926 4.08026 13.2582 3.22324 11.1229 3.21591H11.108C8.96534 3.22324 7.03094 4.08759 5.62479 5.47201C4.21863 6.85644 3.3556 8.76827 3.3556 10.8779C3.3556 13.0314 4.45671 14.7528 5.59503 16.5401C6.54734 18.0271 7.52942 19.5653 7.9907 21.4772C8.08742 21.8727 8.16182 22.6199 8.20646 23.411Z" fill="#2477FF"/>
<path d="M14.6643 22.7808H7.7749V23.6231H14.6643V22.7808Z" fill="#2477FF"/>
<path d="M14.1658 22.7808H7.49219V23.6231H14.1658V22.7808Z" fill="#2477FF"/>
<path d="M11.532 0.424851C11.532 0.19045 11.3385 0 11.1005 0C10.8624 0 10.6689 0.19045 10.6689 0.424851V1.35513C10.6689 1.58953 10.8624 1.77998 11.1005 1.77998C11.3385 1.77998 11.532 1.58953 11.532 1.35513V0.424851Z" fill="#2477FF"/>
<path d="M16.7472 2.08017C16.8662 1.8824 16.7918 1.6187 16.591 1.50882C16.3901 1.39162 16.1222 1.46487 16.0106 1.66265L15.5419 2.4684C15.4229 2.66617 15.4973 2.92987 15.6982 3.03975C15.899 3.15695 16.1669 3.0837 16.2785 2.88592L16.7472 2.08017Z" fill="#2477FF"/>
<path d="M20.4227 6.0797C20.6236 5.9625 20.698 5.70613 20.5789 5.50103C20.4599 5.30325 20.1995 5.23 19.9912 5.3472L19.1728 5.80868C18.9719 5.92588 18.8975 6.18225 19.0165 6.38735C19.1356 6.58513 19.396 6.65838 19.6043 6.54118L20.4227 6.0797Z" fill="#2477FF"/>
<path d="M21.5683 11.3536C21.8064 11.3536 21.9998 11.1632 21.9998 10.9288C21.9998 10.6944 21.8064 10.5039 21.5683 10.5039H20.6234C20.3853 10.5039 20.1919 10.6944 20.1919 10.9288C20.1919 11.1632 20.3853 11.3536 20.6234 11.3536H21.5683Z" fill="#2477FF"/>
<path d="M0.431518 10.2988C0.193439 10.2988 0 10.4893 0 10.7237C0 10.9581 0.193439 11.1485 0.431518 11.1485H1.37639C1.61447 11.1485 1.80791 10.9581 1.80791 10.7237C1.80791 10.4893 1.61447 10.2988 1.37639 10.2988H0.431518Z" fill="#2477FF"/>
<path d="M2.11297 5.17142C1.91209 5.05422 1.64425 5.12747 1.53265 5.32524C1.41361 5.52302 1.48801 5.78672 1.68889 5.8966L2.50729 6.35807C2.70817 6.47527 2.97601 6.40202 3.08761 6.20425C3.20665 6.00647 3.13225 5.74277 2.93137 5.6329L2.11297 5.17142Z" fill="#2477FF"/>
<path d="M6.17509 1.55278C6.05605 1.35501 5.79565 1.28176 5.58733 1.39896C5.38645 1.51616 5.31205 1.77253 5.43109 1.97763L5.89981 2.78339C6.01885 2.98116 6.27925 3.05441 6.48757 2.93721C6.68845 2.82001 6.76285 2.56364 6.64381 2.35854L6.17509 1.55278Z" fill="#2477FF"/>
<path d="M12.4545 7.77908C12.6256 7.83768 12.7967 7.9036 12.9529 7.98418C13.124 8.07208 13.2877 8.17463 13.444 8.2845L15.356 7.2004L15.728 6.98798L15.9438 7.35423L16.8812 8.95108L17.097 9.31733L16.725 9.52975L14.9245 10.5553C14.9394 10.6212 14.9468 10.6798 14.9543 10.7457C14.9766 10.9215 14.9915 11.0973 14.9915 11.2731C14.9915 11.3757 14.984 11.4929 14.9766 11.6174C14.9766 11.632 14.9766 11.6467 14.9692 11.6613L16.8812 12.7454L17.2532 12.9579L17.0375 13.3241L16.1 14.921L15.8843 15.2872L15.5123 15.0748L13.7118 14.0493C13.5779 14.1665 13.4291 14.2764 13.2803 14.3716C13.1166 14.4741 12.9529 14.562 12.7744 14.6426V16.8181V17.243H12.3503H10.4754H10.0439V16.8181V14.7671C9.87278 14.7085 9.70166 14.6426 9.54542 14.562C9.3743 14.4741 9.21062 14.3716 9.05438 14.2617L7.14231 15.3385L6.77031 15.5509L6.55455 15.1847L5.61712 13.5878L5.40136 13.2216L5.77336 13.0091L7.57383 11.9836C7.55895 11.9177 7.55151 11.8591 7.54407 11.7932C7.52175 11.6174 7.50687 11.4416 7.50687 11.2658C7.50687 11.1632 7.51431 11.046 7.52175 10.9215C7.52175 10.9069 7.52175 10.8922 7.52919 10.8849L5.61712 9.80078L5.24512 9.58835L5.46088 9.2221L6.39831 7.63258L6.61407 7.26633L6.98607 7.47875L8.78654 8.50425C8.92046 8.38705 9.06926 8.27718 9.21806 8.18195C9.38174 8.0794 9.54542 7.9915 9.72398 7.91093V5.7354V5.31055H10.1555H12.0304H12.4619V5.7354V7.77908H12.4545ZM12.5661 8.73865C12.3652 8.6361 12.1494 8.55553 11.9262 8.50425L11.5989 8.42368V8.09405V6.15292H10.5796V8.18928V8.4896L10.2894 8.59215C10.0737 8.6654 9.86534 8.76795 9.67934 8.88515C9.4859 9.00968 9.30734 9.14885 9.1511 9.31733L8.92046 9.55905L8.63031 9.39058L6.91911 8.41635L6.40575 9.28803L8.19879 10.3062L8.45919 10.4527L8.40711 10.7457C8.39223 10.8336 8.37735 10.9215 8.36991 11.0094C8.36247 11.0827 8.36247 11.1779 8.36247 11.2731C8.36247 11.4123 8.36991 11.5515 8.39223 11.6833C8.41455 11.8225 8.44431 11.9543 8.48151 12.0789L8.57823 12.3938L8.28807 12.5623L6.57687 13.5365L7.09023 14.4082L8.88326 13.39L9.14366 13.2435L9.3743 13.434C9.54542 13.5805 9.73886 13.705 9.93974 13.8076C10.1406 13.9101 10.3564 13.9907 10.5796 14.042L10.9069 14.1225V14.4522V16.3933H11.9262V14.3569V14.0566L12.2164 13.9541C12.4321 13.8808 12.6405 13.7783 12.8264 13.6611C13.0199 13.5365 13.1984 13.3974 13.3547 13.2289L13.5853 12.9872L13.8755 13.1556L15.5867 14.1299L16.1 13.2582L14.307 12.24L14.0466 12.0935L14.0987 11.8005C14.1136 11.7126 14.1284 11.6247 14.1359 11.5368C14.1433 11.4636 14.1433 11.3757 14.1433 11.2731C14.1433 11.1339 14.1359 10.9948 14.1136 10.8629C14.0912 10.7237 14.0615 10.5919 14.0243 10.4674L13.9276 10.1524L14.2177 9.98391L15.9289 9.00968L15.4156 8.138L13.6225 9.15618L13.3621 9.30268L13.1315 9.11223C12.9604 8.96573 12.7669 8.8412 12.5661 8.73865Z" fill="#2477FF"/>
<path d="M8.83105 26.5826C8.83105 26.817 9.02449 27.0075 9.26257 27.0075C9.50065 27.0075 9.69409 26.817 9.69409 26.5826V25.8794C9.69409 25.645 9.50065 25.4546 9.26257 25.4546C9.02449 25.4546 8.83105 25.645 8.83105 25.8794V26.5826Z" fill="#2477FF"/>
<path d="M12.5361 26.5826C12.5361 26.817 12.7296 27.0075 12.9677 27.0075C13.2057 27.0075 13.3992 26.817 13.3992 26.5826V25.8794C13.3992 25.645 13.2057 25.4546 12.9677 25.4546C12.7296 25.4546 12.5361 25.645 12.5361 25.8794V26.5826Z" fill="#2477FF"/>
<path d="M14.8502 20.4443H7.37305V21.2867H14.8502V20.4443Z" fill="#2477FF"/>
<path d="M11.2494 9.29541C11.8 9.29541 12.3059 9.51516 12.663 9.87409C13.0276 10.233 13.2508 10.7238 13.2508 11.2658C13.2508 11.8079 13.0276 12.306 12.663 12.6576C12.2984 13.0165 11.8 13.2363 11.2494 13.2363C10.6988 13.2363 10.1929 13.0165 9.8358 12.6576C9.47125 12.2987 9.24805 11.8079 9.24805 11.2658C9.24805 10.7238 9.47125 10.2257 9.8358 9.87409C10.1929 9.52249 10.6988 9.29541 11.2494 9.29541ZM12.0604 10.4747C11.852 10.2696 11.5693 10.1451 11.2494 10.1451C10.9295 10.1451 10.6468 10.2696 10.4384 10.4747C10.2301 10.6798 10.1036 10.9582 10.1036 11.2732C10.1036 11.5881 10.2301 11.8665 10.4384 12.0716C10.6468 12.2767 10.9295 12.4012 11.2494 12.4012C11.5693 12.4012 11.852 12.2767 12.0604 12.0716C12.2687 11.8665 12.3952 11.5881 12.3952 11.2732C12.3952 10.9582 12.2687 10.6798 12.0604 10.4747Z" fill="#2477FF"/>
</svg>
