<svg width="26" height="25" viewBox="0 0 26 25" fill="none" xmlns="http://www.w3.org/2000/svg">
<path d="M2.68387 25C2.51875 25 2.35975 25 2.19463 25C2.13348 24.9878 2.07232 24.9694 2.01117 24.9572C1.09385 24.7615 0.451725 24.2417 0.145952 23.3488C-0.190398 22.3581 0.0664515 21.4897 0.794191 20.7559C1.77878 19.7591 2.76948 18.7745 3.7663 17.7838C3.86415 17.6859 3.98035 17.6064 4.09042 17.5208C3.54615 16.6157 3.16699 15.7106 2.91014 14.7444C2.89179 14.6771 2.78172 14.6037 2.70833 14.5854C2.15794 14.4386 1.60755 14.3041 1.05716 14.1634C0.720806 14.0778 0.598496 13.9249 0.598496 13.5702C0.598496 12.659 0.598496 11.7478 0.598496 10.8366C0.598496 10.488 0.720806 10.3351 1.05716 10.2495C1.5892 10.115 2.12736 9.97432 2.66552 9.84589C2.80618 9.81531 2.88568 9.75416 2.92237 9.60127C3.14864 8.69618 3.50334 7.84002 3.97423 7.03889C4.05373 6.90435 4.03539 6.81262 3.962 6.69031C3.68069 6.24388 3.41161 5.78523 3.14253 5.33268C2.92849 4.97187 2.94683 4.80064 3.23426 4.51321C3.85804 3.88332 4.48793 3.25954 5.11782 2.62965C5.40525 2.34834 5.57037 2.32387 5.91895 2.52569C6.37149 2.79477 6.83015 3.06385 7.27658 3.34516C7.39277 3.41854 7.4845 3.43689 7.60681 3.35739C8.42629 2.86204 9.3008 2.49511 10.2303 2.26272C10.371 2.22603 10.4322 2.15264 10.4627 2.02422C10.5912 1.5044 10.7196 0.984589 10.8541 0.464775C10.9397 0.122309 11.0926 0 11.4351 0C12.3524 0 13.2758 0 14.1932 0C14.5234 0 14.6824 0.128425 14.768 0.452544C14.9026 0.972358 15.0249 1.49217 15.1655 2.01199C15.19 2.0976 15.2878 2.2138 15.3734 2.23214C16.3213 2.48288 17.2203 2.85592 18.0704 3.34516C18.1376 3.38796 18.2783 3.38185 18.3456 3.33904C18.8042 3.07608 19.2568 2.80088 19.7093 2.5318C20.0457 2.32999 20.2169 2.35445 20.4921 2.62353C21.1342 3.25954 21.7702 3.90166 22.4062 4.53767C22.6692 4.80064 22.6875 4.97798 22.498 5.29599C22.235 5.74242 21.9659 6.19496 21.6907 6.63527C21.6112 6.75758 21.6051 6.85543 21.6785 6.98386C22.1738 7.80944 22.5408 8.69618 22.7732 9.63185C22.8037 9.76639 22.8771 9.82754 23.0117 9.86424C23.4948 9.97431 23.9718 10.1089 24.4549 10.2189C24.6934 10.274 24.8952 10.3718 25.0175 10.5981C25.0175 11.6744 25.0175 12.7446 25.0175 13.8209C24.8952 14.0472 24.6995 14.1451 24.4549 14.2001C23.9718 14.3102 23.4948 14.4386 23.0117 14.5548C22.8588 14.5915 22.7793 14.6588 22.7426 14.8116C22.5102 15.7228 22.1555 16.5851 21.6663 17.3863C21.5806 17.5269 21.5929 17.6248 21.6785 17.7593C21.9598 18.2057 22.2289 18.6644 22.4918 19.1169C22.6814 19.4349 22.6631 19.6184 22.4001 19.8752C21.7641 20.5174 21.122 21.1534 20.486 21.7894C20.2108 22.0585 20.0395 22.0829 19.7093 21.8811C19.2384 21.6059 18.7736 21.3246 18.3089 21.0372C18.1927 20.9638 18.1009 20.9577 17.9786 21.0311C17.1775 21.502 16.3213 21.8628 15.4163 22.0829C15.2573 22.1196 15.1961 22.2052 15.1594 22.3581C15.0371 22.8902 14.9026 23.4161 14.768 23.942C14.6763 24.2967 14.5295 24.4129 14.1626 24.4129C13.2575 24.4129 12.3585 24.4129 11.4534 24.4129C11.0865 24.4129 10.9397 24.2967 10.848 23.942C10.7135 23.4161 10.5789 22.8902 10.4505 22.3581C10.4138 22.193 10.3465 22.0952 10.1631 22.0523C9.91846 22.0034 9.67384 21.9239 9.44145 21.8322C8.79321 21.557 8.15109 21.2696 7.44781 20.9638C7.42335 20.9944 7.38054 21.0739 7.31939 21.135C6.4143 22.0462 5.49698 22.9452 4.59801 23.8686C4.04762 24.419 3.48499 24.9022 2.68387 25ZM6.928 14.6159C7.31939 14.2184 7.66797 13.8393 8.05324 13.5029C8.35902 13.2277 8.56083 12.9464 8.40794 12.5245C8.40182 12.5 8.40182 12.4755 8.40182 12.4511C8.26728 9.66854 10.6217 7.50367 13.3982 7.85837C16.2663 8.22529 18.0092 11.3931 16.7922 14.0105C15.9544 15.8085 14.1748 16.7931 12.1934 16.5484C11.9977 16.524 11.8632 16.5668 11.7286 16.7136C11.3372 17.1294 10.9275 17.5208 10.5239 17.9244C10.4811 17.9672 10.4505 18.0161 10.4016 18.0773C10.4566 18.0956 10.4811 18.114 10.5117 18.1201C12.7071 18.909 14.7558 18.6338 16.6271 17.2395C19.373 15.203 19.9478 11.2096 17.9052 8.4638C17.1897 7.50367 16.2908 6.78205 15.1778 6.32339C15.1411 6.30504 15.1044 6.29281 15.0677 6.27446C14.7558 6.12769 14.6335 5.87696 14.7497 5.60788C14.8597 5.34491 15.1349 5.25318 15.4529 5.37549C16.5843 5.82192 17.5689 6.49462 18.3456 7.4364C20.1007 9.57069 20.5777 11.9741 19.6971 14.5915C19.0183 16.6157 17.6362 18.0528 15.6915 18.9151C14.4378 19.4716 13.1107 19.6673 11.7592 19.4227C11.0987 19.3065 10.4627 19.0619 9.82061 18.8845C9.74722 18.8662 9.62492 18.8417 9.58211 18.8784C9.12956 19.3126 8.69537 19.7591 8.23671 20.2116C8.30398 20.2544 8.3529 20.2789 8.40182 20.3033C9.12345 20.7008 9.88788 21.0005 10.6951 21.1717C11.0376 21.2451 11.2333 21.4102 11.3067 21.771C11.4045 22.2664 11.5574 22.7495 11.6675 23.2387C11.7042 23.3916 11.7714 23.4283 11.9121 23.4283C12.4992 23.4222 13.0863 23.4222 13.6672 23.4283C13.8201 23.4283 13.8935 23.3977 13.9302 23.2265C14.0403 22.725 14.187 22.2358 14.2971 21.7343C14.3644 21.4347 14.5295 21.2757 14.8292 21.2084C15.8199 20.9883 16.7617 20.6336 17.6178 20.0832C17.9847 19.8447 18.2844 19.8447 18.6452 20.0893C19.0733 20.3828 19.532 20.6274 19.9233 20.8659C20.4554 20.3339 20.963 19.8263 21.4767 19.3187C21.2015 18.854 20.9079 18.3647 20.6144 17.8816C20.4799 17.6553 20.4676 17.4413 20.6083 17.2211C21.2137 16.2732 21.6418 15.252 21.8864 14.1573C21.9415 13.9004 22.1005 13.7537 22.3634 13.6986C22.8649 13.5824 23.3541 13.4418 23.8556 13.3317C23.9962 13.3011 24.0391 13.24 24.0329 13.0993C24.0268 12.5061 24.0268 11.9129 24.0329 11.3197C24.0329 11.1546 23.984 11.0996 23.825 11.0629C23.3541 10.9589 22.8955 10.8244 22.4307 10.7204C22.1188 10.6531 21.9537 10.4758 21.8925 10.17C21.6663 9.11203 21.2626 8.12133 20.6756 7.21013C20.4921 6.92882 20.4982 6.67808 20.6817 6.39677C20.9691 5.95034 21.2382 5.47945 21.4889 5.05749C20.963 4.53156 20.4615 4.02397 19.9417 3.51027C19.5136 3.76712 19.0488 4.03009 18.6085 4.31751C18.3211 4.50709 18.0643 4.50709 17.7768 4.31751C16.8962 3.74878 15.9361 3.34516 14.9087 3.125C14.5295 3.0455 14.3338 2.85592 14.2604 2.47676C14.1565 1.96918 14.0158 1.46771 13.8874 0.966243C13.1597 0.966243 12.4503 0.966243 11.7347 0.966243C11.7164 1.02128 11.6919 1.07632 11.6797 1.13136C11.5574 1.6206 11.4229 2.10372 11.3128 2.59907C11.2455 2.8865 11.0926 3.05161 10.8052 3.11888C9.74111 3.35739 8.74429 3.76712 7.82697 4.36032C7.56401 4.53156 7.31939 4.51933 7.05642 4.35421C6.59165 4.06067 6.11464 3.78547 5.65598 3.51027C5.13617 4.03009 4.6347 4.53767 4.11489 5.05749C4.3962 5.52838 4.68974 6.02373 4.9894 6.51296C5.14228 6.75758 5.14228 6.97774 4.9894 7.21624C4.40843 8.13968 3.99869 9.1365 3.7663 10.2006C3.70515 10.4697 3.55226 10.6226 3.28318 10.6837C2.76948 10.806 2.2619 10.9467 1.7482 11.0629C1.61366 11.0934 1.56474 11.1424 1.56474 11.2891C1.57085 11.8885 1.57085 12.4939 1.56474 13.0932C1.56474 13.2339 1.60143 13.2889 1.74209 13.3256C2.24967 13.4418 2.75114 13.5886 3.25872 13.6986C3.57061 13.7659 3.72961 13.9432 3.803 14.2429C3.90085 14.6343 4.00481 15.0318 4.15158 15.411C4.32281 15.8696 4.54297 16.3038 4.75701 16.7931C5.20955 16.3405 5.60094 15.9308 6.01679 15.5394C6.16357 15.3987 6.1758 15.2886 6.09629 15.1174C5.65598 14.1573 5.46029 13.136 5.47863 12.0841C5.52756 9.10592 7.34996 6.4885 10.1142 5.38772C10.4444 5.25318 10.7257 5.3388 10.8358 5.60788C10.952 5.88307 10.8235 6.12769 10.4933 6.28669C10.1998 6.42735 9.894 6.54354 9.6188 6.71478C7.72301 7.8706 6.66503 9.55846 6.46934 11.7661C6.37761 12.7385 6.54884 13.6742 6.928 14.6159ZM10.8664 16.157C9.96738 15.7106 9.28857 15.0196 8.83602 14.1206C6.70173 16.2549 4.58578 18.3708 2.49429 20.4562C3.17311 21.135 3.86415 21.8261 4.52462 22.4865C6.62222 20.3951 8.73817 18.2791 10.8664 16.157ZM9.38641 12.3288C9.50261 12.2921 9.60045 12.2676 9.70442 12.2309C10.8664 11.8456 12.0344 11.4604 13.1902 11.069C13.4348 10.9895 13.6611 10.9283 13.869 11.1363C14.0647 11.3381 14.0097 11.5582 13.9302 11.7967C13.5327 12.9648 13.1474 14.1389 12.756 15.307C12.7255 15.4048 12.6949 15.5027 12.6643 15.6067C14.3277 15.7106 16.089 14.408 16.1929 12.3777C16.2969 10.4085 14.7191 8.77569 12.7683 8.78792C10.8664 8.80015 9.27633 10.4391 9.38641 12.3288ZM9.55765 13.3134C9.96127 14.3591 10.6462 15.044 11.6858 15.4354C12.0405 14.3713 12.3891 13.3317 12.7499 12.2432C11.6675 12.6101 10.6279 12.9525 9.55765 13.3134ZM1.73597 21.2023C1.18558 21.6671 0.818653 22.2114 1.04493 22.9697C1.21616 23.5506 1.62589 23.9053 2.22521 24.0032C2.91626 24.1133 3.39326 23.7463 3.79077 23.2632C3.09972 22.5722 2.4209 21.8933 1.73597 21.2023Z" fill="#2477FF"/>
<path d="M12.7928 5.85247C12.5359 5.85247 12.3097 5.6262 12.3097 5.36935C12.3097 5.1125 12.5359 4.88623 12.7928 4.88623C13.0496 4.88623 13.2759 5.1125 13.2759 5.36935C13.2759 5.62009 13.0496 5.85247 12.7928 5.85247Z" fill="#2477FF"/>
</svg>
