<svg width="24" height="19" viewBox="0 0 24 19" fill="none" xmlns="http://www.w3.org/2000/svg">
<path d="M2.47035 12.4034H3.74049V5.44824H0.881335C0.525781 5.44824 0.236328 5.73743 0.236328 6.09299V11.7586C0.236328 12.1142 0.525781 12.4034 0.881335 12.4034L2.47035 12.4034Z" fill="url(#paint0_linear_3_30020)"/>
<path d="M23.1517 8.92305C23.1517 4.00258 20.9485 0 18.2403 0C17.8378 0 17.4334 0.092437 17.0381 0.275254L16.7287 0.44335C16.4385 0.612993 16.1679 0.822403 15.9242 1.06641C15.6443 1.33779 15.3703 1.6732 15.1067 2.06646C14.5988 2.83436 14.1756 3.79442 13.8701 4.86546C13.9597 4.8492 14.0498 4.83809 14.141 4.83809C14.6889 4.83809 15.2077 5.13219 15.6417 5.68783C16.2312 6.47047 16.5676 7.6484 16.5676 8.92344C16.5676 10.2016 16.2312 11.3811 15.6448 12.1596C15.2082 12.7194 14.6892 13.0132 14.1412 13.0132C14.0501 13.0132 13.9602 13.0021 13.8706 12.9858C14.174 14.0476 14.5988 15.0097 15.1134 15.7913C15.3672 16.17 15.6404 16.5044 15.9234 16.7833C16.184 17.0397 16.4605 17.2538 16.7445 17.4195L16.8347 17.4691C17.2865 17.7229 17.759 17.851 18.2414 17.851C20.9484 17.8513 23.1517 13.8462 23.1517 8.92332L23.1517 8.92305Z" fill="url(#paint1_linear_3_30020)"/>
<path d="M3.68996 18.9989L5.89094 18.8062C5.94026 18.8018 5.98467 18.7783 6.01617 18.7399C6.04741 18.7017 6.06136 18.6534 6.05568 18.6046L5.46774 13.5189L3.97245 12.9668H2.78857L3.49401 18.8398C3.50589 18.9379 3.58929 19.0099 3.68999 18.9988L3.68996 18.9989Z" fill="url(#paint2_linear_3_30020)"/>
<path d="M14.8944 16.4572C14.8882 16.4489 14.8822 16.4396 14.876 16.4313C14.797 16.3255 14.719 16.2165 14.6431 16.1032C14.0097 15.1413 13.5065 13.9318 13.1858 12.6034C13.1858 12.6031 13.1855 12.6031 13.1855 12.6031C12.9038 11.4368 12.7608 10.1987 12.7608 8.9234C12.7608 7.64606 12.9036 6.4095 13.1855 5.24829C13.5104 3.90689 14.0123 2.69875 14.6374 1.75396C14.7149 1.63854 14.7934 1.52854 14.8727 1.42216C14.8781 1.41468 14.8835 1.40641 14.8892 1.39893C12.1964 2.73695 9.38288 3.8501 6.5062 4.71432L4.30469 5.3756V12.4756L6.47672 13.127C9.36761 13.9949 12.1917 15.1124 14.8941 16.4569L14.8944 16.4572Z" fill="url(#paint3_linear_3_30020)"/>
<defs>
<linearGradient id="paint0_linear_3_30020" x1="1.98841" y1="5.44824" x2="1.98841" y2="12.4034" gradientUnits="userSpaceOnUse">
<stop stop-color="#7165FC"/>
<stop offset="1" stop-color="#5F51FF"/>
</linearGradient>
<linearGradient id="paint1_linear_3_30020" x1="18.5109" y1="0" x2="18.5109" y2="17.851" gradientUnits="userSpaceOnUse">
<stop stop-color="#7165FC"/>
<stop offset="1" stop-color="#5F51FF"/>
</linearGradient>
<linearGradient id="paint2_linear_3_30020" x1="4.42275" y1="12.9668" x2="4.42275" y2="19" gradientUnits="userSpaceOnUse">
<stop stop-color="#7165FC"/>
<stop offset="1" stop-color="#5F51FF"/>
</linearGradient>
<linearGradient id="paint3_linear_3_30020" x1="9.59952" y1="1.39893" x2="9.59952" y2="16.4572" gradientUnits="userSpaceOnUse">
<stop stop-color="#7165FC"/>
<stop offset="1" stop-color="#5F51FF"/>
</linearGradient>
</defs>
</svg>
