<svg width="23" height="24" viewBox="0 0 23 24" fill="none" xmlns="http://www.w3.org/2000/svg">
<path d="M23 23.2389V24H0V0.671629H0.750437V23.2388H2.33105V14.2553H5.42096V23.2388H7.2463L7.24608 10.5556H10.3358V23.2388H12.1087L12.1089 12.3034H15.1986V23.241H16.9716V6.08285H20.0613V23.2382L23 23.2389ZM3.87598 11.3028C4.59349 11.3028 5.17613 10.7119 5.17613 9.98413C5.17613 9.74162 5.10742 9.51856 4.99476 9.32326L8.04051 6.77778C8.25225 6.93115 8.51051 7.02313 8.79095 7.02313C9.15928 7.02313 9.48905 6.86691 9.72556 6.61894L12.3728 8.17189C12.3647 8.2276 12.3563 8.28332 12.3563 8.33925C12.3563 9.06701 12.9389 9.65796 13.6564 9.65796C14.3739 9.65796 14.9566 9.06701 14.9566 8.33925C14.9566 7.99908 14.8273 7.69516 14.6184 7.46098L18.0902 2.5566C18.2248 2.60401 18.3679 2.63743 18.5191 2.63743C19.2366 2.63743 19.8167 2.04648 19.8167 1.31872C19.8167 0.590955 19.2365 0 18.5191 0C17.8016 0 17.2189 0.590955 17.2189 1.31872C17.2189 1.61715 17.3206 1.88741 17.4828 2.10783L13.9726 7.0677C13.871 7.04257 13.7637 7.02313 13.6539 7.02313C13.2635 7.02313 12.92 7.19878 12.6807 7.47472L10.0666 5.93838C10.0804 5.863 10.0886 5.78501 10.0886 5.70417C10.0886 4.97641 9.50593 4.38546 8.78842 4.38546C8.0709 4.38546 7.48827 4.97641 7.48827 5.70417C7.48827 5.86868 7.52122 6.02751 7.57615 6.17259L4.43969 8.79911C4.26931 8.71543 4.07955 8.66519 3.87619 8.66519C3.15867 8.66519 2.57604 9.25614 2.57604 9.9839C2.57582 10.7117 3.15867 11.3028 3.87597 11.3028L3.87598 11.3028Z" fill="url(#paint0_linear_3_30032)"/>
<defs>
<linearGradient id="paint0_linear_3_30032" x1="11.5" y1="0" x2="11.5" y2="24" gradientUnits="userSpaceOnUse">
<stop stop-color="#7165FC"/>
<stop offset="1" stop-color="#6355FF"/>
</linearGradient>
</defs>
</svg>
