<svg width="16" height="24" viewBox="0 0 16 24" fill="none" xmlns="http://www.w3.org/2000/svg">
<path d="M12.8547 0H2.56926C1.88741 0 1.23335 0.271033 0.751196 0.753149C0.26886 1.23549 -0.00195312 1.88953 -0.00195312 2.57145V21.4286C-0.00195312 22.1106 0.268854 22.7647 0.751196 23.2468C1.23331 23.7292 1.88735 24 2.56926 24H12.8547C13.5368 24 14.1908 23.7292 14.673 23.2468C15.1553 22.7647 15.4261 22.1107 15.4261 21.4286V2.57145C15.4261 1.88959 15.1553 1.23554 14.673 0.753149C14.1909 0.271039 13.5368 0 12.8547 0ZM10.2833 1.71445H11.9978C12.3039 1.71445 12.5869 1.87779 12.74 2.14294C12.893 2.40809 12.893 2.73479 12.74 3.00017C12.5869 3.26532 12.3038 3.42866 11.9978 3.42866H10.2833C9.9772 3.42866 9.69418 3.26532 9.54105 3.00017C9.38788 2.73479 9.38788 2.40808 9.54105 2.14294C9.69421 1.8778 9.97723 1.71445 10.2833 1.71445ZM4.28371 11.1427H4.67804L6.14386 8.94843H6.14363C6.26308 8.7697 6.44543 8.64256 6.65425 8.59188C6.86307 8.5412 7.08342 8.57106 7.27141 8.67513C7.4594 8.7792 7.60149 8.95024 7.66936 9.15408L8.82654 12.6341L9.57222 11.5284C9.72991 11.2888 9.99686 11.1441 10.2835 11.1427H11.1407C11.447 11.1427 11.7298 11.306 11.883 11.5712C12.0361 11.8363 12.0361 12.163 11.883 12.4284C11.7298 12.6936 11.447 12.8569 11.1407 12.8569H10.7464L9.28057 15.0512H9.2808C9.16112 15.2299 8.979 15.3571 8.77018 15.4077C8.56113 15.4582 8.341 15.4286 8.15302 15.3245C7.96501 15.2204 7.82294 15.0494 7.75507 14.8455L6.59789 11.3656L5.85221 12.4712C5.69452 12.7108 5.42757 12.8553 5.14071 12.8569H4.28371C3.97738 12.8569 3.69435 12.6936 3.54145 12.4284C3.38829 12.1631 3.38829 11.8364 3.54145 11.5712C3.69439 11.3061 3.97741 11.1427 4.28371 11.1427ZM13.712 21.4281C13.712 21.6555 13.6217 21.8736 13.4609 22.0342C13.3002 22.1951 13.0821 22.2854 12.8548 22.2854H2.56932C2.34218 22.2854 2.12409 22.1951 1.96322 22.0342C1.8026 21.8736 1.71233 21.6555 1.71233 21.4281V20.5712H13.7121L13.712 21.4281Z" fill="#7165FC"/>
</svg>
