<svg width="21" height="22" viewBox="0 0 21 22" fill="none" xmlns="http://www.w3.org/2000/svg">
<path d="M20.2189 1.92395V8.65178H16.3628V1.92395C16.3628 0.898374 17.165 0.059653 18.1768 0.00507129C18.2133 0.000488268 18.2498 0.000488281 18.2862 0.000488281H18.2908C19.3575 0.000488281 20.2189 0.86191 20.2189 1.92396L20.2189 1.92395Z" fill="#7165FC"/>
<path d="M12.387 17.274C12.387 17.6667 12.0686 17.9851 11.676 17.9851C11.2832 17.9851 10.9648 17.6667 10.9648 17.274C10.9648 16.8812 11.2833 16.563 11.676 16.563C12.0685 16.563 12.387 16.8812 12.387 17.274Z" fill="#7165FC"/>
<path d="M11.6805 15.4873C10.6928 15.4873 9.88916 16.2887 9.88916 17.2741C9.88916 18.2618 10.6928 19.0652 11.6805 19.0652C12.6658 19.0652 13.4673 18.2618 13.4673 17.2741C13.4673 16.2887 12.6658 15.4873 11.6805 15.4873ZM11.6759 18.4409C11.0325 18.4409 10.5091 17.9175 10.5091 17.2741C10.5091 16.6307 11.0325 16.1072 11.6759 16.1072C12.3193 16.1072 12.8428 16.6307 12.8428 17.2741C12.8428 17.9175 12.3193 18.4409 11.6759 18.4409Z" fill="#7165FC"/>
<path d="M2.03207 0.000193813C0.970024 0.000193813 0.108398 0.861615 0.108398 1.92366V21.5552H15.451V1.92366C15.451 1.8599 15.4555 1.79155 15.4601 1.72759C15.5012 1.06205 15.7791 0.460476 16.2031 0L2.03207 0.000193813ZM5.03575 1.8097H10.5189C10.7696 1.8097 10.9746 2.01016 10.9746 2.26542C10.9746 2.51609 10.7696 2.72113 10.5189 2.72113L5.03575 2.72133C4.78507 2.72133 4.58004 2.51629 4.58004 2.26561C4.58004 2.01036 4.78507 1.8097 5.03575 1.8097V1.8097ZM8.22194 18.3918H2.03228C1.7816 18.3918 1.57656 18.1868 1.57656 17.9361C1.57656 17.6854 1.7816 17.4804 2.03228 17.4804H8.22194C8.47261 17.4804 8.67765 17.6854 8.67765 17.9361C8.67765 18.1868 8.47261 18.3918 8.22194 18.3918ZM8.22194 15.2558H2.03228C1.7816 15.2558 1.57656 15.0554 1.57656 14.8001C1.57656 14.5494 1.7816 14.3444 2.03228 14.3444H8.22194C8.47261 14.3444 8.67765 14.5494 8.67765 14.8001C8.67765 15.0552 8.47261 15.2558 8.22194 15.2558ZM11.6815 19.5222C10.4417 19.5222 9.43442 18.515 9.43442 17.2751C9.43442 16.0353 10.4417 15.0324 11.6815 15.0324C12.9167 15.0324 13.9242 16.0351 13.9242 17.2751C13.924 18.5148 12.9167 19.5222 11.6815 19.5222ZM13.5229 12.1246H2.03217C1.7815 12.1246 1.57646 11.9196 1.57646 11.6689C1.57646 11.4182 1.7815 11.2132 2.03217 11.2132L13.5229 11.213C13.7736 11.213 13.9786 11.418 13.9786 11.6687C13.9788 11.9196 13.7736 12.1246 13.5229 12.1246V12.1246ZM13.5229 8.98862H2.03217C1.7815 8.98862 1.57646 8.78359 1.57646 8.53291C1.57646 8.28224 1.7815 8.0772 2.03217 8.0772L13.5229 8.077C13.7736 8.077 13.9786 8.28204 13.9786 8.53271C13.9788 8.78358 13.7736 8.98862 13.5229 8.98862ZM13.5229 5.85263H2.03217C1.7815 5.85263 1.57646 5.65217 1.57646 5.39691C1.57646 5.14624 1.7815 4.9412 2.03217 4.9412L13.5229 4.941C13.7736 4.941 13.9786 5.14604 13.9786 5.39672C13.9788 5.65217 13.7736 5.85263 13.5229 5.85263Z" fill="#7165FC"/>
</svg>
