<svg width="275" height="272" viewBox="0 0 275 272" fill="none" xmlns="http://www.w3.org/2000/svg">
<g style="mix-blend-mode:soft-light">
<path d="M-93 215.531L163.883 -35.5977L216.115 -35.7452L-93 271.895V215.531Z" fill="url(#paint0_linear_2_889)"/>
<path d="M199.534 30.3819C201.871 30.3819 204.232 31.3315 206.015 33.2044C209.608 36.9766 209.608 43.0702 206.015 46.816L141.706 114.346C138.114 118.118 132.311 118.118 128.744 114.346C125.151 110.574 125.151 104.48 128.744 100.734L193.028 33.2308C194.837 31.3315 197.173 30.3819 199.534 30.3819Z" fill="url(#paint1_linear_2_889)"/>
<path d="M257.036 -92C261.61 -92 266.233 -90.2294 269.725 -86.7374C276.759 -79.7042 276.759 -68.343 269.725 -61.359L143.866 64.5005C136.833 71.5337 125.471 71.5337 118.487 64.5005C111.454 57.4673 111.454 46.106 118.487 39.122L244.347 -86.7374C247.839 -90.2294 252.413 -92 257.036 -92Z" fill="url(#paint2_linear_2_889)"/>
</g>
<defs>
<linearGradient id="paint0_linear_2_889" x1="53.4473" y1="107.003" x2="17.3296" y2="57.6409" gradientUnits="userSpaceOnUse">
<stop offset="0.1905" stop-opacity="0"/>
<stop offset="0.669" stop-color="#060606" stop-opacity="0.4824"/>
<stop offset="0.6946" stop-color="#0D0C0C" stop-opacity="0.5223"/>
<stop offset="0.7703" stop-color="#1C1A1A" stop-opacity="0.6408"/>
<stop offset="0.8603" stop-color="#242223" stop-opacity="0.7815"/>
<stop offset="1" stop-color="#272425"/>
</linearGradient>
<linearGradient id="paint1_linear_2_889" x1="218.604" y1="16.4743" x2="124.819" y2="111.611" gradientUnits="userSpaceOnUse">
<stop stop-color="white"/>
<stop offset="1" stop-color="white" stop-opacity="0"/>
</linearGradient>
<linearGradient id="paint2_linear_2_889" x1="294.38" y1="-117.947" x2="119.85" y2="67.9651" gradientUnits="userSpaceOnUse">
<stop stop-color="white"/>
<stop offset="1" stop-color="white" stop-opacity="0"/>
</linearGradient>
</defs>
</svg>
