<svg width="429" height="377" viewBox="0 0 429 377" fill="none" xmlns="http://www.w3.org/2000/svg">
<g style="mix-blend-mode:lighten">
<path d="M53.0999 218.262L70.3641 207.739L117.323 253.207L100.059 263.73L53.0999 218.262Z" fill="url(#paint0_linear_106_35)"/>
<path d="M67.3716 170.304L84.6359 159.781L70.3641 207.739L53.0999 218.263L67.3716 170.304Z" fill="url(#paint1_linear_106_35)"/>
<path d="M133.743 214.889L151.007 204.365L127.682 282.769L110.417 293.293L133.743 214.889Z" fill="url(#paint2_linear_106_35)"/>
<path d="M57.0132 140.742L74.2774 130.218L151.007 204.365L133.743 214.889L57.0132 140.742Z" fill="url(#paint3_linear_106_35)"/>
<path d="M57.0132 140.742L133.666 214.889L110.417 293.293L33.6873 219.146L57.0132 140.742ZM100.059 263.731L114.331 215.692L67.3718 170.304L53.1 218.343L100.059 263.731Z" fill="url(#paint4_linear_106_35)"/>
<path d="M383.5 230.553L386.645 238.908L361.478 270.237L358.332 261.963L383.5 230.553Z" fill="url(#paint5_linear_106_35)"/>
<path d="M415.035 249.19L418.181 257.545L386.645 238.908L383.499 230.553L415.035 249.19Z" fill="url(#paint6_linear_106_35)"/>
<path d="M391.096 290.16L394.242 298.434L350.659 272.728L347.513 264.373L391.096 290.16Z" fill="url(#paint7_linear_106_35)"/>
<path d="M425.854 246.781L429 255.135L394.242 298.434L391.096 290.16L425.854 246.781Z" fill="url(#paint8_linear_106_35)"/>
<path d="M382.272 220.994L425.778 246.78L391.019 290.16L347.513 264.373L382.272 220.994ZM389.868 280.6L415.035 249.19L383.499 230.553L358.332 261.963L389.868 280.6Z" fill="url(#paint9_linear_106_35)"/>
<path d="M364.777 118.008C364.854 117.686 364.93 117.445 365.007 117.124C365.084 116.803 365.161 116.401 365.237 116.08C365.314 115.758 365.391 115.517 365.391 115.196C365.468 114.875 365.544 114.473 365.621 114.152C365.698 113.911 365.698 113.589 365.775 113.348C365.851 112.947 365.851 112.625 365.928 112.224C365.928 111.983 366.005 111.742 366.005 111.42C366.081 111.019 366.081 110.697 366.081 110.296C366.081 110.055 366.158 109.814 366.158 109.492C366.158 109.091 366.235 108.689 366.235 108.287C366.235 108.046 366.235 107.805 366.235 107.645C366.235 107.002 366.235 106.36 366.235 105.717C366.005 97.1213 362.859 90.1324 357.871 85.3928L345.978 74.2267C350.966 78.9663 354.112 85.9551 354.342 94.5507C354.342 95.1933 354.342 95.836 354.342 96.4787C354.342 96.7197 354.342 96.9607 354.342 97.1213C354.342 97.523 354.342 97.9246 354.265 98.3263C354.265 98.5673 354.188 98.8083 354.188 99.1296C354.188 99.5313 354.112 99.8526 354.112 100.254C354.112 100.495 354.035 100.736 354.035 101.058C353.958 101.459 353.958 101.781 353.881 102.182C353.805 102.423 353.805 102.745 353.728 102.986C353.651 103.307 353.574 103.709 353.498 104.03C353.421 104.351 353.344 104.592 353.268 104.914C353.191 105.235 353.114 105.637 353.037 105.958C352.961 106.279 352.884 106.52 352.807 106.842C352.73 107.163 352.654 107.484 352.5 107.886C352.424 108.207 352.347 108.448 352.193 108.769C352.117 109.091 351.963 109.412 351.886 109.733C351.656 110.456 351.426 111.179 351.119 111.822C351.042 112.063 350.966 112.224 350.889 112.465C350.659 112.947 350.505 113.429 350.275 113.991C350.122 114.232 350.045 114.553 349.891 114.794C349.738 115.116 349.584 115.437 349.431 115.758C349.278 116.08 349.124 116.321 348.971 116.642C348.817 116.963 348.664 117.285 348.51 117.606C348.357 117.927 348.203 118.168 348.05 118.49C347.896 118.731 347.743 118.972 347.666 119.213C347.513 119.534 347.283 119.855 347.129 120.177C346.976 120.418 346.822 120.659 346.669 120.9C346.515 121.06 346.439 121.301 346.285 121.462C345.748 122.346 345.134 123.149 344.597 124.033C344.597 124.113 344.52 124.113 344.444 124.193C343.906 124.916 343.293 125.72 342.756 126.443C342.679 126.603 342.525 126.764 342.449 126.844C341.835 127.567 341.221 128.29 340.607 129.013C340.454 129.174 340.377 129.254 340.223 129.415C339.61 130.138 338.919 130.78 338.228 131.423L338.152 131.503C337.461 132.226 336.694 132.869 335.927 133.512C335.773 133.672 335.543 133.833 335.389 133.994C335.159 134.154 335.006 134.315 334.776 134.476C334.469 134.717 334.238 134.958 333.932 135.199C333.701 135.359 333.471 135.52 333.318 135.681C333.011 135.922 332.781 136.082 332.474 136.323C332.167 136.484 331.937 136.725 331.63 136.886C331.399 137.046 331.093 137.287 330.862 137.448C330.555 137.609 330.325 137.85 330.018 138.01C329.788 138.171 329.558 138.332 329.251 138.492C328.791 138.733 328.33 139.055 327.87 139.296C327.64 139.376 327.486 139.537 327.256 139.617C326.642 139.938 325.952 140.34 325.261 140.661C324.494 141.063 323.726 141.384 322.882 141.706C322.652 141.786 322.499 141.866 322.269 141.947C321.501 142.268 320.657 142.589 319.813 142.83C319.123 143.071 318.509 143.232 317.895 143.393C317.665 143.473 317.511 143.473 317.281 143.553C316.821 143.634 316.437 143.794 315.977 143.875C315.747 143.955 315.516 143.955 315.286 144.035C314.903 144.116 314.442 144.196 314.058 144.276C313.828 144.276 313.598 144.357 313.368 144.357C312.984 144.437 312.524 144.437 312.14 144.517C311.91 144.517 311.757 144.598 311.526 144.598C310.989 144.598 310.452 144.678 309.915 144.678C309.838 144.678 309.762 144.678 309.685 144.678C309.071 144.678 308.457 144.678 307.92 144.678C307.767 144.678 307.536 144.678 307.383 144.678C306.999 144.678 306.616 144.598 306.232 144.598C305.772 144.517 305.388 144.517 305.004 144.437C304.774 144.437 304.544 144.357 304.314 144.357C303.853 144.276 303.316 144.196 302.856 144.035C302.702 144.035 302.549 143.955 302.396 143.955C302.242 143.955 302.089 143.875 301.935 143.794C301.552 143.714 301.168 143.553 300.707 143.473C300.477 143.393 300.324 143.312 300.094 143.232C299.787 143.071 299.403 142.991 299.096 142.83C298.943 142.75 298.789 142.67 298.636 142.589C298.329 142.429 297.945 142.268 297.638 142.107C297.485 142.027 297.331 141.947 297.101 141.866C296.718 141.706 296.411 141.465 296.027 141.304C295.95 141.224 295.797 141.224 295.72 141.143C295.26 140.902 294.876 140.581 294.416 140.34C294.339 140.26 294.262 140.179 294.109 140.179C293.802 139.938 293.418 139.697 293.111 139.456C293.034 139.376 292.881 139.296 292.804 139.215C292.421 138.894 292.037 138.573 291.653 138.171L303.547 149.337C303.853 149.578 304.16 149.9 304.467 150.141C304.544 150.221 304.621 150.301 304.697 150.382C304.774 150.462 304.928 150.542 305.004 150.623C305.311 150.864 305.695 151.105 306.002 151.346C306.079 151.426 306.155 151.506 306.309 151.506L306.385 151.587C306.769 151.828 307.153 152.069 307.613 152.39C307.69 152.47 307.843 152.47 307.92 152.551C308.15 152.711 308.38 152.792 308.611 152.952C308.687 153.032 308.841 153.033 308.918 153.113C309.071 153.193 309.225 153.273 309.455 153.354C309.762 153.514 310.145 153.675 310.452 153.836C310.606 153.916 310.759 153.996 310.913 154.077C310.989 154.077 311.066 154.157 311.143 154.157C311.373 154.237 311.68 154.318 311.91 154.398C312.14 154.478 312.294 154.559 312.524 154.639C312.908 154.8 313.291 154.88 313.752 154.96C313.905 155.041 314.059 155.041 314.212 155.121C314.212 155.121 314.212 155.121 314.289 155.121C314.442 155.121 314.519 155.201 314.672 155.201C315.133 155.282 315.67 155.442 316.13 155.523C316.36 155.603 316.591 155.603 316.821 155.603C317.204 155.683 317.665 155.764 318.048 155.764C318.125 155.764 318.202 155.764 318.279 155.764C318.586 155.764 318.892 155.844 319.199 155.844C319.353 155.844 319.583 155.844 319.737 155.844C320.35 155.844 320.887 155.924 321.501 155.844C321.578 155.844 321.655 155.844 321.655 155.844C322.192 155.844 322.729 155.844 323.266 155.764C323.496 155.764 323.65 155.764 323.88 155.683C324.264 155.683 324.724 155.603 325.108 155.523C325.338 155.523 325.568 155.442 325.798 155.442C326.182 155.362 326.642 155.282 327.026 155.201C327.256 155.121 327.486 155.121 327.716 155.041C328.177 154.96 328.56 154.88 329.021 154.719C329.251 154.639 329.405 154.639 329.635 154.559C330.249 154.398 330.939 154.237 331.553 153.996C332.397 153.755 333.164 153.434 334.008 153.113C334.238 153.033 334.392 152.952 334.622 152.872C335.389 152.551 336.233 152.229 337.001 151.828C337.691 151.506 338.305 151.185 338.996 150.783C339.226 150.703 339.379 150.542 339.61 150.462C340.07 150.221 340.53 149.98 340.991 149.659C341.067 149.578 341.221 149.498 341.298 149.498C341.451 149.418 341.605 149.337 341.681 149.257C341.988 149.096 342.218 148.855 342.525 148.695C342.832 148.534 343.062 148.373 343.369 148.132C343.676 147.972 343.906 147.731 344.213 147.57C344.367 147.49 344.52 147.409 344.597 147.249C344.751 147.168 344.904 147.008 344.981 146.927C345.211 146.767 345.441 146.606 345.595 146.445C345.901 146.204 346.208 145.963 346.439 145.722C346.669 145.562 346.822 145.401 347.052 145.24C347.129 145.16 347.206 145.08 347.359 144.999C347.436 144.919 347.513 144.839 347.59 144.758C348.357 144.116 349.124 143.393 349.815 142.75L349.891 142.67C350.582 142.027 351.273 141.304 351.886 140.661C351.963 140.581 352.04 140.501 352.117 140.42C352.193 140.34 352.193 140.34 352.27 140.26C352.884 139.537 353.498 138.814 354.112 138.091C354.188 138.01 354.188 138.01 354.265 137.93C354.342 137.85 354.418 137.769 354.495 137.689C355.109 136.966 355.646 136.243 356.183 135.44C356.183 135.359 356.26 135.359 356.26 135.359C356.874 134.556 357.411 133.672 357.948 132.789C358.025 132.708 358.102 132.628 358.102 132.548C358.178 132.467 358.255 132.307 358.332 132.226C358.485 131.985 358.639 131.744 358.792 131.503C358.946 131.182 359.176 130.861 359.329 130.539C359.483 130.299 359.636 130.058 359.713 129.817C359.79 129.656 359.866 129.495 359.943 129.335C360.02 129.174 360.097 129.013 360.173 128.933C360.327 128.612 360.48 128.29 360.634 127.969C360.787 127.648 360.941 127.407 361.094 127.085C361.247 126.764 361.401 126.443 361.554 126.121C361.631 125.961 361.708 125.8 361.785 125.639C361.861 125.559 361.861 125.398 361.938 125.318C362.168 124.836 362.398 124.354 362.552 123.792C362.629 123.551 362.705 123.39 362.782 123.149C363.089 122.426 363.319 121.783 363.549 121.06C363.626 120.739 363.78 120.418 363.856 120.096C363.933 119.775 364.01 119.534 364.163 119.213C364.624 118.65 364.7 118.329 364.777 118.008Z" fill="url(#paint10_linear_106_35)"/>
<path d="M334.392 59.3653C334.545 59.3653 334.699 59.285 334.852 59.285C335.62 59.1243 336.464 58.9636 337.231 58.803H337.308C338.075 58.6423 338.842 58.562 339.61 58.4817C339.763 58.4817 339.916 58.4816 339.993 58.4013C340.761 58.321 341.451 58.2407 342.218 58.1603C342.372 58.1603 342.525 58.1603 342.679 58.1603C343.446 58.08 344.213 58.08 344.904 58.08H344.981C345.671 58.08 346.439 58.08 347.129 58.08C347.283 58.08 347.359 58.08 347.513 58.08C348.203 58.08 348.894 58.1603 349.584 58.2407C349.738 58.2407 349.968 58.2407 350.122 58.321C350.428 58.321 350.735 58.4013 351.042 58.4013C351.273 58.4013 351.426 58.4817 351.656 58.4817C351.963 58.562 352.27 58.562 352.577 58.6423C352.807 58.6423 352.961 58.7226 353.191 58.7226C353.498 58.803 353.805 58.803 354.112 58.8833C354.265 58.8833 354.495 58.9636 354.649 58.9636C354.956 59.044 355.339 59.1243 355.646 59.2046C355.8 59.2046 355.953 59.285 356.107 59.285C356.874 59.4456 357.564 59.6866 358.255 59.9276C358.332 59.9276 358.485 60.008 358.562 60.008C359.252 60.249 359.943 60.49 360.557 60.7309C360.71 60.8113 360.787 60.8113 360.941 60.8916C361.554 61.1326 362.091 61.3736 362.705 61.6146C362.782 61.6146 362.859 61.6949 362.935 61.6949C363.473 61.9359 364.01 62.1769 364.547 62.4983C364.624 62.5786 364.777 62.5786 364.854 62.6589C365.391 62.8999 365.851 63.2212 366.388 63.5426C366.465 63.6229 366.619 63.7032 366.695 63.7032C367.156 63.9442 367.539 64.2656 367.923 64.5066C368 64.5869 368.153 64.6672 368.23 64.7476C368.69 65.0689 369.151 65.3902 369.611 65.7115C369.688 65.7919 369.764 65.8722 369.841 65.9525C370.225 66.2739 370.608 66.5149 370.915 66.8362C371.069 66.9165 371.146 66.9969 371.299 67.1575C371.683 67.4788 372.143 67.8805 372.527 68.2822L360.634 57.116C360.25 56.7143 359.79 56.393 359.406 55.9913C359.329 55.911 359.329 55.911 359.252 55.8307C359.176 55.7504 359.099 55.7504 359.022 55.67C358.639 55.3487 358.332 55.1077 357.948 54.7864C357.871 54.706 357.795 54.6257 357.641 54.5454C357.181 54.224 356.72 53.9027 356.26 53.5814L356.183 53.5011C356.107 53.4207 356.03 53.4207 355.953 53.3404C355.569 53.0994 355.109 52.7781 354.725 52.5371C354.649 52.4567 354.495 52.3764 354.418 52.3764C353.881 52.0551 353.421 51.8141 352.884 51.4927L352.807 51.4124C352.73 51.4124 352.654 51.3321 352.577 51.3321C352.04 51.0911 351.503 50.7698 350.966 50.5288C350.889 50.5288 350.812 50.4484 350.735 50.4484C350.122 50.2074 349.584 49.9664 348.971 49.7254C348.894 49.7254 348.817 49.6451 348.817 49.6451C348.74 49.6451 348.664 49.5648 348.664 49.5648C347.973 49.3238 347.359 49.0828 346.669 48.8418C346.592 48.8418 346.439 48.7615 346.362 48.7615C345.671 48.5205 344.904 48.3598 344.213 48.1188C344.213 48.1188 344.213 48.1188 344.137 48.1188C343.983 48.1188 343.906 48.0385 343.753 48.0385C343.446 47.9581 343.062 47.8778 342.755 47.7975C342.602 47.7171 342.372 47.7171 342.218 47.7171C341.911 47.6368 341.605 47.5565 341.298 47.5565C341.067 47.5565 340.914 47.4761 340.684 47.4761C340.377 47.3958 340.07 47.3958 339.763 47.3155C339.533 47.3155 339.379 47.2351 339.149 47.2351C338.842 47.2351 338.535 47.1548 338.228 47.1548C338.075 47.1548 337.998 47.1548 337.845 47.0745C337.768 47.0745 337.691 47.0745 337.691 47.0745C337.001 46.9941 336.31 46.9942 335.62 46.9138C335.466 46.9138 335.389 46.9138 335.236 46.9138C334.545 46.9138 333.778 46.9138 333.088 46.9138H333.011C332.243 46.9138 331.553 46.9941 330.786 46.9941C330.632 46.9941 330.479 46.9941 330.325 46.9941C329.558 47.0745 328.867 47.0745 328.1 47.2351C327.947 47.2351 327.793 47.2351 327.716 47.3155C326.949 47.3958 326.182 47.4761 325.415 47.6368H325.338C324.57 47.7975 323.803 47.9581 322.959 48.1188C322.806 48.1188 322.652 48.1991 322.499 48.1991C321.731 48.3598 320.964 48.5205 320.197 48.7615C320.043 48.7615 319.89 48.8418 319.736 48.9221C318.892 49.1631 318.125 49.4041 317.281 49.6451C316.437 49.8861 315.593 50.2074 314.749 50.5288C314.519 50.6091 314.289 50.6894 313.982 50.7698C313.368 51.0108 312.754 51.2518 312.14 51.4927C311.91 51.5731 311.68 51.7337 311.373 51.8141C310.529 52.1354 309.762 52.5371 308.918 52.9387C308.918 52.9387 308.918 52.9387 308.841 52.9387C307.843 53.4207 306.846 53.983 305.848 54.465C305.541 54.6257 305.235 54.7864 304.928 55.0274C304.237 55.429 303.546 55.8307 302.856 56.2323C302.702 56.3127 302.472 56.393 302.319 56.5537C302.089 56.7143 301.935 56.7947 301.705 56.9553C301.245 57.1963 300.861 57.5177 300.401 57.839C300.017 58.08 299.557 58.4013 299.173 58.6423C298.712 58.9636 298.329 59.2046 297.868 59.526C297.638 59.6866 297.408 59.8473 297.255 60.008C297.024 60.1686 296.871 60.3293 296.641 60.49C296.334 60.731 295.95 60.9719 295.643 61.2129C295.183 61.5343 294.723 61.9359 294.339 62.2573C294.032 62.4983 293.725 62.7393 293.418 63.0606C293.265 63.1409 293.111 63.3016 292.958 63.3819C292.651 63.7032 292.267 63.9442 291.96 64.2656C291.73 64.5066 291.5 64.6672 291.193 64.9082C290.579 65.4705 289.965 66.0329 289.428 66.5952C289.351 66.6755 289.198 66.7559 289.121 66.9165C289.121 66.9165 289.121 66.9165 289.044 66.9165C288.354 67.5592 287.74 68.2018 287.05 68.8445C286.819 69.0052 286.666 69.2462 286.512 69.4872C286.205 69.8085 285.822 70.2101 285.515 70.5315C285.361 70.6921 285.285 70.8528 285.131 70.9331C284.901 71.1741 284.671 71.4151 284.441 71.6561C284.057 72.1381 283.597 72.6201 283.213 73.1021C282.983 73.3431 282.753 73.5841 282.599 73.8251C282.522 73.9858 282.369 74.0661 282.292 74.2268C281.985 74.6284 281.678 75.0301 281.295 75.4317C281.141 75.6727 280.988 75.8334 280.834 76.0744C280.297 76.7974 279.76 77.5204 279.223 78.2434C279.223 78.2434 279.223 78.3237 279.146 78.3237C278.993 78.4844 278.916 78.645 278.763 78.8057C278.302 79.4483 277.919 80.0107 277.458 80.6533C277.305 80.9747 277.075 81.2156 276.921 81.537C276.691 81.8583 276.461 82.26 276.231 82.5813C276.154 82.742 276 82.9026 275.924 83.0633C275.693 83.465 275.463 83.7863 275.233 84.1879C274.926 84.6699 274.619 85.1519 274.389 85.6339C274.159 86.0356 273.929 86.3569 273.775 86.7586C273.622 86.9996 273.468 87.2406 273.392 87.4816C273.238 87.7226 273.161 87.9635 273.008 88.1242C272.778 88.6062 272.471 89.0882 272.241 89.5702C272.01 89.9719 271.78 90.4538 271.55 90.9358C271.32 91.4178 271.09 91.8998 270.859 92.3818C270.783 92.6228 270.629 92.8638 270.476 93.1048C270.399 93.2655 270.322 93.4261 270.246 93.5868C269.939 94.3098 269.555 95.1131 269.248 95.8361C269.095 96.1574 269.018 96.4788 268.864 96.8001C268.481 97.8444 268.02 98.9691 267.714 100.013C267.714 100.013 267.714 100.013 267.714 100.094C267.56 100.576 267.407 101.058 267.253 101.54C267.1 102.022 266.946 102.423 266.87 102.905C266.716 103.387 266.563 103.95 266.409 104.432C266.256 104.833 266.179 105.315 266.025 105.717C265.872 106.199 265.795 106.761 265.642 107.243C265.565 107.725 265.412 108.127 265.335 108.609C265.258 109.091 265.105 109.653 265.028 110.216C264.951 110.698 264.875 111.099 264.798 111.581C264.721 112.144 264.644 112.706 264.568 113.268C264.491 113.67 264.414 114.152 264.414 114.554C264.337 115.116 264.337 115.758 264.261 116.321C264.261 116.722 264.184 117.044 264.184 117.445C264.107 118.088 264.107 118.811 264.107 119.454C264.107 119.775 264.107 120.096 264.031 120.418C264.031 121.382 264.031 122.346 264.031 123.31C264.414 136.565 269.171 147.329 276.921 154.559L288.814 165.725C281.141 158.495 276.307 147.731 275.924 134.476C275.924 133.512 275.924 132.548 275.924 131.584C275.924 131.263 275.924 130.941 276 130.62C276 129.977 276.077 129.335 276.077 128.692C276.077 128.29 276.154 127.889 276.154 127.487C276.231 126.925 276.231 126.362 276.307 125.8C276.384 125.398 276.461 124.916 276.461 124.515C276.537 123.952 276.614 123.47 276.691 122.908C276.768 122.426 276.844 122.024 276.921 121.542C276.998 120.98 277.075 120.498 277.228 119.936C277.305 119.454 277.458 119.052 277.535 118.57C277.688 118.088 277.765 117.526 277.919 117.044C277.995 116.562 278.149 116.16 278.302 115.678C278.456 115.196 278.609 114.634 278.763 114.152C278.916 113.67 279.07 113.268 279.146 112.786C279.3 112.304 279.453 111.742 279.607 111.26C279.99 110.135 280.374 109.091 280.758 108.047C280.911 107.725 280.988 107.404 281.141 107.083C281.448 106.279 281.755 105.556 282.139 104.833C282.292 104.432 282.522 104.03 282.676 103.548C282.906 103.066 283.136 102.584 283.366 102.102C283.597 101.62 283.827 101.218 284.057 100.736C284.287 100.254 284.517 99.7724 284.824 99.2904C285.055 98.8084 285.285 98.4067 285.592 97.9247C285.822 97.5231 286.052 97.2017 286.205 96.8001C286.512 96.3181 286.743 95.8361 287.05 95.3541C287.28 94.9524 287.51 94.6311 287.74 94.2295C288.047 93.7475 288.431 93.1851 288.738 92.7031C288.891 92.3818 289.121 92.1408 289.275 91.8195C289.658 91.1768 290.119 90.6145 290.579 89.9719C290.733 89.8112 290.809 89.6505 290.963 89.4899C291.5 88.6865 292.114 87.9635 292.651 87.2406C292.804 86.9996 292.958 86.8389 293.111 86.5979C293.572 86.0356 293.955 85.4733 294.416 84.9913C294.646 84.7503 294.876 84.5093 295.029 84.2683C295.413 83.7863 295.873 83.3043 296.257 82.8223C296.487 82.5813 296.717 82.3403 296.948 82.0993C297.408 81.6173 297.868 81.1353 298.329 80.6533C298.559 80.4123 298.712 80.2517 298.943 80.0107C299.633 79.368 300.247 78.645 300.938 78.0024C301.014 77.922 301.168 77.8417 301.245 77.681C301.858 77.1187 302.396 76.5564 303.009 75.9941C303.24 75.7531 303.47 75.5924 303.777 75.3514C304.237 74.9497 304.697 74.5481 305.158 74.1464C305.465 73.9054 305.772 73.5841 306.079 73.3431C306.539 73.0218 306.923 72.6201 307.383 72.2988C307.69 72.0578 308.074 71.8168 308.38 71.5758C308.764 71.2545 309.224 70.9331 309.685 70.6118C310.145 70.2905 310.529 69.9691 310.989 69.7282C311.373 69.4068 311.833 69.1658 312.217 68.9248C312.677 68.6035 313.061 68.3625 313.521 68.0412C313.905 67.8002 314.289 67.5592 314.672 67.3182C315.363 66.9165 316.053 66.5149 316.744 66.1132C317.051 65.9525 317.358 65.7919 317.665 65.5509C318.662 64.9886 319.66 64.5066 320.657 64.0246C321.425 63.6229 322.269 63.3016 323.113 62.8999C323.343 62.8196 323.573 62.6589 323.88 62.5786C324.494 62.3376 325.108 62.0966 325.721 61.8556C325.952 61.7753 326.182 61.6949 326.489 61.5343C327.333 61.2129 328.177 60.8916 329.021 60.6506C329.865 60.4096 330.632 60.1686 331.476 59.9276C331.63 59.8473 331.783 59.8473 331.937 59.767C332.857 59.767 333.625 59.526 334.392 59.3653Z" fill="url(#paint11_linear_106_35)"/>
<path d="M329.174 60.8111C359.329 51.1713 384.573 68.6033 385.417 99.6116C386.262 130.7 362.398 163.797 332.244 173.437C302.089 183.077 276.845 165.645 276 134.636C275.156 103.548 299.02 70.451 329.174 60.8111ZM331.706 153.755C351.349 147.49 366.849 125.961 366.235 105.717C365.698 85.5534 349.278 74.2266 329.635 80.4925C309.992 86.7584 294.492 108.287 295.03 128.531C295.72 148.695 312.14 160.021 331.706 153.755Z" fill="url(#paint12_linear_106_35)"/>
<path d="M266.87 210.229C266.87 209.988 266.947 209.828 266.947 209.587C266.947 209.506 266.947 209.506 266.947 209.426V209.346C266.947 208.944 266.947 208.462 266.947 208.06V207.98C266.947 207.9 266.947 207.9 266.947 207.819C266.947 207.418 266.87 207.096 266.793 206.695C266.793 206.695 266.793 206.695 266.793 206.614C266.716 206.293 266.64 205.972 266.563 205.65C266.563 205.57 266.563 205.57 266.563 205.49V205.409C266.486 205.088 266.333 204.767 266.256 204.526C266.179 204.285 266.103 204.124 265.949 203.883L258.123 188.459C258.199 188.7 258.353 188.861 258.43 189.102C258.583 189.423 258.66 189.664 258.737 189.986C258.737 190.066 258.813 190.146 258.813 190.227C258.89 190.548 258.967 190.869 259.043 191.191V191.271C259.12 191.673 259.12 191.994 259.197 192.396C259.197 192.476 259.197 192.556 259.197 192.636C259.197 193.038 259.197 193.52 259.197 193.922C259.197 194.002 259.197 194.082 259.197 194.163C259.197 194.404 259.197 194.564 259.12 194.805C259.12 194.886 259.12 194.966 259.12 195.127C259.043 195.448 259.043 195.769 258.967 196.01C258.89 196.412 258.813 196.733 258.66 197.135C258.66 197.215 258.583 197.296 258.583 197.376C258.43 197.778 258.353 198.099 258.199 198.501C258.046 198.902 257.892 199.224 257.739 199.625C257.662 199.706 257.662 199.786 257.586 199.866C257.432 200.268 257.202 200.589 256.972 200.991C256.665 201.473 256.358 201.955 256.051 202.437C255.897 202.678 255.744 202.839 255.591 202.999C255.514 203.16 255.437 203.24 255.284 203.401C255.053 203.642 254.823 203.883 254.67 204.124C254.593 204.204 254.516 204.285 254.44 204.365C254.363 204.445 254.286 204.526 254.209 204.526C253.903 204.847 253.596 205.168 253.212 205.49C253.059 205.65 252.905 205.731 252.752 205.891C252.521 206.132 252.291 206.293 252.061 206.454C251.908 206.614 251.754 206.695 251.524 206.855C251.294 207.016 251.14 207.177 250.91 207.337C250.757 207.498 250.526 207.578 250.373 207.739C250.143 207.9 249.989 207.98 249.759 208.141C249.529 208.301 249.375 208.382 249.145 208.542C248.915 208.623 248.762 208.783 248.531 208.864C248.301 208.944 248.148 209.105 247.918 209.185C247.687 209.265 247.457 209.426 247.304 209.506C247.074 209.587 246.92 209.667 246.69 209.828C246.46 209.908 246.23 210.069 245.999 210.149C245.769 210.229 245.616 210.31 245.385 210.39C245.079 210.47 244.848 210.551 244.541 210.711C244.388 210.792 244.158 210.792 244.004 210.872C243.467 211.033 243.007 211.193 242.47 211.274C242.086 211.354 241.702 211.434 241.242 211.515C241.089 211.515 241.012 211.515 240.858 211.595C240.628 211.595 240.398 211.675 240.168 211.675C239.631 211.756 239.017 211.756 238.48 211.756C237.022 211.756 235.564 211.595 234.106 211.193C230.73 210.229 228.351 208.301 227.047 205.731L234.873 221.154C236.178 223.725 238.557 225.733 241.933 226.617C243.314 227.019 244.772 227.179 246.306 227.179C246.843 227.179 247.457 227.099 247.994 227.099C248.071 227.099 248.148 227.099 248.225 227.099C248.378 227.099 248.531 227.019 248.762 227.019C248.915 227.019 248.992 227.019 249.145 226.938C249.529 226.858 249.913 226.778 250.296 226.697C250.833 226.617 251.294 226.456 251.831 226.296C251.908 226.296 251.908 226.296 251.984 226.296C252.138 226.215 252.214 226.215 252.368 226.135C252.675 226.055 252.905 225.974 253.212 225.814C253.289 225.814 253.365 225.733 253.442 225.733C253.596 225.653 253.672 225.653 253.826 225.573C254.056 225.492 254.286 225.412 254.516 225.251C254.593 225.251 254.67 225.171 254.747 225.171C254.9 225.091 254.977 225.091 255.13 225.01C255.36 224.93 255.591 224.769 255.744 224.689C255.821 224.609 255.898 224.609 255.974 224.528C256.128 224.448 256.204 224.368 256.281 224.368C256.511 224.287 256.665 224.127 256.895 224.046C256.972 223.966 257.048 223.966 257.125 223.886C257.202 223.805 257.355 223.725 257.432 223.645C257.662 223.484 257.816 223.404 258.046 223.243C258.123 223.163 258.199 223.163 258.276 223.082C258.353 223.002 258.506 222.922 258.583 222.841C258.813 222.681 258.967 222.52 259.197 222.359C259.274 222.279 259.35 222.199 259.504 222.118C259.581 222.038 259.657 221.958 259.734 221.958C259.964 221.797 260.194 221.556 260.425 221.395C260.501 221.315 260.655 221.235 260.731 221.154C260.808 221.074 260.808 221.074 260.885 220.994C261.192 220.672 261.576 220.351 261.882 220.03C261.959 219.949 261.959 219.949 262.036 219.869C262.036 219.869 262.036 219.869 262.036 219.789C262.113 219.708 262.189 219.628 262.266 219.548C262.496 219.307 262.726 219.066 262.957 218.825C263.033 218.744 263.11 218.584 263.264 218.423C263.34 218.262 263.494 218.102 263.571 218.021C263.647 217.941 263.647 217.941 263.647 217.861C263.954 217.379 264.338 216.897 264.568 216.415C264.798 216.013 265.028 215.692 265.182 215.29C265.259 215.21 265.259 215.13 265.335 214.969C265.489 214.567 265.719 214.246 265.796 213.844C265.949 213.443 266.103 213.121 266.179 212.72C266.179 212.639 266.256 212.559 266.256 212.479C266.333 212.077 266.486 211.756 266.563 211.354C266.64 211.033 266.64 210.711 266.716 210.47C266.87 210.39 266.87 210.31 266.87 210.229Z" fill="url(#paint13_linear_106_35)"/>
<path d="M246.536 182.434C247.994 182.434 249.452 182.595 250.91 182.997C258.813 185.166 261.499 193.279 256.818 201.071C252.981 207.498 245.385 211.675 238.48 211.756C237.022 211.756 235.564 211.595 234.106 211.193C226.203 209.024 223.517 200.911 228.198 193.119C232.034 186.692 239.63 182.434 246.536 182.434Z" fill="url(#paint14_linear_106_35)"/>
<path d="M197.045 78.0024C197.045 77.681 197.122 77.3597 197.122 77.0384C197.122 76.8777 197.199 76.6367 197.199 76.4761C197.276 76.1547 197.275 75.9137 197.352 75.5924C197.429 75.3514 197.506 75.1907 197.506 74.9498C197.582 74.7088 197.659 74.4678 197.736 74.1464C197.889 73.5841 198.12 73.1021 198.35 72.6201C198.426 72.3791 198.503 72.2185 198.657 71.9775C198.733 71.7365 198.887 71.4955 199.04 71.2545C199.194 71.0135 199.347 70.7725 199.424 70.5315C199.501 70.3708 199.577 70.2101 199.731 70.0495C199.961 69.7282 200.191 69.4068 200.421 69.0855C200.421 69.0052 200.498 69.0052 200.498 68.9248C200.728 68.5232 201.035 68.2018 201.342 67.8805C201.419 67.8002 201.496 67.7199 201.572 67.5592C201.803 67.3182 202.033 67.0772 202.186 66.8362C202.263 66.7559 202.416 66.5952 202.493 66.5149C202.723 66.2739 202.954 66.1132 203.107 65.8722C203.26 65.7919 203.337 65.6312 203.491 65.5509C203.721 65.3902 203.951 65.1492 204.181 64.9886C204.335 64.9082 204.488 64.7476 204.642 64.6672C204.872 64.5066 205.025 64.4262 205.255 64.2656C205.486 64.1049 205.639 63.9442 205.869 63.8639C206.023 63.7836 206.176 63.7032 206.33 63.6229C206.637 63.4622 207.02 63.2213 207.327 63.0606C207.557 62.9803 207.788 62.8196 208.018 62.7393C208.171 62.6589 208.248 62.6589 208.401 62.5786C208.785 62.4179 209.169 62.2573 209.629 62.0966C210.089 61.9359 210.627 61.8556 211.087 61.6949C211.24 61.6949 211.394 61.6146 211.547 61.6146C211.854 61.5343 212.161 61.5343 212.468 61.4539C212.622 61.4539 212.775 61.4539 213.005 61.4539C213.312 61.4539 213.619 61.4539 213.849 61.4539C214.003 61.4539 214.156 61.4539 214.31 61.4539C214.693 61.4539 215.077 61.5343 215.461 61.6146C215.537 61.6146 215.537 61.6146 215.614 61.6146C215.921 61.6949 216.228 61.7753 216.535 61.8556C216.688 61.9359 216.842 61.9359 217.072 62.0163C217.302 62.0966 217.609 62.1769 217.839 62.3376C217.916 62.4179 218.069 62.4179 218.146 62.4983C218.453 62.6589 218.837 62.8999 219.144 63.0606C219.22 63.0606 219.22 63.1409 219.297 63.1409C219.604 63.3819 219.911 63.6229 220.218 63.8639L181.085 27.0718C181.009 26.9914 180.855 26.9111 180.779 26.7505C180.625 26.5898 180.395 26.4291 180.241 26.3488C180.165 26.3488 180.165 26.2685 180.088 26.2685C179.858 26.1078 179.551 25.9471 179.244 25.7865C179.167 25.7865 179.167 25.7865 179.09 25.7061C179.014 25.6258 178.86 25.6258 178.784 25.5455C178.63 25.4651 178.477 25.3848 178.323 25.3045C178.246 25.3045 178.17 25.2241 178.093 25.2241C177.94 25.1438 177.786 25.1438 177.556 25.0635C177.402 25.0635 177.326 24.9831 177.172 24.9831C177.019 24.9028 176.789 24.9028 176.635 24.9028C176.558 24.9028 176.558 24.9028 176.482 24.9028C176.175 24.8225 175.945 24.8225 175.638 24.8225C175.561 24.8225 175.484 24.8225 175.331 24.8225C175.177 24.8225 175.024 24.8225 174.87 24.8225C174.563 24.8225 174.333 24.8225 174.026 24.8225C173.873 24.8225 173.719 24.8225 173.489 24.8225C173.182 24.8225 172.875 24.9028 172.568 24.9831C172.415 24.9831 172.262 25.0635 172.108 25.0635C171.648 25.1438 171.187 25.3045 170.65 25.4651C170.267 25.6258 169.806 25.7865 169.423 25.9471C169.269 26.0275 169.192 26.0275 169.039 26.1078C168.885 26.1881 168.732 26.2685 168.578 26.2685C168.502 26.3488 168.425 26.3488 168.348 26.4291C167.965 26.5898 167.658 26.7505 167.351 26.9914C167.274 27.0718 167.121 27.0718 167.044 27.1521C166.967 27.1521 166.967 27.2324 166.89 27.2324C166.66 27.3931 166.507 27.4734 166.277 27.6341C166.123 27.7144 165.97 27.7948 165.816 27.9554C165.739 27.9554 165.739 28.0358 165.663 28.0358C165.509 28.1161 165.356 28.2768 165.202 28.3571C165.049 28.5178 164.895 28.5981 164.742 28.6784C164.665 28.7588 164.589 28.8391 164.512 28.8391C164.358 28.9194 164.282 29.0801 164.128 29.1604C164.051 29.2407 163.898 29.3211 163.821 29.4817C163.745 29.5621 163.591 29.7227 163.514 29.8031C163.361 29.8834 163.284 30.0441 163.207 30.1244C163.131 30.2047 163.054 30.2851 162.977 30.3654C162.824 30.5261 162.67 30.6867 162.517 30.8474C162.44 30.9277 162.363 31.0081 162.287 31.1687L162.21 31.2491C161.98 31.5704 161.673 31.8917 161.443 32.213C161.443 32.2934 161.366 32.2934 161.366 32.3737C161.136 32.695 160.982 32.936 160.752 33.2574L160.675 33.3377C160.599 33.4984 160.522 33.659 160.368 33.8197C160.292 33.9803 160.138 34.2213 160.061 34.382C160.061 34.4623 159.985 34.4623 159.985 34.5427C159.831 34.7837 159.755 35.0247 159.601 35.2657C159.524 35.4263 159.448 35.587 159.371 35.7477C159.371 35.828 159.371 35.828 159.294 35.9083C159.064 36.3903 158.834 36.9526 158.68 37.4346C158.604 37.6756 158.527 37.9166 158.45 38.1576C158.373 38.3986 158.297 38.5593 158.297 38.8003C158.22 39.0413 158.22 39.3626 158.143 39.6036C158.143 39.7643 158.066 40.0053 157.99 40.1659C157.913 40.4873 157.913 40.7282 157.913 41.0496C157.913 41.2102 157.836 41.3709 157.836 41.5316C157.836 42.0136 157.76 42.4956 157.836 42.8972C157.913 46.1105 159.064 48.6811 160.905 50.4484L200.038 87.2406C198.196 85.4733 197.045 82.9026 196.969 79.6893C196.969 79.2074 196.969 78.7254 196.969 78.3237C197.045 78.2434 197.045 78.163 197.045 78.0024Z" fill="url(#paint15_linear_106_35)"/>
<path d="M209.783 62.0966C217.072 59.767 223.134 63.9442 223.287 71.4151C223.517 78.886 217.763 86.8389 210.473 89.1685C203.184 91.4982 197.122 87.3209 196.969 79.85C196.739 72.3791 202.493 64.4262 209.783 62.0966Z" fill="url(#paint16_linear_106_35)"/>
<path d="M361.938 328.559C362.168 328.478 362.475 328.478 362.705 328.478C362.859 328.478 363.012 328.478 363.089 328.478C363.319 328.478 363.55 328.478 363.78 328.478C363.933 328.478 364.087 328.559 364.24 328.559C364.47 328.559 364.624 328.639 364.854 328.719C365.007 328.719 365.161 328.8 365.238 328.88C365.468 328.96 365.621 329.041 365.851 329.121C366.005 329.201 366.158 329.282 366.235 329.362C366.389 329.442 366.465 329.523 366.619 329.603C366.849 329.764 367.079 329.844 367.233 330.085L285.515 261.481C285.362 261.401 285.285 261.24 285.131 261.16C285.055 261.08 284.978 261.08 284.901 260.999C284.825 260.919 284.671 260.839 284.518 260.758C284.441 260.758 284.364 260.678 284.364 260.678C284.287 260.678 284.211 260.598 284.134 260.598C283.904 260.517 283.75 260.437 283.52 260.357C283.443 260.357 283.367 260.276 283.29 260.276C283.213 260.276 283.136 260.276 283.136 260.196C282.906 260.116 282.753 260.116 282.523 260.035C282.369 260.035 282.216 259.955 282.062 259.955C281.832 259.955 281.602 259.955 281.372 259.955C281.218 259.955 281.065 259.955 280.988 259.955C280.758 259.955 280.451 260.035 280.221 260.035C280.067 260.035 279.991 260.035 279.837 260.116C279.453 260.196 279.07 260.276 278.686 260.437C278.302 260.598 277.996 260.758 277.612 260.919C277.612 260.919 277.535 260.919 277.535 260.999C277.458 260.999 277.382 261.08 277.305 261.16C277.075 261.24 276.921 261.401 276.768 261.481L276.691 261.562C276.614 261.642 276.538 261.642 276.461 261.722C276.307 261.803 276.154 261.883 276.077 262.044C276.001 262.044 276.001 262.124 275.924 262.124C275.847 262.204 275.77 262.204 275.77 262.285C275.694 262.365 275.54 262.526 275.463 262.606C275.387 262.686 275.387 262.686 275.31 262.767C275.233 262.847 275.233 262.847 275.157 262.927C275.08 263.008 274.926 263.168 274.85 263.249C274.773 263.329 274.773 263.329 274.696 263.409C274.619 263.49 274.619 263.49 274.543 263.57C274.466 263.731 274.312 263.811 274.236 263.972C274.159 264.052 274.159 264.052 274.082 264.132C274.082 264.212 274.006 264.212 274.006 264.293C273.852 264.453 273.775 264.694 273.622 264.855C273.622 264.935 273.545 264.935 273.545 265.016C273.545 265.016 273.545 265.016 273.545 265.096C273.392 265.417 273.238 265.739 273.085 266.14C273.085 266.14 273.085 266.221 273.008 266.221C272.931 266.301 272.931 266.381 272.931 266.542C272.855 266.622 272.855 266.783 272.778 266.863C272.701 267.024 272.701 267.185 272.624 267.265C272.624 267.426 272.548 267.506 272.548 267.667C272.548 267.827 272.471 267.988 272.471 268.068C272.471 268.229 272.394 268.309 272.394 268.47C272.394 268.631 272.318 268.791 272.318 268.952C272.318 269.032 272.318 269.193 272.241 269.273C272.241 269.434 272.241 269.595 272.241 269.755C272.241 269.836 272.241 269.996 272.241 270.077C272.241 270.237 272.241 270.398 272.241 270.559C272.241 270.639 272.241 270.8 272.241 270.88C272.241 271.041 272.318 271.201 272.318 271.442C272.318 271.523 272.318 271.603 272.394 271.683C272.471 271.924 272.548 272.246 272.624 272.487C272.855 273.129 273.085 273.772 273.468 274.254C273.852 274.816 274.236 275.218 274.696 275.62L356.414 344.223C355.493 343.42 354.726 342.376 354.342 341.01C354.265 340.769 354.188 340.528 354.112 340.207C354.112 340.126 354.112 340.046 354.035 339.966C354.035 339.805 353.958 339.644 353.958 339.403C353.958 339.323 353.958 339.162 353.958 339.082C353.958 338.921 353.958 338.761 353.958 338.6C353.958 338.52 353.958 338.359 353.958 338.279C353.958 338.118 353.958 337.957 353.958 337.797C353.958 337.716 353.958 337.556 354.035 337.475C354.035 337.315 354.035 337.154 354.112 336.993C354.112 336.833 354.188 336.752 354.188 336.592C354.188 336.431 354.265 336.27 354.265 336.19C354.265 336.029 354.342 335.949 354.342 335.788C354.419 335.628 354.419 335.467 354.495 335.387C354.572 335.306 354.572 335.146 354.649 335.065C354.726 334.905 354.726 334.824 354.802 334.664C354.956 334.342 355.109 334.021 355.263 333.619C355.339 333.539 355.339 333.459 355.416 333.378C355.57 333.218 355.646 332.977 355.8 332.816C355.876 332.736 355.953 332.575 356.03 332.495C356.107 332.334 356.26 332.254 356.337 332.093C356.414 332.013 356.49 331.852 356.567 331.772C356.644 331.692 356.797 331.531 356.874 331.451C356.951 331.37 357.104 331.29 357.181 331.129C357.258 331.049 357.411 330.888 357.488 330.808C357.565 330.728 357.718 330.647 357.795 330.567C357.948 330.487 358.025 330.326 358.178 330.246C358.255 330.165 358.409 330.085 358.485 330.005C358.639 329.844 358.869 329.764 359.099 329.683C359.176 329.603 359.329 329.523 359.406 329.523C359.79 329.362 360.097 329.201 360.48 329.041C360.864 328.88 361.248 328.8 361.631 328.719C361.708 328.559 361.861 328.559 361.938 328.559Z" fill="url(#paint17_linear_106_35)"/>
<path d="M359.406 329.362C363.549 327.193 368 328.88 369.304 333.057C370.609 337.234 368.383 342.376 364.24 344.545C360.096 346.714 355.646 345.027 354.342 340.849C353.037 336.672 355.263 331.531 359.406 329.362Z" fill="url(#paint18_linear_106_35)"/>
<path d="M189.065 180.346L180.932 180.506L218.223 146.686L226.433 146.526L189.065 180.346Z" fill="url(#paint19_linear_106_35)"/>
<path d="M226.433 146.526L218.223 146.687L175.101 124.595L183.234 124.515L226.433 146.526Z" fill="url(#paint20_linear_106_35)"/>
<path d="M182.543 198.902L174.41 199.063L164.972 108.448L173.105 108.368L182.543 198.902Z" fill="url(#paint21_linear_106_35)"/>
<path d="M173.106 108.368L243.083 144.116L182.543 198.902L173.106 108.368ZM183.234 124.515L189.065 180.426L226.433 146.606L183.234 124.515Z" fill="url(#paint22_linear_106_35)"/>
<path d="M135.661 140.903L127.144 151.185L116.786 149.337L125.303 139.055L135.661 140.903Z" fill="url(#paint23_linear_106_35)"/>
<path d="M125.303 139.055L116.786 149.337L65.6835 10.2825L74.2005 -6.10352e-05L125.303 139.055Z" fill="url(#paint24_linear_106_35)"/>
<path d="M84.5593 1.92788L135.661 140.903L125.303 139.055L74.2007 -9.15527e-05L84.5593 1.92788Z" fill="url(#paint25_linear_106_35)"/>
<path d="M170.113 281.323L158.527 274.736L147.785 253.287L159.371 259.874L170.113 281.323Z" fill="url(#paint26_linear_106_35)"/>
<path d="M159.371 259.874L147.785 253.287L168.271 238.104L179.858 244.692L159.371 259.874Z" fill="url(#paint27_linear_106_35)"/>
<path d="M179.858 244.692L190.523 266.221L170.113 281.323L159.371 259.874L179.858 244.692Z" fill="url(#paint28_linear_106_35)"/>
<path d="M42.5114 114.473L18.7251 117.124L24.8635 102.905L48.6498 100.335L42.5114 114.473Z" fill="url(#paint29_linear_106_35)"/>
<path d="M48.6498 100.335L24.8635 102.905L18.2647 79.9304L42.051 77.2794L48.6498 100.335Z" fill="url(#paint30_linear_106_35)"/>
<path d="M18.2646 79.9304L24.8634 102.905L18.725 117.124L12.0495 94.1492L18.2646 79.9304Z" fill="url(#paint31_linear_106_35)"/>
<path d="M422.171 354.265L398.385 356.916L404.523 342.697L428.309 340.046L422.171 354.265Z" fill="url(#paint32_linear_106_35)"/>
<path d="M428.309 340.046L404.523 342.697L397.924 319.722L421.711 317.071L428.309 340.046Z" fill="url(#paint33_linear_106_35)"/>
<path d="M397.924 319.722L404.523 342.697L398.385 356.916L391.709 333.86L397.924 319.722Z" fill="url(#paint34_linear_106_35)"/>
<path d="M256.971 347.677L235.103 347.838L221.829 283.894L243.774 283.653L256.971 347.677Z" fill="url(#paint35_linear_106_35)"/>
<path d="M172.185 339.082L150.24 339.323L231.037 245.093L252.905 244.933L172.185 339.082Z" fill="url(#paint36_linear_106_35)"/>
<path d="M280.221 376.758L258.276 376.918L150.24 339.323L172.185 339.082L280.221 376.758Z" fill="url(#paint37_linear_106_35)"/>
<path d="M252.905 244.933L280.221 376.758L172.185 339.082L252.905 244.933ZM204.565 329.362L256.972 347.597L243.697 283.572L204.565 329.362Z" fill="url(#paint38_linear_106_35)"/>
<g opacity="0.74">
<path opacity="0.74" d="M280.221 376.758L258.276 376.918L150.24 339.323L172.185 339.082L280.221 376.758Z" fill="url(#paint39_linear_106_35)"/>
</g>
<path d="M404.83 183.8L396.236 194.163L302.165 239.631L310.683 229.348L404.83 183.8Z" fill="url(#paint40_linear_106_35)"/>
<path d="M310.683 229.348L302.166 239.631L293.802 229.429L302.319 219.146L310.683 229.348Z" fill="url(#paint41_linear_106_35)"/>
<path d="M396.39 173.678L404.83 183.8L310.683 229.348L302.319 219.146L396.39 173.678Z" fill="url(#paint42_linear_106_35)"/>
<g opacity="0.59">
<path opacity="0.59" d="M310.683 229.348L302.166 239.631L293.802 229.429L302.319 219.146L310.683 229.348Z" fill="url(#paint43_linear_106_35)"/>
</g>
<path d="M245.385 79.9305L276 21.1273" stroke="url(#paint44_linear_106_35)" stroke-width="2" stroke-miterlimit="10"/>
<path d="M59.7752 63.7837L1 37.3544" stroke="url(#paint45_linear_106_35)" stroke-width="2" stroke-miterlimit="10"/>
<path d="M233.492 171.509L296.794 180.747" stroke="url(#paint46_linear_106_35)" stroke-width="2" stroke-miterlimit="10"/>
<path d="M160.598 301.968L117.323 305.985" stroke="url(#paint47_linear_106_35)" stroke-width="2" stroke-miterlimit="10"/>
<path d="M149.319 182.434L152.695 137.127" stroke="url(#paint48_linear_106_35)" stroke-width="2" stroke-miterlimit="10"/>
<path d="M332.397 347.276L289.044 348.401" stroke="url(#paint49_linear_106_35)" stroke-width="2" stroke-miterlimit="10"/>
<path d="M329.711 264.454L306.923 256.099" stroke="url(#paint50_linear_106_35)" stroke-width="2" stroke-miterlimit="10"/>
<path d="M163.514 96.9608L147.784 77.6811" stroke="url(#paint51_linear_106_35)" stroke-width="2" stroke-miterlimit="10"/>
</g>
<defs>
<linearGradient id="paint0_linear_106_35" x1="53.0809" y1="235.732" x2="117.325" y2="235.732" gradientUnits="userSpaceOnUse">
<stop stop-color="#FF80AB"/>
<stop offset="0.9895" stop-color="#40C4FF"/>
</linearGradient>
<linearGradient id="paint1_linear_106_35" x1="68.8622" y1="218.283" x2="68.8622" y2="159.756" gradientUnits="userSpaceOnUse">
<stop stop-color="#FF4081"/>
<stop offset="0.9895" stop-color="#00B0FF"/>
</linearGradient>
<linearGradient id="paint2_linear_106_35" x1="110.385" y1="248.805" x2="150.992" y2="248.805" gradientUnits="userSpaceOnUse">
<stop stop-color="#FF4081"/>
<stop offset="0.9895" stop-color="#00B0FF"/>
</linearGradient>
<linearGradient id="paint3_linear_106_35" x1="57.0213" y1="172.528" x2="150.992" y2="172.528" gradientUnits="userSpaceOnUse">
<stop stop-color="#FF80AB"/>
<stop offset="0.9895" stop-color="#40C4FF"/>
</linearGradient>
<linearGradient id="paint4_linear_106_35" x1="33.6988" y1="216.986" x2="133.707" y2="216.986" gradientUnits="userSpaceOnUse">
<stop stop-color="#FF4081"/>
<stop offset="0.9895" stop-color="#00B0FF"/>
</linearGradient>
<linearGradient id="paint5_linear_106_35" x1="358.346" y1="250.403" x2="386.671" y2="250.403" gradientUnits="userSpaceOnUse">
<stop offset="0.0104712" stop-color="#00B0FF"/>
<stop offset="1" stop-color="#FFEA00"/>
</linearGradient>
<linearGradient id="paint6_linear_106_35" x1="383.512" y1="244.039" x2="418.171" y2="244.039" gradientUnits="userSpaceOnUse">
<stop stop-color="#FFEA00"/>
<stop offset="0.9895" stop-color="#00B0FF"/>
</linearGradient>
<linearGradient id="paint7_linear_106_35" x1="347.521" y1="281.415" x2="394.221" y2="281.415" gradientUnits="userSpaceOnUse">
<stop offset="0.0104712" stop-color="#00B0FF"/>
<stop offset="1" stop-color="#FFEA00"/>
</linearGradient>
<linearGradient id="paint8_linear_106_35" x1="391.062" y1="272.615" x2="428.996" y2="272.615" gradientUnits="userSpaceOnUse">
<stop stop-color="#FFEA00"/>
<stop offset="0.9895" stop-color="#00B0FF"/>
</linearGradient>
<linearGradient id="paint9_linear_106_35" x1="347.521" y1="255.562" x2="425.837" y2="255.562" gradientUnits="userSpaceOnUse">
<stop stop-color="#FFFF8D"/>
<stop offset="0.9895" stop-color="#40C4FF"/>
</linearGradient>
<linearGradient id="paint10_linear_106_35" x1="291.59" y1="114.865" x2="366.316" y2="114.865" gradientUnits="userSpaceOnUse">
<stop stop-color="#FFEA00"/>
<stop offset="0.9895" stop-color="#D500F9"/>
</linearGradient>
<linearGradient id="paint11_linear_106_35" x1="264.072" y1="106.397" x2="372.571" y2="106.397" gradientUnits="userSpaceOnUse">
<stop stop-color="#FFEA00"/>
<stop offset="0.9895" stop-color="#D500F9"/>
</linearGradient>
<linearGradient id="paint12_linear_106_35" x1="297.16" y1="81.9897" x2="367.363" y2="149.044" gradientUnits="userSpaceOnUse">
<stop stop-color="#FFFF8D"/>
<stop offset="0.9895" stop-color="#E040FB"/>
</linearGradient>
<linearGradient id="paint13_linear_106_35" x1="227.059" y1="207.802" x2="266.957" y2="207.802" gradientUnits="userSpaceOnUse">
<stop stop-color="#FF80AB"/>
<stop offset="0.9895" stop-color="#40C4FF"/>
</linearGradient>
<linearGradient id="paint14_linear_106_35" x1="225.92" y1="197.068" x2="259.119" y2="197.068" gradientUnits="userSpaceOnUse">
<stop stop-color="#FF4081"/>
<stop offset="0.9895" stop-color="#00B0FF"/>
</linearGradient>
<linearGradient id="paint15_linear_106_35" x1="157.813" y1="55.9907" x2="220.187" y2="55.9907" gradientUnits="userSpaceOnUse">
<stop stop-color="#40C4FF"/>
<stop offset="0.9895" stop-color="#69F0AE"/>
</linearGradient>
<linearGradient id="paint16_linear_106_35" x1="202.057" y1="67.164" x2="218.934" y2="83.2849" gradientUnits="userSpaceOnUse">
<stop stop-color="#00B0FF"/>
<stop offset="0.9895" stop-color="#69F0AE"/>
</linearGradient>
<linearGradient id="paint17_linear_106_35" x1="272.21" y1="301.952" x2="367.228" y2="301.952" gradientUnits="userSpaceOnUse">
<stop stop-color="#FFFF8D"/>
<stop offset="0.9895" stop-color="#E040FB"/>
</linearGradient>
<linearGradient id="paint18_linear_106_35" x1="355.72" y1="343.372" x2="368.477" y2="331.187" gradientUnits="userSpaceOnUse">
<stop stop-color="#FFEA00"/>
<stop offset="0.9895" stop-color="#D500F9"/>
</linearGradient>
<linearGradient id="paint19_linear_106_35" x1="180.91" y1="163.509" x2="226.422" y2="163.509" gradientUnits="userSpaceOnUse">
<stop stop-color="#FFEA00"/>
<stop offset="0.9895" stop-color="#00B0FF"/>
</linearGradient>
<linearGradient id="paint20_linear_106_35" x1="175.089" y1="135.571" x2="226.422" y2="135.571" gradientUnits="userSpaceOnUse">
<stop stop-color="#FFEA00"/>
<stop offset="0.9895" stop-color="#00B0FF"/>
</linearGradient>
<linearGradient id="paint21_linear_106_35" x1="173.752" y1="199.029" x2="173.752" y2="108.355" gradientUnits="userSpaceOnUse">
<stop offset="0.0104712" stop-color="#00B0FF"/>
<stop offset="1" stop-color="#FFEA00"/>
</linearGradient>
<linearGradient id="paint22_linear_106_35" x1="162.805" y1="119.151" x2="217.249" y2="171.154" gradientUnits="userSpaceOnUse">
<stop stop-color="#FFFF8D"/>
<stop offset="0.9895" stop-color="#40C4FF"/>
</linearGradient>
<linearGradient id="paint23_linear_106_35" x1="116.767" y1="145.125" x2="135.639" y2="145.125" gradientUnits="userSpaceOnUse">
<stop stop-color="#D500F9"/>
<stop offset="0.9895" stop-color="#2979FF"/>
</linearGradient>
<linearGradient id="paint24_linear_106_35" x1="65.7121" y1="74.6569" x2="125.292" y2="74.6569" gradientUnits="userSpaceOnUse">
<stop stop-color="#D500F9"/>
<stop offset="0.9895" stop-color="#2979FF"/>
</linearGradient>
<linearGradient id="paint25_linear_106_35" x1="74.2375" y1="70.4683" x2="135.639" y2="70.4683" gradientUnits="userSpaceOnUse">
<stop stop-color="#EA80FC"/>
<stop offset="0.9895" stop-color="#40C4FF"/>
</linearGradient>
<linearGradient id="paint26_linear_106_35" x1="147.802" y1="267.312" x2="170.103" y2="267.312" gradientUnits="userSpaceOnUse">
<stop offset="0.0104712" stop-color="#D500F9"/>
<stop offset="1" stop-color="#FFEA00"/>
</linearGradient>
<linearGradient id="paint27_linear_106_35" x1="147.802" y1="248.985" x2="179.826" y2="248.985" gradientUnits="userSpaceOnUse">
<stop stop-color="#FFEA00"/>
<stop offset="0.9895" stop-color="#D500F9"/>
</linearGradient>
<linearGradient id="paint28_linear_106_35" x1="159.381" y1="263.026" x2="190.548" y2="263.026" gradientUnits="userSpaceOnUse">
<stop stop-color="#FFFF8D"/>
<stop offset="0.9895" stop-color="#E040FB"/>
</linearGradient>
<linearGradient id="paint29_linear_106_35" x1="18.7142" y1="108.717" x2="48.6837" y2="108.717" gradientUnits="userSpaceOnUse">
<stop stop-color="#FFEA00"/>
<stop offset="0.9895" stop-color="#D500F9"/>
</linearGradient>
<linearGradient id="paint30_linear_106_35" x1="20.9879" y1="77.0665" x2="47.0788" y2="101.987" gradientUnits="userSpaceOnUse">
<stop stop-color="#FFFF8D"/>
<stop offset="0.9895" stop-color="#E040FB"/>
</linearGradient>
<linearGradient id="paint31_linear_106_35" x1="12.0592" y1="98.536" x2="24.8914" y2="98.536" gradientUnits="userSpaceOnUse">
<stop stop-color="#FFEA00"/>
<stop offset="0.9895" stop-color="#D500F9"/>
</linearGradient>
<linearGradient id="paint32_linear_106_35" x1="398.371" y1="348.486" x2="428.341" y2="348.486" gradientUnits="userSpaceOnUse">
<stop stop-color="#FF4081"/>
<stop offset="0.9895" stop-color="#00B0FF"/>
</linearGradient>
<linearGradient id="paint33_linear_106_35" x1="397.896" y1="329.894" x2="428.341" y2="329.894" gradientUnits="userSpaceOnUse">
<stop stop-color="#FF80AB"/>
<stop offset="0.9895" stop-color="#40C4FF"/>
</linearGradient>
<linearGradient id="paint34_linear_106_35" x1="398.132" y1="356.896" x2="398.132" y2="319.713" gradientUnits="userSpaceOnUse">
<stop offset="0.0104712" stop-color="#00B0FF"/>
<stop offset="1" stop-color="#FF4081"/>
</linearGradient>
<linearGradient id="paint35_linear_106_35" x1="221.844" y1="315.771" x2="256.981" y2="315.771" gradientUnits="userSpaceOnUse">
<stop stop-color="#D500F9"/>
<stop offset="0.9895" stop-color="#2979FF"/>
</linearGradient>
<linearGradient id="paint36_linear_106_35" x1="150.276" y1="292.104" x2="252.921" y2="292.104" gradientUnits="userSpaceOnUse">
<stop stop-color="#D500F9"/>
<stop offset="0.9895" stop-color="#2979FF"/>
</linearGradient>
<linearGradient id="paint37_linear_106_35" x1="150.276" y1="358.014" x2="280.185" y2="358.014" gradientUnits="userSpaceOnUse">
<stop stop-color="#D500F9"/>
<stop offset="0.9895" stop-color="#2979FF"/>
</linearGradient>
<linearGradient id="paint38_linear_106_35" x1="172.174" y1="310.828" x2="280.185" y2="310.828" gradientUnits="userSpaceOnUse">
<stop stop-color="#EA80FC"/>
<stop offset="0.9895" stop-color="#40C4FF"/>
</linearGradient>
<linearGradient id="paint39_linear_106_35" x1="150.276" y1="358.014" x2="280.185" y2="358.014" gradientUnits="userSpaceOnUse">
<stop stop-color="#D500F9"/>
<stop offset="0.9895" stop-color="#2979FF"/>
</linearGradient>
<linearGradient id="paint40_linear_106_35" x1="302.19" y1="211.719" x2="404.795" y2="211.719" gradientUnits="userSpaceOnUse">
<stop offset="0.0104712" stop-color="#69F0AE"/>
<stop offset="1" stop-color="#00B0FF"/>
</linearGradient>
<linearGradient id="paint41_linear_106_35" x1="293.775" y1="229.362" x2="310.716" y2="229.362" gradientUnits="userSpaceOnUse">
<stop offset="0.0104712" stop-color="#69F0AE"/>
<stop offset="1" stop-color="#00B0FF"/>
</linearGradient>
<linearGradient id="paint42_linear_106_35" x1="302.3" y1="201.483" x2="404.795" y2="201.483" gradientUnits="userSpaceOnUse">
<stop stop-color="#40C4FF"/>
<stop offset="0.9895" stop-color="#69F0AE"/>
</linearGradient>
<linearGradient id="paint43_linear_106_35" x1="293.775" y1="229.362" x2="310.716" y2="229.362" gradientUnits="userSpaceOnUse">
<stop offset="0.0104712" stop-color="#69F0AE"/>
<stop offset="1" stop-color="#00B0FF"/>
</linearGradient>
<linearGradient id="paint44_linear_106_35" x1="244.704" y1="50.5514" x2="276.663" y2="50.5514" gradientUnits="userSpaceOnUse">
<stop stop-color="#FFEA00"/>
<stop offset="0.9895" stop-color="#D500F9"/>
</linearGradient>
<linearGradient id="paint45_linear_106_35" x1="0.69308" y1="50.5513" x2="60.049" y2="50.5513" gradientUnits="userSpaceOnUse">
<stop stop-color="#FF80AB"/>
<stop offset="0.9895" stop-color="#40C4FF"/>
</linearGradient>
<linearGradient id="paint46_linear_106_35" x1="259.531" y1="160.473" x2="271.72" y2="191.421" gradientUnits="userSpaceOnUse">
<stop stop-color="#FF80AB"/>
<stop offset="0.9895" stop-color="#40C4FF"/>
</linearGradient>
<linearGradient id="paint47_linear_106_35" x1="145.077" y1="313.597" x2="132.022" y2="294.867" gradientUnits="userSpaceOnUse">
<stop stop-color="#FF80AB"/>
<stop offset="0.9895" stop-color="#40C4FF"/>
</linearGradient>
<linearGradient id="paint48_linear_106_35" x1="148.529" y1="159.756" x2="153.453" y2="159.756" gradientUnits="userSpaceOnUse">
<stop stop-color="#40C4FF"/>
<stop offset="0.9895" stop-color="#69F0AE"/>
</linearGradient>
<linearGradient id="paint49_linear_106_35" x1="288.998" y1="347.864" x2="332.433" y2="347.864" gradientUnits="userSpaceOnUse">
<stop stop-color="#FFEA00"/>
<stop offset="0.9895" stop-color="#D500F9"/>
</linearGradient>
<linearGradient id="paint50_linear_106_35" x1="306.651" y1="260.275" x2="329.992" y2="260.275" gradientUnits="userSpaceOnUse">
<stop stop-color="#40C4FF"/>
<stop offset="0.9895" stop-color="#69F0AE"/>
</linearGradient>
<linearGradient id="paint51_linear_106_35" x1="153.373" y1="93.6601" x2="158.355" y2="81.1565" gradientUnits="userSpaceOnUse">
<stop stop-color="#FF80AB"/>
<stop offset="0.9895" stop-color="#40C4FF"/>
</linearGradient>
</defs>
</svg>
