<svg width="314" height="219" viewBox="0 0 314 219" fill="none" xmlns="http://www.w3.org/2000/svg">
<g clip-path="url(#clip0_9_1485)">
<path d="M131.104 158.401C131.104 142.994 143.593 130.505 159 130.505C174.407 130.505 186.896 142.994 186.896 158.401C186.896 173.807 174.407 186.297 159 186.297C143.593 186.297 131.104 173.807 131.104 158.401Z" fill="#05C4CE"/>
<path d="M204 242.608L314 242.608L314 132.608C253.28 132.608 204 181.888 204 242.608Z" fill="#2477FF"/>
<path d="M-116 102.608L-116 212.608L49 212.608C79.36 212.608 104 187.968 104 157.608C104 127.248 79.36 102.608 49 102.608L-116 102.608Z" fill="#FFAA21"/>
<path d="M-6.00011 0.000404108L48.9999 0.000401704C135.944 0.000397903 206.608 70.7524 206.608 157.608L206.608 322.608" stroke="#050E12" stroke-miterlimit="10"/>
<path d="M-6.00006 13.2004L48.9999 13.2004C128.64 13.2004 193.408 77.9684 193.408 157.608L193.408 322.608" stroke="#050E12" stroke-miterlimit="10"/>
<path d="M-6 26.4004L49 26.4004C121.336 26.4004 180.208 85.2724 180.208 157.608L180.208 322.608" stroke="#050E12" stroke-miterlimit="10"/>
<path d="M-5.99997 39.6004L49 39.6004C114.12 39.6004 167.008 92.5764 167.008 157.608L167.008 322.608" stroke="#050E12" stroke-miterlimit="10"/>
<path d="M-6.00004 52.8004L49 52.8004C106.816 52.8004 153.808 99.7924 153.808 157.608L153.808 322.608" stroke="#050E12" stroke-miterlimit="10"/>
<path d="M-5.99998 66.0004L49 66.0004C99.512 66.0004 140.608 107.096 140.608 157.608L140.608 322.608" stroke="#050E12" stroke-miterlimit="10"/>
<path d="M-6.00006 79.2004L49 79.2004C92.296 79.2004 127.408 114.4 127.408 157.608L127.408 322.608" stroke="#050E12" stroke-miterlimit="10"/>
<path d="M-6.00001 92.4004L49 92.4004C84.992 92.4004 114.208 121.616 114.208 157.608L114.208 322.608" stroke="#050E12" stroke-miterlimit="10"/>
<path d="M10.456 157.608C10.456 136.272 27.7521 118.976 49.088 118.976C70.4238 118.976 87.72 136.272 87.72 157.608C87.72 178.944 70.4238 196.24 49.088 196.24C27.7521 196.24 10.456 178.944 10.456 157.608Z" fill="#FF4927"/>
</g>
<defs>
<clipPath id="clip0_9_1485">
<rect width="314" height="219" fill="white"/>
</clipPath>
</defs>
</svg>
