<svg width="160" height="58" viewBox="0 0 160 58" fill="none" xmlns="http://www.w3.org/2000/svg">
<g clip-path="url(#clip0_9_1484)">
<path d="M115.151 21.6531C92.2113 21.6531 73.7089 40.2499 73.7089 63.0947H156.592C156.592 40.1555 138.09 21.6531 115.151 21.6531Z" fill="#FFB642"/>
<path d="M18.1805 18.1321C18.1805 17.4533 18.7138 16.8715 19.441 16.8715C20.1198 16.8715 20.7015 17.4048 20.7015 18.1321C20.7015 18.8593 20.1682 19.3926 19.441 19.3926C18.7623 19.3926 18.1805 18.8108 18.1805 18.1321Z" fill="#050E12"/>
<path d="M1.26047 16.8715C0.564309 16.8715 -3.26633e-05 17.4359 -3.26633e-05 18.1321C-3.26633e-05 18.8282 0.564309 19.3926 1.26047 19.3926C1.95664 19.3926 2.521 18.8282 2.521 18.1321C2.521 17.4359 1.95664 16.8715 1.26047 16.8715Z" fill="#050E12"/>
<path d="M38.3002 16.8715C37.604 16.8715 37.0397 17.4359 37.0397 18.1321C37.0397 18.8282 37.604 19.3926 38.3002 19.3926C38.9964 19.3926 39.5607 18.8282 39.5607 18.1321C39.5607 17.4359 38.9964 16.8715 38.3002 16.8715Z" fill="#050E12"/>
<path d="M18.1805 1.26096C18.1805 0.582222 18.7138 0.000444458 19.441 0.000444458C20.1198 0.000444458 20.7015 0.53374 20.7015 1.26096C20.7015 1.9397 20.1682 2.52148 19.441 2.52148C18.7623 2.473 18.1805 1.9397 18.1805 1.26096Z" fill="#050E12"/>
<path d="M-3.27268e-05 1.26096C-3.27268e-05 0.582222 0.533252 0.000444458 1.26047 0.000444458C1.93922 0.000444458 2.521 0.53374 2.521 1.26096C2.521 1.9397 1.9877 2.52148 1.26047 2.52148C0.533252 2.473 -3.27268e-05 1.9397 -3.27268e-05 1.26096Z" fill="#050E12"/>
<path d="M37.0883 1.26096C37.0883 0.582222 37.6216 0.000444458 38.3489 0.000444458C39.0276 0.000444458 39.6094 0.53374 39.6094 1.26096C39.6094 1.9397 39.0761 2.52148 38.3489 2.52148C37.6216 2.473 37.0883 1.9397 37.0883 1.26096Z" fill="#050E12"/>
<path d="M18.1805 35.1008C18.1805 34.4221 18.7138 33.8403 19.441 33.8403C20.1198 33.8403 20.7015 34.3736 20.7015 35.1008C20.7015 35.7795 20.1682 36.3613 19.441 36.3613C18.7623 36.3128 18.1805 35.7795 18.1805 35.1008Z" fill="#050E12"/>
<path d="M-3.27268e-05 35.1008C-3.27268e-05 34.4221 0.533252 33.8403 1.26047 33.8403C1.93922 33.8403 2.521 34.3736 2.521 35.1008C2.521 35.7795 1.9877 36.3613 1.26047 36.3613C0.533252 36.3128 -3.27268e-05 35.7795 -3.27268e-05 35.1008Z" fill="#050E12"/>
<path d="M37.0883 35.1008C37.0883 34.4221 37.6216 33.8403 38.3489 33.8403C39.0276 33.8403 39.6094 34.3736 39.6094 35.1008C39.6094 35.7795 39.0761 36.3613 38.3489 36.3613C37.6216 36.3128 37.0883 35.7795 37.0883 35.1008Z" fill="#050E12"/>
</g>
<defs>
<clipPath id="clip0_9_1484">
<rect width="160" height="58" fill="white"/>
</clipPath>
</defs>
</svg>
