<svg width="176" height="166" viewBox="0 0 176 166" fill="none" xmlns="http://www.w3.org/2000/svg">
<path d="M130.729 157.684C148.291 157.684 162.527 143.447 162.527 125.885C162.527 108.324 148.291 94.0869 130.729 94.0869C113.167 94.0869 98.9304 108.324 98.9304 125.885C98.9304 143.447 113.167 157.684 130.729 157.684Z" fill="#F99313"/>
<path d="M176 165H130.729C59.2368 165 1 106.836 1 35.2711V-10" stroke="#050E12" stroke-miterlimit="10"/>
<path d="M176 154.135H130.729C65.1763 154.135 11.8651 100.824 11.8651 35.2711V-10" stroke="#050E12" stroke-miterlimit="10"/>
<path d="M176 143.27H130.729C71.1883 143.27 22.7301 94.8117 22.7301 35.2711V-10" stroke="#050E12" stroke-miterlimit="10"/>
<path d="M176 132.405H130.729C77.1279 132.405 33.5952 88.7997 33.5952 35.2711V-10" stroke="#050E12" stroke-miterlimit="10"/>
<path d="M176 121.54H130.729C83.1399 121.54 44.4603 82.8601 44.4603 35.2711V-10" stroke="#050E12" stroke-miterlimit="10"/>
<path d="M176 110.675H130.729C89.1519 110.675 55.3253 76.8481 55.3253 35.2711V-10" stroke="#050E12" stroke-miterlimit="10"/>
<path d="M176 99.8096H130.729C95.0915 99.8096 66.1904 70.8361 66.1904 35.2711V-10" stroke="#050E12" stroke-miterlimit="10"/>
<path d="M176 88.9445H130.729C101.103 88.9445 77.0555 64.8965 77.0555 35.2711V-10" stroke="#050E12" stroke-miterlimit="10"/>
</svg>
