<svg width="671" height="563" viewBox="0 0 671 563" fill="none" xmlns="http://www.w3.org/2000/svg">
<path fill-rule="evenodd" clip-rule="evenodd" d="M309.197 547.664C253.499 546.745 210.48 510.111 166.717 477.528C118.274 441.462 63.8319 409.072 47.2318 352.625C26.7633 283.025 20.7697 201 68.8184 144.639C117.981 86.9717 205.12 87.4536 282.207 77.0005C370.155 65.0745 465.135 33.541 538.312 80.9751C616.844 131.881 669.603 228.342 653.76 317.845C639.142 400.427 539.418 434.349 467.241 482.49C418.332 515.111 368.742 548.647 309.197 547.664Z" stroke="#52526C" stroke-opacity="0.5" stroke-dasharray="6 6"/>
<path fill-rule="evenodd" clip-rule="evenodd" d="M339.561 0.487502C406.694 7.02142 424.673 84.8953 474.292 125.597C528.273 169.877 618.432 182.381 638.007 245.297C660.654 318.091 640.577 406.091 577.225 456.448C515.382 505.605 421.757 492.647 339.561 482.523C270.972 474.074 214.203 443.06 159.775 405.028C94.2734 359.259 -2.79047 319.29 0.0614395 245.297C2.90855 171.429 107.086 142.722 171.68 96.144C225.34 57.45 270.862 -6.19897 339.561 0.487502Z" fill="#FF7E6C"/>
</svg>
