<svg width="78" height="95" viewBox="0 0 78 95" fill="none" xmlns="http://www.w3.org/2000/svg">
<path d="M8.23805 86.1269L7.90363 85.9931C7.78102 85.9485 4.94963 84.7335 2.6979 81.0549C0.657971 77.7219 -1.28164 71.6132 1.09271 61.447C5.81911 41.1703 18.4043 24.182 25.4827 15.8662L28.4702 12.3549L26.642 16.5908C24.5352 21.4844 21.9379 28.2061 19.3183 35.5187L19.296 35.5856L19.2515 35.6525C17.1892 38.9297 15.2608 42.664 13.5107 46.7773C11.4707 51.5706 8.63935 58.8163 7.58037 66.3183C6.32074 75.2026 9.01835 78.8478 13.4661 81.59L14.4024 82.1696L12.2399 83.563C12.0058 83.7079 11.7829 83.8529 11.5599 83.9978L11.2812 84.1761C9.65374 85.224 8.52788 85.9374 8.52788 85.9374L8.23805 86.1269ZM23.5654 20.4031C16.4312 29.41 6.49909 44.3695 2.44152 61.7703C-1.42655 78.3684 6.43221 83.6299 8.12658 84.5551C8.57246 84.2653 9.44194 83.7079 10.5455 83.0057L10.813 82.8273C11.036 82.6824 11.2589 82.5375 11.493 82.3926L11.8274 82.1808C7.98166 79.5612 4.8716 75.5705 6.22041 66.1177C7.30169 58.4596 10.1777 51.1024 12.251 46.2311C14.0123 42.0844 15.963 38.2943 18.0476 34.9725C19.9537 29.6441 21.8599 24.6279 23.5654 20.4031Z" fill="#132742" fill-opacity="0.2"/>
<path d="M12.6964 87.2638C10.2329 86.8625 8.05922 86.0488 7.91431 85.9931C7.66907 85.9039 7.50186 85.6809 7.46842 85.4134C7.44612 85.157 7.56874 84.9006 7.78054 84.7557C7.78054 84.7557 8.9064 84.0423 10.5227 82.9945L10.7903 82.8161C11.0132 82.6712 11.2362 82.5263 11.4703 82.3814L11.6598 82.2588C11.7712 82.1919 11.8716 82.125 11.983 82.047L12.7076 81.5788C14.101 80.687 16.1521 79.3605 17.9245 78.2012C18.0805 78.1009 18.2812 78.0674 18.4595 78.1009C21.2463 78.7474 24.4344 79.4051 27.9346 80.0628C28.2133 80.1185 28.4251 80.3303 28.492 80.609C28.5477 80.8877 28.4363 81.1663 28.2022 81.3224C25.1813 83.3735 19.6634 86.896 16.5534 87.3753C15.3718 87.576 14.0007 87.4756 12.6964 87.2638ZM9.77588 85.1459C11.4257 85.6475 14.2682 86.3386 16.3639 86.0154C18.8274 85.6363 23.2751 82.9276 26.0396 81.1217C23.2863 80.5867 20.7447 80.0516 18.4707 79.5388C16.754 80.6647 14.8144 81.9132 13.4879 82.7604L12.7745 83.2174C12.663 83.2843 12.5515 83.3623 12.4401 83.4292L12.2506 83.5518C12.0165 83.6967 11.7935 83.8417 11.5706 83.9866L11.2919 84.1649C10.7122 84.5439 10.1995 84.8783 9.77588 85.1459Z" fill="#132742" fill-opacity="0.2"/>
<path d="M62.2905 95L62.0675 94.7213C62.0675 94.7213 61.6216 94.164 60.9082 93.2722L57.709 89.2815L58.7791 89.0251C63.8622 87.8324 67.5854 85.2351 69.2129 76.4177C70.7066 68.3248 70.5059 60.5887 69.8148 56.0629C68.0981 44.8043 65.4897 37.4471 63.6058 33.2558L63.5501 33.1332L63.539 33.0106C62.8478 27.0357 62.1456 21.9749 61.4879 18.3966L62.8367 18.0622C62.8367 18.0511 62.8255 18.0288 62.8144 18.0065C62.8367 18.0622 62.9704 18.2851 63.1042 18.5304C67.9978 27.437 79.145 50.6566 76.9267 73.865C75.9346 84.2541 72.1557 89.4264 69.1683 91.9345C65.8576 94.7102 62.7921 94.9443 62.6583 94.9554L62.2905 95ZM60.1502 90.1064L61.9895 92.4027C62.3908 92.8932 62.7029 93.2945 62.9036 93.5397C63.7396 93.3948 65.9913 92.8263 68.3434 90.8198C72.3006 87.4534 74.7976 81.5454 75.5333 73.7423C77.4841 53.2761 68.845 32.7319 63.5501 22.365C63.996 25.3413 64.4642 28.8527 64.9101 32.7653C66.8274 37.057 69.4581 44.5145 71.1859 55.8288C72.0888 61.748 71.8547 69.7294 70.5728 76.6518C68.845 86.0488 64.6314 88.8468 60.1502 90.1064Z" fill="#132742" fill-opacity="0.2"/>
<path d="M57.6975 94.6544C56.4045 94.4426 55.0668 94.0971 53.9855 93.5397C51.1764 92.0906 47.0186 86.9294 44.7891 83.9866C44.6219 83.7636 44.5996 83.4627 44.7445 83.2174C44.8894 82.9722 45.157 82.8384 45.4357 82.883C48.9916 83.3623 52.2131 83.7302 54.9999 83.9866C55.1894 84.0089 55.3678 84.098 55.4793 84.2541C56.8281 85.9708 58.3998 87.9327 59.47 89.2703L61.5879 91.9122C61.7217 92.0794 61.8554 92.2466 61.9781 92.4027C62.6915 93.2833 63.1374 93.8407 63.1374 93.8407C63.3046 94.0413 63.338 94.32 63.2266 94.5652C63.1151 94.7993 62.881 94.9665 62.6246 94.9665C62.4908 94.9777 60.1722 95.0557 57.6975 94.6544ZM46.9294 84.4771C48.9916 87.1078 52.4026 91.1431 54.6321 92.3024C56.5159 93.2833 59.4254 93.5174 61.1532 93.5732C61.0751 93.4728 60.986 93.3725 60.9079 93.261C60.7853 93.105 60.6516 92.9378 60.5178 92.7706L58.3998 90.1175C57.3743 88.8356 55.8917 86.9852 54.5875 85.3242C52.2912 85.1236 49.7273 84.8449 46.9294 84.4771Z" fill="#132742" fill-opacity="0.2"/>
<path d="M55.1013 11.2178L54.2764 11.0395C53.563 10.8834 52.7493 10.7162 51.8575 10.5378L51.289 10.4264L51.3001 9.84672C51.4005 5.82259 50.3638 4.28428 47.1757 3.77151C43.6197 3.19186 41.6801 5.76686 40.6769 8.02974L40.4651 8.52021L39.9412 8.44218C39.1274 8.30841 38.3137 8.19694 37.5445 8.08547L36.6416 7.9517L37.0095 7.11567C39.3392 1.84305 43.2296 -0.63162 47.9448 0.137535C47.9448 0.137535 47.9448 0.137535 47.956 0.137535C54.1092 1.14078 55.2797 4.96426 55.1348 10.4041L55.1013 11.2178ZM52.7047 9.27822C53.0614 9.35625 53.4181 9.42313 53.7414 9.49002C53.7191 4.31773 52.0804 2.18862 47.7219 1.4752C47.7219 1.4752 47.7219 1.4752 47.7107 1.4752C42.9732 0.706041 40.2087 3.77151 38.6592 6.81469C38.9825 6.85928 39.2946 6.91502 39.629 6.95961C41.3457 3.45939 44.0879 1.83191 47.3986 2.37812C51.9244 3.11383 52.6935 6.06783 52.7047 9.27822Z" fill="#132742" fill-opacity="0.2"/>
<path d="M35.5708 82.8161C28.47 81.6568 21.804 80.3526 16.799 79.1376C7.99268 77.0084 7.26812 75.8937 7.00058 75.4701C6.66617 74.9574 5.89701 73.7535 9.51985 61.0568C12.2509 51.4926 16.6095 38.5395 20.8788 27.2363C25.7724 14.339 29.0608 7.41663 30.6549 6.65862C31.8811 6.07897 39.5503 7.20483 45.7705 8.24152C50.3854 9.01068 59.4369 10.6716 60.6519 11.3962C61.1313 11.686 62.2571 12.3548 64.1633 26.7235C65.2669 35.0393 66.3036 45.5623 67.0058 55.5836C67.552 63.3755 67.853 70.1418 67.853 75.1469C67.8642 84.0312 66.9835 84.7334 66.5599 85.079C66.1586 85.4023 65.0885 86.2606 55.4797 85.4246C50.0175 84.9452 42.9391 84.02 35.5708 82.8161ZM44.1541 9.37853C36.1839 8.08546 31.8811 7.70646 31.2345 7.91825C31.1008 7.98514 29.5625 9.05527 24.2564 22.4096C21.046 30.4913 17.2894 40.9919 14.224 50.4782C8.57234 67.9569 7.75859 73.943 8.18219 74.7233C8.29366 74.9016 9.26346 75.8826 17.1334 77.7887C22.105 78.9926 28.7376 80.2857 35.7937 81.445C43.1397 82.6489 50.1736 83.563 55.6134 84.0423C64.2302 84.7892 65.5233 84.1315 65.7016 83.9977C65.8577 83.8305 66.6491 82.4594 66.4373 72.1594C66.3036 65.7832 65.8131 57.2779 65.0439 48.2041C64.2971 39.3421 63.3718 30.8591 62.4355 24.3157C60.9975 14.2833 60.1169 12.8007 59.9274 12.5889C59.1805 12.1988 53.3617 10.9391 45.737 9.65721C45.1908 9.55689 44.6557 9.46771 44.1541 9.37853Z" fill="#132742" fill-opacity="0.2"/>
<path d="M46.5066 60.7336C42.371 60.0536 37.8675 59.2845 35.8276 58.8274C32.4277 58.0583 27.757 57.4229 25.9066 57.1777C25.26 57.0996 24.6915 56.7429 24.3348 56.2079C24.0896 55.8511 23.9781 55.5725 23.967 55.539C23.5211 54.4132 23.6326 53.1312 24.268 52.1057C24.2791 52.0834 24.3014 52.0611 24.3125 52.0388C24.3237 52.0277 24.5355 51.7936 24.8142 51.5037C25.4718 50.8238 26.4194 50.5005 27.3557 50.6231C30.4881 51.0356 38.2131 52.1057 42.2929 53.0978C44.7899 53.7109 48.2009 54.1791 50.9431 54.5581C52.8827 54.8256 54.5548 55.0597 55.4355 55.2715C56.0263 55.4164 56.4387 55.5836 56.8846 55.8623C57.8432 56.4531 57.8098 58.3593 57.3751 59.8753C57.1744 60.5887 56.6951 61.8149 55.8368 62.0155C55.5692 62.0824 55.3017 62.1047 55.0564 62.0713C54.8224 62.049 54.644 61.8372 54.644 61.6031L54.7109 58.6045L54.4991 58.5711L53.8414 61.4582C53.7857 61.6923 53.5627 61.8483 53.3175 61.8149C51.6789 61.5585 49.1707 61.1683 46.5066 60.7336ZM31.3353 57.0327C32.9182 57.2891 34.5902 57.5901 36.0282 57.9245C39.2498 58.6602 48.6691 60.154 53.0165 60.8451L53.6742 57.958C53.7299 57.7239 53.964 57.5678 54.1981 57.6013L55.2348 57.7685C55.4577 57.8019 55.625 58.0026 55.625 58.2366L55.5581 61.1461C55.5692 61.1461 55.5804 61.1349 55.5915 61.1349C55.7699 61.0903 56.16 60.6444 56.461 59.6412C56.8623 58.2255 56.7397 56.9101 56.3718 56.676C56.0151 56.4531 55.6807 56.3193 55.1902 56.1967C54.3653 55.9961 52.7155 55.762 50.7982 55.5056C48.0337 55.1266 44.6004 54.6473 42.0588 54.023C38.0236 53.0309 30.3432 51.9719 27.222 51.5595C26.5754 51.4703 25.9177 51.7044 25.4607 52.1726C25.2489 52.3844 25.0817 52.5739 25.026 52.6408C24.5578 53.4099 24.4797 54.3686 24.8142 55.2046C24.8142 55.2046 24.9033 55.4276 25.0928 55.7062C25.3046 56.0184 25.6391 56.219 26.0181 56.2636C27.0993 56.3974 29.1393 56.676 31.3353 57.0327Z" fill="#132742" fill-opacity="0.2"/>
<path d="M52.4257 58.1251C43.3185 56.6426 25.3827 53.1312 24.4463 52.9417L24.5801 52.2617C24.8699 52.3175 53.1614 57.8465 57.1744 58.0805L57.1298 58.7717C56.3384 58.7271 54.644 58.4818 52.4257 58.1251Z" fill="#132742" fill-opacity="0.2"/>
<path d="M55.0781 59.8975L55.1784 59.2064C55.9699 59.3179 56.5607 59.3848 56.9286 59.4071H56.9397C56.9508 59.4071 56.9731 59.4071 56.9843 59.4071L56.9286 59.7526L56.9063 60.0982H56.8728C56.4938 60.0759 55.903 60.009 55.0781 59.8975Z" fill="#132742" fill-opacity="0.2"/>
<path d="M52.2918 59.4628C43.0954 57.958 24.4239 54.3128 24.2344 54.2682L24.3681 53.5883C24.5799 53.6328 45.4252 57.7016 53.8859 59.0058L53.7855 59.6969C53.3174 59.63 52.8157 59.552 52.2918 59.4628Z" fill="#132742" fill-opacity="0.2"/>
<path d="M54.1641 66.6304L52.9602 66.4298C52.6592 66.3852 52.3917 66.2068 52.2133 65.9504C52.0461 65.6941 51.9793 65.3819 52.0461 65.081L53.551 58.4818C53.6736 57.9468 54.1975 57.5901 54.7326 57.6792C55.2454 57.7573 55.6244 58.2143 55.6132 58.7382L55.4572 65.5603C55.446 65.8836 55.3011 66.1845 55.0559 66.3852C54.8106 66.5858 54.4762 66.675 54.1641 66.6304ZM54.5877 58.5933C54.532 58.5822 54.4651 58.6268 54.4539 58.6825L52.9491 65.2928C52.9379 65.3596 52.9602 65.4154 52.9714 65.4377C52.9825 65.46 53.0271 65.5046 53.094 65.5157L54.2979 65.7164C54.3759 65.7275 54.4205 65.6941 54.4428 65.6718C54.4651 65.6495 54.5097 65.6049 54.5097 65.538L54.6657 58.7159C54.688 58.6602 54.6434 58.6045 54.5877 58.5933Z" fill="#132742" fill-opacity="0.2"/>
<path d="M48.5019 23.8922C45.9826 23.4797 43.2516 23.0115 42.0143 22.7329C39.9632 22.2647 37.1206 21.8857 36.0059 21.7408C35.5823 21.685 35.2256 21.4621 35.0027 21.1277C34.8466 20.9047 34.7797 20.7264 34.7686 20.7152C34.4899 20.0129 34.5679 19.2103 34.9581 18.575C34.9692 18.5638 34.9804 18.5415 34.9915 18.5304C34.9915 18.5304 35.1253 18.3855 35.2925 18.2071C35.705 17.7835 36.3069 17.5717 36.8866 17.6497C38.7816 17.895 43.4745 18.5527 45.9492 19.1546C47.4652 19.5225 49.5274 19.8123 51.1884 20.0352C52.37 20.2024 53.3844 20.3362 53.9194 20.47C54.2873 20.5592 54.5437 20.6595 54.8112 20.8378C55.4243 21.2168 55.4132 22.3984 55.1456 23.3459C55.023 23.7918 54.722 24.561 54.1647 24.6948C53.9975 24.7393 53.8191 24.7505 53.663 24.7282C53.4735 24.7059 53.3509 24.5498 53.3509 24.3715L53.3955 22.5991L53.0165 24.2823C52.9719 24.4607 52.8047 24.5721 52.6264 24.5498C51.6343 24.3938 50.1182 24.1597 48.5019 23.8922ZM39.3166 21.5178C40.2753 21.6739 41.2897 21.8634 42.1592 22.0529C44.0988 22.4876 49.7392 23.3905 52.4034 23.8141L52.7936 22.1198C52.8382 21.9414 53.0054 21.8299 53.1837 21.8522L53.808 21.9525C53.9752 21.986 54.1089 22.1309 54.0978 22.3093L54.0643 23.959C54.1647 23.8699 54.343 23.6135 54.4768 23.1342C54.722 22.2647 54.6217 21.5178 54.4434 21.4063C54.2316 21.2726 54.0421 21.1945 53.7522 21.1277C53.2506 21.005 52.2585 20.8713 51.0992 20.7041C49.4271 20.47 47.3315 20.1801 45.7931 19.8011C43.3519 19.1992 38.6924 18.5638 36.7974 18.3074C36.4295 18.2628 36.0505 18.3855 35.783 18.6641C35.6604 18.7868 35.56 18.8982 35.5266 18.9428C35.2591 19.3887 35.2145 19.9461 35.404 20.4365C35.404 20.4365 35.4597 20.5592 35.5712 20.7264C35.6827 20.8936 35.8722 21.0162 36.084 21.0385C36.7528 21.1277 37.9901 21.2949 39.3166 21.5178Z" fill="#132742" fill-opacity="0.2"/>
<path d="M52.1021 22.2647C46.5843 21.3617 35.6935 19.2326 35.125 19.1212L35.2142 18.6641C35.3925 18.6976 52.548 22.0529 54.9781 22.1866L54.9558 22.6548C54.4653 22.6325 53.4398 22.4876 52.1021 22.2647Z" fill="#132742" fill-opacity="0.2"/>
<path d="M53.707 23.3459L53.7739 22.8889C54.2532 22.9558 54.61 23.0004 54.8329 23.0115H54.8775L54.844 23.2456L54.8329 23.4797H54.8106C54.5654 23.4574 54.2087 23.4128 53.707 23.3459Z" fill="#132742" fill-opacity="0.2"/>
<path d="M52.0129 23.0784C46.4282 22.1644 35.1138 19.9572 34.9912 19.9349L35.0804 19.4779C35.203 19.5002 47.8551 21.9749 52.9828 22.7663L52.9159 23.2234C52.6372 23.1788 52.3362 23.1342 52.0129 23.0784Z" fill="#132742" fill-opacity="0.2"/>
<path d="M53.1389 27.4704L52.4032 27.3478C52.2026 27.3143 52.0242 27.2028 51.9127 27.0356C51.8013 26.8684 51.7567 26.6566 51.8013 26.456L52.7153 22.4541C52.7934 22.0974 53.1501 21.8633 53.5068 21.9191C53.8523 21.9748 54.0976 22.2758 54.0976 22.6214L53.9973 26.757C53.9973 26.9688 53.8969 27.1694 53.7297 27.3143C53.5737 27.4481 53.3507 27.5038 53.1389 27.4704ZM53.0609 22.521L53.3953 22.5991L52.4812 26.6009C52.4812 26.612 52.4812 26.6232 52.4924 26.6343C52.5035 26.6455 52.5147 26.6566 52.5258 26.6566L53.2615 26.7793C53.2727 26.7793 53.2838 26.7793 53.295 26.7681C53.3061 26.757 53.3061 26.7458 53.3061 26.7347L53.4065 22.5991L53.0609 22.521Z" fill="#132742" fill-opacity="0.2"/>
<path d="M32.661 11.7306C32.6276 11.7306 32.6053 11.7194 32.5718 11.7083C32.5161 11.7083 32.4604 11.7083 32.4046 11.686C32.2263 11.608 32.1483 11.4073 32.2151 11.229C32.3601 10.8723 32.583 10.8611 32.7056 10.8723C32.8505 10.8946 33.0289 10.9949 33.0512 11.3627C33.0623 11.5522 32.9174 11.7194 32.7279 11.7306C32.7168 11.7417 32.6945 11.7417 32.661 11.7306Z" fill="#132742" fill-opacity="0.2"/>
<path d="M28.8827 15.8216C28.8493 15.8216 28.827 15.8104 28.7935 15.7993C28.7378 15.7993 28.6821 15.7993 28.6263 15.777C28.448 15.699 28.3699 15.4983 28.4368 15.32C28.5817 14.9633 28.8047 14.9521 28.9273 14.9633C29.0722 14.9856 29.2506 15.0859 29.2729 15.4537C29.284 15.6432 29.1391 15.8104 28.9496 15.8216C28.9384 15.8216 28.9161 15.8216 28.8827 15.8216Z" fill="#132742" fill-opacity="0.2"/>
<path d="M32.9071 16.3901C32.8737 16.3901 32.8514 16.379 32.8179 16.3678C32.7622 16.3678 32.7065 16.3678 32.6507 16.3455C32.4724 16.2675 32.3943 16.0669 32.4612 15.8885C32.6061 15.5318 32.8291 15.5207 32.9517 15.5318C33.0966 15.5541 33.275 15.6544 33.2973 16.0223C33.3084 16.2118 33.1635 16.379 32.974 16.3901C32.9517 16.4013 32.9294 16.3901 32.9071 16.3901Z" fill="#132742" fill-opacity="0.2"/>
<path d="M28.3251 20.9604C28.2916 20.9604 28.2694 20.9493 28.2359 20.9382C28.1802 20.9382 28.1244 20.9382 28.0687 20.9159C27.8903 20.8378 27.8123 20.6372 27.8792 20.4588C28.0241 20.1021 28.2471 20.091 28.3697 20.1021C28.5146 20.1244 28.6929 20.2247 28.7152 20.5926C28.7264 20.7821 28.5815 20.9493 28.392 20.9604C28.3808 20.9604 28.3474 20.9604 28.3251 20.9604Z" fill="#132742" fill-opacity="0.2"/>
<path d="M31.3575 81.6345C31.2795 81.6234 31.2126 81.5788 31.1569 81.523C30.1982 80.4418 29.8081 78.9703 29.7969 78.9035C29.7524 78.714 29.8638 78.5245 30.0422 78.4799C30.2317 78.4353 30.4212 78.5467 30.4658 78.7251C30.4658 78.7363 30.8225 80.0962 31.6697 81.0549C31.7923 81.1998 31.7811 81.4227 31.6362 81.5453C31.5582 81.6234 31.4579 81.6568 31.3575 81.6345Z" fill="#132742" fill-opacity="0.2"/>
<path d="M34.9581 82.2253C34.8801 82.2142 34.8132 82.1696 34.7575 82.1139C33.7988 81.0214 33.4087 79.5612 33.3975 79.4943C33.3529 79.3048 33.4644 79.1153 33.6428 79.0707C33.8323 79.0261 34.0218 79.1376 34.0664 79.3159C34.0664 79.3271 34.4231 80.687 35.2703 81.6457C35.3929 81.7906 35.3817 82.0135 35.2368 82.1362C35.1588 82.2142 35.0585 82.2365 34.9581 82.2253Z" fill="#132742" fill-opacity="0.2"/>
<path d="M38.547 82.504C38.469 82.4929 38.4021 82.4483 38.3464 82.3926C37.3877 81.3113 36.9975 79.8399 36.9864 79.773C36.9418 79.5835 37.0533 79.394 37.2316 79.3494C37.4211 79.3048 37.6106 79.4163 37.6552 79.5946C37.6552 79.6058 38.0119 80.9657 38.8591 81.9244C38.9817 82.0693 38.9706 82.2922 38.8257 82.4148C38.7588 82.4929 38.6473 82.5263 38.547 82.504Z" fill="#132742" fill-opacity="0.2"/>
<path d="M41.8579 83.0503C41.7799 83.0391 41.713 82.9945 41.6573 82.9388C40.6986 81.8575 40.2193 80.1408 40.197 80.074C40.1413 79.8845 40.2527 79.695 40.4422 79.6504C40.6317 79.5946 40.8212 79.7061 40.8658 79.8956C40.8658 79.9067 41.3229 81.5231 42.17 82.4817C42.2927 82.6267 42.2815 82.8496 42.1366 82.9722C42.0697 83.0391 41.9582 83.0614 41.8579 83.0503Z" fill="#132742" fill-opacity="0.2"/>
<path d="M45.3468 83.4404C45.2688 83.4292 45.2019 83.3846 45.1462 83.3289C44.1875 82.2365 43.7973 80.7762 43.7862 80.7093C43.7416 80.5198 43.8531 80.3303 44.0314 80.2857C44.2209 80.2411 44.4104 80.3526 44.455 80.531C44.455 80.5421 44.8117 81.902 45.6589 82.8607C45.7815 83.0056 45.7704 83.2286 45.6255 83.3512C45.5475 83.4292 45.4471 83.4627 45.3468 83.4404Z" fill="#132742" fill-opacity="0.2"/>
<path d="M48.747 84.02C48.6689 84.0089 48.602 83.9643 48.5463 83.9086C47.5877 82.8273 47.0191 81.0995 46.9969 81.0214C46.9411 80.8431 47.0414 80.6424 47.2198 80.5867C47.3981 80.531 47.5988 80.6313 47.6545 80.8096C47.6545 80.8208 48.2007 82.4817 49.0591 83.4515C49.1817 83.5964 49.1705 83.8194 49.0256 83.942C48.9588 84.0089 48.8473 84.0312 48.747 84.02Z" fill="#132742" fill-opacity="0.2"/>
<path d="M52.0802 84.4213C52.0022 84.4102 51.9353 84.3656 51.8796 84.3098C50.9209 83.2286 50.5307 81.7571 50.5196 81.6903C50.475 81.5008 50.5865 81.3113 50.7648 81.2667C50.9543 81.2221 51.1438 81.3336 51.1884 81.5119C51.1884 81.5231 51.5451 82.883 52.3923 83.8417C52.5149 83.9866 52.5038 84.2095 52.3589 84.3321C52.292 84.4102 52.1805 84.4436 52.0802 84.4213Z" fill="#132742" fill-opacity="0.2"/>
<path d="M55.2902 84.7112C55.2121 84.7 55.1453 84.6554 55.0895 84.5997C54.1309 83.5073 53.7407 82.047 53.7296 81.9801C53.685 81.7906 53.7964 81.6011 53.9748 81.5565C54.1643 81.5119 54.3538 81.6234 54.3984 81.8018C54.3984 81.8129 54.7551 83.1729 55.6023 84.1315C55.7249 84.2764 55.7138 84.4994 55.5688 84.622C55.502 84.7 55.3905 84.7223 55.2902 84.7112Z" fill="#132742" fill-opacity="0.2"/>
<path d="M58.8351 84.9899C58.7571 84.9787 58.6902 84.9341 58.6344 84.8784C57.6758 83.7971 57.2856 82.3257 57.2745 82.2588C57.2299 82.0693 57.3414 81.8798 57.5197 81.8352C57.7092 81.7906 57.8987 81.9021 57.9433 82.0804C57.9433 82.0916 58.3 83.4515 59.1472 84.4102C59.2698 84.5551 59.2587 84.7781 59.1138 84.9007C59.0357 84.9899 58.9243 85.0122 58.8351 84.9899Z" fill="#132742" fill-opacity="0.2"/>
<path d="M62.3351 84.9899C62.2571 84.9787 62.1902 84.9341 62.1344 84.8784C61.1758 83.786 60.7856 82.3257 60.7745 82.2588C60.7299 82.0693 60.8414 81.8798 61.0197 81.8352C61.2092 81.7906 61.3987 81.9021 61.4433 82.0804C61.4433 82.0916 61.8 83.4515 62.6472 84.4102C62.7698 84.5551 62.7587 84.7781 62.6138 84.9007C62.5469 84.9787 62.4354 85.001 62.3351 84.9899Z" fill="#132742" fill-opacity="0.2"/>
<path d="M16.2747 85.2797C16.1521 85.2574 16.0518 85.1793 16.0072 85.0567C15.9403 84.8784 16.0406 84.6777 16.219 84.6108C18.6379 83.7525 21.826 81.3893 21.8594 81.367C22.0155 81.2555 22.2273 81.289 22.3499 81.4339C22.4614 81.59 22.4279 81.8018 22.283 81.9244C22.1493 82.0247 18.9723 84.3767 16.4531 85.2685C16.3862 85.2797 16.3304 85.2908 16.2747 85.2797Z" fill="#132742" fill-opacity="0.2"/>
<path d="M54.3536 91.4552C54.2979 91.444 54.2421 91.4217 54.1975 91.3883C52.1019 89.7385 49.8279 86.5058 49.7387 86.3721C49.6272 86.216 49.6718 85.9931 49.8279 85.8927C49.9839 85.7813 50.2069 85.8258 50.3072 85.9819C50.3295 86.0154 52.6035 89.2703 54.6211 90.8532C54.7772 90.9758 54.7995 91.1876 54.6769 91.3437C54.5988 91.4329 54.4762 91.4775 54.3536 91.4552Z" fill="#132742" fill-opacity="0.2"/>
</svg>
