<svg width="64" height="107" viewBox="0 0 64 107" fill="none" xmlns="http://www.w3.org/2000/svg">
<path d="M5.46885 95.9099C7.23474 96.6 9.42687 97.1481 12.0858 97.554C16.328 98.2035 20.4484 99.8273 24.0005 102.243C27.0857 104.354 31.612 107.053 35.3468 106.201C37.0112 105.835 38.3508 104.8 39.3251 103.156C47.0178 90.1048 47.9718 80.9913 48.9258 72.1619C49.4738 67.0672 50.0219 61.7898 51.8892 55.7818C54.9136 46.0796 57.126 43.2582 59.0948 40.7819C60.333 39.219 61.5102 37.7373 62.5657 34.8145C66.0975 25.0717 62.2207 15.9581 60.3939 12.4872L60.2112 12.1624L48.9258 7.41283L49.3317 6.35736L47.2817 6.92569C43.2831 8.10295 33.6012 11.9189 29.9476 22.0067C28.9531 24.7469 28.608 26.9593 28.2224 29.5371C27.6337 33.3327 26.9233 38.0621 23.5336 46.6885C20.8747 53.4476 17.8706 56.8372 14.7042 60.4299C10.1982 65.5246 5.0832 71.3094 0.29299 87.6691C-0.234745 89.4756 -0.0520696 91.0994 0.861318 92.5C1.71381 93.9208 3.25643 95.0371 5.46885 95.9099ZM19.0682 97.2699C16.9166 96.4174 14.6839 95.8084 12.4106 95.4634C7.11295 94.6515 3.82476 93.2915 2.6272 91.4039C2.05887 90.5108 1.95739 89.4959 2.32274 88.2984C6.97087 72.3851 11.7002 67.0266 16.2874 61.871C19.5959 58.1363 22.7217 54.6045 25.5025 47.5004C28.9734 38.671 29.7041 33.7996 30.313 29.9025C30.6783 27.4465 31.0031 25.3355 31.9368 22.778C35.2047 13.7456 44.1762 10.153 47.4644 9.11782L58.6889 13.8471C60.4345 17.2977 63.7024 25.4776 60.5766 34.1446C59.6429 36.7427 58.6686 37.9606 57.4305 39.5235C55.4616 42.0201 53.0056 45.1256 49.8798 55.2134C47.9515 61.4245 47.3832 66.783 46.8352 71.9792C45.8812 80.971 44.9678 89.4756 37.5186 102.121C36.8488 103.258 35.9963 103.927 34.9002 104.171C32.6878 104.658 29.5214 103.461 25.198 100.517C23.2901 99.2184 21.2197 98.1224 19.0682 97.2699Z" fill="#132742" fill-opacity="0.2"/>
<path d="M55.3399 6.27609C60.0286 8.12316 62.3019 8.24495 62.9311 6.68204C63.5807 5.03794 61.4697 3.06908 57.2681 1.40469C54.1423 0.166541 50.2452 -0.888929 49.4333 1.14082C48.6417 3.15027 52.2141 5.03794 55.3399 6.27609ZM60.536 5.64687C59.8459 5.56568 58.5469 5.28151 56.1112 4.32753C53.7973 3.41414 52.5388 2.62254 51.9299 2.1354C52.7215 2.19629 54.1829 2.48046 56.4968 3.39384C58.7904 4.28693 59.988 5.11913 60.536 5.64687Z" fill="#132742" fill-opacity="0.2"/>
<path d="M59.0744 13.9485C59.318 14.05 59.5819 14.05 59.8255 13.9485C60.069 13.847 60.272 13.644 60.3735 13.4005L62.9919 6.70228C63.1948 6.19484 62.931 5.60621 62.4235 5.42354L62.3018 5.38294C61.8552 5.20026 61.3681 5.38294 61.1042 5.7483C60.7997 5.78889 59.6022 5.78889 56.0704 4.40866C52.7213 3.04873 51.3005 1.85118 51.1584 1.48582C51.0366 1.07987 50.6916 0.795706 50.2653 0.775409C49.8391 0.755111 49.4534 0.998682 49.2911 1.38433L46.6524 7.61567C46.5509 7.85924 46.5509 8.1231 46.6524 8.38697C46.7336 8.63054 46.9365 8.83352 47.1801 8.935L59.0542 13.9282C59.0744 13.9282 59.0744 13.9282 59.0744 13.9485ZM60.4547 7.69686L58.8918 11.7158L48.8648 7.49388L50.4886 3.65765C51.8485 4.75372 53.9392 5.6874 55.36 6.23544C57.5927 7.10823 59.2571 7.59537 60.4547 7.69686Z" fill="#132742" fill-opacity="0.2"/>
<path d="M39.5888 32.1148C41.7606 32.9673 44.1557 33.5356 46.7132 33.6168C57.1664 33.9009 58.9526 37.3718 59.2164 38.0619C59.3788 38.5085 59.866 38.7318 60.2922 38.5694C60.7387 38.407 60.962 37.9199 60.7996 37.4936C60.2313 35.9307 57.6941 32.2366 46.7538 31.9524C39.812 31.7697 34.2505 27.6087 30.7999 24.1784C30.4752 23.8537 29.9271 23.8537 29.6024 24.1784C29.2776 24.5032 29.2776 25.0512 29.6024 25.376C32.0178 27.7305 35.4075 30.4504 39.5888 32.1148Z" fill="#132742" fill-opacity="0.2"/>
<path d="M58.2427 26.2286C58.3036 26.2489 58.3442 26.2692 58.4051 26.2692C58.4863 26.3301 58.5878 26.3707 58.6893 26.391C59.0343 26.4316 59.3591 26.2083 59.3997 25.8632C59.5012 25.1731 59.1561 24.9295 58.9531 24.8484C58.7096 24.7469 58.3239 24.7469 57.9586 25.2949C57.7556 25.5791 57.8368 25.985 58.1209 26.1677C58.1615 26.188 58.2021 26.2083 58.2427 26.2286Z" fill="#132742" fill-opacity="0.2"/>
<path d="M57.0045 18.6983C57.0451 18.7186 57.0857 18.7186 57.1263 18.7389C57.3293 18.8606 57.5931 18.8809 57.7961 18.7389C58.1006 18.5562 58.1818 18.1705 57.9991 17.8661C57.8164 17.5616 57.4511 16.9933 56.903 17.2774C56.355 17.5413 56.5783 18.1502 56.6595 18.3329C56.7204 18.5156 56.8421 18.6374 57.0045 18.6983Z" fill="#132742" fill-opacity="0.2"/>
<path d="M35.6914 21.8646C35.9756 21.9661 36.28 21.8849 36.4627 21.621C38.6954 18.1502 42.0648 15.7145 42.7346 15.2679C43.0188 15.0649 43.1 14.6793 42.897 14.3951C42.694 14.111 42.3084 14.0298 42.0242 14.2327C41.0499 14.9026 37.7212 17.3789 35.4072 20.9512C35.2246 21.2354 35.3058 21.6413 35.5899 21.824C35.6102 21.824 35.6508 21.8443 35.6914 21.8646Z" fill="#132742" fill-opacity="0.2"/>
<path d="M0.841033 90.6121C0.94252 90.6527 1.06431 90.673 1.16579 90.6527C5.73273 89.9423 8.33081 87.7907 8.45259 87.7095C8.71646 87.4863 8.75706 87.0803 8.53378 86.8165C8.31051 86.5526 7.90456 86.512 7.64069 86.7353C7.6204 86.7556 5.1644 88.7447 0.983118 89.4145C0.63806 89.4754 0.394489 89.8002 0.455381 90.1452C0.475679 90.3482 0.638058 90.5309 0.841033 90.6121Z" fill="#132742" fill-opacity="0.2"/>
<path d="M5.67214 95.5445C5.81422 95.6054 5.9563 95.6054 6.11868 95.5445C8.69646 94.6311 10.1376 93.4539 10.1782 93.4133C10.442 93.19 10.4826 92.7841 10.2594 92.5202C10.0361 92.2563 9.63015 92.2157 9.36628 92.439C9.34598 92.4593 8.02664 93.5351 5.69243 94.347C5.36767 94.4687 5.185 94.8341 5.30678 95.1589C5.36767 95.3415 5.50976 95.4836 5.67214 95.5445Z" fill="#132742" fill-opacity="0.2"/>
<path d="M2.68786 83.4472C2.80965 83.4878 2.93143 83.5081 3.05322 83.4675C6.90974 82.615 9.10187 80.8086 9.18306 80.7274C9.44693 80.5041 9.48752 80.0981 9.26425 79.8343C9.04098 79.5704 8.63503 79.5298 8.37116 79.7531C8.33057 79.7734 6.30082 81.4378 2.76905 82.2294C2.424 82.3106 2.22102 82.6353 2.28191 82.9804C2.3631 83.2037 2.50519 83.366 2.68786 83.4472Z" fill="#132742" fill-opacity="0.2"/>
<path d="M5.91567 75.3891C6.03746 75.45 6.19984 75.45 6.34192 75.4094C9.22417 74.496 10.848 73.1564 10.9292 73.1158C11.193 72.8925 11.2336 72.4866 11.0103 72.2227C10.7871 71.9588 10.3811 71.9182 10.1173 72.1415C10.097 72.1618 8.59494 73.3797 5.95627 74.2119C5.63151 74.3133 5.44883 74.6787 5.55032 75.0035C5.61121 75.1861 5.75329 75.3282 5.91567 75.3891Z" fill="#132742" fill-opacity="0.2"/>
<path d="M10.4622 67.5746C10.6043 67.6355 10.7464 67.6355 10.8884 67.5949C13.6489 66.6815 15.1915 65.4028 15.2524 65.3622C15.5163 65.1389 15.5569 64.733 15.3336 64.4691C15.1103 64.2052 14.7044 64.1646 14.4405 64.3879C14.4202 64.4082 12.9994 65.5652 10.4825 66.3974C10.1577 66.4988 9.97505 66.8642 10.0765 67.189C10.1577 67.3716 10.2998 67.5137 10.4622 67.5746Z" fill="#132742" fill-opacity="0.2"/>
<path d="M39.8937 88.8056C40.1982 88.9274 40.5635 88.7853 40.7056 88.4808C44.0953 81.3158 44.3186 71.8369 44.3389 71.4309C44.3389 71.0859 44.075 70.8017 43.7096 70.7814C43.3646 70.7814 43.0804 71.0453 43.0601 71.4107C43.0601 71.5121 42.8369 81.0317 39.5487 87.9531C39.4066 88.2779 39.5284 88.6432 39.8531 88.8056C39.8734 88.8056 39.8937 88.8056 39.8937 88.8056Z" fill="#132742" fill-opacity="0.2"/>
</svg>
