<svg width="80" height="59" viewBox="0 0 80 59" fill="none" xmlns="http://www.w3.org/2000/svg">
<path d="M14.577 8.11711C13.3356 8.11711 12.3982 7.57243 12.0562 6.63507C11.5242 5.1657 12.6262 3.36698 15.0203 1.80894C18.2504 -0.281124 21.6072 -0.38246 23.2539 0.605568C23.9506 1.02358 24.3179 1.6316 24.2672 2.29028C24.0646 4.67168 19.5424 7.5471 15.1597 8.09178C14.957 8.11711 14.767 8.11711 14.577 8.11711ZM20.6318 1.56826C19.3524 1.56826 17.6677 1.97361 15.8817 3.13897C13.8549 4.45634 13.3736 5.62171 13.5509 6.09039C13.6776 6.4324 14.2476 6.59707 14.9696 6.5084C18.9091 6.01439 22.5572 3.45565 22.6965 2.16361C22.6712 2.10028 22.4939 1.92294 22.0378 1.77093C21.6578 1.64426 21.1765 1.56826 20.6318 1.56826Z" fill="#132742" fill-opacity="0.2"/>
<path d="M19.0356 51.4003C14.3488 51.4003 10.0166 49.7029 6.62188 46.4855C1.93508 42.0394 -0.458984 35.2879 0.0730305 27.979C0.731716 19.1247 5.32984 10.8532 12.4107 5.86238L13.1581 5.33036L13.5761 6.15372C13.7281 6.45773 14.2728 6.60973 14.9694 6.52106C18.9089 6.02705 22.5697 3.46831 22.709 2.1636L22.4937 1.36558L23.317 1.18824C25.4704 0.744898 27.7505 0.516891 30.0939 0.516891C35.452 0.516891 41.8869 2.77162 47.7517 6.71107C53.1099 10.3085 57.214 14.8053 58.4553 18.4407C58.7087 19.2008 58.696 19.8214 58.3793 20.3408C57.822 21.3035 56.5553 21.5315 54.8072 21.8608C51.8305 22.4182 47.321 23.2415 44.1796 28.435C43.2422 29.9804 42.3429 31.5258 41.4815 33.0205C36.212 42.1154 31.6519 49.9563 21.5816 51.2356C20.7076 51.3497 19.8716 51.4003 19.0356 51.4003ZM12.7401 7.57242C6.38121 12.3352 2.25176 19.9481 1.65641 28.093C1.16239 34.9332 3.36646 41.216 7.71125 45.3455C11.3467 48.7909 16.1855 50.3236 21.3536 49.6776C30.6512 48.4996 34.8187 41.33 40.0882 32.2351C40.9622 30.7404 41.8489 29.195 42.7989 27.6243C46.3203 21.8228 51.4378 20.8728 54.4906 20.3154C55.5673 20.1128 56.7833 19.8848 56.986 19.5554C57.0366 19.4541 57.024 19.2388 56.9226 18.9601C54.7059 12.4619 41.5195 2.10027 30.0685 2.10027C28.0418 2.10027 26.0784 2.27761 24.2037 2.61962C23.621 4.93768 19.3269 7.55976 15.1468 8.0791C14.1714 8.20577 13.3227 8.01577 12.7401 7.57242Z" fill="#132742" fill-opacity="0.2"/>
<path d="M72.2118 34.7559C70.2611 34.7559 67.9177 34.5025 65.1816 33.9958C64.865 33.9325 64.6116 33.6918 64.5483 33.3752C64.485 33.0585 64.6243 32.7291 64.903 32.5645C67.9557 30.6011 70.8058 29.347 73.0985 28.3337C74.9986 27.4977 77.1393 26.5476 77.152 25.9649C77.152 25.9523 77.1393 25.9016 77.0887 25.8256C76.8733 25.4583 76.9873 24.9896 77.342 24.7616C77.6967 24.5336 78.178 24.6222 78.4187 24.9769C80.2174 27.5483 81.0154 31.1204 77.874 33.4512C76.6833 34.3125 74.7833 34.7559 72.2118 34.7559ZM67.563 32.7925C73.3645 33.6538 75.8599 32.9571 76.9366 32.1591C78.8114 30.7784 78.6087 28.9037 78.0133 27.4723C77.2027 28.245 75.7206 28.891 73.7446 29.7651C71.9585 30.5504 69.8304 31.4878 67.563 32.7925Z" fill="#132742" fill-opacity="0.2"/>
<path d="M45.725 58.7219C39.5815 58.7219 32.9693 55.8338 25.5211 49.9056L24.457 49.0696L25.7111 48.5629C32.1206 45.9662 35.8067 39.6074 40.0755 32.2351C40.9368 30.7404 41.8362 29.1951 42.7862 27.637C46.3076 21.8355 51.4251 20.8855 54.4779 20.3155C55.6306 20.1001 56.9353 19.8595 56.9986 19.4795L57.1 18.7574L57.822 18.8081C62.8001 19.1248 68.0063 20.0875 72.0977 21.4555C75.1125 22.4562 78.7099 24.0522 78.6972 25.9776C78.6972 27.5863 76.8098 28.4097 73.7064 29.7777C69.007 31.8425 61.1534 35.3132 55.4279 44.0408C53.5405 46.9289 52.8565 49.6523 52.2485 52.0717C51.3618 55.6185 50.6018 58.6712 45.9276 58.7346C45.8896 58.7219 45.8136 58.7219 45.725 58.7219ZM27.5351 49.4623C34.3626 54.6938 40.4048 57.2019 45.953 57.1385C49.2591 57.1005 49.8164 55.4285 50.7538 51.6664C51.3491 49.2596 52.1091 46.2702 54.1359 43.1541C60.102 34.0339 68.2343 30.4491 73.0984 28.3084C74.9985 27.4723 77.1392 26.5223 77.1519 25.9396C77.1519 25.699 76.1765 24.4323 71.629 22.9249C67.8036 21.6582 62.9901 20.7462 58.316 20.4041C57.7333 21.3035 56.3526 21.5695 54.7819 21.8609C51.8051 22.4182 47.2957 23.2542 44.1543 28.4477C43.2169 29.9931 42.3175 31.5385 41.4562 33.0205C37.3014 40.1774 33.6913 46.4095 27.5351 49.4623Z" fill="#132742" fill-opacity="0.2"/>
<path d="M44.268 27.5103C44.002 27.5103 43.7486 27.3456 43.6473 27.0796C37.3138 10.2958 21.3787 5.5077 21.214 5.4697C20.8593 5.36836 20.6693 5.00102 20.758 4.65901C20.8593 4.30433 21.2267 4.10166 21.5687 4.203C21.746 4.25366 25.8121 5.44436 30.7396 8.80113C35.287 11.9045 41.4306 17.5034 44.876 26.611C45.0027 26.953 44.838 27.333 44.496 27.4597C44.4326 27.4977 44.344 27.5103 44.268 27.5103Z" fill="#132742" fill-opacity="0.2"/>
<path d="M24.5326 50.4629C24.3553 50.4629 24.1906 50.3996 24.064 50.2603C14.9437 40.8613 13.1703 29.5497 13.2843 21.7215C13.411 13.2599 15.6404 7.10371 15.7417 6.83771C15.8684 6.4957 16.2484 6.31836 16.5904 6.44503C16.9324 6.5717 17.1098 6.95171 16.9831 7.29372C16.9578 7.35705 14.7157 13.5386 14.6144 21.7848C14.513 29.3597 16.2357 40.2913 25.0266 49.3482C25.28 49.6142 25.2673 50.0323 25.014 50.2856C24.862 50.3996 24.6973 50.4629 24.5326 50.4629Z" fill="#132742" fill-opacity="0.2"/>
<path d="M6.82435 40.0127C6.69768 40.0127 6.57101 39.9493 6.495 39.8353C1.88421 32.9065 3.89826 26.1296 3.98693 25.8509C4.05027 25.6483 4.27827 25.5216 4.48095 25.5849C4.68362 25.6483 4.81029 25.8763 4.74695 26.0789C4.72162 26.1423 2.75823 32.7925 7.15369 39.392C7.28036 39.5693 7.22969 39.8227 7.03969 39.9367C6.97635 39.9873 6.90035 40.0127 6.82435 40.0127Z" fill="#132742" fill-opacity="0.2"/>
<path d="M20.8474 37.3146C20.708 37.3146 20.5687 37.2386 20.4927 37.1119C17.4146 31.3484 17.3133 27.0036 17.2753 25.1542C17.2626 24.7869 17.2626 24.4956 17.2373 24.3436C17.1993 24.1282 17.3513 23.9255 17.5666 23.8875C17.782 23.8495 17.9846 24.0015 18.0226 24.2169C18.0606 24.4322 18.0606 24.7236 18.0733 25.1289C18.1113 27.0796 18.2126 31.1331 21.2021 36.7319C21.3034 36.9219 21.2274 37.1626 21.0374 37.2639C20.9741 37.2893 20.9107 37.3146 20.8474 37.3146Z" fill="#132742" fill-opacity="0.2"/>
<path d="M49.766 13.7033C49.6393 13.7033 49.5126 13.6399 49.4366 13.5259C46.7639 9.5865 40.3291 6.85042 40.253 6.82509C40.0504 6.73642 39.9617 6.50841 40.0377 6.30574C40.1264 6.10306 40.3544 6.0144 40.5571 6.0904C40.8357 6.2044 47.2832 8.95315 50.0827 13.0826C50.2093 13.2599 50.1587 13.5133 49.9813 13.6273C49.918 13.6906 49.842 13.7033 49.766 13.7033Z" fill="#132742" fill-opacity="0.2"/>
<path d="M50.8175 45.0288C50.7921 45.0288 50.7795 45.0288 50.7541 45.0288C50.5388 44.9908 50.3868 44.7882 50.4248 44.5728C51.6155 37.226 58.4937 34.2745 58.5697 34.2365C58.7723 34.1479 59.0004 34.2492 59.089 34.4519C59.1777 34.6545 59.0764 34.8826 58.8737 34.9712C58.8103 34.9966 52.3248 37.796 51.2101 44.6995C51.1721 44.8895 51.0075 45.0288 50.8175 45.0288Z" fill="#132742" fill-opacity="0.2"/>
<path d="M32.4629 54.1618C32.2983 54.1618 32.1589 54.0604 32.0956 53.9084C31.2342 51.679 31.3229 50.311 31.3229 50.2477C31.3356 50.0323 31.5256 49.8676 31.7409 49.8803C31.9562 49.893 32.1209 50.083 32.1083 50.2983C32.1083 50.3237 32.0449 51.5777 32.8303 53.6171C32.9063 53.8198 32.8049 54.0478 32.6023 54.1238C32.5643 54.1618 32.5136 54.1618 32.4629 54.1618Z" fill="#132742" fill-opacity="0.2"/>
<path d="M35.4268 55.6564C35.2621 55.6564 35.1228 55.5551 35.0595 55.4031C34.1981 53.1737 34.2868 51.8057 34.2868 51.7423C34.2994 51.527 34.5021 51.3623 34.7048 51.375C34.9201 51.3876 35.0848 51.5777 35.0721 51.793C35.0721 51.8057 34.9961 53.0724 35.7941 55.1118C35.8701 55.3144 35.7688 55.5424 35.5661 55.6184C35.5155 55.6438 35.4648 55.6564 35.4268 55.6564Z" fill="#132742" fill-opacity="0.2"/>
<path d="M38.7198 57.1638C38.5551 57.1638 38.4158 57.0625 38.3524 56.9104C37.4911 54.6811 37.5797 53.313 37.5797 53.2497C37.5924 53.0343 37.7824 52.8697 37.9977 52.8823C38.2131 52.895 38.3778 53.085 38.3651 53.3003C38.3651 53.3257 38.3018 54.5797 39.0871 56.6191C39.1631 56.8218 39.0618 57.0498 38.8591 57.1258C38.8084 57.1511 38.7704 57.1638 38.7198 57.1638Z" fill="#132742" fill-opacity="0.2"/>
<path d="M42.1778 58.0505C42.0131 58.0505 41.8738 57.9492 41.8104 57.7972C40.9491 55.5678 41.0377 54.1997 41.0377 54.1364C41.0504 53.9211 41.2404 53.7564 41.4558 53.7691C41.6711 53.7817 41.8358 53.9717 41.8231 54.1871C41.8231 54.1997 41.7471 55.4664 42.5451 57.5058C42.6211 57.7085 42.5198 57.9365 42.3171 58.0125C42.2791 58.0378 42.2284 58.0505 42.1778 58.0505Z" fill="#132742" fill-opacity="0.2"/>
<path d="M45.9659 58.5319C45.8012 58.5319 45.6619 58.4305 45.5985 58.2785C44.7372 56.0491 44.8258 54.6811 44.8258 54.6178C44.8385 54.4024 45.0285 54.2378 45.2438 54.2504C45.4592 54.2631 45.6239 54.4531 45.6112 54.6684C45.6112 54.6811 45.5352 55.9478 46.3332 57.9872C46.4092 58.1899 46.3079 58.4179 46.1052 58.4939C46.0672 58.5192 46.0165 58.5319 45.9659 58.5319Z" fill="#132742" fill-opacity="0.2"/>
<path d="M71.0212 34.3378H70.7932L70.6792 34.1352C69.9951 32.9445 69.8305 32.1718 69.8305 32.1338C69.7925 31.9184 69.9318 31.7158 70.1345 31.6651C70.3498 31.6271 70.5525 31.7664 70.6032 31.9691C70.6032 31.9691 70.7552 32.6531 71.3505 33.7172C71.3885 33.7805 71.4139 33.8565 71.4139 33.9325C71.4139 34.1605 71.2365 34.3378 71.0212 34.3378Z" fill="#132742" fill-opacity="0.2"/>
<path d="M74.7581 34.1859C74.6187 34.1859 74.4921 34.1225 74.4161 33.9958C73.5927 32.6405 73.4027 31.7411 73.39 31.7031C73.352 31.4878 73.4914 31.2851 73.6941 31.2344C73.9094 31.1964 74.1121 31.3231 74.1627 31.5384C74.1627 31.5511 74.3401 32.3491 75.0874 33.5778C75.2014 33.7678 75.1381 34.0085 74.9608 34.1225C74.8974 34.1605 74.8214 34.1859 74.7581 34.1859Z" fill="#132742" fill-opacity="0.2"/>
<path d="M77.9752 32.7038C77.8485 32.7038 77.7092 32.6405 77.6459 32.5138C76.7592 31.0951 76.5565 30.1577 76.5565 30.1197C76.5185 29.9044 76.6452 29.7017 76.8605 29.651C77.0759 29.613 77.2785 29.7397 77.3292 29.9551C77.3292 29.9677 77.5192 30.8164 78.3172 32.0958C78.4312 32.2858 78.3806 32.5265 78.1906 32.6405C78.1146 32.6911 78.0512 32.7038 77.9752 32.7038Z" fill="#132742" fill-opacity="0.2"/>
<path d="M19.3272 3.43033C19.2892 3.43033 19.2639 3.43033 19.2259 3.41766C19.1625 3.43033 19.0992 3.43033 19.0359 3.41766C18.8205 3.36699 18.6939 3.15166 18.7445 2.94898C18.8459 2.53097 19.0992 2.46764 19.2259 2.46764C19.3905 2.46764 19.6059 2.55631 19.7072 2.94898C19.7579 3.16432 19.6312 3.37966 19.4159 3.43033C19.3905 3.43033 19.3652 3.43033 19.3272 3.43033Z" fill="#132742" fill-opacity="0.2"/>
</svg>
