<svg width="94" height="191" viewBox="0 0 94 191" fill="none" xmlns="http://www.w3.org/2000/svg">
<path d="M82.1405 84.6734C78.2767 77.5897 67.2863 57.8413 64.7104 34.916C62.1345 11.9907 49.8562 1.00024 25.3424 1.00024C0.785636 1.00024 -11.4498 11.9907 -14.0257 34.916C-16.6015 57.8413 -27.592 77.5897 -31.4558 84.6734C-37.9814 95.0199 -41.8022 107.298 -41.8022 120.478C-41.8022 157.571 -11.7503 187.623 25.3424 187.623C62.435 187.623 92.487 157.571 92.487 120.478C92.444 107.298 88.6661 95.0199 82.1405 84.6734ZM3.31859 56.9827C2.80341 50.6718 2.67462 44.1033 3.36152 38.4364C5.46516 20.6628 11.4326 14.5665 25.2994 14.5665C39.1662 14.5665 45.1337 20.7057 47.2373 38.4364C47.9242 44.1033 47.7955 50.6289 47.2803 56.9827C40.4113 54.5785 32.9841 53.2906 25.2994 53.2906C17.6147 53.3335 10.2305 54.6215 3.31859 56.9827Z" stroke="black" stroke-width="2" stroke-miterlimit="10"/>
<path d="M59.454 155.877C78.3153 137.016 78.3153 106.436 59.454 87.5745C40.5928 68.7132 10.0126 68.7132 -8.84866 87.5745C-27.7099 106.436 -27.7099 137.016 -8.84866 155.877C10.0126 174.738 40.5928 174.738 59.454 155.877Z" fill="#FBA498"/>
<path d="M25.0421 146.409C25.0421 146.409 -6.3407 122.152 5.76594 106.998C17.8726 91.8429 32.0828 115.498 28.1761 123.354C24.3123 131.211 17.0998 100.901 37.5351 100.172C57.9704 99.4417 44.1465 133.916 25.0421 146.409Z" stroke="black" stroke-width="2" stroke-miterlimit="10"/>
</svg>
