<svg width="48" height="35" viewBox="0 0 48 35" fill="none" xmlns="http://www.w3.org/2000/svg">
<path fill-rule="evenodd" clip-rule="evenodd" d="M8.99951 2.5408C8.76651 3.87821 8.00924 5.57651 6.82237 7.24651C5.54084 9.04388 4.04087 10.4025 2.76662 11.0323C2.81759 11.4073 2.9705 11.6833 3.21807 11.8531C4.24475 12.5183 6.58208 11.004 8.45341 8.46362C10.3175 5.92325 11.0019 3.32626 9.98251 2.65402C9.72766 2.48419 9.39271 2.45588 8.99951 2.5408ZM45.4649 24.1658C45.2319 25.5032 44.4746 27.2015 43.2877 28.8715C42.0062 30.6689 40.5062 32.0276 39.232 32.6573C39.2829 33.0253 39.4359 33.3084 39.6834 33.4782C40.7028 34.1434 43.0474 32.629 44.9188 30.0887C46.7828 27.5483 47.4673 24.9513 46.4479 24.2791C46.1857 24.1163 45.8508 24.0809 45.4649 24.1658ZM6.0651 2.97245C6.52383 3.34041 6.02141 4.6849 4.9292 5.97986C3.83699 7.27481 2.58458 8.03197 2.11857 7.66401C1.65256 7.29604 2.16226 5.95155 3.25447 4.6566C4.33941 3.36164 5.59909 2.60448 6.0651 2.97245ZM20.0746 25.1636L20.1619 25.1424C20.8609 24.9654 21.458 24.647 21.9386 24.1729C22.4192 23.7059 22.7978 23.1398 23.0527 22.4888C23.2056 22.0996 23.3148 21.6962 23.3876 21.2646C25.6885 22.6444 30.1593 25.3263 32.4675 26.7062L26.6642 25.199C26.3366 26.133 25.907 26.9751 25.3754 27.7181C24.4798 28.9848 23.1255 29.8481 21.2833 30.308L21.1959 30.3293C8.8102 33.4357 3.03603 16.6862 10.6306 10.537L8.99223 9.55337C6.86606 12.3768 4.25203 13.9831 3.04331 13.1623C2.53361 12.8226 2.35158 12.1008 2.45352 11.1738C1.71081 11.4781 1.07005 11.5064 0.618599 11.2092C-0.495459 10.4521 -0.0585735 7.91168 1.5579 5.23685C0.283653 7.3668 -0.0731363 9.32693 0.793353 9.89303C1.82003 10.5653 4.15737 9.04388 6.02141 6.5035C7.88546 3.96312 8.56991 1.36614 7.55051 0.693894C6.52383 0.0287265 4.1865 1.54305 2.31517 4.08342C2.23507 4.19664 2.1477 4.30986 2.07488 4.42308C2.13313 4.33817 2.19139 4.25325 2.24964 4.16834C4.4195 1.13262 7.201 -0.636442 8.46069 0.212709C8.97039 0.552369 9.15242 1.27415 9.05048 2.20114C9.79319 1.89686 10.434 1.86855 10.8854 2.17283C11.9266 2.87338 11.6063 5.14486 10.2446 7.62862C17.5188 11.9947 25.0696 16.5235 32.5039 20.9815C32.7806 20.9603 33.0573 20.9178 33.3413 20.8471L33.4287 20.8258C40.7684 18.986 37.8849 8.36455 30.6472 10.1761L30.5598 10.1973C29.2127 10.537 28.2443 11.3154 27.6618 12.5325C27.3414 13.2047 27.1667 13.9265 27.1448 14.6907L15.2907 7.57909L24.2832 10.1902C24.6327 9.12171 25.1497 8.16642 25.8269 7.31727C26.6934 6.2346 27.9967 5.47744 29.7152 5.04579L29.8025 5.02456C39.1519 2.68232 47.6566 16.6438 38.0961 24.3357L39.2829 25.0504C41.3436 22.4817 43.7683 21.0664 44.9188 21.8377C45.4285 22.1774 45.6105 22.8992 45.5086 23.8262C46.2513 23.5219 46.892 23.4936 47.3435 23.7979C48.6032 24.647 47.8677 27.796 45.7052 30.8317C43.5426 33.8674 40.7611 35.6364 39.5014 34.7873C38.9917 34.4476 38.8097 33.7259 38.9116 32.7989C38.1689 33.1031 37.5281 33.1314 37.0767 32.8272C35.9772 32.0842 36.3995 29.5792 37.9723 26.9326C30.4215 22.4038 22.8706 17.868 15.3125 13.3392C8.81748 18.3421 14.031 26.685 20.0746 25.1636ZM42.4576 24.5621C42.9237 24.9301 42.414 26.2746 41.3217 27.5766C40.2295 28.8715 38.9771 29.6216 38.5111 29.2607C38.1907 29.006 38.3364 28.2913 38.8097 27.4421L37.9723 26.9397C36.7417 29.0414 36.3922 30.959 37.2514 31.5251C38.2708 32.1903 40.6154 30.676 42.4795 28.1356C44.3435 25.5952 45.028 22.9983 44.0086 22.326C43.0766 21.7174 41.0523 22.9204 39.2902 25.0574L40.113 25.5528C40.1494 25.574 40.1858 25.6023 40.2223 25.6306C41.147 24.7249 42.0717 24.2578 42.4576 24.5621Z" fill="#132742"/>
</svg>
