<svg width="99" height="69" viewBox="0 0 99 69" fill="none" xmlns="http://www.w3.org/2000/svg">
<path d="M86.2377 47.5899C82.4432 48.9912 77.8143 50.2193 72.4138 50.8963C65.5333 51.7465 61.0776 53.935 54.9056 56.9423C48.8911 59.8708 41.3966 63.5236 28.659 67.507C12.7568 72.4666 3.92399 63.3189 3.54612 62.9253C3.19973 62.5474 3.18399 61.9806 3.53037 61.6027C3.86101 61.2249 4.44357 61.1619 4.85293 61.461C5.01038 61.587 5.15208 61.6657 5.27804 61.7444C5.30953 61.7602 5.34102 61.7759 5.37251 61.8074C5.404 61.8232 5.43549 61.8547 5.46698 61.8704C5.52996 61.9019 5.56145 61.9334 5.60868 61.9491C5.62443 61.9491 5.62443 61.9649 5.64017 61.9649C5.73464 62.0121 5.82911 62.0593 5.92358 62.1066C5.93932 62.1066 5.93932 62.1223 5.95507 62.1223C6.04954 62.1696 6.15975 62.2168 6.28571 62.264C8.31679 63.067 14.473 64.4525 27.9348 60.0912C40.7195 55.9504 42.7349 54.7852 60.558 43.449C60.7154 43.3545 60.8729 43.2443 61.0461 43.1499C67.1708 39.4183 75.0117 37.4817 81.9394 35.7655C88.2373 34.2068 94.2046 32.7268 94.8186 30.554C94.9288 30.1604 95.2752 29.877 95.6688 29.8455C96.0782 29.814 96.4561 30.0344 96.645 30.3966C99.117 35.4821 99.6365 38.8358 98.2352 40.6779C97.2118 41.9847 93.1024 45.055 86.2377 47.5899ZM62.9354 51.1797C65.738 50.1405 68.635 49.3848 72.1776 48.9439C86.6786 47.1333 95.4642 41.0243 96.6608 39.4656C97.0229 38.9932 97.574 37.4187 95.5901 32.837C93.4331 34.9311 88.5994 36.1277 82.396 37.6707C75.61 39.3554 67.9265 41.2447 62.0537 44.8188C61.8963 44.9133 61.7546 45.0077 61.5971 45.1022C43.5536 56.5644 41.5225 57.7453 28.5173 61.9649C21.2747 64.3108 14.8666 65.35 10.0959 65.0194C13.9849 66.7985 20.0309 68.1368 28.0765 65.6177C40.6723 61.6815 48.0881 58.0602 54.0396 55.1631C57.2831 53.5886 60.0384 52.2503 62.9354 51.1797Z" fill="#132742" fill-opacity="0.2"/>
<path d="M12.5363 45.8108C12.1427 45.9525 11.6704 45.8266 11.4185 45.4802C11.1193 45.0866 11.1665 44.5355 11.5129 44.1891C11.7806 43.9215 22.7704 34.2856 32.5165 25.8622C44.8761 15.1872 54.3387 7.75569 56.417 6.49611C56.8421 6.22845 57.3932 6.29143 57.7553 6.63781C58.1175 6.9842 58.2119 7.53526 57.9758 7.97612C57.8971 8.11782 57.7868 8.35399 58.5111 8.93655C59.1566 9.45613 59.9911 9.86549 61.046 10.1961C61.5026 10.3378 61.786 10.7787 61.7388 11.2668C61.6758 11.7391 61.2822 12.1012 60.8098 12.117C60.7783 12.117 60.7469 12.117 60.7154 12.117C59.0622 13.4868 49.694 21.249 36.6258 31.0265C28.9896 36.7418 21.6683 40.7725 15.7798 44.0159C14.6934 44.6142 13.6542 45.181 12.6623 45.7321C12.6308 45.7636 12.5836 45.7951 12.5363 45.8108ZM56.1336 9.07825C52.6698 11.5974 44.1833 18.3992 33.7918 27.3579C28.7692 31.6878 23.6207 36.175 19.7002 39.6074C24.4866 36.8993 29.8871 33.6401 35.445 29.4677C46.9859 20.8239 55.6298 13.7702 58.5898 11.3298C58.1017 11.0778 57.6609 10.7944 57.2673 10.4795C56.7004 9.99145 56.3383 9.51911 56.1336 9.07825Z" fill="#132742" fill-opacity="0.2"/>
<path d="M74.0191 9.28293C67.6582 11.6289 62.242 12.054 60.825 12.1327C60.762 12.1327 60.699 12.1327 60.6518 12.1327C60.6045 12.1327 60.5258 12.117 60.4786 12.1012C59.1718 11.6919 58.1326 11.1723 57.2824 10.4953C55.9756 9.44038 55.8811 8.36974 56.0386 7.67696C56.2432 6.79526 56.8258 4.11864 69.3586 1.0799C76.1761 -0.573301 80.6319 -0.0222339 83.1668 0.717771C83.8911 0.938198 84.4264 1.5365 84.5524 2.29225C84.6783 3.048 84.3792 3.788 83.7494 4.21311C80.5532 6.48036 77.1681 8.11782 74.0191 9.28293ZM60.9037 10.1489C63.2969 10.0072 73.5625 9.03102 82.6472 2.5914C80.7421 2.02459 76.5698 1.34756 69.831 2.96927C61.4548 5.00035 58.2113 6.98419 57.9594 8.08633C57.9122 8.3225 58.0854 8.62165 58.5105 8.95229C59.1245 9.42464 59.9275 9.834 60.9037 10.1489Z" fill="#132742" fill-opacity="0.2"/>
<path d="M35.5863 59.5559C33.5553 60.3116 31.288 61.0674 28.5169 61.9649C18.6135 65.1768 10.2372 65.9483 5.54529 64.0904C3.37251 63.2244 0.853346 60.9257 0.17632 57.761C-0.233044 55.9031 -0.122831 53.069 2.64825 50.2035C5.10444 47.6686 9.40276 45.2911 14.8505 42.2996C20.676 39.0877 27.9344 35.1042 35.4604 29.4676C49.7724 18.7612 59.6286 10.4794 59.7231 10.4007C59.8963 10.259 60.1325 10.1645 60.3529 10.1645C60.4788 10.1645 72.4764 10.07 83.0726 1.77254C83.2773 1.59935 83.5607 1.53637 83.8126 1.56786C84.0803 1.59935 84.3164 1.7568 84.4739 1.97722C85.0092 2.73297 97.6523 20.6505 96.802 30.4438C96.4872 34.1596 90.5671 35.6238 82.3956 37.6549C75.4206 39.3868 67.5168 41.3392 61.5967 45.1022C47.3949 54.1239 43.1123 56.7848 35.5863 59.5559ZM60.715 12.1326C59.0461 13.5181 49.6779 21.2803 36.6412 31.0421C29.005 36.7575 21.6837 40.7881 15.7951 44.0315C10.4892 46.9443 6.31679 49.2431 4.06528 51.5733C2.3491 53.3525 1.67207 55.3363 2.09718 57.3516C2.63251 59.8078 4.63209 61.6342 6.26955 62.2797C8.28488 63.0827 14.4568 64.4683 27.9186 60.107C40.6876 55.9661 42.703 54.801 60.5418 43.4647C66.7295 39.5285 74.8066 37.5289 81.9232 35.7655C88.4731 34.1438 94.645 32.6166 94.8497 30.2863C95.5425 22.3352 85.9381 7.61386 83.4505 3.96107C73.4683 11.3611 62.8406 12.0696 60.715 12.1326Z" fill="#132742" fill-opacity="0.2"/>
<path d="M28.5489 38.5682C28.4544 38.5997 28.3599 38.6154 28.2497 38.5997C26.3603 38.395 24.6441 34.758 24.3135 34.0337C24.1718 33.7031 24.3135 33.3095 24.6441 33.1678C24.9748 33.026 25.3684 33.1678 25.5101 33.4984C26.1714 34.9784 27.5569 37.1984 28.4071 37.2929C28.7693 37.3401 29.0212 37.655 28.9897 38.0171C28.9425 38.2848 28.7693 38.4895 28.5489 38.5682Z" fill="#132742" fill-opacity="0.2"/>
<path d="M34.8303 35.0256C34.7358 35.0571 34.6256 35.0729 34.5154 35.0571C31.2877 34.6478 29.2881 29.9401 29.2094 29.7354C29.0677 29.4047 29.2251 29.0111 29.5558 28.8852C29.8864 28.7435 30.28 28.9009 30.406 29.2315C30.8941 30.3967 32.626 33.4984 34.6728 33.7503C35.035 33.7975 35.2869 34.1282 35.2396 34.4746C35.2239 34.7422 35.0664 34.9469 34.8303 35.0256Z" fill="#132742" fill-opacity="0.2"/>
<path d="M40.5463 31.4202C40.3888 31.4832 40.2156 31.4832 40.0582 31.4044C36.4369 29.83 34.7837 26.2087 34.6105 25.138C34.5947 24.9963 34.5317 24.5712 34.8466 24.2878C35.1143 24.0516 35.5394 24.0831 35.7756 24.3665C35.9173 24.5397 35.9645 24.7759 35.9015 24.9806C36.0118 25.6418 37.3816 28.838 40.562 30.2236C40.8926 30.3653 41.0501 30.7589 40.9084 31.0895C40.8454 31.2312 40.7194 31.3572 40.5463 31.4202Z" fill="#132742" fill-opacity="0.2"/>
<path d="M46.3558 27.4367C46.2141 27.4839 46.0724 27.4997 45.915 27.4367C41.223 25.8465 39.8847 20.7609 39.8217 20.5405C39.7273 20.1941 39.9477 19.832 40.2941 19.7375C40.6405 19.643 41.0026 19.8635 41.0971 20.2099C41.1128 20.2886 42.3409 24.8231 46.3401 26.1771C46.6865 26.2873 46.8597 26.6652 46.7494 27.0116C46.6865 27.232 46.529 27.3737 46.3558 27.4367Z" fill="#132742" fill-opacity="0.2"/>
<path d="M51.5829 23.4061C51.5357 23.4219 51.4885 23.4376 51.4412 23.4376C48.0876 23.8627 45.2535 17.1869 44.9386 16.4312C44.7969 16.1005 44.9544 15.7069 45.3008 15.581C45.6314 15.455 46.025 15.5967 46.151 15.9431C47.1901 18.4623 49.4889 22.3827 51.268 22.1465C51.6302 22.0993 51.9608 22.3512 51.9923 22.7133C52.0395 23.0125 51.8663 23.2959 51.5829 23.4061Z" fill="#132742" fill-opacity="0.2"/>
<path d="M57.472 19.0763C57.3933 19.1077 57.3146 19.1235 57.2358 19.1235C53.2052 19.092 51.2843 14.7622 50.6545 13.3452C50.5915 13.2192 50.5443 13.0775 50.4971 12.9988C50.4026 12.8886 50.3396 12.7469 50.3239 12.5894C50.3081 12.2273 50.5915 11.9281 50.9537 11.9124C51.4417 11.8966 51.5992 12.243 51.8511 12.8098C52.4494 14.1796 54.0554 17.8009 57.2358 17.8167C57.598 17.8167 57.8814 18.1158 57.8814 18.478C57.8971 18.7456 57.7239 18.9818 57.472 19.0763Z" fill="#132742" fill-opacity="0.2"/>
<path d="M63.1397 13.8332C63.0453 13.8647 62.9508 13.8804 62.8563 13.8647C59.2035 13.5025 57.0937 10.1961 56.1963 8.7791C56.0703 8.59016 55.9444 8.36974 55.8814 8.29101C55.6295 8.10207 55.5507 7.75569 55.7082 7.47228C55.8814 7.15739 56.275 7.03143 56.5899 7.18888C56.8418 7.31484 56.9678 7.53526 57.3142 8.08633C58.1801 9.44038 59.9593 12.2744 62.9823 12.5736C63.3444 12.6051 63.6121 12.9357 63.5648 13.2821C63.5333 13.534 63.3601 13.7545 63.1397 13.8332Z" fill="#132742" fill-opacity="0.2"/>
<path d="M4.47511 56.8951C4.42788 56.9109 4.39639 56.9266 4.34915 56.9266C4.28617 56.9738 4.20745 57.0053 4.12873 57.0053C3.86107 57.0368 3.62489 56.8479 3.5934 56.5802C3.53042 56.0449 3.79809 55.856 3.95553 55.8087C4.14447 55.73 4.44362 55.7457 4.72703 56.1709C4.88448 56.3913 4.8215 56.7062 4.58533 56.8479C4.55384 56.8636 4.52235 56.8794 4.47511 56.8951Z" fill="#132742" fill-opacity="0.2"/>
<path d="M8.36378 57.0211C8.31655 57.0368 8.28506 57.0526 8.23783 57.0526C8.17485 57.0998 8.09612 57.1313 8.0174 57.1313C7.74974 57.1628 7.51357 56.9739 7.48208 56.7062C7.4191 56.1709 7.68676 55.9819 7.84421 55.9347C8.03314 55.856 8.33229 55.8717 8.6157 56.2968C8.77315 56.5173 8.71017 56.8322 8.474 56.9739C8.44251 56.9896 8.41102 57.0054 8.36378 57.0211Z" fill="#132742" fill-opacity="0.2"/>
<path d="M8.31593 52.1561C8.2687 52.1719 8.23721 52.1876 8.18997 52.1876C8.12699 52.2348 8.04827 52.2663 7.96955 52.2663C7.70189 52.2978 7.46571 52.1089 7.43422 51.8412C7.37125 51.3059 7.63891 51.117 7.79635 51.0697C7.98529 50.991 8.28444 51.0067 8.56785 51.4318C8.7253 51.6523 8.66232 51.9672 8.42615 52.1089C8.39466 52.1246 8.36317 52.1404 8.31593 52.1561Z" fill="#132742" fill-opacity="0.2"/>
<path d="M91.9996 28.2396C91.9839 28.2554 91.9524 28.2554 91.9366 28.2554C91.669 28.3183 91.4171 28.1451 91.3541 27.8775C89.7796 20.5562 86.7251 15.3446 86.6936 15.2974C86.5519 15.0612 86.6306 14.7621 86.8668 14.6204C87.103 14.4787 87.4021 14.5574 87.5438 14.7936C87.5753 14.8408 90.7243 20.1783 92.3303 27.6728C92.3617 27.9247 92.22 28.1609 91.9996 28.2396Z" fill="#132742" fill-opacity="0.2"/>
<path d="M63.4857 52.5497C63.344 52.5969 63.1708 52.5812 63.0291 52.4867C62.1002 51.8412 61.3917 51.2114 61.3602 51.1799C61.1555 50.991 61.1397 50.6918 61.3287 50.4871C61.5176 50.2824 61.8168 50.2667 62.0215 50.4556C62.0215 50.4556 62.7142 51.0697 63.5959 51.6837C63.8164 51.8412 63.8793 52.1403 63.7219 52.3608C63.6589 52.4552 63.5802 52.5182 63.4857 52.5497Z" fill="#132742" fill-opacity="0.2"/>
<path d="M68.383 51.2113C68.257 51.2585 68.1153 51.2585 67.9894 51.1956C66.4464 50.4083 64.9349 49.07 64.8719 49.007C64.6672 48.8181 64.6515 48.519 64.8404 48.3143C65.0293 48.1096 65.3285 48.0938 65.5332 48.2828C65.5489 48.2985 66.9974 49.6053 68.4302 50.3139C68.6664 50.4398 68.7766 50.739 68.6506 50.9751C68.5877 51.1011 68.4932 51.1798 68.383 51.2113Z" fill="#132742" fill-opacity="0.2"/>
<path d="M72.5392 49.684C72.4133 49.7312 72.2716 49.7312 72.1456 49.6682C70.6026 48.881 69.0911 47.5427 69.0281 47.4797C68.8235 47.2908 68.8077 46.9916 68.9967 46.7869C69.1856 46.5822 69.4847 46.5665 69.6894 46.7554C69.7052 46.7712 71.1537 48.078 72.5865 48.7865C72.8226 48.9125 72.9328 49.2116 72.8069 49.4478C72.7439 49.558 72.6494 49.6367 72.5392 49.684Z" fill="#132742" fill-opacity="0.2"/>
<path d="M77.342 48.7865C77.216 48.8337 77.0743 48.8337 76.9483 48.7708C75.4054 47.9835 73.8939 46.6452 73.8309 46.5822C73.6262 46.3933 73.6104 46.0942 73.7994 45.8895C73.9883 45.6848 74.2875 45.669 74.4922 45.858C74.5079 45.8737 75.9564 47.1805 77.3892 47.8891C77.6254 48.015 77.7356 48.3142 77.6096 48.5503C77.5624 48.6606 77.4522 48.755 77.342 48.7865Z" fill="#132742" fill-opacity="0.2"/>
<path d="M81.8761 47.8576C81.7502 47.9048 81.6085 47.9048 81.4825 47.8418C79.9395 47.0546 78.428 45.7163 78.3651 45.6533C78.1604 45.4643 78.1446 45.1652 78.3336 44.9605C78.5225 44.7558 78.8217 44.7401 79.0263 44.929C79.0421 44.9448 80.4906 46.2516 81.9234 46.9601C82.1595 47.0861 82.2698 47.3852 82.1438 47.6214C82.0808 47.7316 81.9864 47.8103 81.8761 47.8576Z" fill="#132742" fill-opacity="0.2"/>
<path d="M85.8117 46.3934C85.6857 46.4407 85.544 46.4407 85.4181 46.3777C83.8751 45.5905 82.3636 44.2521 82.3006 44.1892C82.0959 44.0002 82.0802 43.7011 82.2691 43.4964C82.458 43.2917 82.7572 43.276 82.9619 43.4649C82.9776 43.4807 84.4261 44.7875 85.8589 45.496C86.0951 45.6219 86.2053 45.9211 86.0794 46.1573C86.0164 46.2675 85.9219 46.362 85.8117 46.3934Z" fill="#132742" fill-opacity="0.2"/>
<path d="M89.9054 44.8976C89.7795 44.9448 89.6378 44.9448 89.5118 44.8818C87.9688 44.0946 86.4573 42.7563 86.3944 42.6933C86.1897 42.5044 86.1739 42.2052 86.3629 42.0006C86.5518 41.7959 86.851 41.7801 87.0556 41.9691C87.0714 41.9848 88.5199 43.2916 89.9527 44.0001C90.1888 44.1261 90.2991 44.4252 90.1731 44.6614C90.1101 44.7716 90.0157 44.8504 89.9054 44.8976Z" fill="#132742" fill-opacity="0.2"/>
<path d="M94.2355 43.2916C94.1096 43.3389 93.9679 43.3389 93.8419 43.2759C92.2989 42.4887 90.7874 41.1503 90.7244 41.0874C90.5197 40.8984 90.504 40.5993 90.6929 40.3946C90.8819 40.1899 91.181 40.1742 91.3857 40.3631C91.4015 40.3789 92.85 41.6857 94.2827 42.3942C94.5189 42.5201 94.6291 42.8193 94.5032 43.0555C94.4402 43.1657 94.3457 43.2444 94.2355 43.2916Z" fill="#132742" fill-opacity="0.2"/>
<path d="M97.2739 40.8826C97.1322 40.9299 96.9905 40.9299 96.8488 40.8511C95.542 40.0639 94.4084 39.0562 94.3611 39.009C94.1565 38.8201 94.1407 38.5209 94.3297 38.3162C94.5186 38.1115 94.8178 38.0958 95.0224 38.2847C95.0382 38.3005 96.1246 39.2767 97.3527 40.0009C97.5888 40.1426 97.6676 40.4418 97.5259 40.6779C97.4629 40.7724 97.3841 40.8511 97.2739 40.8826Z" fill="#132742" fill-opacity="0.2"/>
</svg>
