<svg width="45" height="46" viewBox="0 0 45 46" fill="none" xmlns="http://www.w3.org/2000/svg">
<path d="M22.5009 10.6411C22.0845 10.6411 21.6774 10.5176 21.3312 10.2863C20.985 10.055 20.7151 9.72628 20.5558 9.34166C20.3964 8.95703 20.3547 8.53381 20.436 8.12549C20.5172 7.71718 20.7177 7.34212 21.0122 7.04774C21.3066 6.75337 21.6818 6.55289 22.0902 6.47167C22.4986 6.39046 22.9219 6.43214 23.3066 6.59146C23.6913 6.75077 24.0201 7.02056 24.2515 7.36671C24.4828 7.71287 24.6063 8.11983 24.6063 8.53614C24.6063 8.72223 24.5324 8.90069 24.4007 9.03227C24.2691 9.16386 24.0906 9.23778 23.9045 9.23778C23.7184 9.23778 23.5399 9.16386 23.4083 9.03227C23.2766 8.90069 23.2027 8.72223 23.2027 8.53614C23.2027 8.39737 23.1615 8.26172 23.0844 8.14633C23.0073 8.03095 22.8977 7.94102 22.7695 7.88791C22.6412 7.83481 22.5001 7.82091 22.364 7.84799C22.2279 7.87506 22.1028 7.94188 22.0047 8.04001C21.9065 8.13813 21.8397 8.26315 21.8126 8.39926C21.7855 8.53536 21.7994 8.67644 21.8525 8.80465C21.9056 8.93285 21.9956 9.04243 22.111 9.11953C22.2264 9.19663 22.3621 9.23778 22.5009 9.23778C22.687 9.23778 22.8655 9.3117 22.9972 9.44328C23.1288 9.57486 23.2027 9.75333 23.2027 9.93941C23.2027 10.1255 23.1288 10.304 22.9972 10.4355C22.8655 10.5671 22.687 10.6411 22.5009 10.6411Z" fill="white"/>
<path d="M22.5009 13.4476C21.9427 13.447 21.4075 13.225 21.0128 12.8304C20.6181 12.4358 20.3961 11.9008 20.3955 11.3427C20.3955 11.1566 20.4694 10.9781 20.6011 10.8466C20.7327 10.715 20.9112 10.6411 21.0973 10.6411C21.2834 10.6411 21.4619 10.715 21.5936 10.8466C21.7252 10.9781 21.7991 11.1566 21.7991 11.3427C21.7991 11.4815 21.8403 11.6171 21.9174 11.7325C21.9945 11.8479 22.1041 11.9378 22.2323 11.9909C22.3606 12.044 22.5017 12.0579 22.6378 12.0308C22.774 12.0038 22.899 11.9369 22.9971 11.8388C23.0953 11.7407 23.1621 11.6157 23.1892 11.4796C23.2163 11.3435 23.2024 11.2024 23.1493 11.0742C23.0962 10.946 23.0062 10.8364 22.8908 10.7593C22.7754 10.6822 22.6397 10.6411 22.5009 10.6411C22.3148 10.6411 22.1363 10.5671 22.0047 10.4355C21.873 10.304 21.7991 10.1255 21.7991 9.93941C21.7991 9.75333 21.873 9.57487 22.0047 9.44328C22.1363 9.3117 22.3148 9.23778 22.5009 9.23778C23.0593 9.23778 23.5948 9.45954 23.9896 9.85429C24.3845 10.249 24.6063 10.7844 24.6063 11.3427C24.6063 11.9009 24.3845 12.4363 23.9896 12.8311C23.5948 13.2258 23.0593 13.4476 22.5009 13.4476Z" fill="white"/>
<path d="M22.5006 7.83451C22.3145 7.83451 22.136 7.76059 22.0044 7.62901C21.8728 7.49742 21.7988 7.31896 21.7988 7.13287V6.43124C21.7988 6.24515 21.8728 6.06669 22.0044 5.9351C22.136 5.80352 22.3145 5.7296 22.5006 5.7296C22.6868 5.7296 22.8653 5.80352 22.9969 5.9351C23.1285 6.06669 23.2024 6.24515 23.2024 6.43124V7.13287C23.2024 7.31896 23.1285 7.49742 22.9969 7.62901C22.8653 7.76059 22.6868 7.83451 22.5006 7.83451Z" fill="white"/>
<path d="M22.5006 14.1492C22.3145 14.1492 22.136 14.0753 22.0044 13.9437C21.8728 13.8122 21.7988 13.6337 21.7988 13.4476V12.746C21.7988 12.5599 21.8728 12.3814 22.0044 12.2498C22.136 12.1182 22.3145 12.0443 22.5006 12.0443C22.6868 12.0443 22.8653 12.1182 22.9969 12.2498C23.1285 12.3814 23.2024 12.5599 23.2024 12.746V13.4476C23.2024 13.6337 23.1285 13.8122 22.9969 13.9437C22.8653 14.0753 22.6868 14.1492 22.5006 14.1492Z" fill="white"/>
<path d="M22.5004 16.9558C21.1124 16.9558 19.7555 16.5443 18.6014 15.7733C17.4473 15.0023 16.5478 13.9065 16.0166 12.6245C15.4855 11.3424 15.3465 9.93164 15.6173 8.5706C15.8881 7.20955 16.5565 5.95936 17.5379 4.9781C18.5194 3.99684 19.7699 3.3286 21.1313 3.05787C22.4926 2.78714 23.9037 2.92609 25.1861 3.45714C26.4684 3.98819 27.5645 4.8875 28.3357 6.04134C29.1068 7.19517 29.5184 8.55172 29.5184 9.93942C29.5163 11.7996 28.7762 13.583 27.4605 14.8984C26.1449 16.2138 24.361 16.9537 22.5004 16.9558ZM22.5004 4.32633C21.39 4.32633 20.3045 4.65553 19.3812 5.2723C18.4579 5.88908 17.7383 6.76572 17.3134 7.79138C16.8885 8.81704 16.7773 9.94565 16.9939 11.0345C17.2105 12.1233 17.7453 13.1235 18.5304 13.9085C19.3156 14.6935 20.316 15.2281 21.4051 15.4447C22.4942 15.6612 23.623 15.5501 24.6489 15.1252C25.6748 14.7004 26.5517 13.981 27.1686 13.0579C27.7855 12.1348 28.1148 11.0496 28.1148 9.93942C28.1131 8.45126 27.521 7.02454 26.4685 5.97225C25.416 4.91996 23.9889 4.32804 22.5004 4.32633Z" fill="white"/>
<path d="M31.6243 16.9558H13.3776C13.1915 16.9558 13.0129 16.8819 12.8813 16.7503C12.7497 16.6187 12.6758 16.4402 12.6758 16.2541C12.6758 16.0681 12.7497 15.8896 12.8813 15.758C13.0129 15.6264 13.1915 15.5525 13.3776 15.5525H31.6243C31.8105 15.5525 31.989 15.6264 32.1206 15.758C32.2522 15.8896 32.3261 16.0681 32.3261 16.2541C32.3261 16.4402 32.2522 16.6187 32.1206 16.7503C31.989 16.8819 31.8105 16.9558 31.6243 16.9558Z" fill="white"/>
<path d="M4.95508 21.1656C4.83551 21.1655 4.71794 21.1348 4.61353 21.0766C4.50913 21.0183 4.42136 20.9343 4.35854 20.8325C4.29572 20.7308 4.25995 20.6147 4.25461 20.4953C4.24927 20.3759 4.27454 20.257 4.32803 20.1501L8.53882 11.7305C8.59712 11.6139 8.68673 11.5159 8.7976 11.4474C8.90848 11.3789 9.03624 11.3427 9.16658 11.3427H16.5495C16.7356 11.3427 16.9141 11.4166 17.0457 11.5482C17.1774 11.6798 17.2513 11.8582 17.2513 12.0443C17.2513 12.2304 17.1774 12.4089 17.0457 12.5405C16.9141 12.672 16.7356 12.746 16.5495 12.746H9.60043L5.58354 20.7778C5.52519 20.8945 5.43548 20.9925 5.32446 21.061C5.21345 21.1295 5.08554 21.1657 4.95508 21.1656Z" fill="white"/>
<path d="M40.0468 21.1656C39.9164 21.1658 39.7884 21.1296 39.6774 21.0611C39.5664 20.9926 39.4767 20.8945 39.4184 20.7778L35.4015 12.746H28.4528C28.2666 12.746 28.0881 12.672 27.9565 12.5405C27.8249 12.4089 27.751 12.2304 27.751 12.0443C27.751 11.8582 27.8249 11.6798 27.9565 11.5482C28.0881 11.4166 28.2666 11.3427 28.4528 11.3427H35.8353C35.9657 11.3427 36.0934 11.3789 36.2043 11.4474C36.3152 11.5159 36.4048 11.6139 36.4631 11.7305L40.6739 20.1501C40.7274 20.257 40.7527 20.3759 40.7473 20.4953C40.742 20.6147 40.7062 20.7308 40.6434 20.8325C40.5806 20.9343 40.4928 21.0183 40.3884 21.0766C40.284 21.1348 40.1664 21.1655 40.0468 21.1656Z" fill="white"/>
<path d="M40.0456 42.2147H4.9557C4.76958 42.2147 4.59107 42.1408 4.45946 42.0092C4.32785 41.8776 4.25391 41.6992 4.25391 41.5131V20.464C4.25391 20.2779 4.32785 20.0994 4.45946 19.9678C4.59107 19.8363 4.76958 19.7623 4.9557 19.7623C5.14183 19.7623 5.32034 19.8363 5.45195 19.9678C5.58356 20.0994 5.6575 20.2779 5.6575 20.464V40.8114H39.3438V20.464C39.3438 20.2779 39.4178 20.0994 39.5494 19.9678C39.681 19.8363 39.8595 19.7623 40.0456 19.7623C40.2318 19.7623 40.4103 19.8363 40.5419 19.9678C40.6735 20.0994 40.7474 20.2779 40.7474 20.464V41.5131C40.7474 41.6992 40.6735 41.8776 40.5419 42.0092C40.4103 42.1408 40.2318 42.2147 40.0456 42.2147Z" fill="white"/>
<path d="M40.0456 21.1656H4.9557C4.76958 21.1656 4.59107 21.0917 4.45946 20.9601C4.32785 20.8285 4.25391 20.6501 4.25391 20.464C4.25391 20.2779 4.32785 20.0994 4.45946 19.9678C4.59107 19.8363 4.76958 19.7623 4.9557 19.7623H40.0456C40.2318 19.7623 40.4103 19.8363 40.5419 19.9678C40.6735 20.0994 40.7474 20.2779 40.7474 20.464C40.7474 20.6501 40.6735 20.8285 40.5419 20.9601C40.4103 21.0917 40.2318 21.1656 40.0456 21.1656Z" fill="white"/>
<path d="M22.501 37.6611C22.4088 37.6612 22.3175 37.6431 22.2323 37.6078C22.1472 37.5725 22.0699 37.5208 22.0048 37.4555L16.0497 31.5018C15.2686 30.7106 14.8323 29.6425 14.836 28.5308C14.8396 27.419 15.283 26.3539 16.0694 25.5678C16.8557 24.7817 17.9211 24.3385 19.0331 24.3349C20.1451 24.3313 21.2134 24.7676 22.0048 25.5486L22.501 26.0446L22.9971 25.5486C23.7874 24.7603 24.8582 24.3175 25.9746 24.3175C27.091 24.3175 28.1619 24.7603 28.9522 25.5486C29.7405 26.3387 30.1832 27.4092 30.1832 28.5252C30.1832 29.6412 29.7405 30.7117 28.9522 31.5018L22.9971 37.4557C22.932 37.5209 22.8547 37.5727 22.7695 37.6079C22.6844 37.6431 22.5931 37.6612 22.501 37.6611ZM19.0276 25.7204C18.4724 25.7199 17.9294 25.8841 17.4676 26.1923C17.0057 26.5004 16.6457 26.9386 16.4331 27.4515C16.2205 27.9643 16.1649 28.5287 16.2733 29.0731C16.3817 29.6176 16.6493 30.1176 17.0422 30.5099L22.501 35.9675L27.9598 30.5099C28.4851 29.983 28.7801 29.2694 28.7801 28.5254C28.7801 27.7814 28.4851 27.0678 27.9598 26.5409C27.4327 26.0157 26.7188 25.7208 25.9746 25.7208C25.2305 25.7208 24.5166 26.0157 23.9895 26.5409L22.9971 27.5331C22.8655 27.6646 22.687 27.7385 22.501 27.7385C22.3149 27.7385 22.1364 27.6646 22.0048 27.5331L21.0124 26.5409C20.7518 26.2803 20.4424 26.0737 20.1018 25.9329C19.7612 25.7921 19.3962 25.7199 19.0276 25.7204Z" fill="white"/>
</svg>
