<svg width="46" height="45" viewBox="0 0 46 45" fill="none" xmlns="http://www.w3.org/2000/svg">
<path d="M45.7612 37.0329L39.8393 31.1123C39.5768 30.85 39.1513 30.85 38.8888 31.1123C38.6263 31.3747 38.6263 31.8002 38.8888 32.0626L39.5182 32.6918L34.2617 37.9471L32.1186 35.8044C31.3266 35.0125 30.2315 34.6031 29.1141 34.6818L26.7242 34.8496C25.9947 34.9006 25.281 34.6338 24.7644 34.1173L18.0141 27.3686C17.6433 26.9978 17.6433 26.3947 18.0141 26.024C18.3848 25.6533 18.9881 25.6533 19.359 26.024L22.5264 29.1907C22.5428 29.2071 22.5599 29.2225 22.5774 29.2369C22.7006 29.3373 22.8512 29.3876 23.0017 29.3876C23.1521 29.3876 23.3026 29.3373 23.4259 29.2369C23.4434 29.2225 23.4605 29.2071 23.4769 29.1907C23.7394 28.9283 23.7394 28.5029 23.4769 28.2405L16.6096 21.3747C16.4003 21.1655 16.2851 20.8874 16.2851 20.5915C16.2851 20.2957 16.4003 20.0176 16.6096 19.8083C16.8188 19.5992 17.097 19.4839 17.3928 19.4839C17.653 19.4839 17.8994 19.5731 18.0974 19.7368L25.0398 26.6778C25.171 26.8089 25.343 26.8745 25.515 26.8745C25.687 26.8745 25.859 26.8089 25.9902 26.6778C25.9909 26.6771 25.9914 26.6764 25.9919 26.6758C25.9926 26.6752 25.9933 26.6746 25.9939 26.6741C26.2565 26.4117 26.2565 25.9862 25.9939 25.7238L16.1837 15.9232C15.7518 15.4914 15.7518 14.7888 16.1837 14.3569C16.3929 14.1477 16.6711 14.0325 16.9671 14.0325C17.263 14.0325 17.5412 14.1478 17.7504 14.3569L27.5415 24.1768C27.6727 24.308 27.8447 24.3736 28.0167 24.3736C28.1887 24.3736 28.3607 24.308 28.492 24.1768C28.4946 24.1742 28.4968 24.1712 28.4994 24.1686C28.5021 24.166 28.505 24.1639 28.5076 24.1613C28.7701 23.8989 28.7701 23.4734 28.5076 23.2111L19.653 14.3585C19.5334 14.1788 19.4691 13.9678 19.4691 13.747C19.4691 13.4512 19.5843 13.1731 19.7936 12.9638C20.0028 12.7547 20.2811 12.6394 20.5769 12.6394C20.8729 12.6394 21.151 12.7546 21.3603 12.9638L28.9997 20.6015C29.0084 20.6102 29.0177 20.6177 29.0266 20.6259L29.8683 21.7254C30.094 22.02 30.5158 22.076 30.8106 21.8506C31.1053 21.625 31.1614 21.2033 30.9358 20.9086L30.039 19.7372C29.858 19.4331 29.8087 19.0785 29.9003 18.7355C29.9943 18.3831 30.2232 18.0942 30.5448 17.922C31.1531 17.5965 31.9119 17.8022 32.2723 18.3901C32.2863 18.4129 36.1827 23.3412 36.1827 23.3412C36.6411 23.9206 36.8219 24.6687 36.6788 25.3935L36.3429 27.0947C36.1806 27.9165 36.2933 28.7837 36.6604 29.5368C36.7768 29.7757 37.016 29.9146 37.265 29.9146C37.3638 29.9146 37.4642 29.8927 37.5589 29.8466C37.8926 29.684 38.0313 29.2819 37.8687 28.9482C37.6293 28.4569 37.5557 27.8911 37.6616 27.3551L37.9975 25.6539C38.2169 24.5428 37.9398 23.396 37.2371 22.5077L37.052 22.2736C37.6069 21.538 37.8836 20.6231 37.8182 19.6918L37.6515 17.3192C37.6008 16.5971 37.8654 15.8893 38.3774 15.3773L45.7607 7.99569C46.0232 7.73331 46.0232 7.30784 45.7607 7.04545L39.5976 0.883249C39.3352 0.620867 38.9096 0.620867 38.6472 0.883249L31.2907 8.238C30.7002 8.82836 29.8586 9.08411 29.0393 8.92254L27.3496 8.58901C26.2446 8.37081 25.1042 8.64645 24.2209 9.34488C24.2117 9.35223 24.2025 9.35976 24.1938 9.36755L23.0121 10.4075L21.8305 9.36755C21.8216 9.35976 21.8126 9.35223 21.8034 9.34488C20.92 8.64645 19.7797 8.37098 18.6746 8.58901L16.9849 8.92254C16.1656 9.0842 15.324 8.82827 14.7335 8.238L7.37721 0.883249C7.11476 0.620867 6.68919 0.620867 6.42675 0.883249L0.263305 7.04519C0.000773326 7.30757 0.000773326 7.73304 0.263305 7.99542L7.64664 15.3771C8.15871 15.889 8.4233 16.5968 8.37257 17.3189L8.20594 19.6915C8.13253 20.7369 8.489 21.7625 9.18777 22.5359C8.489 23.3094 8.13253 24.335 8.20594 25.3804L8.37257 27.753C8.4233 28.4751 8.15871 29.1829 7.64664 29.6949L0.263305 37.0765C0.000773326 37.3389 0.000773326 37.7644 0.263305 38.0267L6.42666 44.1887C6.55788 44.3199 6.72988 44.3855 6.90189 44.3855C7.07389 44.3855 7.2459 44.3199 7.37712 44.1887L14.7336 36.8339C15.3241 36.2436 16.1658 35.9875 16.9849 36.1494L18.6747 36.4829C19.7796 36.7012 20.92 36.4255 21.8034 35.7271C21.8174 35.7159 21.8311 35.7043 21.8441 35.692L23.1883 34.4423L23.8137 35.0676C24.6057 35.8595 25.701 36.2692 26.8182 36.1902L29.2081 36.0224C29.9369 35.9712 30.6513 36.2381 31.1679 36.7546L33.7863 39.3724L33.7864 39.3725L38.6037 44.1887C38.7349 44.3199 38.9069 44.3855 39.0789 44.3855C39.2509 44.3855 39.4229 44.3199 39.5541 44.1887L45.7612 37.9831C46.0236 37.7207 46.0236 37.2952 45.7612 37.0329ZM39.1224 2.30869L44.3352 7.5203L40.5024 11.3523L35.2896 6.14065L39.1224 2.30869ZM25.0678 10.3887C25.6404 9.94205 26.3764 9.76659 27.0892 9.90737L28.779 10.2409C30.0387 10.4898 31.3332 10.096 32.2413 9.18815L34.3391 7.0908L39.5519 12.3024L37.4271 14.4267C36.6397 15.214 36.2327 16.3025 36.3108 17.413L36.4774 19.7856C36.5114 20.2696 36.4029 20.7467 36.1739 21.163L33.3958 17.6512C32.655 16.4851 31.1329 16.0826 29.9106 16.737C29.2874 17.0705 28.8211 17.6459 28.6212 18.3223L22.7373 12.4398L25.0678 10.3887ZM1.68908 7.5203L6.90189 2.30869L10.7347 6.14065L5.52192 11.3523L1.68908 7.5203ZM6.90189 42.7633L1.68908 37.5517L5.52192 33.7198L10.7347 38.9314L6.90189 42.7633ZM20.9496 34.6886C20.378 35.1312 19.6455 35.3048 18.9351 35.1645L17.2453 34.8309C15.9856 34.5824 14.6911 34.9758 13.783 35.8837L11.6852 37.981L6.47237 32.7694L8.59719 30.6451C9.3846 29.8579 9.79153 28.7694 9.71346 27.6588L9.54683 25.2863C9.4961 24.5641 9.7607 23.8563 10.2728 23.3444L12.5025 21.1151C12.7651 20.8528 12.7651 20.4273 12.5025 20.1649C12.2401 19.9025 11.8145 19.9025 11.5521 20.1649L10.1371 21.5795C9.71498 21.0836 9.50085 20.4409 9.54683 19.7858L9.71346 17.4133C9.79153 16.3027 9.3846 15.2142 8.59719 14.427L6.47237 12.3027L11.6852 7.09107L13.783 9.18842C14.691 10.0963 15.985 10.4898 17.2453 10.2412L18.935 9.90764C19.648 9.76686 20.3837 9.94232 20.9563 10.3889L21.9949 11.303L21.6965 11.5656C21.3542 11.3896 20.9728 11.2958 20.5769 11.2958C19.922 11.2958 19.3062 11.5508 18.8431 12.0138C18.5526 12.3042 18.344 12.6548 18.2288 13.0373C17.8517 12.8101 17.4187 12.6888 16.967 12.6888C16.3121 12.6888 15.6963 12.9438 15.2332 13.4069C14.3429 14.297 14.2821 15.7065 15.0498 16.6681L13.7663 17.9513C13.5037 18.2137 13.5037 18.6392 13.7663 18.9016C14.0287 19.1639 14.4543 19.1639 14.7167 18.9016L15.989 17.6295L16.6234 18.2637C16.2638 18.3821 15.9343 18.5831 15.6588 18.8585C15.1957 19.3215 14.9406 19.9371 14.9406 20.5919C14.9406 21.2467 15.1957 21.8623 15.6588 22.3253L17.8822 24.5482C17.5834 24.6594 17.3031 24.8344 17.0633 25.0741C16.1684 25.9688 16.1684 27.4246 17.0633 28.3193L22.2369 33.4917L20.9496 34.6886ZM39.0788 42.7633L35.2121 38.8974L40.4687 33.6421L44.3354 37.5079L39.0788 42.7633Z" fill="white"/>
</svg>
