<svg width="47" height="47" viewBox="0 0 47 47" fill="none" xmlns="http://www.w3.org/2000/svg">
<g clip-path="url(#clip0_389_1995)">
<path d="M19.8387 46.2653H6.65712C6.46289 46.2653 6.27663 46.1882 6.13929 46.0509C6.00196 45.9136 5.9248 45.7273 5.9248 45.5332V39.676C5.9248 39.4818 6.00196 39.2956 6.13929 39.1583C6.27663 39.021 6.46289 38.9439 6.65712 38.9439H19.8387C20.0329 38.9439 20.2192 39.021 20.3565 39.1583C20.4939 39.2956 20.571 39.4818 20.571 39.676V45.5332C20.571 45.7273 20.4939 45.9136 20.3565 46.0509C20.2192 46.1882 20.0329 46.2653 19.8387 46.2653ZM7.38943 44.801H19.1064V40.4082H7.38943V44.801Z" fill="white"/>
<path d="M18.374 40.4082C18.1798 40.4082 17.9936 40.331 17.8562 40.1937C17.7189 40.0564 17.6417 39.8702 17.6417 39.676V33.138C17.6419 32.8002 17.5252 32.4727 17.3115 32.2111L12.4482 26.2668C12.2258 26.0382 11.9424 25.8782 11.6318 25.8057C11.3211 25.7333 10.9962 25.7514 10.6956 25.858C10.3949 25.9646 10.1312 26.1552 9.93561 26.4071C9.74003 26.659 9.62084 26.9618 9.59217 27.2794C9.57079 27.4676 9.58808 27.6582 9.64299 27.8395C9.69789 28.0208 9.78925 28.1889 9.91146 28.3337L12.3369 31.1429C12.3997 31.2157 12.4476 31.3001 12.4778 31.3914C12.508 31.4827 12.5199 31.5791 12.5129 31.6749C12.5059 31.7708 12.48 31.8644 12.4368 31.9503C12.3936 32.0362 12.3339 32.1128 12.2611 32.1756C12.1883 32.2384 12.1038 32.2863 12.0125 32.3165C11.9212 32.3467 11.8248 32.3586 11.7289 32.3516C11.633 32.3445 11.5394 32.3187 11.4535 32.2755C11.3676 32.2323 11.291 32.1726 11.2282 32.0998L8.8042 29.2928C8.55161 28.9991 8.36184 28.6568 8.2466 28.287C8.13136 27.9171 8.09309 27.5277 8.13414 27.1425C8.1897 26.5364 8.42085 25.9596 8.79929 25.4829C9.17774 25.0061 9.68703 24.65 10.2648 24.4583C10.8426 24.2665 11.4638 24.2473 12.0523 24.4032C12.6408 24.559 13.171 24.883 13.5781 25.3356L18.4473 31.2842C18.8736 31.808 19.1063 32.4627 19.1064 33.138V39.676C19.1064 39.8702 19.0292 40.0564 18.8919 40.1937C18.7545 40.331 18.5683 40.4082 18.374 40.4082Z" fill="white"/>
<path d="M8.12194 40.4082C7.92772 40.4082 7.74145 40.331 7.60412 40.1937C7.46678 40.0564 7.38963 39.8702 7.38963 39.676V38.4731L1.46157 31.2293C1.03479 30.7052 0.800846 30.0506 0.798828 29.3748V15.5153C0.798828 14.7386 1.10744 13.9937 1.65678 13.4445C2.20612 12.8953 2.95119 12.5867 3.72807 12.5867C4.50496 12.5867 5.25002 12.8953 5.79936 13.4445C6.3487 13.9937 6.65732 14.7386 6.65732 15.5153V22.068C6.65716 22.3983 6.77009 22.7186 6.97734 22.9758L9.58657 26.086C9.65033 26.1594 9.69882 26.2448 9.72921 26.3372C9.75961 26.4295 9.77129 26.527 9.76359 26.624C9.75588 26.7209 9.72894 26.8153 9.68433 26.9017C9.63973 26.9881 9.57836 27.0648 9.50379 27.1272C9.42923 27.1897 9.34298 27.2366 9.25006 27.2654C9.15715 27.2941 9.05944 27.3041 8.96264 27.2947C8.86584 27.2852 8.77188 27.2566 8.68626 27.2105C8.60063 27.1644 8.52505 27.1017 8.46393 27.0261L5.84958 23.9071C5.42597 23.3876 5.19403 22.7382 5.1927 22.068V15.5153C5.1927 15.1269 5.03839 14.7545 4.76372 14.4799C4.48905 14.2053 4.11652 14.051 3.72807 14.051C3.33963 14.051 2.9671 14.2053 2.69243 14.4799C2.41776 14.7545 2.26345 15.1269 2.26345 15.5153V29.3748C2.26472 29.7137 2.38234 30.042 2.59665 30.3046L8.68875 37.749C8.79559 37.8796 8.85405 38.043 8.85425 38.2117V39.676C8.85425 39.8702 8.7771 40.0564 8.63976 40.1937C8.50243 40.331 8.31616 40.4082 8.12194 40.4082Z" fill="white"/>
<path d="M40.3436 46.2653H27.162C26.9678 46.2653 26.7815 46.1882 26.6442 46.0509C26.5068 45.9136 26.4297 45.7273 26.4297 45.5332V39.676C26.4297 39.4818 26.5068 39.2956 26.6442 39.1583C26.7815 39.021 26.9678 38.9439 27.162 38.9439H40.3436C40.5378 38.9439 40.7241 39.021 40.8614 39.1583C40.9988 39.2956 41.0759 39.4818 41.0759 39.676V45.5332C41.0759 45.7273 40.9988 45.9136 40.8614 46.0509C40.7241 46.1882 40.5378 46.2653 40.3436 46.2653ZM27.8943 44.801H39.6113V40.4082H27.8943V44.801Z" fill="white"/>
<path d="M28.6268 40.4082C28.4326 40.4082 28.2464 40.331 28.109 40.1937C27.9717 40.0564 27.8945 39.8702 27.8945 39.676V33.138C27.8943 32.4626 28.127 31.8079 28.5536 31.2842L33.4154 25.3399C33.8221 24.8866 34.3522 24.5617 34.9408 24.4051C35.5294 24.2485 36.1509 24.267 36.7291 24.4584C37.3074 24.6497 37.8172 25.0056 38.1961 25.4824C38.575 25.9591 38.8066 26.5361 38.8624 27.1425C38.9033 27.5281 38.8649 27.918 38.7494 28.2882C38.6339 28.6584 38.4438 29.001 38.1908 29.295L35.7683 32.1005C35.7055 32.1733 35.6289 32.233 35.543 32.2762C35.4571 32.3194 35.3635 32.3453 35.2676 32.3523C35.1717 32.3593 35.0753 32.3474 34.984 32.3172C34.8927 32.287 34.8082 32.2391 34.7354 32.1763C34.6626 32.1135 34.6029 32.0369 34.5597 31.951C34.5165 31.8651 34.4906 31.7716 34.4836 31.6757C34.4766 31.5798 34.4885 31.4834 34.5187 31.3921C34.5489 31.3009 34.5968 31.2164 34.6596 31.1436L37.0836 28.3366C37.2063 28.1917 37.2981 28.0232 37.3533 27.8415C37.4084 27.6598 37.4258 27.4688 37.4043 27.2801C37.3749 26.9628 37.2552 26.6607 37.0593 26.4093C36.8634 26.158 36.5996 25.968 36.2991 25.862C35.9986 25.7559 35.674 25.7381 35.3637 25.8108C35.0534 25.8834 34.7704 26.0435 34.5483 26.2719L29.6902 32.2082C29.4755 32.4705 29.3585 32.7991 29.3592 33.138V39.676C29.3592 39.8702 29.282 40.0564 29.1447 40.1937C29.0073 40.331 28.8211 40.4082 28.6268 40.4082Z" fill="white"/>
<path d="M38.8794 40.4082C38.6852 40.4082 38.4989 40.331 38.3616 40.1937C38.2242 40.0564 38.1471 39.8702 38.1471 39.676V38.2117C38.1471 38.0428 38.2056 37.879 38.3126 37.7483L44.4054 30.3024C44.6192 30.0404 44.7366 29.7129 44.7379 29.3748V15.5153C44.7379 15.1269 44.5836 14.7545 44.3089 14.4799C44.0342 14.2053 43.6617 14.051 43.2733 14.051C42.8848 14.051 42.5123 14.2053 42.2376 14.4799C41.9629 14.7545 41.8086 15.1269 41.8086 15.5153V22.068C41.8087 22.7342 41.5802 23.3803 41.1613 23.8983L38.5396 27.0261C38.4779 27.0999 38.4022 27.1609 38.3169 27.2055C38.2316 27.2501 38.1383 27.2774 38.0424 27.286C37.9465 27.2945 37.8499 27.2841 37.758 27.2554C37.6662 27.2266 37.5809 27.18 37.507 27.1183C37.4332 27.0566 37.3722 26.9809 37.3276 26.8956C37.283 26.8103 37.2556 26.7171 37.2471 26.6212C37.2385 26.5254 37.2489 26.4288 37.2777 26.3369C37.3064 26.2451 37.353 26.1598 37.4148 26.086L40.0291 22.9671C40.2332 22.7118 40.3443 22.3947 40.344 22.068V15.5153C40.344 14.7386 40.6526 13.9937 41.202 13.4445C41.7513 12.8953 42.4964 12.5867 43.2733 12.5867C44.0501 12.5867 44.7952 12.8953 45.3445 13.4445C45.8939 13.9937 46.2025 14.7386 46.2025 15.5153V29.3748C46.2015 30.0497 45.9688 30.7038 45.5434 31.2278L39.6117 38.476V39.676C39.6117 39.8702 39.5345 40.0564 39.3972 40.1937C39.2599 40.331 39.0736 40.4082 38.8794 40.4082Z" fill="white"/>
<path d="M23.5009 27.2296C20.8939 27.2296 18.3453 26.4567 16.1776 25.0086C14.0099 23.5605 12.3204 21.5023 11.3227 19.0942C10.325 16.6862 10.064 14.0364 10.5726 11.48C11.0812 8.92362 12.3367 6.57543 14.1801 4.73237C16.0236 2.88932 18.3724 1.63418 20.9293 1.12568C23.4863 0.617182 26.1367 0.878162 28.5453 1.87562C30.954 2.87307 33.0126 4.5622 34.4611 6.72941C35.9095 8.89661 36.6826 11.4446 36.6826 14.051C36.6785 17.545 35.2884 20.8946 32.8173 23.3652C30.3461 25.8358 26.9957 27.2255 23.5009 27.2296ZM23.5009 2.33674C21.1835 2.33674 18.9182 3.02377 16.9913 4.31096C15.0645 5.59814 13.5627 7.42766 12.6759 9.56817C11.789 11.7087 11.557 14.064 12.0091 16.3364C12.4612 18.6087 13.5771 20.696 15.2158 22.3343C16.8544 23.9726 18.9422 25.0882 21.2151 25.5402C23.4879 25.9922 25.8438 25.7602 27.9848 24.8736C30.1258 23.987 31.9558 22.4855 33.2433 20.5591C34.5307 18.6327 35.2179 16.3679 35.2179 14.051C35.2144 10.9453 33.9789 7.96773 31.7823 5.77163C29.5856 3.57553 26.6074 2.34023 23.5009 2.33674Z" fill="white"/>
<path d="M35.9279 15.486C35.8292 15.486 35.7316 15.4661 35.6409 15.4275C35.5502 15.3889 35.4682 15.3323 35.3999 15.2612L34.4479 14.2729C34.3789 14.2034 34.2969 14.1482 34.2065 14.1105C34.1162 14.0728 34.0192 14.0534 33.9213 14.0532H32.486C32.0938 14.0525 31.7057 13.9731 31.3447 13.8198C30.9837 13.6665 30.6571 13.4424 30.3843 13.1607L28.7241 11.457C28.4602 11.2382 28.1274 11.1197 27.7846 11.1224H24.9652C24.5767 11.1224 24.2042 10.9682 23.9295 10.6936C23.6548 10.419 23.5005 10.0465 23.5005 9.65816H22.0359C21.6475 9.65816 21.2749 9.50389 21.0003 9.22928C20.7256 8.95467 20.5713 8.58223 20.5713 8.19387V7.7912C20.5728 7.48505 20.6684 7.18677 20.8452 6.93678L22.1714 5.13205C22.3048 4.94523 22.4813 4.79327 22.6859 4.68903C22.8905 4.58479 23.1171 4.53132 23.3467 4.53316H24.3647C24.5472 4.53031 24.7224 4.46107 24.8575 4.33841C24.8986 4.30216 24.9436 4.27049 24.9915 4.24396L28.2723 2.42825C28.3808 2.36824 28.5027 2.33675 28.6267 2.33673H29.359C29.5532 2.33673 29.7395 2.41387 29.8768 2.55117C30.0142 2.68847 30.0913 2.8747 30.0913 3.06887C30.0913 3.26305 30.0142 3.44927 29.8768 3.58658C29.7395 3.72388 29.5532 3.80102 29.359 3.80102H28.8156L25.7656 5.48934C25.3721 5.81671 24.8766 5.99643 24.3647 5.99745H23.3467L22.0359 7.79266V8.19387H23.5005C23.889 8.19387 24.2615 8.34815 24.5362 8.62275C24.8109 8.89736 24.9652 9.26981 24.9652 9.65816H27.7846C28.5041 9.65734 29.1988 9.92134 29.7362 10.3998L31.4359 12.1416C31.5722 12.2822 31.7354 12.3941 31.9158 12.4706C32.0962 12.547 32.2901 12.5865 32.486 12.5867H33.9213C34.2155 12.5878 34.5066 12.6474 34.7775 12.7621C35.0484 12.8767 35.2938 13.0441 35.4995 13.2544L36.4515 14.2465C36.551 14.35 36.6179 14.4805 36.6438 14.6217C36.6697 14.7629 36.6535 14.9086 36.5973 15.0407C36.541 15.1728 36.4471 15.2855 36.3273 15.3646C36.2075 15.4438 36.0671 15.486 35.9235 15.486H35.9279Z" fill="white"/>
<path d="M28.7528 22.1046H27.8945C27.3119 22.1046 26.7531 21.8732 26.3411 21.4613C25.929 21.0494 25.6976 20.4907 25.6976 19.9082V19.4791L25.3944 19.176H24.9653C24.5768 19.176 24.2043 19.0217 23.9296 18.7471C23.655 18.4725 23.5007 18.1001 23.5007 17.7117V16.9796H22.7683C22.3799 16.9796 22.0074 16.8253 21.7327 16.5507C21.458 16.2761 21.3037 15.9037 21.3037 15.5153V15.0863C21.3032 14.8939 21.3409 14.7034 21.4145 14.5257C21.4882 14.3479 21.5964 14.1866 21.7329 14.051L22.036 13.7479C22.3112 13.4741 22.6833 13.3199 23.0715 13.3189H25.9861C26.4684 13.3185 26.9433 13.4374 27.3685 13.6649C27.7937 13.8924 28.156 14.2214 28.4232 14.6228L29.0186 15.5153H29.3591C29.9418 15.5153 30.5006 15.7467 30.9126 16.1586C31.3246 16.5705 31.5561 17.1292 31.5561 17.7117V19.3012C31.5568 19.5899 31.5003 19.8758 31.3898 20.1425C31.2794 20.4091 31.1171 20.6513 30.9124 20.8548L30.306 21.461C30.1025 21.6657 29.8605 21.8279 29.5939 21.9384C29.3273 22.0488 29.0414 22.1053 28.7528 22.1046ZM23.0715 14.7832L22.7683 15.0863V15.5153H23.5007C23.8891 15.5153 24.2616 15.6696 24.5363 15.9442C24.811 16.2188 24.9653 16.5912 24.9653 16.9796V17.7117H25.3944C25.7826 17.7128 26.1547 17.867 26.4299 18.1408L26.7331 18.4439C26.8695 18.5795 26.9777 18.7408 27.0514 18.9185C27.1251 19.0962 27.1627 19.2868 27.1622 19.4791V19.9082C27.1622 20.1023 27.2394 20.2886 27.3767 20.4259C27.514 20.5632 27.7003 20.6403 27.8945 20.6403H28.7528C28.9468 20.6395 29.1328 20.5625 29.2705 20.4258L29.8769 19.8196C29.945 19.7515 29.999 19.6707 30.0358 19.5818C30.0726 19.4928 30.0915 19.3975 30.0915 19.3012V17.7117C30.0915 17.5176 30.0143 17.3313 29.877 17.194C29.7396 17.0567 29.5534 16.9796 29.3591 16.9796H29.0186C28.7775 16.9795 28.5401 16.92 28.3275 16.8062C28.1149 16.6924 27.9338 16.5279 27.8 16.3273L27.2054 15.4348C27.0716 15.2343 26.8904 15.0699 26.6778 14.9563C26.4653 14.8426 26.2279 14.7831 25.9868 14.7832H23.0715Z" fill="white"/>
<path d="M11.8869 19.176C11.7337 19.1761 11.5843 19.1281 11.4598 19.0388C11.3353 18.9496 11.242 18.8235 11.1929 18.6784C11.1438 18.5333 11.1415 18.3765 11.1862 18.23C11.231 18.0835 11.3206 17.9547 11.4424 17.8618L12.9583 16.705C13.0487 16.6372 13.1222 16.5494 13.1731 16.4484C13.2239 16.3474 13.2506 16.236 13.2512 16.123V14.483C13.2505 14.2914 13.288 14.1016 13.3614 13.9246C13.4349 13.7476 13.5428 13.587 13.6789 13.4521L14.8125 12.2939C14.9485 12.1552 15.1107 12.0449 15.2897 11.9695C15.4688 11.894 15.661 11.855 15.8553 11.8546H16.9098V9.78994C16.9097 9.6623 16.875 9.53708 16.8095 9.42753L15.8677 7.81681C15.8015 7.70789 15.7083 7.61795 15.597 7.55573C15.4858 7.49351 15.3603 7.46113 15.2328 7.46172H13.4387C13.2444 7.46172 13.0582 7.38459 12.9208 7.24728C12.7835 7.10998 12.7064 6.92376 12.7064 6.72958C12.7064 6.5354 12.7835 6.34918 12.9208 6.21188C13.0582 6.07457 13.2444 5.99744 13.4387 5.99744H15.2328C15.6151 5.99768 15.9908 6.09703 16.3233 6.28579C16.6557 6.47455 16.9335 6.74627 17.1295 7.07442L18.0676 8.68074C18.2684 9.01588 18.3745 9.39925 18.3744 9.78994V11.8546C18.3744 12.2429 18.2201 12.6154 17.9455 12.89C17.6708 13.1646 17.2983 13.3189 16.9098 13.3189H15.8553L14.7129 14.483V16.123C14.7117 16.4612 14.6327 16.7947 14.4821 17.0975C14.3315 17.4004 14.1133 17.6647 13.8444 17.8699L12.3299 19.0259C12.2026 19.123 12.047 19.1757 11.8869 19.176Z" fill="white"/>
</g>
<defs>
<clipPath id="clip0_389_1995">
<rect width="46.8679" height="46.8571" fill="white" transform="translate(0.0664062 0.140305)"/>
</clipPath>
</defs>
</svg>
