<svg width="45" height="46" viewBox="0 0 45 46" fill="none" xmlns="http://www.w3.org/2000/svg">
<path d="M22.5007 21.681C24.1663 21.681 25.7945 21.1872 27.1795 20.262C28.5644 19.3369 29.6438 18.0219 30.2812 16.4834C30.9186 14.9449 31.0854 13.252 30.7604 11.6187C30.4355 9.9855 29.6334 8.48526 28.4556 7.30775C27.2779 6.13024 25.7773 5.32835 24.1437 5.00347C22.51 4.6786 20.8167 4.84534 19.2779 5.4826C17.739 6.11986 16.4238 7.19903 15.4984 8.58363C14.573 9.96824 14.0791 11.5961 14.0791 13.2613C14.0816 15.4936 14.9696 17.6337 16.5485 19.2122C18.1273 20.7906 20.2679 21.6785 22.5007 21.681ZM22.5007 6.71273C23.7962 6.71273 25.0626 7.09679 26.1397 7.81636C27.2169 8.53594 28.0564 9.55869 28.5522 10.7553C29.048 11.9519 29.1777 13.2686 28.9249 14.5389C28.6722 15.8092 28.0484 16.9761 27.1323 17.8919C26.2163 18.8077 25.0491 19.4314 23.7785 19.6841C22.5079 19.9368 21.1909 19.8071 19.9941 19.3115C18.7972 18.8158 17.7742 17.9765 17.0545 16.8995C16.3347 15.8226 15.9506 14.5565 15.9506 13.2613C15.9527 11.5252 16.6435 9.86075 17.8714 8.63311C19.0993 7.40546 20.7641 6.71484 22.5007 6.71273Z" fill="white"/>
<path d="M40.0078 15.3215C38.6764 14.0662 36.4422 14.2041 35.011 15.643L31.1757 19.6891C30.0799 20.9064 28.7402 21.8794 27.2435 22.5449C25.7469 23.2104 24.1269 23.5535 22.4889 23.5518C20.8509 23.5502 19.2316 23.2039 17.7362 22.5354C16.2409 21.8669 14.9031 20.8912 13.8098 19.6718L9.97541 15.6264C8.55993 14.203 6.32475 14.0651 4.99424 15.3213C4.29842 16.022 3.89647 16.9619 3.87048 17.9489C3.8445 18.9359 4.19645 19.8957 4.85444 20.632L13.1437 30.4424V39.4558C13.1437 39.7039 13.2423 39.9419 13.4178 40.1173C13.5933 40.2927 13.8313 40.3913 14.0794 40.3913C14.3276 40.3913 14.5656 40.2927 14.7411 40.1173C14.9166 39.9419 15.0152 39.7039 15.0152 39.4558V30.1006C15.0152 29.8798 14.9368 29.6661 14.794 29.4976L6.27558 19.4143C5.9333 19.0417 5.74353 18.5541 5.74387 18.0481C5.74421 17.5422 5.93463 17.0548 6.2774 16.6826C6.92984 16.0714 8.0319 16.3254 8.63315 16.9293L12.4355 20.9409C13.704 22.3501 15.2543 23.4773 16.9862 24.2494C18.718 25.0215 20.5928 25.4213 22.489 25.4229C24.3853 25.4246 26.2607 25.028 27.9939 24.2589C29.7271 23.4898 31.2794 22.3653 32.5503 20.9583L36.3535 16.9457C36.973 16.3226 38.0724 16.0714 38.7248 16.6826C39.0683 17.0569 39.2584 17.5467 39.2572 18.0547C39.256 18.5627 39.0637 19.0516 38.7184 19.4243L30.2082 29.4977C30.0654 29.6662 29.987 29.8798 29.987 30.1006V39.4558C29.987 39.7039 30.0856 39.9419 30.2611 40.1173C30.4366 40.2927 30.6746 40.3913 30.9227 40.3913C31.1709 40.3913 31.4089 40.2927 31.5844 40.1173C31.7599 39.9419 31.8585 39.7039 31.8585 39.4558V30.4421L40.1394 20.6422C40.8005 19.9059 41.1551 18.9448 41.1306 17.9557C41.1062 16.9666 40.7045 16.0242 40.0078 15.3215Z" fill="white"/>
</svg>
